<svg xmlns="http://www.w3.org/2000/svg" xmlns:xlink="http://www.w3.org/1999/xlink" xmlns:lucid="lucid" width="1056" height="864"><g transform="translate(0 0)" lucid:page-tab-id="0_0"><path d="M540 20h160v100H540z" stroke="#000" stroke-width="2" fill="#fff"/><use xlink:href="#a" transform="matrix(1,0,0,1,540,20) translate(24.10499999999999 55.025)"/><path d="M300 200h180v100H300z" stroke="#000" stroke-width="2" fill="#fff"/><use xlink:href="#b" transform="matrix(1,0,0,1,300,200) translate(16.104999999999997 55.025)"/><path d="M760 200h180v100H760z" stroke="#000" stroke-width="2" fill="#fff"/><use xlink:href="#c" transform="matrix(1,0,0,1,760,200) translate(28.304999999999986 55.025)"/><path d="M120 380h180v100H120z" stroke="#000" stroke-width="2" fill="#fff"/><use xlink:href="#d" transform="matrix(1,0,0,1,120,380) translate(33.029999999999994 55.025)"/><path d="M20 560h180v100H20z" stroke="#000" stroke-width="2" fill="#fff"/><use xlink:href="#e" transform="matrix(1,0,0,1,20,560) translate(60.57999999999999 55.025)"/><path d="M480 380h180v100H480z" stroke="#000" stroke-width="2" fill="#fff"/><use xlink:href="#f" transform="matrix(1,0,0,1,480,380) translate(46.75499999999999 55.025)"/><path d="M220 560h180v100H220z" stroke="#000" stroke-width="2" fill="#fff"/><use xlink:href="#g" transform="matrix(1,0,0,1,220,560) translate(48.529999999999994 55.025)"/><path d="M110 559v-39h72.75v-39" stroke="#000" stroke-width="2" fill="none"/><path d="M111 560h-2v-1h2zM183.75 481h-2v-1h2z"/><path d="M310 559v-39h-70v-39" stroke="#000" stroke-width="2" fill="none"/><path d="M311 560h-2v-1h2zM241 481h-2v-1h2z"/><path d="M390 199v-39h210v-39" stroke="#000" stroke-width="2" fill="none"/><path d="M391 200h-2v-1h2zM601 121h-2v-1h2z"/><path d="M850 199v-39H642.67v-39" stroke="#000" stroke-width="2" fill="none"/><path d="M851 200h-2v-1h2zM643.67 121h-2v-1h2z"/><path d="M210 379v-39h155.33v-39" stroke="#000" stroke-width="2" fill="none"/><path d="M211 380h-2v-1h2zM366.33 301h-2v-1h2z"/><path d="M570 379v-39H410.67v-39" stroke="#000" stroke-width="2" fill="none"/><path d="M571 380h-2v-1h2zM411.67 301h-2v-1h2z"/><path d="M480 560h180v100H480z" stroke="#000" stroke-width="2" fill="#fff"/><use xlink:href="#h" transform="matrix(1,0,0,1,480,560) translate(51.57999999999999 55.025)"/><path d="M570 559v-78" stroke="#000" stroke-width="2" fill="none"/><path d="M571 560h-2v-1h2zM571 481h-2v-1h2z"/><path d="M760 379h180v100H760z" stroke="#000" stroke-width="2" fill="#fff"/><use xlink:href="#i" transform="matrix(1,0,0,1,760,379) translate(67.53 55.025)"/><path d="M850 378v-77" stroke="#000" stroke-width="2" fill="none"/><path d="M851 379h-2v-1h2zM851 301h-2v-1h2z"/><path d="M760 559h180v100H760z" stroke="#000" stroke-width="2" fill="#fff"/><use xlink:href="#j" transform="matrix(1,0,0,1,760,559) translate(67.03 55.025)"/><path d="M850 558v-78" stroke="#000" stroke-width="2" fill="none"/><path d="M851 559h-2v-1h2zM851 480h-2v-1h2z"/><path d="M660 739h180v100H660z" stroke="#000" stroke-width="2" fill="#fff"/><use xlink:href="#k" transform="matrix(1,0,0,1,660,739) translate(73.055 55.025)"/><path d="M860 739h180v100H860z" stroke="#000" stroke-width="2" fill="#fff"/><use xlink:href="#k" transform="matrix(1,0,0,1,860,739) translate(73.055 55.025)"/><path d="M750 738v-39h72.67v-39" stroke="#000" stroke-width="2" fill="none"/><path d="M751 739h-2v-1h2zM823.67 660h-2v-1h2z"/><path d="M950 738v-39h-70v-39" stroke="#000" stroke-width="2" fill="none"/><path d="M951 739h-2v-1h2zM881 660h-2v-1h2z"/><defs><path d="M30-248c118-7 216 8 213 122C240-48 200 0 122 0H30v-248zM63-27c89 8 146-16 146-99s-60-101-146-95v194" id="l"/><path d="M114-163C36-179 61-72 57 0H25l-1-190h30c1 12-1 29 2 39 6-27 23-49 58-41v29" id="m"/><path d="M141-36C126-15 110 5 73 4 37 3 15-17 15-53c-1-64 63-63 125-63 3-35-9-54-41-54-24 1-41 7-42 31l-33-3c5-37 33-52 76-52 45 0 72 20 72 64v82c-1 20 7 32 28 27v20c-31 9-61-2-59-35zM48-53c0 20 12 33 32 33 41-3 63-29 60-74-43 2-92-5-92 41" id="n"/><path d="M206 0h-36l-40-164L89 0H53L-1-190h32L70-26l43-164h34l41 164 42-164h31" id="o"/><path d="M100-194c63 0 86 42 84 106H49c0 40 14 67 53 68 26 1 43-12 49-29l28 8c-11 28-37 45-77 45C44 4 14-33 15-96c1-61 26-98 85-98zm52 81c6-60-76-77-97-28-3 7-6 17-6 28h103" id="p"/><path d="M30 0v-248h33v221h125V0H30" id="q"/><path d="M179-190L93 31C79 59 56 82 12 73V49c39 6 53-20 64-50L1-190h34L92-34l54-156h33" id="r"/><path d="M100-194c62-1 85 37 85 99 1 63-27 99-86 99S16-35 15-95c0-66 28-99 85-99zM99-20c44 1 53-31 53-75 0-43-8-75-51-75s-53 32-53 75 10 74 51 75" id="s"/><path d="M84 4C-5 8 30-112 23-190h32v120c0 31 7 50 39 49 72-2 45-101 50-169h31l1 190h-30c-1-10 1-25-2-33-11 22-28 36-60 37" id="t"/><path d="M59-47c-2 24 18 29 38 22v24C64 9 27 4 27-40v-127H5v-23h24l9-43h21v43h35v23H59v120" id="u"/><g id="a"><use transform="matrix(0.05,0,0,0.05,0,0)" xlink:href="#l"/><use transform="matrix(0.05,0,0,0.05,12.950000000000001,0)" xlink:href="#m"/><use transform="matrix(0.05,0,0,0.05,18.900000000000002,0)" xlink:href="#n"/><use transform="matrix(0.05,0,0,0.05,28.900000000000002,0)" xlink:href="#o"/><use transform="matrix(0.05,0,0,0.05,41.85,0)" xlink:href="#p"/><use transform="matrix(0.05,0,0,0.05,51.85,0)" xlink:href="#m"/><use transform="matrix(0.05,0,0,0.05,57.800000000000004,0)" xlink:href="#q"/><use transform="matrix(0.05,0,0,0.05,67.80000000000001,0)" xlink:href="#n"/><use transform="matrix(0.05,0,0,0.05,77.80000000000001,0)" xlink:href="#r"/><use transform="matrix(0.05,0,0,0.05,86.80000000000001,0)" xlink:href="#s"/><use transform="matrix(0.05,0,0,0.05,96.80000000000001,0)" xlink:href="#t"/><use transform="matrix(0.05,0,0,0.05,106.80000000000001,0)" xlink:href="#u"/></g><path d="M212-179c-10-28-35-45-73-45-59 0-87 40-87 99 0 60 29 101 89 101 43 0 62-24 78-52l27 14C228-24 195 4 139 4 59 4 22-46 18-125c-6-104 99-153 187-111 19 9 31 26 39 46" id="v"/><path d="M85-194c31 0 48 13 60 33l-1-100h32l1 261h-30c-2-10 0-23-3-31C134-8 116 4 85 4 32 4 16-35 15-94c0-66 23-100 70-100zm9 24c-40 0-46 34-46 75 0 40 6 74 45 74 42 0 51-32 51-76 0-42-9-74-50-73" id="w"/><path d="M24-231v-30h32v30H24zM24 0v-190h32V0H24" id="x"/><path d="M117-194c89-4 53 116 60 194h-32v-121c0-31-8-49-39-48C34-167 62-67 57 0H25l-1-190h30c1 10-1 24 2 32 11-22 29-35 61-36" id="y"/><g id="b"><use transform="matrix(0.05,0,0,0.05,0,0)" xlink:href="#v"/><use transform="matrix(0.05,0,0,0.05,12.950000000000001,0)" xlink:href="#s"/><use transform="matrix(0.05,0,0,0.05,22.950000000000003,0)" xlink:href="#s"/><use transform="matrix(0.05,0,0,0.05,32.95,0)" xlink:href="#m"/><use transform="matrix(0.05,0,0,0.05,38.900000000000006,0)" xlink:href="#w"/><use transform="matrix(0.05,0,0,0.05,48.900000000000006,0)" xlink:href="#x"/><use transform="matrix(0.05,0,0,0.05,52.85,0)" xlink:href="#y"/><use transform="matrix(0.05,0,0,0.05,62.85,0)" xlink:href="#n"/><use transform="matrix(0.05,0,0,0.05,72.85000000000001,0)" xlink:href="#u"/><use transform="matrix(0.05,0,0,0.05,77.85000000000001,0)" xlink:href="#s"/><use transform="matrix(0.05,0,0,0.05,87.85000000000001,0)" xlink:href="#m"/><use transform="matrix(0.05,0,0,0.05,93.80000000000001,0)" xlink:href="#q"/><use transform="matrix(0.05,0,0,0.05,103.80000000000001,0)" xlink:href="#n"/><use transform="matrix(0.05,0,0,0.05,113.80000000000001,0)" xlink:href="#r"/><use transform="matrix(0.05,0,0,0.05,122.80000000000001,0)" xlink:href="#s"/><use transform="matrix(0.05,0,0,0.05,132.8,0)" xlink:href="#t"/><use transform="matrix(0.05,0,0,0.05,142.8,0)" xlink:href="#u"/></g><path d="M190 0L58-211 59 0H30v-248h39L202-35l-2-213h31V0h-41" id="z"/><path d="M108 0H70L1-190h34L89-25l56-165h34" id="A"/><path d="M177-190C167-65 218 103 67 71c-23-6-38-20-44-43l32-5c15 47 100 32 89-28v-30C133-14 115 1 83 1 29 1 15-40 15-95c0-56 16-97 71-98 29-1 48 16 59 35 1-10 0-23 2-32h30zM94-22c36 0 50-32 50-73 0-42-14-75-50-75-39 0-46 34-46 75s6 73 46 73" id="B"/><path d="M137 0h-34L2-248h35l83 218 83-218h36" id="C"/><g id="c"><use transform="matrix(0.05,0,0,0.05,0,0)" xlink:href="#z"/><use transform="matrix(0.05,0,0,0.05,12.950000000000001,0)" xlink:href="#n"/><use transform="matrix(0.05,0,0,0.05,22.950000000000003,0)" xlink:href="#A"/><use transform="matrix(0.05,0,0,0.05,31.950000000000003,0)" xlink:href="#x"/><use transform="matrix(0.05,0,0,0.05,35.900000000000006,0)" xlink:href="#B"/><use transform="matrix(0.05,0,0,0.05,45.900000000000006,0)" xlink:href="#n"/><use transform="matrix(0.05,0,0,0.05,55.900000000000006,0)" xlink:href="#u"/><use transform="matrix(0.05,0,0,0.05,60.900000000000006,0)" xlink:href="#x"/><use transform="matrix(0.05,0,0,0.05,64.85000000000001,0)" xlink:href="#s"/><use transform="matrix(0.05,0,0,0.05,74.85000000000001,0)" xlink:href="#y"/><use transform="matrix(0.05,0,0,0.05,84.85000000000001,0)" xlink:href="#C"/><use transform="matrix(0.05,0,0,0.05,96.50000000000001,0)" xlink:href="#x"/><use transform="matrix(0.05,0,0,0.05,100.45000000000002,0)" xlink:href="#p"/><use transform="matrix(0.05,0,0,0.05,110.45,0)" xlink:href="#o"/></g><path d="M205 0l-28-72H64L36 0H1l101-248h38L239 0h-34zm-38-99l-47-123c-12 45-31 82-46 123h93" id="D"/><path d="M115-194c55 1 70 41 70 98S169 2 115 4C84 4 66-9 55-30l1 105H24l-1-265h31l2 30c10-21 28-34 59-34zm-8 174c40 0 45-34 45-75s-6-73-45-74c-42 0-51 32-51 76 0 43 10 73 51 73" id="E"/><path d="M160-131c35 5 61 23 61 61C221 17 115-2 30 0v-248c76 3 177-17 177 60 0 33-19 50-47 57zm-97-11c50-1 110 9 110-42 0-47-63-36-110-37v79zm0 115c55-2 124 14 124-45 0-56-70-42-124-44v89" id="F"/><g id="d"><use transform="matrix(0.05,0,0,0.05,0,0)" xlink:href="#D"/><use transform="matrix(0.05,0,0,0.05,12,0)" xlink:href="#E"/><use transform="matrix(0.05,0,0,0.05,22,0)" xlink:href="#E"/><use transform="matrix(0.05,0,0,0.05,32,0)" xlink:href="#F"/><use transform="matrix(0.05,0,0,0.05,44,0)" xlink:href="#n"/><use transform="matrix(0.05,0,0,0.05,54,0)" xlink:href="#m"/><use transform="matrix(0.05,0,0,0.05,59.95,0)" xlink:href="#q"/><use transform="matrix(0.05,0,0,0.05,69.95,0)" xlink:href="#n"/><use transform="matrix(0.05,0,0,0.05,79.95,0)" xlink:href="#r"/><use transform="matrix(0.05,0,0,0.05,88.95,0)" xlink:href="#s"/><use transform="matrix(0.05,0,0,0.05,98.95,0)" xlink:href="#t"/><use transform="matrix(0.05,0,0,0.05,108.95,0)" xlink:href="#u"/></g><path d="M127-220V0H93v-220H8v-28h204v28h-85" id="G"/><path d="M24 0v-261h32V0H24" id="H"/><path d="M115-194c53 0 69 39 70 98 0 66-23 100-70 100C84 3 66-7 56-30L54 0H23l1-261h32v101c10-23 28-34 59-34zm-8 174c40 0 45-34 45-75 0-40-5-75-45-74-42 0-51 32-51 76 0 43 10 73 51 73" id="I"/><g id="e"><use transform="matrix(0.05,0,0,0.05,0,0)" xlink:href="#G"/><use transform="matrix(0.05,0,0,0.05,8.950000000000001,0)" xlink:href="#s"/><use transform="matrix(0.05,0,0,0.05,18.950000000000003,0)" xlink:href="#s"/><use transform="matrix(0.05,0,0,0.05,28.950000000000003,0)" xlink:href="#H"/><use transform="matrix(0.05,0,0,0.05,32.900000000000006,0)" xlink:href="#I"/><use transform="matrix(0.05,0,0,0.05,42.900000000000006,0)" xlink:href="#n"/><use transform="matrix(0.05,0,0,0.05,52.900000000000006,0)" xlink:href="#m"/></g><path d="M30-248c87 1 191-15 191 75 0 78-77 80-158 76V0H30v-248zm33 125c57 0 124 11 124-50 0-59-68-47-124-48v98" id="J"/><g id="f"><use transform="matrix(0.05,0,0,0.05,0,0)" xlink:href="#C"/><use transform="matrix(0.05,0,0,0.05,11.65,0)" xlink:href="#x"/><use transform="matrix(0.05,0,0,0.05,15.600000000000001,0)" xlink:href="#p"/><use transform="matrix(0.05,0,0,0.05,25.6,0)" xlink:href="#o"/><use transform="matrix(0.05,0,0,0.05,38.550000000000004,0)" xlink:href="#J"/><use transform="matrix(0.05,0,0,0.05,50.550000000000004,0)" xlink:href="#n"/><use transform="matrix(0.05,0,0,0.05,60.550000000000004,0)" xlink:href="#B"/><use transform="matrix(0.05,0,0,0.05,70.55000000000001,0)" xlink:href="#p"/><use transform="matrix(0.05,0,0,0.05,80.55000000000001,0)" xlink:href="#m"/></g><g id="g"><use transform="matrix(0.05,0,0,0.05,0,0)" xlink:href="#G"/><use transform="matrix(0.05,0,0,0.05,8.950000000000001,0)" xlink:href="#n"/><use transform="matrix(0.05,0,0,0.05,18.950000000000003,0)" xlink:href="#I"/><use transform="matrix(0.05,0,0,0.05,28.950000000000003,0)" xlink:href="#q"/><use transform="matrix(0.05,0,0,0.05,38.95,0)" xlink:href="#n"/><use transform="matrix(0.05,0,0,0.05,48.95,0)" xlink:href="#r"/><use transform="matrix(0.05,0,0,0.05,57.95,0)" xlink:href="#s"/><use transform="matrix(0.05,0,0,0.05,67.95,0)" xlink:href="#t"/><use transform="matrix(0.05,0,0,0.05,77.95,0)" xlink:href="#u"/></g><path d="M63-220v92h138v28H63V0H30v-248h175v28H63" id="K"/><path d="M210-169c-67 3-38 105-44 169h-31v-121c0-29-5-50-35-48C34-165 62-65 56 0H25l-1-190h30c1 10-1 24 2 32 10-44 99-50 107 0 11-21 27-35 58-36 85-2 47 119 55 194h-31v-121c0-29-5-49-35-48" id="L"/><g id="h"><use transform="matrix(0.05,0,0,0.05,0,0)" xlink:href="#K"/><use transform="matrix(0.05,0,0,0.05,10.950000000000001,0)" xlink:href="#m"/><use transform="matrix(0.05,0,0,0.05,16.900000000000002,0)" xlink:href="#n"/><use transform="matrix(0.05,0,0,0.05,26.900000000000002,0)" xlink:href="#B"/><use transform="matrix(0.05,0,0,0.05,36.900000000000006,0)" xlink:href="#L"/><use transform="matrix(0.05,0,0,0.05,51.85,0)" xlink:href="#p"/><use transform="matrix(0.05,0,0,0.05,61.85,0)" xlink:href="#y"/><use transform="matrix(0.05,0,0,0.05,71.85000000000001,0)" xlink:href="#u"/></g><g id="i"><use transform="matrix(0.05,0,0,0.05,0,0)" xlink:href="#L"/><use transform="matrix(0.05,0,0,0.05,14.950000000000001,0)" xlink:href="#p"/><use transform="matrix(0.05,0,0,0.05,24.950000000000003,0)" xlink:href="#y"/><use transform="matrix(0.05,0,0,0.05,34.95,0)" xlink:href="#t"/></g><g id="j"><use transform="matrix(0.05,0,0,0.05,0,0)" xlink:href="#B"/><use transform="matrix(0.05,0,0,0.05,10,0)" xlink:href="#m"/><use transform="matrix(0.05,0,0,0.05,15.949999999999998,0)" xlink:href="#s"/><use transform="matrix(0.05,0,0,0.05,25.950000000000003,0)" xlink:href="#t"/><use transform="matrix(0.05,0,0,0.05,35.95,0)" xlink:href="#E"/></g><g id="k"><use transform="matrix(0.05,0,0,0.05,0,0)" xlink:href="#x"/><use transform="matrix(0.05,0,0,0.05,3.95,0)" xlink:href="#u"/><use transform="matrix(0.05,0,0,0.05,8.95,0)" xlink:href="#p"/><use transform="matrix(0.05,0,0,0.05,18.95,0)" xlink:href="#L"/></g></defs></g></svg>