<?xml version="1.0" encoding="UTF-8" standalone="no"?><svg xmlns="http://www.w3.org/2000/svg" xmlns:xlink="http://www.w3.org/1999/xlink" contentScriptType="application/ecmascript" contentStyleType="text/css" height="430px" preserveAspectRatio="none" style="width:1246px;height:430px;" version="1.1" viewBox="0 0 1246 430" width="1246px" zoomAndPan="magnify"><defs><filter height="300%" id="f1k86x86t9sbb4" width="300%" x="-1" y="-1"><feGaussianBlur result="blurOut" stdDeviation="2.0"/><feColorMatrix in="blurOut" result="blurOut2" type="matrix" values="0 0 0 0 0 0 0 0 0 0 0 0 0 0 0 0 0 0 .4 0"/><feOffset dx="4.0" dy="4.0" in="blurOut2" result="blurOut3"/><feBlend in="SourceGraphic" in2="blurOut3" mode="normal"/></filter></defs><g><rect fill="#FFFFFF" filter="url(#f1k86x86t9sbb4)" height="119.4063" style="stroke: #A80036; stroke-width: 1.0;" width="10" x="413" y="71.6094"/><rect fill="#FFFFFF" filter="url(#f1k86x86t9sbb4)" height="119.0547" style="stroke: #A80036; stroke-width: 1.0;" width="10" x="413" y="251.3672"/><rect fill="#FFFFFF" filter="url(#f1k86x86t9sbb4)" height="30.3516" style="stroke: #A80036; stroke-width: 1.0;" width="10" x="597.5" y="101.9609"/><rect fill="#FFFFFF" filter="url(#f1k86x86t9sbb4)" height="74.7031" style="stroke: #A80036; stroke-width: 1.0;" width="10" x="802.5" y="281.7188"/><rect fill="#FFFFFF" filter="url(#f1k86x86t9sbb4)" height="30" style="stroke: #A80036; stroke-width: 1.0;" width="10" x="982" y="312.0703"/><rect fill="#FFFFFF" filter="url(#f1k86x86t9sbb4)" height="14.3516" style="stroke: #A80036; stroke-width: 1.0;" width="10" x="1104.5" y="162.6641"/><rect fill="#FFFFFF" filter="url(#f1k86x86t9sbb4)" height="158.4063" style="stroke: #A80036; stroke-width: 1.0;" width="10" x="1104.5" y="221.0156"/><line style="stroke: #A80036; stroke-width: 1.0; stroke-dasharray: 5.0,5.0;" x1="417.5" x2="417.5" y1="39.6094" y2="388.4219"/><line style="stroke: #A80036; stroke-width: 1.0; stroke-dasharray: 5.0,5.0;" x1="602.5" x2="602.5" y1="39.6094" y2="388.4219"/><line style="stroke: #A80036; stroke-width: 1.0; stroke-dasharray: 5.0,5.0;" x1="807.5" x2="807.5" y1="39.6094" y2="388.4219"/><line style="stroke: #A80036; stroke-width: 1.0; stroke-dasharray: 5.0,5.0;" x1="986.5" x2="986.5" y1="39.6094" y2="388.4219"/><line style="stroke: #A80036; stroke-width: 1.0; stroke-dasharray: 5.0,5.0;" x1="1109.5" x2="1109.5" y1="39.6094" y2="388.4219"/><rect fill="#FEFECE" filter="url(#f1k86x86t9sbb4)" height="31.6094" style="stroke: #A80036; stroke-width: 1.5;" width="155" x="338.5" y="3"/><text fill="#000000" font-family="sans-serif" font-size="14" lengthAdjust="spacingAndGlyphs" textLength="141" x="345.5" y="24.5332">: FriendListViewHolder</text><rect fill="#FEFECE" filter="url(#f1k86x86t9sbb4)" height="31.6094" style="stroke: #A80036; stroke-width: 1.5;" width="155" x="338.5" y="387.4219"/><text fill="#000000" font-family="sans-serif" font-size="14" lengthAdjust="spacingAndGlyphs" textLength="141" x="345.5" y="408.9551">: FriendListViewHolder</text><rect fill="#FEFECE" filter="url(#f1k86x86t9sbb4)" height="31.6094" style="stroke: #A80036; stroke-width: 1.5;" width="186" x="507.5" y="3"/><text fill="#000000" font-family="sans-serif" font-size="14" lengthAdjust="spacingAndGlyphs" textLength="172" x="514.5" y="24.5332">binding : FriendItemBinding</text><rect fill="#FEFECE" filter="url(#f1k86x86t9sbb4)" height="31.6094" style="stroke: #A80036; stroke-width: 1.5;" width="186" x="507.5" y="387.4219"/><text fill="#000000" font-family="sans-serif" font-size="14" lengthAdjust="spacingAndGlyphs" textLength="172" x="514.5" y="408.9551">binding : FriendItemBinding</text><rect fill="#FEFECE" filter="url(#f1k86x86t9sbb4)" height="31.6094" style="stroke: #A80036; stroke-width: 1.5;" width="196" x="707.5" y="3"/><text fill="#000000" font-family="sans-serif" font-size="14" lengthAdjust="spacingAndGlyphs" textLength="182" x="714.5" y="24.5332">listener : FriendListFragment</text><rect fill="#FEFECE" filter="url(#f1k86x86t9sbb4)" height="31.6094" style="stroke: #A80036; stroke-width: 1.5;" width="196" x="707.5" y="387.4219"/><text fill="#000000" font-family="sans-serif" font-size="14" lengthAdjust="spacingAndGlyphs" textLength="182" x="714.5" y="408.9551">listener : FriendListFragment</text><rect fill="#FEFECE" filter="url(#f1k86x86t9sbb4)" height="31.6094" style="stroke: #A80036; stroke-width: 1.5;" width="135" x="917.5" y="3"/><text fill="#000000" font-family="sans-serif" font-size="14" lengthAdjust="spacingAndGlyphs" textLength="121" x="924.5" y="24.5332">FriendDetailActivity</text><rect fill="#FEFECE" filter="url(#f1k86x86t9sbb4)" height="31.6094" style="stroke: #A80036; stroke-width: 1.5;" width="135" x="917.5" y="387.4219"/><text fill="#000000" font-family="sans-serif" font-size="14" lengthAdjust="spacingAndGlyphs" textLength="121" x="924.5" y="408.9551">FriendDetailActivity</text><rect fill="#FEFECE" filter="url(#f1k86x86t9sbb4)" height="31.6094" style="stroke: #A80036; stroke-width: 1.5;" width="82" x="1066.5" y="3"/><text fill="#000000" font-family="sans-serif" font-size="14" lengthAdjust="spacingAndGlyphs" textLength="68" x="1073.5" y="24.5332">view : View</text><rect fill="#FEFECE" filter="url(#f1k86x86t9sbb4)" height="31.6094" style="stroke: #A80036; stroke-width: 1.5;" width="82" x="1066.5" y="387.4219"/><text fill="#000000" font-family="sans-serif" font-size="14" lengthAdjust="spacingAndGlyphs" textLength="68" x="1073.5" y="408.9551">view : View</text><rect fill="#FFFFFF" filter="url(#f1k86x86t9sbb4)" height="119.4063" style="stroke: #A80036; stroke-width: 1.0;" width="10" x="413" y="71.6094"/><rect fill="#FFFFFF" filter="url(#f1k86x86t9sbb4)" height="119.0547" style="stroke: #A80036; stroke-width: 1.0;" width="10" x="413" y="251.3672"/><rect fill="#FFFFFF" filter="url(#f1k86x86t9sbb4)" height="30.3516" style="stroke: #A80036; stroke-width: 1.0;" width="10" x="597.5" y="101.9609"/><rect fill="#FFFFFF" filter="url(#f1k86x86t9sbb4)" height="74.7031" style="stroke: #A80036; stroke-width: 1.0;" width="10" x="802.5" y="281.7188"/><rect fill="#FFFFFF" filter="url(#f1k86x86t9sbb4)" height="30" style="stroke: #A80036; stroke-width: 1.0;" width="10" x="982" y="312.0703"/><rect fill="#FFFFFF" filter="url(#f1k86x86t9sbb4)" height="14.3516" style="stroke: #A80036; stroke-width: 1.0;" width="10" x="1104.5" y="162.6641"/><rect fill="#FFFFFF" filter="url(#f1k86x86t9sbb4)" height="158.4063" style="stroke: #A80036; stroke-width: 1.0;" width="10" x="1104.5" y="221.0156"/><polygon fill="#A80036" points="401,67.6094,411,71.6094,401,75.6094,405,71.6094" style="stroke: #A80036; stroke-width: 1.0;"/><line style="stroke: #A80036; stroke-width: 1.0;" x1="3" x2="407" y1="71.6094" y2="71.6094"/><text fill="#000000" font-family="sans-serif" font-size="13" lengthAdjust="spacingAndGlyphs" textLength="391" x="10" y="67.1045">&lt;&lt;create&gt;&gt;(binding:FriendItemBinding, listener:FriendListFragment)</text><polygon fill="#A80036" points="585.5,97.9609,595.5,101.9609,585.5,105.9609,589.5,101.9609" style="stroke: #A80036; stroke-width: 1.0;"/><line style="stroke: #A80036; stroke-width: 1.0;" x1="423" x2="591.5" y1="101.9609" y2="101.9609"/><text fill="#000000" font-family="sans-serif" font-size="13" lengthAdjust="spacingAndGlyphs" textLength="53" x="430" y="97.4561">getRoot()</text><polygon fill="#A80036" points="434,128.3125,424,132.3125,434,136.3125,430,132.3125" style="stroke: #A80036; stroke-width: 1.0;"/><line style="stroke: #A80036; stroke-width: 1.0; stroke-dasharray: 2.0,2.0;" x1="428" x2="601.5" y1="132.3125" y2="132.3125"/><text fill="#000000" font-family="sans-serif" font-size="13" lengthAdjust="spacingAndGlyphs" textLength="56" x="440" y="127.8076">view:View</text><polygon fill="#A80036" points="1092.5,158.6641,1102.5,162.6641,1092.5,166.6641,1096.5,162.6641" style="stroke: #A80036; stroke-width: 1.0;"/><line style="stroke: #A80036; stroke-width: 1.0;" x1="423" x2="1098.5" y1="162.6641" y2="162.6641"/><text fill="#000000" font-family="sans-serif" font-size="13" lengthAdjust="spacingAndGlyphs" textLength="139" x="430" y="158.1592">setOnClickListener(this)</text><polygon fill="#A80036" points="434,173.0156,424,177.0156,434,181.0156,430,177.0156" style="stroke: #A80036; stroke-width: 1.0;"/><line style="stroke: #A80036; stroke-width: 1.0; stroke-dasharray: 2.0,2.0;" x1="428" x2="1108.5" y1="177.0156" y2="177.0156"/><polygon fill="#A80036" points="14,187.0156,4,191.0156,14,195.0156,10,191.0156" style="stroke: #A80036; stroke-width: 1.0;"/><line style="stroke: #A80036; stroke-width: 1.0; stroke-dasharray: 2.0,2.0;" x1="8" x2="417" y1="191.0156" y2="191.0156"/><polygon fill="#A80036" points="1125.5,217.0156,1115.5,221.0156,1125.5,225.0156,1121.5,221.0156" style="stroke: #A80036; stroke-width: 1.0;"/><line style="stroke: #A80036; stroke-width: 1.0;" x1="1119.5" x2="1234.5" y1="221.0156" y2="221.0156"/><text fill="#000000" font-family="sans-serif" font-size="13" lengthAdjust="spacingAndGlyphs" textLength="97" x="1131.5" y="216.5107">User clicks View</text><line style="stroke: #A80036; stroke-width: 1.0;" x1="423" x2="433" y1="251.3672" y2="247.3672"/><line style="stroke: #A80036; stroke-width: 1.0;" x1="423" x2="433" y1="251.3672" y2="255.3672"/><line style="stroke: #A80036; stroke-width: 1.0;" x1="423" x2="1103.5" y1="251.3672" y2="251.3672"/><text fill="#000000" font-family="sans-serif" font-size="13" lengthAdjust="spacingAndGlyphs" textLength="51" x="440" y="246.8623">onClick()</text><polygon fill="#A80036" points="790.5,277.7188,800.5,281.7188,790.5,285.7188,794.5,281.7188" style="stroke: #A80036; stroke-width: 1.0;"/><line style="stroke: #A80036; stroke-width: 1.0;" x1="423" x2="796.5" y1="281.7188" y2="281.7188"/><text fill="#000000" font-family="sans-serif" font-size="13" lengthAdjust="spacingAndGlyphs" textLength="217" x="430" y="277.2139">onItemClicked(position:int, user:User)</text><line style="stroke: #A80036; stroke-width: 1.0;" x1="980" x2="970" y1="312.0703" y2="308.0703"/><line style="stroke: #A80036; stroke-width: 1.0;" x1="980" x2="970" y1="312.0703" y2="316.0703"/><line style="stroke: #A80036; stroke-width: 1.0;" x1="812.5" x2="981" y1="312.0703" y2="312.0703"/><text fill="#000000" font-family="sans-serif" font-size="13" lengthAdjust="spacingAndGlyphs" textLength="59" x="819.5" y="307.5654">start(user)</text><polygon fill="#A80036" points="434,352.4219,424,356.4219,434,360.4219,430,356.4219" style="stroke: #A80036; stroke-width: 1.0;"/><line style="stroke: #A80036; stroke-width: 1.0; stroke-dasharray: 2.0,2.0;" x1="428" x2="806.5" y1="356.4219" y2="356.4219"/><polygon fill="#A80036" points="1092.5,366.4219,1102.5,370.4219,1092.5,374.4219,1096.5,370.4219" style="stroke: #A80036; stroke-width: 1.0;"/><line style="stroke: #A80036; stroke-width: 1.0; stroke-dasharray: 2.0,2.0;" x1="418" x2="1098.5" y1="370.4219" y2="370.4219"/><!--
@startuml

participant ": FriendListViewHolder" as FLVH
participant "binding : FriendItemBinding" as FIB
participant "listener : FriendListFragment" as FCL
participant "FriendDetailActivity" as FDA
participant "view : View" as View


-> FLVH: <<create>>(binding:FriendItemBinding, listener:FriendListFragment)
activate FLVH

FLVH -> FIB: getRoot()
activate FIB
FIB - -> FLVH: view:View
deactivate FIB

FLVH -> View : setOnClickListener(this)
activate View
View - -> FLVH
deactivate View
<- - FLVH
deactivate FLVH

View <- : User clicks View
activate View
View ->> FLVH: onClick()
activate FLVH

FLVH -> FCL:onItemClicked(position:int, user:User)
activate FCL
FCL ->> FDA:start(user)
activate FDA
deactivate FDA
FCL - -> FLVH
deactivate FCL
FLVH - -> View
deactivate FLVH
@enduml

PlantUML version 1.2017.15(Mon Jul 03 18:45:34 CEST 2017)
(GPL source distribution)
Java Runtime: OpenJDK Runtime Environment
JVM: OpenJDK 64-Bit Server VM
Java Version: 1.8.0_152-release-915-b01
Operating System: Windows 10
OS Version: 10.0
Default Encoding: Cp1252
Language: en
Country: US
--></g></svg>