<?xml version="1.0" encoding="UTF-8" standalone="no"?><svg xmlns="http://www.w3.org/2000/svg" xmlns:xlink="http://www.w3.org/1999/xlink" contentScriptType="application/ecmascript" contentStyleType="text/css" height="706px" preserveAspectRatio="none" style="width:537px;height:706px;" version="1.1" viewBox="0 0 537 706" width="537px" zoomAndPan="magnify"><defs><filter height="300%" id="fz6ak9txzxwkq" width="300%" x="-1" y="-1"><feGaussianBlur result="blurOut" stdDeviation="2.0"/><feColorMatrix in="blurOut" result="blurOut2" type="matrix" values="0 0 0 0 0 0 0 0 0 0 0 0 0 0 0 0 0 0 .4 0"/><feOffset dx="4.0" dy="4.0" in="blurOut2" result="blurOut3"/><feBlend in="SourceGraphic" in2="blurOut3" mode="normal"/></filter></defs><g><!--cluster View--><rect fill="#FFFFFF" filter="url(#fz6ak9txzxwkq)" height="100" style="stroke: #000000; stroke-width: 2.0;" width="486" x="31" y="24"/><text fill="#000000" font-family="sans-serif" font-size="14" font-weight="bold" lengthAdjust="spacingAndGlyphs" textLength="33" x="257.5" y="40.5332">View</text><!--cluster ViewModel--><rect fill="#FFFFFF" filter="url(#fz6ak9txzxwkq)" height="100" style="stroke: #000000; stroke-width: 2.0;" width="504" x="22" y="148"/><text fill="#000000" font-family="sans-serif" font-size="14" font-weight="bold" lengthAdjust="spacingAndGlyphs" textLength="77" x="235.5" y="164.5332">ViewModel</text><!--cluster repository--><polygon fill="#FFFFFF" filter="url(#fz6ak9txzxwkq)" points="88,272,166,272,173,295.6094,395,295.6094,395,372,88,372,88,272" style="stroke: #000000; stroke-width: 2.0;"/><line style="stroke: #000000; stroke-width: 2.0;" x1="88" x2="173" y1="295.6094" y2="295.6094"/><text fill="#000000" font-family="sans-serif" font-size="14" font-weight="bold" lengthAdjust="spacingAndGlyphs" textLength="72" x="92" y="288.5332">repository</text><!--cluster database--><polygon fill="#FFFFFF" filter="url(#fz6ak9txzxwkq)" points="22,396,92,396,99,419.6094,257,419.6094,257,604,22,604,22,396" style="stroke: #000000; stroke-width: 2.0;"/><line style="stroke: #000000; stroke-width: 2.0;" x1="22" x2="99" y1="419.6094" y2="419.6094"/><text fill="#000000" font-family="sans-serif" font-size="14" font-weight="bold" lengthAdjust="spacingAndGlyphs" textLength="64" x="26" y="412.5332">database</text><!--cluster networking--><polygon fill="#FFFFFF" filter="url(#fz6ak9txzxwkq)" points="281,396,366,396,373,419.6094,453,419.6094,453,604,281,604,281,396" style="stroke: #000000; stroke-width: 2.0;"/><line style="stroke: #000000; stroke-width: 2.0;" x1="281" x2="373" y1="419.6094" y2="419.6094"/><text fill="#000000" font-family="sans-serif" font-size="14" font-weight="bold" lengthAdjust="spacingAndGlyphs" textLength="79" x="285" y="412.5332">networking</text><!--class FriendListFragment--><rect fill="#FEFECE" filter="url(#fz6ak9txzxwkq)" height="48" id="FriendListFragment" style="stroke: #A80036; stroke-width: 1.5;" width="140" x="47" y="60"/><ellipse cx="62" cy="76" fill="#ADD1B2" rx="11" ry="11" style="stroke: #A80036; stroke-width: 1.0;"/><path d="M64,72.5 Q64.2031,72 64.4375,71.75 Q64.6719,71.5 64.9375,71.5 Q65.4063,71.5 65.7031,71.7813 Q66,72.0625 66,72.7188 L66,74.2813 Q66,74.9375 65.7188,75.2188 Q65.4375,75.5 65,75.5 Q64.6094,75.5 64.3594,75.3281 Q64.1094,75.1563 64,74.7031 Q63.9531,74.3906 63.7813,74.2188 Q63.4688,73.8906 62.9063,73.6953 Q62.3438,73.5 61.7813,73.5 Q61.0781,73.5 60.4922,73.7813 Q59.9063,74.0625 59.4531,74.6875 Q59,75.3125 59,76.1719 L59,77.0938 Q59,78.125 59.8438,78.8125 Q60.6875,79.5 62.1875,79.5 Q63.0781,79.5 63.7031,79.2969 Q64.0625,79.1875 64.4688,78.8281 Q64.7344,78.625 64.875,78.5625 Q65.0156,78.5 65.1875,78.5 Q65.5156,78.5 65.7578,78.7578 Q66,79.0156 66,79.375 Q66,79.7188 65.6563,80.125 Q65.1563,80.7188 64.3594,81.0469 Q63.3125,81.5 62.0313,81.5 Q60.5313,81.5 59.3281,80.9063 Q58.3594,80.4375 57.6797,79.4219 Q57,78.4063 57,77.2031 L57,76.1094 Q57,74.8594 57.6016,73.7656 Q58.2031,72.6719 59.2578,72.0859 Q60.3125,71.5 61.5,71.5 Q62.2188,71.5 62.8438,71.75 Q63.4688,72 64,72.5 Z "/><text fill="#000000" font-family="sans-serif" font-size="12" lengthAdjust="spacingAndGlyphs" textLength="108" x="76" y="80.9102">FriendListFragment</text><line style="stroke: #A80036; stroke-width: 1.5;" x1="48" x2="186" y1="92" y2="92"/><line style="stroke: #A80036; stroke-width: 1.5;" x1="48" x2="186" y1="100" y2="100"/><!--class MapFragment--><rect fill="#FEFECE" filter="url(#fz6ak9txzxwkq)" height="48" id="MapFragment" style="stroke: #A80036; stroke-width: 1.5;" width="108" x="222" y="60"/><ellipse cx="237" cy="76" fill="#ADD1B2" rx="11" ry="11" style="stroke: #A80036; stroke-width: 1.0;"/><path d="M239,72.5 Q239.2031,72 239.4375,71.75 Q239.6719,71.5 239.9375,71.5 Q240.4063,71.5 240.7031,71.7813 Q241,72.0625 241,72.7188 L241,74.2813 Q241,74.9375 240.7188,75.2188 Q240.4375,75.5 240,75.5 Q239.6094,75.5 239.3594,75.3281 Q239.1094,75.1563 239,74.7031 Q238.9531,74.3906 238.7813,74.2188 Q238.4688,73.8906 237.9063,73.6953 Q237.3438,73.5 236.7813,73.5 Q236.0781,73.5 235.4922,73.7813 Q234.9063,74.0625 234.4531,74.6875 Q234,75.3125 234,76.1719 L234,77.0938 Q234,78.125 234.8438,78.8125 Q235.6875,79.5 237.1875,79.5 Q238.0781,79.5 238.7031,79.2969 Q239.0625,79.1875 239.4688,78.8281 Q239.7344,78.625 239.875,78.5625 Q240.0156,78.5 240.1875,78.5 Q240.5156,78.5 240.7578,78.7578 Q241,79.0156 241,79.375 Q241,79.7188 240.6563,80.125 Q240.1563,80.7188 239.3594,81.0469 Q238.3125,81.5 237.0313,81.5 Q235.5313,81.5 234.3281,80.9063 Q233.3594,80.4375 232.6797,79.4219 Q232,78.4063 232,77.2031 L232,76.1094 Q232,74.8594 232.6016,73.7656 Q233.2031,72.6719 234.2578,72.0859 Q235.3125,71.5 236.5,71.5 Q237.2188,71.5 237.8438,71.75 Q238.4688,72 239,72.5 Z "/><text fill="#000000" font-family="sans-serif" font-size="12" lengthAdjust="spacingAndGlyphs" textLength="76" x="251" y="80.9102">MapFragment</text><line style="stroke: #A80036; stroke-width: 1.5;" x1="223" x2="329" y1="92" y2="92"/><line style="stroke: #A80036; stroke-width: 1.5;" x1="223" x2="329" y1="100" y2="100"/><!--class EventListFragment--><rect fill="#FEFECE" filter="url(#fz6ak9txzxwkq)" height="48" id="EventListFragment" style="stroke: #A80036; stroke-width: 1.5;" width="135" x="365.5" y="60"/><ellipse cx="380.5" cy="76" fill="#ADD1B2" rx="11" ry="11" style="stroke: #A80036; stroke-width: 1.0;"/><path d="M382.5,72.5 Q382.7031,72 382.9375,71.75 Q383.1719,71.5 383.4375,71.5 Q383.9063,71.5 384.2031,71.7813 Q384.5,72.0625 384.5,72.7188 L384.5,74.2813 Q384.5,74.9375 384.2188,75.2188 Q383.9375,75.5 383.5,75.5 Q383.1094,75.5 382.8594,75.3281 Q382.6094,75.1563 382.5,74.7031 Q382.4531,74.3906 382.2813,74.2188 Q381.9688,73.8906 381.4063,73.6953 Q380.8438,73.5 380.2813,73.5 Q379.5781,73.5 378.9922,73.7813 Q378.4063,74.0625 377.9531,74.6875 Q377.5,75.3125 377.5,76.1719 L377.5,77.0938 Q377.5,78.125 378.3438,78.8125 Q379.1875,79.5 380.6875,79.5 Q381.5781,79.5 382.2031,79.2969 Q382.5625,79.1875 382.9688,78.8281 Q383.2344,78.625 383.375,78.5625 Q383.5156,78.5 383.6875,78.5 Q384.0156,78.5 384.2578,78.7578 Q384.5,79.0156 384.5,79.375 Q384.5,79.7188 384.1563,80.125 Q383.6563,80.7188 382.8594,81.0469 Q381.8125,81.5 380.5313,81.5 Q379.0313,81.5 377.8281,80.9063 Q376.8594,80.4375 376.1797,79.4219 Q375.5,78.4063 375.5,77.2031 L375.5,76.1094 Q375.5,74.8594 376.1016,73.7656 Q376.7031,72.6719 377.7578,72.0859 Q378.8125,71.5 380,71.5 Q380.7188,71.5 381.3438,71.75 Q381.9688,72 382.5,72.5 Z "/><text fill="#000000" font-family="sans-serif" font-size="12" lengthAdjust="spacingAndGlyphs" textLength="103" x="394.5" y="80.9102">EventListFragment</text><line style="stroke: #A80036; stroke-width: 1.5;" x1="366.5" x2="499.5" y1="92" y2="92"/><line style="stroke: #A80036; stroke-width: 1.5;" x1="366.5" x2="499.5" y1="100" y2="100"/><!--class FriendListViewModel--><rect fill="#FEFECE" filter="url(#fz6ak9txzxwkq)" height="48" id="FriendListViewModel" style="stroke: #A80036; stroke-width: 1.5;" width="146" x="38" y="184"/><ellipse cx="53" cy="200" fill="#ADD1B2" rx="11" ry="11" style="stroke: #A80036; stroke-width: 1.0;"/><path d="M55,196.5 Q55.2031,196 55.4375,195.75 Q55.6719,195.5 55.9375,195.5 Q56.4063,195.5 56.7031,195.7813 Q57,196.0625 57,196.7188 L57,198.2813 Q57,198.9375 56.7188,199.2188 Q56.4375,199.5 56,199.5 Q55.6094,199.5 55.3594,199.3281 Q55.1094,199.1563 55,198.7031 Q54.9531,198.3906 54.7813,198.2188 Q54.4688,197.8906 53.9063,197.6953 Q53.3438,197.5 52.7813,197.5 Q52.0781,197.5 51.4922,197.7813 Q50.9063,198.0625 50.4531,198.6875 Q50,199.3125 50,200.1719 L50,201.0938 Q50,202.125 50.8438,202.8125 Q51.6875,203.5 53.1875,203.5 Q54.0781,203.5 54.7031,203.2969 Q55.0625,203.1875 55.4688,202.8281 Q55.7344,202.625 55.875,202.5625 Q56.0156,202.5 56.1875,202.5 Q56.5156,202.5 56.7578,202.7578 Q57,203.0156 57,203.375 Q57,203.7188 56.6563,204.125 Q56.1563,204.7188 55.3594,205.0469 Q54.3125,205.5 53.0313,205.5 Q51.5313,205.5 50.3281,204.9063 Q49.3594,204.4375 48.6797,203.4219 Q48,202.4063 48,201.2031 L48,200.1094 Q48,198.8594 48.6016,197.7656 Q49.2031,196.6719 50.2578,196.0859 Q51.3125,195.5 52.5,195.5 Q53.2188,195.5 53.8438,195.75 Q54.4688,196 55,196.5 Z "/><text fill="#000000" font-family="sans-serif" font-size="12" lengthAdjust="spacingAndGlyphs" textLength="114" x="67" y="204.9102">FriendListViewModel</text><line style="stroke: #A80036; stroke-width: 1.5;" x1="39" x2="183" y1="216" y2="216"/><line style="stroke: #A80036; stroke-width: 1.5;" x1="39" x2="183" y1="224" y2="224"/><!--class MapViewModel--><rect fill="#FEFECE" filter="url(#fz6ak9txzxwkq)" height="48" id="MapViewModel" style="stroke: #A80036; stroke-width: 1.5;" width="114" x="219" y="184"/><ellipse cx="234" cy="200" fill="#ADD1B2" rx="11" ry="11" style="stroke: #A80036; stroke-width: 1.0;"/><path d="M236,196.5 Q236.2031,196 236.4375,195.75 Q236.6719,195.5 236.9375,195.5 Q237.4063,195.5 237.7031,195.7813 Q238,196.0625 238,196.7188 L238,198.2813 Q238,198.9375 237.7188,199.2188 Q237.4375,199.5 237,199.5 Q236.6094,199.5 236.3594,199.3281 Q236.1094,199.1563 236,198.7031 Q235.9531,198.3906 235.7813,198.2188 Q235.4688,197.8906 234.9063,197.6953 Q234.3438,197.5 233.7813,197.5 Q233.0781,197.5 232.4922,197.7813 Q231.9063,198.0625 231.4531,198.6875 Q231,199.3125 231,200.1719 L231,201.0938 Q231,202.125 231.8438,202.8125 Q232.6875,203.5 234.1875,203.5 Q235.0781,203.5 235.7031,203.2969 Q236.0625,203.1875 236.4688,202.8281 Q236.7344,202.625 236.875,202.5625 Q237.0156,202.5 237.1875,202.5 Q237.5156,202.5 237.7578,202.7578 Q238,203.0156 238,203.375 Q238,203.7188 237.6563,204.125 Q237.1563,204.7188 236.3594,205.0469 Q235.3125,205.5 234.0313,205.5 Q232.5313,205.5 231.3281,204.9063 Q230.3594,204.4375 229.6797,203.4219 Q229,202.4063 229,201.2031 L229,200.1094 Q229,198.8594 229.6016,197.7656 Q230.2031,196.6719 231.2578,196.0859 Q232.3125,195.5 233.5,195.5 Q234.2188,195.5 234.8438,195.75 Q235.4688,196 236,196.5 Z "/><text fill="#000000" font-family="sans-serif" font-size="12" lengthAdjust="spacingAndGlyphs" textLength="82" x="248" y="204.9102">MapViewModel</text><line style="stroke: #A80036; stroke-width: 1.5;" x1="220" x2="332" y1="216" y2="216"/><line style="stroke: #A80036; stroke-width: 1.5;" x1="220" x2="332" y1="224" y2="224"/><!--class EventListViewModel--><rect fill="#FEFECE" filter="url(#fz6ak9txzxwkq)" height="48" id="EventListViewModel" style="stroke: #A80036; stroke-width: 1.5;" width="141" x="368.5" y="184"/><ellipse cx="383.5" cy="200" fill="#ADD1B2" rx="11" ry="11" style="stroke: #A80036; stroke-width: 1.0;"/><path d="M385.5,196.5 Q385.7031,196 385.9375,195.75 Q386.1719,195.5 386.4375,195.5 Q386.9063,195.5 387.2031,195.7813 Q387.5,196.0625 387.5,196.7188 L387.5,198.2813 Q387.5,198.9375 387.2188,199.2188 Q386.9375,199.5 386.5,199.5 Q386.1094,199.5 385.8594,199.3281 Q385.6094,199.1563 385.5,198.7031 Q385.4531,198.3906 385.2813,198.2188 Q384.9688,197.8906 384.4063,197.6953 Q383.8438,197.5 383.2813,197.5 Q382.5781,197.5 381.9922,197.7813 Q381.4063,198.0625 380.9531,198.6875 Q380.5,199.3125 380.5,200.1719 L380.5,201.0938 Q380.5,202.125 381.3438,202.8125 Q382.1875,203.5 383.6875,203.5 Q384.5781,203.5 385.2031,203.2969 Q385.5625,203.1875 385.9688,202.8281 Q386.2344,202.625 386.375,202.5625 Q386.5156,202.5 386.6875,202.5 Q387.0156,202.5 387.2578,202.7578 Q387.5,203.0156 387.5,203.375 Q387.5,203.7188 387.1563,204.125 Q386.6563,204.7188 385.8594,205.0469 Q384.8125,205.5 383.5313,205.5 Q382.0313,205.5 380.8281,204.9063 Q379.8594,204.4375 379.1797,203.4219 Q378.5,202.4063 378.5,201.2031 L378.5,200.1094 Q378.5,198.8594 379.1016,197.7656 Q379.7031,196.6719 380.7578,196.0859 Q381.8125,195.5 383,195.5 Q383.7188,195.5 384.3438,195.75 Q384.9688,196 385.5,196.5 Z "/><text fill="#000000" font-family="sans-serif" font-size="12" lengthAdjust="spacingAndGlyphs" textLength="109" x="397.5" y="204.9102">EventListViewModel</text><line style="stroke: #A80036; stroke-width: 1.5;" x1="369.5" x2="508.5" y1="216" y2="216"/><line style="stroke: #A80036; stroke-width: 1.5;" x1="369.5" x2="508.5" y1="224" y2="224"/><!--class UserRepository--><rect fill="#FEFECE" filter="url(#fz6ak9txzxwkq)" height="48" id="UserRepository" style="stroke: #A80036; stroke-width: 1.5;" width="118" x="104" y="308"/><ellipse cx="119" cy="324" fill="#ADD1B2" rx="11" ry="11" style="stroke: #A80036; stroke-width: 1.0;"/><path d="M121,320.5 Q121.2031,320 121.4375,319.75 Q121.6719,319.5 121.9375,319.5 Q122.4063,319.5 122.7031,319.7813 Q123,320.0625 123,320.7188 L123,322.2813 Q123,322.9375 122.7188,323.2188 Q122.4375,323.5 122,323.5 Q121.6094,323.5 121.3594,323.3281 Q121.1094,323.1563 121,322.7031 Q120.9531,322.3906 120.7813,322.2188 Q120.4688,321.8906 119.9063,321.6953 Q119.3438,321.5 118.7813,321.5 Q118.0781,321.5 117.4922,321.7813 Q116.9063,322.0625 116.4531,322.6875 Q116,323.3125 116,324.1719 L116,325.0938 Q116,326.125 116.8438,326.8125 Q117.6875,327.5 119.1875,327.5 Q120.0781,327.5 120.7031,327.2969 Q121.0625,327.1875 121.4688,326.8281 Q121.7344,326.625 121.875,326.5625 Q122.0156,326.5 122.1875,326.5 Q122.5156,326.5 122.7578,326.7578 Q123,327.0156 123,327.375 Q123,327.7188 122.6563,328.125 Q122.1563,328.7188 121.3594,329.0469 Q120.3125,329.5 119.0313,329.5 Q117.5313,329.5 116.3281,328.9063 Q115.3594,328.4375 114.6797,327.4219 Q114,326.4063 114,325.2031 L114,324.1094 Q114,322.8594 114.6016,321.7656 Q115.2031,320.6719 116.2578,320.0859 Q117.3125,319.5 118.5,319.5 Q119.2188,319.5 119.8438,319.75 Q120.4688,320 121,320.5 Z "/><text fill="#000000" font-family="sans-serif" font-size="12" lengthAdjust="spacingAndGlyphs" textLength="86" x="133" y="328.9102">UserRepository</text><line style="stroke: #A80036; stroke-width: 1.5;" x1="105" x2="221" y1="340" y2="340"/><line style="stroke: #A80036; stroke-width: 1.5;" x1="105" x2="221" y1="348" y2="348"/><!--class EventRepository--><rect fill="#FEFECE" filter="url(#fz6ak9txzxwkq)" height="48" id="EventRepository" style="stroke: #A80036; stroke-width: 1.5;" width="121" x="257.5" y="308"/><ellipse cx="272.5" cy="324" fill="#ADD1B2" rx="11" ry="11" style="stroke: #A80036; stroke-width: 1.0;"/><path d="M274.5,320.5 Q274.7031,320 274.9375,319.75 Q275.1719,319.5 275.4375,319.5 Q275.9063,319.5 276.2031,319.7813 Q276.5,320.0625 276.5,320.7188 L276.5,322.2813 Q276.5,322.9375 276.2188,323.2188 Q275.9375,323.5 275.5,323.5 Q275.1094,323.5 274.8594,323.3281 Q274.6094,323.1563 274.5,322.7031 Q274.4531,322.3906 274.2813,322.2188 Q273.9688,321.8906 273.4063,321.6953 Q272.8438,321.5 272.2813,321.5 Q271.5781,321.5 270.9922,321.7813 Q270.4063,322.0625 269.9531,322.6875 Q269.5,323.3125 269.5,324.1719 L269.5,325.0938 Q269.5,326.125 270.3438,326.8125 Q271.1875,327.5 272.6875,327.5 Q273.5781,327.5 274.2031,327.2969 Q274.5625,327.1875 274.9688,326.8281 Q275.2344,326.625 275.375,326.5625 Q275.5156,326.5 275.6875,326.5 Q276.0156,326.5 276.2578,326.7578 Q276.5,327.0156 276.5,327.375 Q276.5,327.7188 276.1563,328.125 Q275.6563,328.7188 274.8594,329.0469 Q273.8125,329.5 272.5313,329.5 Q271.0313,329.5 269.8281,328.9063 Q268.8594,328.4375 268.1797,327.4219 Q267.5,326.4063 267.5,325.2031 L267.5,324.1094 Q267.5,322.8594 268.1016,321.7656 Q268.7031,320.6719 269.7578,320.0859 Q270.8125,319.5 272,319.5 Q272.7188,319.5 273.3438,319.75 Q273.9688,320 274.5,320.5 Z "/><text fill="#000000" font-family="sans-serif" font-size="12" lengthAdjust="spacingAndGlyphs" textLength="89" x="286.5" y="328.9102">EventRepository</text><line style="stroke: #A80036; stroke-width: 1.5;" x1="258.5" x2="377.5" y1="340" y2="340"/><line style="stroke: #A80036; stroke-width: 1.5;" x1="258.5" x2="377.5" y1="348" y2="348"/><!--class UserDao--><rect fill="#FEFECE" filter="url(#fz6ak9txzxwkq)" height="48" id="UserDao" style="stroke: #A80036; stroke-width: 1.5;" width="82" x="38" y="432"/><ellipse cx="53" cy="448" fill="#ADD1B2" rx="11" ry="11" style="stroke: #A80036; stroke-width: 1.0;"/><path d="M55,444.5 Q55.2031,444 55.4375,443.75 Q55.6719,443.5 55.9375,443.5 Q56.4063,443.5 56.7031,443.7813 Q57,444.0625 57,444.7188 L57,446.2813 Q57,446.9375 56.7188,447.2188 Q56.4375,447.5 56,447.5 Q55.6094,447.5 55.3594,447.3281 Q55.1094,447.1563 55,446.7031 Q54.9531,446.3906 54.7813,446.2188 Q54.4688,445.8906 53.9063,445.6953 Q53.3438,445.5 52.7813,445.5 Q52.0781,445.5 51.4922,445.7813 Q50.9063,446.0625 50.4531,446.6875 Q50,447.3125 50,448.1719 L50,449.0938 Q50,450.125 50.8438,450.8125 Q51.6875,451.5 53.1875,451.5 Q54.0781,451.5 54.7031,451.2969 Q55.0625,451.1875 55.4688,450.8281 Q55.7344,450.625 55.875,450.5625 Q56.0156,450.5 56.1875,450.5 Q56.5156,450.5 56.7578,450.7578 Q57,451.0156 57,451.375 Q57,451.7188 56.6563,452.125 Q56.1563,452.7188 55.3594,453.0469 Q54.3125,453.5 53.0313,453.5 Q51.5313,453.5 50.3281,452.9063 Q49.3594,452.4375 48.6797,451.4219 Q48,450.4063 48,449.2031 L48,448.1094 Q48,446.8594 48.6016,445.7656 Q49.2031,444.6719 50.2578,444.0859 Q51.3125,443.5 52.5,443.5 Q53.2188,443.5 53.8438,443.75 Q54.4688,444 55,444.5 Z "/><text fill="#000000" font-family="sans-serif" font-size="12" lengthAdjust="spacingAndGlyphs" textLength="50" x="67" y="452.9102">UserDao</text><line style="stroke: #A80036; stroke-width: 1.5;" x1="39" x2="119" y1="464" y2="464"/><line style="stroke: #A80036; stroke-width: 1.5;" x1="39" x2="119" y1="472" y2="472"/><!--class EventDao--><rect fill="#FEFECE" filter="url(#fz6ak9txzxwkq)" height="48" id="EventDao" style="stroke: #A80036; stroke-width: 1.5;" width="85" x="155.5" y="432"/><ellipse cx="170.5" cy="448" fill="#ADD1B2" rx="11" ry="11" style="stroke: #A80036; stroke-width: 1.0;"/><path d="M172.5,444.5 Q172.7031,444 172.9375,443.75 Q173.1719,443.5 173.4375,443.5 Q173.9063,443.5 174.2031,443.7813 Q174.5,444.0625 174.5,444.7188 L174.5,446.2813 Q174.5,446.9375 174.2188,447.2188 Q173.9375,447.5 173.5,447.5 Q173.1094,447.5 172.8594,447.3281 Q172.6094,447.1563 172.5,446.7031 Q172.4531,446.3906 172.2813,446.2188 Q171.9688,445.8906 171.4063,445.6953 Q170.8438,445.5 170.2813,445.5 Q169.5781,445.5 168.9922,445.7813 Q168.4063,446.0625 167.9531,446.6875 Q167.5,447.3125 167.5,448.1719 L167.5,449.0938 Q167.5,450.125 168.3438,450.8125 Q169.1875,451.5 170.6875,451.5 Q171.5781,451.5 172.2031,451.2969 Q172.5625,451.1875 172.9688,450.8281 Q173.2344,450.625 173.375,450.5625 Q173.5156,450.5 173.6875,450.5 Q174.0156,450.5 174.2578,450.7578 Q174.5,451.0156 174.5,451.375 Q174.5,451.7188 174.1563,452.125 Q173.6563,452.7188 172.8594,453.0469 Q171.8125,453.5 170.5313,453.5 Q169.0313,453.5 167.8281,452.9063 Q166.8594,452.4375 166.1797,451.4219 Q165.5,450.4063 165.5,449.2031 L165.5,448.1094 Q165.5,446.8594 166.1016,445.7656 Q166.7031,444.6719 167.7578,444.0859 Q168.8125,443.5 170,443.5 Q170.7188,443.5 171.3438,443.75 Q171.9688,444 172.5,444.5 Z "/><text fill="#000000" font-family="sans-serif" font-size="12" lengthAdjust="spacingAndGlyphs" textLength="53" x="184.5" y="452.9102">EventDao</text><line style="stroke: #A80036; stroke-width: 1.5;" x1="156.5" x2="239.5" y1="464" y2="464"/><line style="stroke: #A80036; stroke-width: 1.5;" x1="156.5" x2="239.5" y1="472" y2="472"/><!--class treffDataBase--><rect fill="#FEFECE" filter="url(#fz6ak9txzxwkq)" height="48" id="treffDataBase" style="stroke: #A80036; stroke-width: 1.5;" width="107" x="86.5" y="540"/><ellipse cx="101.5" cy="556" fill="#ADD1B2" rx="11" ry="11" style="stroke: #A80036; stroke-width: 1.0;"/><path d="M103.5,552.5 Q103.7031,552 103.9375,551.75 Q104.1719,551.5 104.4375,551.5 Q104.9063,551.5 105.2031,551.7813 Q105.5,552.0625 105.5,552.7188 L105.5,554.2813 Q105.5,554.9375 105.2188,555.2188 Q104.9375,555.5 104.5,555.5 Q104.1094,555.5 103.8594,555.3281 Q103.6094,555.1563 103.5,554.7031 Q103.4531,554.3906 103.2813,554.2188 Q102.9688,553.8906 102.4063,553.6953 Q101.8438,553.5 101.2813,553.5 Q100.5781,553.5 99.9922,553.7813 Q99.4063,554.0625 98.9531,554.6875 Q98.5,555.3125 98.5,556.1719 L98.5,557.0938 Q98.5,558.125 99.3438,558.8125 Q100.1875,559.5 101.6875,559.5 Q102.5781,559.5 103.2031,559.2969 Q103.5625,559.1875 103.9688,558.8281 Q104.2344,558.625 104.375,558.5625 Q104.5156,558.5 104.6875,558.5 Q105.0156,558.5 105.2578,558.7578 Q105.5,559.0156 105.5,559.375 Q105.5,559.7188 105.1563,560.125 Q104.6563,560.7188 103.8594,561.0469 Q102.8125,561.5 101.5313,561.5 Q100.0313,561.5 98.8281,560.9063 Q97.8594,560.4375 97.1797,559.4219 Q96.5,558.4063 96.5,557.2031 L96.5,556.1094 Q96.5,554.8594 97.1016,553.7656 Q97.7031,552.6719 98.7578,552.0859 Q99.8125,551.5 101,551.5 Q101.7188,551.5 102.3438,551.75 Q102.9688,552 103.5,552.5 Z "/><text fill="#000000" font-family="sans-serif" font-size="12" lengthAdjust="spacingAndGlyphs" textLength="75" x="115.5" y="560.9102">treffDataBase</text><line style="stroke: #A80036; stroke-width: 1.5;" x1="87.5" x2="192.5" y1="572" y2="572"/><line style="stroke: #A80036; stroke-width: 1.5;" x1="87.5" x2="192.5" y1="580" y2="580"/><!--class RequestEncoder--><rect fill="#FEFECE" filter="url(#fz6ak9txzxwkq)" height="48" id="RequestEncoder" style="stroke: #A80036; stroke-width: 1.5;" width="125" x="297.5" y="432"/><ellipse cx="312.5" cy="448" fill="#ADD1B2" rx="11" ry="11" style="stroke: #A80036; stroke-width: 1.0;"/><path d="M314.5,444.5 Q314.7031,444 314.9375,443.75 Q315.1719,443.5 315.4375,443.5 Q315.9063,443.5 316.2031,443.7813 Q316.5,444.0625 316.5,444.7188 L316.5,446.2813 Q316.5,446.9375 316.2188,447.2188 Q315.9375,447.5 315.5,447.5 Q315.1094,447.5 314.8594,447.3281 Q314.6094,447.1563 314.5,446.7031 Q314.4531,446.3906 314.2813,446.2188 Q313.9688,445.8906 313.4063,445.6953 Q312.8438,445.5 312.2813,445.5 Q311.5781,445.5 310.9922,445.7813 Q310.4063,446.0625 309.9531,446.6875 Q309.5,447.3125 309.5,448.1719 L309.5,449.0938 Q309.5,450.125 310.3438,450.8125 Q311.1875,451.5 312.6875,451.5 Q313.5781,451.5 314.2031,451.2969 Q314.5625,451.1875 314.9688,450.8281 Q315.2344,450.625 315.375,450.5625 Q315.5156,450.5 315.6875,450.5 Q316.0156,450.5 316.2578,450.7578 Q316.5,451.0156 316.5,451.375 Q316.5,451.7188 316.1563,452.125 Q315.6563,452.7188 314.8594,453.0469 Q313.8125,453.5 312.5313,453.5 Q311.0313,453.5 309.8281,452.9063 Q308.8594,452.4375 308.1797,451.4219 Q307.5,450.4063 307.5,449.2031 L307.5,448.1094 Q307.5,446.8594 308.1016,445.7656 Q308.7031,444.6719 309.7578,444.0859 Q310.8125,443.5 312,443.5 Q312.7188,443.5 313.3438,443.75 Q313.9688,444 314.5,444.5 Z "/><text fill="#000000" font-family="sans-serif" font-size="12" lengthAdjust="spacingAndGlyphs" textLength="93" x="326.5" y="452.9102">RequestEncoder</text><line style="stroke: #A80036; stroke-width: 1.5;" x1="298.5" x2="421.5" y1="464" y2="464"/><line style="stroke: #A80036; stroke-width: 1.5;" x1="298.5" x2="421.5" y1="472" y2="472"/><!--class ConnectionHandler--><rect fill="#FEFECE" filter="url(#fz6ak9txzxwkq)" height="48" id="ConnectionHandler" style="stroke: #A80036; stroke-width: 1.5;" width="139" x="297.5" y="540"/><ellipse cx="312.5" cy="556" fill="#ADD1B2" rx="11" ry="11" style="stroke: #A80036; stroke-width: 1.0;"/><path d="M314.5,552.5 Q314.7031,552 314.9375,551.75 Q315.1719,551.5 315.4375,551.5 Q315.9063,551.5 316.2031,551.7813 Q316.5,552.0625 316.5,552.7188 L316.5,554.2813 Q316.5,554.9375 316.2188,555.2188 Q315.9375,555.5 315.5,555.5 Q315.1094,555.5 314.8594,555.3281 Q314.6094,555.1563 314.5,554.7031 Q314.4531,554.3906 314.2813,554.2188 Q313.9688,553.8906 313.4063,553.6953 Q312.8438,553.5 312.2813,553.5 Q311.5781,553.5 310.9922,553.7813 Q310.4063,554.0625 309.9531,554.6875 Q309.5,555.3125 309.5,556.1719 L309.5,557.0938 Q309.5,558.125 310.3438,558.8125 Q311.1875,559.5 312.6875,559.5 Q313.5781,559.5 314.2031,559.2969 Q314.5625,559.1875 314.9688,558.8281 Q315.2344,558.625 315.375,558.5625 Q315.5156,558.5 315.6875,558.5 Q316.0156,558.5 316.2578,558.7578 Q316.5,559.0156 316.5,559.375 Q316.5,559.7188 316.1563,560.125 Q315.6563,560.7188 314.8594,561.0469 Q313.8125,561.5 312.5313,561.5 Q311.0313,561.5 309.8281,560.9063 Q308.8594,560.4375 308.1797,559.4219 Q307.5,558.4063 307.5,557.2031 L307.5,556.1094 Q307.5,554.8594 308.1016,553.7656 Q308.7031,552.6719 309.7578,552.0859 Q310.8125,551.5 312,551.5 Q312.7188,551.5 313.3438,551.75 Q313.9688,552 314.5,552.5 Z "/><text fill="#000000" font-family="sans-serif" font-size="12" lengthAdjust="spacingAndGlyphs" textLength="107" x="326.5" y="560.9102">ConnectionHandler</text><line style="stroke: #A80036; stroke-width: 1.5;" x1="298.5" x2="435.5" y1="572" y2="572"/><line style="stroke: #A80036; stroke-width: 1.5;" x1="298.5" x2="435.5" y1="580" y2="580"/><!--entity Server--><path d="M336,658 C336,648 367,648 367,648 C367,648 398,648 398,658 L398,684.6094 C398,694.6094 367,694.6094 367,694.6094 C367,694.6094 336,694.6094 336,684.6094 L336,658 " fill="#FFFFFF" filter="url(#fz6ak9txzxwkq)" style="stroke: #000000; stroke-width: 1.5;"/><path d="M336,658 C336,668 367,668 367,668 C367,668 398,668 398,658 " fill="none" style="stroke: #000000; stroke-width: 1.5;"/><text fill="#000000" font-family="sans-serif" font-size="14" lengthAdjust="spacingAndGlyphs" textLength="42" x="346" y="686.5332">Server</text><!--entity SQL--><path d="M116,658 C116,648 140,648 140,648 C140,648 164,648 164,658 L164,684.6094 C164,694.6094 140,694.6094 140,694.6094 C140,694.6094 116,694.6094 116,684.6094 L116,658 " fill="#FFFFFF" filter="url(#fz6ak9txzxwkq)" style="stroke: #000000; stroke-width: 1.5;"/><path d="M116,658 C116,668 140,668 140,668 C140,668 164,668 164,658 " fill="none" style="stroke: #000000; stroke-width: 1.5;"/><text fill="#000000" font-family="sans-serif" font-size="14" lengthAdjust="spacingAndGlyphs" textLength="28" x="126" y="686.5332">SQL</text><!--link FriendListFragment to FriendListViewModel--><path d="M115.857,108.234 C114.873,128.247 113.449,157.2 112.397,178.588 " fill="none" id="FriendListFragment-FriendListViewModel" style="stroke: #A80036; stroke-width: 1.0;"/><polygon fill="#A80036" points="112.138,183.852,116.5754,175.0594,112.3837,178.858,108.5851,174.6663,112.138,183.852" style="stroke: #A80036; stroke-width: 1.0;"/><!--link MapFragment to MapViewModel--><path d="M276,108.234 C276,128.247 276,157.2 276,178.588 " fill="none" id="MapFragment-MapViewModel" style="stroke: #A80036; stroke-width: 1.0;"/><polygon fill="#A80036" points="276,183.852,280,174.852,276,178.852,272,174.852,276,183.852" style="stroke: #A80036; stroke-width: 1.0;"/><!--link EventListFragment to EventListViewModel--><path d="M434.143,108.234 C435.127,128.247 436.551,157.2 437.603,178.588 " fill="none" id="EventListFragment-EventListViewModel" style="stroke: #A80036; stroke-width: 1.0;"/><polygon fill="#A80036" points="437.862,183.852,441.4149,174.6663,437.6163,178.858,433.4246,175.0594,437.862,183.852" style="stroke: #A80036; stroke-width: 1.0;"/><!--link FriendListViewModel to UserRepository--><path d="M120.903,232.234 C129.505,252.416 141.983,281.691 151.121,303.13 " fill="none" id="FriendListViewModel-UserRepository" style="stroke: #A80036; stroke-width: 1.0;"/><polygon fill="#A80036" points="153.134,307.852,153.2834,298.0043,151.1729,303.2527,145.9245,301.1421,153.134,307.852" style="stroke: #A80036; stroke-width: 1.0;"/><!--link MapViewModel to UserRepository--><path d="M254.48,232.234 C235.551,252.671 207.986,282.431 188.067,303.937 " fill="none" id="MapViewModel-UserRepository" style="stroke: #A80036; stroke-width: 1.0;"/><polygon fill="#A80036" points="184.44,307.852,193.4899,303.9662,187.8372,304.1834,187.6201,298.5307,184.44,307.852" style="stroke: #A80036; stroke-width: 1.0;"/><!--link MapViewModel to EventRepository--><path d="M283.999,232.234 C290.917,252.332 300.94,281.446 308.312,302.859 " fill="none" id="MapViewModel-EventRepository" style="stroke: #A80036; stroke-width: 1.0;"/><polygon fill="#A80036" points="310.031,307.852,310.884,298.0401,308.4036,303.1242,303.3196,300.6439,310.031,307.852" style="stroke: #A80036; stroke-width: 1.0;"/><!--link EventListViewModel to EventRepository--><path d="M415.956,232.234 C395.603,252.756 365.926,282.678 344.576,304.204 " fill="none" id="EventListViewModel-EventRepository" style="stroke: #A80036; stroke-width: 1.0;"/><polygon fill="#A80036" points="340.958,307.852,350.1353,304.2775,344.4785,304.3015,344.4545,298.6447,340.958,307.852" style="stroke: #A80036; stroke-width: 1.0;"/><!--link UserDao to treffDataBase--><path d="M92.2361,480 C101.5245,496.141 113.998,517.816 123.869,534.969 " fill="none" id="UserDao-treffDataBase" style="stroke: #A80036; stroke-width: 1.0;"/><polygon fill="#A80036" points="126.579,539.678,125.5569,529.8823,124.0851,535.3444,118.623,533.8726,126.579,539.678" style="stroke: #A80036; stroke-width: 1.0;"/><!--link EventDao to treffDataBase--><path d="M185.415,480 C176.583,496.141 164.723,517.816 155.338,534.969 " fill="none" id="EventDao-treffDataBase" style="stroke: #A80036; stroke-width: 1.0;"/><polygon fill="#A80036" points="152.761,539.678,160.5904,533.7031,155.1613,535.2918,153.5725,529.8626,152.761,539.678" style="stroke: #A80036; stroke-width: 1.0;"/><!--link UserRepository to UserDao--><path d="M147.003,356.234 C132.99,376.586 112.611,406.184 97.8184,427.669 " fill="none" id="UserRepository-UserDao" style="stroke: #A80036; stroke-width: 1.0;"/><polygon fill="#A80036" points="94.9379,431.852,103.3366,426.7078,97.7735,427.7338,96.7475,422.1708,94.9379,431.852" style="stroke: #A80036; stroke-width: 1.0;"/><!--link UserRepository to RequestEncoder--><path d="M198.956,356.055 C211.74,363.955 226.348,372.649 240,380 C247.352,383.959 249.705,383.936 257,388 C279.35,400.451 303.364,415.94 322.578,428.889 " fill="none" id="UserRepository-RequestEncoder" style="stroke: #A80036; stroke-width: 1.0;"/><polygon fill="#A80036" points="326.853,431.781,321.6395,423.4252,322.7115,428.9795,317.1572,430.0516,326.853,431.781" style="stroke: #A80036; stroke-width: 1.0;"/><!--link EventRepository to EventDao--><path d="M295.146,356.234 C274.962,376.756 245.53,406.678 224.357,428.204 " fill="none" id="EventRepository-EventDao" style="stroke: #A80036; stroke-width: 1.0;"/><polygon fill="#A80036" points="220.768,431.852,229.9315,428.2423,224.2748,428.288,224.2291,422.6313,220.768,431.852" style="stroke: #A80036; stroke-width: 1.0;"/><!--link RequestEncoder to EventRepository--><path d="M350.312,426.859 C342.94,405.446 332.917,376.332 325.999,356.234 " fill="none" id="RequestEncoder-EventRepository" style="stroke: #A80036; stroke-width: 1.0;"/><polygon fill="#A80036" points="352.031,431.852,352.884,422.0401,350.4036,427.1242,345.3196,424.6439,352.031,431.852" style="stroke: #A80036; stroke-width: 1.0;"/><!--link RequestEncoder to ConnectionHandler--><path d="M361.519,480 C362.576,496.003 363.992,517.446 365.12,534.528 " fill="none" id="RequestEncoder-ConnectionHandler" style="stroke: #A80036; stroke-width: 1.0;"/><polygon fill="#A80036" points="365.46,539.678,368.8574,530.4337,365.1301,534.6889,360.8748,530.9616,365.46,539.678" style="stroke: #A80036; stroke-width: 1.0;"/><!--link ConnectionHandler to Server--><path d="M367,588.152 C367,604.2034 367,625.6601 367,642.647 " fill="none" id="ConnectionHandler-Server" style="stroke: #A80036; stroke-width: 1.0;"/><polygon fill="#A80036" points="367,647.7643,371,638.7643,367,642.7643,363,638.7643,367,647.7643" style="stroke: #A80036; stroke-width: 1.0;"/><!--link treffDataBase to SQL--><path d="M140,588.152 C140,604.2034 140,625.6601 140,642.647 " fill="none" id="treffDataBase-SQL" style="stroke: #A80036; stroke-width: 1.0;"/><polygon fill="#A80036" points="140,647.7643,144,638.7643,140,642.7643,136,638.7643,140,647.7643" style="stroke: #A80036; stroke-width: 1.0;"/><!--
@startuml

package View <<Rectangle>> {
class FriendListFragment
class MapFragment
class EventListFragment
}
package ViewModel <<Rectangle>> {
    class FriendListViewModel
    class MapViewModel
    class EventListViewModel
}
package repository {
    class UserRepository
    class EventRepository
}
FriendListViewModel <-down- FriendListFragment
MapViewModel <-down- MapFragment
EventListViewModel <-down- EventListFragment
UserRepository <-down- FriendListViewModel
UserRepository <-down- MapViewModel
EventRepository <-down- MapViewModel
EventRepository <-down- EventListViewModel

package database {
    class UserDao
    class EventDao
    class treffDataBase
}

treffDataBase <-down- UserDao
treffDataBase <-down- EventDao

package networking {
    class RequestEncoder
    class ConnectionHandler
}


package Server <<Database>> {

}


UserDao <-right- UserRepository
RequestEncoder <-down- UserRepository
EventDao <-down- EventRepository
RequestEncoder <-left- EventRepository
ConnectionHandler <-down- RequestEncoder
Server <-down- ConnectionHandler

package SQL <<Database>> {
}

SQL <-down- treffDataBase

@enduml

PlantUML version 1.2017.15(Mon Jul 03 18:45:34 CEST 2017)
(GPL source distribution)
Java Runtime: OpenJDK Runtime Environment
JVM: OpenJDK 64-Bit Server VM
Java Version: 1.8.0_152-release-915-b01
Operating System: Windows 10
OS Version: 10.0
Default Encoding: Cp1252
Language: en
Country: US
--></g></svg>