<?xml version="1.0" encoding="UTF-8" standalone="no"?><svg xmlns="http://www.w3.org/2000/svg" xmlns:xlink="http://www.w3.org/1999/xlink" contentScriptType="application/ecmascript" contentStyleType="text/css" height="635.4px" preserveAspectRatio="none" style="width:505px;height:635px;" version="1.1" viewBox="0 0 505 635" width="505.8px" zoomAndPan="magnify"><defs><filter height="300%" id="f75jzhjwe8p06" width="300%" x="-1" y="-1"><feGaussianBlur result="blurOut" stdDeviation="1.7999999523162842"/><feColorMatrix in="blurOut" result="blurOut2" type="matrix" values="0 0 0 0 0 0 0 0 0 0 0 0 0 0 0 0 0 0 .4 0"/><feOffset dx="3.5999999046325684" dy="3.5999999046325684" in="blurOut2" result="blurOut3"/><feBlend in="SourceGraphic" in2="blurOut3" mode="normal"/></filter></defs><g><!--cluster View--><rect fill="#FFFFFF" filter="url(#f75jzhjwe8p06)" height="90" style="stroke: #000000; stroke-width: 1.7999999523162842;" width="437.4" x="27.9" y="21.6"/><text fill="#000000" font-family="sans-serif" font-size="12.6" font-weight="bold" lengthAdjust="spacingAndGlyphs" textLength="29.7" x="231.75" y="36.4799">View</text><!--cluster ViewModel--><rect fill="#FFFFFF" filter="url(#f75jzhjwe8p06)" height="90" style="stroke: #000000; stroke-width: 1.7999999523162842;" width="453.6" x="19.8" y="133.2"/><text fill="#000000" font-family="sans-serif" font-size="12.6" font-weight="bold" lengthAdjust="spacingAndGlyphs" textLength="69.3" x="211.95" y="148.0799">ViewModel</text><!--cluster repository--><polygon fill="#FFFFFF" filter="url(#f75jzhjwe8p06)" points="81.9,244.8,152.1,244.8,158.4,266.0484,358.2,266.0484,358.2,334.8,81.9,334.8,81.9,244.8" style="stroke: #000000; stroke-width: 1.7999999523162842;"/><line style="stroke: #000000; stroke-width: 1.7999999523162842;" x1="81.9" x2="158.4" y1="266.0484" y2="266.0484"/><text fill="#000000" font-family="sans-serif" font-size="12.6" font-weight="bold" lengthAdjust="spacingAndGlyphs" textLength="64.8" x="85.5" y="259.6799">repository</text><!--cluster database--><polygon fill="#FFFFFF" filter="url(#f75jzhjwe8p06)" points="26.1,356.4,89.1,356.4,95.4,377.6484,237.6,377.6484,237.6,543.6,26.1,543.6,26.1,356.4" style="stroke: #000000; stroke-width: 1.7999999523162842;"/><line style="stroke: #000000; stroke-width: 1.7999999523162842;" x1="26.1" x2="95.4" y1="377.6484" y2="377.6484"/><text fill="#000000" font-family="sans-serif" font-size="12.6" font-weight="bold" lengthAdjust="spacingAndGlyphs" textLength="57.6" x="29.7" y="371.2799">database</text><!--cluster networking--><polygon fill="#FFFFFF" filter="url(#f75jzhjwe8p06)" points="259.2,356.4,335.7,356.4,342,377.6484,486,377.6484,486,543.6,259.2,543.6,259.2,356.4" style="stroke: #000000; stroke-width: 1.7999999523162842;"/><line style="stroke: #000000; stroke-width: 1.7999999523162842;" x1="259.2" x2="342" y1="377.6484" y2="377.6484"/><text fill="#000000" font-family="sans-serif" font-size="12.6" font-weight="bold" lengthAdjust="spacingAndGlyphs" textLength="71.1" x="262.8" y="371.2799">networking</text><!--class FriendListFragment--><rect fill="#FEFECE" filter="url(#f75jzhjwe8p06)" height="43.2" id="FriendListFragment" style="stroke: #A80036; stroke-width: 1.3499999642372131;" width="126" x="42.3" y="54"/><ellipse cx="55.8" cy="68.4" fill="#ADD1B2" rx="9.9" ry="9.9" style="stroke: #A80036; stroke-width: 0.8999999761581421;"/><path d="M57.6,65.25 Q57.7828,64.8 57.9937,64.575 Q58.2047,64.35 58.4437,64.35 Q58.8656,64.35 59.1328,64.6031 Q59.4,64.8562 59.4,65.4469 L59.4,66.8531 Q59.4,67.4437 59.1469,67.6969 Q58.8937,67.95 58.5,67.95 Q58.1484,67.95 57.9234,67.7953 Q57.6984,67.6406 57.6,67.2328 Q57.5578,66.9516 57.4031,66.7969 Q57.1219,66.5016 56.6156,66.3258 Q56.1094,66.15 55.6031,66.15 Q54.9703,66.15 54.443,66.4031 Q53.9156,66.6562 53.5078,67.2187 Q53.1,67.7812 53.1,68.5547 L53.1,69.3844 Q53.1,70.3125 53.8594,70.9312 Q54.6187,71.55 55.9687,71.55 Q56.7703,71.55 57.3328,71.3672 Q57.6562,71.2687 58.0219,70.9453 Q58.2609,70.7625 58.3875,70.7062 Q58.5141,70.65 58.6687,70.65 Q58.9641,70.65 59.182,70.882 Q59.4,71.1141 59.4,71.4375 Q59.4,71.7469 59.0906,72.1125 Q58.6406,72.6469 57.9234,72.9422 Q56.9812,73.35 55.8281,73.35 Q54.4781,73.35 53.3953,72.8156 Q52.5234,72.3937 51.9117,71.4797 Q51.3,70.5656 51.3,69.4828 L51.3,68.4984 Q51.3,67.3734 51.8414,66.3891 Q52.3828,65.4047 53.332,64.8773 Q54.2812,64.35 55.35,64.35 Q55.9969,64.35 56.5594,64.575 Q57.1219,64.8 57.6,65.25 Z "/><text fill="#000000" font-family="sans-serif" font-size="10.8" lengthAdjust="spacingAndGlyphs" textLength="97.2" x="68.4" y="72.8191">FriendListFragment</text><line style="stroke: #A80036; stroke-width: 1.3499999642372131;" x1="43.2" x2="167.4" y1="82.8" y2="82.8"/><line style="stroke: #A80036; stroke-width: 1.3499999642372131;" x1="43.2" x2="167.4" y1="90" y2="90"/><!--class MapFragment--><rect fill="#FEFECE" filter="url(#f75jzhjwe8p06)" height="43.2" id="MapFragment" style="stroke: #A80036; stroke-width: 1.3499999642372131;" width="97.2" x="199.8" y="54"/><ellipse cx="213.3" cy="68.4" fill="#ADD1B2" rx="9.9" ry="9.9" style="stroke: #A80036; stroke-width: 0.8999999761581421;"/><path d="M215.1,65.25 Q215.2828,64.8 215.4937,64.575 Q215.7047,64.35 215.9437,64.35 Q216.3656,64.35 216.6328,64.6031 Q216.9,64.8562 216.9,65.4469 L216.9,66.8531 Q216.9,67.4437 216.6469,67.6969 Q216.3937,67.95 216,67.95 Q215.6484,67.95 215.4234,67.7953 Q215.1984,67.6406 215.1,67.2328 Q215.0578,66.9516 214.9031,66.7969 Q214.6219,66.5016 214.1156,66.3258 Q213.6094,66.15 213.1031,66.15 Q212.4703,66.15 211.943,66.4031 Q211.4156,66.6562 211.0078,67.2187 Q210.6,67.7812 210.6,68.5547 L210.6,69.3844 Q210.6,70.3125 211.3594,70.9312 Q212.1187,71.55 213.4687,71.55 Q214.2703,71.55 214.8328,71.3672 Q215.1562,71.2687 215.5219,70.9453 Q215.7609,70.7625 215.8875,70.7062 Q216.0141,70.65 216.1687,70.65 Q216.4641,70.65 216.682,70.882 Q216.9,71.1141 216.9,71.4375 Q216.9,71.7469 216.5906,72.1125 Q216.1406,72.6469 215.4234,72.9422 Q214.4812,73.35 213.3281,73.35 Q211.9781,73.35 210.8953,72.8156 Q210.0234,72.3937 209.4117,71.4797 Q208.8,70.5656 208.8,69.4828 L208.8,68.4984 Q208.8,67.3734 209.3414,66.3891 Q209.8828,65.4047 210.832,64.8773 Q211.7812,64.35 212.85,64.35 Q213.4969,64.35 214.0594,64.575 Q214.6219,64.8 215.1,65.25 Z "/><text fill="#000000" font-family="sans-serif" font-size="10.8" lengthAdjust="spacingAndGlyphs" textLength="68.4" x="225.9" y="72.8191">MapFragment</text><line style="stroke: #A80036; stroke-width: 1.3499999642372131;" x1="200.7" x2="296.1" y1="82.8" y2="82.8"/><line style="stroke: #A80036; stroke-width: 1.3499999642372131;" x1="200.7" x2="296.1" y1="90" y2="90"/><!--class EventListFragment--><rect fill="#FEFECE" filter="url(#f75jzhjwe8p06)" height="43.2" id="EventListFragment" style="stroke: #A80036; stroke-width: 1.3499999642372131;" width="121.5" x="328.95" y="54"/><ellipse cx="342.45" cy="68.4" fill="#ADD1B2" rx="9.9" ry="9.9" style="stroke: #A80036; stroke-width: 0.8999999761581421;"/><path d="M344.25,65.25 Q344.4328,64.8 344.6437,64.575 Q344.8547,64.35 345.0937,64.35 Q345.5156,64.35 345.7828,64.6031 Q346.05,64.8562 346.05,65.4469 L346.05,66.8531 Q346.05,67.4437 345.7969,67.6969 Q345.5437,67.95 345.15,67.95 Q344.7984,67.95 344.5734,67.7953 Q344.3484,67.6406 344.25,67.2328 Q344.2078,66.9516 344.0531,66.7969 Q343.7719,66.5016 343.2656,66.3258 Q342.7594,66.15 342.2531,66.15 Q341.6203,66.15 341.093,66.4031 Q340.5656,66.6562 340.1578,67.2187 Q339.75,67.7812 339.75,68.5547 L339.75,69.3844 Q339.75,70.3125 340.5094,70.9312 Q341.2687,71.55 342.6187,71.55 Q343.4203,71.55 343.9828,71.3672 Q344.3062,71.2687 344.6719,70.9453 Q344.9109,70.7625 345.0375,70.7062 Q345.1641,70.65 345.3187,70.65 Q345.6141,70.65 345.832,70.882 Q346.05,71.1141 346.05,71.4375 Q346.05,71.7469 345.7406,72.1125 Q345.2906,72.6469 344.5734,72.9422 Q343.6312,73.35 342.4781,73.35 Q341.1281,73.35 340.0453,72.8156 Q339.1734,72.3937 338.5617,71.4797 Q337.95,70.5656 337.95,69.4828 L337.95,68.4984 Q337.95,67.3734 338.4914,66.3891 Q339.0328,65.4047 339.982,64.8773 Q340.9312,64.35 342,64.35 Q342.6469,64.35 343.2094,64.575 Q343.7719,64.8 344.25,65.25 Z "/><text fill="#000000" font-family="sans-serif" font-size="10.8" lengthAdjust="spacingAndGlyphs" textLength="92.7" x="355.05" y="72.8191">EventListFragment</text><line style="stroke: #A80036; stroke-width: 1.3499999642372131;" x1="329.85" x2="449.55" y1="82.8" y2="82.8"/><line style="stroke: #A80036; stroke-width: 1.3499999642372131;" x1="329.85" x2="449.55" y1="90" y2="90"/><!--class FriendListViewModel--><rect fill="#FEFECE" filter="url(#f75jzhjwe8p06)" height="43.2" id="FriendListViewModel" style="stroke: #A80036; stroke-width: 1.3499999642372131;" width="131.4" x="34.2" y="165.6"/><ellipse cx="47.7" cy="180" fill="#ADD1B2" rx="9.9" ry="9.9" style="stroke: #A80036; stroke-width: 0.8999999761581421;"/><path d="M49.5,176.85 Q49.6828,176.4 49.8937,176.175 Q50.1047,175.95 50.3437,175.95 Q50.7656,175.95 51.0328,176.2031 Q51.3,176.4562 51.3,177.0469 L51.3,178.4531 Q51.3,179.0437 51.0469,179.2969 Q50.7937,179.55 50.4,179.55 Q50.0484,179.55 49.8234,179.3953 Q49.5984,179.2406 49.5,178.8328 Q49.4578,178.5516 49.3031,178.3969 Q49.0219,178.1016 48.5156,177.9258 Q48.0094,177.75 47.5031,177.75 Q46.8703,177.75 46.343,178.0031 Q45.8156,178.2562 45.4078,178.8187 Q45,179.3812 45,180.1547 L45,180.9844 Q45,181.9125 45.7594,182.5312 Q46.5187,183.15 47.8687,183.15 Q48.6703,183.15 49.2328,182.9672 Q49.5562,182.8687 49.9219,182.5453 Q50.1609,182.3625 50.2875,182.3062 Q50.4141,182.25 50.5687,182.25 Q50.8641,182.25 51.082,182.482 Q51.3,182.7141 51.3,183.0375 Q51.3,183.3469 50.9906,183.7125 Q50.5406,184.2469 49.8234,184.5422 Q48.8812,184.95 47.7281,184.95 Q46.3781,184.95 45.2953,184.4156 Q44.4234,183.9937 43.8117,183.0797 Q43.2,182.1656 43.2,181.0828 L43.2,180.0984 Q43.2,178.9734 43.7414,177.9891 Q44.2828,177.0047 45.232,176.4773 Q46.1812,175.95 47.25,175.95 Q47.8969,175.95 48.4594,176.175 Q49.0219,176.4 49.5,176.85 Z "/><text fill="#000000" font-family="sans-serif" font-size="10.8" lengthAdjust="spacingAndGlyphs" textLength="102.6" x="60.3" y="184.4191">FriendListViewModel</text><line style="stroke: #A80036; stroke-width: 1.3499999642372131;" x1="35.1" x2="164.7" y1="194.4" y2="194.4"/><line style="stroke: #A80036; stroke-width: 1.3499999642372131;" x1="35.1" x2="164.7" y1="201.6" y2="201.6"/><!--class MapViewModel--><rect fill="#FEFECE" filter="url(#f75jzhjwe8p06)" height="43.2" id="MapViewModel" style="stroke: #A80036; stroke-width: 1.3499999642372131;" width="102.6" x="197.1" y="165.6"/><ellipse cx="210.6" cy="180" fill="#ADD1B2" rx="9.9" ry="9.9" style="stroke: #A80036; stroke-width: 0.8999999761581421;"/><path d="M212.4,176.85 Q212.5828,176.4 212.7937,176.175 Q213.0047,175.95 213.2437,175.95 Q213.6656,175.95 213.9328,176.2031 Q214.2,176.4562 214.2,177.0469 L214.2,178.4531 Q214.2,179.0437 213.9469,179.2969 Q213.6937,179.55 213.3,179.55 Q212.9484,179.55 212.7234,179.3953 Q212.4984,179.2406 212.4,178.8328 Q212.3578,178.5516 212.2031,178.3969 Q211.9219,178.1016 211.4156,177.9258 Q210.9094,177.75 210.4031,177.75 Q209.7703,177.75 209.243,178.0031 Q208.7156,178.2562 208.3078,178.8187 Q207.9,179.3812 207.9,180.1547 L207.9,180.9844 Q207.9,181.9125 208.6594,182.5312 Q209.4187,183.15 210.7687,183.15 Q211.5703,183.15 212.1328,182.9672 Q212.4562,182.8687 212.8219,182.5453 Q213.0609,182.3625 213.1875,182.3062 Q213.3141,182.25 213.4687,182.25 Q213.7641,182.25 213.982,182.482 Q214.2,182.7141 214.2,183.0375 Q214.2,183.3469 213.8906,183.7125 Q213.4406,184.2469 212.7234,184.5422 Q211.7812,184.95 210.6281,184.95 Q209.2781,184.95 208.1953,184.4156 Q207.3234,183.9937 206.7117,183.0797 Q206.1,182.1656 206.1,181.0828 L206.1,180.0984 Q206.1,178.9734 206.6414,177.9891 Q207.1828,177.0047 208.132,176.4773 Q209.0812,175.95 210.15,175.95 Q210.7969,175.95 211.3594,176.175 Q211.9219,176.4 212.4,176.85 Z "/><text fill="#000000" font-family="sans-serif" font-size="10.8" lengthAdjust="spacingAndGlyphs" textLength="73.8" x="223.2" y="184.4191">MapViewModel</text><line style="stroke: #A80036; stroke-width: 1.3499999642372131;" x1="198" x2="298.8" y1="194.4" y2="194.4"/><line style="stroke: #A80036; stroke-width: 1.3499999642372131;" x1="198" x2="298.8" y1="201.6" y2="201.6"/><!--class EventListViewModel--><rect fill="#FEFECE" filter="url(#f75jzhjwe8p06)" height="43.2" id="EventListViewModel" style="stroke: #A80036; stroke-width: 1.3499999642372131;" width="126.9" x="331.65" y="165.6"/><ellipse cx="345.15" cy="180" fill="#ADD1B2" rx="9.9" ry="9.9" style="stroke: #A80036; stroke-width: 0.8999999761581421;"/><path d="M346.95,176.85 Q347.1328,176.4 347.3437,176.175 Q347.5547,175.95 347.7937,175.95 Q348.2156,175.95 348.4828,176.2031 Q348.75,176.4562 348.75,177.0469 L348.75,178.4531 Q348.75,179.0437 348.4969,179.2969 Q348.2437,179.55 347.85,179.55 Q347.4984,179.55 347.2734,179.3953 Q347.0484,179.2406 346.95,178.8328 Q346.9078,178.5516 346.7531,178.3969 Q346.4719,178.1016 345.9656,177.9258 Q345.4594,177.75 344.9531,177.75 Q344.3203,177.75 343.793,178.0031 Q343.2656,178.2562 342.8578,178.8187 Q342.45,179.3812 342.45,180.1547 L342.45,180.9844 Q342.45,181.9125 343.2094,182.5312 Q343.9687,183.15 345.3187,183.15 Q346.1203,183.15 346.6828,182.9672 Q347.0062,182.8687 347.3719,182.5453 Q347.6109,182.3625 347.7375,182.3062 Q347.8641,182.25 348.0187,182.25 Q348.3141,182.25 348.532,182.482 Q348.75,182.7141 348.75,183.0375 Q348.75,183.3469 348.4406,183.7125 Q347.9906,184.2469 347.2734,184.5422 Q346.3312,184.95 345.1781,184.95 Q343.8281,184.95 342.7453,184.4156 Q341.8734,183.9937 341.2617,183.0797 Q340.65,182.1656 340.65,181.0828 L340.65,180.0984 Q340.65,178.9734 341.1914,177.9891 Q341.7328,177.0047 342.682,176.4773 Q343.6312,175.95 344.7,175.95 Q345.3469,175.95 345.9094,176.175 Q346.4719,176.4 346.95,176.85 Z "/><text fill="#000000" font-family="sans-serif" font-size="10.8" lengthAdjust="spacingAndGlyphs" textLength="98.1" x="357.75" y="184.4191">EventListViewModel</text><line style="stroke: #A80036; stroke-width: 1.3499999642372131;" x1="332.55" x2="457.65" y1="194.4" y2="194.4"/><line style="stroke: #A80036; stroke-width: 1.3499999642372131;" x1="332.55" x2="457.65" y1="201.6" y2="201.6"/><!--class UserRepository--><rect fill="#FEFECE" filter="url(#f75jzhjwe8p06)" height="43.2" id="UserRepository" style="stroke: #A80036; stroke-width: 1.3499999642372131;" width="106.2" x="96.3" y="277.2"/><ellipse cx="109.8" cy="291.6" fill="#ADD1B2" rx="9.9" ry="9.9" style="stroke: #A80036; stroke-width: 0.8999999761581421;"/><path d="M111.6,288.45 Q111.7828,288 111.9937,287.775 Q112.2047,287.55 112.4437,287.55 Q112.8656,287.55 113.1328,287.8031 Q113.4,288.0562 113.4,288.6469 L113.4,290.0531 Q113.4,290.6437 113.1469,290.8969 Q112.8937,291.15 112.5,291.15 Q112.1484,291.15 111.9234,290.9953 Q111.6984,290.8406 111.6,290.4328 Q111.5578,290.1516 111.4031,289.9969 Q111.1219,289.7016 110.6156,289.5258 Q110.1094,289.35 109.6031,289.35 Q108.9703,289.35 108.443,289.6031 Q107.9156,289.8562 107.5078,290.4187 Q107.1,290.9812 107.1,291.7547 L107.1,292.5844 Q107.1,293.5125 107.8594,294.1312 Q108.6187,294.75 109.9687,294.75 Q110.7703,294.75 111.3328,294.5672 Q111.6562,294.4687 112.0219,294.1453 Q112.2609,293.9625 112.3875,293.9062 Q112.5141,293.85 112.6687,293.85 Q112.9641,293.85 113.182,294.082 Q113.4,294.3141 113.4,294.6375 Q113.4,294.9469 113.0906,295.3125 Q112.6406,295.8469 111.9234,296.1422 Q110.9812,296.55 109.8281,296.55 Q108.4781,296.55 107.3953,296.0156 Q106.5234,295.5937 105.9117,294.6797 Q105.3,293.7656 105.3,292.6828 L105.3,291.6984 Q105.3,290.5734 105.8414,289.5891 Q106.3828,288.6047 107.332,288.0773 Q108.2812,287.55 109.35,287.55 Q109.9969,287.55 110.5594,287.775 Q111.1219,288 111.6,288.45 Z "/><text fill="#000000" font-family="sans-serif" font-size="10.8" lengthAdjust="spacingAndGlyphs" textLength="77.4" x="122.4" y="296.0191">UserRepository</text><line style="stroke: #A80036; stroke-width: 1.3499999642372131;" x1="97.2" x2="201.6" y1="306" y2="306"/><line style="stroke: #A80036; stroke-width: 1.3499999642372131;" x1="97.2" x2="201.6" y1="313.2" y2="313.2"/><!--class EventRepository--><rect fill="#FEFECE" filter="url(#f75jzhjwe8p06)" height="43.2" id="EventRepository" style="stroke: #A80036; stroke-width: 1.3499999642372131;" width="108.9" x="234.45" y="277.2"/><ellipse cx="247.95" cy="291.6" fill="#ADD1B2" rx="9.9" ry="9.9" style="stroke: #A80036; stroke-width: 0.8999999761581421;"/><path d="M249.75,288.45 Q249.9328,288 250.1437,287.775 Q250.3547,287.55 250.5937,287.55 Q251.0156,287.55 251.2828,287.8031 Q251.55,288.0562 251.55,288.6469 L251.55,290.0531 Q251.55,290.6437 251.2969,290.8969 Q251.0437,291.15 250.65,291.15 Q250.2984,291.15 250.0734,290.9953 Q249.8484,290.8406 249.75,290.4328 Q249.7078,290.1516 249.5531,289.9969 Q249.2719,289.7016 248.7656,289.5258 Q248.2594,289.35 247.7531,289.35 Q247.1203,289.35 246.593,289.6031 Q246.0656,289.8562 245.6578,290.4187 Q245.25,290.9812 245.25,291.7547 L245.25,292.5844 Q245.25,293.5125 246.0094,294.1312 Q246.7687,294.75 248.1187,294.75 Q248.9203,294.75 249.4828,294.5672 Q249.8062,294.4687 250.1719,294.1453 Q250.4109,293.9625 250.5375,293.9062 Q250.6641,293.85 250.8187,293.85 Q251.1141,293.85 251.332,294.082 Q251.55,294.3141 251.55,294.6375 Q251.55,294.9469 251.2406,295.3125 Q250.7906,295.8469 250.0734,296.1422 Q249.1312,296.55 247.9781,296.55 Q246.6281,296.55 245.5453,296.0156 Q244.6734,295.5937 244.0617,294.6797 Q243.45,293.7656 243.45,292.6828 L243.45,291.6984 Q243.45,290.5734 243.9914,289.5891 Q244.5328,288.6047 245.482,288.0773 Q246.4312,287.55 247.5,287.55 Q248.1469,287.55 248.7094,287.775 Q249.2719,288 249.75,288.45 Z "/><text fill="#000000" font-family="sans-serif" font-size="10.8" lengthAdjust="spacingAndGlyphs" textLength="80.1" x="260.55" y="296.0191">EventRepository</text><line style="stroke: #A80036; stroke-width: 1.3499999642372131;" x1="235.35" x2="342.45" y1="306" y2="306"/><line style="stroke: #A80036; stroke-width: 1.3499999642372131;" x1="235.35" x2="342.45" y1="313.2" y2="313.2"/><!--class UserDao--><rect fill="#FEFECE" filter="url(#f75jzhjwe8p06)" height="43.2" id="UserDao" style="stroke: #A80036; stroke-width: 1.3499999642372131;" width="73.8" x="40.5" y="388.8"/><ellipse cx="54" cy="403.2" fill="#ADD1B2" rx="9.9" ry="9.9" style="stroke: #A80036; stroke-width: 0.8999999761581421;"/><path d="M55.8,400.05 Q55.9828,399.6 56.1937,399.375 Q56.4047,399.15 56.6437,399.15 Q57.0656,399.15 57.3328,399.4031 Q57.6,399.6562 57.6,400.2469 L57.6,401.6531 Q57.6,402.2437 57.3469,402.4969 Q57.0937,402.75 56.7,402.75 Q56.3484,402.75 56.1234,402.5953 Q55.8984,402.4406 55.8,402.0328 Q55.7578,401.7516 55.6031,401.5969 Q55.3219,401.3016 54.8156,401.1258 Q54.3094,400.95 53.8031,400.95 Q53.1703,400.95 52.643,401.2031 Q52.1156,401.4562 51.7078,402.0187 Q51.3,402.5812 51.3,403.3547 L51.3,404.1844 Q51.3,405.1125 52.0594,405.7312 Q52.8187,406.35 54.1687,406.35 Q54.9703,406.35 55.5328,406.1672 Q55.8562,406.0687 56.2219,405.7453 Q56.4609,405.5625 56.5875,405.5062 Q56.7141,405.45 56.8687,405.45 Q57.1641,405.45 57.382,405.682 Q57.6,405.9141 57.6,406.2375 Q57.6,406.5469 57.2906,406.9125 Q56.8406,407.4469 56.1234,407.7422 Q55.1812,408.15 54.0281,408.15 Q52.6781,408.15 51.5953,407.6156 Q50.7234,407.1937 50.1117,406.2797 Q49.5,405.3656 49.5,404.2828 L49.5,403.2984 Q49.5,402.1734 50.0414,401.1891 Q50.5828,400.2047 51.532,399.6773 Q52.4812,399.15 53.55,399.15 Q54.1969,399.15 54.7594,399.375 Q55.3219,399.6 55.8,400.05 Z "/><text fill="#000000" font-family="sans-serif" font-size="10.8" lengthAdjust="spacingAndGlyphs" textLength="45" x="66.6" y="407.6191">UserDao</text><line style="stroke: #A80036; stroke-width: 1.3499999642372131;" x1="41.4" x2="113.4" y1="417.6" y2="417.6"/><line style="stroke: #A80036; stroke-width: 1.3499999642372131;" x1="41.4" x2="113.4" y1="424.8" y2="424.8"/><!--class EventDao--><rect fill="#FEFECE" filter="url(#f75jzhjwe8p06)" height="43.2" id="EventDao" style="stroke: #A80036; stroke-width: 1.3499999642372131;" width="76.5" x="146.25" y="388.8"/><ellipse cx="159.75" cy="403.2" fill="#ADD1B2" rx="9.9" ry="9.9" style="stroke: #A80036; stroke-width: 0.8999999761581421;"/><path d="M161.55,400.05 Q161.7328,399.6 161.9437,399.375 Q162.1547,399.15 162.3937,399.15 Q162.8156,399.15 163.0828,399.4031 Q163.35,399.6562 163.35,400.2469 L163.35,401.6531 Q163.35,402.2437 163.0969,402.4969 Q162.8437,402.75 162.45,402.75 Q162.0984,402.75 161.8734,402.5953 Q161.6484,402.4406 161.55,402.0328 Q161.5078,401.7516 161.3531,401.5969 Q161.0719,401.3016 160.5656,401.1258 Q160.0594,400.95 159.5531,400.95 Q158.9203,400.95 158.393,401.2031 Q157.8656,401.4562 157.4578,402.0187 Q157.05,402.5812 157.05,403.3547 L157.05,404.1844 Q157.05,405.1125 157.8094,405.7312 Q158.5687,406.35 159.9187,406.35 Q160.7203,406.35 161.2828,406.1672 Q161.6062,406.0687 161.9719,405.7453 Q162.2109,405.5625 162.3375,405.5062 Q162.4641,405.45 162.6187,405.45 Q162.9141,405.45 163.132,405.682 Q163.35,405.9141 163.35,406.2375 Q163.35,406.5469 163.0406,406.9125 Q162.5906,407.4469 161.8734,407.7422 Q160.9312,408.15 159.7781,408.15 Q158.4281,408.15 157.3453,407.6156 Q156.4734,407.1937 155.8617,406.2797 Q155.25,405.3656 155.25,404.2828 L155.25,403.2984 Q155.25,402.1734 155.7914,401.1891 Q156.3328,400.2047 157.282,399.6773 Q158.2312,399.15 159.3,399.15 Q159.9469,399.15 160.5094,399.375 Q161.0719,399.6 161.55,400.05 Z "/><text fill="#000000" font-family="sans-serif" font-size="10.8" lengthAdjust="spacingAndGlyphs" textLength="47.7" x="172.35" y="407.6191">EventDao</text><line style="stroke: #A80036; stroke-width: 1.3499999642372131;" x1="147.15" x2="221.85" y1="417.6" y2="417.6"/><line style="stroke: #A80036; stroke-width: 1.3499999642372131;" x1="147.15" x2="221.85" y1="424.8" y2="424.8"/><!--class treffDataBase--><rect fill="#FEFECE" filter="url(#f75jzhjwe8p06)" height="43.2" id="treffDataBase" style="stroke: #A80036; stroke-width: 1.3499999642372131;" width="96.3" x="84.15" y="486"/><ellipse cx="97.65" cy="500.4" fill="#ADD1B2" rx="9.9" ry="9.9" style="stroke: #A80036; stroke-width: 0.8999999761581421;"/><path d="M99.45,497.25 Q99.6328,496.8 99.8437,496.575 Q100.0547,496.35 100.2937,496.35 Q100.7156,496.35 100.9828,496.6031 Q101.25,496.8562 101.25,497.4469 L101.25,498.8531 Q101.25,499.4437 100.9969,499.6969 Q100.7437,499.95 100.35,499.95 Q99.9984,499.95 99.7734,499.7953 Q99.5484,499.6406 99.45,499.2328 Q99.4078,498.9515 99.2531,498.7969 Q98.9719,498.5015 98.4656,498.3258 Q97.9594,498.15 97.4531,498.15 Q96.8203,498.15 96.293,498.4031 Q95.7656,498.6562 95.3578,499.2187 Q94.95,499.7812 94.95,500.5547 L94.95,501.3844 Q94.95,502.3125 95.7094,502.9312 Q96.4687,503.55 97.8187,503.55 Q98.6203,503.55 99.1828,503.3672 Q99.5062,503.2687 99.8719,502.9453 Q100.1109,502.7625 100.2375,502.7062 Q100.3641,502.65 100.5187,502.65 Q100.8141,502.65 101.032,502.882 Q101.25,503.114 101.25,503.4375 Q101.25,503.7469 100.9406,504.1125 Q100.4906,504.6469 99.7734,504.9422 Q98.8312,505.35 97.6781,505.35 Q96.3281,505.35 95.2453,504.8156 Q94.3734,504.3937 93.7617,503.4797 Q93.15,502.5656 93.15,501.4828 L93.15,500.4984 Q93.15,499.3734 93.6914,498.389 Q94.2328,497.4047 95.182,496.8773 Q96.1312,496.35 97.2,496.35 Q97.8469,496.35 98.4094,496.575 Q98.9719,496.8 99.45,497.25 Z "/><text fill="#000000" font-family="sans-serif" font-size="10.8" lengthAdjust="spacingAndGlyphs" textLength="67.5" x="110.25" y="504.8191">treffDataBase</text><line style="stroke: #A80036; stroke-width: 1.3499999642372131;" x1="85.05" x2="179.55" y1="514.8" y2="514.8"/><line style="stroke: #A80036; stroke-width: 1.3499999642372131;" x1="85.05" x2="179.55" y1="522" y2="522"/><!--class Error--><rect fill="#FEFECE" filter="url(#f75jzhjwe8p06)" height="43.2" id="Error" style="stroke: #A80036; stroke-width: 1.3499999642372131;" width="53.1" x="418.05" y="388.8"/><ellipse cx="431.55" cy="403.2" fill="#EB937F" rx="9.9" ry="9.9" style="stroke: #A80036; stroke-width: 0.8999999761581421;"/><path d="M430.2,404.1 L430.2,405.9 L433.8,405.9 L433.8,405 L433.8,404.5641 L434.3625,404.1 L434.7,404.1 L435.0375,404.1 L435.6,404.5641 L435.6,405 L435.6,407.7 L428.4,407.7 L427.9641,407.7 L427.5,407.1375 L427.5,406.8 L427.5,406.4625 L427.9641,405.9 L428.4,405.9 L428.4,405.9 L428.4,400.5 L428.4,400.5 L427.9641,400.5 L427.5,399.9375 L427.5,399.6 L427.5,399.2625 L427.9641,398.7 L428.4,398.7 L435.6,398.7 L435.6,401.4 L435.6,401.8359 L435.0375,402.3 L434.7,402.3 L434.3625,402.3 L433.8,401.8359 L433.8,401.4 L433.8,400.5 L430.2,400.5 L430.2,402.3 L431.1,402.3 L431.1,401.8641 L431.1,401.8641 L431.6625,401.4 L432,401.4 L432.3375,401.4 L432.9,401.8641 L432.9,402.3 L432.9,404.1 L432.9,404.5359 L432.3375,405 L432.3375,405 L432,405 L431.6625,405 L431.1,404.5359 L431.1,404.5359 L431.1,404.1 L430.2,404.1 Z "/><text fill="#000000" font-family="sans-serif" font-size="10.8" lengthAdjust="spacingAndGlyphs" textLength="24.3" x="444.15" y="407.6191">Error</text><line style="stroke: #A80036; stroke-width: 1.3499999642372131;" x1="418.95" x2="470.25" y1="417.6" y2="417.6"/><line style="stroke: #A80036; stroke-width: 1.3499999642372131;" x1="418.95" x2="470.25" y1="424.8" y2="424.8"/><!--class RequestEncoder--><rect fill="#FEFECE" filter="url(#f75jzhjwe8p06)" height="43.2" id="RequestEncoder" style="stroke: #A80036; stroke-width: 1.3499999642372131;" width="112.5" x="274.05" y="388.8"/><ellipse cx="287.55" cy="403.2" fill="#ADD1B2" rx="9.9" ry="9.9" style="stroke: #A80036; stroke-width: 0.8999999761581421;"/><path d="M289.35,400.05 Q289.5328,399.6 289.7437,399.375 Q289.9547,399.15 290.1937,399.15 Q290.6156,399.15 290.8828,399.4031 Q291.15,399.6562 291.15,400.2469 L291.15,401.6531 Q291.15,402.2437 290.8969,402.4969 Q290.6437,402.75 290.25,402.75 Q289.8984,402.75 289.6734,402.5953 Q289.4484,402.4406 289.35,402.0328 Q289.3078,401.7516 289.1531,401.5969 Q288.8719,401.3016 288.3656,401.1258 Q287.8594,400.95 287.3531,400.95 Q286.7203,400.95 286.193,401.2031 Q285.6656,401.4562 285.2578,402.0187 Q284.85,402.5812 284.85,403.3547 L284.85,404.1844 Q284.85,405.1125 285.6094,405.7312 Q286.3687,406.35 287.7187,406.35 Q288.5203,406.35 289.0828,406.1672 Q289.4062,406.0687 289.7719,405.7453 Q290.0109,405.5625 290.1375,405.5062 Q290.2641,405.45 290.4187,405.45 Q290.7141,405.45 290.932,405.682 Q291.15,405.9141 291.15,406.2375 Q291.15,406.5469 290.8406,406.9125 Q290.3906,407.4469 289.6734,407.7422 Q288.7312,408.15 287.5781,408.15 Q286.2281,408.15 285.1453,407.6156 Q284.2734,407.1937 283.6617,406.2797 Q283.05,405.3656 283.05,404.2828 L283.05,403.2984 Q283.05,402.1734 283.5914,401.1891 Q284.1328,400.2047 285.082,399.6773 Q286.0312,399.15 287.1,399.15 Q287.7469,399.15 288.3094,399.375 Q288.8719,399.6 289.35,400.05 Z "/><text fill="#000000" font-family="sans-serif" font-size="10.8" lengthAdjust="spacingAndGlyphs" textLength="83.7" x="300.15" y="407.6191">RequestEncoder</text><line style="stroke: #A80036; stroke-width: 1.3499999642372131;" x1="274.95" x2="385.65" y1="417.6" y2="417.6"/><line style="stroke: #A80036; stroke-width: 1.3499999642372131;" x1="274.95" x2="385.65" y1="424.8" y2="424.8"/><!--class ConnectionHandler--><rect fill="#FEFECE" filter="url(#f75jzhjwe8p06)" height="43.2" id="ConnectionHandler" style="stroke: #A80036; stroke-width: 1.3499999642372131;" width="125.1" x="274.05" y="486"/><ellipse cx="287.55" cy="500.4" fill="#ADD1B2" rx="9.9" ry="9.9" style="stroke: #A80036; stroke-width: 0.8999999761581421;"/><path d="M289.35,497.25 Q289.5328,496.8 289.7437,496.575 Q289.9547,496.35 290.1937,496.35 Q290.6156,496.35 290.8828,496.6031 Q291.15,496.8562 291.15,497.4469 L291.15,498.8531 Q291.15,499.4437 290.8969,499.6969 Q290.6437,499.95 290.25,499.95 Q289.8984,499.95 289.6734,499.7953 Q289.4484,499.6406 289.35,499.2328 Q289.3078,498.9515 289.1531,498.7969 Q288.8719,498.5015 288.3656,498.3258 Q287.8594,498.15 287.3531,498.15 Q286.7203,498.15 286.193,498.4031 Q285.6656,498.6562 285.2578,499.2187 Q284.85,499.7812 284.85,500.5547 L284.85,501.3844 Q284.85,502.3125 285.6094,502.9312 Q286.3687,503.55 287.7187,503.55 Q288.5203,503.55 289.0828,503.3672 Q289.4062,503.2687 289.7719,502.9453 Q290.0109,502.7625 290.1375,502.7062 Q290.2641,502.65 290.4187,502.65 Q290.7141,502.65 290.932,502.882 Q291.15,503.114 291.15,503.4375 Q291.15,503.7469 290.8406,504.1125 Q290.3906,504.6469 289.6734,504.9422 Q288.7312,505.35 287.5781,505.35 Q286.2281,505.35 285.1453,504.8156 Q284.2734,504.3937 283.6617,503.4797 Q283.05,502.5656 283.05,501.4828 L283.05,500.4984 Q283.05,499.3734 283.5914,498.389 Q284.1328,497.4047 285.082,496.8773 Q286.0312,496.35 287.1,496.35 Q287.7469,496.35 288.3094,496.575 Q288.8719,496.8 289.35,497.25 Z "/><text fill="#000000" font-family="sans-serif" font-size="10.8" lengthAdjust="spacingAndGlyphs" textLength="96.3" x="300.15" y="504.8191">ConnectionHandler</text><line style="stroke: #A80036; stroke-width: 1.3499999642372131;" x1="274.95" x2="398.25" y1="514.8" y2="514.8"/><line style="stroke: #A80036; stroke-width: 1.3499999642372131;" x1="274.95" x2="398.25" y1="522" y2="522"/><!--entity Server--><path d="M311.4,593.55 C311.4,590.85 313.2,589.05 315.9,589.05 C318.6,589.05 320.4,590.85 320.4,593.55 C320.4,590.85 322.2,589.05 324.9,589.05 C327.6,589.05 329.4,590.85 329.4,593.55 C329.4,590.85 331.2,589.05 333.9,589.05 C336.6,589.05 338.4,590.85 338.4,593.55 C338.4,590.85 340.2,589.05 342.9,589.05 C345.6,589.05 347.4,590.85 347.4,593.55 C347.4,590.85 349.2,589.05 351.9,589.05 C354.6,589.05 356.4,590.85 356.4,593.55 C356.4,590.85 358.2,589.05 360.9,589.05 C363.6,589.05 365.4,590.85 365.4,593.55 C368.1,593.55 369.9,595.35 369.9,598.05 C369.9,600.75 368.1,602.55 365.4,602.55 C368.1,602.55 369.9,604.35 369.9,607.05 C369.9,609.75 368.1,611.55 365.4,611.55 C365.4,614.25 362.7,616.05 360.9,616.05 C358.2,616.05 356.4,614.25 356.4,611.55 C356.4,614.25 353.7,616.05 351.9,616.05 C349.2,616.05 347.4,614.25 347.4,611.55 C347.4,614.25 344.7,616.05 342.9,616.05 C340.2,616.05 338.4,614.25 338.4,611.55 C338.4,614.25 335.7,616.05 333.9,616.05 C331.2,616.05 329.4,614.25 329.4,611.55 C329.4,614.25 326.7,616.05 324.9,616.05 C322.2,616.05 320.4,614.25 320.4,611.55 C320.4,614.25 317.7,616.05 315.9,616.05 C313.2,616.05 311.4,614.25 311.4,611.55 C308.7,611.55 306.9,609.75 306.9,607.05 C306.9,604.35 308.7,602.55 311.4,602.55 C308.7,602.55 306.9,600.75 306.9,598.05 C306.9,595.35 308.7,593.55 311.4,593.55 " fill="#FFFFFF" filter="url(#f75jzhjwe8p06)" style="stroke: #000000; stroke-width: 1.3499999642372131;"/><text fill="#000000" font-family="sans-serif" font-size="12.6" lengthAdjust="spacingAndGlyphs" textLength="37.8" x="317.7" y="609.3299">Server</text><!--entity SQL--><path d="M110.7,592.2 C110.7,583.2 132.3,583.2 132.3,583.2 C132.3,583.2 153.9,583.2 153.9,592.2 L153.9,616.1484 C153.9,625.1484 132.3,625.1484 132.3,625.1484 C132.3,625.1484 110.7,625.1484 110.7,616.1484 L110.7,592.2 " fill="#FFFFFF" filter="url(#f75jzhjwe8p06)" style="stroke: #000000; stroke-width: 1.3499999642372131;"/><path d="M110.7,592.2 C110.7,601.2 132.3,601.2 132.3,601.2 C132.3,601.2 153.9,601.2 153.9,592.2 " fill="none" style="stroke: #000000; stroke-width: 1.3499999642372131;"/><text fill="#000000" font-family="sans-serif" font-size="12.6" lengthAdjust="spacingAndGlyphs" textLength="25.2" x="119.7" y="617.8799">SQL</text><!--link FriendListFragment to FriendListViewModel--><path d="M104.2713,97.4106 C103.3857,115.4223 102.1041,141.48 101.1573,160.7292 " fill="none" id="FriendListFragment-FriendListViewModel" style="stroke: #A80036; stroke-width: 0.8999999761581421;"/><polygon fill="#A80036" points="100.9242,165.4668,104.9179,157.5535,101.1453,160.9722,97.7266,157.1997,100.9242,165.4668" style="stroke: #A80036; stroke-width: 0.8999999761581421;"/><!--link MapFragment to MapViewModel--><path d="M248.4,97.4106 C248.4,115.4223 248.4,141.48 248.4,160.7292 " fill="none" id="MapFragment-MapViewModel" style="stroke: #A80036; stroke-width: 0.8999999761581421;"/><polygon fill="#A80036" points="248.4,165.4668,252,157.3668,248.4,160.9668,244.8,157.3668,248.4,165.4668" style="stroke: #A80036; stroke-width: 0.8999999761581421;"/><!--link EventListFragment to EventListViewModel--><path d="M390.7287,97.4106 C391.6143,115.4223 392.8959,141.48 393.8427,160.7292 " fill="none" id="EventListFragment-EventListViewModel" style="stroke: #A80036; stroke-width: 0.8999999761581421;"/><polygon fill="#A80036" points="394.0758,165.4668,397.2734,157.1997,393.8547,160.9722,390.0821,157.5535,394.0758,165.4668" style="stroke: #A80036; stroke-width: 0.8999999761581421;"/><!--link FriendListViewModel to UserRepository--><path d="M109.3275,209.0106 C117.5157,227.1744 129.3939,253.5219 138.0924,272.817 " fill="none" id="FriendListViewModel-UserRepository" style="stroke: #A80036; stroke-width: 0.8999999761581421;"/><polygon fill="#A80036" points="140.0076,277.0668,139.9618,268.2029,138.1588,272.9641,133.3976,271.1611,140.0076,277.0668" style="stroke: #A80036; stroke-width: 0.8999999761581421;"/><!--link MapViewModel to UserRepository--><path d="M229.5459,209.0106 C212.9625,227.4039 188.8128,254.1879 171.3609,273.5433 " fill="none" id="MapViewModel-UserRepository" style="stroke: #A80036; stroke-width: 0.8999999761581421;"/><polygon fill="#A80036" points="168.1839,277.0668,176.2814,273.4611,171.197,273.7245,170.9336,268.6401,168.1839,277.0668" style="stroke: #A80036; stroke-width: 0.8999999761581421;"/><!--link MapViewModel to EventRepository--><path d="M256.113,209.0106 C262.8126,227.1744 272.5308,253.5219 279.648,272.817 " fill="none" id="MapViewModel-EventRepository" style="stroke: #A80036; stroke-width: 0.8999999761581421;"/><polygon fill="#A80036" points="281.2158,277.0668,281.7877,268.2213,279.6573,272.8453,275.0333,270.7149,281.2158,277.0668" style="stroke: #A80036; stroke-width: 0.8999999761581421;"/><!--link EventListViewModel to EventRepository--><path d="M374.8743,209.0106 C357.0111,227.4804 330.9642,254.4102 312.2262,273.7836 " fill="none" id="EventListViewModel-EventRepository" style="stroke: #A80036; stroke-width: 0.8999999761581421;"/><polygon fill="#A80036" points="309.0501,277.0668,317.2694,273.7482,312.1789,273.8325,312.0946,268.7421,309.0501,277.0668" style="stroke: #A80036; stroke-width: 0.8999999761581421;"/><!--link UserDao to treffDataBase--><path d="M89.3125,432 C97.6716,446.5269 108.8982,466.0344 117.7821,481.4721 " fill="none" id="UserDao-treffDataBase" style="stroke: #A80036; stroke-width: 0.8999999761581421;"/><polygon fill="#A80036" points="120.2211,485.7102,119.3012,476.8941,117.9766,481.8099,113.0607,480.4853,120.2211,485.7102" style="stroke: #A80036; stroke-width: 0.8999999761581421;"/><!--link EventDao to treffDataBase--><path d="M173.1735,432 C165.2247,446.5269 154.5507,466.0344 146.1042,481.4721 " fill="none" id="EventDao-treffDataBase" style="stroke: #A80036; stroke-width: 0.8999999761581421;"/><polygon fill="#A80036" points="143.7849,485.7102,150.8314,480.3327,145.9451,481.7626,144.5153,476.8764,143.7849,485.7102" style="stroke: #A80036; stroke-width: 0.8999999761581421;"/><!--link UserRepository to UserDao--><path d="M135.6876,320.6106 C123.6771,338.9274 106.209,365.5656 93.5301,384.9021 " fill="none" id="UserRepository-UserDao" style="stroke: #A80036; stroke-width: 0.8999999761581421;"/><polygon fill="#A80036" points="91.0611,388.6668,98.513,383.8669,93.5285,384.9036,92.4919,379.9191,91.0611,388.6668" style="stroke: #A80036; stroke-width: 0.8999999761581421;"/><!--link UserRepository to RequestEncoder--><path d="M180.7938,320.5485 C192.4353,327.8241 205.9182,335.7306 218.7,342 C226.7703,345.9582 229.5873,345.1266 237.6,349.2 C258.4431,359.7966 280.4355,373.9581 297.765,385.8948 " fill="none" id="UserRepository-RequestEncoder" style="stroke: #A80036; stroke-width: 0.8999999761581421;"/><polygon fill="#A80036" points="301.6152,388.5624,297.0086,380.9895,297.9167,385.999,292.9071,386.9071,301.6152,388.5624" style="stroke: #A80036; stroke-width: 0.8999999761581421;"/><!--link EventRepository to EventDao--><path d="M269.0172,320.6106 C251.4564,339.0804 225.8505,366.0102 207.4302,385.3836 " fill="none" id="EventRepository-EventDao" style="stroke: #A80036; stroke-width: 0.8999999761581421;"/><polygon fill="#A80036" points="204.309,388.6668,212.4991,385.2768,207.4096,385.4054,207.281,380.3159,204.309,388.6668" style="stroke: #A80036; stroke-width: 0.8999999761581421;"/><!--link RequestEncoder to EventRepository--><path d="M320.8428,384.417 C313.5672,365.1219 303.633,338.7744 296.7849,320.6106 " fill="none" id="RequestEncoder-EventRepository" style="stroke: #A80036; stroke-width: 0.8999999761581421;"/><polygon fill="#A80036" points="322.4448,388.6668,322.9543,379.8175,320.8566,384.4564,316.2177,382.3586,322.4448,388.6668" style="stroke: #A80036; stroke-width: 0.8999999761581421;"/><!--link RequestEncoder to ConnectionHandler--><path d="M331.6671,432 C332.6184,446.4027 333.8928,465.7014 334.908,481.0752 " fill="none" id="RequestEncoder-ConnectionHandler" style="stroke: #A80036; stroke-width: 0.8999999761581421;"/><polygon fill="#A80036" points="335.214,485.7102,338.2716,477.3903,334.917,481.22,331.0873,477.8654,335.214,485.7102" style="stroke: #A80036; stroke-width: 0.8999999761581421;"/><!--link RequestEncoder to Error--><path d="M386.5572,410.4 C395.4384,410.4 404.3196,410.4 413.2017,410.4 " fill="none" id="RequestEncoder-Error" style="stroke: #A80036; stroke-width: 0.8999999761581421;"/><polygon fill="#A80036" points="417.8457,410.4,409.7457,406.8,413.3457,410.4,409.7457,414,417.8457,410.4" style="stroke: #A80036; stroke-width: 0.8999999761581421;"/><!--link ConnectionHandler to Server--><path d="M336.6,529.3368 C336.6,545.0693 336.6,566.5716 336.6,582.3642 " fill="none" id="ConnectionHandler-Server" style="stroke: #A80036; stroke-width: 0.8999999761581421;"/><polygon fill="#A80036" points="336.6,587.0693,340.2,578.9693,336.6,582.5693,333,578.9693,336.6,587.0693" style="stroke: #A80036; stroke-width: 0.8999999761581421;"/><!--link treffDataBase to SQL--><path d="M132.3,529.3368 C132.3,543.783 132.3,563.0941 132.3,578.3823 " fill="none" id="treffDataBase-SQL" style="stroke: #A80036; stroke-width: 0.8999999761581421;"/><polygon fill="#A80036" points="132.3,582.9879,135.9,574.8879,132.3,578.4879,128.7,574.8879,132.3,582.9879" style="stroke: #A80036; stroke-width: 0.8999999761581421;"/><!--
@startuml

package View <<Rectangle>> {
class FriendListFragment
class MapFragment
class EventListFragment
}
package ViewModel <<Rectangle>> {
    class FriendListViewModel
    class MapViewModel
    class EventListViewModel
}
package repository {
    class UserRepository
    class EventRepository
}
FriendListViewModel <-down- FriendListFragment
MapViewModel <-down- MapFragment
EventListViewModel <-down- EventListFragment
UserRepository <-down- FriendListViewModel
UserRepository <-down- MapViewModel
EventRepository <-down- MapViewModel
EventRepository <-down- EventListViewModel

package database {
    class UserDao
    class EventDao
    class treffDataBase
}

treffDataBase <-down- UserDao
treffDataBase <-down- EventDao

package networking {
    enum Error
    class RequestEncoder
    class ConnectionHandler
}


package Server <<Cloud>> {

}


UserDao <-right- UserRepository
RequestEncoder <-down- UserRepository
EventDao <-down- EventRepository
RequestEncoder <-left- EventRepository
ConnectionHandler <-down- RequestEncoder
Error <-right- RequestEncoder
Server <-down- ConnectionHandler

package SQL <<Database>> {
}

SQL <-down- treffDataBase

@enduml

PlantUML version 1.2017.15(Mon Jul 03 18:45:34 CEST 2017)
(GPL source distribution)
Java Runtime: OpenJDK Runtime Environment
JVM: OpenJDK 64-Bit Server VM
Java Version: 1.8.0_152-release-915-b01
Operating System: Windows 10
OS Version: 10.0
Default Encoding: Cp1252
Language: en
Country: US
--></g></svg>