<?xml version="1.0"?>
<svg xmlns:lucid="lucid" xmlns:dc="http://purl.org/dc/elements/1.1/" xmlns:cc="http://creativecommons.org/ns#" xmlns:rdf="http://www.w3.org/1999/02/22-rdf-syntax-ns#" xmlns:svg="http://www.w3.org/2000/svg" xmlns="http://www.w3.org/2000/svg" xmlns:xlink="http://www.w3.org/1999/xlink" xmlns:sodipodi="http://sodipodi.sourceforge.net/DTD/sodipodi-0.dtd" xmlns:inkscape="http://www.inkscape.org/namespaces/inkscape" width="542" height="494" version="1.1" id="svg289" sodipodi:docname="erd-poll.svg" inkscape:version="0.92.2 5c3e80d, 2017-08-06">
<metadata id="metadata295">
    <rdf:RDF>
    <cc:Work rdf:about="">
        <dc:format>image/svg+xml</dc:format>
        <dc:type rdf:resource="http://purl.org/dc/dcmitype/StillImage"/>
        <dc:title/>
    </cc:Work>
    </rdf:RDF>
</metadata>
<defs id="defs293"/>
<sodipodi:namedview pagecolor="#ffffff" bordercolor="#666666" borderopacity="1" objecttolerance="10" gridtolerance="10" guidetolerance="10" inkscape:pageopacity="0" inkscape:pageshadow="2" inkscape:window-width="640" inkscape:window-height="480" id="namedview291" showgrid="false" fit-margin-top="0" fit-margin-left="0" fit-margin-right="0" fit-margin-bottom="0" inkscape:zoom="0.17352941" inkscape:cx="281" inkscape:cy="389" inkscape:window-x="0" inkscape:window-y="27" inkscape:window-maximized="0" inkscape:current-layer="svg289"/>
<g transform="translate(-599,721)" lucid:page-tab-id="0_0" id="g287">
    <path d="m 797.17,-611.34 3.4,1.1 2.13,2.92 0.3,1.9 v 51.7 h -2 v -51.54 l -0.2,-1.27 -1.46,-2 -2.5,-0.8 H 776.2 v -2 z m -93.97,-1.66 2,1.45 1.28,0.2 h 40.7 v 2 h -40.86 l -1.9,-0.3 -2.9,-2.12 -1.12,-3.4 V -647 h 2 v 31.5 z" id="path2" inkscape:connector-curvature="0"/>
    <path id="path4" d="" inkscape:connector-curvature="0" style="fill:#ffffff"/>
    <path d="m 711.4,-636 h -20 v -2 h 20 z" id="path6" inkscape:connector-curvature="0"/>
    <path id="path8" d="" inkscape:connector-curvature="0" style="fill:#ffffff"/>
    <path d="m 711.4,-626 h -20 v -2 h 20 z m 101.5,71.38 -1.8,0.9 -9.1,-18.22 -9.1,18.2 -1.8,-0.88 10.9,-21.8 z" id="path10" inkscape:connector-curvature="0"/>
    <path d="m 805.17,-593.66 2.74,1.42 2.18,2.16 1.42,2.75 0.5,3.16 -0.5,3.16 -1.42,2.73 -2.17,2.17 -2.73,1.42 -3.16,0.5 -3.15,-0.5 -2.75,-1.42 -2.16,-2.17 -1.42,-2.74 -0.5,-3.17 0.5,-3.16 1.42,-2.75 2.16,-2.16 2.75,-1.42 3.16,-0.5 z" id="path12" inkscape:connector-curvature="0" style="fill:#ffffff"/>
    <path d="m 805.5,-594.62 3,1.56 2.4,2.38 1.56,3.03 0.54,3.32 -1,0.16 1,0.16 -0.54,3.3 -1.56,3.03 -2.4,2.4 -3,1.55 -3.5,0.56 -3.47,-0.56 -3.02,-1.56 -2.38,-2.4 -1.56,-3 -0.56,-3.5 0.56,-3.47 1.56,-3.03 2.4,-2.38 3,-1.56 3.5,-0.57 z m -6.33,1.92 -2.47,1.27 -1.94,1.95 -1.28,2.46 -0.46,2.85 0.46,2.84 1.28,2.47 1.94,1.94 2.47,1.28 2.84,0.45 2.85,-0.44 2.47,-1.28 1.94,-1.94 1.28,-2.47 0.46,-2.84 -0.46,-2.85 -1.28,-2.46 -1.94,-1.95 -2.47,-1.27 -2.84,-0.46 z" id="path14" inkscape:connector-curvature="0"/>
    <use xlink:href="#a" transform="translate(747.18753,-606.74207)" id="use16" x="0" y="0" width="100%" height="100%"/>
    <path d="M 957.45,-613.06 H 946.7 l -1.28,0.2 -2,1.47 -0.8,2.5 v 55.17 h -2 v -55.5 l 1.1,-3.4 2.9,-2.12 1.9,-0.3 h 10.93 z m 82.15,-5.92 -0.3,1.9 -2.13,2.9 -3.4,1.12 h -16.37 v -2 h 16.04 l 2.5,-0.8 1.46,-2 0.2,-1.28 V -647 h 2 z" id="path18" inkscape:connector-curvature="0"/>
    <path d="m 952.5,-554.62 -1.8,0.9 -9.1,-18.22 -9.1,18.2 -1.8,-0.88 10.9,-21.8 z" id="path20" inkscape:connector-curvature="0"/>
    <path d="m 944.77,-593.66 2.74,1.42 2.18,2.16 1.42,2.75 0.5,3.16 -0.5,3.16 -1.42,2.73 -2.17,2.17 -2.73,1.42 -3.16,0.5 -3.15,-0.5 -2.75,-1.42 -2.16,-2.17 -1.42,-2.74 -0.5,-3.17 0.5,-3.16 1.42,-2.75 2.16,-2.16 2.75,-1.42 3.16,-0.5 z" id="path22" inkscape:connector-curvature="0" style="fill:#ffffff"/>
    <path d="m 945.08,-594.62 3.03,1.56 2.4,2.38 1.56,3.03 0.53,3.32 -1,0.16 1,0.16 -0.54,3.3 -1.57,3.03 -2.4,2.4 -3.02,1.55 -3.47,0.56 -3.47,-0.56 -3.03,-1.56 -2.38,-2.4 -1.56,-3 -0.57,-3.5 0.56,-3.47 1.56,-3.03 2.38,-2.38 3.03,-1.56 3.48,-0.57 z m -6.32,1.92 -2.46,1.27 -1.95,1.95 -1.27,2.46 -0.46,2.85 0.46,2.84 1.27,2.47 1.95,1.94 2.46,1.28 2.85,0.45 2.85,-0.44 2.47,-1.28 1.94,-1.94 1.28,-2.47 0.45,-2.84 -0.46,-2.85 -1.28,-2.46 -1.94,-1.95 -2.47,-1.27 -2.84,-0.46 z" id="path24" inkscape:connector-curvature="0"/>
    <path id="path26" d="" inkscape:connector-curvature="0" style="fill:#ffffff"/>
    <path d="m 1048.6,-636 h -20 v -2 h 20 z" id="path28" inkscape:connector-curvature="0"/>
    <path id="path30" d="" inkscape:connector-curvature="0" style="fill:#ffffff"/>
    <path d="m 1048.6,-626 h -20 v -2 h 20 z" id="path32" inkscape:connector-curvature="0"/>
    <use xlink:href="#b" transform="translate(957.45055,-610.45928)" id="use34" x="0" y="0" width="100%" height="100%"/>
    <path d="m 867,-301 h -2 v -46.56 h 2 z m 0.46,-68.16 h -2 v -46.57 h 2 z" id="path36" inkscape:connector-curvature="0"/>
    <path id="path38" d="" inkscape:connector-curvature="0" style="fill:#ffffff"/>
    <path d="m 876.46,-404.73 h -20 v -2 h 20 z" id="path40" inkscape:connector-curvature="0"/>
    <path id="path42" d="" inkscape:connector-curvature="0" style="fill:#ffffff"/>
    <path d="m 876.46,-394.73 h -20 v -2 h 20 z m 0.44,92.83 -1.8,0.9 -9.1,-18.2 -9.1,18.2 -1.8,-0.9 10.9,-21.78 z" id="path44" inkscape:connector-curvature="0"/>
    <path id="path46" d="" inkscape:connector-curvature="0" style="fill:#ffffff"/>
    <path d="m 876,-320.45 h -20 v -2 h 20 z" id="path48" inkscape:connector-curvature="0"/>
    <use xlink:href="#a" transform="translate(851.73644,-354.76259)" id="use50" x="0" y="0" width="100%" height="100%"/>
    <path d="m 724.98,-552.73 h 282.97 v 136 H 724.98 Z" id="path52" inkscape:connector-curvature="0" style="fill:#ffffff"/>
    <path d="m 724.98,-552.73 h 282.97 v 40 H 724.98 Z" id="path54" inkscape:connector-curvature="0" style="fill:#cccccc"/>
    <path d="m 724.98,-552.73 h 282.97 v 136 H 724.98 Z m 0,40 h 282.97 m -141.49,0 v 96" id="path56" inkscape:connector-curvature="0" style="fill:none;stroke:#000000;stroke-width:2"/>
    <use xlink:href="#c" transform="translate(852.52817,-529.12519)" id="use58" x="0" y="0" width="100%" height="100%"/>
    <use xlink:href="#d" transform="translate(788.00317,-493.12519)" id="use60" x="0" y="0" width="100%" height="100%"/>
    <use xlink:href="#e" transform="translate(927.98788,-493.12519)" id="use62" x="0" y="0" width="100%" height="100%"/>
    <use xlink:href="#f" transform="translate(762.00317,-461.12519)" id="use64" x="0" y="0" width="100%" height="100%"/>
    <use xlink:href="#g" transform="translate(914.01288,-461.12519)" id="use66" x="0" y="0" width="100%" height="100%"/>
    <use xlink:href="#h" transform="translate(751.07817,-429.12519)" id="use68" x="0" y="0" width="100%" height="100%"/>
    <use xlink:href="#i" transform="translate(905.48788,-429.12519)" id="use70" x="0" y="0" width="100%" height="100%"/>
    <path d="m 764.6,-300 h 202.8 v 72 H 764.6 Z" id="path72" inkscape:connector-curvature="0" style="fill:#ffffff"/>
    <path d="m 764.6,-300 h 202.8 v 40 H 764.6 Z" id="path74" inkscape:connector-curvature="0" style="fill:#cccccc"/>
    <path d="m 764.6,-300 h 202.8 v 72 H 764.6 Z m 0,40 h 202.8 m -101.4,0 v 32" id="path76" inkscape:connector-curvature="0" style="fill:none;stroke:#000000;stroke-width:2"/>
    <use xlink:href="#j" transform="translate(827.67762,-276.4)" id="use78" x="0" y="0" width="100%" height="100%"/>
    <path d="M 937.2,-720 H 1140 v 72 H 937.2 Z" id="path80" inkscape:connector-curvature="0" style="fill:#ffffff"/>
    <path d="M 937.2,-720 H 1140 v 40 H 937.2 Z" id="path82" inkscape:connector-curvature="0" style="fill:#cccccc"/>
    <path d="M 937.2,-720 H 1140 v 72 H 937.2 Z m 0,40 H 1140 m -101.4,0 v 32" id="path84" inkscape:connector-curvature="0" style="fill:none;stroke:#000000;stroke-width:2"/>
    <use xlink:href="#k" transform="translate(1007.2052,-696.4)" id="use86" x="0" y="0" width="100%" height="100%"/>
    <path d="m 600,-720 h 202.8 v 72 H 600 Z" id="path88" inkscape:connector-curvature="0" style="fill:#ffffff"/>
    <path d="m 600,-720 h 202.8 v 40 H 600 Z" id="path90" inkscape:connector-curvature="0" style="fill:#cccccc"/>
    <path d="m 600,-720 h 202.8 v 72 H 600 Z m 0,40 h 202.8 m -101.4,0 v 32" id="path92" inkscape:connector-curvature="0" style="fill:none;stroke:#000000;stroke-width:2"/>
    <use xlink:href="#l" transform="translate(661.05,-696.4)" id="use94" x="0" y="0" width="100%" height="100%"/>
    <defs id="defs285">
    <path d="M 106,-169 C 34,-169 62,-67 57,0 H 25 v -261 h 32 l -1,103 c 12,-21 28,-36 61,-36 89,0 53,116 60,194 h -32 v -121 c 2,-32 -8,-49 -39,-48" id="m" inkscape:connector-curvature="0"/>
    <path d="M 141,-36 C 126,-15 110,5 73,4 37,3 15,-17 15,-53 c -1,-64 63,-63 125,-63 3,-35 -9,-54 -41,-54 -24,1 -41,7 -42,31 l -33,-3 c 5,-37 33,-52 76,-52 45,0 72,20 72,64 v 82 c -1,20 7,32 28,27 V -1 C 169,8 139,-3 141,-36 Z M 48,-53 c 0,20 12,33 32,33 41,-3 63,-29 60,-74 -43,2 -92,-5 -92,41" id="n" inkscape:connector-curvature="0"/>
    <path d="m 135,-143 c -3,-34 -86,-38 -87,0 15,53 115,12 119,90 4,78 -150,74 -157,8 l 28,-5 c 4,36 97,45 98,0 -10,-56 -113,-15 -118,-90 -4,-57 82,-63 122,-42 12,7 21,19 24,35" id="o" inkscape:connector-curvature="0"/>
    <g id="a">
        <use transform="scale(0.05)" xlink:href="#m" id="use99" x="0" y="0" width="100%" height="100%"/>
        <use transform="matrix(0.05,0,0,0.05,10,0)" xlink:href="#n" id="use101" x="0" y="0" width="100%" height="100%"/>
        <use transform="matrix(0.05,0,0,0.05,20,0)" xlink:href="#o" id="use103" x="0" y="0" width="100%" height="100%"/>
    </g>
    <path d="m 96,-169 c -40,0 -48,33 -48,73 0,40 9,75 48,75 24,0 41,-14 43,-38 l 32,2 C 165,-20 140,4 97,4 38,4 21,-37 15,-95 c -10,-93 101,-131 147,-64 4,7 5,14 7,22 l -32,3 c -4,-21 -16,-35 -41,-35" id="p" inkscape:connector-curvature="0"/>
    <path d="M 114,-163 C 36,-179 61,-72 57,0 H 25 l -1,-190 h 30 c 1,12 -1,29 2,39 6,-27 23,-49 58,-41 v 29" id="q" inkscape:connector-curvature="0"/>
    <path d="m 100,-194 c 63,0 86,42 84,106 H 49 c 0,40 14,67 53,68 26,1 43,-12 49,-29 l 28,8 C 168,-13 142,4 102,4 44,4 14,-33 15,-96 c 1,-61 26,-98 85,-98 z m 52,81 c 6,-60 -76,-77 -97,-28 -3,7 -6,17 -6,28 h 103" id="r" inkscape:connector-curvature="0"/>
    <path d="m 59,-47 c -2,24 18,29 38,22 V -1 C 64,9 27,4 27,-40 V -167 H 5 v -23 h 24 l 9,-43 h 21 v 43 h 35 v 23 H 59 v 120" id="s" inkscape:connector-curvature="0"/>
    <path d="m 85,-194 c 31,0 48,13 60,33 l -1,-100 h 32 l 1,261 h -30 c -2,-10 0,-23 -3,-31 C 134,-8 116,4 85,4 32,4 16,-35 15,-94 c 0,-66 23,-100 70,-100 z m 9,24 c -40,0 -46,34 -46,75 0,40 6,74 45,74 42,0 51,-32 51,-76 0,-42 -9,-74 -50,-73" id="t" inkscape:connector-curvature="0"/>
    <g id="b">
        <use transform="scale(0.05)" xlink:href="#p" id="use111" x="0" y="0" width="100%" height="100%"/>
        <use transform="matrix(0.05,0,0,0.05,9,0)" xlink:href="#q" id="use113" x="0" y="0" width="100%" height="100%"/>
        <use transform="matrix(0.05,0,0,0.05,14.95,0)" xlink:href="#r" id="use115" x="0" y="0" width="100%" height="100%"/>
        <use transform="matrix(0.05,0,0,0.05,24.95,0)" xlink:href="#n" id="use117" x="0" y="0" width="100%" height="100%"/>
        <use transform="matrix(0.05,0,0,0.05,34.95,0)" xlink:href="#s" id="use119" x="0" y="0" width="100%" height="100%"/>
        <use transform="matrix(0.05,0,0,0.05,39.95,0)" xlink:href="#r" id="use121" x="0" y="0" width="100%" height="100%"/>
        <use transform="matrix(0.05,0,0,0.05,49.95,0)" xlink:href="#t" id="use123" x="0" y="0" width="100%" height="100%"/>
    </g>
    <path d="m 115,-194 c 55,1 70,41 70,98 C 185,-39 169,2 115,4 84,4 66,-9 55,-30 L 56,75 H 24 l -1,-265 h 31 l 2,30 c 10,-21 28,-34 59,-34 z m -8,174 c 40,0 45,-34 45,-75 0,-41 -6,-73 -45,-74 -42,0 -51,32 -51,76 0,43 10,73 51,73" id="u" inkscape:connector-curvature="0"/>
    <path d="m 100,-194 c 62,-1 85,37 85,99 1,63 -27,99 -86,99 -59,0 -83,-39 -84,-99 0,-66 28,-99 85,-99 z m -1,174 c 44,1 53,-31 53,-75 0,-43 -8,-75 -51,-75 -43,0 -53,32 -53,75 0,43 10,74 51,75" id="v" inkscape:connector-curvature="0"/>
    <path d="M 24,0 V -261 H 56 V 0 H 24" id="w" inkscape:connector-curvature="0"/>
    <g id="c">
        <use transform="scale(0.05)" xlink:href="#u" id="use129" x="0" y="0" width="100%" height="100%"/>
        <use transform="matrix(0.05,0,0,0.05,10,0)" xlink:href="#v" id="use131" x="0" y="0" width="100%" height="100%"/>
        <use transform="matrix(0.05,0,0,0.05,20,0)" xlink:href="#w" id="use133" x="0" y="0" width="100%" height="100%"/>
        <use transform="matrix(0.05,0,0,0.05,23.95,0)" xlink:href="#w" id="use135" x="0" y="0" width="100%" height="100%"/>
    </g>
    <path d="m 25,-224 v -37 h 50 v 37 z M 25,0 V -190 H 75 V 0 H 25" id="x" inkscape:connector-curvature="0"/>
    <path d="m 88,-194 c 31,-1 46,15 58,34 l -1,-101 h 50 l 1,261 h -48 c -2,-10 0,-23 -3,-31 C 134,-8 116,4 84,4 32,4 16,-41 15,-95 c 0,-56 19,-97 73,-99 z m 17,164 c 33,0 40,-30 41,-66 1,-37 -9,-64 -41,-64 -32,0 -38,30 -39,65 0,43 13,65 39,65" id="y" inkscape:connector-curvature="0"/>
    <g id="d">
        <use transform="scale(0.05)" xlink:href="#x" id="use140" x="0" y="0" width="100%" height="100%"/>
        <use transform="matrix(0.05,0,0,0.05,5,0)" xlink:href="#y" id="use142" x="0" y="0" width="100%" height="100%"/>
        <path d="m -0.9,0.97 h 17.75 v 1.9 H -0.9 Z" id="path144" inkscape:connector-curvature="0"/>
    </g>
    <path d="m 24,-231 v -30 h 32 v 30 z M 24,0 V -190 H 56 V 0 H 24" id="z" inkscape:connector-curvature="0"/>
    <path d="m 117,-194 c 89,-4 53,116 60,194 h -32 v -121 c 0,-31 -8,-49 -39,-48 C 34,-167 62,-67 57,0 H 25 l -1,-190 h 30 c 1,10 -1,24 2,32 11,-22 29,-35 61,-36" id="A" inkscape:connector-curvature="0"/>
    <g id="e">
        <use transform="scale(0.05)" xlink:href="#z" id="use149" x="0" y="0" width="100%" height="100%"/>
        <use transform="matrix(0.05,0,0,0.05,3.95,0)" xlink:href="#A" id="use151" x="0" y="0" width="100%" height="100%"/>
        <use transform="matrix(0.05,0,0,0.05,13.95,0)" xlink:href="#s" id="use153" x="0" y="0" width="100%" height="100%"/>
    </g>
    <path d="M 145,-31 C 134,-9 116,4 85,4 32,4 16,-35 15,-94 c 0,-59 17,-99 70,-100 32,-1 48,14 60,33 0,-11 -1,-24 2,-32 h 30 l -1,268 h -32 z m -52,10 c 41,0 51,-33 51,-76 0,-43 -8,-73 -50,-73 -40,0 -46,35 -46,75 0,40 5,74 45,74" id="B" inkscape:connector-curvature="0"/>
    <path d="M 84,4 C -5,8 30,-112 23,-190 h 32 v 120 c 0,31 7,50 39,49 72,-2 45,-101 50,-169 h 31 l 1,190 h -30 c -1,-10 1,-25 -2,-33 -11,22 -28,36 -60,37" id="C" inkscape:connector-curvature="0"/>
    <g id="f">
        <use transform="scale(0.05)" xlink:href="#B" id="use158" x="0" y="0" width="100%" height="100%"/>
        <use transform="matrix(0.05,0,0,0.05,10,0)" xlink:href="#C" id="use160" x="0" y="0" width="100%" height="100%"/>
        <use transform="matrix(0.05,0,0,0.05,20,0)" xlink:href="#r" id="use162" x="0" y="0" width="100%" height="100%"/>
        <use transform="matrix(0.05,0,0,0.05,30,0)" xlink:href="#o" id="use164" x="0" y="0" width="100%" height="100%"/>
        <use transform="matrix(0.05,0,0,0.05,39,0)" xlink:href="#s" id="use166" x="0" y="0" width="100%" height="100%"/>
        <use transform="matrix(0.05,0,0,0.05,44,0)" xlink:href="#z" id="use168" x="0" y="0" width="100%" height="100%"/>
        <use transform="matrix(0.05,0,0,0.05,47.95,0)" xlink:href="#v" id="use170" x="0" y="0" width="100%" height="100%"/>
        <use transform="matrix(0.05,0,0,0.05,57.95,0)" xlink:href="#A" id="use172" x="0" y="0" width="100%" height="100%"/>
    </g>
    <path d="m 185,-189 c -5,-48 -123,-54 -124,2 14,75 158,14 163,119 C 227,10 103,19 49,-13 32,-23 21,-39 16,-59 l 33,-7 c 5,56 141,63 141,-1 0,-78 -155,-14 -162,-118 -5,-82 145,-84 179,-34 5,7 8,16 11,25" id="D" inkscape:connector-curvature="0"/>
    <path d="M 177,-190 C 167,-65 218,103 67,71 44,65 29,51 23,28 L 55,23 C 70,70 155,55 144,-5 V -35 C 133,-14 115,1 83,1 29,1 15,-40 15,-95 c 0,-56 16,-97 71,-98 29,-1 48,16 59,35 1,-10 0,-23 2,-32 z M 94,-22 c 36,0 50,-32 50,-73 0,-42 -14,-75 -50,-75 -39,0 -46,34 -46,75 0,41 6,73 46,73" id="E" inkscape:connector-curvature="0"/>
    <g id="g">
        <use transform="scale(0.05)" xlink:href="#D" id="use177" x="0" y="0" width="100%" height="100%"/>
        <use transform="matrix(0.05,0,0,0.05,12,0)" xlink:href="#s" id="use179" x="0" y="0" width="100%" height="100%"/>
        <use transform="matrix(0.05,0,0,0.05,17,0)" xlink:href="#q" id="use181" x="0" y="0" width="100%" height="100%"/>
        <use transform="matrix(0.05,0,0,0.05,22.95,0)" xlink:href="#z" id="use183" x="0" y="0" width="100%" height="100%"/>
        <use transform="matrix(0.05,0,0,0.05,26.9,0)" xlink:href="#A" id="use185" x="0" y="0" width="100%" height="100%"/>
        <use transform="matrix(0.05,0,0,0.05,36.9,0)" xlink:href="#E" id="use187" x="0" y="0" width="100%" height="100%"/>
    </g>
    <path d="m 210,-169 c -67,3 -38,105 -44,169 h -31 v -121 c 0,-29 -5,-50 -35,-48 C 34,-165 62,-65 56,0 H 25 l -1,-190 h 30 c 1,10 -1,24 2,32 10,-44 99,-50 107,0 11,-21 27,-35 58,-36 85,-2 47,119 55,194 h -31 v -121 c 0,-29 -5,-49 -35,-48" id="F" inkscape:connector-curvature="0"/>
    <g id="h">
        <use transform="scale(0.05)" xlink:href="#F" id="use191" x="0" y="0" width="100%" height="100%"/>
        <use transform="matrix(0.05,0,0,0.05,14.95,0)" xlink:href="#C" id="use193" x="0" y="0" width="100%" height="100%"/>
        <use transform="matrix(0.05,0,0,0.05,24.95,0)" xlink:href="#w" id="use195" x="0" y="0" width="100%" height="100%"/>
        <use transform="matrix(0.05,0,0,0.05,28.9,0)" xlink:href="#s" id="use197" x="0" y="0" width="100%" height="100%"/>
        <use transform="matrix(0.05,0,0,0.05,33.9,0)" xlink:href="#z" id="use199" x="0" y="0" width="100%" height="100%"/>
        <use transform="matrix(0.05,0,0,0.05,37.85,0)" xlink:href="#p" id="use201" x="0" y="0" width="100%" height="100%"/>
        <use transform="matrix(0.05,0,0,0.05,46.85,0)" xlink:href="#m" id="use203" x="0" y="0" width="100%" height="100%"/>
        <use transform="matrix(0.05,0,0,0.05,56.85,0)" xlink:href="#v" id="use205" x="0" y="0" width="100%" height="100%"/>
        <use transform="matrix(0.05,0,0,0.05,66.85,0)" xlink:href="#z" id="use207" x="0" y="0" width="100%" height="100%"/>
        <use transform="matrix(0.05,0,0,0.05,70.8,0)" xlink:href="#p" id="use209" x="0" y="0" width="100%" height="100%"/>
        <use transform="matrix(0.05,0,0,0.05,79.8,0)" xlink:href="#r" id="use211" x="0" y="0" width="100%" height="100%"/>
    </g>
    <path d="m 115,-194 c 53,0 69,39 70,98 C 185,-30 162,4 115,4 84,3 66,-7 56,-30 L 54,0 H 23 l 1,-261 h 32 v 101 c 10,-23 28,-34 59,-34 z m -8,174 c 40,0 45,-34 45,-75 0,-40 -5,-75 -45,-74 -42,0 -51,32 -51,76 0,43 10,73 51,73" id="G" inkscape:connector-curvature="0"/>
    <g id="i">
        <use transform="scale(0.05)" xlink:href="#G" id="use215" x="0" y="0" width="100%" height="100%"/>
        <use transform="matrix(0.05,0,0,0.05,10,0)" xlink:href="#v" id="use217" x="0" y="0" width="100%" height="100%"/>
        <use transform="matrix(0.05,0,0,0.05,20,0)" xlink:href="#v" id="use219" x="0" y="0" width="100%" height="100%"/>
        <use transform="matrix(0.05,0,0,0.05,30,0)" xlink:href="#w" id="use221" x="0" y="0" width="100%" height="100%"/>
        <use transform="matrix(0.05,0,0,0.05,33.95,0)" xlink:href="#r" id="use223" x="0" y="0" width="100%" height="100%"/>
        <use transform="matrix(0.05,0,0,0.05,43.95,0)" xlink:href="#n" id="use225" x="0" y="0" width="100%" height="100%"/>
        <use transform="matrix(0.05,0,0,0.05,53.95,0)" xlink:href="#A" id="use227" x="0" y="0" width="100%" height="100%"/>
    </g>
    <g id="j">
        <use transform="scale(0.05)" xlink:href="#u" id="use230" x="0" y="0" width="100%" height="100%"/>
        <use transform="matrix(0.05,0,0,0.05,10,0)" xlink:href="#v" id="use232" x="0" y="0" width="100%" height="100%"/>
        <use transform="matrix(0.05,0,0,0.05,20,0)" xlink:href="#w" id="use234" x="0" y="0" width="100%" height="100%"/>
        <use transform="matrix(0.05,0,0,0.05,23.95,0)" xlink:href="#w" id="use236" x="0" y="0" width="100%" height="100%"/>
        <use transform="matrix(0.05,0,0,0.05,27.9,0)" xlink:href="#v" id="use238" x="0" y="0" width="100%" height="100%"/>
        <use transform="matrix(0.05,0,0,0.05,37.9,0)" xlink:href="#u" id="use240" x="0" y="0" width="100%" height="100%"/>
        <use transform="matrix(0.05,0,0,0.05,47.9,0)" xlink:href="#s" id="use242" x="0" y="0" width="100%" height="100%"/>
        <use transform="matrix(0.05,0,0,0.05,52.9,0)" xlink:href="#z" id="use244" x="0" y="0" width="100%" height="100%"/>
        <use transform="matrix(0.05,0,0,0.05,56.85,0)" xlink:href="#v" id="use246" x="0" y="0" width="100%" height="100%"/>
        <use transform="matrix(0.05,0,0,0.05,66.85,0)" xlink:href="#A" id="use248" x="0" y="0" width="100%" height="100%"/>
    </g>
    <g id="k">
        <use transform="scale(0.05)" xlink:href="#n" id="use251" x="0" y="0" width="100%" height="100%"/>
        <use transform="matrix(0.05,0,0,0.05,10,0)" xlink:href="#p" id="use253" x="0" y="0" width="100%" height="100%"/>
        <use transform="matrix(0.05,0,0,0.05,19,0)" xlink:href="#p" id="use255" x="0" y="0" width="100%" height="100%"/>
        <use transform="matrix(0.05,0,0,0.05,28,0)" xlink:href="#v" id="use257" x="0" y="0" width="100%" height="100%"/>
        <use transform="matrix(0.05,0,0,0.05,38,0)" xlink:href="#C" id="use259" x="0" y="0" width="100%" height="100%"/>
        <use transform="matrix(0.05,0,0,0.05,48,0)" xlink:href="#A" id="use261" x="0" y="0" width="100%" height="100%"/>
        <use transform="matrix(0.05,0,0,0.05,58,0)" xlink:href="#s" id="use263" x="0" y="0" width="100%" height="100%"/>
    </g>
    <g id="l">
        <use transform="scale(0.05)" xlink:href="#C" id="use266" x="0" y="0" width="100%" height="100%"/>
        <use transform="matrix(0.05,0,0,0.05,10,0)" xlink:href="#o" id="use268" x="0" y="0" width="100%" height="100%"/>
        <use transform="matrix(0.05,0,0,0.05,19,0)" xlink:href="#r" id="use270" x="0" y="0" width="100%" height="100%"/>
        <use transform="matrix(0.05,0,0,0.05,29,0)" xlink:href="#q" id="use272" x="0" y="0" width="100%" height="100%"/>
        <use transform="matrix(0.05,0,0,0.05,34.95,0)" xlink:href="#E" id="use274" x="0" y="0" width="100%" height="100%"/>
        <use transform="matrix(0.05,0,0,0.05,44.95,0)" xlink:href="#q" id="use276" x="0" y="0" width="100%" height="100%"/>
        <use transform="matrix(0.05,0,0,0.05,50.9,0)" xlink:href="#v" id="use278" x="0" y="0" width="100%" height="100%"/>
        <use transform="matrix(0.05,0,0,0.05,60.9,0)" xlink:href="#C" id="use280" x="0" y="0" width="100%" height="100%"/>
        <use transform="matrix(0.05,0,0,0.05,70.9,0)" xlink:href="#u" id="use282" x="0" y="0" width="100%" height="100%"/>
    </g>
    </defs>
</g>
</svg>
