<?xml version="1.0"?>
<svg xmlns:lucid="lucid" xmlns:dc="http://purl.org/dc/elements/1.1/" xmlns:cc="http://creativecommons.org/ns#" xmlns:rdf="http://www.w3.org/1999/02/22-rdf-syntax-ns#" xmlns:svg="http://www.w3.org/2000/svg" xmlns="http://www.w3.org/2000/svg" xmlns:xlink="http://www.w3.org/1999/xlink" xmlns:sodipodi="http://sodipodi.sourceforge.net/DTD/sodipodi-0.dtd" xmlns:inkscape="http://www.inkscape.org/namespaces/inkscape" width="617" height="381" version="1.1" id="svg259" sodipodi:docname="erd-polloption.svg" inkscape:version="0.92.2 5c3e80d, 2017-08-06">
<metadata id="metadata265">
    <rdf:RDF>
    <cc:Work rdf:about="">
        <dc:format>image/svg+xml</dc:format>
        <dc:type rdf:resource="http://purl.org/dc/dcmitype/StillImage"/>
        <dc:title/>
    </cc:Work>
    </rdf:RDF>
</metadata>
<defs id="defs263"/>
<sodipodi:namedview pagecolor="#ffffff" bordercolor="#666666" borderopacity="1" objecttolerance="10" gridtolerance="10" guidetolerance="10" inkscape:pageopacity="0" inkscape:pageshadow="2" inkscape:window-width="640" inkscape:window-height="480" id="namedview261" showgrid="false" fit-margin-top="0" fit-margin-left="0" fit-margin-right="0" fit-margin-bottom="0" inkscape:zoom="0.17352941" inkscape:cx="321" inkscape:cy="100" inkscape:window-x="0" inkscape:window-y="27" inkscape:window-maximized="0" inkscape:current-layer="svg259"/>
<g lucid:page-tab-id="k-k4TFZjKoXR" id="g257" transform="translate(-559,-399)">
    <path d="m 720,579 h 300 V 779 H 720 Z" id="path2" inkscape:connector-curvature="0" style="fill:#ffffff"/>
    <path d="m 720,579 h 300 v 40 H 720 Z" id="path4" inkscape:connector-curvature="0" style="fill:#cccccc"/>
    <path d="m 720,579 h 300 V 779 H 720 Z m 0,40 h 300 m -150,0 v 160" id="path6" inkscape:connector-curvature="0" style="fill:none;stroke:#000000;stroke-width:2"/>
    <use xlink:href="#a" transform="translate(831.575,602.6)" id="use8" x="0" y="0" width="100%" height="100%"/>
    <use xlink:href="#b" transform="translate(787.025,638.6)" id="use10" x="0" y="0" width="100%" height="100%"/>
    <use xlink:href="#c" transform="translate(935.525,638.6)" id="use12" x="0" y="0" width="100%" height="100%"/>
    <use xlink:href="#d" transform="translate(760.575,670.6)" id="use14" x="0" y="0" width="100%" height="100%"/>
    <use xlink:href="#e" transform="translate(925.4,670.6)" id="use16" x="0" y="0" width="100%" height="100%"/>
    <use xlink:href="#f" transform="translate(763.05,702.6)" id="use18" x="0" y="0" width="100%" height="100%"/>
    <use xlink:href="#e" transform="translate(925.4,702.6)" id="use20" x="0" y="0" width="100%" height="100%"/>
    <use xlink:href="#g" transform="translate(783.025,734.6)" id="use22" x="0" y="0" width="100%" height="100%"/>
    <use xlink:href="#h" transform="translate(918.025,734.6)" id="use24" x="0" y="0" width="100%" height="100%"/>
    <use xlink:href="#i" transform="translate(785.525,766.6)" id="use26" x="0" y="0" width="100%" height="100%"/>
    <use xlink:href="#h" transform="translate(918.025,766.6)" id="use28" x="0" y="0" width="100%" height="100%"/>
    <path d="m 981.8,526.5 h -11.67 l -1.26,0.2 -2,1.46 -0.82,2.5 V 578 h -2 v -47.66 l 1.12,-3.4 2.9,-2.13 1.9,-0.3 h 11.83 z m 86.7,-5.92 -0.3,1.9 -2.13,2.9 -3.4,1.12 h -11.92 v -2 h 11.6 l 2.5,-0.82 1.45,-2 0.2,-1.26 V 473 h 2 z" id="path30" inkscape:connector-curvature="0"/>
    <path d="m 975.95,577.1 -1.8,0.9 -9.1,-18.2 -9.1,18.2 -1.8,-0.9 10.9,-21.78 z" id="path32" inkscape:connector-curvature="0"/>
    <path d="m 968.2,538.06 2.76,1.42 2.16,2.17 1.42,2.74 0.5,3.15 -0.5,3.16 -1.42,2.76 -2.16,2.16 -2.75,1.42 -3.15,0.5 -3.16,-0.5 -2.75,-1.42 -2.17,-2.16 -1.42,-2.75 -0.5,-3.15 0.5,-3.16 1.42,-2.75 2.17,-2.17 2.74,-1.42 3.15,-0.5 z" id="path34" inkscape:connector-curvature="0" style="fill:#ffffff"/>
    <path d="m 968.53,537.1 3.03,1.57 2.38,2.38 1.57,3.02 0.54,3.32 -1,0.15 1,0.16 -0.53,3.33 -1.56,3.03 -2.38,2.38 -3.03,1.56 -3.48,0.57 -3.47,-0.57 -3.03,-1.56 -2.38,-2.38 -1.57,-3.03 -0.56,-3.48 0.56,-3.48 1.57,-3.02 2.38,-2.38 3.03,-1.57 3.47,-0.56 z m -6.32,1.92 -2.46,1.28 -1.94,1.94 -1.28,2.47 -0.45,2.85 0.45,2.85 1.28,2.46 1.94,1.95 2.47,1.28 2.85,0.46 2.85,-0.46 2.46,-1.27 1.95,-1.94 1.28,-2.46 0.46,-2.85 -0.46,-2.84 -1.27,-2.46 -1.94,-1.94 -2.46,-1.28 -2.85,-0.45 z m 116.19,-65.12 -10.9,21.78 -10.9,-21.8 1.8,-0.88 9.1,18.2 9.1,-18.2 z" id="path36" inkscape:connector-curvature="0"/>
    <path d="m 1070.66,493.96 2.75,1.42 2.17,2.16 1.42,2.75 0.5,3.15 -0.34,2.6 -1,2.4 -1.6,2.07 -2.07,1.6 -2.4,1 -2.6,0.33 -2.6,-0.34 -2.4,-1 -2.07,-1.58 -1.6,-2.08 -1,-2.4 -0.33,-2.6 0.5,-3.15 1.43,-2.76 2.16,-2.16 2.74,-1.42 3.16,-0.5 z" id="path38" inkscape:connector-curvature="0" style="fill:#ffffff"/>
    <path d="m 1070.98,493 3.02,1.56 2.4,2.38 1.55,3.03 0.54,3.32 -1,0.15 1,0.13 -0.37,2.72 -1.1,2.64 -1.75,2.3 -2.28,1.75 -2.64,1.08 -2.86,0.38 -2.86,-0.38 -2.64,-1.1 -2.28,-1.75 -1.76,-2.3 -1.1,-2.63 -0.37,-2.87 0.55,-3.46 1.56,-3.03 2.4,-2.38 3.02,-1.56 3.48,-0.57 z m -6.32,1.92 -2.47,1.27 -1.95,1.94 -1.28,2.46 -0.46,2.86 0.3,2.32 0.9,2.16 1.44,1.86 1.87,1.44 2.17,0.9 2.33,0.3 2.33,-0.3 2.16,-0.9 1.86,-1.43 1.43,-1.86 0.9,-2.16 0.3,-2.32 -0.47,-2.86 -1.28,-2.46 -1.94,-1.95 -2.46,-1.28 -2.84,-0.46 z" id="path40" inkscape:connector-curvature="0"/>
    <use xlink:href="#j" transform="translate(981.8066,529.1)" id="use42" x="0" y="0" width="100%" height="100%"/>
    <use xlink:href="#k" transform="translate(1029.8066,529.1)" id="use44" x="0" y="0" width="100%" height="100%"/>
    <path d="m 783.9,524.5 3.42,1.1 2.12,2.92 0.3,1.9 V 578 h -2 v -47.42 l -0.2,-1.26 -1.46,-2 -2.5,-0.82 h -40.96 v -2 z m -114.58,-1.66 2,1.46 1.26,0.2 h 41.04 v 2 h -41.2 l -1.9,-0.3 -2.9,-2.13 -1.12,-3.4 V 473 h 2 v 47.34 z" id="path46" inkscape:connector-curvature="0"/>
    <path id="path48" d="" inkscape:connector-curvature="0" style="fill:#ffffff"/>
    <path d="m 677.5,484 h -20 v -2 h 20 z" id="path50" inkscape:connector-curvature="0"/>
    <path id="path52" d="" inkscape:connector-curvature="0" style="fill:#ffffff"/>
    <path d="m 677.5,494 h -20 v -2 h 20 z m 122.14,83.1 -1.8,0.9 -9.1,-18.2 -9.1,18.2 -1.8,-0.9 10.9,-21.78 z" id="path54" inkscape:connector-curvature="0"/>
    <path id="path56" d="" inkscape:connector-curvature="0" style="fill:#ffffff"/>
    <path d="m 798.75,558.55 h -20 v -2 h 20 z" id="path58" inkscape:connector-curvature="0"/>
    <use xlink:href="#l" transform="translate(713.62846,529.1)" id="use60" x="0" y="0" width="100%" height="100%"/>
    <path d="m 960,400 h 215 v 72 H 960 Z" id="path62" inkscape:connector-curvature="0" style="fill:#ffffff"/>
    <path d="m 960,400 h 215 v 40 H 960 Z" id="path64" inkscape:connector-curvature="0" style="fill:#cccccc"/>
    <path d="m 960,400 h 215 v 72 H 960 Z m 0,40 h 215 m -107.5,0 v 32" id="path66" inkscape:connector-curvature="0" style="fill:none;stroke:#000000;stroke-width:2"/>
    <use xlink:href="#m" transform="translate(1036,423.6)" id="use68" x="0" y="0" width="100%" height="100%"/>
    <path d="m 560,400 h 215 v 72 H 560 Z" id="path70" inkscape:connector-curvature="0" style="fill:#ffffff"/>
    <path d="m 560,400 h 215 v 40 H 560 Z" id="path72" inkscape:connector-curvature="0" style="fill:#cccccc"/>
    <path d="m 560,400 h 215 v 72 H 560 Z m 0,40 h 215 m -107.5,0 v 32" id="path74" inkscape:connector-curvature="0" style="fill:none;stroke:#000000;stroke-width:2"/>
    <use xlink:href="#n" transform="translate(648.0037,424.26667)" id="use76" x="0" y="0" width="100%" height="100%"/>
    <use xlink:href="#o" transform="translate(653.92963,424.26667)" id="use78" x="0" y="0" width="100%" height="100%"/>
    <defs id="defs255">
    <path d="m 115,-194 c 55,1 70,41 70,98 C 185,-39 169,2 115,4 84,4 66,-9 55,-30 L 56,75 H 24 l -1,-265 h 31 l 2,30 c 10,-21 28,-34 59,-34 z m -8,174 c 40,0 45,-34 45,-75 0,-41 -6,-73 -45,-74 -42,0 -51,32 -51,76 0,43 10,73 51,73" id="p" inkscape:connector-curvature="0"/>
    <path d="m 100,-194 c 62,-1 85,37 85,99 1,63 -27,99 -86,99 -59,0 -83,-39 -84,-99 0,-66 28,-99 85,-99 z m -1,174 c 44,1 53,-31 53,-75 0,-43 -8,-75 -51,-75 -43,0 -53,32 -53,75 0,43 10,74 51,75" id="q" inkscape:connector-curvature="0"/>
    <path d="M 24,0 V -261 H 56 V 0 H 24" id="r" inkscape:connector-curvature="0"/>
    <path d="m 59,-47 c -2,24 18,29 38,22 V -1 C 64,9 27,4 27,-40 V -167 H 5 v -23 h 24 l 9,-43 h 21 v 43 h 35 v 23 H 59 v 120" id="s" inkscape:connector-curvature="0"/>
    <path d="m 24,-231 v -30 h 32 v 30 z M 24,0 V -190 H 56 V 0 H 24" id="t" inkscape:connector-curvature="0"/>
    <path d="m 117,-194 c 89,-4 53,116 60,194 h -32 v -121 c 0,-31 -8,-49 -39,-48 C 34,-167 62,-67 57,0 H 25 l -1,-190 h 30 c 1,10 -1,24 2,32 11,-22 29,-35 61,-36" id="u" inkscape:connector-curvature="0"/>
    <g id="a">
        <use transform="scale(0.05)" xlink:href="#p" id="use86" x="0" y="0" width="100%" height="100%"/>
        <use transform="matrix(0.05,0,0,0.05,10,0)" xlink:href="#q" id="use88" x="0" y="0" width="100%" height="100%"/>
        <use transform="matrix(0.05,0,0,0.05,20,0)" xlink:href="#r" id="use90" x="0" y="0" width="100%" height="100%"/>
        <use transform="matrix(0.05,0,0,0.05,23.95,0)" xlink:href="#r" id="use92" x="0" y="0" width="100%" height="100%"/>
        <use transform="matrix(0.05,0,0,0.05,27.9,0)" xlink:href="#q" id="use94" x="0" y="0" width="100%" height="100%"/>
        <use transform="matrix(0.05,0,0,0.05,37.9,0)" xlink:href="#p" id="use96" x="0" y="0" width="100%" height="100%"/>
        <use transform="matrix(0.05,0,0,0.05,47.9,0)" xlink:href="#s" id="use98" x="0" y="0" width="100%" height="100%"/>
        <use transform="matrix(0.05,0,0,0.05,52.9,0)" xlink:href="#t" id="use100" x="0" y="0" width="100%" height="100%"/>
        <use transform="matrix(0.05,0,0,0.05,56.85,0)" xlink:href="#q" id="use102" x="0" y="0" width="100%" height="100%"/>
        <use transform="matrix(0.05,0,0,0.05,66.85,0)" xlink:href="#u" id="use104" x="0" y="0" width="100%" height="100%"/>
    </g>
    <path d="m 25,-224 v -37 h 50 v 37 z M 25,0 V -190 H 75 V 0 H 25" id="v" inkscape:connector-curvature="0"/>
    <path d="m 88,-194 c 31,-1 46,15 58,34 l -1,-101 h 50 l 1,261 h -48 c -2,-10 0,-23 -3,-31 C 134,-8 116,4 84,4 32,4 16,-41 15,-95 c 0,-56 19,-97 73,-99 z m 17,164 c 33,0 40,-30 41,-66 1,-37 -9,-64 -41,-64 -32,0 -38,30 -39,65 0,43 13,65 39,65" id="w" inkscape:connector-curvature="0"/>
    <g id="b">
        <use transform="scale(0.05)" xlink:href="#v" id="use109" x="0" y="0" width="100%" height="100%"/>
        <use transform="matrix(0.05,0,0,0.05,5,0)" xlink:href="#w" id="use111" x="0" y="0" width="100%" height="100%"/>
        <path d="m -0.9,0.97 h 17.75 v 1.9 H -0.9 Z" id="path113" inkscape:connector-curvature="0"/>
    </g>
    <g id="c">
        <use transform="scale(0.05)" xlink:href="#t" id="use116" x="0" y="0" width="100%" height="100%"/>
        <use transform="matrix(0.05,0,0,0.05,3.95,0)" xlink:href="#u" id="use118" x="0" y="0" width="100%" height="100%"/>
        <use transform="matrix(0.05,0,0,0.05,13.95,0)" xlink:href="#s" id="use120" x="0" y="0" width="100%" height="100%"/>
    </g>
    <path d="m 210,-169 c -67,3 -38,105 -44,169 h -31 v -121 c 0,-29 -5,-50 -35,-48 C 34,-165 62,-65 56,0 H 25 l -1,-190 h 30 c 1,10 -1,24 2,32 10,-44 99,-50 107,0 11,-21 27,-35 58,-36 85,-2 47,119 55,194 h -31 v -121 c 0,-29 -5,-49 -35,-48" id="x" inkscape:connector-curvature="0"/>
    <path d="m 100,-194 c 63,0 86,42 84,106 H 49 c 0,40 14,67 53,68 26,1 43,-12 49,-29 l 28,8 C 168,-13 142,4 102,4 44,4 14,-33 15,-96 c 1,-61 26,-98 85,-98 z m 52,81 c 6,-60 -76,-77 -97,-28 -3,7 -6,17 -6,28 h 103" id="y" inkscape:connector-curvature="0"/>
    <path d="m 135,-143 c -3,-34 -86,-38 -87,0 15,53 115,12 119,90 4,78 -150,74 -157,8 l 28,-5 c 4,36 97,45 98,0 -10,-56 -113,-15 -118,-90 -4,-57 82,-63 122,-42 12,7 21,19 24,35" id="z" inkscape:connector-curvature="0"/>
    <path d="M 141,-36 C 126,-15 110,5 73,4 37,3 15,-17 15,-53 c -1,-64 63,-63 125,-63 3,-35 -9,-54 -41,-54 -24,1 -41,7 -42,31 l -33,-3 c 5,-37 33,-52 76,-52 45,0 72,20 72,64 v 82 c -1,20 7,32 28,27 V -1 C 169,8 139,-3 141,-36 Z M 48,-53 c 0,20 12,33 32,33 41,-3 63,-29 60,-74 -43,2 -92,-5 -92,41" id="A" inkscape:connector-curvature="0"/>
    <path d="M 114,-163 C 36,-179 61,-72 57,0 H 25 l -1,-190 h 30 c 1,12 -1,29 2,39 6,-27 23,-49 58,-41 v 29" id="B" inkscape:connector-curvature="0"/>
    <g id="d">
        <use transform="scale(0.05)" xlink:href="#s" id="use128" x="0" y="0" width="100%" height="100%"/>
        <use transform="matrix(0.05,0,0,0.05,5,0)" xlink:href="#t" id="use130" x="0" y="0" width="100%" height="100%"/>
        <use transform="matrix(0.05,0,0,0.05,8.95,0)" xlink:href="#x" id="use132" x="0" y="0" width="100%" height="100%"/>
        <use transform="matrix(0.05,0,0,0.05,23.9,0)" xlink:href="#y" id="use134" x="0" y="0" width="100%" height="100%"/>
        <use transform="matrix(0.05,0,0,0.05,33.9,0)" xlink:href="#z" id="use136" x="0" y="0" width="100%" height="100%"/>
        <use transform="matrix(0.05,0,0,0.05,42.9,0)" xlink:href="#s" id="use138" x="0" y="0" width="100%" height="100%"/>
        <use transform="matrix(0.05,0,0,0.05,47.9,0)" xlink:href="#A" id="use140" x="0" y="0" width="100%" height="100%"/>
        <use transform="matrix(0.05,0,0,0.05,57.9,0)" xlink:href="#B" id="use142" x="0" y="0" width="100%" height="100%"/>
        <use transform="matrix(0.05,0,0,0.05,63.85,0)" xlink:href="#s" id="use144" x="0" y="0" width="100%" height="100%"/>
    </g>
    <path d="M 127,-220 V 0 H 93 V -220 H 8 v -28 h 204 v 28 h -85" id="C" inkscape:connector-curvature="0"/>
    <g id="e">
        <use transform="scale(0.05)" xlink:href="#C" id="use148" x="0" y="0" width="100%" height="100%"/>
        <use transform="matrix(0.05,0,0,0.05,10.3,0)" xlink:href="#t" id="use150" x="0" y="0" width="100%" height="100%"/>
        <use transform="matrix(0.05,0,0,0.05,14.25,0)" xlink:href="#x" id="use152" x="0" y="0" width="100%" height="100%"/>
        <use transform="matrix(0.05,0,0,0.05,29.2,0)" xlink:href="#y" id="use154" x="0" y="0" width="100%" height="100%"/>
    </g>
    <path d="m 85,-194 c 31,0 48,13 60,33 l -1,-100 h 32 l 1,261 h -30 c -2,-10 0,-23 -3,-31 C 134,-8 116,4 85,4 32,4 16,-35 15,-94 c 0,-66 23,-100 70,-100 z m 9,24 c -40,0 -46,34 -46,75 0,40 6,74 45,74 42,0 51,-32 51,-76 0,-42 -9,-74 -50,-73" id="D" inkscape:connector-curvature="0"/>
    <g id="f">
        <use transform="scale(0.05)" xlink:href="#s" id="use158" x="0" y="0" width="100%" height="100%"/>
        <use transform="matrix(0.05,0,0,0.05,5,0)" xlink:href="#t" id="use160" x="0" y="0" width="100%" height="100%"/>
        <use transform="matrix(0.05,0,0,0.05,8.95,0)" xlink:href="#x" id="use162" x="0" y="0" width="100%" height="100%"/>
        <use transform="matrix(0.05,0,0,0.05,23.9,0)" xlink:href="#y" id="use164" x="0" y="0" width="100%" height="100%"/>
        <use transform="matrix(0.05,0,0,0.05,33.9,0)" xlink:href="#y" id="use166" x="0" y="0" width="100%" height="100%"/>
        <use transform="matrix(0.05,0,0,0.05,43.9,0)" xlink:href="#u" id="use168" x="0" y="0" width="100%" height="100%"/>
        <use transform="matrix(0.05,0,0,0.05,53.9,0)" xlink:href="#D" id="use170" x="0" y="0" width="100%" height="100%"/>
    </g>
    <g id="g">
        <use transform="scale(0.05)" xlink:href="#r" id="use173" x="0" y="0" width="100%" height="100%"/>
        <use transform="matrix(0.05,0,0,0.05,3.95,0)" xlink:href="#q" id="use175" x="0" y="0" width="100%" height="100%"/>
        <use transform="matrix(0.05,0,0,0.05,13.95,0)" xlink:href="#u" id="use177" x="0" y="0" width="100%" height="100%"/>
    </g>
    <path d="M 84,4 C -5,8 30,-112 23,-190 h 32 v 120 c 0,31 7,50 39,49 72,-2 45,-101 50,-169 h 31 l 1,190 h -30 c -1,-10 1,-25 -2,-33 -11,22 -28,36 -60,37" id="E" inkscape:connector-curvature="0"/>
    <path d="m 115,-194 c 53,0 69,39 70,98 C 185,-30 162,4 115,4 84,3 66,-7 56,-30 L 54,0 H 23 l 1,-261 h 32 v 101 c 10,-23 28,-34 59,-34 z m -8,174 c 40,0 45,-34 45,-75 0,-40 -5,-75 -45,-74 -42,0 -51,32 -51,76 0,43 10,73 51,73" id="F" inkscape:connector-curvature="0"/>
    <g id="h">
        <use transform="scale(0.05)" xlink:href="#D" id="use182" x="0" y="0" width="100%" height="100%"/>
        <use transform="matrix(0.05,0,0,0.05,10,0)" xlink:href="#q" id="use184" x="0" y="0" width="100%" height="100%"/>
        <use transform="matrix(0.05,0,0,0.05,20,0)" xlink:href="#E" id="use186" x="0" y="0" width="100%" height="100%"/>
        <use transform="matrix(0.05,0,0,0.05,30,0)" xlink:href="#F" id="use188" x="0" y="0" width="100%" height="100%"/>
        <use transform="matrix(0.05,0,0,0.05,40,0)" xlink:href="#r" id="use190" x="0" y="0" width="100%" height="100%"/>
        <use transform="matrix(0.05,0,0,0.05,43.95,0)" xlink:href="#y" id="use192" x="0" y="0" width="100%" height="100%"/>
    </g>
    <g id="i">
        <use transform="scale(0.05)" xlink:href="#r" id="use195" x="0" y="0" width="100%" height="100%"/>
        <use transform="matrix(0.05,0,0,0.05,3.95,0)" xlink:href="#A" id="use197" x="0" y="0" width="100%" height="100%"/>
        <use transform="matrix(0.05,0,0,0.05,13.95,0)" xlink:href="#s" id="use199" x="0" y="0" width="100%" height="100%"/>
    </g>
    <path d="M 108,0 H 70 L 1,-190 h 34 l 54,165 56,-165 h 34" id="G" inkscape:connector-curvature="0"/>
    <g id="j">
        <use transform="scale(0.05)" xlink:href="#G" id="use203" x="0" y="0" width="100%" height="100%"/>
        <use transform="matrix(0.05,0,0,0.05,9,0)" xlink:href="#q" id="use205" x="0" y="0" width="100%" height="100%"/>
        <use transform="matrix(0.05,0,0,0.05,19,0)" xlink:href="#s" id="use207" x="0" y="0" width="100%" height="100%"/>
        <use transform="matrix(0.05,0,0,0.05,24,0)" xlink:href="#y" id="use209" x="0" y="0" width="100%" height="100%"/>
        <use transform="matrix(0.05,0,0,0.05,34,0)" xlink:href="#z" id="use211" x="0" y="0" width="100%" height="100%"/>
    </g>
    <path d="m 101,-234 c -31,-9 -42,10 -38,44 h 38 v 23 H 63 V 0 H 32 V -167 H 5 v -23 h 27 c -7,-52 17,-82 69,-68 v 24" id="H" inkscape:connector-curvature="0"/>
    <g id="k">
        <use transform="scale(0.05)" xlink:href="#H" id="use215" x="0" y="0" width="100%" height="100%"/>
        <use transform="matrix(0.05,0,0,0.05,5,0)" xlink:href="#q" id="use217" x="0" y="0" width="100%" height="100%"/>
        <use transform="matrix(0.05,0,0,0.05,15,0)" xlink:href="#B" id="use219" x="0" y="0" width="100%" height="100%"/>
    </g>
    <path d="M 106,-169 C 34,-169 62,-67 57,0 H 25 v -261 h 32 l -1,103 c 12,-21 28,-36 61,-36 89,0 53,116 60,194 h -32 v -121 c 2,-32 -8,-49 -39,-48" id="I" inkscape:connector-curvature="0"/>
    <g id="l">
        <use transform="scale(0.05)" xlink:href="#I" id="use223" x="0" y="0" width="100%" height="100%"/>
        <use transform="matrix(0.05,0,0,0.05,10,0)" xlink:href="#A" id="use225" x="0" y="0" width="100%" height="100%"/>
        <use transform="matrix(0.05,0,0,0.05,20,0)" xlink:href="#z" id="use227" x="0" y="0" width="100%" height="100%"/>
    </g>
    <path d="m 96,-169 c -40,0 -48,33 -48,73 0,40 9,75 48,75 24,0 41,-14 43,-38 l 32,2 C 165,-20 140,4 97,4 38,4 21,-37 15,-95 c -10,-93 101,-131 147,-64 4,7 5,14 7,22 l -32,3 c -4,-21 -16,-35 -41,-35" id="J" inkscape:connector-curvature="0"/>
    <g id="m">
        <use transform="scale(0.05)" xlink:href="#A" id="use231" x="0" y="0" width="100%" height="100%"/>
        <use transform="matrix(0.05,0,0,0.05,10,0)" xlink:href="#J" id="use233" x="0" y="0" width="100%" height="100%"/>
        <use transform="matrix(0.05,0,0,0.05,19,0)" xlink:href="#J" id="use235" x="0" y="0" width="100%" height="100%"/>
        <use transform="matrix(0.05,0,0,0.05,28,0)" xlink:href="#q" id="use237" x="0" y="0" width="100%" height="100%"/>
        <use transform="matrix(0.05,0,0,0.05,38,0)" xlink:href="#E" id="use239" x="0" y="0" width="100%" height="100%"/>
        <use transform="matrix(0.05,0,0,0.05,48,0)" xlink:href="#u" id="use241" x="0" y="0" width="100%" height="100%"/>
        <use transform="matrix(0.05,0,0,0.05,58,0)" xlink:href="#s" id="use243" x="0" y="0" width="100%" height="100%"/>
    </g>
    <g id="o">
        <use transform="scale(0.05925926)" xlink:href="#p" id="use246" x="0" y="0" width="100%" height="100%"/>
        <use transform="matrix(0.05925926,0,0,0.05925926,11.851852,0)" xlink:href="#q" id="use248" x="0" y="0" width="100%" height="100%"/>
        <use transform="matrix(0.05925926,0,0,0.05925926,23.703704,0)" xlink:href="#r" id="use250" x="0" y="0" width="100%" height="100%"/>
        <use transform="matrix(0.05925926,0,0,0.05925926,28.385185,0)" xlink:href="#r" id="use252" x="0" y="0" width="100%" height="100%"/>
    </g>
    </defs>
</g>
</svg>
