<?xml version="1.0"?>
<svg xmlns:lucid="lucid" xmlns:dc="http://purl.org/dc/elements/1.1/" xmlns:cc="http://creativecommons.org/ns#" xmlns:rdf="http://www.w3.org/1999/02/22-rdf-syntax-ns#" xmlns:svg="http://www.w3.org/2000/svg" xmlns="http://www.w3.org/2000/svg" xmlns:xlink="http://www.w3.org/1999/xlink" xmlns:sodipodi="http://sodipodi.sourceforge.net/DTD/sodipodi-0.dtd" xmlns:inkscape="http://www.inkscape.org/namespaces/inkscape" width="702" height="234" version="1.1" id="svg316" sodipodi:docname="erd-event.svg" inkscape:version="0.92.2 5c3e80d, 2017-08-06">
<metadata id="metadata322">
    <rdf:RDF>
    <cc:Work rdf:about="">
        <dc:format>image/svg+xml</dc:format>
        <dc:type rdf:resource="http://purl.org/dc/dcmitype/StillImage"/>
        <dc:title/>
    </cc:Work>
    </rdf:RDF>
</metadata>
<defs id="defs320"/>
<sodipodi:namedview pagecolor="#ffffff" bordercolor="#666666" borderopacity="1" objecttolerance="10" gridtolerance="10" guidetolerance="10" inkscape:pageopacity="0" inkscape:pageshadow="2" inkscape:window-width="640" inkscape:window-height="480" id="namedview318" showgrid="false" fit-margin-top="0" fit-margin-left="0" fit-margin-right="0" fit-margin-bottom="0" inkscape:zoom="0.17352941" inkscape:cx="361" inkscape:cy="93" inkscape:window-x="0" inkscape:window-y="27" inkscape:window-maximized="0" inkscape:current-layer="svg316"/>
<g lucid:page-tab-id="i-k4c81HlthF" id="g314" transform="translate(-519,-539)">
    <path d="m 920,540 h 300 V 772 H 920 Z" id="path2" inkscape:connector-curvature="0" style="fill:#ffffff"/>
    <path d="m 920,540 h 300 v 40 H 920 Z" id="path4" inkscape:connector-curvature="0" style="fill:#cccccc"/>
    <path d="m 920,540 h 300 V 772 H 920 Z m 0,40 h 300 m -150,0 v 192" id="path6" inkscape:connector-curvature="0" style="fill:none;stroke:#000000;stroke-width:2"/>
    <use xlink:href="#a" transform="translate(1048,563.6)" id="use8" x="0" y="0" width="100%" height="100%"/>
    <use xlink:href="#b" transform="translate(987.025,599.6)" id="use10" x="0" y="0" width="100%" height="100%"/>
    <use xlink:href="#c" transform="translate(1135.525,599.6)" id="use12" x="0" y="0" width="100%" height="100%"/>
    <use xlink:href="#d" transform="translate(981.05,631.6)" id="use14" x="0" y="0" width="100%" height="100%"/>
    <use xlink:href="#e" transform="translate(1121.55,631.6)" id="use16" x="0" y="0" width="100%" height="100%"/>
    <use xlink:href="#f" transform="translate(960.575,663.6)" id="use18" x="0" y="0" width="100%" height="100%"/>
    <use xlink:href="#g" transform="translate(1125.4,663.6)" id="use20" x="0" y="0" width="100%" height="100%"/>
    <use xlink:href="#h" transform="translate(963.05,695.6)" id="use22" x="0" y="0" width="100%" height="100%"/>
    <use xlink:href="#i" transform="translate(1125.525,695.6)" id="use24" x="0" y="0" width="100%" height="100%"/>
    <use xlink:href="#j" transform="translate(983.025,727.6)" id="use26" x="0" y="0" width="100%" height="100%"/>
    <use xlink:href="#k" transform="translate(1118.025,727.6)" id="use28" x="0" y="0" width="100%" height="100%"/>
    <use xlink:href="#l" transform="translate(985.525,759.6)" id="use30" x="0" y="0" width="100%" height="100%"/>
    <use xlink:href="#k" transform="translate(1118.025,759.6)" id="use32" x="0" y="0" width="100%" height="100%"/>
    <path d="M 790.02,576.84 H 721 v -2 h 69.02 z m 128.98,0 h -69.02 v -2 H 919 Z" id="path34" inkscape:connector-curvature="0"/>
    <path id="path36" d="" inkscape:connector-curvature="0" style="fill:#ffffff"/>
    <path d="m 732,585.84 h -2 v -20 h 2 z" id="path38" inkscape:connector-curvature="0"/>
    <path id="path40" d="" inkscape:connector-curvature="0" style="fill:#ffffff"/>
    <path d="m 742,585.84 h -2 v -20 h 2 z m 177,-19.11 -18.2,9.1 18.2,9.12 -0.9,1.78 -21.78,-10.9 21.8,-10.88 z" id="path42" inkscape:connector-curvature="0"/>
    <path d="m 891.7,566.35 2.76,1.42 2.16,2.16 1.42,2.75 0.5,3.16 -0.5,3.16 -1.42,2.75 -2.16,2.16 -2.75,1.43 -3.15,0.5 -3.16,-0.5 -2.75,-1.42 -2.17,-2.15 -1.42,-2.75 -0.5,-3.16 0.5,-3.16 1.42,-2.75 2.17,-2.16 2.74,-1.42 3.15,-0.5 z" id="path44" inkscape:connector-curvature="0" style="fill:#ffffff"/>
    <path d="m 892.03,565.4 3.03,1.55 2.38,2.4 1.56,3 0.54,3.33 -1,0.16 1,0.16 -0.54,3.32 -1.56,3.02 -2.38,2.4 -3.03,1.55 -3.48,0.55 -3.48,-0.56 -3.02,-1.57 -2.38,-2.4 -1.57,-3 -0.56,-3.5 0.56,-3.47 1.57,-3.02 2.38,-2.4 3.02,-1.55 3.48,-0.57 z m -6.32,1.9 -2.46,1.3 -1.94,1.93 -1.28,2.47 -0.45,2.84 0.45,2.84 1.28,2.47 1.94,1.94 2.47,1.27 2.85,0.46 2.85,-0.46 2.46,-1.28 1.95,-1.95 1.28,-2.47 0.46,-2.84 -0.46,-2.84 -1.27,-2.47 -1.94,-1.94 -2.46,-1.3 -2.85,-0.45 z" id="path46" inkscape:connector-curvature="0"/>
    <use xlink:href="#m" transform="translate(790.03,579.44)" id="use48" x="0" y="0" width="100%" height="100%"/>
    <path d="M 774.08,613.2 H 721 v -2 h 53.08 z m 144.92,0 h -53.08 v -2 H 919 Z" id="path50" inkscape:connector-curvature="0"/>
    <path d="m 743.68,612.2 -21.8,10.9 -0.88,-1.8 18.2,-9.1 -18.2,-9.1 0.9,-1.8 z" id="path52" inkscape:connector-curvature="0"/>
    <path d="m 754.6,602.7 2.75,1.43 2.17,2.16 1.42,2.74 0.5,3.16 -0.5,3.16 -1.42,2.75 -2.17,2.17 -2.74,1.42 -3.15,0.5 -3.16,-0.5 -2.76,-1.43 -2.16,-2.16 -1.42,-2.74 -0.5,-3.16 0.5,-3.16 1.42,-2.75 2.16,-2.17 2.75,-1.42 3.15,-0.5 z" id="path54" inkscape:connector-curvature="0" style="fill:#ffffff"/>
    <path d="m 754.93,601.75 3.02,1.56 2.38,2.4 1.57,3.02 0.53,3.32 -0.98,0.16 0.98,0.16 -0.53,3.32 -1.57,3.02 -2.38,2.4 -3.02,1.55 -3.48,0.56 -3.48,-0.55 -3.03,-1.56 -2.38,-2.4 -1.56,-3.02 -0.57,-3.48 0.57,-3.48 1.56,-3.02 2.38,-2.4 3.03,-1.55 3.48,-0.56 z m -6.33,1.92 -2.46,1.28 -1.95,1.94 -1.28,2.46 -0.46,2.84 0.46,2.84 1.27,2.47 1.94,1.95 2.46,1.28 2.85,0.46 2.84,-0.47 2.46,-1.28 1.94,-1.94 1.28,-2.46 0.45,-2.84 -0.45,-2.84 -1.28,-2.47 -1.94,-1.95 -2.47,-1.28 -2.85,-0.46 z m 170.4,-0.57 -18.2,9.1 18.2,9.1 -0.9,1.8 -21.78,-10.9 21.8,-10.9 z" id="path56" inkscape:connector-curvature="0"/>
    <path d="m 891.7,602.7 2.76,1.43 2.16,2.16 1.42,2.74 0.5,3.16 -0.5,3.16 -1.42,2.75 -2.16,2.17 -2.75,1.42 -3.15,0.5 -3.16,-0.5 -2.75,-1.43 -2.17,-2.16 -1.42,-2.74 -0.5,-3.16 0.5,-3.16 1.42,-2.75 2.17,-2.17 2.74,-1.42 3.15,-0.5 z" id="path58" inkscape:connector-curvature="0" style="fill:#ffffff"/>
    <path d="m 892.03,601.75 3.03,1.56 2.38,2.4 1.56,3.02 0.54,3.32 -1,0.16 1,0.16 -0.54,3.32 -1.56,3.02 -2.38,2.4 -3.03,1.55 -3.48,0.56 -3.48,-0.55 -3.02,-1.56 -2.38,-2.4 -1.57,-3.02 -0.56,-3.48 0.56,-3.48 1.57,-3.02 2.38,-2.4 3.02,-1.55 3.48,-0.56 z m -6.32,1.92 -2.46,1.28 -1.94,1.94 -1.28,2.46 -0.45,2.84 0.45,2.84 1.28,2.47 1.94,1.95 2.47,1.28 2.85,0.46 2.85,-0.47 2.46,-1.28 1.95,-1.94 1.28,-2.46 0.46,-2.84 -0.46,-2.84 -1.27,-2.47 -1.94,-1.95 -2.46,-1.28 -2.85,-0.46 z" id="path60" inkscape:connector-curvature="0"/>
    <use xlink:href="#n" transform="translate(774.08,615.8)" id="use62" x="0" y="0" width="100%" height="100%"/>
    <path d="M 805.5,700.84 H 721 v -2 h 84.5 z m 113.5,0 h -84.5 v -2 H 919 Z" id="path64" inkscape:connector-curvature="0"/>
    <path id="path66" d="" inkscape:connector-curvature="0" style="fill:#ffffff"/>
    <path d="m 742,709.84 h -2 v -20 h 2 z m 177,-19.11 -18.2,9.1 18.2,9.12 -0.9,1.78 -21.78,-10.9 21.8,-10.88 z" id="path68" inkscape:connector-curvature="0"/>
    <use xlink:href="#o" transform="translate(805.505,703.44)" id="use70" x="0" y="0" width="100%" height="100%"/>
    <path d="m 520,680 h 200 v 72 H 520 Z" id="path72" inkscape:connector-curvature="0" style="fill:#ffffff"/>
    <path d="m 520,680 h 200 v 40 H 520 Z" id="path74" inkscape:connector-curvature="0" style="fill:#cccccc"/>
    <path d="m 520,680 h 200 v 72 H 520 Z m 0,40 h 200 m -100,0 v 32" id="path76" inkscape:connector-curvature="0" style="fill:none;stroke:#000000;stroke-width:2"/>
    <use xlink:href="#p" transform="translate(597.025,703.6)" id="use78" x="0" y="0" width="100%" height="100%"/>
    <path d="m 520,556 h 200 v 72 H 520 Z" id="path80" inkscape:connector-curvature="0" style="fill:#ffffff"/>
    <path d="m 520,556 h 200 v 40 H 520 Z" id="path82" inkscape:connector-curvature="0" style="fill:#cccccc"/>
    <path d="m 520,556 h 200 v 72 H 520 Z m 0,40 h 200 m -100,0 v 32" id="path84" inkscape:connector-curvature="0" style="fill:none;stroke:#000000;stroke-width:2"/>
    <use xlink:href="#q" transform="translate(588.5,579.6)" id="use86" x="0" y="0" width="100%" height="100%"/>
    <defs id="defs312">
    <path d="m 100,-194 c 63,0 86,42 84,106 H 49 c 0,40 14,67 53,68 26,1 43,-12 49,-29 l 28,8 C 168,-13 142,4 102,4 44,4 14,-33 15,-96 c 1,-61 26,-98 85,-98 z m 52,81 c 6,-60 -76,-77 -97,-28 -3,7 -6,17 -6,28 h 103" id="r" inkscape:connector-curvature="0"/>
    <path d="M 108,0 H 70 L 1,-190 h 34 l 54,165 56,-165 h 34" id="s" inkscape:connector-curvature="0"/>
    <path d="m 117,-194 c 89,-4 53,116 60,194 h -32 v -121 c 0,-31 -8,-49 -39,-48 C 34,-167 62,-67 57,0 H 25 l -1,-190 h 30 c 1,10 -1,24 2,32 11,-22 29,-35 61,-36" id="t" inkscape:connector-curvature="0"/>
    <path d="m 59,-47 c -2,24 18,29 38,22 V -1 C 64,9 27,4 27,-40 V -167 H 5 v -23 h 24 l 9,-43 h 21 v 43 h 35 v 23 H 59 v 120" id="u" inkscape:connector-curvature="0"/>
    <g id="a">
        <use transform="scale(0.05)" xlink:href="#r" id="use92" x="0" y="0" width="100%" height="100%"/>
        <use transform="matrix(0.05,0,0,0.05,10,0)" xlink:href="#s" id="use94" x="0" y="0" width="100%" height="100%"/>
        <use transform="matrix(0.05,0,0,0.05,19,0)" xlink:href="#r" id="use96" x="0" y="0" width="100%" height="100%"/>
        <use transform="matrix(0.05,0,0,0.05,29,0)" xlink:href="#t" id="use98" x="0" y="0" width="100%" height="100%"/>
        <use transform="matrix(0.05,0,0,0.05,39,0)" xlink:href="#u" id="use100" x="0" y="0" width="100%" height="100%"/>
    </g>
    <path d="m 25,-224 v -37 h 50 v 37 z M 25,0 V -190 H 75 V 0 H 25" id="v" inkscape:connector-curvature="0"/>
    <path d="m 88,-194 c 31,-1 46,15 58,34 l -1,-101 h 50 l 1,261 h -48 c -2,-10 0,-23 -3,-31 C 134,-8 116,4 84,4 32,4 16,-41 15,-95 c 0,-56 19,-97 73,-99 z m 17,164 c 33,0 40,-30 41,-66 1,-37 -9,-64 -41,-64 -32,0 -38,30 -39,65 0,43 13,65 39,65" id="w" inkscape:connector-curvature="0"/>
    <g id="b">
        <use transform="scale(0.05)" xlink:href="#v" id="use105" x="0" y="0" width="100%" height="100%"/>
        <use transform="matrix(0.05,0,0,0.05,5,0)" xlink:href="#w" id="use107" x="0" y="0" width="100%" height="100%"/>
        <path d="m -0.9,0.97 h 17.75 v 1.9 H -0.9 Z" id="path109" inkscape:connector-curvature="0"/>
    </g>
    <path d="m 24,-231 v -30 h 32 v 30 z M 24,0 V -190 H 56 V 0 H 24" id="x" inkscape:connector-curvature="0"/>
    <g id="c">
        <use transform="scale(0.05)" xlink:href="#x" id="use113" x="0" y="0" width="100%" height="100%"/>
        <use transform="matrix(0.05,0,0,0.05,3.95,0)" xlink:href="#t" id="use115" x="0" y="0" width="100%" height="100%"/>
        <use transform="matrix(0.05,0,0,0.05,13.95,0)" xlink:href="#u" id="use117" x="0" y="0" width="100%" height="100%"/>
    </g>
    <path d="M 24,0 V -261 H 56 V 0 H 24" id="y" inkscape:connector-curvature="0"/>
    <g id="d">
        <use transform="scale(0.05)" xlink:href="#u" id="use121" x="0" y="0" width="100%" height="100%"/>
        <use transform="matrix(0.05,0,0,0.05,5,0)" xlink:href="#x" id="use123" x="0" y="0" width="100%" height="100%"/>
        <use transform="matrix(0.05,0,0,0.05,8.95,0)" xlink:href="#u" id="use125" x="0" y="0" width="100%" height="100%"/>
        <use transform="matrix(0.05,0,0,0.05,13.95,0)" xlink:href="#y" id="use127" x="0" y="0" width="100%" height="100%"/>
        <use transform="matrix(0.05,0,0,0.05,17.9,0)" xlink:href="#r" id="use129" x="0" y="0" width="100%" height="100%"/>
    </g>
    <path d="m 185,-189 c -5,-48 -123,-54 -124,2 14,75 158,14 163,119 C 227,10 103,19 49,-13 32,-23 21,-39 16,-59 l 33,-7 c 5,56 141,63 141,-1 0,-78 -155,-14 -162,-118 -5,-82 145,-84 179,-34 5,7 8,16 11,25" id="z" inkscape:connector-curvature="0"/>
    <path d="M 114,-163 C 36,-179 61,-72 57,0 H 25 l -1,-190 h 30 c 1,12 -1,29 2,39 6,-27 23,-49 58,-41 v 29" id="A" inkscape:connector-curvature="0"/>
    <path d="M 177,-190 C 167,-65 218,103 67,71 44,65 29,51 23,28 L 55,23 C 70,70 155,55 144,-5 V -35 C 133,-14 115,1 83,1 29,1 15,-40 15,-95 c 0,-56 16,-97 71,-98 29,-1 48,16 59,35 1,-10 0,-23 2,-32 z M 94,-22 c 36,0 50,-32 50,-73 0,-42 -14,-75 -50,-75 -39,0 -46,34 -46,75 0,41 6,73 46,73" id="B" inkscape:connector-curvature="0"/>
    <g id="e">
        <use transform="scale(0.05)" xlink:href="#z" id="use135" x="0" y="0" width="100%" height="100%"/>
        <use transform="matrix(0.05,0,0,0.05,12,0)" xlink:href="#u" id="use137" x="0" y="0" width="100%" height="100%"/>
        <use transform="matrix(0.05,0,0,0.05,17,0)" xlink:href="#A" id="use139" x="0" y="0" width="100%" height="100%"/>
        <use transform="matrix(0.05,0,0,0.05,22.95,0)" xlink:href="#x" id="use141" x="0" y="0" width="100%" height="100%"/>
        <use transform="matrix(0.05,0,0,0.05,26.9,0)" xlink:href="#t" id="use143" x="0" y="0" width="100%" height="100%"/>
        <use transform="matrix(0.05,0,0,0.05,36.9,0)" xlink:href="#B" id="use145" x="0" y="0" width="100%" height="100%"/>
    </g>
    <path d="m 210,-169 c -67,3 -38,105 -44,169 h -31 v -121 c 0,-29 -5,-50 -35,-48 C 34,-165 62,-65 56,0 H 25 l -1,-190 h 30 c 1,10 -1,24 2,32 10,-44 99,-50 107,0 11,-21 27,-35 58,-36 85,-2 47,119 55,194 h -31 v -121 c 0,-29 -5,-49 -35,-48" id="C" inkscape:connector-curvature="0"/>
    <path d="m 135,-143 c -3,-34 -86,-38 -87,0 15,53 115,12 119,90 4,78 -150,74 -157,8 l 28,-5 c 4,36 97,45 98,0 -10,-56 -113,-15 -118,-90 -4,-57 82,-63 122,-42 12,7 21,19 24,35" id="D" inkscape:connector-curvature="0"/>
    <path d="M 141,-36 C 126,-15 110,5 73,4 37,3 15,-17 15,-53 c -1,-64 63,-63 125,-63 3,-35 -9,-54 -41,-54 -24,1 -41,7 -42,31 l -33,-3 c 5,-37 33,-52 76,-52 45,0 72,20 72,64 v 82 c -1,20 7,32 28,27 V -1 C 169,8 139,-3 141,-36 Z M 48,-53 c 0,20 12,33 32,33 41,-3 63,-29 60,-74 -43,2 -92,-5 -92,41" id="E" inkscape:connector-curvature="0"/>
    <g id="f">
        <use transform="scale(0.05)" xlink:href="#u" id="use151" x="0" y="0" width="100%" height="100%"/>
        <use transform="matrix(0.05,0,0,0.05,5,0)" xlink:href="#x" id="use153" x="0" y="0" width="100%" height="100%"/>
        <use transform="matrix(0.05,0,0,0.05,8.95,0)" xlink:href="#C" id="use155" x="0" y="0" width="100%" height="100%"/>
        <use transform="matrix(0.05,0,0,0.05,23.9,0)" xlink:href="#r" id="use157" x="0" y="0" width="100%" height="100%"/>
        <use transform="matrix(0.05,0,0,0.05,33.9,0)" xlink:href="#D" id="use159" x="0" y="0" width="100%" height="100%"/>
        <use transform="matrix(0.05,0,0,0.05,42.9,0)" xlink:href="#u" id="use161" x="0" y="0" width="100%" height="100%"/>
        <use transform="matrix(0.05,0,0,0.05,47.9,0)" xlink:href="#E" id="use163" x="0" y="0" width="100%" height="100%"/>
        <use transform="matrix(0.05,0,0,0.05,57.9,0)" xlink:href="#A" id="use165" x="0" y="0" width="100%" height="100%"/>
        <use transform="matrix(0.05,0,0,0.05,63.85,0)" xlink:href="#u" id="use167" x="0" y="0" width="100%" height="100%"/>
    </g>
    <path d="M 127,-220 V 0 H 93 V -220 H 8 v -28 h 204 v 28 h -85" id="F" inkscape:connector-curvature="0"/>
    <g id="g">
        <use transform="scale(0.05)" xlink:href="#F" id="use171" x="0" y="0" width="100%" height="100%"/>
        <use transform="matrix(0.05,0,0,0.05,10.3,0)" xlink:href="#x" id="use173" x="0" y="0" width="100%" height="100%"/>
        <use transform="matrix(0.05,0,0,0.05,14.25,0)" xlink:href="#C" id="use175" x="0" y="0" width="100%" height="100%"/>
        <use transform="matrix(0.05,0,0,0.05,29.2,0)" xlink:href="#r" id="use177" x="0" y="0" width="100%" height="100%"/>
    </g>
    <path d="m 85,-194 c 31,0 48,13 60,33 l -1,-100 h 32 l 1,261 h -30 c -2,-10 0,-23 -3,-31 C 134,-8 116,4 85,4 32,4 16,-35 15,-94 c 0,-66 23,-100 70,-100 z m 9,24 c -40,0 -46,34 -46,75 0,40 6,74 45,74 42,0 51,-32 51,-76 0,-42 -9,-74 -50,-73" id="G" inkscape:connector-curvature="0"/>
    <g id="h">
        <use transform="scale(0.05)" xlink:href="#u" id="use181" x="0" y="0" width="100%" height="100%"/>
        <use transform="matrix(0.05,0,0,0.05,5,0)" xlink:href="#x" id="use183" x="0" y="0" width="100%" height="100%"/>
        <use transform="matrix(0.05,0,0,0.05,8.95,0)" xlink:href="#C" id="use185" x="0" y="0" width="100%" height="100%"/>
        <use transform="matrix(0.05,0,0,0.05,23.9,0)" xlink:href="#r" id="use187" x="0" y="0" width="100%" height="100%"/>
        <use transform="matrix(0.05,0,0,0.05,33.9,0)" xlink:href="#r" id="use189" x="0" y="0" width="100%" height="100%"/>
        <use transform="matrix(0.05,0,0,0.05,43.9,0)" xlink:href="#t" id="use191" x="0" y="0" width="100%" height="100%"/>
        <use transform="matrix(0.05,0,0,0.05,53.9,0)" xlink:href="#G" id="use193" x="0" y="0" width="100%" height="100%"/>
    </g>
    <path d="M 179,-190 93,31 C 79,59 56,82 12,73 V 49 C 51,55 65,29 76,-1 L 1,-190 h 34 l 57,156 54,-156 h 33" id="H" inkscape:connector-curvature="0"/>
    <path d="m 115,-194 c 55,1 70,41 70,98 C 185,-39 169,2 115,4 84,4 66,-9 55,-30 L 56,75 H 24 l -1,-265 h 31 l 2,30 c 10,-21 28,-34 59,-34 z m -8,174 c 40,0 45,-34 45,-75 0,-41 -6,-73 -45,-74 -42,0 -51,32 -51,76 0,43 10,73 51,73" id="I" inkscape:connector-curvature="0"/>
    <g id="i">
        <use transform="scale(0.05)" xlink:href="#F" id="use198" x="0" y="0" width="100%" height="100%"/>
        <use transform="matrix(0.05,0,0,0.05,9.95,0)" xlink:href="#H" id="use200" x="0" y="0" width="100%" height="100%"/>
        <use transform="matrix(0.05,0,0,0.05,18.95,0)" xlink:href="#I" id="use202" x="0" y="0" width="100%" height="100%"/>
        <use transform="matrix(0.05,0,0,0.05,28.95,0)" xlink:href="#r" id="use204" x="0" y="0" width="100%" height="100%"/>
    </g>
    <path d="m 100,-194 c 62,-1 85,37 85,99 1,63 -27,99 -86,99 -59,0 -83,-39 -84,-99 0,-66 28,-99 85,-99 z m -1,174 c 44,1 53,-31 53,-75 0,-43 -8,-75 -51,-75 -43,0 -53,32 -53,75 0,43 10,74 51,75" id="J" inkscape:connector-curvature="0"/>
    <g id="j">
        <use transform="scale(0.05)" xlink:href="#y" id="use208" x="0" y="0" width="100%" height="100%"/>
        <use transform="matrix(0.05,0,0,0.05,3.95,0)" xlink:href="#J" id="use210" x="0" y="0" width="100%" height="100%"/>
        <use transform="matrix(0.05,0,0,0.05,13.95,0)" xlink:href="#t" id="use212" x="0" y="0" width="100%" height="100%"/>
    </g>
    <path d="M 84,4 C -5,8 30,-112 23,-190 h 32 v 120 c 0,31 7,50 39,49 72,-2 45,-101 50,-169 h 31 l 1,190 h -30 c -1,-10 1,-25 -2,-33 -11,22 -28,36 -60,37" id="K" inkscape:connector-curvature="0"/>
    <path d="m 115,-194 c 53,0 69,39 70,98 C 185,-30 162,4 115,4 84,3 66,-7 56,-30 L 54,0 H 23 l 1,-261 h 32 v 101 c 10,-23 28,-34 59,-34 z m -8,174 c 40,0 45,-34 45,-75 0,-40 -5,-75 -45,-74 -42,0 -51,32 -51,76 0,43 10,73 51,73" id="L" inkscape:connector-curvature="0"/>
    <g id="k">
        <use transform="scale(0.05)" xlink:href="#G" id="use217" x="0" y="0" width="100%" height="100%"/>
        <use transform="matrix(0.05,0,0,0.05,10,0)" xlink:href="#J" id="use219" x="0" y="0" width="100%" height="100%"/>
        <use transform="matrix(0.05,0,0,0.05,20,0)" xlink:href="#K" id="use221" x="0" y="0" width="100%" height="100%"/>
        <use transform="matrix(0.05,0,0,0.05,30,0)" xlink:href="#L" id="use223" x="0" y="0" width="100%" height="100%"/>
        <use transform="matrix(0.05,0,0,0.05,40,0)" xlink:href="#y" id="use225" x="0" y="0" width="100%" height="100%"/>
        <use transform="matrix(0.05,0,0,0.05,43.95,0)" xlink:href="#r" id="use227" x="0" y="0" width="100%" height="100%"/>
    </g>
    <g id="l">
        <use transform="scale(0.05)" xlink:href="#y" id="use230" x="0" y="0" width="100%" height="100%"/>
        <use transform="matrix(0.05,0,0,0.05,3.95,0)" xlink:href="#E" id="use232" x="0" y="0" width="100%" height="100%"/>
        <use transform="matrix(0.05,0,0,0.05,13.95,0)" xlink:href="#u" id="use234" x="0" y="0" width="100%" height="100%"/>
    </g>
    <path d="m 96,-169 c -40,0 -48,33 -48,73 0,40 9,75 48,75 24,0 41,-14 43,-38 l 32,2 C 165,-20 140,4 97,4 38,4 21,-37 15,-95 c -10,-93 101,-131 147,-64 4,7 5,14 7,22 l -32,3 c -4,-21 -16,-35 -41,-35" id="M" inkscape:connector-curvature="0"/>
    <g id="m">
        <use transform="scale(0.05)" xlink:href="#M" id="use238" x="0" y="0" width="100%" height="100%"/>
        <use transform="matrix(0.05,0,0,0.05,9,0)" xlink:href="#A" id="use240" x="0" y="0" width="100%" height="100%"/>
        <use transform="matrix(0.05,0,0,0.05,14.95,0)" xlink:href="#r" id="use242" x="0" y="0" width="100%" height="100%"/>
        <use transform="matrix(0.05,0,0,0.05,24.95,0)" xlink:href="#E" id="use244" x="0" y="0" width="100%" height="100%"/>
        <use transform="matrix(0.05,0,0,0.05,34.95,0)" xlink:href="#u" id="use246" x="0" y="0" width="100%" height="100%"/>
        <use transform="matrix(0.05,0,0,0.05,39.95,0)" xlink:href="#r" id="use248" x="0" y="0" width="100%" height="100%"/>
        <use transform="matrix(0.05,0,0,0.05,49.95,0)" xlink:href="#G" id="use250" x="0" y="0" width="100%" height="100%"/>
    </g>
    <g id="n">
        <use transform="scale(0.05)" xlink:href="#I" id="use253" x="0" y="0" width="100%" height="100%"/>
        <use transform="matrix(0.05,0,0,0.05,10,0)" xlink:href="#E" id="use255" x="0" y="0" width="100%" height="100%"/>
        <use transform="matrix(0.05,0,0,0.05,20,0)" xlink:href="#A" id="use257" x="0" y="0" width="100%" height="100%"/>
        <use transform="matrix(0.05,0,0,0.05,25.95,0)" xlink:href="#u" id="use259" x="0" y="0" width="100%" height="100%"/>
        <use transform="matrix(0.05,0,0,0.05,30.95,0)" xlink:href="#x" id="use261" x="0" y="0" width="100%" height="100%"/>
        <use transform="matrix(0.05,0,0,0.05,34.9,0)" xlink:href="#M" id="use263" x="0" y="0" width="100%" height="100%"/>
        <use transform="matrix(0.05,0,0,0.05,43.9,0)" xlink:href="#x" id="use265" x="0" y="0" width="100%" height="100%"/>
        <use transform="matrix(0.05,0,0,0.05,47.85,0)" xlink:href="#I" id="use267" x="0" y="0" width="100%" height="100%"/>
        <use transform="matrix(0.05,0,0,0.05,57.85,0)" xlink:href="#E" id="use269" x="0" y="0" width="100%" height="100%"/>
        <use transform="matrix(0.05,0,0,0.05,67.85,0)" xlink:href="#u" id="use271" x="0" y="0" width="100%" height="100%"/>
        <use transform="matrix(0.05,0,0,0.05,72.85,0)" xlink:href="#r" id="use273" x="0" y="0" width="100%" height="100%"/>
        <use transform="matrix(0.05,0,0,0.05,82.85,0)" xlink:href="#D" id="use275" x="0" y="0" width="100%" height="100%"/>
    </g>
    <path d="M 106,-169 C 34,-169 62,-67 57,0 H 25 v -261 h 32 l -1,103 c 12,-21 28,-36 61,-36 89,0 53,116 60,194 h -32 v -121 c 2,-32 -8,-49 -39,-48" id="N" inkscape:connector-curvature="0"/>
    <g id="o">
        <use transform="scale(0.05)" xlink:href="#N" id="use279" x="0" y="0" width="100%" height="100%"/>
        <use transform="matrix(0.05,0,0,0.05,10,0)" xlink:href="#E" id="use281" x="0" y="0" width="100%" height="100%"/>
        <use transform="matrix(0.05,0,0,0.05,20,0)" xlink:href="#D" id="use283" x="0" y="0" width="100%" height="100%"/>
    </g>
    <g id="p">
        <use transform="scale(0.05)" xlink:href="#B" id="use286" x="0" y="0" width="100%" height="100%"/>
        <use transform="matrix(0.05,0,0,0.05,10,0)" xlink:href="#A" id="use288" x="0" y="0" width="100%" height="100%"/>
        <use transform="matrix(0.05,0,0,0.05,15.95,0)" xlink:href="#J" id="use290" x="0" y="0" width="100%" height="100%"/>
        <use transform="matrix(0.05,0,0,0.05,25.95,0)" xlink:href="#K" id="use292" x="0" y="0" width="100%" height="100%"/>
        <use transform="matrix(0.05,0,0,0.05,35.95,0)" xlink:href="#I" id="use294" x="0" y="0" width="100%" height="100%"/>
    </g>
    <g id="q">
        <use transform="scale(0.05)" xlink:href="#E" id="use297" x="0" y="0" width="100%" height="100%"/>
        <use transform="matrix(0.05,0,0,0.05,10,0)" xlink:href="#M" id="use299" x="0" y="0" width="100%" height="100%"/>
        <use transform="matrix(0.05,0,0,0.05,19,0)" xlink:href="#M" id="use301" x="0" y="0" width="100%" height="100%"/>
        <use transform="matrix(0.05,0,0,0.05,28,0)" xlink:href="#J" id="use303" x="0" y="0" width="100%" height="100%"/>
        <use transform="matrix(0.05,0,0,0.05,38,0)" xlink:href="#K" id="use305" x="0" y="0" width="100%" height="100%"/>
        <use transform="matrix(0.05,0,0,0.05,48,0)" xlink:href="#t" id="use307" x="0" y="0" width="100%" height="100%"/>
        <use transform="matrix(0.05,0,0,0.05,58,0)" xlink:href="#u" id="use309" x="0" y="0" width="100%" height="100%"/>
    </g>
    </defs>
</g>
</svg>
