<?xml version="1.0"?>
<svg xmlns="http://www.w3.org/2000/svg" xmlns:xlink="http://www.w3.org/1999/xlink" xmlns:lucid="lucid" width="660.71" height="712">
<g transform="translate(-540 -320)" lucid:page-tab-id=".bl43HyS0I8M">
    <path d="M560 520h620.7v296H560z" fill="#fff"/>
    <path d="M560 520h620.7v40H560z" fill="#ccc"/>
    <path d="M560 520h620.7v296H560zM560 560h620.7M870.35 560v256" stroke="#000" stroke-width="2" fill="none"/>
    <use xlink:href="#a" transform="matrix(1,0,0,1,570,520) translate(228.125 23.6)"/>
    <use xlink:href="#b" transform="matrix(1,0,0,1,565,562.5) translate(142.525 17.1)"/>
    <use xlink:href="#c" transform="matrix(1,0,0,1,875.3538676666667,562.5) translate(141.025 17.1)"/>
    <use xlink:href="#d" transform="matrix(1,0,0,1,565,594.5) translate(23.225000000000023 17.1)"/>
    <use xlink:href="#e" transform="matrix(1,0,0,1,875.3538676666667,594.5) translate(118.525 17.1)"/>
    <use xlink:href="#f" transform="matrix(1,0,0,1,565,626.5) translate(31.25000000000003 17.1)"/>
    <use xlink:href="#g" transform="matrix(1,0,0,1,875.3538676666667,626.5) translate(118.525 17.1)"/>
    <use xlink:href="#h" transform="matrix(1,0,0,1,565,658.5) translate(23.75000000000003 17.1)"/>
    <use xlink:href="#g" transform="matrix(1,0,0,1,875.3538676666667,658.5) translate(118.525 17.1)"/>
    <use xlink:href="#i" transform="matrix(1,0,0,1,565,690.5) translate(54.17500000000001 17.1)"/>
    <use xlink:href="#g" transform="matrix(1,0,0,1,875.3538676666667,690.5) translate(118.525 17.1)"/>
    <use xlink:href="#j" transform="matrix(1,0,0,1,565,722.5) translate(47.2 17.1)"/>
    <use xlink:href="#g" transform="matrix(1,0,0,1,875.3538676666667,722.5) translate(118.525 17.1)"/>
    <use xlink:href="#k" transform="matrix(1,0,0,1,565,754.5) translate(62.22500000000002 17.1)"/>
    <use xlink:href="#g" transform="matrix(1,0,0,1,875.3538676666667,754.5) translate(118.525 17.1)"/>
    <use xlink:href="#l" transform="matrix(1,0,0,1,565,786.5) translate(55.250000000000014 17.1)"/>
    <use xlink:href="#g" transform="matrix(1,0,0,1,875.3538676666667,786.5) translate(118.525 17.1)"/>
    <path d="M872.7 939h-2v-50.2h2zm-1.35-71.8h-2V817h2z"/>
    <path d="M881.25 817.9l-10.9 21.78-10.9-21.8 1.8-.88 9.1 18.2 9.1-18.2z"/>
    <path fill="#fff"/>
    <path d="M880.35 838.45h-20v-2h20z"/>
    <path fill="#fff"/>
    <path d="M881.7 930h-20v-2h20z"/>
    <path fill="#fff"/>
    <path d="M881.7 920h-20v-2h20z"/>
    <use xlink:href="#m" transform="matrix(1,0,0,1,829.5455343333334,867.2) translate(0.005000000000002558 14.4)"/>
    <use xlink:href="#n" transform="matrix(1,0,0,1,829.5455343333334,867.2) translate(67.95500000000001 14.4)"/>
    <path d="M871.35 519h-2v-42.2h2zm.65-63.8h-2V413h2z"/>
    <path d="M881.25 518.1l-1.8.9-9.1-18.2-9.1 18.2-1.8-.9 10.9-21.78z"/>
    <path fill="#fff"/>
    <path d="M881 424h-20v-2h20z"/>
    <path fill="#fff"/>
    <path d="M881 434h-20v-2h20z"/>
    <use xlink:href="#m" transform="matrix(1,0,0,1,829.2019338333333,455.2) translate(0.005000000000002558 14.4)"/>
    <use xlink:href="#n" transform="matrix(1,0,0,1,829.2019338333333,455.2) translate(67.95500000000001 14.4)"/>
    <path d="M770 940h200v72H770z" fill="#fff"/>
    <path d="M770 940h200v40H770z" fill="#ccc"/>
    <path d="M770 940h200v72H770zM770 980h200M870 980v32" stroke="#000" stroke-width="2" fill="none"/>
    <use xlink:href="#o" transform="matrix(1,0,0,1,780,940) translate(67.025 23.6)"/>
    <path d="M771 340h200v72H771z" fill="#fff"/>
    <path d="M771 340h200v40H771z" fill="#ccc"/>
    <path d="M771 340h200v72H771zM771 380h200M871 380v32" stroke="#000" stroke-width="2" fill="none"/>
    <g>
    <use xlink:href="#p" transform="matrix(1,0,0,1,781,340) translate(58.5 23.6)"/>
    </g>
    <defs>
    <path d="M177-190C167-65 218 103 67 71c-23-6-38-20-44-43l32-5c15 47 100 32 89-28v-30C133-14 115 1 83 1 29 1 15-40 15-95c0-56 16-97 71-98 29-1 48 16 59 35 1-10 0-23 2-32h30zM94-22c36 0 50-32 50-73 0-42-14-75-50-75-39 0-46 34-46 75s6 73 46 73" id="q"/>
    <path d="M114-163C36-179 61-72 57 0H25l-1-190h30c1 12-1 29 2 39 6-27 23-49 58-41v29" id="r"/>
    <path d="M100-194c62-1 85 37 85 99 1 63-27 99-86 99S16-35 15-95c0-66 28-99 85-99zM99-20c44 1 53-31 53-75 0-43-8-75-51-75s-53 32-53 75 10 74 51 75" id="s"/>
    <path d="M84 4C-5 8 30-112 23-190h32v120c0 31 7 50 39 49 72-2 45-101 50-169h31l1 190h-30c-1-10 1-25-2-33-11 22-28 36-60 37" id="t"/>
    <path d="M115-194c55 1 70 41 70 98S169 2 115 4C84 4 66-9 55-30l1 105H24l-1-265h31l2 30c10-21 28-34 59-34zm-8 174c40 0 45-34 45-75s-6-73-45-74c-42 0-51 32-51 76 0 43 10 73 51 73" id="u"/>
    <path d="M210-169c-67 3-38 105-44 169h-31v-121c0-29-5-50-35-48C34-165 62-65 56 0H25l-1-190h30c1 10-1 24 2 32 10-44 99-50 107 0 11-21 27-35 58-36 85-2 47 119 55 194h-31v-121c0-29-5-49-35-48" id="v"/>
    <path d="M100-194c63 0 86 42 84 106H49c0 40 14 67 53 68 26 1 43-12 49-29l28 8c-11 28-37 45-77 45C44 4 14-33 15-96c1-61 26-98 85-98zm52 81c6-60-76-77-97-28-3 7-6 17-6 28h103" id="w"/>
    <path d="M115-194c53 0 69 39 70 98 0 66-23 100-70 100C84 3 66-7 56-30L54 0H23l1-261h32v101c10-23 28-34 59-34zm-8 174c40 0 45-34 45-75 0-40-5-75-45-74-42 0-51 32-51 76 0 43 10 73 51 73" id="x"/>
    <path d="M135-143c-3-34-86-38-87 0 15 53 115 12 119 90S17 21 10-45l28-5c4 36 97 45 98 0-10-56-113-15-118-90-4-57 82-63 122-42 12 7 21 19 24 35" id="y"/>
    <path d="M106-169C34-169 62-67 57 0H25v-261h32l-1 103c12-21 28-36 61-36 89 0 53 116 60 194h-32v-121c2-32-8-49-39-48" id="z"/>
    <path d="M24-231v-30h32v30H24zM24 0v-190h32V0H24" id="A"/>
    <g id="a">
        <use transform="matrix(0.05,0,0,0.05,0,0)" xlink:href="#q"/>
        <use transform="matrix(0.05,0,0,0.05,10,0)" xlink:href="#r"/>
        <use transform="matrix(0.05,0,0,0.05,15.949999999999998,0)" xlink:href="#s"/>
        <use transform="matrix(0.05,0,0,0.05,25.950000000000003,0)" xlink:href="#t"/>
        <use transform="matrix(0.05,0,0,0.05,35.95,0)" xlink:href="#u"/>
        <use transform="matrix(0.05,0,0,0.05,45.95,0)" xlink:href="#v"/>
        <use transform="matrix(0.05,0,0,0.05,60.900000000000006,0)" xlink:href="#w"/>
        <use transform="matrix(0.05,0,0,0.05,70.9,0)" xlink:href="#v"/>
        <use transform="matrix(0.05,0,0,0.05,85.85000000000001,0)" xlink:href="#x"/>
        <use transform="matrix(0.05,0,0,0.05,95.85000000000001,0)" xlink:href="#w"/>
        <use transform="matrix(0.05,0,0,0.05,105.85000000000001,0)" xlink:href="#r"/>
        <use transform="matrix(0.05,0,0,0.05,111.80000000000001,0)" xlink:href="#y"/>
        <use transform="matrix(0.05,0,0,0.05,120.80000000000001,0)" xlink:href="#z"/>
        <use transform="matrix(0.05,0,0,0.05,130.8,0)" xlink:href="#A"/>
        <use transform="matrix(0.05,0,0,0.05,134.75,0)" xlink:href="#u"/>
    </g>
    <path d="M25-224v-37h50v37H25zM25 0v-190h50V0H25" id="B"/>
    <path d="M88-194c31-1 46 15 58 34l-1-101h50l1 261h-48c-2-10 0-23-3-31C134-8 116 4 84 4 32 4 16-41 15-95c0-56 19-97 73-99zm17 164c33 0 40-30 41-66 1-37-9-64-41-64s-38 30-39 65c0 43 13 65 39 65" id="C"/>
    <g id="b">
        <use transform="matrix(0.05,0,0,0.05,0,0)" xlink:href="#B"/>
        <use transform="matrix(0.05,0,0,0.05,5,0)" xlink:href="#C"/>
        <path d="M-.9.97h17.75v1.9H-.9z"/>
    </g>
    <path d="M117-194c89-4 53 116 60 194h-32v-121c0-31-8-49-39-48C34-167 62-67 57 0H25l-1-190h30c1 10-1 24 2 32 11-22 29-35 61-36" id="D"/>
    <path d="M59-47c-2 24 18 29 38 22v24C64 9 27 4 27-40v-127H5v-23h24l9-43h21v43h35v23H59v120" id="E"/>
    <g id="c">
        <use transform="matrix(0.05,0,0,0.05,0,0)" xlink:href="#A"/>
        <use transform="matrix(0.05,0,0,0.05,3.95,0)" xlink:href="#D"/>
        <use transform="matrix(0.05,0,0,0.05,13.949999999999998,0)" xlink:href="#E"/>
    </g>
    <path d="M16-82v-28h88v28H16" id="F"/>
    <path d="M96-169c-40 0-48 33-48 73s9 75 48 75c24 0 41-14 43-38l32 2c-6 37-31 61-74 61-59 0-76-41-82-99-10-93 101-131 147-64 4 7 5 14 7 22l-32 3c-4-21-16-35-41-35" id="G"/>
    <path d="M141-36C126-15 110 5 73 4 37 3 15-17 15-53c-1-64 63-63 125-63 3-35-9-54-41-54-24 1-41 7-42 31l-33-3c5-37 33-52 76-52 45 0 72 20 72 64v82c-1 20 7 32 28 27v20c-31 9-61-2-59-35zM48-53c0 20 12 33 32 33 41-3 63-29 60-74-43 2-92-5-92 41" id="H"/>
    <g id="d">
        <use transform="matrix(0.05,0,0,0.05,0,0)" xlink:href="#u"/>
        <use transform="matrix(0.05,0,0,0.05,10,0)" xlink:href="#w"/>
        <use transform="matrix(0.05,0,0,0.05,20,0)" xlink:href="#r"/>
        <use transform="matrix(0.05,0,0,0.05,25.950000000000003,0)" xlink:href="#v"/>
        <use transform="matrix(0.05,0,0,0.05,40.9,0)" xlink:href="#A"/>
        <use transform="matrix(0.05,0,0,0.05,44.85,0)" xlink:href="#y"/>
        <use transform="matrix(0.05,0,0,0.05,53.85,0)" xlink:href="#y"/>
        <use transform="matrix(0.05,0,0,0.05,62.85,0)" xlink:href="#A"/>
        <use transform="matrix(0.05,0,0,0.05,66.8,0)" xlink:href="#s"/>
        <use transform="matrix(0.05,0,0,0.05,76.8,0)" xlink:href="#D"/>
        <use transform="matrix(0.05,0,0,0.05,86.8,0)" xlink:href="#F"/>
        <use transform="matrix(0.05,0,0,0.05,92.75,0)" xlink:href="#G"/>
        <use transform="matrix(0.05,0,0,0.05,101.75,0)" xlink:href="#z"/>
        <use transform="matrix(0.05,0,0,0.05,111.75,0)" xlink:href="#H"/>
        <use transform="matrix(0.05,0,0,0.05,121.75,0)" xlink:href="#D"/>
        <use transform="matrix(0.05,0,0,0.05,131.75,0)" xlink:href="#q"/>
        <use transform="matrix(0.05,0,0,0.05,141.75,0)" xlink:href="#w"/>
        <use transform="matrix(0.05,0,0,0.05,151.75,0)" xlink:href="#F"/>
        <use transform="matrix(0.05,0,0,0.05,157.7,0)" xlink:href="#q"/>
        <use transform="matrix(0.05,0,0,0.05,167.7,0)" xlink:href="#r"/>
        <use transform="matrix(0.05,0,0,0.05,173.64999999999998,0)" xlink:href="#s"/>
        <use transform="matrix(0.05,0,0,0.05,183.64999999999998,0)" xlink:href="#t"/>
        <use transform="matrix(0.05,0,0,0.05,193.64999999999998,0)" xlink:href="#u"/>
        <use transform="matrix(0.05,0,0,0.05,203.64999999999998,0)" xlink:href="#F"/>
        <use transform="matrix(0.05,0,0,0.05,209.59999999999997,0)" xlink:href="#D"/>
        <use transform="matrix(0.05,0,0,0.05,219.59999999999997,0)" xlink:href="#H"/>
        <use transform="matrix(0.05,0,0,0.05,229.59999999999997,0)" xlink:href="#v"/>
        <use transform="matrix(0.05,0,0,0.05,244.54999999999995,0)" xlink:href="#w"/>
    </g>
    <path d="M24 0v-261h32V0H24" id="I"/>
    <g id="e">
        <use transform="matrix(0.05,0,0,0.05,0,0)" xlink:href="#x"/>
        <use transform="matrix(0.05,0,0,0.05,10,0)" xlink:href="#s"/>
        <use transform="matrix(0.05,0,0,0.05,20,0)" xlink:href="#s"/>
        <use transform="matrix(0.05,0,0,0.05,30,0)" xlink:href="#I"/>
        <use transform="matrix(0.05,0,0,0.05,33.95,0)" xlink:href="#w"/>
        <use transform="matrix(0.05,0,0,0.05,43.95,0)" xlink:href="#H"/>
        <use transform="matrix(0.05,0,0,0.05,53.95,0)" xlink:href="#D"/>
    </g>
    <g id="f">
        <use transform="matrix(0.05,0,0,0.05,0,0)" xlink:href="#u"/>
        <use transform="matrix(0.05,0,0,0.05,10,0)" xlink:href="#w"/>
        <use transform="matrix(0.05,0,0,0.05,20,0)" xlink:href="#r"/>
        <use transform="matrix(0.05,0,0,0.05,25.950000000000003,0)" xlink:href="#v"/>
        <use transform="matrix(0.05,0,0,0.05,40.9,0)" xlink:href="#A"/>
        <use transform="matrix(0.05,0,0,0.05,44.85,0)" xlink:href="#y"/>
        <use transform="matrix(0.05,0,0,0.05,53.85,0)" xlink:href="#y"/>
        <use transform="matrix(0.05,0,0,0.05,62.85,0)" xlink:href="#A"/>
        <use transform="matrix(0.05,0,0,0.05,66.8,0)" xlink:href="#s"/>
        <use transform="matrix(0.05,0,0,0.05,76.8,0)" xlink:href="#D"/>
        <use transform="matrix(0.05,0,0,0.05,86.8,0)" xlink:href="#F"/>
        <use transform="matrix(0.05,0,0,0.05,92.75,0)" xlink:href="#v"/>
        <use transform="matrix(0.05,0,0,0.05,107.7,0)" xlink:href="#H"/>
        <use transform="matrix(0.05,0,0,0.05,117.7,0)" xlink:href="#D"/>
        <use transform="matrix(0.05,0,0,0.05,127.7,0)" xlink:href="#H"/>
        <use transform="matrix(0.05,0,0,0.05,137.7,0)" xlink:href="#q"/>
        <use transform="matrix(0.05,0,0,0.05,147.7,0)" xlink:href="#w"/>
        <use transform="matrix(0.05,0,0,0.05,157.7,0)" xlink:href="#F"/>
        <use transform="matrix(0.05,0,0,0.05,163.64999999999998,0)" xlink:href="#v"/>
        <use transform="matrix(0.05,0,0,0.05,178.59999999999997,0)" xlink:href="#w"/>
        <use transform="matrix(0.05,0,0,0.05,188.59999999999997,0)" xlink:href="#v"/>
        <use transform="matrix(0.05,0,0,0.05,203.54999999999995,0)" xlink:href="#x"/>
        <use transform="matrix(0.05,0,0,0.05,213.54999999999995,0)" xlink:href="#w"/>
        <use transform="matrix(0.05,0,0,0.05,223.54999999999995,0)" xlink:href="#r"/>
        <use transform="matrix(0.05,0,0,0.05,229.49999999999991,0)" xlink:href="#y"/>
    </g>
    <g id="g">
        <use transform="matrix(0.05,0,0,0.05,0,0)" xlink:href="#x"/>
        <use transform="matrix(0.05,0,0,0.05,10,0)" xlink:href="#s"/>
        <use transform="matrix(0.05,0,0,0.05,20,0)" xlink:href="#s"/>
        <use transform="matrix(0.05,0,0,0.05,30,0)" xlink:href="#I"/>
        <use transform="matrix(0.05,0,0,0.05,33.95,0)" xlink:href="#w"/>
        <use transform="matrix(0.05,0,0,0.05,43.95,0)" xlink:href="#H"/>
        <use transform="matrix(0.05,0,0,0.05,53.95,0)" xlink:href="#D"/>
    </g>
    <g id="h">
        <use transform="matrix(0.05,0,0,0.05,0,0)" xlink:href="#u"/>
        <use transform="matrix(0.05,0,0,0.05,10,0)" xlink:href="#w"/>
        <use transform="matrix(0.05,0,0,0.05,20,0)" xlink:href="#r"/>
        <use transform="matrix(0.05,0,0,0.05,25.950000000000003,0)" xlink:href="#v"/>
        <use transform="matrix(0.05,0,0,0.05,40.9,0)" xlink:href="#A"/>
        <use transform="matrix(0.05,0,0,0.05,44.85,0)" xlink:href="#y"/>
        <use transform="matrix(0.05,0,0,0.05,53.85,0)" xlink:href="#y"/>
        <use transform="matrix(0.05,0,0,0.05,62.85,0)" xlink:href="#A"/>
        <use transform="matrix(0.05,0,0,0.05,66.8,0)" xlink:href="#s"/>
        <use transform="matrix(0.05,0,0,0.05,76.8,0)" xlink:href="#D"/>
        <use transform="matrix(0.05,0,0,0.05,86.8,0)" xlink:href="#F"/>
        <use transform="matrix(0.05,0,0,0.05,92.75,0)" xlink:href="#G"/>
        <use transform="matrix(0.05,0,0,0.05,101.75,0)" xlink:href="#z"/>
        <use transform="matrix(0.05,0,0,0.05,111.75,0)" xlink:href="#H"/>
        <use transform="matrix(0.05,0,0,0.05,121.75,0)" xlink:href="#D"/>
        <use transform="matrix(0.05,0,0,0.05,131.75,0)" xlink:href="#q"/>
        <use transform="matrix(0.05,0,0,0.05,141.75,0)" xlink:href="#w"/>
        <use transform="matrix(0.05,0,0,0.05,151.75,0)" xlink:href="#F"/>
        <use transform="matrix(0.05,0,0,0.05,157.7,0)" xlink:href="#u"/>
        <use transform="matrix(0.05,0,0,0.05,167.7,0)" xlink:href="#w"/>
        <use transform="matrix(0.05,0,0,0.05,177.7,0)" xlink:href="#r"/>
        <use transform="matrix(0.05,0,0,0.05,183.64999999999998,0)" xlink:href="#v"/>
        <use transform="matrix(0.05,0,0,0.05,198.59999999999997,0)" xlink:href="#A"/>
        <use transform="matrix(0.05,0,0,0.05,202.54999999999995,0)" xlink:href="#y"/>
        <use transform="matrix(0.05,0,0,0.05,211.54999999999995,0)" xlink:href="#y"/>
        <use transform="matrix(0.05,0,0,0.05,220.54999999999995,0)" xlink:href="#A"/>
        <use transform="matrix(0.05,0,0,0.05,224.49999999999991,0)" xlink:href="#s"/>
        <use transform="matrix(0.05,0,0,0.05,234.49999999999991,0)" xlink:href="#D"/>
        <use transform="matrix(0.05,0,0,0.05,244.49999999999991,0)" xlink:href="#y"/>
    </g>
    <path d="M108 0H70L1-190h34L89-25l56-165h34" id="J"/>
    <g id="i">
        <use transform="matrix(0.05,0,0,0.05,0,0)" xlink:href="#u"/>
        <use transform="matrix(0.05,0,0,0.05,10,0)" xlink:href="#w"/>
        <use transform="matrix(0.05,0,0,0.05,20,0)" xlink:href="#r"/>
        <use transform="matrix(0.05,0,0,0.05,25.950000000000003,0)" xlink:href="#v"/>
        <use transform="matrix(0.05,0,0,0.05,40.9,0)" xlink:href="#A"/>
        <use transform="matrix(0.05,0,0,0.05,44.85,0)" xlink:href="#y"/>
        <use transform="matrix(0.05,0,0,0.05,53.85,0)" xlink:href="#y"/>
        <use transform="matrix(0.05,0,0,0.05,62.85,0)" xlink:href="#A"/>
        <use transform="matrix(0.05,0,0,0.05,66.8,0)" xlink:href="#s"/>
        <use transform="matrix(0.05,0,0,0.05,76.8,0)" xlink:href="#D"/>
        <use transform="matrix(0.05,0,0,0.05,86.8,0)" xlink:href="#F"/>
        <use transform="matrix(0.05,0,0,0.05,92.75,0)" xlink:href="#G"/>
        <use transform="matrix(0.05,0,0,0.05,101.75,0)" xlink:href="#r"/>
        <use transform="matrix(0.05,0,0,0.05,107.7,0)" xlink:href="#w"/>
        <use transform="matrix(0.05,0,0,0.05,117.7,0)" xlink:href="#H"/>
        <use transform="matrix(0.05,0,0,0.05,127.7,0)" xlink:href="#E"/>
        <use transform="matrix(0.05,0,0,0.05,132.7,0)" xlink:href="#w"/>
        <use transform="matrix(0.05,0,0,0.05,142.7,0)" xlink:href="#F"/>
        <use transform="matrix(0.05,0,0,0.05,148.64999999999998,0)" xlink:href="#w"/>
        <use transform="matrix(0.05,0,0,0.05,158.64999999999998,0)" xlink:href="#J"/>
        <use transform="matrix(0.05,0,0,0.05,167.64999999999998,0)" xlink:href="#w"/>
        <use transform="matrix(0.05,0,0,0.05,177.64999999999998,0)" xlink:href="#D"/>
        <use transform="matrix(0.05,0,0,0.05,187.64999999999998,0)" xlink:href="#E"/>
    </g>
    <path d="M85-194c31 0 48 13 60 33l-1-100h32l1 261h-30c-2-10 0-23-3-31C134-8 116 4 85 4 32 4 16-35 15-94c0-66 23-100 70-100zm9 24c-40 0-46 34-46 75 0 40 6 74 45 74 42 0 51-32 51-76 0-42-9-74-50-73" id="K"/>
    <path d="M179-190L93 31C79 59 56 82 12 73V49c39 6 53-20 64-50L1-190h34L92-34l54-156h33" id="L"/>
    <g id="j">
        <use transform="matrix(0.05,0,0,0.05,0,0)" xlink:href="#u"/>
        <use transform="matrix(0.05,0,0,0.05,10,0)" xlink:href="#w"/>
        <use transform="matrix(0.05,0,0,0.05,20,0)" xlink:href="#r"/>
        <use transform="matrix(0.05,0,0,0.05,25.950000000000003,0)" xlink:href="#v"/>
        <use transform="matrix(0.05,0,0,0.05,40.9,0)" xlink:href="#A"/>
        <use transform="matrix(0.05,0,0,0.05,44.85,0)" xlink:href="#y"/>
        <use transform="matrix(0.05,0,0,0.05,53.85,0)" xlink:href="#y"/>
        <use transform="matrix(0.05,0,0,0.05,62.85,0)" xlink:href="#A"/>
        <use transform="matrix(0.05,0,0,0.05,66.8,0)" xlink:href="#s"/>
        <use transform="matrix(0.05,0,0,0.05,76.8,0)" xlink:href="#D"/>
        <use transform="matrix(0.05,0,0,0.05,86.8,0)" xlink:href="#F"/>
        <use transform="matrix(0.05,0,0,0.05,92.75,0)" xlink:href="#w"/>
        <use transform="matrix(0.05,0,0,0.05,102.75,0)" xlink:href="#K"/>
        <use transform="matrix(0.05,0,0,0.05,112.75,0)" xlink:href="#A"/>
        <use transform="matrix(0.05,0,0,0.05,116.7,0)" xlink:href="#E"/>
        <use transform="matrix(0.05,0,0,0.05,121.7,0)" xlink:href="#F"/>
        <use transform="matrix(0.05,0,0,0.05,127.65,0)" xlink:href="#H"/>
        <use transform="matrix(0.05,0,0,0.05,137.65,0)" xlink:href="#D"/>
        <use transform="matrix(0.05,0,0,0.05,147.65,0)" xlink:href="#L"/>
        <use transform="matrix(0.05,0,0,0.05,156.65,0)" xlink:href="#F"/>
        <use transform="matrix(0.05,0,0,0.05,162.6,0)" xlink:href="#w"/>
        <use transform="matrix(0.05,0,0,0.05,172.6,0)" xlink:href="#J"/>
        <use transform="matrix(0.05,0,0,0.05,181.6,0)" xlink:href="#w"/>
        <use transform="matrix(0.05,0,0,0.05,191.6,0)" xlink:href="#D"/>
        <use transform="matrix(0.05,0,0,0.05,201.6,0)" xlink:href="#E"/>
    </g>
    <g id="k">
        <use transform="matrix(0.05,0,0,0.05,0,0)" xlink:href="#u"/>
        <use transform="matrix(0.05,0,0,0.05,10,0)" xlink:href="#w"/>
        <use transform="matrix(0.05,0,0,0.05,20,0)" xlink:href="#r"/>
        <use transform="matrix(0.05,0,0,0.05,25.950000000000003,0)" xlink:href="#v"/>
        <use transform="matrix(0.05,0,0,0.05,40.9,0)" xlink:href="#A"/>
        <use transform="matrix(0.05,0,0,0.05,44.85,0)" xlink:href="#y"/>
        <use transform="matrix(0.05,0,0,0.05,53.85,0)" xlink:href="#y"/>
        <use transform="matrix(0.05,0,0,0.05,62.85,0)" xlink:href="#A"/>
        <use transform="matrix(0.05,0,0,0.05,66.8,0)" xlink:href="#s"/>
        <use transform="matrix(0.05,0,0,0.05,76.8,0)" xlink:href="#D"/>
        <use transform="matrix(0.05,0,0,0.05,86.8,0)" xlink:href="#F"/>
        <use transform="matrix(0.05,0,0,0.05,92.75,0)" xlink:href="#G"/>
        <use transform="matrix(0.05,0,0,0.05,101.75,0)" xlink:href="#r"/>
        <use transform="matrix(0.05,0,0,0.05,107.7,0)" xlink:href="#w"/>
        <use transform="matrix(0.05,0,0,0.05,117.7,0)" xlink:href="#H"/>
        <use transform="matrix(0.05,0,0,0.05,127.7,0)" xlink:href="#E"/>
        <use transform="matrix(0.05,0,0,0.05,132.7,0)" xlink:href="#w"/>
        <use transform="matrix(0.05,0,0,0.05,142.7,0)" xlink:href="#F"/>
        <use transform="matrix(0.05,0,0,0.05,148.64999999999998,0)" xlink:href="#u"/>
        <use transform="matrix(0.05,0,0,0.05,158.64999999999998,0)" xlink:href="#s"/>
        <use transform="matrix(0.05,0,0,0.05,168.64999999999998,0)" xlink:href="#I"/>
        <use transform="matrix(0.05,0,0,0.05,172.59999999999997,0)" xlink:href="#I"/>
    </g>
    <g id="l">
        <use transform="matrix(0.05,0,0,0.05,0,0)" xlink:href="#u"/>
        <use transform="matrix(0.05,0,0,0.05,10,0)" xlink:href="#w"/>
        <use transform="matrix(0.05,0,0,0.05,20,0)" xlink:href="#r"/>
        <use transform="matrix(0.05,0,0,0.05,25.950000000000003,0)" xlink:href="#v"/>
        <use transform="matrix(0.05,0,0,0.05,40.9,0)" xlink:href="#A"/>
        <use transform="matrix(0.05,0,0,0.05,44.85,0)" xlink:href="#y"/>
        <use transform="matrix(0.05,0,0,0.05,53.85,0)" xlink:href="#y"/>
        <use transform="matrix(0.05,0,0,0.05,62.85,0)" xlink:href="#A"/>
        <use transform="matrix(0.05,0,0,0.05,66.8,0)" xlink:href="#s"/>
        <use transform="matrix(0.05,0,0,0.05,76.8,0)" xlink:href="#D"/>
        <use transform="matrix(0.05,0,0,0.05,86.8,0)" xlink:href="#F"/>
        <use transform="matrix(0.05,0,0,0.05,92.75,0)" xlink:href="#w"/>
        <use transform="matrix(0.05,0,0,0.05,102.75,0)" xlink:href="#K"/>
        <use transform="matrix(0.05,0,0,0.05,112.75,0)" xlink:href="#A"/>
        <use transform="matrix(0.05,0,0,0.05,116.7,0)" xlink:href="#E"/>
        <use transform="matrix(0.05,0,0,0.05,121.7,0)" xlink:href="#F"/>
        <use transform="matrix(0.05,0,0,0.05,127.65,0)" xlink:href="#H"/>
        <use transform="matrix(0.05,0,0,0.05,137.65,0)" xlink:href="#D"/>
        <use transform="matrix(0.05,0,0,0.05,147.65,0)" xlink:href="#L"/>
        <use transform="matrix(0.05,0,0,0.05,156.65,0)" xlink:href="#F"/>
        <use transform="matrix(0.05,0,0,0.05,162.6,0)" xlink:href="#u"/>
        <use transform="matrix(0.05,0,0,0.05,172.6,0)" xlink:href="#s"/>
        <use transform="matrix(0.05,0,0,0.05,182.6,0)" xlink:href="#I"/>
        <use transform="matrix(0.05,0,0,0.05,186.54999999999998,0)" xlink:href="#I"/>
    </g>
    <g id="m">
        <use transform="matrix(0.05,0,0,0.05,0,0)" xlink:href="#x"/>
        <use transform="matrix(0.05,0,0,0.05,10,0)" xlink:href="#w"/>
        <use transform="matrix(0.05,0,0,0.05,20,0)" xlink:href="#I"/>
        <use transform="matrix(0.05,0,0,0.05,23.95,0)" xlink:href="#s"/>
        <use transform="matrix(0.05,0,0,0.05,33.95,0)" xlink:href="#D"/>
        <use transform="matrix(0.05,0,0,0.05,43.95,0)" xlink:href="#q"/>
        <use transform="matrix(0.05,0,0,0.05,53.95,0)" xlink:href="#y"/>
    </g>
    <g id="n">
        <use transform="matrix(0.05,0,0,0.05,0,0)" xlink:href="#E"/>
        <use transform="matrix(0.05,0,0,0.05,5,0)" xlink:href="#s"/>
    </g>
    <g id="o">
        <use transform="matrix(0.05,0,0,0.05,0,0)" xlink:href="#q"/>
        <use transform="matrix(0.05,0,0,0.05,10,0)" xlink:href="#r"/>
        <use transform="matrix(0.05,0,0,0.05,15.949999999999998,0)" xlink:href="#s"/>
        <use transform="matrix(0.05,0,0,0.05,25.950000000000003,0)" xlink:href="#t"/>
        <use transform="matrix(0.05,0,0,0.05,35.95,0)" xlink:href="#u"/>
    </g>
    <g id="p">
        <use transform="matrix(0.05,0,0,0.05,0,0)" xlink:href="#H"/>
        <use transform="matrix(0.05,0,0,0.05,10,0)" xlink:href="#G"/>
        <use transform="matrix(0.05,0,0,0.05,19,0)" xlink:href="#G"/>
        <use transform="matrix(0.05,0,0,0.05,28,0)" xlink:href="#s"/>
        <use transform="matrix(0.05,0,0,0.05,38,0)" xlink:href="#t"/>
        <use transform="matrix(0.05,0,0,0.05,48,0)" xlink:href="#D"/>
        <use transform="matrix(0.05,0,0,0.05,58,0)" xlink:href="#E"/>
    </g>
    </defs>
</g>
</svg>
