<?xml version="1.0"?>
<svg xmlns="http://www.w3.org/2000/svg" xmlns:xlink="http://www.w3.org/1999/xlink" xmlns:lucid="lucid" width="660.71" height="938.5">
<g transform="translate(-600 -200)" lucid:page-tab-id="h-k4kq4XdDj0">
    <path d="M620 406.5h300v296H620z" fill="#fff"/>
    <path d="M620 406.5h300v40H620z" fill="#ccc"/>
    <path d="M620 406.5h300v296H620zM620 446.5h300M770 446.5v256" stroke="#000" stroke-width="2" fill="none"/>
    <use xlink:href="#a" transform="matrix(1,0,0,1,630,406.5) translate(108.5 23.6)"/>
    <use xlink:href="#b" transform="matrix(1,0,0,1,625,449) translate(62.025 17.1)"/>
    <use xlink:href="#c" transform="matrix(1,0,0,1,775,449) translate(60.525 17.1)"/>
    <use xlink:href="#d" transform="matrix(1,0,0,1,625,481) translate(30.049999999999997 17.1)"/>
    <use xlink:href="#e" transform="matrix(1,0,0,1,775,481) translate(46.55 17.1)"/>
    <use xlink:href="#f" transform="matrix(1,0,0,1,625,513) translate(48.574999999999996 17.1)"/>
    <use xlink:href="#e" transform="matrix(1,0,0,1,775,513) translate(46.55 17.1)"/>
    <use xlink:href="#g" transform="matrix(1,0,0,1,625,545) translate(17.574999999999996 17.1)"/>
    <use xlink:href="#e" transform="matrix(1,0,0,1,775,545) translate(46.55 17.1)"/>
    <use xlink:href="#h" transform="matrix(1,0,0,1,625,577) translate(12.049999999999997 17.1)"/>
    <use xlink:href="#e" transform="matrix(1,0,0,1,775,577) translate(46.55 17.1)"/>
    <use xlink:href="#i" transform="matrix(1,0,0,1,625,609) translate(58.025 17.1)"/>
    <use xlink:href="#j" transform="matrix(1,0,0,1,775,609) translate(43.025 17.1)"/>
    <use xlink:href="#k" transform="matrix(1,0,0,1,625,641) translate(60.525 17.1)"/>
    <use xlink:href="#j" transform="matrix(1,0,0,1,775,641) translate(43.025 17.1)"/>
    <use xlink:href="#l" transform="matrix(1,0,0,1,625,673) translate(13.100000000000001 17.1)"/>
    <use xlink:href="#m" transform="matrix(1,0,0,1,775,673) translate(50.4 17.1)"/>
    <path d="M735 846.5h300v72H735z" fill="#fff"/>
    <path d="M735 846.5h300v40H735z" fill="#ccc"/>
    <path d="M735 846.5h300v72H735zM735 886.5h300M885 886.5v32" stroke="#000" stroke-width="2" fill="none"/>
    <use xlink:href="#n" transform="matrix(1,0,0,1,745,846.5) translate(118 23.6)"/>
    <path d="M620 1046.5h300v72H620z" fill="#fff"/>
    <path d="M620 1046.5h300v40H620z" fill="#ccc"/>
    <path d="M620 1046.5h300v72H620zM620 1086.5h300M770 1086.5v32" stroke="#000" stroke-width="2" fill="none"/>
    <use xlink:href="#o" transform="matrix(1,0,0,1,630,1046.5) translate(126.05 23.6)"/>
    <path d="M680 946.5h300v72H680z" fill="#fff"/>
    <path d="M680 946.5h300v40H680z" fill="#ccc"/>
    <path d="M680 946.5h300v72H680zM680 986.5h300M830 986.5v32" stroke="#000" stroke-width="2" fill="none"/>
    <use xlink:href="#p" transform="matrix(1,0,0,1,690,946.5) translate(101.575 23.6)"/>
    <path d="M620 220h620.7v72H620z" fill="#fff"/>
    <path d="M620 220h620.7v40H620z" fill="#ccc"/>
    <path d="M620 220h620.7v72H620zM620 260h620.7M930.35 260v32" stroke="#000" stroke-width="2" fill="none"/>
    <use xlink:href="#q" transform="matrix(1,0,0,1,630,220) translate(228.125 23.6)"/>
    <path d="M813.57 405.5h-2v-45.45h2zm.7-67.05h-2V293h2z"/>
    <path fill="#fff"/>
    <path d="M822.57 396.5h-20v-2h20z"/>
    <path fill="#fff"/>
    <path d="M822.57 386.5h-20v-2h20zM824.18 293.9l-10.9 21.78-10.9-21.8 1.8-.88 9.1 18.2 9.1-18.2z"/>
    <use xlink:href="#r" transform="matrix(1,0,0,1,771.4538179414093,338.45) translate(0.005000000000002558 14.4)"/>
    <use xlink:href="#s" transform="matrix(1,0,0,1,771.4538179414093,338.45) translate(67.95500000000001 14.4)"/>
    <path d="M1041 489.66l-1.1 3.4-2.92 2.13-1.9.3H921v-2h113.92l1.26-.2 2-1.46.82-2.5V471.3h2zm-2.43-63.05l2.12 2.92.3 1.9v18.28h-2v-18.12l-.2-1.26-1.46-2-2.5-.82H921v-2h114.16z"/>
    <path d="M943.68 426.5l-21.8 10.9-.88-1.8 18.2-9.1-18.2-9.1.9-1.8z"/>
    <path d="M954.6 417l2.75 1.43 2.17 2.16 1.42 2.74.5 3.16-.5 3.16-1.42 2.75-2.17 2.17-2.74 1.42-3.15.5-3.16-.5-2.76-1.43-2.16-2.16-1.42-2.74-.5-3.16.5-3.16 1.42-2.75 2.16-2.17 2.75-1.42 3.15-.5z" fill="#fff"/>
    <path d="M954.93 416.05l3.02 1.56 2.38 2.4 1.57 3.02.53 3.32-.98.16.98.16-.53 3.32-1.57 3.02-2.38 2.4-3.02 1.55-3.48.56-3.48-.55-3.03-1.56-2.38-2.4-1.56-3.02-.57-3.48.57-3.48 1.56-3.02 2.38-2.4 3.03-1.55 3.48-.56zm-6.33 1.92l-2.46 1.28-1.95 1.94-1.28 2.46-.46 2.84.46 2.84 1.27 2.47 1.94 1.95 2.46 1.28 2.85.46 2.84-.47 2.46-1.28 1.94-1.94 1.28-2.46.45-2.84-.45-2.84-1.28-2.47-1.94-1.95-2.47-1.28-2.85-.46zM943.68 494.5l-21.8 10.9-.88-1.8 18.2-9.1-18.2-9.1.9-1.8z"/>
    <path d="M954.6 485l2.75 1.43 2.17 2.16 1.42 2.74.5 3.16-.5 3.16-1.42 2.75-2.17 2.17-2.74 1.42-3.15.5-3.16-.5-2.76-1.43-2.16-2.16-1.42-2.74-.5-3.16.5-3.16 1.42-2.75 2.16-2.17 2.75-1.42 3.15-.5z" fill="#fff"/>
    <path d="M954.93 484.05l3.02 1.56 2.38 2.4 1.57 3.02.53 3.32-.98.16.98.16-.53 3.32-1.57 3.02-2.38 2.4-3.02 1.55-3.48.56-3.48-.55-3.03-1.56-2.38-2.4-1.56-3.02-.57-3.48.57-3.48 1.56-3.02 2.38-2.4 3.03-1.55 3.48-.56zm-6.33 1.92l-2.46 1.28-1.95 1.94-1.28 2.46-.46 2.84.46 2.84 1.27 2.47 1.94 1.95 2.46 1.28 2.85.46 2.84-.47 2.46-1.28 1.94-1.94 1.28-2.46.45-2.84-.45-2.84-1.28-2.47-1.94-1.95-2.47-1.28-2.85-.46z"/>
    <use xlink:href="#t" transform="matrix(1,0,0,1,992.025,449.7) translate(0.005000000000002558 14.4)"/>
    <use xlink:href="#u" transform="matrix(1,0,0,1,992.025,449.7) translate(17.955000000000002 14.4)"/>
    <use xlink:href="#v" transform="matrix(1,0,0,1,992.025,449.7) translate(80.95500000000001 14.4)"/>
    <path d="M1041 585.66l-1.1 3.4-2.92 2.13-1.9.3H921v-2h113.92l1.26-.2 2-1.46.82-2.5V569.3h2zm-2.43-59.05l2.12 2.92.3 1.9v16.28h-2v-16.12l-.2-1.26-1.46-2-2.5-.82H921v-2h114.16z"/>
    <path d="M943.68 526.5l-21.8 10.9-.88-1.8 18.2-9.1-18.2-9.1.9-1.8z"/>
    <path d="M954.6 517l2.75 1.43 2.17 2.16 1.42 2.74.5 3.16-.5 3.16-1.42 2.75-2.17 2.17-2.74 1.42-3.15.5-3.16-.5-2.76-1.43-2.16-2.16-1.42-2.74-.5-3.16.5-3.16 1.42-2.75 2.16-2.17 2.75-1.42 3.15-.5z" fill="#fff"/>
    <path d="M954.93 516.05l3.02 1.56 2.38 2.4 1.57 3.02.53 3.32-.98.16.98.16-.53 3.32-1.57 3.02-2.38 2.4-3.02 1.55-3.48.56-3.48-.55-3.03-1.56-2.38-2.4-1.56-3.02-.57-3.48.57-3.48 1.56-3.02 2.38-2.4 3.03-1.55 3.48-.56zm-6.33 1.92l-2.46 1.28-1.95 1.94-1.28 2.46-.46 2.84.46 2.84 1.27 2.47 1.94 1.95 2.46 1.28 2.85.46 2.84-.47 2.46-1.28 1.94-1.94 1.28-2.46.45-2.84-.45-2.84-1.28-2.47-1.94-1.95-2.47-1.28-2.85-.46zM943.68 590.5l-21.8 10.9-.88-1.8 18.2-9.1-18.2-9.1.9-1.8z"/>
    <path d="M954.6 581l2.75 1.43 2.17 2.16 1.42 2.74.5 3.16-.5 3.16-1.42 2.75-2.17 2.17-2.74 1.42-3.15.5-3.16-.5-2.76-1.43-2.16-2.16-1.42-2.74-.5-3.16.5-3.16 1.42-2.75 2.16-2.17 2.75-1.42 3.15-.5z" fill="#fff"/>
    <path d="M954.93 580.05l3.02 1.56 2.38 2.4 1.57 3.02.53 3.32-.98.16.98.16-.53 3.32-1.57 3.02-2.38 2.4-3.02 1.55-3.48.56-3.48-.55-3.03-1.56-2.38-2.4-1.56-3.02-.57-3.48.57-3.48 1.56-3.02 2.38-2.4 3.03-1.55 3.48-.56zm-6.33 1.92l-2.46 1.28-1.95 1.94-1.28 2.46-.46 2.84.46 2.84 1.27 2.47 1.94 1.95 2.46 1.28 2.85.46 2.84-.47 2.46-1.28 1.94-1.94 1.28-2.46.45-2.84-.45-2.84-1.28-2.47-1.94-1.95-2.47-1.28-2.85-.46z"/>
    <use xlink:href="#w" transform="matrix(1,0,0,1,1014.525,547.7) translate(0.004999999999999005 14.4)"/>
    <path d="M701.73 945.5h-2V835.3h2zm0-131.8h-2V703.5h2z"/>
    <path d="M711.62 704.4l-10.9 21.78-10.9-21.8 1.8-.88 9.1 18.2 9.1-18.2z"/>
    <path d="M703.9 724.46l2.73 1.42 2.17 2.16 1.42 2.75.5 3.15-.5 3.16-1.42 2.75-2.17 2.17-2.74 1.42-3.17.5-3.16-.5-2.75-1.42-2.16-2.17-1.42-2.74-.5-3.15.5-3.16 1.42-2.76 2.16-2.16 2.75-1.42 3.16-.5z" fill="#fff"/>
    <path d="M704.2 723.5l3.03 1.56 2.4 2.38 1.55 3.03.54 3.32-1 .15 1 .16-.54 3.33-1.56 3.02-2.4 2.38-3 1.57-3.5.56-3.47-.56-3.02-1.57-2.4-2.38-1.55-3.02-.56-3.48.56-3.48 1.56-3.03 2.4-2.38 3-1.56 3.5-.57zm-6.32 1.92l-2.46 1.27-1.95 1.94-1.27 2.46-.46 2.85.46 2.84 1.27 2.46 1.95 1.94 2.46 1.28 2.85.45 2.84-.45 2.47-1.28 1.94-1.94 1.28-2.47.46-2.85-.46-2.85-1.28-2.46-1.94-1.95-2.47-1.28-2.84-.46zM711.62 944.6l-1.8.9-9.1-18.2-9.1 18.2-1.8-.9 10.9-21.78z"/>
    <path d="M703.9 905.56l2.73 1.42 2.17 2.17 1.42 2.74.5 3.15-.5 3.16-1.42 2.76-2.17 2.16-2.74 1.42-3.17.5-3.16-.5-2.75-1.42-2.16-2.16-1.42-2.75-.5-3.15.5-3.16 1.42-2.75 2.16-2.17 2.75-1.42 3.16-.5z" fill="#fff"/>
    <path d="M704.2 904.6l3.03 1.56 2.4 2.4 1.55 3 .54 3.33-1 .15 1 .16-.54 3.33-1.56 3.02-2.4 2.4-3 1.55-3.5.56-3.47-.56-3.02-1.56-2.4-2.4-1.55-3-.56-3.5.56-3.47 1.56-3.02 2.4-2.4 3-1.55 3.5-.56zm-6.32 1.92l-2.46 1.28-1.95 1.94-1.27 2.47-.46 2.85.46 2.85 1.27 2.46 1.95 1.95 2.46 1.28 2.85.46 2.84-.46 2.47-1.27 1.94-1.94 1.28-2.46.46-2.85-.46-2.84-1.28-2.46-1.94-1.94-2.47-1.28-2.84-.46z"/>
    <use xlink:href="#x" transform="matrix(1,0,0,1,666.2534079084286,813.7) translate(0.005000000000002558 14.4)"/>
    <use xlink:href="#y" transform="matrix(1,0,0,1,666.2534079084286,813.7) translate(48.005 14.4)"/>
    <path d="M644.8 1045.5h-2V885.3h2zm0-181.8h-2V703.5h2z"/>
    <path fill="#fff"/>
    <path d="M653.8 714.5h-20v-2h20z"/>
    <path fill="#fff"/>
    <path d="M653.8 724.5h-20v-2h20zM654.68 1044.6l-1.8.9-9.1-18.2-9.1 18.2-1.8-.9 10.9-21.78z"/>
    <path d="M646.95 1005.56l2.74 1.42 2.16 2.17 1.42 2.74.5 3.15-.5 3.16-1.42 2.76-2.17 2.16-2.75 1.42-3.16.5-3.17-.5-2.75-1.42-2.16-2.16-1.42-2.75-.5-3.15.5-3.16 1.42-2.75 2.16-2.17 2.75-1.42 3.16-.5z" fill="#fff"/>
    <path d="M647.26 1004.6l3.03 1.56 2.37 2.4 1.57 3 .53 3.33-.98.15.97.16-.53 3.33-1.57 3.02-2.38 2.4-3.04 1.55-3.47.56-3.5-.56-3.02-1.56-2.38-2.4-1.57-3-.56-3.5.56-3.47 1.57-3.02 2.38-2.4 3.03-1.55 3.5-.56zm-6.32 1.92l-2.46 1.28-1.95 1.94-1.27 2.47-.46 2.85.46 2.85 1.27 2.46 1.95 1.95 2.46 1.28 2.85.46 2.83-.46 2.47-1.27 1.94-1.94 1.28-2.46.45-2.85-.45-2.84-1.28-2.46-1.94-1.94-2.47-1.28-2.84-.46z"/>
    <use xlink:href="#z" transform="matrix(1,0,0,1,613.8116666666667,863.7) translate(0.004999999999999005 14.4)"/>
    <path d="M771 845.5h-2v-60.2h2zm0-81.8h-2v-60.2h2z"/>
    <path fill="#fff"/>
    <path d="M780 714.5h-20v-2h20z"/>
    <path fill="#fff"/>
    <path d="M780 724.5h-20v-2h20zM780.9 844.6l-1.8.9-9.1-18.2-9.1 18.2-1.8-.9 10.9-21.78z"/>
    <path d="M773.16 805.56l2.75 1.42 2.17 2.17 1.42 2.74.5 3.15-.5 3.16-1.43 2.76-2.16 2.16-2.74 1.42-3.16.5-3.16-.5-2.75-1.42-2.17-2.16-1.42-2.75-.5-3.15.5-3.16 1.43-2.75 2.16-2.17 2.74-1.42 3.16-.5z" fill="#fff"/>
    <path d="M773.48 804.6l3.02 1.56 2.4 2.4 1.55 3 .54 3.33-1 .15 1 .16-.55 3.33-1.56 3.02-2.4 2.4-3.02 1.55-3.48.56-3.48-.56-3.02-1.56-2.4-2.4-1.55-3-.56-3.5.55-3.47 1.56-3.02 2.4-2.4 3.02-1.55 3.48-.56zm-6.32 1.92l-2.47 1.28-1.95 1.94-1.28 2.47-.46 2.85.47 2.85 1.28 2.46 1.94 1.95 2.46 1.28 2.84.46 2.84-.46 2.47-1.27 1.95-1.94 1.28-2.46.46-2.85-.47-2.84-1.28-2.46-1.94-1.94-2.46-1.28-2.84-.46z"/>
    <use xlink:href="#z" transform="matrix(1,0,0,1,740.025,763.7) translate(0.004999999999999005 14.4)"/>
    <path d="M881.2 845.5h-2v-60.2h2zm0-81.8h-2v-60.2h2z"/>
    <path d="M891.1 704.4l-10.9 21.78-10.88-21.8 1.8-.88 9.1 18.2 9.1-18.2z"/>
    <path d="M883.37 724.46l2.75 1.42 2.16 2.16 1.42 2.75.5 3.15-.5 3.16-1.42 2.75-2.16 2.17-2.75 1.42-3.16.5-3.15-.5-2.74-1.42-2.16-2.17-1.42-2.74-.5-3.15.5-3.16 1.42-2.76 2.17-2.16 2.75-1.42 3.16-.5z" fill="#fff"/>
    <path d="M883.7 723.5l3.02 1.56 2.38 2.38 1.56 3.03.54 3.32-1 .15 1 .16-.54 3.33-1.56 3.02-2.38 2.38-3.03 1.57-3.5.56-3.47-.56-3.02-1.57-2.37-2.38-1.57-3.02-.56-3.48.56-3.48 1.57-3.03 2.38-2.38 3.03-1.56 3.48-.57zm-6.33 1.92l-2.47 1.27-1.94 1.94-1.28 2.46-.45 2.85.45 2.84 1.28 2.46 1.94 1.94 2.47 1.28 2.84.45 2.86-.45 2.46-1.28 1.95-1.94 1.27-2.47.46-2.85-.46-2.85-1.27-2.46-1.95-1.95-2.46-1.28-2.85-.46zM891.1 844.6l-1.78.9-9.1-18.2-9.1 18.2-1.8-.9 10.9-21.78z"/>
    <path d="M883.37 805.56l2.75 1.42 2.16 2.17 1.42 2.74.5 3.15-.5 3.16-1.42 2.76-2.16 2.16-2.75 1.42-3.16.5-3.15-.5-2.74-1.42-2.16-2.16-1.42-2.75-.5-3.15.5-3.16 1.42-2.75 2.17-2.17 2.75-1.42 3.16-.5z" fill="#fff"/>
    <path d="M883.7 804.6l3.02 1.56 2.38 2.4 1.56 3 .54 3.33-1 .15 1 .16-.54 3.33-1.56 3.02-2.38 2.4-3.03 1.55-3.5.56-3.47-.56-3.02-1.56-2.37-2.4-1.57-3-.56-3.5.56-3.47 1.57-3.02 2.38-2.4 3.03-1.55 3.48-.56zm-6.33 1.92l-2.47 1.28-1.94 1.94-1.28 2.47-.45 2.85.45 2.85 1.28 2.46 1.94 1.95 2.47 1.28 2.84.46 2.86-.46 2.46-1.27 1.95-1.94 1.27-2.46.46-2.85-.46-2.84-1.27-2.46-1.95-1.94-2.46-1.28-2.85-.46z"/>
    <g>
    <use xlink:href="#A" transform="matrix(1,0,0,1,824.812602517752,763.7) translate(0.005000000000002558 14.4)"/>
    <use xlink:href="#B" transform="matrix(1,0,0,1,824.812602517752,763.7) translate(96.85499999999999 14.4)"/>
    </g>
    <defs>
    <path d="M141-36C126-15 110 5 73 4 37 3 15-17 15-53c-1-64 63-63 125-63 3-35-9-54-41-54-24 1-41 7-42 31l-33-3c5-37 33-52 76-52 45 0 72 20 72 64v82c-1 20 7 32 28 27v20c-31 9-61-2-59-35zM48-53c0 20 12 33 32 33 41-3 63-29 60-74-43 2-92-5-92 41" id="C"/>
    <path d="M96-169c-40 0-48 33-48 73s9 75 48 75c24 0 41-14 43-38l32 2c-6 37-31 61-74 61-59 0-76-41-82-99-10-93 101-131 147-64 4 7 5 14 7 22l-32 3c-4-21-16-35-41-35" id="D"/>
    <path d="M100-194c62-1 85 37 85 99 1 63-27 99-86 99S16-35 15-95c0-66 28-99 85-99zM99-20c44 1 53-31 53-75 0-43-8-75-51-75s-53 32-53 75 10 74 51 75" id="E"/>
    <path d="M84 4C-5 8 30-112 23-190h32v120c0 31 7 50 39 49 72-2 45-101 50-169h31l1 190h-30c-1-10 1-25-2-33-11 22-28 36-60 37" id="F"/>
    <path d="M117-194c89-4 53 116 60 194h-32v-121c0-31-8-49-39-48C34-167 62-67 57 0H25l-1-190h30c1 10-1 24 2 32 11-22 29-35 61-36" id="G"/>
    <path d="M59-47c-2 24 18 29 38 22v24C64 9 27 4 27-40v-127H5v-23h24l9-43h21v43h35v23H59v120" id="H"/>
    <g id="a">
        <use transform="matrix(0.05,0,0,0.05,0,0)" xlink:href="#C"/>
        <use transform="matrix(0.05,0,0,0.05,10,0)" xlink:href="#D"/>
        <use transform="matrix(0.05,0,0,0.05,19,0)" xlink:href="#D"/>
        <use transform="matrix(0.05,0,0,0.05,28,0)" xlink:href="#E"/>
        <use transform="matrix(0.05,0,0,0.05,38,0)" xlink:href="#F"/>
        <use transform="matrix(0.05,0,0,0.05,48,0)" xlink:href="#G"/>
        <use transform="matrix(0.05,0,0,0.05,58,0)" xlink:href="#H"/>
    </g>
    <path d="M25-224v-37h50v37H25zM25 0v-190h50V0H25" id="I"/>
    <path d="M88-194c31-1 46 15 58 34l-1-101h50l1 261h-48c-2-10 0-23-3-31C134-8 116 4 84 4 32 4 16-41 15-95c0-56 19-97 73-99zm17 164c33 0 40-30 41-66 1-37-9-64-41-64s-38 30-39 65c0 43 13 65 39 65" id="J"/>
    <g id="b">
        <use transform="matrix(0.05,0,0,0.05,0,0)" xlink:href="#I"/>
        <use transform="matrix(0.05,0,0,0.05,5,0)" xlink:href="#J"/>
        <path d="M-.9.97h17.75v1.9H-.9z"/>
    </g>
    <path d="M24-231v-30h32v30H24zM24 0v-190h32V0H24" id="K"/>
    <g id="c">
        <use transform="matrix(0.05,0,0,0.05,0,0)" xlink:href="#K"/>
        <use transform="matrix(0.05,0,0,0.05,3.95,0)" xlink:href="#G"/>
        <use transform="matrix(0.05,0,0,0.05,13.949999999999998,0)" xlink:href="#H"/>
    </g>
    <path d="M135-143c-3-34-86-38-87 0 15 53 115 12 119 90S17 21 10-45l28-5c4 36 97 45 98 0-10-56-113-15-118-90-4-57 82-63 122-42 12 7 21 19 24 35" id="L"/>
    <path d="M100-194c63 0 86 42 84 106H49c0 40 14 67 53 68 26 1 43-12 49-29l28 8c-11 28-37 45-77 45C44 4 14-33 15-96c1-61 26-98 85-98zm52 81c6-60-76-77-97-28-3 7-6 17-6 28h103" id="M"/>
    <path d="M114-163C36-179 61-72 57 0H25l-1-190h30c1 12-1 29 2 39 6-27 23-49 58-41v29" id="N"/>
    <path d="M210-169c-67 3-38 105-44 169h-31v-121c0-29-5-50-35-48C34-165 62-65 56 0H25l-1-190h30c1 10-1 24 2 32 10-44 99-50 107 0 11-21 27-35 58-36 85-2 47 119 55 194h-31v-121c0-29-5-49-35-48" id="O"/>
    <g id="d">
        <use transform="matrix(0.05,0,0,0.05,0,0)" xlink:href="#F"/>
        <use transform="matrix(0.05,0,0,0.05,10,0)" xlink:href="#L"/>
        <use transform="matrix(0.05,0,0,0.05,19,0)" xlink:href="#M"/>
        <use transform="matrix(0.05,0,0,0.05,29,0)" xlink:href="#N"/>
        <use transform="matrix(0.05,0,0,0.05,34.95,0)" xlink:href="#G"/>
        <use transform="matrix(0.05,0,0,0.05,44.95,0)" xlink:href="#C"/>
        <use transform="matrix(0.05,0,0,0.05,54.95,0)" xlink:href="#O"/>
        <use transform="matrix(0.05,0,0,0.05,69.9,0)" xlink:href="#M"/>
    </g>
    <path d="M185-189c-5-48-123-54-124 2 14 75 158 14 163 119 3 78-121 87-175 55-17-10-28-26-33-46l33-7c5 56 141 63 141-1 0-78-155-14-162-118-5-82 145-84 179-34 5 7 8 16 11 25" id="P"/>
    <path d="M177-190C167-65 218 103 67 71c-23-6-38-20-44-43l32-5c15 47 100 32 89-28v-30C133-14 115 1 83 1 29 1 15-40 15-95c0-56 16-97 71-98 29-1 48 16 59 35 1-10 0-23 2-32h30zM94-22c36 0 50-32 50-73 0-42-14-75-50-75-39 0-46 34-46 75s6 73 46 73" id="Q"/>
    <g id="e">
        <use transform="matrix(0.05,0,0,0.05,0,0)" xlink:href="#P"/>
        <use transform="matrix(0.05,0,0,0.05,12,0)" xlink:href="#H"/>
        <use transform="matrix(0.05,0,0,0.05,17,0)" xlink:href="#N"/>
        <use transform="matrix(0.05,0,0,0.05,22.95,0)" xlink:href="#K"/>
        <use transform="matrix(0.05,0,0,0.05,26.899999999999995,0)" xlink:href="#G"/>
        <use transform="matrix(0.05,0,0,0.05,36.9,0)" xlink:href="#Q"/>
    </g>
    <path d="M24 0v-261h32V0H24" id="R"/>
    <g id="f">
        <use transform="matrix(0.05,0,0,0.05,0,0)" xlink:href="#M"/>
        <use transform="matrix(0.05,0,0,0.05,10,0)" xlink:href="#O"/>
        <use transform="matrix(0.05,0,0,0.05,24.950000000000003,0)" xlink:href="#C"/>
        <use transform="matrix(0.05,0,0,0.05,34.95,0)" xlink:href="#K"/>
        <use transform="matrix(0.05,0,0,0.05,38.900000000000006,0)" xlink:href="#R"/>
    </g>
    <path d="M115-194c55 1 70 41 70 98S169 2 115 4C84 4 66-9 55-30l1 105H24l-1-265h31l2 30c10-21 28-34 59-34zm-8 174c40 0 45-34 45-75s-6-73-45-74c-42 0-51 32-51 76 0 43 10 73 51 73" id="S"/>
    <path d="M206 0h-36l-40-164L89 0H53L-1-190h32L70-26l43-164h34l41 164 42-164h31" id="T"/>
    <path d="M85-194c31 0 48 13 60 33l-1-100h32l1 261h-30c-2-10 0-23-3-31C134-8 116 4 85 4 32 4 16-35 15-94c0-66 23-100 70-100zm9 24c-40 0-46 34-46 75 0 40 6 74 45 74 42 0 51-32 51-76 0-42-9-74-50-73" id="U"/>
    <g id="g">
        <use transform="matrix(0.05,0,0,0.05,0,0)" xlink:href="#S"/>
        <use transform="matrix(0.05,0,0,0.05,10,0)" xlink:href="#C"/>
        <use transform="matrix(0.05,0,0,0.05,20,0)" xlink:href="#L"/>
        <use transform="matrix(0.05,0,0,0.05,29,0)" xlink:href="#L"/>
        <use transform="matrix(0.05,0,0,0.05,38,0)" xlink:href="#T"/>
        <use transform="matrix(0.05,0,0,0.05,50.95,0)" xlink:href="#E"/>
        <use transform="matrix(0.05,0,0,0.05,60.95,0)" xlink:href="#N"/>
        <use transform="matrix(0.05,0,0,0.05,66.9,0)" xlink:href="#U"/>
        <use transform="matrix(0.05,0,0,0.05,76.9,0)" xlink:href="#L"/>
        <use transform="matrix(0.05,0,0,0.05,85.9,0)" xlink:href="#C"/>
        <use transform="matrix(0.05,0,0,0.05,95.9,0)" xlink:href="#R"/>
        <use transform="matrix(0.05,0,0,0.05,99.85000000000001,0)" xlink:href="#H"/>
    </g>
    <path d="M106-169C34-169 62-67 57 0H25v-261h32l-1 103c12-21 28-36 61-36 89 0 53 116 60 194h-32v-121c2-32-8-49-39-48" id="V"/>
    <g id="h">
        <use transform="matrix(0.05,0,0,0.05,0,0)" xlink:href="#S"/>
        <use transform="matrix(0.05,0,0,0.05,10,0)" xlink:href="#C"/>
        <use transform="matrix(0.05,0,0,0.05,20,0)" xlink:href="#L"/>
        <use transform="matrix(0.05,0,0,0.05,29,0)" xlink:href="#L"/>
        <use transform="matrix(0.05,0,0,0.05,38,0)" xlink:href="#T"/>
        <use transform="matrix(0.05,0,0,0.05,50.95,0)" xlink:href="#E"/>
        <use transform="matrix(0.05,0,0,0.05,60.95,0)" xlink:href="#N"/>
        <use transform="matrix(0.05,0,0,0.05,66.9,0)" xlink:href="#U"/>
        <use transform="matrix(0.05,0,0,0.05,76.9,0)" xlink:href="#V"/>
        <use transform="matrix(0.05,0,0,0.05,86.9,0)" xlink:href="#C"/>
        <use transform="matrix(0.05,0,0,0.05,96.9,0)" xlink:href="#L"/>
        <use transform="matrix(0.05,0,0,0.05,105.9,0)" xlink:href="#V"/>
    </g>
    <g id="i">
        <use transform="matrix(0.05,0,0,0.05,0,0)" xlink:href="#R"/>
        <use transform="matrix(0.05,0,0,0.05,3.95,0)" xlink:href="#E"/>
        <use transform="matrix(0.05,0,0,0.05,13.949999999999998,0)" xlink:href="#G"/>
    </g>
    <path d="M115-194c53 0 69 39 70 98 0 66-23 100-70 100C84 3 66-7 56-30L54 0H23l1-261h32v101c10-23 28-34 59-34zm-8 174c40 0 45-34 45-75 0-40-5-75-45-74-42 0-51 32-51 76 0 43 10 73 51 73" id="W"/>
    <g id="j">
        <use transform="matrix(0.05,0,0,0.05,0,0)" xlink:href="#U"/>
        <use transform="matrix(0.05,0,0,0.05,10,0)" xlink:href="#E"/>
        <use transform="matrix(0.05,0,0,0.05,20,0)" xlink:href="#F"/>
        <use transform="matrix(0.05,0,0,0.05,30,0)" xlink:href="#W"/>
        <use transform="matrix(0.05,0,0,0.05,40,0)" xlink:href="#R"/>
        <use transform="matrix(0.05,0,0,0.05,43.95,0)" xlink:href="#M"/>
    </g>
    <g id="k">
        <use transform="matrix(0.05,0,0,0.05,0,0)" xlink:href="#R"/>
        <use transform="matrix(0.05,0,0,0.05,3.95,0)" xlink:href="#C"/>
        <use transform="matrix(0.05,0,0,0.05,13.949999999999998,0)" xlink:href="#H"/>
    </g>
    <g id="l">
        <use transform="matrix(0.05,0,0,0.05,0,0)" xlink:href="#H"/>
        <use transform="matrix(0.05,0,0,0.05,5,0)" xlink:href="#K"/>
        <use transform="matrix(0.05,0,0,0.05,8.95,0)" xlink:href="#O"/>
        <use transform="matrix(0.05,0,0,0.05,23.9,0)" xlink:href="#M"/>
        <use transform="matrix(0.05,0,0,0.05,33.9,0)" xlink:href="#O"/>
        <use transform="matrix(0.05,0,0,0.05,48.85,0)" xlink:href="#M"/>
        <use transform="matrix(0.05,0,0,0.05,58.85,0)" xlink:href="#C"/>
        <use transform="matrix(0.05,0,0,0.05,68.85,0)" xlink:href="#L"/>
        <use transform="matrix(0.05,0,0,0.05,77.85,0)" xlink:href="#F"/>
        <use transform="matrix(0.05,0,0,0.05,87.85,0)" xlink:href="#N"/>
        <use transform="matrix(0.05,0,0,0.05,93.8,0)" xlink:href="#M"/>
        <use transform="matrix(0.05,0,0,0.05,103.80000000000001,0)" xlink:href="#U"/>
    </g>
    <path d="M127-220V0H93v-220H8v-28h204v28h-85" id="X"/>
    <g id="m">
        <use transform="matrix(0.05,0,0,0.05,0,0)" xlink:href="#X"/>
        <use transform="matrix(0.05,0,0,0.05,10.3,0)" xlink:href="#K"/>
        <use transform="matrix(0.05,0,0,0.05,14.25,0)" xlink:href="#O"/>
        <use transform="matrix(0.05,0,0,0.05,29.200000000000003,0)" xlink:href="#M"/>
    </g>
    <path d="M108 0H70L1-190h34L89-25l56-165h34" id="Y"/>
    <g id="n">
        <use transform="matrix(0.05,0,0,0.05,0,0)" xlink:href="#M"/>
        <use transform="matrix(0.05,0,0,0.05,10,0)" xlink:href="#Y"/>
        <use transform="matrix(0.05,0,0,0.05,19,0)" xlink:href="#M"/>
        <use transform="matrix(0.05,0,0,0.05,29,0)" xlink:href="#G"/>
        <use transform="matrix(0.05,0,0,0.05,39,0)" xlink:href="#H"/>
    </g>
    <g id="o">
        <use transform="matrix(0.05,0,0,0.05,0,0)" xlink:href="#S"/>
        <use transform="matrix(0.05,0,0,0.05,10,0)" xlink:href="#E"/>
        <use transform="matrix(0.05,0,0,0.05,20,0)" xlink:href="#R"/>
        <use transform="matrix(0.05,0,0,0.05,23.95,0)" xlink:href="#R"/>
    </g>
    <g id="p">
        <use transform="matrix(0.05,0,0,0.05,0,0)" xlink:href="#S"/>
        <use transform="matrix(0.05,0,0,0.05,10,0)" xlink:href="#E"/>
        <use transform="matrix(0.05,0,0,0.05,20,0)" xlink:href="#R"/>
        <use transform="matrix(0.05,0,0,0.05,23.95,0)" xlink:href="#R"/>
        <use transform="matrix(0.05,0,0,0.05,27.899999999999995,0)" xlink:href="#E"/>
        <use transform="matrix(0.05,0,0,0.05,37.9,0)" xlink:href="#S"/>
        <use transform="matrix(0.05,0,0,0.05,47.9,0)" xlink:href="#H"/>
        <use transform="matrix(0.05,0,0,0.05,52.900000000000006,0)" xlink:href="#K"/>
        <use transform="matrix(0.05,0,0,0.05,56.85,0)" xlink:href="#E"/>
        <use transform="matrix(0.05,0,0,0.05,66.85,0)" xlink:href="#G"/>
    </g>
    <g id="q">
        <use transform="matrix(0.05,0,0,0.05,0,0)" xlink:href="#Q"/>
        <use transform="matrix(0.05,0,0,0.05,10,0)" xlink:href="#N"/>
        <use transform="matrix(0.05,0,0,0.05,15.949999999999998,0)" xlink:href="#E"/>
        <use transform="matrix(0.05,0,0,0.05,25.950000000000003,0)" xlink:href="#F"/>
        <use transform="matrix(0.05,0,0,0.05,35.95,0)" xlink:href="#S"/>
        <use transform="matrix(0.05,0,0,0.05,45.95,0)" xlink:href="#O"/>
        <use transform="matrix(0.05,0,0,0.05,60.900000000000006,0)" xlink:href="#M"/>
        <use transform="matrix(0.05,0,0,0.05,70.9,0)" xlink:href="#O"/>
        <use transform="matrix(0.05,0,0,0.05,85.85000000000001,0)" xlink:href="#W"/>
        <use transform="matrix(0.05,0,0,0.05,95.85000000000001,0)" xlink:href="#M"/>
        <use transform="matrix(0.05,0,0,0.05,105.85000000000001,0)" xlink:href="#N"/>
        <use transform="matrix(0.05,0,0,0.05,111.80000000000001,0)" xlink:href="#L"/>
        <use transform="matrix(0.05,0,0,0.05,120.80000000000001,0)" xlink:href="#V"/>
        <use transform="matrix(0.05,0,0,0.05,130.8,0)" xlink:href="#K"/>
        <use transform="matrix(0.05,0,0,0.05,134.75,0)" xlink:href="#S"/>
    </g>
    <g id="r">
        <use transform="matrix(0.05,0,0,0.05,0,0)" xlink:href="#W"/>
        <use transform="matrix(0.05,0,0,0.05,10,0)" xlink:href="#M"/>
        <use transform="matrix(0.05,0,0,0.05,20,0)" xlink:href="#R"/>
        <use transform="matrix(0.05,0,0,0.05,23.95,0)" xlink:href="#E"/>
        <use transform="matrix(0.05,0,0,0.05,33.95,0)" xlink:href="#G"/>
        <use transform="matrix(0.05,0,0,0.05,43.95,0)" xlink:href="#Q"/>
        <use transform="matrix(0.05,0,0,0.05,53.95,0)" xlink:href="#L"/>
    </g>
    <g id="s">
        <use transform="matrix(0.05,0,0,0.05,0,0)" xlink:href="#H"/>
        <use transform="matrix(0.05,0,0,0.05,5,0)" xlink:href="#E"/>
    </g>
    <g id="t">
        <use transform="matrix(0.05,0,0,0.05,0,0)" xlink:href="#K"/>
        <use transform="matrix(0.05,0,0,0.05,3.95,0)" xlink:href="#L"/>
    </g>
    <g id="u">
        <use transform="matrix(0.05,0,0,0.05,0,0)" xlink:href="#D"/>
        <use transform="matrix(0.05,0,0,0.05,9,0)" xlink:href="#E"/>
        <use transform="matrix(0.05,0,0,0.05,19,0)" xlink:href="#G"/>
        <use transform="matrix(0.05,0,0,0.05,29,0)" xlink:href="#H"/>
        <use transform="matrix(0.05,0,0,0.05,34,0)" xlink:href="#C"/>
        <use transform="matrix(0.05,0,0,0.05,44,0)" xlink:href="#D"/>
        <use transform="matrix(0.05,0,0,0.05,53,0)" xlink:href="#H"/>
    </g>
    <path d="M101-234c-31-9-42 10-38 44h38v23H63V0H32v-167H5v-23h27c-7-52 17-82 69-68v24" id="Z"/>
    <g id="v">
        <use transform="matrix(0.05,0,0,0.05,0,0)" xlink:href="#E"/>
        <use transform="matrix(0.05,0,0,0.05,10,0)" xlink:href="#Z"/>
    </g>
    <path d="M143 0L79-87 56-68V0H24v-261h32v163l83-92h37l-77 82L181 0h-38" id="aa"/>
    <g id="w">
        <use transform="matrix(0.05,0,0,0.05,0,0)" xlink:href="#W"/>
        <use transform="matrix(0.05,0,0,0.05,10,0)" xlink:href="#R"/>
        <use transform="matrix(0.05,0,0,0.05,13.949999999999998,0)" xlink:href="#E"/>
        <use transform="matrix(0.05,0,0,0.05,23.95,0)" xlink:href="#D"/>
        <use transform="matrix(0.05,0,0,0.05,32.95,0)" xlink:href="#aa"/>
        <use transform="matrix(0.05,0,0,0.05,41.95,0)" xlink:href="#L"/>
    </g>
    <g id="x">
        <use transform="matrix(0.05,0,0,0.05,0,0)" xlink:href="#Y"/>
        <use transform="matrix(0.05,0,0,0.05,9,0)" xlink:href="#E"/>
        <use transform="matrix(0.05,0,0,0.05,19,0)" xlink:href="#H"/>
        <use transform="matrix(0.05,0,0,0.05,24,0)" xlink:href="#M"/>
        <use transform="matrix(0.05,0,0,0.05,34,0)" xlink:href="#L"/>
    </g>
    <g id="y">
        <use transform="matrix(0.05,0,0,0.05,0,0)" xlink:href="#Z"/>
        <use transform="matrix(0.05,0,0,0.05,5,0)" xlink:href="#E"/>
        <use transform="matrix(0.05,0,0,0.05,15,0)" xlink:href="#N"/>
    </g>
    <g id="z">
        <use transform="matrix(0.05,0,0,0.05,0,0)" xlink:href="#D"/>
        <use transform="matrix(0.05,0,0,0.05,9,0)" xlink:href="#N"/>
        <use transform="matrix(0.05,0,0,0.05,14.949999999999998,0)" xlink:href="#M"/>
        <use transform="matrix(0.05,0,0,0.05,24.95,0)" xlink:href="#C"/>
        <use transform="matrix(0.05,0,0,0.05,34.95,0)" xlink:href="#H"/>
        <use transform="matrix(0.05,0,0,0.05,39.95,0)" xlink:href="#M"/>
        <use transform="matrix(0.05,0,0,0.05,49.95,0)" xlink:href="#U"/>
    </g>
    <g id="A">
        <use transform="matrix(0.05,0,0,0.05,0,0)" xlink:href="#S"/>
        <use transform="matrix(0.05,0,0,0.05,10,0)" xlink:href="#C"/>
        <use transform="matrix(0.05,0,0,0.05,20,0)" xlink:href="#N"/>
        <use transform="matrix(0.05,0,0,0.05,25.950000000000003,0)" xlink:href="#H"/>
        <use transform="matrix(0.05,0,0,0.05,30.950000000000003,0)" xlink:href="#K"/>
        <use transform="matrix(0.05,0,0,0.05,34.9,0)" xlink:href="#D"/>
        <use transform="matrix(0.05,0,0,0.05,43.9,0)" xlink:href="#K"/>
        <use transform="matrix(0.05,0,0,0.05,47.85,0)" xlink:href="#S"/>
        <use transform="matrix(0.05,0,0,0.05,57.85,0)" xlink:href="#C"/>
        <use transform="matrix(0.05,0,0,0.05,67.85,0)" xlink:href="#H"/>
        <use transform="matrix(0.05,0,0,0.05,72.85,0)" xlink:href="#M"/>
        <use transform="matrix(0.05,0,0,0.05,82.85,0)" xlink:href="#L"/>
    </g>
    <g id="B">
        <use transform="matrix(0.05,0,0,0.05,0,0)" xlink:href="#K"/>
        <use transform="matrix(0.05,0,0,0.05,3.95,0)" xlink:href="#G"/>
    </g>
    </defs>
</g>
</svg>
