<?xml version="1.0"?>
<svg xmlns:lucid="lucid" xmlns:dc="http://purl.org/dc/elements/1.1/" xmlns:cc="http://creativecommons.org/ns#" xmlns:rdf="http://www.w3.org/1999/02/22-rdf-syntax-ns#" xmlns:svg="http://www.w3.org/2000/svg" xmlns="http://www.w3.org/2000/svg" xmlns:xlink="http://www.w3.org/1999/xlink" xmlns:sodipodi="http://sodipodi.sourceforge.net/DTD/sodipodi-0.dtd" xmlns:inkscape="http://www.inkscape.org/namespaces/inkscape" width="622.70001" height="674" version="1.1" id="svg602" sodipodi:docname="erd-groupmembership.svg" inkscape:version="0.92.2 5c3e80d, 2017-08-06">
<metadata id="metadata608">
    <rdf:RDF>
    <cc:Work rdf:about="">
        <dc:format>image/svg+xml</dc:format>
        <dc:type rdf:resource="http://purl.org/dc/dcmitype/StillImage"/>
        <dc:title/>
    </cc:Work>
    </rdf:RDF>
</metadata>
<defs id="defs606"/>
<sodipodi:namedview pagecolor="#ffffff" bordercolor="#666666" borderopacity="1" objecttolerance="10" gridtolerance="10" guidetolerance="10" inkscape:pageopacity="0" inkscape:pageshadow="2" inkscape:window-width="640" inkscape:window-height="480" id="namedview604" showgrid="false" fit-margin-top="0" fit-margin-left="0" fit-margin-right="0" fit-margin-bottom="0" inkscape:zoom="0.17352941" inkscape:cx="321" inkscape:cy="333" inkscape:window-x="0" inkscape:window-y="27" inkscape:window-maximized="0" inkscape:current-layer="svg602"/>
<g lucid:page-tab-id=".bl43HyS0I8M" id="g600" transform="translate(-559,-339)">
    <path d="m 560,520 h 620.7 V 816 H 560 Z" id="path2" inkscape:connector-curvature="0" style="fill:#ffffff"/>
    <path d="m 560,520 h 620.7 v 40 H 560 Z" id="path4" inkscape:connector-curvature="0" style="fill:#cccccc"/>
    <path d="m 560,520 h 620.7 V 816 H 560 Z m 0,40 h 620.7 m -310.35,0 v 256" id="path6" inkscape:connector-curvature="0" style="fill:none;stroke:#000000;stroke-width:2"/>
    <use xlink:href="#a" transform="translate(798.125,543.6)" id="use8" x="0" y="0" width="100%" height="100%"/>
    <use xlink:href="#b" transform="translate(707.525,579.6)" id="use10" x="0" y="0" width="100%" height="100%"/>
    <use xlink:href="#c" transform="translate(1016.3789,579.6)" id="use12" x="0" y="0" width="100%" height="100%"/>
    <use xlink:href="#d" transform="translate(588.225,611.6)" id="use14" x="0" y="0" width="100%" height="100%"/>
    <use xlink:href="#e" transform="translate(993.87887,611.6)" id="use16" x="0" y="0" width="100%" height="100%"/>
    <use xlink:href="#f" transform="translate(596.25,643.6)" id="use18" x="0" y="0" width="100%" height="100%"/>
    <use xlink:href="#g" transform="translate(993.87887,643.6)" id="use20" x="0" y="0" width="100%" height="100%"/>
    <use xlink:href="#h" transform="translate(588.75,675.6)" id="use22" x="0" y="0" width="100%" height="100%"/>
    <use xlink:href="#g" transform="translate(993.87887,675.6)" id="use24" x="0" y="0" width="100%" height="100%"/>
    <use xlink:href="#i" transform="translate(619.175,707.6)" id="use26" x="0" y="0" width="100%" height="100%"/>
    <use xlink:href="#g" transform="translate(993.87887,707.6)" id="use28" x="0" y="0" width="100%" height="100%"/>
    <use xlink:href="#j" transform="translate(612.2,739.6)" id="use30" x="0" y="0" width="100%" height="100%"/>
    <use xlink:href="#g" transform="translate(993.87887,739.6)" id="use32" x="0" y="0" width="100%" height="100%"/>
    <use xlink:href="#k" transform="translate(627.225,771.6)" id="use34" x="0" y="0" width="100%" height="100%"/>
    <use xlink:href="#g" transform="translate(993.87887,771.6)" id="use36" x="0" y="0" width="100%" height="100%"/>
    <use xlink:href="#l" transform="translate(620.25,803.6)" id="use38" x="0" y="0" width="100%" height="100%"/>
    <use xlink:href="#g" transform="translate(993.87887,803.6)" id="use40" x="0" y="0" width="100%" height="100%"/>
    <path d="m 872.7,939 h -2 v -50.2 h 2 z m -1.35,-71.8 h -2 V 817 h 2 z" id="path42" inkscape:connector-curvature="0"/>
    <path d="m 881.25,817.9 -10.9,21.78 -10.9,-21.8 1.8,-0.88 9.1,18.2 9.1,-18.2 z" id="path44" inkscape:connector-curvature="0"/>
    <path id="path46" d="" inkscape:connector-curvature="0" style="fill:#ffffff"/>
    <path d="m 880.35,838.45 h -20 v -2 h 20 z" id="path48" inkscape:connector-curvature="0"/>
    <path id="path50" d="" inkscape:connector-curvature="0" style="fill:#ffffff"/>
    <path d="m 881.7,930 h -20 v -2 h 20 z" id="path52" inkscape:connector-curvature="0"/>
    <path id="path54" d="" inkscape:connector-curvature="0" style="fill:#ffffff"/>
    <path d="m 881.7,920 h -20 v -2 h 20 z" id="path56" inkscape:connector-curvature="0"/>
    <use xlink:href="#m" transform="translate(829.55053,881.6)" id="use58" x="0" y="0" width="100%" height="100%"/>
    <use xlink:href="#n" transform="translate(897.50053,881.6)" id="use60" x="0" y="0" width="100%" height="100%"/>
    <path d="m 871.35,519 h -2 v -42.2 h 2 z M 872,455.2 h -2 V 413 h 2 z" id="path62" inkscape:connector-curvature="0"/>
    <path d="m 881.25,518.1 -1.8,0.9 -9.1,-18.2 -9.1,18.2 -1.8,-0.9 10.9,-21.78 z" id="path64" inkscape:connector-curvature="0"/>
    <path id="path66" d="" inkscape:connector-curvature="0" style="fill:#ffffff"/>
    <path d="m 881,424 h -20 v -2 h 20 z" id="path68" inkscape:connector-curvature="0"/>
    <path id="path70" d="" inkscape:connector-curvature="0" style="fill:#ffffff"/>
    <path d="m 881,434 h -20 v -2 h 20 z" id="path72" inkscape:connector-curvature="0"/>
    <use xlink:href="#m" transform="translate(829.20693,469.6)" id="use74" x="0" y="0" width="100%" height="100%"/>
    <use xlink:href="#n" transform="translate(897.15693,469.6)" id="use76" x="0" y="0" width="100%" height="100%"/>
    <path d="m 770,940 h 200 v 72 H 770 Z" id="path78" inkscape:connector-curvature="0" style="fill:#ffffff"/>
    <path d="m 770,940 h 200 v 40 H 770 Z" id="path80" inkscape:connector-curvature="0" style="fill:#cccccc"/>
    <path d="m 770,940 h 200 v 72 H 770 Z m 0,40 h 200 m -100,0 v 32" id="path82" inkscape:connector-curvature="0" style="fill:none;stroke:#000000;stroke-width:2"/>
    <use xlink:href="#o" transform="translate(847.025,963.6)" id="use84" x="0" y="0" width="100%" height="100%"/>
    <path d="m 771,340 h 200 v 72 H 771 Z" id="path86" inkscape:connector-curvature="0" style="fill:#ffffff"/>
    <path d="m 771,340 h 200 v 40 H 771 Z" id="path88" inkscape:connector-curvature="0" style="fill:#cccccc"/>
    <path d="m 771,340 h 200 v 72 H 771 Z m 0,40 h 200 m -100,0 v 32" id="path90" inkscape:connector-curvature="0" style="fill:none;stroke:#000000;stroke-width:2"/>
    <g id="g94">
    <use xlink:href="#p" transform="translate(839.5,363.6)" id="use92" x="0" y="0" width="100%" height="100%"/>
    </g>
    <defs id="defs598">
    <path d="M 177,-190 C 167,-65 218,103 67,71 44,65 29,51 23,28 L 55,23 C 70,70 155,55 144,-5 V -35 C 133,-14 115,1 83,1 29,1 15,-40 15,-95 c 0,-56 16,-97 71,-98 29,-1 48,16 59,35 1,-10 0,-23 2,-32 z M 94,-22 c 36,0 50,-32 50,-73 0,-42 -14,-75 -50,-75 -39,0 -46,34 -46,75 0,41 6,73 46,73" id="q" inkscape:connector-curvature="0"/>
    <path d="M 114,-163 C 36,-179 61,-72 57,0 H 25 l -1,-190 h 30 c 1,12 -1,29 2,39 6,-27 23,-49 58,-41 v 29" id="r" inkscape:connector-curvature="0"/>
    <path d="m 100,-194 c 62,-1 85,37 85,99 1,63 -27,99 -86,99 -59,0 -83,-39 -84,-99 0,-66 28,-99 85,-99 z m -1,174 c 44,1 53,-31 53,-75 0,-43 -8,-75 -51,-75 -43,0 -53,32 -53,75 0,43 10,74 51,75" id="s" inkscape:connector-curvature="0"/>
    <path d="M 84,4 C -5,8 30,-112 23,-190 h 32 v 120 c 0,31 7,50 39,49 72,-2 45,-101 50,-169 h 31 l 1,190 h -30 c -1,-10 1,-25 -2,-33 -11,22 -28,36 -60,37" id="t" inkscape:connector-curvature="0"/>
    <path d="m 115,-194 c 55,1 70,41 70,98 C 185,-39 169,2 115,4 84,4 66,-9 55,-30 L 56,75 H 24 l -1,-265 h 31 l 2,30 c 10,-21 28,-34 59,-34 z m -8,174 c 40,0 45,-34 45,-75 0,-41 -6,-73 -45,-74 -42,0 -51,32 -51,76 0,43 10,73 51,73" id="u" inkscape:connector-curvature="0"/>
    <path d="m 210,-169 c -67,3 -38,105 -44,169 h -31 v -121 c 0,-29 -5,-50 -35,-48 C 34,-165 62,-65 56,0 H 25 l -1,-190 h 30 c 1,10 -1,24 2,32 10,-44 99,-50 107,0 11,-21 27,-35 58,-36 85,-2 47,119 55,194 h -31 v -121 c 0,-29 -5,-49 -35,-48" id="v" inkscape:connector-curvature="0"/>
    <path d="m 100,-194 c 63,0 86,42 84,106 H 49 c 0,40 14,67 53,68 26,1 43,-12 49,-29 l 28,8 C 168,-13 142,4 102,4 44,4 14,-33 15,-96 c 1,-61 26,-98 85,-98 z m 52,81 c 6,-60 -76,-77 -97,-28 -3,7 -6,17 -6,28 h 103" id="w" inkscape:connector-curvature="0"/>
    <path d="m 115,-194 c 53,0 69,39 70,98 C 185,-30 162,4 115,4 84,3 66,-7 56,-30 L 54,0 H 23 l 1,-261 h 32 v 101 c 10,-23 28,-34 59,-34 z m -8,174 c 40,0 45,-34 45,-75 0,-40 -5,-75 -45,-74 -42,0 -51,32 -51,76 0,43 10,73 51,73" id="x" inkscape:connector-curvature="0"/>
    <path d="m 135,-143 c -3,-34 -86,-38 -87,0 15,53 115,12 119,90 4,78 -150,74 -157,8 l 28,-5 c 4,36 97,45 98,0 -10,-56 -113,-15 -118,-90 -4,-57 82,-63 122,-42 12,7 21,19 24,35" id="y" inkscape:connector-curvature="0"/>
    <path d="M 106,-169 C 34,-169 62,-67 57,0 H 25 v -261 h 32 l -1,103 c 12,-21 28,-36 61,-36 89,0 53,116 60,194 h -32 v -121 c 2,-32 -8,-49 -39,-48" id="z" inkscape:connector-curvature="0"/>
    <path d="m 24,-231 v -30 h 32 v 30 z M 24,0 V -190 H 56 V 0 H 24" id="A" inkscape:connector-curvature="0"/>
    <g id="a">
        <use transform="scale(0.05)" xlink:href="#q" id="use107" x="0" y="0" width="100%" height="100%"/>
        <use transform="matrix(0.05,0,0,0.05,10,0)" xlink:href="#r" id="use109" x="0" y="0" width="100%" height="100%"/>
        <use transform="matrix(0.05,0,0,0.05,15.95,0)" xlink:href="#s" id="use111" x="0" y="0" width="100%" height="100%"/>
        <use transform="matrix(0.05,0,0,0.05,25.95,0)" xlink:href="#t" id="use113" x="0" y="0" width="100%" height="100%"/>
        <use transform="matrix(0.05,0,0,0.05,35.95,0)" xlink:href="#u" id="use115" x="0" y="0" width="100%" height="100%"/>
        <use transform="matrix(0.05,0,0,0.05,45.95,0)" xlink:href="#v" id="use117" x="0" y="0" width="100%" height="100%"/>
        <use transform="matrix(0.05,0,0,0.05,60.9,0)" xlink:href="#w" id="use119" x="0" y="0" width="100%" height="100%"/>
        <use transform="matrix(0.05,0,0,0.05,70.9,0)" xlink:href="#v" id="use121" x="0" y="0" width="100%" height="100%"/>
        <use transform="matrix(0.05,0,0,0.05,85.85,0)" xlink:href="#x" id="use123" x="0" y="0" width="100%" height="100%"/>
        <use transform="matrix(0.05,0,0,0.05,95.85,0)" xlink:href="#w" id="use125" x="0" y="0" width="100%" height="100%"/>
        <use transform="matrix(0.05,0,0,0.05,105.85,0)" xlink:href="#r" id="use127" x="0" y="0" width="100%" height="100%"/>
        <use transform="matrix(0.05,0,0,0.05,111.8,0)" xlink:href="#y" id="use129" x="0" y="0" width="100%" height="100%"/>
        <use transform="matrix(0.05,0,0,0.05,120.8,0)" xlink:href="#z" id="use131" x="0" y="0" width="100%" height="100%"/>
        <use transform="matrix(0.05,0,0,0.05,130.8,0)" xlink:href="#A" id="use133" x="0" y="0" width="100%" height="100%"/>
        <use transform="matrix(0.05,0,0,0.05,134.75,0)" xlink:href="#u" id="use135" x="0" y="0" width="100%" height="100%"/>
    </g>
    <path d="m 25,-224 v -37 h 50 v 37 z M 25,0 V -190 H 75 V 0 H 25" id="B" inkscape:connector-curvature="0"/>
    <path d="m 88,-194 c 31,-1 46,15 58,34 l -1,-101 h 50 l 1,261 h -48 c -2,-10 0,-23 -3,-31 C 134,-8 116,4 84,4 32,4 16,-41 15,-95 c 0,-56 19,-97 73,-99 z m 17,164 c 33,0 40,-30 41,-66 1,-37 -9,-64 -41,-64 -32,0 -38,30 -39,65 0,43 13,65 39,65" id="C" inkscape:connector-curvature="0"/>
    <g id="b">
        <use transform="scale(0.05)" xlink:href="#B" id="use140" x="0" y="0" width="100%" height="100%"/>
        <use transform="matrix(0.05,0,0,0.05,5,0)" xlink:href="#C" id="use142" x="0" y="0" width="100%" height="100%"/>
        <path d="m -0.9,0.97 h 17.75 v 1.9 H -0.9 Z" id="path144" inkscape:connector-curvature="0"/>
    </g>
    <path d="m 117,-194 c 89,-4 53,116 60,194 h -32 v -121 c 0,-31 -8,-49 -39,-48 C 34,-167 62,-67 57,0 H 25 l -1,-190 h 30 c 1,10 -1,24 2,32 11,-22 29,-35 61,-36" id="D" inkscape:connector-curvature="0"/>
    <path d="m 59,-47 c -2,24 18,29 38,22 V -1 C 64,9 27,4 27,-40 V -167 H 5 v -23 h 24 l 9,-43 h 21 v 43 h 35 v 23 H 59 v 120" id="E" inkscape:connector-curvature="0"/>
    <g id="c">
        <use transform="scale(0.05)" xlink:href="#A" id="use149" x="0" y="0" width="100%" height="100%"/>
        <use transform="matrix(0.05,0,0,0.05,3.95,0)" xlink:href="#D" id="use151" x="0" y="0" width="100%" height="100%"/>
        <use transform="matrix(0.05,0,0,0.05,13.95,0)" xlink:href="#E" id="use153" x="0" y="0" width="100%" height="100%"/>
    </g>
    <path d="m 16,-82 v -28 h 88 v 28 H 16" id="F" inkscape:connector-curvature="0"/>
    <path d="m 96,-169 c -40,0 -48,33 -48,73 0,40 9,75 48,75 24,0 41,-14 43,-38 l 32,2 C 165,-20 140,4 97,4 38,4 21,-37 15,-95 c -10,-93 101,-131 147,-64 4,7 5,14 7,22 l -32,3 c -4,-21 -16,-35 -41,-35" id="G" inkscape:connector-curvature="0"/>
    <path d="M 141,-36 C 126,-15 110,5 73,4 37,3 15,-17 15,-53 c -1,-64 63,-63 125,-63 3,-35 -9,-54 -41,-54 -24,1 -41,7 -42,31 l -33,-3 c 5,-37 33,-52 76,-52 45,0 72,20 72,64 v 82 c -1,20 7,32 28,27 V -1 C 169,8 139,-3 141,-36 Z M 48,-53 c 0,20 12,33 32,33 41,-3 63,-29 60,-74 -43,2 -92,-5 -92,41" id="H" inkscape:connector-curvature="0"/>
    <g id="d">
        <use transform="scale(0.05)" xlink:href="#u" id="use159" x="0" y="0" width="100%" height="100%"/>
        <use transform="matrix(0.05,0,0,0.05,10,0)" xlink:href="#w" id="use161" x="0" y="0" width="100%" height="100%"/>
        <use transform="matrix(0.05,0,0,0.05,20,0)" xlink:href="#r" id="use163" x="0" y="0" width="100%" height="100%"/>
        <use transform="matrix(0.05,0,0,0.05,25.95,0)" xlink:href="#v" id="use165" x="0" y="0" width="100%" height="100%"/>
        <use transform="matrix(0.05,0,0,0.05,40.9,0)" xlink:href="#A" id="use167" x="0" y="0" width="100%" height="100%"/>
        <use transform="matrix(0.05,0,0,0.05,44.85,0)" xlink:href="#y" id="use169" x="0" y="0" width="100%" height="100%"/>
        <use transform="matrix(0.05,0,0,0.05,53.85,0)" xlink:href="#y" id="use171" x="0" y="0" width="100%" height="100%"/>
        <use transform="matrix(0.05,0,0,0.05,62.85,0)" xlink:href="#A" id="use173" x="0" y="0" width="100%" height="100%"/>
        <use transform="matrix(0.05,0,0,0.05,66.8,0)" xlink:href="#s" id="use175" x="0" y="0" width="100%" height="100%"/>
        <use transform="matrix(0.05,0,0,0.05,76.8,0)" xlink:href="#D" id="use177" x="0" y="0" width="100%" height="100%"/>
        <use transform="matrix(0.05,0,0,0.05,86.8,0)" xlink:href="#F" id="use179" x="0" y="0" width="100%" height="100%"/>
        <use transform="matrix(0.05,0,0,0.05,92.75,0)" xlink:href="#G" id="use181" x="0" y="0" width="100%" height="100%"/>
        <use transform="matrix(0.05,0,0,0.05,101.75,0)" xlink:href="#z" id="use183" x="0" y="0" width="100%" height="100%"/>
        <use transform="matrix(0.05,0,0,0.05,111.75,0)" xlink:href="#H" id="use185" x="0" y="0" width="100%" height="100%"/>
        <use transform="matrix(0.05,0,0,0.05,121.75,0)" xlink:href="#D" id="use187" x="0" y="0" width="100%" height="100%"/>
        <use transform="matrix(0.05,0,0,0.05,131.75,0)" xlink:href="#q" id="use189" x="0" y="0" width="100%" height="100%"/>
        <use transform="matrix(0.05,0,0,0.05,141.75,0)" xlink:href="#w" id="use191" x="0" y="0" width="100%" height="100%"/>
        <use transform="matrix(0.05,0,0,0.05,151.75,0)" xlink:href="#F" id="use193" x="0" y="0" width="100%" height="100%"/>
        <use transform="matrix(0.05,0,0,0.05,157.7,0)" xlink:href="#q" id="use195" x="0" y="0" width="100%" height="100%"/>
        <use transform="matrix(0.05,0,0,0.05,167.7,0)" xlink:href="#r" id="use197" x="0" y="0" width="100%" height="100%"/>
        <use transform="matrix(0.05,0,0,0.05,173.65,0)" xlink:href="#s" id="use199" x="0" y="0" width="100%" height="100%"/>
        <use transform="matrix(0.05,0,0,0.05,183.65,0)" xlink:href="#t" id="use201" x="0" y="0" width="100%" height="100%"/>
        <use transform="matrix(0.05,0,0,0.05,193.65,0)" xlink:href="#u" id="use203" x="0" y="0" width="100%" height="100%"/>
        <use transform="matrix(0.05,0,0,0.05,203.65,0)" xlink:href="#F" id="use205" x="0" y="0" width="100%" height="100%"/>
        <use transform="matrix(0.05,0,0,0.05,209.6,0)" xlink:href="#D" id="use207" x="0" y="0" width="100%" height="100%"/>
        <use transform="matrix(0.05,0,0,0.05,219.6,0)" xlink:href="#H" id="use209" x="0" y="0" width="100%" height="100%"/>
        <use transform="matrix(0.05,0,0,0.05,229.6,0)" xlink:href="#v" id="use211" x="0" y="0" width="100%" height="100%"/>
        <use transform="matrix(0.05,0,0,0.05,244.55,0)" xlink:href="#w" id="use213" x="0" y="0" width="100%" height="100%"/>
    </g>
    <path d="M 24,0 V -261 H 56 V 0 H 24" id="I" inkscape:connector-curvature="0"/>
    <g id="e">
        <use transform="scale(0.05)" xlink:href="#x" id="use217" x="0" y="0" width="100%" height="100%"/>
        <use transform="matrix(0.05,0,0,0.05,10,0)" xlink:href="#s" id="use219" x="0" y="0" width="100%" height="100%"/>
        <use transform="matrix(0.05,0,0,0.05,20,0)" xlink:href="#s" id="use221" x="0" y="0" width="100%" height="100%"/>
        <use transform="matrix(0.05,0,0,0.05,30,0)" xlink:href="#I" id="use223" x="0" y="0" width="100%" height="100%"/>
        <use transform="matrix(0.05,0,0,0.05,33.95,0)" xlink:href="#w" id="use225" x="0" y="0" width="100%" height="100%"/>
        <use transform="matrix(0.05,0,0,0.05,43.95,0)" xlink:href="#H" id="use227" x="0" y="0" width="100%" height="100%"/>
        <use transform="matrix(0.05,0,0,0.05,53.95,0)" xlink:href="#D" id="use229" x="0" y="0" width="100%" height="100%"/>
    </g>
    <g id="f">
        <use transform="scale(0.05)" xlink:href="#u" id="use232" x="0" y="0" width="100%" height="100%"/>
        <use transform="matrix(0.05,0,0,0.05,10,0)" xlink:href="#w" id="use234" x="0" y="0" width="100%" height="100%"/>
        <use transform="matrix(0.05,0,0,0.05,20,0)" xlink:href="#r" id="use236" x="0" y="0" width="100%" height="100%"/>
        <use transform="matrix(0.05,0,0,0.05,25.95,0)" xlink:href="#v" id="use238" x="0" y="0" width="100%" height="100%"/>
        <use transform="matrix(0.05,0,0,0.05,40.9,0)" xlink:href="#A" id="use240" x="0" y="0" width="100%" height="100%"/>
        <use transform="matrix(0.05,0,0,0.05,44.85,0)" xlink:href="#y" id="use242" x="0" y="0" width="100%" height="100%"/>
        <use transform="matrix(0.05,0,0,0.05,53.85,0)" xlink:href="#y" id="use244" x="0" y="0" width="100%" height="100%"/>
        <use transform="matrix(0.05,0,0,0.05,62.85,0)" xlink:href="#A" id="use246" x="0" y="0" width="100%" height="100%"/>
        <use transform="matrix(0.05,0,0,0.05,66.8,0)" xlink:href="#s" id="use248" x="0" y="0" width="100%" height="100%"/>
        <use transform="matrix(0.05,0,0,0.05,76.8,0)" xlink:href="#D" id="use250" x="0" y="0" width="100%" height="100%"/>
        <use transform="matrix(0.05,0,0,0.05,86.8,0)" xlink:href="#F" id="use252" x="0" y="0" width="100%" height="100%"/>
        <use transform="matrix(0.05,0,0,0.05,92.75,0)" xlink:href="#v" id="use254" x="0" y="0" width="100%" height="100%"/>
        <use transform="matrix(0.05,0,0,0.05,107.7,0)" xlink:href="#H" id="use256" x="0" y="0" width="100%" height="100%"/>
        <use transform="matrix(0.05,0,0,0.05,117.7,0)" xlink:href="#D" id="use258" x="0" y="0" width="100%" height="100%"/>
        <use transform="matrix(0.05,0,0,0.05,127.7,0)" xlink:href="#H" id="use260" x="0" y="0" width="100%" height="100%"/>
        <use transform="matrix(0.05,0,0,0.05,137.7,0)" xlink:href="#q" id="use262" x="0" y="0" width="100%" height="100%"/>
        <use transform="matrix(0.05,0,0,0.05,147.7,0)" xlink:href="#w" id="use264" x="0" y="0" width="100%" height="100%"/>
        <use transform="matrix(0.05,0,0,0.05,157.7,0)" xlink:href="#F" id="use266" x="0" y="0" width="100%" height="100%"/>
        <use transform="matrix(0.05,0,0,0.05,163.65,0)" xlink:href="#v" id="use268" x="0" y="0" width="100%" height="100%"/>
        <use transform="matrix(0.05,0,0,0.05,178.6,0)" xlink:href="#w" id="use270" x="0" y="0" width="100%" height="100%"/>
        <use transform="matrix(0.05,0,0,0.05,188.6,0)" xlink:href="#v" id="use272" x="0" y="0" width="100%" height="100%"/>
        <use transform="matrix(0.05,0,0,0.05,203.55,0)" xlink:href="#x" id="use274" x="0" y="0" width="100%" height="100%"/>
        <use transform="matrix(0.05,0,0,0.05,213.55,0)" xlink:href="#w" id="use276" x="0" y="0" width="100%" height="100%"/>
        <use transform="matrix(0.05,0,0,0.05,223.55,0)" xlink:href="#r" id="use278" x="0" y="0" width="100%" height="100%"/>
        <use transform="matrix(0.05,0,0,0.05,229.5,0)" xlink:href="#y" id="use280" x="0" y="0" width="100%" height="100%"/>
    </g>
    <g id="g">
        <use transform="scale(0.05)" xlink:href="#x" id="use283" x="0" y="0" width="100%" height="100%"/>
        <use transform="matrix(0.05,0,0,0.05,10,0)" xlink:href="#s" id="use285" x="0" y="0" width="100%" height="100%"/>
        <use transform="matrix(0.05,0,0,0.05,20,0)" xlink:href="#s" id="use287" x="0" y="0" width="100%" height="100%"/>
        <use transform="matrix(0.05,0,0,0.05,30,0)" xlink:href="#I" id="use289" x="0" y="0" width="100%" height="100%"/>
        <use transform="matrix(0.05,0,0,0.05,33.95,0)" xlink:href="#w" id="use291" x="0" y="0" width="100%" height="100%"/>
        <use transform="matrix(0.05,0,0,0.05,43.95,0)" xlink:href="#H" id="use293" x="0" y="0" width="100%" height="100%"/>
        <use transform="matrix(0.05,0,0,0.05,53.95,0)" xlink:href="#D" id="use295" x="0" y="0" width="100%" height="100%"/>
    </g>
    <g id="h">
        <use transform="scale(0.05)" xlink:href="#u" id="use298" x="0" y="0" width="100%" height="100%"/>
        <use transform="matrix(0.05,0,0,0.05,10,0)" xlink:href="#w" id="use300" x="0" y="0" width="100%" height="100%"/>
        <use transform="matrix(0.05,0,0,0.05,20,0)" xlink:href="#r" id="use302" x="0" y="0" width="100%" height="100%"/>
        <use transform="matrix(0.05,0,0,0.05,25.95,0)" xlink:href="#v" id="use304" x="0" y="0" width="100%" height="100%"/>
        <use transform="matrix(0.05,0,0,0.05,40.9,0)" xlink:href="#A" id="use306" x="0" y="0" width="100%" height="100%"/>
        <use transform="matrix(0.05,0,0,0.05,44.85,0)" xlink:href="#y" id="use308" x="0" y="0" width="100%" height="100%"/>
        <use transform="matrix(0.05,0,0,0.05,53.85,0)" xlink:href="#y" id="use310" x="0" y="0" width="100%" height="100%"/>
        <use transform="matrix(0.05,0,0,0.05,62.85,0)" xlink:href="#A" id="use312" x="0" y="0" width="100%" height="100%"/>
        <use transform="matrix(0.05,0,0,0.05,66.8,0)" xlink:href="#s" id="use314" x="0" y="0" width="100%" height="100%"/>
        <use transform="matrix(0.05,0,0,0.05,76.8,0)" xlink:href="#D" id="use316" x="0" y="0" width="100%" height="100%"/>
        <use transform="matrix(0.05,0,0,0.05,86.8,0)" xlink:href="#F" id="use318" x="0" y="0" width="100%" height="100%"/>
        <use transform="matrix(0.05,0,0,0.05,92.75,0)" xlink:href="#G" id="use320" x="0" y="0" width="100%" height="100%"/>
        <use transform="matrix(0.05,0,0,0.05,101.75,0)" xlink:href="#z" id="use322" x="0" y="0" width="100%" height="100%"/>
        <use transform="matrix(0.05,0,0,0.05,111.75,0)" xlink:href="#H" id="use324" x="0" y="0" width="100%" height="100%"/>
        <use transform="matrix(0.05,0,0,0.05,121.75,0)" xlink:href="#D" id="use326" x="0" y="0" width="100%" height="100%"/>
        <use transform="matrix(0.05,0,0,0.05,131.75,0)" xlink:href="#q" id="use328" x="0" y="0" width="100%" height="100%"/>
        <use transform="matrix(0.05,0,0,0.05,141.75,0)" xlink:href="#w" id="use330" x="0" y="0" width="100%" height="100%"/>
        <use transform="matrix(0.05,0,0,0.05,151.75,0)" xlink:href="#F" id="use332" x="0" y="0" width="100%" height="100%"/>
        <use transform="matrix(0.05,0,0,0.05,157.7,0)" xlink:href="#u" id="use334" x="0" y="0" width="100%" height="100%"/>
        <use transform="matrix(0.05,0,0,0.05,167.7,0)" xlink:href="#w" id="use336" x="0" y="0" width="100%" height="100%"/>
        <use transform="matrix(0.05,0,0,0.05,177.7,0)" xlink:href="#r" id="use338" x="0" y="0" width="100%" height="100%"/>
        <use transform="matrix(0.05,0,0,0.05,183.65,0)" xlink:href="#v" id="use340" x="0" y="0" width="100%" height="100%"/>
        <use transform="matrix(0.05,0,0,0.05,198.6,0)" xlink:href="#A" id="use342" x="0" y="0" width="100%" height="100%"/>
        <use transform="matrix(0.05,0,0,0.05,202.55,0)" xlink:href="#y" id="use344" x="0" y="0" width="100%" height="100%"/>
        <use transform="matrix(0.05,0,0,0.05,211.55,0)" xlink:href="#y" id="use346" x="0" y="0" width="100%" height="100%"/>
        <use transform="matrix(0.05,0,0,0.05,220.55,0)" xlink:href="#A" id="use348" x="0" y="0" width="100%" height="100%"/>
        <use transform="matrix(0.05,0,0,0.05,224.5,0)" xlink:href="#s" id="use350" x="0" y="0" width="100%" height="100%"/>
        <use transform="matrix(0.05,0,0,0.05,234.5,0)" xlink:href="#D" id="use352" x="0" y="0" width="100%" height="100%"/>
        <use transform="matrix(0.05,0,0,0.05,244.5,0)" xlink:href="#y" id="use354" x="0" y="0" width="100%" height="100%"/>
    </g>
    <path d="M 108,0 H 70 L 1,-190 h 34 l 54,165 56,-165 h 34" id="J" inkscape:connector-curvature="0"/>
    <g id="i">
        <use transform="scale(0.05)" xlink:href="#u" id="use358" x="0" y="0" width="100%" height="100%"/>
        <use transform="matrix(0.05,0,0,0.05,10,0)" xlink:href="#w" id="use360" x="0" y="0" width="100%" height="100%"/>
        <use transform="matrix(0.05,0,0,0.05,20,0)" xlink:href="#r" id="use362" x="0" y="0" width="100%" height="100%"/>
        <use transform="matrix(0.05,0,0,0.05,25.95,0)" xlink:href="#v" id="use364" x="0" y="0" width="100%" height="100%"/>
        <use transform="matrix(0.05,0,0,0.05,40.9,0)" xlink:href="#A" id="use366" x="0" y="0" width="100%" height="100%"/>
        <use transform="matrix(0.05,0,0,0.05,44.85,0)" xlink:href="#y" id="use368" x="0" y="0" width="100%" height="100%"/>
        <use transform="matrix(0.05,0,0,0.05,53.85,0)" xlink:href="#y" id="use370" x="0" y="0" width="100%" height="100%"/>
        <use transform="matrix(0.05,0,0,0.05,62.85,0)" xlink:href="#A" id="use372" x="0" y="0" width="100%" height="100%"/>
        <use transform="matrix(0.05,0,0,0.05,66.8,0)" xlink:href="#s" id="use374" x="0" y="0" width="100%" height="100%"/>
        <use transform="matrix(0.05,0,0,0.05,76.8,0)" xlink:href="#D" id="use376" x="0" y="0" width="100%" height="100%"/>
        <use transform="matrix(0.05,0,0,0.05,86.8,0)" xlink:href="#F" id="use378" x="0" y="0" width="100%" height="100%"/>
        <use transform="matrix(0.05,0,0,0.05,92.75,0)" xlink:href="#G" id="use380" x="0" y="0" width="100%" height="100%"/>
        <use transform="matrix(0.05,0,0,0.05,101.75,0)" xlink:href="#r" id="use382" x="0" y="0" width="100%" height="100%"/>
        <use transform="matrix(0.05,0,0,0.05,107.7,0)" xlink:href="#w" id="use384" x="0" y="0" width="100%" height="100%"/>
        <use transform="matrix(0.05,0,0,0.05,117.7,0)" xlink:href="#H" id="use386" x="0" y="0" width="100%" height="100%"/>
        <use transform="matrix(0.05,0,0,0.05,127.7,0)" xlink:href="#E" id="use388" x="0" y="0" width="100%" height="100%"/>
        <use transform="matrix(0.05,0,0,0.05,132.7,0)" xlink:href="#w" id="use390" x="0" y="0" width="100%" height="100%"/>
        <use transform="matrix(0.05,0,0,0.05,142.7,0)" xlink:href="#F" id="use392" x="0" y="0" width="100%" height="100%"/>
        <use transform="matrix(0.05,0,0,0.05,148.65,0)" xlink:href="#w" id="use394" x="0" y="0" width="100%" height="100%"/>
        <use transform="matrix(0.05,0,0,0.05,158.65,0)" xlink:href="#J" id="use396" x="0" y="0" width="100%" height="100%"/>
        <use transform="matrix(0.05,0,0,0.05,167.65,0)" xlink:href="#w" id="use398" x="0" y="0" width="100%" height="100%"/>
        <use transform="matrix(0.05,0,0,0.05,177.65,0)" xlink:href="#D" id="use400" x="0" y="0" width="100%" height="100%"/>
        <use transform="matrix(0.05,0,0,0.05,187.65,0)" xlink:href="#E" id="use402" x="0" y="0" width="100%" height="100%"/>
    </g>
    <path d="m 85,-194 c 31,0 48,13 60,33 l -1,-100 h 32 l 1,261 h -30 c -2,-10 0,-23 -3,-31 C 134,-8 116,4 85,4 32,4 16,-35 15,-94 c 0,-66 23,-100 70,-100 z m 9,24 c -40,0 -46,34 -46,75 0,40 6,74 45,74 42,0 51,-32 51,-76 0,-42 -9,-74 -50,-73" id="K" inkscape:connector-curvature="0"/>
    <path d="M 179,-190 93,31 C 79,59 56,82 12,73 V 49 C 51,55 65,29 76,-1 L 1,-190 h 34 l 57,156 54,-156 h 33" id="L" inkscape:connector-curvature="0"/>
    <g id="j">
        <use transform="scale(0.05)" xlink:href="#u" id="use407" x="0" y="0" width="100%" height="100%"/>
        <use transform="matrix(0.05,0,0,0.05,10,0)" xlink:href="#w" id="use409" x="0" y="0" width="100%" height="100%"/>
        <use transform="matrix(0.05,0,0,0.05,20,0)" xlink:href="#r" id="use411" x="0" y="0" width="100%" height="100%"/>
        <use transform="matrix(0.05,0,0,0.05,25.95,0)" xlink:href="#v" id="use413" x="0" y="0" width="100%" height="100%"/>
        <use transform="matrix(0.05,0,0,0.05,40.9,0)" xlink:href="#A" id="use415" x="0" y="0" width="100%" height="100%"/>
        <use transform="matrix(0.05,0,0,0.05,44.85,0)" xlink:href="#y" id="use417" x="0" y="0" width="100%" height="100%"/>
        <use transform="matrix(0.05,0,0,0.05,53.85,0)" xlink:href="#y" id="use419" x="0" y="0" width="100%" height="100%"/>
        <use transform="matrix(0.05,0,0,0.05,62.85,0)" xlink:href="#A" id="use421" x="0" y="0" width="100%" height="100%"/>
        <use transform="matrix(0.05,0,0,0.05,66.8,0)" xlink:href="#s" id="use423" x="0" y="0" width="100%" height="100%"/>
        <use transform="matrix(0.05,0,0,0.05,76.8,0)" xlink:href="#D" id="use425" x="0" y="0" width="100%" height="100%"/>
        <use transform="matrix(0.05,0,0,0.05,86.8,0)" xlink:href="#F" id="use427" x="0" y="0" width="100%" height="100%"/>
        <use transform="matrix(0.05,0,0,0.05,92.75,0)" xlink:href="#w" id="use429" x="0" y="0" width="100%" height="100%"/>
        <use transform="matrix(0.05,0,0,0.05,102.75,0)" xlink:href="#K" id="use431" x="0" y="0" width="100%" height="100%"/>
        <use transform="matrix(0.05,0,0,0.05,112.75,0)" xlink:href="#A" id="use433" x="0" y="0" width="100%" height="100%"/>
        <use transform="matrix(0.05,0,0,0.05,116.7,0)" xlink:href="#E" id="use435" x="0" y="0" width="100%" height="100%"/>
        <use transform="matrix(0.05,0,0,0.05,121.7,0)" xlink:href="#F" id="use437" x="0" y="0" width="100%" height="100%"/>
        <use transform="matrix(0.05,0,0,0.05,127.65,0)" xlink:href="#H" id="use439" x="0" y="0" width="100%" height="100%"/>
        <use transform="matrix(0.05,0,0,0.05,137.65,0)" xlink:href="#D" id="use441" x="0" y="0" width="100%" height="100%"/>
        <use transform="matrix(0.05,0,0,0.05,147.65,0)" xlink:href="#L" id="use443" x="0" y="0" width="100%" height="100%"/>
        <use transform="matrix(0.05,0,0,0.05,156.65,0)" xlink:href="#F" id="use445" x="0" y="0" width="100%" height="100%"/>
        <use transform="matrix(0.05,0,0,0.05,162.6,0)" xlink:href="#w" id="use447" x="0" y="0" width="100%" height="100%"/>
        <use transform="matrix(0.05,0,0,0.05,172.6,0)" xlink:href="#J" id="use449" x="0" y="0" width="100%" height="100%"/>
        <use transform="matrix(0.05,0,0,0.05,181.6,0)" xlink:href="#w" id="use451" x="0" y="0" width="100%" height="100%"/>
        <use transform="matrix(0.05,0,0,0.05,191.6,0)" xlink:href="#D" id="use453" x="0" y="0" width="100%" height="100%"/>
        <use transform="matrix(0.05,0,0,0.05,201.6,0)" xlink:href="#E" id="use455" x="0" y="0" width="100%" height="100%"/>
    </g>
    <g id="k">
        <use transform="scale(0.05)" xlink:href="#u" id="use458" x="0" y="0" width="100%" height="100%"/>
        <use transform="matrix(0.05,0,0,0.05,10,0)" xlink:href="#w" id="use460" x="0" y="0" width="100%" height="100%"/>
        <use transform="matrix(0.05,0,0,0.05,20,0)" xlink:href="#r" id="use462" x="0" y="0" width="100%" height="100%"/>
        <use transform="matrix(0.05,0,0,0.05,25.95,0)" xlink:href="#v" id="use464" x="0" y="0" width="100%" height="100%"/>
        <use transform="matrix(0.05,0,0,0.05,40.9,0)" xlink:href="#A" id="use466" x="0" y="0" width="100%" height="100%"/>
        <use transform="matrix(0.05,0,0,0.05,44.85,0)" xlink:href="#y" id="use468" x="0" y="0" width="100%" height="100%"/>
        <use transform="matrix(0.05,0,0,0.05,53.85,0)" xlink:href="#y" id="use470" x="0" y="0" width="100%" height="100%"/>
        <use transform="matrix(0.05,0,0,0.05,62.85,0)" xlink:href="#A" id="use472" x="0" y="0" width="100%" height="100%"/>
        <use transform="matrix(0.05,0,0,0.05,66.8,0)" xlink:href="#s" id="use474" x="0" y="0" width="100%" height="100%"/>
        <use transform="matrix(0.05,0,0,0.05,76.8,0)" xlink:href="#D" id="use476" x="0" y="0" width="100%" height="100%"/>
        <use transform="matrix(0.05,0,0,0.05,86.8,0)" xlink:href="#F" id="use478" x="0" y="0" width="100%" height="100%"/>
        <use transform="matrix(0.05,0,0,0.05,92.75,0)" xlink:href="#G" id="use480" x="0" y="0" width="100%" height="100%"/>
        <use transform="matrix(0.05,0,0,0.05,101.75,0)" xlink:href="#r" id="use482" x="0" y="0" width="100%" height="100%"/>
        <use transform="matrix(0.05,0,0,0.05,107.7,0)" xlink:href="#w" id="use484" x="0" y="0" width="100%" height="100%"/>
        <use transform="matrix(0.05,0,0,0.05,117.7,0)" xlink:href="#H" id="use486" x="0" y="0" width="100%" height="100%"/>
        <use transform="matrix(0.05,0,0,0.05,127.7,0)" xlink:href="#E" id="use488" x="0" y="0" width="100%" height="100%"/>
        <use transform="matrix(0.05,0,0,0.05,132.7,0)" xlink:href="#w" id="use490" x="0" y="0" width="100%" height="100%"/>
        <use transform="matrix(0.05,0,0,0.05,142.7,0)" xlink:href="#F" id="use492" x="0" y="0" width="100%" height="100%"/>
        <use transform="matrix(0.05,0,0,0.05,148.65,0)" xlink:href="#u" id="use494" x="0" y="0" width="100%" height="100%"/>
        <use transform="matrix(0.05,0,0,0.05,158.65,0)" xlink:href="#s" id="use496" x="0" y="0" width="100%" height="100%"/>
        <use transform="matrix(0.05,0,0,0.05,168.65,0)" xlink:href="#I" id="use498" x="0" y="0" width="100%" height="100%"/>
        <use transform="matrix(0.05,0,0,0.05,172.6,0)" xlink:href="#I" id="use500" x="0" y="0" width="100%" height="100%"/>
    </g>
    <g id="l">
        <use transform="scale(0.05)" xlink:href="#u" id="use503" x="0" y="0" width="100%" height="100%"/>
        <use transform="matrix(0.05,0,0,0.05,10,0)" xlink:href="#w" id="use505" x="0" y="0" width="100%" height="100%"/>
        <use transform="matrix(0.05,0,0,0.05,20,0)" xlink:href="#r" id="use507" x="0" y="0" width="100%" height="100%"/>
        <use transform="matrix(0.05,0,0,0.05,25.95,0)" xlink:href="#v" id="use509" x="0" y="0" width="100%" height="100%"/>
        <use transform="matrix(0.05,0,0,0.05,40.9,0)" xlink:href="#A" id="use511" x="0" y="0" width="100%" height="100%"/>
        <use transform="matrix(0.05,0,0,0.05,44.85,0)" xlink:href="#y" id="use513" x="0" y="0" width="100%" height="100%"/>
        <use transform="matrix(0.05,0,0,0.05,53.85,0)" xlink:href="#y" id="use515" x="0" y="0" width="100%" height="100%"/>
        <use transform="matrix(0.05,0,0,0.05,62.85,0)" xlink:href="#A" id="use517" x="0" y="0" width="100%" height="100%"/>
        <use transform="matrix(0.05,0,0,0.05,66.8,0)" xlink:href="#s" id="use519" x="0" y="0" width="100%" height="100%"/>
        <use transform="matrix(0.05,0,0,0.05,76.8,0)" xlink:href="#D" id="use521" x="0" y="0" width="100%" height="100%"/>
        <use transform="matrix(0.05,0,0,0.05,86.8,0)" xlink:href="#F" id="use523" x="0" y="0" width="100%" height="100%"/>
        <use transform="matrix(0.05,0,0,0.05,92.75,0)" xlink:href="#w" id="use525" x="0" y="0" width="100%" height="100%"/>
        <use transform="matrix(0.05,0,0,0.05,102.75,0)" xlink:href="#K" id="use527" x="0" y="0" width="100%" height="100%"/>
        <use transform="matrix(0.05,0,0,0.05,112.75,0)" xlink:href="#A" id="use529" x="0" y="0" width="100%" height="100%"/>
        <use transform="matrix(0.05,0,0,0.05,116.7,0)" xlink:href="#E" id="use531" x="0" y="0" width="100%" height="100%"/>
        <use transform="matrix(0.05,0,0,0.05,121.7,0)" xlink:href="#F" id="use533" x="0" y="0" width="100%" height="100%"/>
        <use transform="matrix(0.05,0,0,0.05,127.65,0)" xlink:href="#H" id="use535" x="0" y="0" width="100%" height="100%"/>
        <use transform="matrix(0.05,0,0,0.05,137.65,0)" xlink:href="#D" id="use537" x="0" y="0" width="100%" height="100%"/>
        <use transform="matrix(0.05,0,0,0.05,147.65,0)" xlink:href="#L" id="use539" x="0" y="0" width="100%" height="100%"/>
        <use transform="matrix(0.05,0,0,0.05,156.65,0)" xlink:href="#F" id="use541" x="0" y="0" width="100%" height="100%"/>
        <use transform="matrix(0.05,0,0,0.05,162.6,0)" xlink:href="#u" id="use543" x="0" y="0" width="100%" height="100%"/>
        <use transform="matrix(0.05,0,0,0.05,172.6,0)" xlink:href="#s" id="use545" x="0" y="0" width="100%" height="100%"/>
        <use transform="matrix(0.05,0,0,0.05,182.6,0)" xlink:href="#I" id="use547" x="0" y="0" width="100%" height="100%"/>
        <use transform="matrix(0.05,0,0,0.05,186.55,0)" xlink:href="#I" id="use549" x="0" y="0" width="100%" height="100%"/>
    </g>
    <g id="m">
        <use transform="scale(0.05)" xlink:href="#x" id="use552" x="0" y="0" width="100%" height="100%"/>
        <use transform="matrix(0.05,0,0,0.05,10,0)" xlink:href="#w" id="use554" x="0" y="0" width="100%" height="100%"/>
        <use transform="matrix(0.05,0,0,0.05,20,0)" xlink:href="#I" id="use556" x="0" y="0" width="100%" height="100%"/>
        <use transform="matrix(0.05,0,0,0.05,23.95,0)" xlink:href="#s" id="use558" x="0" y="0" width="100%" height="100%"/>
        <use transform="matrix(0.05,0,0,0.05,33.95,0)" xlink:href="#D" id="use560" x="0" y="0" width="100%" height="100%"/>
        <use transform="matrix(0.05,0,0,0.05,43.95,0)" xlink:href="#q" id="use562" x="0" y="0" width="100%" height="100%"/>
        <use transform="matrix(0.05,0,0,0.05,53.95,0)" xlink:href="#y" id="use564" x="0" y="0" width="100%" height="100%"/>
    </g>
    <g id="n">
        <use transform="scale(0.05)" xlink:href="#E" id="use567" x="0" y="0" width="100%" height="100%"/>
        <use transform="matrix(0.05,0,0,0.05,5,0)" xlink:href="#s" id="use569" x="0" y="0" width="100%" height="100%"/>
    </g>
    <g id="o">
        <use transform="scale(0.05)" xlink:href="#q" id="use572" x="0" y="0" width="100%" height="100%"/>
        <use transform="matrix(0.05,0,0,0.05,10,0)" xlink:href="#r" id="use574" x="0" y="0" width="100%" height="100%"/>
        <use transform="matrix(0.05,0,0,0.05,15.95,0)" xlink:href="#s" id="use576" x="0" y="0" width="100%" height="100%"/>
        <use transform="matrix(0.05,0,0,0.05,25.95,0)" xlink:href="#t" id="use578" x="0" y="0" width="100%" height="100%"/>
        <use transform="matrix(0.05,0,0,0.05,35.95,0)" xlink:href="#u" id="use580" x="0" y="0" width="100%" height="100%"/>
    </g>
    <g id="p">
        <use transform="scale(0.05)" xlink:href="#H" id="use583" x="0" y="0" width="100%" height="100%"/>
        <use transform="matrix(0.05,0,0,0.05,10,0)" xlink:href="#G" id="use585" x="0" y="0" width="100%" height="100%"/>
        <use transform="matrix(0.05,0,0,0.05,19,0)" xlink:href="#G" id="use587" x="0" y="0" width="100%" height="100%"/>
        <use transform="matrix(0.05,0,0,0.05,28,0)" xlink:href="#s" id="use589" x="0" y="0" width="100%" height="100%"/>
        <use transform="matrix(0.05,0,0,0.05,38,0)" xlink:href="#t" id="use591" x="0" y="0" width="100%" height="100%"/>
        <use transform="matrix(0.05,0,0,0.05,48,0)" xlink:href="#D" id="use593" x="0" y="0" width="100%" height="100%"/>
        <use transform="matrix(0.05,0,0,0.05,58,0)" xlink:href="#E" id="use595" x="0" y="0" width="100%" height="100%"/>
    </g>
    </defs>
</g>
</svg>
