<?xml version="1.0"?>
<svg xmlns="http://www.w3.org/2000/svg" xmlns:xlink="http://www.w3.org/1999/xlink" xmlns:lucid="lucid" width="1760" height="1360">
<g transform="translate(0 1296)" lucid:page-tab-id="0_0">
    <path d="M803.08-763l3.4 1.1 2.13 2.92.32 1.9V-701h-2v-55.92l-.2-1.26-1.47-2-2.5-.82H777.1v-2zm-100-1.66l2 1.46 1.25.2h41.75v2h-41.9l-1.9-.3-2.92-2.13-1.1-3.4V-807h2v39.84z"/>
    <path fill="#fff"/>
    <path d="M711.25-796h-20v-2h20z"/>
    <path fill="#fff"/>
    <path d="M711.25-786h-20v-2h20zM818.8-701.9l-1.78.9-9.1-18.2-9.1 18.2-1.8-.9 10.9-21.78z"/>
    <path d="M811.08-740.94l2.74 1.42 2.17 2.17 1.4 2.74.52 3.15-.5 3.16-1.43 2.76-2.18 2.16-2.74 1.42-3.16.5-3.16-.5-2.75-1.42-2.15-2.16-1.42-2.75-.5-3.15.5-3.16 1.42-2.75 2.16-2.17 2.76-1.42 3.16-.5z" fill="#fff"/>
    <path d="M811.4-741.9l3.02 1.57 2.38 2.38 1.57 3.02.53 3.32-.98.15.98.16-.53 3.33-1.57 3.03-2.38 2.38-3.03 1.56-3.48.57-3.48-.57-3.03-1.56-2.37-2.38-1.57-3.03-.56-3.48.56-3.48 1.57-3.02 2.38-2.38 3.04-1.57 3.48-.56zm-6.33 1.92l-2.46 1.28-1.94 1.94-1.27 2.47-.47 2.85.46 2.85 1.26 2.46 1.95 1.95 2.47 1.28 2.85.46 2.84-.46 2.47-1.27 1.94-1.94 1.28-2.46.45-2.85-.45-2.84-1.28-2.46-1.94-1.94-2.47-1.28-2.84-.45z"/>
    <use xlink:href="#a" transform="matrix(1,0,0,1,748.0833333333333,-772.8) translate(0.005000000000000782 14.4)"/>
    <path d="M977.45-765H961l-1.27.2-2 1.46-.8 2.5V-701h-2v-60.16l1.1-3.4 2.9-2.13 1.9-.3h16.62zm82.3-5.92l-.3 1.9-2.13 2.9-3.4 1.12h-16.52v-2h16.2l2.5-.82 1.45-2 .2-1.26V-807h2z"/>
    <path d="M966.8-701.9l-1.78.9-9.1-18.2-9.1 18.2-1.8-.9 10.9-21.78z"/>
    <path d="M959.08-740.94l2.74 1.42 2.17 2.17 1.4 2.74.52 3.15-.5 3.16-1.43 2.76-2.18 2.16-2.74 1.42-3.16.5-3.16-.5-2.75-1.42-2.15-2.16-1.42-2.75-.5-3.15.5-3.16 1.42-2.75 2.16-2.17 2.76-1.42 3.16-.5z" fill="#fff"/>
    <path d="M959.4-741.9l3.02 1.57 2.38 2.38 1.57 3.02.53 3.32-.98.15.98.16-.53 3.33-1.57 3.03-2.38 2.38-3.03 1.56-3.48.57-3.48-.57-3.03-1.56-2.37-2.38-1.57-3.03-.56-3.48.56-3.48 1.57-3.02 2.38-2.38 3.04-1.57 3.48-.56zm-6.33 1.92l-2.46 1.28-1.94 1.94-1.27 2.47-.47 2.85.46 2.85 1.26 2.46 1.95 1.95 2.47 1.28 2.85.46 2.84-.46 2.47-1.27 1.94-1.94 1.28-2.46.45-2.85-.45-2.84-1.28-2.46-1.94-1.94-2.47-1.28-2.84-.45z"/>
    <path fill="#fff"/>
    <path d="M1068.75-796h-20v-2h20z"/>
    <path fill="#fff"/>
    <path d="M1068.75-786h-20v-2h20z"/>
    <use xlink:href="#b" transform="matrix(1,0,0,1,977.4451500535906,-776.8) translate(0.004999999999999005 14.4)"/>
    <path d="M877.25-477h-2v-32.2h2zm0-53.8h-2V-563h2z"/>
    <path fill="#fff"/>
    <path d="M886.25-552h-20v-2h20z"/>
    <path fill="#fff"/>
    <path d="M886.25-542h-20v-2h20zM887.14-477.9l-1.78.9-9.1-18.2-9.12 18.2-1.78-.9 10.9-21.78z"/>
    <path fill="#fff"/>
    <path d="M886.25-496.45h-20v-2h20z"/>
    <use xlink:href="#a" transform="matrix(1,0,0,1,861.75,-530.8) translate(0.005000000000000782 14.4)"/>
    <path d="M726.25-700h300v136h-300z" fill="#fff"/>
    <path d="M726.25-700h300v40h-300z" fill="#ccc"/>
    <path d="M726.25-700h300v136h-300zM726.25-660h300M876.25-660v96" stroke="#000" stroke-width="2" fill="none"/>
    <use xlink:href="#c" transform="matrix(1,0,0,1,736.25,-700) translate(126.05 23.6)"/>
    <use xlink:href="#d" transform="matrix(1,0,0,1,731.25,-657.5) translate(62.025 17.1)"/>
    <use xlink:href="#e" transform="matrix(1,0,0,1,881.25,-657.5) translate(60.525 17.1)"/>
    <use xlink:href="#f" transform="matrix(1,0,0,1,731.25,-625.5) translate(36.025 17.1)"/>
    <use xlink:href="#g" transform="matrix(1,0,0,1,881.25,-625.5) translate(46.55 17.1)"/>
    <use xlink:href="#h" transform="matrix(1,0,0,1,731.25,-593.5) translate(25.099999999999994 17.1)"/>
    <use xlink:href="#i" transform="matrix(1,0,0,1,881.25,-593.5) translate(38.025 17.1)"/>
    <path d="M768.75-476h215v72h-215z" fill="#fff"/>
    <path d="M768.75-476h215v40h-215z" fill="#ccc"/>
    <path d="M768.75-476h215v72h-215zM768.75-436h215M876.25-436v32" stroke="#000" stroke-width="2" fill="none"/>
    <use xlink:href="#j" transform="matrix(1,0,0,1,778.75,-476) translate(59.075 23.6)"/>
    <path d="M951.25-880h215v72h-215z" fill="#fff"/>
    <path d="M951.25-880h215v40h-215z" fill="#ccc"/>
    <path d="M951.25-880h215v72h-215zM951.25-840h215M1058.75-840v32" stroke="#000" stroke-width="2" fill="none"/>
    <use xlink:href="#k" transform="matrix(1,0,0,1,961.25,-880) translate(66 23.6)"/>
    <path d="M593.75-880h215v72h-215z" fill="#fff"/>
    <path d="M593.75-880h215v40h-215z" fill="#ccc"/>
    <path d="M593.75-880h215v72h-215zM593.75-840h215M701.25-840v32" stroke="#000" stroke-width="2" fill="none"/>
    <use xlink:href="#l" transform="matrix(1,0,0,1,603.75,-880) translate(74.525 23.6)"/>
    <defs>
    <path d="M106-169C34-169 62-67 57 0H25v-261h32l-1 103c12-21 28-36 61-36 89 0 53 116 60 194h-32v-121c2-32-8-49-39-48" id="m"/>
    <path d="M141-36C126-15 110 5 73 4 37 3 15-17 15-53c-1-64 63-63 125-63 3-35-9-54-41-54-24 1-41 7-42 31l-33-3c5-37 33-52 76-52 45 0 72 20 72 64v82c-1 20 7 32 28 27v20c-31 9-61-2-59-35zM48-53c0 20 12 33 32 33 41-3 63-29 60-74-43 2-92-5-92 41" id="n"/>
    <path d="M135-143c-3-34-86-38-87 0 15 53 115 12 119 90S17 21 10-45l28-5c4 36 97 45 98 0-10-56-113-15-118-90-4-57 82-63 122-42 12 7 21 19 24 35" id="o"/>
    <g id="a">
        <use transform="matrix(0.05,0,0,0.05,0,0)" xlink:href="#m"/>
        <use transform="matrix(0.05,0,0,0.05,10,0)" xlink:href="#n"/>
        <use transform="matrix(0.05,0,0,0.05,20,0)" xlink:href="#o"/>
    </g>
    <path d="M96-169c-40 0-48 33-48 73s9 75 48 75c24 0 41-14 43-38l32 2c-6 37-31 61-74 61-59 0-76-41-82-99-10-93 101-131 147-64 4 7 5 14 7 22l-32 3c-4-21-16-35-41-35" id="p"/>
    <path d="M114-163C36-179 61-72 57 0H25l-1-190h30c1 12-1 29 2 39 6-27 23-49 58-41v29" id="q"/>
    <path d="M100-194c63 0 86 42 84 106H49c0 40 14 67 53 68 26 1 43-12 49-29l28 8c-11 28-37 45-77 45C44 4 14-33 15-96c1-61 26-98 85-98zm52 81c6-60-76-77-97-28-3 7-6 17-6 28h103" id="r"/>
    <path d="M59-47c-2 24 18 29 38 22v24C64 9 27 4 27-40v-127H5v-23h24l9-43h21v43h35v23H59v120" id="s"/>
    <path d="M85-194c31 0 48 13 60 33l-1-100h32l1 261h-30c-2-10 0-23-3-31C134-8 116 4 85 4 32 4 16-35 15-94c0-66 23-100 70-100zm9 24c-40 0-46 34-46 75 0 40 6 74 45 74 42 0 51-32 51-76 0-42-9-74-50-73" id="t"/>
    <g id="b">
        <use transform="matrix(0.05,0,0,0.05,0,0)" xlink:href="#p"/>
        <use transform="matrix(0.05,0,0,0.05,9,0)" xlink:href="#q"/>
        <use transform="matrix(0.05,0,0,0.05,14.949999999999998,0)" xlink:href="#r"/>
        <use transform="matrix(0.05,0,0,0.05,24.95,0)" xlink:href="#n"/>
        <use transform="matrix(0.05,0,0,0.05,34.95,0)" xlink:href="#s"/>
        <use transform="matrix(0.05,0,0,0.05,39.95,0)" xlink:href="#r"/>
        <use transform="matrix(0.05,0,0,0.05,49.95,0)" xlink:href="#t"/>
    </g>
    <path d="M115-194c55 1 70 41 70 98S169 2 115 4C84 4 66-9 55-30l1 105H24l-1-265h31l2 30c10-21 28-34 59-34zm-8 174c40 0 45-34 45-75s-6-73-45-74c-42 0-51 32-51 76 0 43 10 73 51 73" id="u"/>
    <path d="M100-194c62-1 85 37 85 99 1 63-27 99-86 99S16-35 15-95c0-66 28-99 85-99zM99-20c44 1 53-31 53-75 0-43-8-75-51-75s-53 32-53 75 10 74 51 75" id="v"/>
    <path d="M24 0v-261h32V0H24" id="w"/>
    <g id="c">
        <use transform="matrix(0.05,0,0,0.05,0,0)" xlink:href="#u"/>
        <use transform="matrix(0.05,0,0,0.05,10,0)" xlink:href="#v"/>
        <use transform="matrix(0.05,0,0,0.05,20,0)" xlink:href="#w"/>
        <use transform="matrix(0.05,0,0,0.05,23.95,0)" xlink:href="#w"/>
    </g>
    <path d="M25-224v-37h50v37H25zM25 0v-190h50V0H25" id="x"/>
    <path d="M88-194c31-1 46 15 58 34l-1-101h50l1 261h-48c-2-10 0-23-3-31C134-8 116 4 84 4 32 4 16-41 15-95c0-56 19-97 73-99zm17 164c33 0 40-30 41-66 1-37-9-64-41-64s-38 30-39 65c0 43 13 65 39 65" id="y"/>
    <g id="d">
        <use transform="matrix(0.05,0,0,0.05,0,0)" xlink:href="#x"/>
        <use transform="matrix(0.05,0,0,0.05,5,0)" xlink:href="#y"/>
        <path d="M-.9.97h17.75v1.9H-.9z"/>
    </g>
    <path d="M24-231v-30h32v30H24zM24 0v-190h32V0H24" id="z"/>
    <path d="M117-194c89-4 53 116 60 194h-32v-121c0-31-8-49-39-48C34-167 62-67 57 0H25l-1-190h30c1 10-1 24 2 32 11-22 29-35 61-36" id="A"/>
    <g id="e">
        <use transform="matrix(0.05,0,0,0.05,0,0)" xlink:href="#z"/>
        <use transform="matrix(0.05,0,0,0.05,3.95,0)" xlink:href="#A"/>
        <use transform="matrix(0.05,0,0,0.05,13.949999999999998,0)" xlink:href="#s"/>
    </g>
    <path d="M145-31C134-9 116 4 85 4 32 4 16-35 15-94c0-59 17-99 70-100 32-1 48 14 60 33 0-11-1-24 2-32h30l-1 268h-32zM93-21c41 0 51-33 51-76s-8-73-50-73c-40 0-46 35-46 75s5 74 45 74" id="B"/>
    <path d="M84 4C-5 8 30-112 23-190h32v120c0 31 7 50 39 49 72-2 45-101 50-169h31l1 190h-30c-1-10 1-25-2-33-11 22-28 36-60 37" id="C"/>
    <g id="f">
        <use transform="matrix(0.05,0,0,0.05,0,0)" xlink:href="#B"/>
        <use transform="matrix(0.05,0,0,0.05,10,0)" xlink:href="#C"/>
        <use transform="matrix(0.05,0,0,0.05,20,0)" xlink:href="#r"/>
        <use transform="matrix(0.05,0,0,0.05,30,0)" xlink:href="#o"/>
        <use transform="matrix(0.05,0,0,0.05,39,0)" xlink:href="#s"/>
        <use transform="matrix(0.05,0,0,0.05,44,0)" xlink:href="#z"/>
        <use transform="matrix(0.05,0,0,0.05,47.95,0)" xlink:href="#v"/>
        <use transform="matrix(0.05,0,0,0.05,57.95,0)" xlink:href="#A"/>
    </g>
    <path d="M185-189c-5-48-123-54-124 2 14 75 158 14 163 119 3 78-121 87-175 55-17-10-28-26-33-46l33-7c5 56 141 63 141-1 0-78-155-14-162-118-5-82 145-84 179-34 5 7 8 16 11 25" id="D"/>
    <path d="M177-190C167-65 218 103 67 71c-23-6-38-20-44-43l32-5c15 47 100 32 89-28v-30C133-14 115 1 83 1 29 1 15-40 15-95c0-56 16-97 71-98 29-1 48 16 59 35 1-10 0-23 2-32h30zM94-22c36 0 50-32 50-73 0-42-14-75-50-75-39 0-46 34-46 75s6 73 46 73" id="E"/>
    <g id="g">
        <use transform="matrix(0.05,0,0,0.05,0,0)" xlink:href="#D"/>
        <use transform="matrix(0.05,0,0,0.05,12,0)" xlink:href="#s"/>
        <use transform="matrix(0.05,0,0,0.05,17,0)" xlink:href="#q"/>
        <use transform="matrix(0.05,0,0,0.05,22.95,0)" xlink:href="#z"/>
        <use transform="matrix(0.05,0,0,0.05,26.899999999999995,0)" xlink:href="#A"/>
        <use transform="matrix(0.05,0,0,0.05,36.9,0)" xlink:href="#E"/>
    </g>
    <path d="M210-169c-67 3-38 105-44 169h-31v-121c0-29-5-50-35-48C34-165 62-65 56 0H25l-1-190h30c1 10-1 24 2 32 10-44 99-50 107 0 11-21 27-35 58-36 85-2 47 119 55 194h-31v-121c0-29-5-49-35-48" id="F"/>
    <g id="h">
        <use transform="matrix(0.05,0,0,0.05,0,0)" xlink:href="#F"/>
        <use transform="matrix(0.05,0,0,0.05,14.950000000000001,0)" xlink:href="#C"/>
        <use transform="matrix(0.05,0,0,0.05,24.950000000000003,0)" xlink:href="#w"/>
        <use transform="matrix(0.05,0,0,0.05,28.900000000000002,0)" xlink:href="#s"/>
        <use transform="matrix(0.05,0,0,0.05,33.900000000000006,0)" xlink:href="#z"/>
        <use transform="matrix(0.05,0,0,0.05,37.85000000000001,0)" xlink:href="#p"/>
        <use transform="matrix(0.05,0,0,0.05,46.85000000000001,0)" xlink:href="#m"/>
        <use transform="matrix(0.05,0,0,0.05,56.85,0)" xlink:href="#v"/>
        <use transform="matrix(0.05,0,0,0.05,66.85000000000001,0)" xlink:href="#z"/>
        <use transform="matrix(0.05,0,0,0.05,70.80000000000001,0)" xlink:href="#p"/>
        <use transform="matrix(0.05,0,0,0.05,79.80000000000001,0)" xlink:href="#r"/>
    </g>
    <path d="M115-194c53 0 69 39 70 98 0 66-23 100-70 100C84 3 66-7 56-30L54 0H23l1-261h32v101c10-23 28-34 59-34zm-8 174c40 0 45-34 45-75 0-40-5-75-45-74-42 0-51 32-51 76 0 43 10 73 51 73" id="G"/>
    <g id="i">
        <use transform="matrix(0.05,0,0,0.05,0,0)" xlink:href="#G"/>
        <use transform="matrix(0.05,0,0,0.05,10,0)" xlink:href="#v"/>
        <use transform="matrix(0.05,0,0,0.05,20,0)" xlink:href="#v"/>
        <use transform="matrix(0.05,0,0,0.05,30,0)" xlink:href="#w"/>
        <use transform="matrix(0.05,0,0,0.05,33.95,0)" xlink:href="#r"/>
        <use transform="matrix(0.05,0,0,0.05,43.95,0)" xlink:href="#n"/>
        <use transform="matrix(0.05,0,0,0.05,53.95,0)" xlink:href="#A"/>
    </g>
    <g id="j">
        <use transform="matrix(0.05,0,0,0.05,0,0)" xlink:href="#u"/>
        <use transform="matrix(0.05,0,0,0.05,10,0)" xlink:href="#v"/>
        <use transform="matrix(0.05,0,0,0.05,20,0)" xlink:href="#w"/>
        <use transform="matrix(0.05,0,0,0.05,23.95,0)" xlink:href="#w"/>
        <use transform="matrix(0.05,0,0,0.05,27.899999999999995,0)" xlink:href="#v"/>
        <use transform="matrix(0.05,0,0,0.05,37.9,0)" xlink:href="#u"/>
        <use transform="matrix(0.05,0,0,0.05,47.9,0)" xlink:href="#s"/>
        <use transform="matrix(0.05,0,0,0.05,52.900000000000006,0)" xlink:href="#z"/>
        <use transform="matrix(0.05,0,0,0.05,56.85,0)" xlink:href="#v"/>
        <use transform="matrix(0.05,0,0,0.05,66.85,0)" xlink:href="#A"/>
    </g>
    <g id="k">
        <use transform="matrix(0.05,0,0,0.05,0,0)" xlink:href="#n"/>
        <use transform="matrix(0.05,0,0,0.05,10,0)" xlink:href="#p"/>
        <use transform="matrix(0.05,0,0,0.05,19,0)" xlink:href="#p"/>
        <use transform="matrix(0.05,0,0,0.05,28,0)" xlink:href="#v"/>
        <use transform="matrix(0.05,0,0,0.05,38,0)" xlink:href="#C"/>
        <use transform="matrix(0.05,0,0,0.05,48,0)" xlink:href="#A"/>
        <use transform="matrix(0.05,0,0,0.05,58,0)" xlink:href="#s"/>
    </g>
    <g id="l">
        <use transform="matrix(0.05,0,0,0.05,0,0)" xlink:href="#E"/>
        <use transform="matrix(0.05,0,0,0.05,10,0)" xlink:href="#q"/>
        <use transform="matrix(0.05,0,0,0.05,15.949999999999998,0)" xlink:href="#v"/>
        <use transform="matrix(0.05,0,0,0.05,25.950000000000003,0)" xlink:href="#C"/>
        <use transform="matrix(0.05,0,0,0.05,35.95,0)" xlink:href="#u"/>
    </g>
    </defs>
</g>
</svg>
