<?xml version="1.0"?>
<svg xmlns="http://www.w3.org/2000/svg" xmlns:xlink="http://www.w3.org/1999/xlink" xmlns:lucid="lucid" width="1760" height="1360">
<g transform="translate(0 0)" lucid:page-tab-id="g-k4xBc4oIQz">
    <path d="M710 652.58h300v104H710z" fill="#fff"/>
    <path d="M710 652.58h300v40H710z" fill="#ccc"/>
    <path d="M710 652.58h300v104H710zM710 692.58h300M860 692.58v64" stroke="#000" stroke-width="2" fill="none"/>
    <use xlink:href="#a" transform="matrix(1,0,0,1,720,652.5833333333339) translate(117.025 23.6)"/>
    <use xlink:href="#b" transform="matrix(1,0,0,1,715,695.0833333333339) translate(62.025 17.1)"/>
    <use xlink:href="#c" transform="matrix(1,0,0,1,865,695.0833333333339) translate(60.525 17.1)"/>
    <use xlink:href="#d" transform="matrix(1,0,0,1,715,727.0833333333339) translate(47.525 17.1)"/>
    <use xlink:href="#e" transform="matrix(1,0,0,1,865,727.0833333333339) translate(46.55 17.1)"/>
    <path d="M871 651.58h-2v-28.5h2zm0-50.1h-2V573h2z"/>
    <path d="M880.9 573.9L870 595.67l-10.9-21.8 1.8-.88 9.1 18.2 9.1-18.2z"/>
    <path fill="#fff"/>
    <path d="M880 594.45h-20v-2h20z"/>
    <path fill="#fff"/>
    <path d="M880 642.58h-20v-2h20z"/>
    <path fill="#fff"/>
    <path d="M880 632.58h-20v-2h20z"/>
    <use xlink:href="#f" transform="matrix(1,0,0,1,828.525,601.491666666667) translate(0.005000000000002558 14.4)"/>
    <use xlink:href="#g" transform="matrix(1,0,0,1,828.525,601.491666666667) translate(67.95500000000001 14.4)"/>
    <path d="M751 872h-2v-46.4h2zm0-68h-2v-46.42h2z"/>
    <path fill="#fff"/>
    <path d="M760 768.58h-20v-2h20z"/>
    <path fill="#fff"/>
    <path d="M760 778.58h-20v-2h20zM760.9 871.1l-1.8.9-9.1-18.2-9.1 18.2-1.8-.9 10.9-21.78z"/>
    <path d="M753.16 832.06l2.75 1.42 2.17 2.17 1.42 2.74.5 3.15-.5 3.16-1.43 2.76-2.16 2.16-2.74 1.42-3.16.5-3.16-.5-2.75-1.42-2.17-2.16-1.42-2.75-.5-3.15.5-3.16 1.43-2.75 2.16-2.17 2.74-1.42 3.16-.5z" fill="#fff"/>
    <path d="M753.48 831.1l3.02 1.56 2.4 2.4 1.55 3 .54 3.33-1 .15 1 .16-.55 3.33-1.56 3.02-2.4 2.4-3.02 1.55-3.48.56-3.48-.56-3.02-1.56-2.4-2.4-1.55-3-.56-3.5.55-3.47 1.56-3.02 2.4-2.4 3.02-1.55 3.48-.56zm-6.32 1.92l-2.47 1.28-1.95 1.94-1.28 2.47-.46 2.85.47 2.85 1.28 2.46 1.94 1.95 2.46 1.28 2.84.46 2.84-.46 2.47-1.27 1.95-1.94 1.28-2.46.46-2.85-.47-2.84-1.28-2.46-1.94-1.94-2.46-1.28-2.84-.46z"/>
    <use xlink:href="#h" transform="matrix(1,0,0,1,735.5000000000007,803.991666666667) translate(0.005000000000000782 14.4)"/>
    <path d="M971 872h-2v-46.4h2zm0-68h-2v-46.42h2z"/>
    <path fill="#fff"/>
    <path d="M980 768.58h-20v-2h20z"/>
    <path fill="#fff"/>
    <path d="M980 778.58h-20v-2h20zM980.9 871.1l-1.8.9-9.1-18.2-9.1 18.2-1.8-.9 10.9-21.78z"/>
    <use xlink:href="#h" transform="matrix(1,0,0,1,955.4999999999994,803.991666666667) translate(0.005000000000000782 14.4)"/>
    <path d="M870 873h200v72H870z" fill="#fff"/>
    <path d="M870 873h200v40H870z" fill="#ccc"/>
    <path d="M870 873h200v72H870zM870 913h200M970 913v32" stroke="#000" stroke-width="2" fill="none"/>
    <use xlink:href="#i" transform="matrix(1,0,0,1,880,873) translate(68 23.6)"/>
    <path d="M640 873h200v72H640z" fill="#fff"/>
    <path d="M640 873h200v40H640z" fill="#ccc"/>
    <path d="M640 873h200v72H640zM640 913h200M740 913v32" stroke="#000" stroke-width="2" fill="none"/>
    <use xlink:href="#j" transform="matrix(1,0,0,1,650,873) translate(76.05 23.6)"/>
    <path d="M770 500h200v72H770z" fill="#fff"/>
    <path d="M770 500h200v40H770z" fill="#ccc"/>
    <path d="M770 500h200v72H770zM770 540h200M870 540v32" stroke="#000" stroke-width="2" fill="none"/>
    <use xlink:href="#k" transform="matrix(1,0,0,1,780,500) translate(17.625 23.6)"/>
    <path d="M870 873h200v72H870z" fill="#fff"/>
    <path d="M870 873h200v40H870z" fill="#ccc"/>
    <path d="M870 873h200v72H870zM870 913h200M970 913v32" stroke="#000" stroke-width="2" fill="none"/>
    <use xlink:href="#i" transform="matrix(1,0,0,1,880,873) translate(68 23.6)"/>
    <defs>
    <path d="M177-190C167-65 218 103 67 71c-23-6-38-20-44-43l32-5c15 47 100 32 89-28v-30C133-14 115 1 83 1 29 1 15-40 15-95c0-56 16-97 71-98 29-1 48 16 59 35 1-10 0-23 2-32h30zM94-22c36 0 50-32 50-73 0-42-14-75-50-75-39 0-46 34-46 75s6 73 46 73" id="l"/>
    <path d="M114-163C36-179 61-72 57 0H25l-1-190h30c1 12-1 29 2 39 6-27 23-49 58-41v29" id="m"/>
    <path d="M100-194c62-1 85 37 85 99 1 63-27 99-86 99S16-35 15-95c0-66 28-99 85-99zM99-20c44 1 53-31 53-75 0-43-8-75-51-75s-53 32-53 75 10 74 51 75" id="n"/>
    <path d="M84 4C-5 8 30-112 23-190h32v120c0 31 7 50 39 49 72-2 45-101 50-169h31l1 190h-30c-1-10 1-25-2-33-11 22-28 36-60 37" id="o"/>
    <path d="M115-194c55 1 70 41 70 98S169 2 115 4C84 4 66-9 55-30l1 105H24l-1-265h31l2 30c10-21 28-34 59-34zm-8 174c40 0 45-34 45-75s-6-73-45-74c-42 0-51 32-51 76 0 43 10 73 51 73" id="p"/>
    <g id="a">
        <use transform="matrix(0.05,0,0,0.05,0,0)" xlink:href="#l"/>
        <use transform="matrix(0.05,0,0,0.05,10,0)" xlink:href="#m"/>
        <use transform="matrix(0.05,0,0,0.05,15.949999999999998,0)" xlink:href="#n"/>
        <use transform="matrix(0.05,0,0,0.05,25.950000000000003,0)" xlink:href="#o"/>
        <use transform="matrix(0.05,0,0,0.05,35.95,0)" xlink:href="#p"/>
    </g>
    <path d="M25-224v-37h50v37H25zM25 0v-190h50V0H25" id="q"/>
    <path d="M88-194c31-1 46 15 58 34l-1-101h50l1 261h-48c-2-10 0-23-3-31C134-8 116 4 84 4 32 4 16-41 15-95c0-56 19-97 73-99zm17 164c33 0 40-30 41-66 1-37-9-64-41-64s-38 30-39 65c0 43 13 65 39 65" id="r"/>
    <g id="b">
        <use transform="matrix(0.05,0,0,0.05,0,0)" xlink:href="#q"/>
        <use transform="matrix(0.05,0,0,0.05,5,0)" xlink:href="#r"/>
        <path d="M-.9.97h17.75v1.9H-.9z"/>
    </g>
    <path d="M24-231v-30h32v30H24zM24 0v-190h32V0H24" id="s"/>
    <path d="M117-194c89-4 53 116 60 194h-32v-121c0-31-8-49-39-48C34-167 62-67 57 0H25l-1-190h30c1 10-1 24 2 32 11-22 29-35 61-36" id="t"/>
    <path d="M59-47c-2 24 18 29 38 22v24C64 9 27 4 27-40v-127H5v-23h24l9-43h21v43h35v23H59v120" id="u"/>
    <g id="c">
        <use transform="matrix(0.05,0,0,0.05,0,0)" xlink:href="#s"/>
        <use transform="matrix(0.05,0,0,0.05,3.95,0)" xlink:href="#t"/>
        <use transform="matrix(0.05,0,0,0.05,13.949999999999998,0)" xlink:href="#u"/>
    </g>
    <path d="M141-36C126-15 110 5 73 4 37 3 15-17 15-53c-1-64 63-63 125-63 3-35-9-54-41-54-24 1-41 7-42 31l-33-3c5-37 33-52 76-52 45 0 72 20 72 64v82c-1 20 7 32 28 27v20c-31 9-61-2-59-35zM48-53c0 20 12 33 32 33 41-3 63-29 60-74-43 2-92-5-92 41" id="v"/>
    <path d="M210-169c-67 3-38 105-44 169h-31v-121c0-29-5-50-35-48C34-165 62-65 56 0H25l-1-190h30c1 10-1 24 2 32 10-44 99-50 107 0 11-21 27-35 58-36 85-2 47 119 55 194h-31v-121c0-29-5-49-35-48" id="w"/>
    <path d="M100-194c63 0 86 42 84 106H49c0 40 14 67 53 68 26 1 43-12 49-29l28 8c-11 28-37 45-77 45C44 4 14-33 15-96c1-61 26-98 85-98zm52 81c6-60-76-77-97-28-3 7-6 17-6 28h103" id="x"/>
    <g id="d">
        <use transform="matrix(0.05,0,0,0.05,0,0)" xlink:href="#t"/>
        <use transform="matrix(0.05,0,0,0.05,10,0)" xlink:href="#v"/>
        <use transform="matrix(0.05,0,0,0.05,20,0)" xlink:href="#w"/>
        <use transform="matrix(0.05,0,0,0.05,34.95,0)" xlink:href="#x"/>
    </g>
    <path d="M185-189c-5-48-123-54-124 2 14 75 158 14 163 119 3 78-121 87-175 55-17-10-28-26-33-46l33-7c5 56 141 63 141-1 0-78-155-14-162-118-5-82 145-84 179-34 5 7 8 16 11 25" id="y"/>
    <g id="e">
        <use transform="matrix(0.05,0,0,0.05,0,0)" xlink:href="#y"/>
        <use transform="matrix(0.05,0,0,0.05,12,0)" xlink:href="#u"/>
        <use transform="matrix(0.05,0,0,0.05,17,0)" xlink:href="#m"/>
        <use transform="matrix(0.05,0,0,0.05,22.95,0)" xlink:href="#s"/>
        <use transform="matrix(0.05,0,0,0.05,26.899999999999995,0)" xlink:href="#t"/>
        <use transform="matrix(0.05,0,0,0.05,36.9,0)" xlink:href="#l"/>
    </g>
    <path d="M115-194c53 0 69 39 70 98 0 66-23 100-70 100C84 3 66-7 56-30L54 0H23l1-261h32v101c10-23 28-34 59-34zm-8 174c40 0 45-34 45-75 0-40-5-75-45-74-42 0-51 32-51 76 0 43 10 73 51 73" id="z"/>
    <path d="M24 0v-261h32V0H24" id="A"/>
    <path d="M135-143c-3-34-86-38-87 0 15 53 115 12 119 90S17 21 10-45l28-5c4 36 97 45 98 0-10-56-113-15-118-90-4-57 82-63 122-42 12 7 21 19 24 35" id="B"/>
    <g id="f">
        <use transform="matrix(0.05,0,0,0.05,0,0)" xlink:href="#z"/>
        <use transform="matrix(0.05,0,0,0.05,10,0)" xlink:href="#x"/>
        <use transform="matrix(0.05,0,0,0.05,20,0)" xlink:href="#A"/>
        <use transform="matrix(0.05,0,0,0.05,23.95,0)" xlink:href="#n"/>
        <use transform="matrix(0.05,0,0,0.05,33.95,0)" xlink:href="#t"/>
        <use transform="matrix(0.05,0,0,0.05,43.95,0)" xlink:href="#l"/>
        <use transform="matrix(0.05,0,0,0.05,53.95,0)" xlink:href="#B"/>
    </g>
    <g id="g">
        <use transform="matrix(0.05,0,0,0.05,0,0)" xlink:href="#u"/>
        <use transform="matrix(0.05,0,0,0.05,5,0)" xlink:href="#n"/>
    </g>
    <path d="M106-169C34-169 62-67 57 0H25v-261h32l-1 103c12-21 28-36 61-36 89 0 53 116 60 194h-32v-121c2-32-8-49-39-48" id="C"/>
    <g id="h">
        <use transform="matrix(0.05,0,0,0.05,0,0)" xlink:href="#C"/>
        <use transform="matrix(0.05,0,0,0.05,10,0)" xlink:href="#v"/>
        <use transform="matrix(0.05,0,0,0.05,20,0)" xlink:href="#B"/>
    </g>
    <path d="M108 0H70L1-190h34L89-25l56-165h34" id="D"/>
    <g id="i">
        <use transform="matrix(0.05,0,0,0.05,0,0)" xlink:href="#x"/>
        <use transform="matrix(0.05,0,0,0.05,10,0)" xlink:href="#D"/>
        <use transform="matrix(0.05,0,0,0.05,19,0)" xlink:href="#x"/>
        <use transform="matrix(0.05,0,0,0.05,29,0)" xlink:href="#t"/>
        <use transform="matrix(0.05,0,0,0.05,39,0)" xlink:href="#u"/>
    </g>
    <g id="j">
        <use transform="matrix(0.05,0,0,0.05,0,0)" xlink:href="#p"/>
        <use transform="matrix(0.05,0,0,0.05,10,0)" xlink:href="#n"/>
        <use transform="matrix(0.05,0,0,0.05,20,0)" xlink:href="#A"/>
        <use transform="matrix(0.05,0,0,0.05,23.95,0)" xlink:href="#A"/>
    </g>
    <g id="k">
        <use transform="matrix(0.05,0,0,0.05,0,0)" xlink:href="#l"/>
        <use transform="matrix(0.05,0,0,0.05,10,0)" xlink:href="#m"/>
        <use transform="matrix(0.05,0,0,0.05,15.949999999999998,0)" xlink:href="#n"/>
        <use transform="matrix(0.05,0,0,0.05,25.950000000000003,0)" xlink:href="#o"/>
        <use transform="matrix(0.05,0,0,0.05,35.95,0)" xlink:href="#p"/>
        <use transform="matrix(0.05,0,0,0.05,45.95,0)" xlink:href="#w"/>
        <use transform="matrix(0.05,0,0,0.05,60.900000000000006,0)" xlink:href="#x"/>
        <use transform="matrix(0.05,0,0,0.05,70.9,0)" xlink:href="#w"/>
        <use transform="matrix(0.05,0,0,0.05,85.85000000000001,0)" xlink:href="#z"/>
        <use transform="matrix(0.05,0,0,0.05,95.85000000000001,0)" xlink:href="#x"/>
        <use transform="matrix(0.05,0,0,0.05,105.85000000000001,0)" xlink:href="#m"/>
        <use transform="matrix(0.05,0,0,0.05,111.80000000000001,0)" xlink:href="#B"/>
        <use transform="matrix(0.05,0,0,0.05,120.80000000000001,0)" xlink:href="#C"/>
        <use transform="matrix(0.05,0,0,0.05,130.8,0)" xlink:href="#s"/>
        <use transform="matrix(0.05,0,0,0.05,134.75,0)" xlink:href="#p"/>
    </g>
    </defs>
</g>
</svg>
