<?xml version="1.0"?>
<svg xmlns="http://www.w3.org/2000/svg" xmlns:xlink="http://www.w3.org/1999/xlink" xmlns:lucid="lucid" width="1760" height="1360">
<g transform="translate(0 0)" lucid:page-tab-id="i-k4c81HlthF">
    <path d="M920 540h300v232H920z" fill="#fff"/>
    <path d="M920 540h300v40H920z" fill="#ccc"/>
    <path d="M920 540h300v232H920zM920 580h300M1070 580v192" stroke="#000" stroke-width="2" fill="none"/>
    <use xlink:href="#a" transform="matrix(1,0,0,1,930,540) translate(118 23.6)"/>
    <use xlink:href="#b" transform="matrix(1,0,0,1,925,582.5) translate(62.025 17.1)"/>
    <use xlink:href="#c" transform="matrix(1,0,0,1,1075,582.5) translate(60.525 17.1)"/>
    <use xlink:href="#d" transform="matrix(1,0,0,1,925,614.5) translate(56.05 17.1)"/>
    <use xlink:href="#e" transform="matrix(1,0,0,1,1075,614.5) translate(46.55 17.1)"/>
    <use xlink:href="#f" transform="matrix(1,0,0,1,925,646.5) translate(35.575 17.1)"/>
    <use xlink:href="#g" transform="matrix(1,0,0,1,1075,646.5) translate(50.4 17.1)"/>
    <use xlink:href="#h" transform="matrix(1,0,0,1,925,678.5) translate(38.05 17.1)"/>
    <use xlink:href="#i" transform="matrix(1,0,0,1,1075,678.5) translate(50.525 17.1)"/>
    <use xlink:href="#j" transform="matrix(1,0,0,1,925,710.5) translate(58.025 17.1)"/>
    <use xlink:href="#k" transform="matrix(1,0,0,1,1075,710.5) translate(43.025 17.1)"/>
    <use xlink:href="#l" transform="matrix(1,0,0,1,925,742.5) translate(60.525 17.1)"/>
    <use xlink:href="#k" transform="matrix(1,0,0,1,1075,742.5) translate(43.025 17.1)"/>
    <path d="M790.02 576.84H721v-2h69.02zm128.98 0h-69.02v-2H919z"/>
    <path fill="#fff"/>
    <path d="M732 585.84h-2v-20h2z"/>
    <path fill="#fff"/>
    <path d="M742 585.84h-2v-20h2zM919 566.73l-18.2 9.1 18.2 9.12-.9 1.78-21.78-10.9 21.8-10.88z"/>
    <path d="M891.7 566.35l2.76 1.42 2.16 2.16 1.42 2.75.5 3.16-.5 3.16-1.42 2.75-2.16 2.16-2.75 1.43-3.15.5-3.16-.5-2.75-1.42-2.17-2.15-1.42-2.75-.5-3.16.5-3.16 1.42-2.75 2.17-2.16 2.74-1.42 3.15-.5z" fill="#fff"/>
    <path d="M892.03 565.4l3.03 1.55 2.38 2.4 1.56 3 .54 3.33-1 .16 1 .16-.54 3.32-1.56 3.02-2.38 2.4-3.03 1.55-3.48.55-3.48-.56-3.02-1.57-2.38-2.4-1.57-3-.56-3.5.56-3.47 1.57-3.02 2.38-2.4 3.02-1.55 3.48-.57zm-6.32 1.9l-2.46 1.3-1.94 1.93-1.28 2.47-.45 2.84.45 2.84 1.28 2.47 1.94 1.94 2.47 1.27 2.85.46 2.85-.46 2.46-1.28 1.95-1.95 1.28-2.47.46-2.84-.46-2.84-1.27-2.47-1.94-1.94-2.46-1.3-2.85-.45z"/>
    <use xlink:href="#m" transform="matrix(1,0,0,1,790.025,565.0400000000002) translate(0.004999999999999005 14.4)"/>
    <path d="M774.08 613.2H721v-2h53.08zm144.92 0h-53.08v-2H919z"/>
    <path d="M743.68 612.2l-21.8 10.9-.88-1.8 18.2-9.1-18.2-9.1.9-1.8z"/>
    <path d="M754.6 602.7l2.75 1.43 2.17 2.16 1.42 2.74.5 3.16-.5 3.16-1.42 2.75-2.17 2.17-2.74 1.42-3.15.5-3.16-.5-2.76-1.43-2.16-2.16-1.42-2.74-.5-3.16.5-3.16 1.42-2.75 2.16-2.17 2.75-1.42 3.15-.5z" fill="#fff"/>
    <path d="M754.93 601.75l3.02 1.56 2.38 2.4 1.57 3.02.53 3.32-.98.16.98.16-.53 3.32-1.57 3.02-2.38 2.4-3.02 1.55-3.48.56-3.48-.55-3.03-1.56-2.38-2.4-1.56-3.02-.57-3.48.57-3.48 1.56-3.02 2.38-2.4 3.03-1.55 3.48-.56zm-6.33 1.92l-2.46 1.28-1.95 1.94-1.28 2.46-.46 2.84.46 2.84 1.27 2.47 1.94 1.95 2.46 1.28 2.85.46 2.84-.47 2.46-1.28 1.94-1.94 1.28-2.46.45-2.84-.45-2.84-1.28-2.47-1.94-1.95-2.47-1.28-2.85-.46zM919 603.1l-18.2 9.1 18.2 9.1-.9 1.8-21.78-10.9 21.8-10.9z"/>
    <path d="M891.7 602.7l2.76 1.43 2.16 2.16 1.42 2.74.5 3.16-.5 3.16-1.42 2.75-2.16 2.17-2.75 1.42-3.15.5-3.16-.5-2.75-1.43-2.17-2.16-1.42-2.74-.5-3.16.5-3.16 1.42-2.75 2.17-2.17 2.74-1.42 3.15-.5z" fill="#fff"/>
    <path d="M892.03 601.75l3.03 1.56 2.38 2.4 1.56 3.02.54 3.32-1 .16 1 .16-.54 3.32-1.56 3.02-2.38 2.4-3.03 1.55-3.48.56-3.48-.55-3.02-1.56-2.38-2.4-1.57-3.02-.56-3.48.56-3.48 1.57-3.02 2.38-2.4 3.02-1.55 3.48-.56zm-6.32 1.92l-2.46 1.28-1.94 1.94-1.28 2.46-.45 2.84.45 2.84 1.28 2.47 1.94 1.95 2.47 1.28 2.85.46 2.85-.47 2.46-1.28 1.95-1.94 1.28-2.46.46-2.84-.46-2.84-1.27-2.47-1.94-1.95-2.46-1.28-2.85-.46z"/>
    <use xlink:href="#n" transform="matrix(1,0,0,1,774.075,601.3999999999999) translate(0.005000000000002558 14.4)"/>
    <path d="M805.5 700.84H721v-2h84.5zm113.5 0h-84.5v-2H919z"/>
    <path fill="#fff"/>
    <path d="M742 709.84h-2v-20h2zM919 690.73l-18.2 9.1 18.2 9.12-.9 1.78-21.78-10.9 21.8-10.88z"/>
    <use xlink:href="#o" transform="matrix(1,0,0,1,805.5,689.0400000000002) translate(0.005000000000000782 14.4)"/>
    <path d="M520 680h200v72H520z" fill="#fff"/>
    <path d="M520 680h200v40H520z" fill="#ccc"/>
    <path d="M520 680h200v72H520zM520 720h200M620 720v32" stroke="#000" stroke-width="2" fill="none"/>
    <use xlink:href="#p" transform="matrix(1,0,0,1,530,680) translate(67.025 23.6)"/>
    <path d="M520 556h200v72H520z" fill="#fff"/>
    <path d="M520 556h200v40H520z" fill="#ccc"/>
    <path d="M520 556h200v72H520zM520 596h200M620 596v32" stroke="#000" stroke-width="2" fill="none"/>
    <use xlink:href="#q" transform="matrix(1,0,0,1,530,556) translate(58.5 23.6)"/>
    <defs>
    <path d="M100-194c63 0 86 42 84 106H49c0 40 14 67 53 68 26 1 43-12 49-29l28 8c-11 28-37 45-77 45C44 4 14-33 15-96c1-61 26-98 85-98zm52 81c6-60-76-77-97-28-3 7-6 17-6 28h103" id="r"/>
    <path d="M108 0H70L1-190h34L89-25l56-165h34" id="s"/>
    <path d="M117-194c89-4 53 116 60 194h-32v-121c0-31-8-49-39-48C34-167 62-67 57 0H25l-1-190h30c1 10-1 24 2 32 11-22 29-35 61-36" id="t"/>
    <path d="M59-47c-2 24 18 29 38 22v24C64 9 27 4 27-40v-127H5v-23h24l9-43h21v43h35v23H59v120" id="u"/>
    <g id="a">
        <use transform="matrix(0.05,0,0,0.05,0,0)" xlink:href="#r"/>
        <use transform="matrix(0.05,0,0,0.05,10,0)" xlink:href="#s"/>
        <use transform="matrix(0.05,0,0,0.05,19,0)" xlink:href="#r"/>
        <use transform="matrix(0.05,0,0,0.05,29,0)" xlink:href="#t"/>
        <use transform="matrix(0.05,0,0,0.05,39,0)" xlink:href="#u"/>
    </g>
    <path d="M25-224v-37h50v37H25zM25 0v-190h50V0H25" id="v"/>
    <path d="M88-194c31-1 46 15 58 34l-1-101h50l1 261h-48c-2-10 0-23-3-31C134-8 116 4 84 4 32 4 16-41 15-95c0-56 19-97 73-99zm17 164c33 0 40-30 41-66 1-37-9-64-41-64s-38 30-39 65c0 43 13 65 39 65" id="w"/>
    <g id="b">
        <use transform="matrix(0.05,0,0,0.05,0,0)" xlink:href="#v"/>
        <use transform="matrix(0.05,0,0,0.05,5,0)" xlink:href="#w"/>
        <path d="M-.9.97h17.75v1.9H-.9z"/>
    </g>
    <path d="M24-231v-30h32v30H24zM24 0v-190h32V0H24" id="x"/>
    <g id="c">
        <use transform="matrix(0.05,0,0,0.05,0,0)" xlink:href="#x"/>
        <use transform="matrix(0.05,0,0,0.05,3.95,0)" xlink:href="#t"/>
        <use transform="matrix(0.05,0,0,0.05,13.949999999999998,0)" xlink:href="#u"/>
    </g>
    <path d="M24 0v-261h32V0H24" id="y"/>
    <g id="d">
        <use transform="matrix(0.05,0,0,0.05,0,0)" xlink:href="#u"/>
        <use transform="matrix(0.05,0,0,0.05,5,0)" xlink:href="#x"/>
        <use transform="matrix(0.05,0,0,0.05,8.95,0)" xlink:href="#u"/>
        <use transform="matrix(0.05,0,0,0.05,13.949999999999998,0)" xlink:href="#y"/>
        <use transform="matrix(0.05,0,0,0.05,17.9,0)" xlink:href="#r"/>
    </g>
    <path d="M185-189c-5-48-123-54-124 2 14 75 158 14 163 119 3 78-121 87-175 55-17-10-28-26-33-46l33-7c5 56 141 63 141-1 0-78-155-14-162-118-5-82 145-84 179-34 5 7 8 16 11 25" id="z"/>
    <path d="M114-163C36-179 61-72 57 0H25l-1-190h30c1 12-1 29 2 39 6-27 23-49 58-41v29" id="A"/>
    <path d="M177-190C167-65 218 103 67 71c-23-6-38-20-44-43l32-5c15 47 100 32 89-28v-30C133-14 115 1 83 1 29 1 15-40 15-95c0-56 16-97 71-98 29-1 48 16 59 35 1-10 0-23 2-32h30zM94-22c36 0 50-32 50-73 0-42-14-75-50-75-39 0-46 34-46 75s6 73 46 73" id="B"/>
    <g id="e">
        <use transform="matrix(0.05,0,0,0.05,0,0)" xlink:href="#z"/>
        <use transform="matrix(0.05,0,0,0.05,12,0)" xlink:href="#u"/>
        <use transform="matrix(0.05,0,0,0.05,17,0)" xlink:href="#A"/>
        <use transform="matrix(0.05,0,0,0.05,22.95,0)" xlink:href="#x"/>
        <use transform="matrix(0.05,0,0,0.05,26.899999999999995,0)" xlink:href="#t"/>
        <use transform="matrix(0.05,0,0,0.05,36.9,0)" xlink:href="#B"/>
    </g>
    <path d="M210-169c-67 3-38 105-44 169h-31v-121c0-29-5-50-35-48C34-165 62-65 56 0H25l-1-190h30c1 10-1 24 2 32 10-44 99-50 107 0 11-21 27-35 58-36 85-2 47 119 55 194h-31v-121c0-29-5-49-35-48" id="C"/>
    <path d="M135-143c-3-34-86-38-87 0 15 53 115 12 119 90S17 21 10-45l28-5c4 36 97 45 98 0-10-56-113-15-118-90-4-57 82-63 122-42 12 7 21 19 24 35" id="D"/>
    <path d="M141-36C126-15 110 5 73 4 37 3 15-17 15-53c-1-64 63-63 125-63 3-35-9-54-41-54-24 1-41 7-42 31l-33-3c5-37 33-52 76-52 45 0 72 20 72 64v82c-1 20 7 32 28 27v20c-31 9-61-2-59-35zM48-53c0 20 12 33 32 33 41-3 63-29 60-74-43 2-92-5-92 41" id="E"/>
    <g id="f">
        <use transform="matrix(0.05,0,0,0.05,0,0)" xlink:href="#u"/>
        <use transform="matrix(0.05,0,0,0.05,5,0)" xlink:href="#x"/>
        <use transform="matrix(0.05,0,0,0.05,8.95,0)" xlink:href="#C"/>
        <use transform="matrix(0.05,0,0,0.05,23.9,0)" xlink:href="#r"/>
        <use transform="matrix(0.05,0,0,0.05,33.9,0)" xlink:href="#D"/>
        <use transform="matrix(0.05,0,0,0.05,42.9,0)" xlink:href="#u"/>
        <use transform="matrix(0.05,0,0,0.05,47.9,0)" xlink:href="#E"/>
        <use transform="matrix(0.05,0,0,0.05,57.900000000000006,0)" xlink:href="#A"/>
        <use transform="matrix(0.05,0,0,0.05,63.85,0)" xlink:href="#u"/>
    </g>
    <path d="M127-220V0H93v-220H8v-28h204v28h-85" id="F"/>
    <g id="g">
        <use transform="matrix(0.05,0,0,0.05,0,0)" xlink:href="#F"/>
        <use transform="matrix(0.05,0,0,0.05,10.3,0)" xlink:href="#x"/>
        <use transform="matrix(0.05,0,0,0.05,14.25,0)" xlink:href="#C"/>
        <use transform="matrix(0.05,0,0,0.05,29.200000000000003,0)" xlink:href="#r"/>
    </g>
    <path d="M85-194c31 0 48 13 60 33l-1-100h32l1 261h-30c-2-10 0-23-3-31C134-8 116 4 85 4 32 4 16-35 15-94c0-66 23-100 70-100zm9 24c-40 0-46 34-46 75 0 40 6 74 45 74 42 0 51-32 51-76 0-42-9-74-50-73" id="G"/>
    <g id="h">
        <use transform="matrix(0.05,0,0,0.05,0,0)" xlink:href="#u"/>
        <use transform="matrix(0.05,0,0,0.05,5,0)" xlink:href="#x"/>
        <use transform="matrix(0.05,0,0,0.05,8.95,0)" xlink:href="#C"/>
        <use transform="matrix(0.05,0,0,0.05,23.9,0)" xlink:href="#r"/>
        <use transform="matrix(0.05,0,0,0.05,33.9,0)" xlink:href="#r"/>
        <use transform="matrix(0.05,0,0,0.05,43.9,0)" xlink:href="#t"/>
        <use transform="matrix(0.05,0,0,0.05,53.900000000000006,0)" xlink:href="#G"/>
    </g>
    <path d="M179-190L93 31C79 59 56 82 12 73V49c39 6 53-20 64-50L1-190h34L92-34l54-156h33" id="H"/>
    <path d="M115-194c55 1 70 41 70 98S169 2 115 4C84 4 66-9 55-30l1 105H24l-1-265h31l2 30c10-21 28-34 59-34zm-8 174c40 0 45-34 45-75s-6-73-45-74c-42 0-51 32-51 76 0 43 10 73 51 73" id="I"/>
    <g id="i">
        <use transform="matrix(0.05,0,0,0.05,0,0)" xlink:href="#F"/>
        <use transform="matrix(0.05,0,0,0.05,9.950000000000001,0)" xlink:href="#H"/>
        <use transform="matrix(0.05,0,0,0.05,18.950000000000003,0)" xlink:href="#I"/>
        <use transform="matrix(0.05,0,0,0.05,28.950000000000003,0)" xlink:href="#r"/>
    </g>
    <path d="M100-194c62-1 85 37 85 99 1 63-27 99-86 99S16-35 15-95c0-66 28-99 85-99zM99-20c44 1 53-31 53-75 0-43-8-75-51-75s-53 32-53 75 10 74 51 75" id="J"/>
    <g id="j">
        <use transform="matrix(0.05,0,0,0.05,0,0)" xlink:href="#y"/>
        <use transform="matrix(0.05,0,0,0.05,3.95,0)" xlink:href="#J"/>
        <use transform="matrix(0.05,0,0,0.05,13.949999999999998,0)" xlink:href="#t"/>
    </g>
    <path d="M84 4C-5 8 30-112 23-190h32v120c0 31 7 50 39 49 72-2 45-101 50-169h31l1 190h-30c-1-10 1-25-2-33-11 22-28 36-60 37" id="K"/>
    <path d="M115-194c53 0 69 39 70 98 0 66-23 100-70 100C84 3 66-7 56-30L54 0H23l1-261h32v101c10-23 28-34 59-34zm-8 174c40 0 45-34 45-75 0-40-5-75-45-74-42 0-51 32-51 76 0 43 10 73 51 73" id="L"/>
    <g id="k">
        <use transform="matrix(0.05,0,0,0.05,0,0)" xlink:href="#G"/>
        <use transform="matrix(0.05,0,0,0.05,10,0)" xlink:href="#J"/>
        <use transform="matrix(0.05,0,0,0.05,20,0)" xlink:href="#K"/>
        <use transform="matrix(0.05,0,0,0.05,30,0)" xlink:href="#L"/>
        <use transform="matrix(0.05,0,0,0.05,40,0)" xlink:href="#y"/>
        <use transform="matrix(0.05,0,0,0.05,43.95,0)" xlink:href="#r"/>
    </g>
    <g id="l">
        <use transform="matrix(0.05,0,0,0.05,0,0)" xlink:href="#y"/>
        <use transform="matrix(0.05,0,0,0.05,3.95,0)" xlink:href="#E"/>
        <use transform="matrix(0.05,0,0,0.05,13.949999999999998,0)" xlink:href="#u"/>
    </g>
    <path d="M96-169c-40 0-48 33-48 73s9 75 48 75c24 0 41-14 43-38l32 2c-6 37-31 61-74 61-59 0-76-41-82-99-10-93 101-131 147-64 4 7 5 14 7 22l-32 3c-4-21-16-35-41-35" id="M"/>
    <g id="m">
        <use transform="matrix(0.05,0,0,0.05,0,0)" xlink:href="#M"/>
        <use transform="matrix(0.05,0,0,0.05,9,0)" xlink:href="#A"/>
        <use transform="matrix(0.05,0,0,0.05,14.949999999999998,0)" xlink:href="#r"/>
        <use transform="matrix(0.05,0,0,0.05,24.95,0)" xlink:href="#E"/>
        <use transform="matrix(0.05,0,0,0.05,34.95,0)" xlink:href="#u"/>
        <use transform="matrix(0.05,0,0,0.05,39.95,0)" xlink:href="#r"/>
        <use transform="matrix(0.05,0,0,0.05,49.95,0)" xlink:href="#G"/>
    </g>
    <g id="n">
        <use transform="matrix(0.05,0,0,0.05,0,0)" xlink:href="#I"/>
        <use transform="matrix(0.05,0,0,0.05,10,0)" xlink:href="#E"/>
        <use transform="matrix(0.05,0,0,0.05,20,0)" xlink:href="#A"/>
        <use transform="matrix(0.05,0,0,0.05,25.950000000000003,0)" xlink:href="#u"/>
        <use transform="matrix(0.05,0,0,0.05,30.950000000000003,0)" xlink:href="#x"/>
        <use transform="matrix(0.05,0,0,0.05,34.9,0)" xlink:href="#M"/>
        <use transform="matrix(0.05,0,0,0.05,43.9,0)" xlink:href="#x"/>
        <use transform="matrix(0.05,0,0,0.05,47.85,0)" xlink:href="#I"/>
        <use transform="matrix(0.05,0,0,0.05,57.85,0)" xlink:href="#E"/>
        <use transform="matrix(0.05,0,0,0.05,67.85,0)" xlink:href="#u"/>
        <use transform="matrix(0.05,0,0,0.05,72.85,0)" xlink:href="#r"/>
        <use transform="matrix(0.05,0,0,0.05,82.85,0)" xlink:href="#D"/>
    </g>
    <path d="M106-169C34-169 62-67 57 0H25v-261h32l-1 103c12-21 28-36 61-36 89 0 53 116 60 194h-32v-121c2-32-8-49-39-48" id="N"/>
    <g id="o">
        <use transform="matrix(0.05,0,0,0.05,0,0)" xlink:href="#N"/>
        <use transform="matrix(0.05,0,0,0.05,10,0)" xlink:href="#E"/>
        <use transform="matrix(0.05,0,0,0.05,20,0)" xlink:href="#D"/>
    </g>
    <g id="p">
        <use transform="matrix(0.05,0,0,0.05,0,0)" xlink:href="#B"/>
        <use transform="matrix(0.05,0,0,0.05,10,0)" xlink:href="#A"/>
        <use transform="matrix(0.05,0,0,0.05,15.949999999999998,0)" xlink:href="#J"/>
        <use transform="matrix(0.05,0,0,0.05,25.950000000000003,0)" xlink:href="#K"/>
        <use transform="matrix(0.05,0,0,0.05,35.95,0)" xlink:href="#I"/>
    </g>
    <g id="q">
        <use transform="matrix(0.05,0,0,0.05,0,0)" xlink:href="#E"/>
        <use transform="matrix(0.05,0,0,0.05,10,0)" xlink:href="#M"/>
        <use transform="matrix(0.05,0,0,0.05,19,0)" xlink:href="#M"/>
        <use transform="matrix(0.05,0,0,0.05,28,0)" xlink:href="#J"/>
        <use transform="matrix(0.05,0,0,0.05,38,0)" xlink:href="#K"/>
        <use transform="matrix(0.05,0,0,0.05,48,0)" xlink:href="#t"/>
        <use transform="matrix(0.05,0,0,0.05,58,0)" xlink:href="#u"/>
    </g>
    </defs>
</g>
</svg>
