<?xml version="1.0"?>
<svg xmlns:lucid="lucid" xmlns:dc="http://purl.org/dc/elements/1.1/" xmlns:cc="http://creativecommons.org/ns#" xmlns:rdf="http://www.w3.org/1999/02/22-rdf-syntax-ns#" xmlns:svg="http://www.w3.org/2000/svg" xmlns="http://www.w3.org/2000/svg" xmlns:xlink="http://www.w3.org/1999/xlink" xmlns:sodipodi="http://sodipodi.sourceforge.net/DTD/sodipodi-0.dtd" xmlns:inkscape="http://www.inkscape.org/namespaces/inkscape" width="432" height="489.82999" version="1.1" id="svg250" sodipodi:docname="erd-group.svg" inkscape:version="0.92.2 5c3e80d, 2017-08-06">
<metadata id="metadata256">
    <rdf:RDF>
    <cc:Work rdf:about="">
        <dc:format>image/svg+xml</dc:format>
        <dc:type rdf:resource="http://purl.org/dc/dcmitype/StillImage"/>
        <dc:title/>
    </cc:Work>
    </rdf:RDF>
</metadata>
<defs id="defs254"/>
<sodipodi:namedview pagecolor="#ffffff" bordercolor="#666666" borderopacity="1" objecttolerance="10" gridtolerance="10" guidetolerance="10" inkscape:pageopacity="0" inkscape:pageshadow="2" inkscape:window-width="640" inkscape:window-height="480" id="namedview252" showgrid="false" fit-margin-top="0" fit-margin-left="0" fit-margin-right="0" fit-margin-bottom="0" inkscape:zoom="0.17352941" inkscape:cx="241" inkscape:cy="273" inkscape:window-x="0" inkscape:window-y="27" inkscape:window-maximized="0" inkscape:current-layer="svg250"/>
<g lucid:page-tab-id="g-k4xBc4oIQz" id="g248" transform="translate(-639,-463.17)">
    <path d="m 710,652.58 h 300 v 104 H 710 Z" id="path2" inkscape:connector-curvature="0" style="fill:#ffffff"/>
    <path d="m 710,652.58 h 300 v 40 H 710 Z" id="path4" inkscape:connector-curvature="0" style="fill:#cccccc"/>
    <path d="m 710,652.58 h 300 v 104 H 710 Z m 0,40 h 300 m -150,0 v 64" id="path6" inkscape:connector-curvature="0" style="fill:none;stroke:#000000;stroke-width:2"/>
    <use xlink:href="#a" transform="translate(819.55,676.18333)" id="use8" x="0" y="0" width="100%" height="100%"/>
    <use xlink:href="#b" transform="translate(777.025,712.18333)" id="use10" x="0" y="0" width="100%" height="100%"/>
    <use xlink:href="#c" transform="translate(925.525,712.18333)" id="use12" x="0" y="0" width="100%" height="100%"/>
    <use xlink:href="#d" transform="translate(762.525,744.18333)" id="use14" x="0" y="0" width="100%" height="100%"/>
    <use xlink:href="#e" transform="translate(911.55,744.18333)" id="use16" x="0" y="0" width="100%" height="100%"/>
    <path d="m 871,651.58 h -2 v -46.4 h 2 z m 0,-68 h -2 v -46.4 h 2 z" id="path18" inkscape:connector-curvature="0"/>
    <path d="m 880.9,538.06 -10.9,21.8 -10.9,-21.8 1.8,-0.9 9.1,18.22 9.1,-18.2 z" id="path20" inkscape:connector-curvature="0"/>
    <path id="path22" d="" inkscape:connector-curvature="0" style="fill:#ffffff"/>
    <path d="m 880,558.6 h -20 v -2 h 20 z" id="path24" inkscape:connector-curvature="0"/>
    <path id="path26" d="" inkscape:connector-curvature="0" style="fill:#ffffff"/>
    <path d="m 880,642.58 h -20 v -2 h 20 z" id="path28" inkscape:connector-curvature="0"/>
    <path id="path30" d="" inkscape:connector-curvature="0" style="fill:#ffffff"/>
    <path d="m 880,632.58 h -20 v -2 h 20 z" id="path32" inkscape:connector-curvature="0"/>
    <use xlink:href="#f" transform="translate(828.53,597.975)" id="use34" x="0" y="0" width="100%" height="100%"/>
    <use xlink:href="#g" transform="translate(896.48,597.975)" id="use36" x="0" y="0" width="100%" height="100%"/>
    <path d="m 751,879 h -2 v -49.9 h 2 z m 0,-71.5 h -2 v -49.92 h 2 z" id="path38" inkscape:connector-curvature="0"/>
    <path id="path40" d="" inkscape:connector-curvature="0" style="fill:#ffffff"/>
    <path d="m 760,768.58 h -20 v -2 h 20 z" id="path42" inkscape:connector-curvature="0"/>
    <path id="path44" d="" inkscape:connector-curvature="0" style="fill:#ffffff"/>
    <path d="m 760,778.58 h -20 v -2 h 20 z m 0.9,99.52 -1.8,0.9 -9.1,-18.2 -9.1,18.2 -1.8,-0.9 10.9,-21.78 z" id="path46" inkscape:connector-curvature="0"/>
    <path d="m 753.16,839.06 2.75,1.42 2.17,2.17 1.42,2.74 0.5,3.15 -0.5,3.16 -1.43,2.76 -2.16,2.16 -2.74,1.42 -3.16,0.5 -3.16,-0.5 -2.75,-1.42 -2.17,-2.16 -1.42,-2.75 -0.5,-3.15 0.5,-3.16 1.43,-2.75 2.16,-2.17 2.74,-1.42 3.16,-0.5 z" id="path48" inkscape:connector-curvature="0" style="fill:#ffffff"/>
    <path d="m 753.48,838.1 3.02,1.56 2.4,2.4 1.55,3 0.54,3.33 -1,0.15 1,0.16 -0.55,3.33 -1.56,3.02 -2.4,2.4 -3.02,1.55 -3.48,0.56 -3.48,-0.56 -3.02,-1.56 -2.4,-2.4 -1.55,-3 -0.56,-3.5 0.55,-3.47 1.56,-3.02 2.4,-2.4 3.02,-1.55 3.48,-0.56 z m -6.32,1.92 -2.47,1.28 -1.95,1.94 -1.28,2.47 -0.46,2.85 0.47,2.85 1.28,2.46 1.94,1.95 2.46,1.28 2.84,0.46 2.84,-0.46 2.47,-1.27 1.95,-1.94 1.28,-2.46 0.46,-2.85 -0.47,-2.84 -1.28,-2.46 -1.94,-1.94 -2.46,-1.28 -2.84,-0.46 z" id="path50" inkscape:connector-curvature="0"/>
    <use xlink:href="#h" transform="translate(735.505,821.89167)" id="use52" x="0" y="0" width="100%" height="100%"/>
    <path d="m 971,879 h -2 v -49.9 h 2 z m 0,-71.5 h -2 v -49.92 h 2 z" id="path54" inkscape:connector-curvature="0"/>
    <path id="path56" d="" inkscape:connector-curvature="0" style="fill:#ffffff"/>
    <path d="m 980,768.58 h -20 v -2 h 20 z" id="path58" inkscape:connector-curvature="0"/>
    <path id="path60" d="" inkscape:connector-curvature="0" style="fill:#ffffff"/>
    <path d="m 980,778.58 h -20 v -2 h 20 z m 0.9,99.52 -1.8,0.9 -9.1,-18.2 -9.1,18.2 -1.8,-0.9 10.9,-21.78 z" id="path62" inkscape:connector-curvature="0"/>
    <path d="m 973.16,839.06 2.75,1.42 2.17,2.17 1.42,2.74 0.5,3.15 -0.5,3.16 -1.43,2.76 -2.16,2.16 -2.74,1.42 -3.16,0.5 -3.16,-0.5 -2.75,-1.42 -2.17,-2.16 -1.42,-2.75 -0.5,-3.15 0.5,-3.16 1.43,-2.75 2.16,-2.17 2.74,-1.42 3.16,-0.5 z" id="path64" inkscape:connector-curvature="0" style="fill:#ffffff"/>
    <path d="m 973.48,838.1 3.02,1.56 2.4,2.4 1.55,3 0.54,3.33 -1,0.15 1,0.16 -0.55,3.33 -1.56,3.02 -2.4,2.4 -3.02,1.55 -3.48,0.56 -3.48,-0.56 -3.02,-1.56 -2.4,-2.4 -1.55,-3 -0.56,-3.5 0.55,-3.47 1.56,-3.02 2.4,-2.4 3.02,-1.55 3.48,-0.56 z m -6.32,1.92 -2.47,1.28 -1.95,1.94 -1.28,2.47 -0.46,2.85 0.47,2.85 1.28,2.46 1.94,1.95 2.46,1.28 2.84,0.46 2.84,-0.46 2.47,-1.27 1.95,-1.94 1.28,-2.46 0.46,-2.85 -0.47,-2.84 -1.28,-2.46 -1.94,-1.94 -2.46,-1.28 -2.84,-0.46 z" id="path66" inkscape:connector-curvature="0"/>
    <use xlink:href="#h" transform="translate(955.505,821.89167)" id="use68" x="0" y="0" width="100%" height="100%"/>
    <path d="m 870,880 h 200 v 72 H 870 Z" id="path70" inkscape:connector-curvature="0" style="fill:#ffffff"/>
    <path d="m 870,880 h 200 v 40 H 870 Z" id="path72" inkscape:connector-curvature="0" style="fill:#cccccc"/>
    <path d="m 870,880 h 200 v 72 H 870 Z m 0,40 h 200 m -100,0 v 32" id="path74" inkscape:connector-curvature="0" style="fill:none;stroke:#000000;stroke-width:2"/>
    <use xlink:href="#i" transform="translate(948,903.6)" id="use76" x="0" y="0" width="100%" height="100%"/>
    <path d="m 640,880 h 200 v 72 H 640 Z" id="path78" inkscape:connector-curvature="0" style="fill:#ffffff"/>
    <path d="m 640,880 h 200 v 40 H 640 Z" id="path80" inkscape:connector-curvature="0" style="fill:#cccccc"/>
    <path d="m 640,880 h 200 v 72 H 640 Z m 0,40 h 200 m -100,0 v 32" id="path82" inkscape:connector-curvature="0" style="fill:none;stroke:#000000;stroke-width:2"/>
    <use xlink:href="#j" transform="translate(726.05,903.6)" id="use84" x="0" y="0" width="100%" height="100%"/>
    <path d="m 770,464.17 h 200 v 72 H 770 Z" id="path86" inkscape:connector-curvature="0" style="fill:#ffffff"/>
    <path d="m 770,464.17 h 200 v 40 H 770 Z" id="path88" inkscape:connector-curvature="0" style="fill:#cccccc"/>
    <path d="m 770,464.17 h 200 v 72 H 770 Z m 0,40 h 200 m -100,0 v 32" id="path90" inkscape:connector-curvature="0" style="fill:none;stroke:#000000;stroke-width:2"/>
    <use xlink:href="#k" transform="translate(797.625,487.76667)" id="use92" x="0" y="0" width="100%" height="100%"/>
    <defs id="defs246">
    <path d="M 84,4 C -5,8 30,-112 23,-190 h 32 v 120 c 0,31 7,50 39,49 72,-2 45,-101 50,-169 h 31 l 1,190 h -30 c -1,-10 1,-25 -2,-33 -11,22 -28,36 -60,37" id="l" inkscape:connector-curvature="0"/>
    <path d="m 135,-143 c -3,-34 -86,-38 -87,0 15,53 115,12 119,90 4,78 -150,74 -157,8 l 28,-5 c 4,36 97,45 98,0 -10,-56 -113,-15 -118,-90 -4,-57 82,-63 122,-42 12,7 21,19 24,35" id="m" inkscape:connector-curvature="0"/>
    <path d="m 100,-194 c 63,0 86,42 84,106 H 49 c 0,40 14,67 53,68 26,1 43,-12 49,-29 l 28,8 C 168,-13 142,4 102,4 44,4 14,-33 15,-96 c 1,-61 26,-98 85,-98 z m 52,81 c 6,-60 -76,-77 -97,-28 -3,7 -6,17 -6,28 h 103" id="n" inkscape:connector-curvature="0"/>
    <path d="M 114,-163 C 36,-179 61,-72 57,0 H 25 l -1,-190 h 30 c 1,12 -1,29 2,39 6,-27 23,-49 58,-41 v 29" id="o" inkscape:connector-curvature="0"/>
    <path d="M 177,-190 C 167,-65 218,103 67,71 44,65 29,51 23,28 L 55,23 C 70,70 155,55 144,-5 V -35 C 133,-14 115,1 83,1 29,1 15,-40 15,-95 c 0,-56 16,-97 71,-98 29,-1 48,16 59,35 1,-10 0,-23 2,-32 z M 94,-22 c 36,0 50,-32 50,-73 0,-42 -14,-75 -50,-75 -39,0 -46,34 -46,75 0,41 6,73 46,73" id="p" inkscape:connector-curvature="0"/>
    <path d="m 100,-194 c 62,-1 85,37 85,99 1,63 -27,99 -86,99 -59,0 -83,-39 -84,-99 0,-66 28,-99 85,-99 z m -1,174 c 44,1 53,-31 53,-75 0,-43 -8,-75 -51,-75 -43,0 -53,32 -53,75 0,43 10,74 51,75" id="q" inkscape:connector-curvature="0"/>
    <path d="m 115,-194 c 55,1 70,41 70,98 C 185,-39 169,2 115,4 84,4 66,-9 55,-30 L 56,75 H 24 l -1,-265 h 31 l 2,30 c 10,-21 28,-34 59,-34 z m -8,174 c 40,0 45,-34 45,-75 0,-41 -6,-73 -45,-74 -42,0 -51,32 -51,76 0,43 10,73 51,73" id="r" inkscape:connector-curvature="0"/>
    <g id="a">
        <use transform="scale(0.05)" xlink:href="#l" id="use101" x="0" y="0" width="100%" height="100%"/>
        <use transform="matrix(0.05,0,0,0.05,10,0)" xlink:href="#m" id="use103" x="0" y="0" width="100%" height="100%"/>
        <use transform="matrix(0.05,0,0,0.05,19,0)" xlink:href="#n" id="use105" x="0" y="0" width="100%" height="100%"/>
        <use transform="matrix(0.05,0,0,0.05,29,0)" xlink:href="#o" id="use107" x="0" y="0" width="100%" height="100%"/>
        <use transform="matrix(0.05,0,0,0.05,34.95,0)" xlink:href="#p" id="use109" x="0" y="0" width="100%" height="100%"/>
        <use transform="matrix(0.05,0,0,0.05,44.95,0)" xlink:href="#o" id="use111" x="0" y="0" width="100%" height="100%"/>
        <use transform="matrix(0.05,0,0,0.05,50.9,0)" xlink:href="#q" id="use113" x="0" y="0" width="100%" height="100%"/>
        <use transform="matrix(0.05,0,0,0.05,60.9,0)" xlink:href="#l" id="use115" x="0" y="0" width="100%" height="100%"/>
        <use transform="matrix(0.05,0,0,0.05,70.9,0)" xlink:href="#r" id="use117" x="0" y="0" width="100%" height="100%"/>
    </g>
    <path d="m 25,-224 v -37 h 50 v 37 z M 25,0 V -190 H 75 V 0 H 25" id="s" inkscape:connector-curvature="0"/>
    <path d="m 88,-194 c 31,-1 46,15 58,34 l -1,-101 h 50 l 1,261 h -48 c -2,-10 0,-23 -3,-31 C 134,-8 116,4 84,4 32,4 16,-41 15,-95 c 0,-56 19,-97 73,-99 z m 17,164 c 33,0 40,-30 41,-66 1,-37 -9,-64 -41,-64 -32,0 -38,30 -39,65 0,43 13,65 39,65" id="t" inkscape:connector-curvature="0"/>
    <g id="b">
        <use transform="scale(0.05)" xlink:href="#s" id="use122" x="0" y="0" width="100%" height="100%"/>
        <use transform="matrix(0.05,0,0,0.05,5,0)" xlink:href="#t" id="use124" x="0" y="0" width="100%" height="100%"/>
        <path d="m -0.9,0.97 h 17.75 v 1.9 H -0.9 Z" id="path126" inkscape:connector-curvature="0"/>
    </g>
    <path d="m 24,-231 v -30 h 32 v 30 z M 24,0 V -190 H 56 V 0 H 24" id="u" inkscape:connector-curvature="0"/>
    <path d="m 117,-194 c 89,-4 53,116 60,194 h -32 v -121 c 0,-31 -8,-49 -39,-48 C 34,-167 62,-67 57,0 H 25 l -1,-190 h 30 c 1,10 -1,24 2,32 11,-22 29,-35 61,-36" id="v" inkscape:connector-curvature="0"/>
    <path d="m 59,-47 c -2,24 18,29 38,22 V -1 C 64,9 27,4 27,-40 V -167 H 5 v -23 h 24 l 9,-43 h 21 v 43 h 35 v 23 H 59 v 120" id="w" inkscape:connector-curvature="0"/>
    <g id="c">
        <use transform="scale(0.05)" xlink:href="#u" id="use132" x="0" y="0" width="100%" height="100%"/>
        <use transform="matrix(0.05,0,0,0.05,3.95,0)" xlink:href="#v" id="use134" x="0" y="0" width="100%" height="100%"/>
        <use transform="matrix(0.05,0,0,0.05,13.95,0)" xlink:href="#w" id="use136" x="0" y="0" width="100%" height="100%"/>
    </g>
    <path d="M 141,-36 C 126,-15 110,5 73,4 37,3 15,-17 15,-53 c -1,-64 63,-63 125,-63 3,-35 -9,-54 -41,-54 -24,1 -41,7 -42,31 l -33,-3 c 5,-37 33,-52 76,-52 45,0 72,20 72,64 v 82 c -1,20 7,32 28,27 V -1 C 169,8 139,-3 141,-36 Z M 48,-53 c 0,20 12,33 32,33 41,-3 63,-29 60,-74 -43,2 -92,-5 -92,41" id="x" inkscape:connector-curvature="0"/>
    <path d="m 210,-169 c -67,3 -38,105 -44,169 h -31 v -121 c 0,-29 -5,-50 -35,-48 C 34,-165 62,-65 56,0 H 25 l -1,-190 h 30 c 1,10 -1,24 2,32 10,-44 99,-50 107,0 11,-21 27,-35 58,-36 85,-2 47,119 55,194 h -31 v -121 c 0,-29 -5,-49 -35,-48" id="y" inkscape:connector-curvature="0"/>
    <g id="d">
        <use transform="scale(0.05)" xlink:href="#v" id="use141" x="0" y="0" width="100%" height="100%"/>
        <use transform="matrix(0.05,0,0,0.05,10,0)" xlink:href="#x" id="use143" x="0" y="0" width="100%" height="100%"/>
        <use transform="matrix(0.05,0,0,0.05,20,0)" xlink:href="#y" id="use145" x="0" y="0" width="100%" height="100%"/>
        <use transform="matrix(0.05,0,0,0.05,34.95,0)" xlink:href="#n" id="use147" x="0" y="0" width="100%" height="100%"/>
    </g>
    <path d="m 185,-189 c -5,-48 -123,-54 -124,2 14,75 158,14 163,119 C 227,10 103,19 49,-13 32,-23 21,-39 16,-59 l 33,-7 c 5,56 141,63 141,-1 0,-78 -155,-14 -162,-118 -5,-82 145,-84 179,-34 5,7 8,16 11,25" id="z" inkscape:connector-curvature="0"/>
    <g id="e">
        <use transform="scale(0.05)" xlink:href="#z" id="use151" x="0" y="0" width="100%" height="100%"/>
        <use transform="matrix(0.05,0,0,0.05,12,0)" xlink:href="#w" id="use153" x="0" y="0" width="100%" height="100%"/>
        <use transform="matrix(0.05,0,0,0.05,17,0)" xlink:href="#o" id="use155" x="0" y="0" width="100%" height="100%"/>
        <use transform="matrix(0.05,0,0,0.05,22.95,0)" xlink:href="#u" id="use157" x="0" y="0" width="100%" height="100%"/>
        <use transform="matrix(0.05,0,0,0.05,26.9,0)" xlink:href="#v" id="use159" x="0" y="0" width="100%" height="100%"/>
        <use transform="matrix(0.05,0,0,0.05,36.9,0)" xlink:href="#p" id="use161" x="0" y="0" width="100%" height="100%"/>
    </g>
    <path d="m 115,-194 c 53,0 69,39 70,98 C 185,-30 162,4 115,4 84,3 66,-7 56,-30 L 54,0 H 23 l 1,-261 h 32 v 101 c 10,-23 28,-34 59,-34 z m -8,174 c 40,0 45,-34 45,-75 0,-40 -5,-75 -45,-74 -42,0 -51,32 -51,76 0,43 10,73 51,73" id="A" inkscape:connector-curvature="0"/>
    <path d="M 24,0 V -261 H 56 V 0 H 24" id="B" inkscape:connector-curvature="0"/>
    <g id="f">
        <use transform="scale(0.05)" xlink:href="#A" id="use166" x="0" y="0" width="100%" height="100%"/>
        <use transform="matrix(0.05,0,0,0.05,10,0)" xlink:href="#n" id="use168" x="0" y="0" width="100%" height="100%"/>
        <use transform="matrix(0.05,0,0,0.05,20,0)" xlink:href="#B" id="use170" x="0" y="0" width="100%" height="100%"/>
        <use transform="matrix(0.05,0,0,0.05,23.95,0)" xlink:href="#q" id="use172" x="0" y="0" width="100%" height="100%"/>
        <use transform="matrix(0.05,0,0,0.05,33.95,0)" xlink:href="#v" id="use174" x="0" y="0" width="100%" height="100%"/>
        <use transform="matrix(0.05,0,0,0.05,43.95,0)" xlink:href="#p" id="use176" x="0" y="0" width="100%" height="100%"/>
        <use transform="matrix(0.05,0,0,0.05,53.95,0)" xlink:href="#m" id="use178" x="0" y="0" width="100%" height="100%"/>
    </g>
    <g id="g">
        <use transform="scale(0.05)" xlink:href="#w" id="use181" x="0" y="0" width="100%" height="100%"/>
        <use transform="matrix(0.05,0,0,0.05,5,0)" xlink:href="#q" id="use183" x="0" y="0" width="100%" height="100%"/>
    </g>
    <path d="M 106,-169 C 34,-169 62,-67 57,0 H 25 v -261 h 32 l -1,103 c 12,-21 28,-36 61,-36 89,0 53,116 60,194 h -32 v -121 c 2,-32 -8,-49 -39,-48" id="C" inkscape:connector-curvature="0"/>
    <g id="h">
        <use transform="scale(0.05)" xlink:href="#C" id="use187" x="0" y="0" width="100%" height="100%"/>
        <use transform="matrix(0.05,0,0,0.05,10,0)" xlink:href="#x" id="use189" x="0" y="0" width="100%" height="100%"/>
        <use transform="matrix(0.05,0,0,0.05,20,0)" xlink:href="#m" id="use191" x="0" y="0" width="100%" height="100%"/>
    </g>
    <path d="M 108,0 H 70 L 1,-190 h 34 l 54,165 56,-165 h 34" id="D" inkscape:connector-curvature="0"/>
    <g id="i">
        <use transform="scale(0.05)" xlink:href="#n" id="use195" x="0" y="0" width="100%" height="100%"/>
        <use transform="matrix(0.05,0,0,0.05,10,0)" xlink:href="#D" id="use197" x="0" y="0" width="100%" height="100%"/>
        <use transform="matrix(0.05,0,0,0.05,19,0)" xlink:href="#n" id="use199" x="0" y="0" width="100%" height="100%"/>
        <use transform="matrix(0.05,0,0,0.05,29,0)" xlink:href="#v" id="use201" x="0" y="0" width="100%" height="100%"/>
        <use transform="matrix(0.05,0,0,0.05,39,0)" xlink:href="#w" id="use203" x="0" y="0" width="100%" height="100%"/>
    </g>
    <g id="j">
        <use transform="scale(0.05)" xlink:href="#r" id="use206" x="0" y="0" width="100%" height="100%"/>
        <use transform="matrix(0.05,0,0,0.05,10,0)" xlink:href="#q" id="use208" x="0" y="0" width="100%" height="100%"/>
        <use transform="matrix(0.05,0,0,0.05,20,0)" xlink:href="#B" id="use210" x="0" y="0" width="100%" height="100%"/>
        <use transform="matrix(0.05,0,0,0.05,23.95,0)" xlink:href="#B" id="use212" x="0" y="0" width="100%" height="100%"/>
    </g>
    <g id="k">
        <use transform="scale(0.05)" xlink:href="#p" id="use215" x="0" y="0" width="100%" height="100%"/>
        <use transform="matrix(0.05,0,0,0.05,10,0)" xlink:href="#o" id="use217" x="0" y="0" width="100%" height="100%"/>
        <use transform="matrix(0.05,0,0,0.05,15.95,0)" xlink:href="#q" id="use219" x="0" y="0" width="100%" height="100%"/>
        <use transform="matrix(0.05,0,0,0.05,25.95,0)" xlink:href="#l" id="use221" x="0" y="0" width="100%" height="100%"/>
        <use transform="matrix(0.05,0,0,0.05,35.95,0)" xlink:href="#r" id="use223" x="0" y="0" width="100%" height="100%"/>
        <use transform="matrix(0.05,0,0,0.05,45.95,0)" xlink:href="#y" id="use225" x="0" y="0" width="100%" height="100%"/>
        <use transform="matrix(0.05,0,0,0.05,60.9,0)" xlink:href="#n" id="use227" x="0" y="0" width="100%" height="100%"/>
        <use transform="matrix(0.05,0,0,0.05,70.9,0)" xlink:href="#y" id="use229" x="0" y="0" width="100%" height="100%"/>
        <use transform="matrix(0.05,0,0,0.05,85.85,0)" xlink:href="#A" id="use231" x="0" y="0" width="100%" height="100%"/>
        <use transform="matrix(0.05,0,0,0.05,95.85,0)" xlink:href="#n" id="use233" x="0" y="0" width="100%" height="100%"/>
        <use transform="matrix(0.05,0,0,0.05,105.85,0)" xlink:href="#o" id="use235" x="0" y="0" width="100%" height="100%"/>
        <use transform="matrix(0.05,0,0,0.05,111.8,0)" xlink:href="#m" id="use237" x="0" y="0" width="100%" height="100%"/>
        <use transform="matrix(0.05,0,0,0.05,120.8,0)" xlink:href="#C" id="use239" x="0" y="0" width="100%" height="100%"/>
        <use transform="matrix(0.05,0,0,0.05,130.8,0)" xlink:href="#u" id="use241" x="0" y="0" width="100%" height="100%"/>
        <use transform="matrix(0.05,0,0,0.05,134.75,0)" xlink:href="#r" id="use243" x="0" y="0" width="100%" height="100%"/>
    </g>
    </defs>
</g>
</svg>
