<?xml version="1.0"?>
<svg xmlns:lucid="lucid" xmlns:dc="http://purl.org/dc/elements/1.1/" xmlns:cc="http://creativecommons.org/ns#" xmlns:rdf="http://www.w3.org/1999/02/22-rdf-syntax-ns#" xmlns:svg="http://www.w3.org/2000/svg" xmlns="http://www.w3.org/2000/svg" xmlns:xlink="http://www.w3.org/1999/xlink" xmlns:sodipodi="http://sodipodi.sourceforge.net/DTD/sodipodi-0.dtd" xmlns:inkscape="http://www.inkscape.org/namespaces/inkscape" width="627.46503" height="900.5" version="1.1" id="svg675" sodipodi:docname="erd-account.svg" inkscape:version="0.92.2 5c3e80d, 2017-08-06">
<metadata id="metadata681">
    <rdf:RDF>
    <cc:Work rdf:about="">
        <dc:format>image/svg+xml</dc:format>
        <dc:type rdf:resource="http://purl.org/dc/dcmitype/StillImage"/>
        <dc:title/>
    </cc:Work>
    </rdf:RDF>
</metadata>
<defs id="defs679"/>
<sodipodi:namedview pagecolor="#ffffff" bordercolor="#666666" borderopacity="1" objecttolerance="10" gridtolerance="10" guidetolerance="10" inkscape:pageopacity="0" inkscape:pageshadow="2" inkscape:window-width="640" inkscape:window-height="480" id="namedview677" showgrid="false" fit-margin-top="0" fit-margin-left="0" fit-margin-right="0" fit-margin-bottom="0" inkscape:zoom="0.17352941" inkscape:cx="265.46501" inkscape:cy="439.5" inkscape:window-x="0" inkscape:window-y="27" inkscape:window-maximized="0" inkscape:current-layer="svg675"/>
<g lucid:page-tab-id="h-k4kq4XdDj0" id="g673" transform="translate(-614.53499,-219)">
    <path d="m 620,406.5 h 300 v 296 H 620 Z" id="path2" inkscape:connector-curvature="0" style="fill:#ffffff"/>
    <path d="m 620,406.5 h 300 v 40 H 620 Z" id="path4" inkscape:connector-curvature="0" style="fill:#cccccc"/>
    <path d="m 620,406.5 h 300 v 296 H 620 Z m 0,40 h 300 m -150,0 v 256" id="path6" inkscape:connector-curvature="0" style="fill:none;stroke:#000000;stroke-width:2"/>
    <use xlink:href="#a" transform="translate(738.5,430.1)" id="use8" x="0" y="0" width="100%" height="100%"/>
    <use xlink:href="#b" transform="translate(687.025,466.1)" id="use10" x="0" y="0" width="100%" height="100%"/>
    <use xlink:href="#c" transform="translate(835.525,466.1)" id="use12" x="0" y="0" width="100%" height="100%"/>
    <use xlink:href="#d" transform="translate(655.05,498.1)" id="use14" x="0" y="0" width="100%" height="100%"/>
    <use xlink:href="#e" transform="translate(821.55,498.1)" id="use16" x="0" y="0" width="100%" height="100%"/>
    <use xlink:href="#f" transform="translate(673.575,530.1)" id="use18" x="0" y="0" width="100%" height="100%"/>
    <use xlink:href="#e" transform="translate(821.55,530.1)" id="use20" x="0" y="0" width="100%" height="100%"/>
    <use xlink:href="#g" transform="translate(642.575,562.1)" id="use22" x="0" y="0" width="100%" height="100%"/>
    <use xlink:href="#e" transform="translate(821.55,562.1)" id="use24" x="0" y="0" width="100%" height="100%"/>
    <use xlink:href="#h" transform="translate(637.05,594.1)" id="use26" x="0" y="0" width="100%" height="100%"/>
    <use xlink:href="#e" transform="translate(821.55,594.1)" id="use28" x="0" y="0" width="100%" height="100%"/>
    <use xlink:href="#i" transform="translate(683.025,626.1)" id="use30" x="0" y="0" width="100%" height="100%"/>
    <use xlink:href="#j" transform="translate(818.025,626.1)" id="use32" x="0" y="0" width="100%" height="100%"/>
    <use xlink:href="#k" transform="translate(685.525,658.1)" id="use34" x="0" y="0" width="100%" height="100%"/>
    <use xlink:href="#j" transform="translate(818.025,658.1)" id="use36" x="0" y="0" width="100%" height="100%"/>
    <use xlink:href="#l" transform="translate(638.1,690.1)" id="use38" x="0" y="0" width="100%" height="100%"/>
    <use xlink:href="#m" transform="translate(825.4,690.1)" id="use40" x="0" y="0" width="100%" height="100%"/>
    <path d="m 735,846.5 h 300 v 72 H 735 Z" id="path42" inkscape:connector-curvature="0" style="fill:#ffffff"/>
    <path d="m 735,846.5 h 300 v 40 H 735 Z" id="path44" inkscape:connector-curvature="0" style="fill:#cccccc"/>
    <path d="m 735,846.5 h 300 v 72 H 735 Z m 0,40 h 300 m -150,0 v 32" id="path46" inkscape:connector-curvature="0" style="fill:none;stroke:#000000;stroke-width:2"/>
    <use xlink:href="#n" transform="translate(863,870.1)" id="use48" x="0" y="0" width="100%" height="100%"/>
    <path d="m 620,1046.5 h 300 v 72 H 620 Z" id="path50" inkscape:connector-curvature="0" style="fill:#ffffff"/>
    <path d="m 620,1046.5 h 300 v 40 H 620 Z" id="path52" inkscape:connector-curvature="0" style="fill:#cccccc"/>
    <path d="m 620,1046.5 h 300 v 72 H 620 Z m 0,40 h 300 m -150,0 v 32" id="path54" inkscape:connector-curvature="0" style="fill:none;stroke:#000000;stroke-width:2"/>
    <use xlink:href="#o" transform="translate(756.05,1070.1)" id="use56" x="0" y="0" width="100%" height="100%"/>
    <path d="m 680,946.5 h 300 v 72 H 680 Z" id="path58" inkscape:connector-curvature="0" style="fill:#ffffff"/>
    <path d="m 680,946.5 h 300 v 40 H 680 Z" id="path60" inkscape:connector-curvature="0" style="fill:#cccccc"/>
    <path d="m 680,946.5 h 300 v 72 H 680 Z m 0,40 h 300 m -150,0 v 32" id="path62" inkscape:connector-curvature="0" style="fill:none;stroke:#000000;stroke-width:2"/>
    <use xlink:href="#p" transform="translate(791.575,970.1)" id="use64" x="0" y="0" width="100%" height="100%"/>
    <path d="m 620,220 h 620.7 v 72 H 620 Z" id="path66" inkscape:connector-curvature="0" style="fill:#ffffff"/>
    <path d="m 620,220 h 620.7 v 40 H 620 Z" id="path68" inkscape:connector-curvature="0" style="fill:#cccccc"/>
    <path d="m 620,220 h 620.7 v 72 H 620 Z m 0,40 h 620.7 m -310.35,0 v 32" id="path70" inkscape:connector-curvature="0" style="fill:none;stroke:#000000;stroke-width:2"/>
    <use xlink:href="#q" transform="translate(858.125,243.6)" id="use72" x="0" y="0" width="100%" height="100%"/>
    <path d="m 813.57,405.5 h -2 v -45.45 h 2 z m 0.7,-67.05 h -2 V 293 h 2 z" id="path74" inkscape:connector-curvature="0"/>
    <path id="path76" d="" inkscape:connector-curvature="0" style="fill:#ffffff"/>
    <path d="m 822.57,396.5 h -20 v -2 h 20 z" id="path78" inkscape:connector-curvature="0"/>
    <path id="path80" d="" inkscape:connector-curvature="0" style="fill:#ffffff"/>
    <path d="m 822.57,386.5 h -20 v -2 h 20 z m 1.61,-92.6 -10.9,21.78 -10.9,-21.8 1.8,-0.88 9.1,18.2 9.1,-18.2 z" id="path82" inkscape:connector-curvature="0"/>
    <path d="m 816.44,313.96 2.75,1.42 2.15,2.16 1.42,2.75 0.5,3.15 -0.5,3.16 -1.42,2.75 -2.16,2.17 -2.76,1.42 -3.16,0.5 -3.16,-0.5 -2.74,-1.42 -2.17,-2.17 -1.4,-2.74 -0.52,-3.15 0.5,-3.16 1.43,-2.76 2.18,-2.16 2.74,-1.42 3.16,-0.5 z" id="path84" inkscape:connector-curvature="0" style="fill:#ffffff"/>
    <path d="m 816.76,313 3.03,1.56 2.37,2.38 1.56,3.03 0.54,3.32 -1,0.15 1,0.16 -0.54,3.33 -1.56,3.02 -2.38,2.38 -3.04,1.57 -3.48,0.56 -3.48,-0.56 -3.02,-1.57 -2.38,-2.38 -1.57,-3.02 -0.56,-3.48 0.56,-3.48 1.57,-3.03 2.38,-2.38 3.02,-1.56 3.48,-0.57 z m -6.32,1.92 -2.47,1.27 -1.94,1.94 -1.28,2.46 -0.45,2.85 0.45,2.84 1.28,2.46 1.94,1.94 2.47,1.28 2.84,0.45 2.85,-0.45 2.46,-1.28 1.94,-1.94 1.27,-2.47 0.47,-2.85 -0.46,-2.85 -1.26,-2.46 -1.95,-1.95 -2.47,-1.28 -2.85,-0.46 z" id="path86" inkscape:connector-curvature="0"/>
    <use xlink:href="#r" transform="translate(771.45882,352.85)" id="use88" x="0" y="0" width="100%" height="100%"/>
    <use xlink:href="#s" transform="translate(839.40882,352.85)" id="use90" x="0" y="0" width="100%" height="100%"/>
    <path d="m 1041,489.66 -1.1,3.4 -2.92,2.13 -1.9,0.3 H 921 v -2 h 113.92 l 1.26,-0.2 2,-1.46 0.82,-2.5 V 471.3 h 2 z m -2.43,-63.05 2.12,2.92 0.3,1.9 v 18.28 h -2 v -18.12 l -0.2,-1.26 -1.46,-2 -2.5,-0.82 H 921 v -2 h 114.16 z" id="path92" inkscape:connector-curvature="0"/>
    <path d="m 943.68,426.5 -21.8,10.9 -0.88,-1.8 18.2,-9.1 -18.2,-9.1 0.9,-1.8 z" id="path94" inkscape:connector-curvature="0"/>
    <path d="m 954.6,417 2.75,1.43 2.17,2.16 1.42,2.74 0.5,3.16 -0.5,3.16 -1.42,2.75 -2.17,2.17 -2.74,1.42 -3.15,0.5 -3.16,-0.5 -2.76,-1.43 -2.16,-2.16 -1.42,-2.74 -0.5,-3.16 0.5,-3.16 1.42,-2.75 2.16,-2.17 2.75,-1.42 3.15,-0.5 z" id="path96" inkscape:connector-curvature="0" style="fill:#ffffff"/>
    <path d="m 954.93,416.05 3.02,1.56 2.38,2.4 1.57,3.02 0.53,3.32 -0.98,0.16 0.98,0.16 -0.53,3.32 -1.57,3.02 -2.38,2.4 -3.02,1.55 -3.48,0.56 -3.48,-0.55 -3.03,-1.56 -2.38,-2.4 -1.56,-3.02 -0.57,-3.48 0.57,-3.48 1.56,-3.02 2.38,-2.4 3.03,-1.55 3.48,-0.56 z m -6.33,1.92 -2.46,1.28 -1.95,1.94 -1.28,2.46 -0.46,2.84 0.46,2.84 1.27,2.47 1.94,1.95 2.46,1.28 2.85,0.46 2.84,-0.47 2.46,-1.28 1.94,-1.94 1.28,-2.46 0.45,-2.84 -0.45,-2.84 -1.28,-2.47 -1.94,-1.95 -2.47,-1.28 -2.85,-0.46 z m -4.92,76.53 -21.8,10.9 -0.88,-1.8 18.2,-9.1 -18.2,-9.1 0.9,-1.8 z" id="path98" inkscape:connector-curvature="0"/>
    <path d="m 954.6,485 2.75,1.43 2.17,2.16 1.42,2.74 0.5,3.16 -0.5,3.16 -1.42,2.75 -2.17,2.17 -2.74,1.42 -3.15,0.5 -3.16,-0.5 -2.76,-1.43 -2.16,-2.16 -1.42,-2.74 -0.5,-3.16 0.5,-3.16 1.42,-2.75 2.16,-2.17 2.75,-1.42 3.15,-0.5 z" id="path100" inkscape:connector-curvature="0" style="fill:#ffffff"/>
    <path d="m 954.93,484.05 3.02,1.56 2.38,2.4 1.57,3.02 0.53,3.32 -0.98,0.16 0.98,0.16 -0.53,3.32 -1.57,3.02 -2.38,2.4 -3.02,1.55 -3.48,0.56 -3.48,-0.55 -3.03,-1.56 -2.38,-2.4 -1.56,-3.02 -0.57,-3.48 0.57,-3.48 1.56,-3.02 2.38,-2.4 3.03,-1.55 3.48,-0.56 z m -6.33,1.92 -2.46,1.28 -1.95,1.94 -1.28,2.46 -0.46,2.84 0.46,2.84 1.27,2.47 1.94,1.95 2.46,1.28 2.85,0.46 2.84,-0.47 2.46,-1.28 1.94,-1.94 1.28,-2.46 0.45,-2.84 -0.45,-2.84 -1.28,-2.47 -1.94,-1.95 -2.47,-1.28 -2.85,-0.46 z" id="path102" inkscape:connector-curvature="0"/>
    <use xlink:href="#t" transform="translate(992.03,464.1)" id="use104" x="0" y="0" width="100%" height="100%"/>
    <use xlink:href="#u" transform="translate(1009.98,464.1)" id="use106" x="0" y="0" width="100%" height="100%"/>
    <use xlink:href="#v" transform="translate(1072.98,464.1)" id="use108" x="0" y="0" width="100%" height="100%"/>
    <path d="m 1041,585.66 -1.1,3.4 -2.92,2.13 -1.9,0.3 H 921 v -2 h 113.92 l 1.26,-0.2 2,-1.46 0.82,-2.5 V 569.3 h 2 z m -2.43,-59.05 2.12,2.92 0.3,1.9 v 16.28 h -2 v -16.12 l -0.2,-1.26 -1.46,-2 -2.5,-0.82 H 921 v -2 h 114.16 z" id="path110" inkscape:connector-curvature="0"/>
    <path d="m 943.68,526.5 -21.8,10.9 -0.88,-1.8 18.2,-9.1 -18.2,-9.1 0.9,-1.8 z" id="path112" inkscape:connector-curvature="0"/>
    <path d="m 954.6,517 2.75,1.43 2.17,2.16 1.42,2.74 0.5,3.16 -0.5,3.16 -1.42,2.75 -2.17,2.17 -2.74,1.42 -3.15,0.5 -3.16,-0.5 -2.76,-1.43 -2.16,-2.16 -1.42,-2.74 -0.5,-3.16 0.5,-3.16 1.42,-2.75 2.16,-2.17 2.75,-1.42 3.15,-0.5 z" id="path114" inkscape:connector-curvature="0" style="fill:#ffffff"/>
    <path d="m 954.93,516.05 3.02,1.56 2.38,2.4 1.57,3.02 0.53,3.32 -0.98,0.16 0.98,0.16 -0.53,3.32 -1.57,3.02 -2.38,2.4 -3.02,1.55 -3.48,0.56 -3.48,-0.55 -3.03,-1.56 -2.38,-2.4 -1.56,-3.02 -0.57,-3.48 0.57,-3.48 1.56,-3.02 2.38,-2.4 3.03,-1.55 3.48,-0.56 z m -6.33,1.92 -2.46,1.28 -1.95,1.94 -1.28,2.46 -0.46,2.84 0.46,2.84 1.27,2.47 1.94,1.95 2.46,1.28 2.85,0.46 2.84,-0.47 2.46,-1.28 1.94,-1.94 1.28,-2.46 0.45,-2.84 -0.45,-2.84 -1.28,-2.47 -1.94,-1.95 -2.47,-1.28 -2.85,-0.46 z m -4.92,72.53 -21.8,10.9 -0.88,-1.8 18.2,-9.1 -18.2,-9.1 0.9,-1.8 z" id="path116" inkscape:connector-curvature="0"/>
    <path d="m 954.6,581 2.75,1.43 2.17,2.16 1.42,2.74 0.5,3.16 -0.5,3.16 -1.42,2.75 -2.17,2.17 -2.74,1.42 -3.15,0.5 -3.16,-0.5 -2.76,-1.43 -2.16,-2.16 -1.42,-2.74 -0.5,-3.16 0.5,-3.16 1.42,-2.75 2.16,-2.17 2.75,-1.42 3.15,-0.5 z" id="path118" inkscape:connector-curvature="0" style="fill:#ffffff"/>
    <path d="m 954.93,580.05 3.02,1.56 2.38,2.4 1.57,3.02 0.53,3.32 -0.98,0.16 0.98,0.16 -0.53,3.32 -1.57,3.02 -2.38,2.4 -3.02,1.55 -3.48,0.56 -3.48,-0.55 -3.03,-1.56 -2.38,-2.4 -1.56,-3.02 -0.57,-3.48 0.57,-3.48 1.56,-3.02 2.38,-2.4 3.03,-1.55 3.48,-0.56 z m -6.33,1.92 -2.46,1.28 -1.95,1.94 -1.28,2.46 -0.46,2.84 0.46,2.84 1.27,2.47 1.94,1.95 2.46,1.28 2.85,0.46 2.84,-0.47 2.46,-1.28 1.94,-1.94 1.28,-2.46 0.45,-2.84 -0.45,-2.84 -1.28,-2.47 -1.94,-1.95 -2.47,-1.28 -2.85,-0.46 z" id="path120" inkscape:connector-curvature="0"/>
    <use xlink:href="#w" transform="translate(1014.53,562.1)" id="use122" x="0" y="0" width="100%" height="100%"/>
    <path d="m 701.73,945.5 h -2 V 835.3 h 2 z m 0,-131.8 h -2 V 703.5 h 2 z" id="path124" inkscape:connector-curvature="0"/>
    <path d="m 711.62,704.4 -10.9,21.78 -10.9,-21.8 1.8,-0.88 9.1,18.2 9.1,-18.2 z" id="path126" inkscape:connector-curvature="0"/>
    <path d="m 703.9,724.46 2.73,1.42 2.17,2.16 1.42,2.75 0.5,3.15 -0.5,3.16 -1.42,2.75 -2.17,2.17 -2.74,1.42 -3.17,0.5 -3.16,-0.5 -2.75,-1.42 -2.16,-2.17 -1.42,-2.74 -0.5,-3.15 0.5,-3.16 1.42,-2.76 2.16,-2.16 2.75,-1.42 3.16,-0.5 z" id="path128" inkscape:connector-curvature="0" style="fill:#ffffff"/>
    <path d="m 704.2,723.5 3.03,1.56 2.4,2.38 1.55,3.03 0.54,3.32 -1,0.15 1,0.16 -0.54,3.33 -1.56,3.02 -2.4,2.38 -3,1.57 -3.5,0.56 -3.47,-0.56 -3.02,-1.57 -2.4,-2.38 -1.55,-3.02 -0.56,-3.48 0.56,-3.48 1.56,-3.03 2.4,-2.38 3,-1.56 3.5,-0.57 z m -6.32,1.92 -2.46,1.27 -1.95,1.94 -1.27,2.46 -0.46,2.85 0.46,2.84 1.27,2.46 1.95,1.94 2.46,1.28 2.85,0.45 2.84,-0.45 2.47,-1.28 1.94,-1.94 1.28,-2.47 0.46,-2.85 -0.46,-2.85 -1.28,-2.46 -1.94,-1.95 -2.47,-1.28 -2.84,-0.46 z m 13.74,219.18 -1.8,0.9 -9.1,-18.2 -9.1,18.2 -1.8,-0.9 10.9,-21.78 z" id="path130" inkscape:connector-curvature="0"/>
    <path d="m 703.9,905.56 2.73,1.42 2.17,2.17 1.42,2.74 0.5,3.15 -0.5,3.16 -1.42,2.76 -2.17,2.16 -2.74,1.42 -3.17,0.5 -3.16,-0.5 -2.75,-1.42 -2.16,-2.16 -1.42,-2.75 -0.5,-3.15 0.5,-3.16 1.42,-2.75 2.16,-2.17 2.75,-1.42 3.16,-0.5 z" id="path132" inkscape:connector-curvature="0" style="fill:#ffffff"/>
    <path d="m 704.2,904.6 3.03,1.56 2.4,2.4 1.55,3 0.54,3.33 -1,0.15 1,0.16 -0.54,3.33 -1.56,3.02 -2.4,2.4 -3,1.55 -3.5,0.56 -3.47,-0.56 -3.02,-1.56 -2.4,-2.4 -1.55,-3 -0.56,-3.5 0.56,-3.47 1.56,-3.02 2.4,-2.4 3,-1.55 3.5,-0.56 z m -6.32,1.92 -2.46,1.28 -1.95,1.94 -1.27,2.47 -0.46,2.85 0.46,2.85 1.27,2.46 1.95,1.95 2.46,1.28 2.85,0.46 2.84,-0.46 2.47,-1.27 1.94,-1.94 1.28,-2.46 0.46,-2.85 -0.46,-2.84 -1.28,-2.46 -1.94,-1.94 -2.47,-1.28 -2.84,-0.46 z" id="path134" inkscape:connector-curvature="0"/>
    <use xlink:href="#x" transform="translate(666.25841,828.1)" id="use136" x="0" y="0" width="100%" height="100%"/>
    <use xlink:href="#y" transform="translate(714.25841,828.1)" id="use138" x="0" y="0" width="100%" height="100%"/>
    <path d="m 644.8,1045.5 h -2 V 885.3 h 2 z m 0,-181.8 h -2 V 703.5 h 2 z" id="path140" inkscape:connector-curvature="0"/>
    <path id="path142" d="" inkscape:connector-curvature="0" style="fill:#ffffff"/>
    <path d="m 653.8,714.5 h -20 v -2 h 20 z" id="path144" inkscape:connector-curvature="0"/>
    <path id="path146" d="" inkscape:connector-curvature="0" style="fill:#ffffff"/>
    <path d="m 653.8,724.5 h -20 v -2 h 20 z m 0.88,320.1 -1.8,0.9 -9.1,-18.2 -9.1,18.2 -1.8,-0.9 10.9,-21.78 z" id="path148" inkscape:connector-curvature="0"/>
    <path d="m 646.95,1005.56 2.74,1.42 2.16,2.17 1.42,2.74 0.5,3.15 -0.5,3.16 -1.42,2.76 -2.17,2.16 -2.75,1.42 -3.16,0.5 -3.17,-0.5 -2.75,-1.42 -2.16,-2.16 -1.42,-2.75 -0.5,-3.15 0.5,-3.16 1.42,-2.75 2.16,-2.17 2.75,-1.42 3.16,-0.5 z" id="path150" inkscape:connector-curvature="0" style="fill:#ffffff"/>
    <path d="m 647.26,1004.6 3.03,1.56 2.37,2.4 1.57,3 0.53,3.33 -0.98,0.15 0.97,0.16 -0.53,3.33 -1.57,3.02 -2.38,2.4 -3.04,1.55 -3.47,0.56 -3.5,-0.56 -3.02,-1.56 -2.38,-2.4 -1.57,-3 -0.56,-3.5 0.56,-3.47 1.57,-3.02 2.38,-2.4 3.03,-1.55 3.5,-0.56 z m -6.32,1.92 -2.46,1.28 -1.95,1.94 -1.27,2.47 -0.46,2.85 0.46,2.85 1.27,2.46 1.95,1.95 2.46,1.28 2.85,0.46 2.83,-0.46 2.47,-1.27 1.94,-1.94 1.28,-2.46 0.45,-2.85 -0.45,-2.84 -1.28,-2.46 -1.94,-1.94 -2.47,-1.28 -2.84,-0.46 z" id="path152" inkscape:connector-curvature="0"/>
    <use xlink:href="#z" transform="translate(613.81667,878.1)" id="use154" x="0" y="0" width="100%" height="100%"/>
    <path d="m 771,845.5 h -2 v -60.2 h 2 z m 0,-81.8 h -2 v -60.2 h 2 z" id="path156" inkscape:connector-curvature="0"/>
    <path id="path158" d="" inkscape:connector-curvature="0" style="fill:#ffffff"/>
    <path d="m 780,714.5 h -20 v -2 h 20 z" id="path160" inkscape:connector-curvature="0"/>
    <path id="path162" d="" inkscape:connector-curvature="0" style="fill:#ffffff"/>
    <path d="m 780,724.5 h -20 v -2 h 20 z m 0.9,120.1 -1.8,0.9 -9.1,-18.2 -9.1,18.2 -1.8,-0.9 10.9,-21.78 z" id="path164" inkscape:connector-curvature="0"/>
    <path d="m 773.16,805.56 2.75,1.42 2.17,2.17 1.42,2.74 0.5,3.15 -0.5,3.16 -1.43,2.76 -2.16,2.16 -2.74,1.42 -3.16,0.5 -3.16,-0.5 -2.75,-1.42 -2.17,-2.16 -1.42,-2.75 -0.5,-3.15 0.5,-3.16 1.43,-2.75 2.16,-2.17 2.74,-1.42 3.16,-0.5 z" id="path166" inkscape:connector-curvature="0" style="fill:#ffffff"/>
    <path d="m 773.48,804.6 3.02,1.56 2.4,2.4 1.55,3 0.54,3.33 -1,0.15 1,0.16 -0.55,3.33 -1.56,3.02 -2.4,2.4 -3.02,1.55 -3.48,0.56 -3.48,-0.56 -3.02,-1.56 -2.4,-2.4 -1.55,-3 -0.56,-3.5 0.55,-3.47 1.56,-3.02 2.4,-2.4 3.02,-1.55 3.48,-0.56 z m -6.32,1.92 -2.47,1.28 -1.95,1.94 -1.28,2.47 -0.46,2.85 0.47,2.85 1.28,2.46 1.94,1.95 2.46,1.28 2.84,0.46 2.84,-0.46 2.47,-1.27 1.95,-1.94 1.28,-2.46 0.46,-2.85 -0.47,-2.84 -1.28,-2.46 -1.94,-1.94 -2.46,-1.28 -2.84,-0.46 z" id="path168" inkscape:connector-curvature="0"/>
    <use xlink:href="#A" transform="translate(740.03,778.1)" id="use170" x="0" y="0" width="100%" height="100%"/>
    <path d="m 865,845.5 h -2 v -60.2 h 2 z m 0,-81.8 h -2 v -60.2 h 2 z" id="path172" inkscape:connector-curvature="0"/>
    <path d="m 874.9,704.4 -10.9,21.77 -10.9,-21.8 1.8,-0.88 9.1,18.2 9.1,-18.2 z" id="path174" inkscape:connector-curvature="0"/>
    <path d="m 867.16,724.46 2.75,1.42 2.17,2.16 1.42,2.75 0.5,3.15 -0.5,3.16 -1.43,2.75 -2.16,2.17 -2.74,1.42 -3.16,0.5 -3.16,-0.5 -2.75,-1.42 -2.17,-2.17 -1.42,-2.74 -0.5,-3.15 0.5,-3.16 1.43,-2.76 2.16,-2.16 2.74,-1.42 3.16,-0.5 z" id="path176" inkscape:connector-curvature="0" style="fill:#ffffff"/>
    <path d="m 867.48,723.5 3.02,1.56 2.4,2.38 1.55,3.03 0.54,3.32 -1,0.15 1,0.16 -0.55,3.33 -1.56,3.02 -2.4,2.38 -3.02,1.57 -3.48,0.56 -3.48,-0.56 -3.02,-1.57 -2.4,-2.38 -1.55,-3.02 -0.56,-3.48 0.55,-3.48 1.56,-3.03 2.4,-2.38 3.02,-1.56 3.48,-0.57 z m -6.32,1.92 -2.47,1.27 -1.95,1.94 -1.28,2.46 -0.46,2.85 0.47,2.84 1.28,2.46 1.94,1.94 2.46,1.28 2.84,0.45 2.84,-0.45 2.47,-1.28 1.95,-1.94 1.28,-2.47 0.46,-2.85 -0.47,-2.85 -1.28,-2.46 -1.94,-1.95 -2.46,-1.28 -2.84,-0.46 z m 13.74,119.18 -1.8,0.9 -9.1,-18.2 -9.1,18.2 -1.8,-0.9 10.9,-21.78 z" id="path178" inkscape:connector-curvature="0"/>
    <path d="m 867.16,805.56 2.75,1.42 2.17,2.17 1.42,2.74 0.5,3.15 -0.5,3.16 -1.43,2.76 -2.16,2.16 -2.74,1.42 -3.16,0.5 -3.16,-0.5 -2.75,-1.42 -2.17,-2.16 -1.42,-2.75 -0.5,-3.15 0.5,-3.16 1.43,-2.75 2.16,-2.17 2.74,-1.42 3.16,-0.5 z" id="path180" inkscape:connector-curvature="0" style="fill:#ffffff"/>
    <path d="m 867.48,804.6 3.02,1.57 2.4,2.38 1.55,3.02 0.54,3.32 -1,0.15 1,0.16 -0.55,3.33 -1.56,3.03 -2.4,2.38 -3.02,1.56 -3.48,0.57 -3.48,-0.57 -3.02,-1.56 -2.4,-2.38 -1.55,-3.03 -0.56,-3.48 0.55,-3.48 1.56,-3.02 2.4,-2.38 3.02,-1.57 3.48,-0.56 z m -6.32,1.92 -2.47,1.28 -1.95,1.94 -1.28,2.47 -0.46,2.85 0.47,2.85 1.28,2.46 1.94,1.95 2.46,1.28 2.84,0.46 2.84,-0.46 2.47,-1.27 1.95,-1.94 1.28,-2.46 0.46,-2.85 -0.47,-2.84 -1.28,-2.46 -1.94,-1.94 -2.46,-1.28 -2.84,-0.45 z" id="path182" inkscape:connector-curvature="0"/>
    <use xlink:href="#B" transform="translate(808.605,778.1)" id="use184" x="0" y="0" width="100%" height="100%"/>
    <use xlink:href="#C" transform="translate(905.455,778.1)" id="use186" x="0" y="0" width="100%" height="100%"/>
    <path d="m 941,746.5 h 300 v 72 H 941 Z" id="path188" inkscape:connector-curvature="0" style="fill:#ffffff"/>
    <path d="m 941,746.5 h 300 v 40 H 941 Z" id="path190" inkscape:connector-curvature="0" style="fill:#cccccc"/>
    <path d="m 941,746.5 h 300 v 72 H 941 Z m 0,40 h 300 m -150,0 v 32" id="path192" inkscape:connector-curvature="0" style="fill:none;stroke:#000000;stroke-width:2"/>
    <use xlink:href="#D" transform="translate(1063.5,770.1)" id="use194" x="0" y="0" width="100%" height="100%"/>
    <path d="m 1089.57,655.28 2.12,2.9 0.3,1.9 v 85.42 h -2 v -85.25 l -0.2,-1.27 -1.46,-2 -2.5,-0.8 h -13.04 v -2 h 13.36 z M 921,656.18 v -2 h 46.2 v 2 z" id="path196" inkscape:connector-curvature="0"/>
    <path d="m 943.68,655.17 -21.8,10.9 -0.88,-1.8 18.2,-9.1 -18.2,-9.1 0.9,-1.8 z" id="path198" inkscape:connector-curvature="0"/>
    <path id="path200" d="" inkscape:connector-curvature="0" style="fill:#ffffff"/>
    <path d="m 942.45,665.17 h -2 v -20 h 2 z m 159.45,79.43 -1.8,0.9 -9.1,-18.2 -9.1,18.2 -1.8,-0.9 10.9,-21.78 z" id="path202" inkscape:connector-curvature="0"/>
    <path d="m 1094.16,705.56 2.75,1.42 2.17,2.17 1.42,2.74 0.5,3.15 -0.5,3.16 -1.43,2.76 -2.16,2.16 -2.74,1.42 -3.16,0.5 -3.16,-0.5 -2.75,-1.42 -2.17,-2.16 -1.42,-2.75 -0.5,-3.15 0.5,-3.16 1.43,-2.75 2.16,-2.17 2.74,-1.42 3.16,-0.5 z" id="path204" inkscape:connector-curvature="0" style="fill:#ffffff"/>
    <path d="m 1094.48,704.6 3.02,1.57 2.4,2.38 1.55,3.02 0.54,3.32 -1,0.15 1,0.16 -0.55,3.33 -1.56,3.03 -2.4,2.38 -3.02,1.56 -3.48,0.57 -3.48,-0.57 -3.02,-1.56 -2.4,-2.38 -1.55,-3.03 -0.56,-3.48 0.55,-3.48 1.56,-3.02 2.4,-2.38 3.02,-1.57 3.48,-0.56 z m -6.32,1.92 -2.47,1.28 -1.95,1.94 -1.28,2.47 -0.46,2.85 0.47,2.85 1.28,2.46 1.94,1.95 2.46,1.28 2.84,0.46 2.84,-0.46 2.47,-1.27 1.95,-1.94 1.28,-2.46 0.46,-2.85 -0.47,-2.84 -1.28,-2.46 -1.94,-1.94 -2.46,-1.28 -2.84,-0.45 z" id="path206" inkscape:connector-curvature="0"/>
    <g id="g214">
    <use xlink:href="#E" transform="translate(967.205,658.76667)" id="use208" x="0" y="0" width="100%" height="100%"/>
    <use xlink:href="#F" transform="translate(985.155,658.76667)" id="use210" x="0" y="0" width="100%" height="100%"/>
    <use xlink:href="#G" transform="translate(1053.805,658.76667)" id="use212" x="0" y="0" width="100%" height="100%"/>
    </g>
    <defs id="defs671">
    <path d="M 141,-36 C 126,-15 110,5 73,4 37,3 15,-17 15,-53 c -1,-64 63,-63 125,-63 3,-35 -9,-54 -41,-54 -24,1 -41,7 -42,31 l -33,-3 c 5,-37 33,-52 76,-52 45,0 72,20 72,64 v 82 c -1,20 7,32 28,27 V -1 C 169,8 139,-3 141,-36 Z M 48,-53 c 0,20 12,33 32,33 41,-3 63,-29 60,-74 -43,2 -92,-5 -92,41" id="H" inkscape:connector-curvature="0"/>
    <path d="m 96,-169 c -40,0 -48,33 -48,73 0,40 9,75 48,75 24,0 41,-14 43,-38 l 32,2 C 165,-20 140,4 97,4 38,4 21,-37 15,-95 c -10,-93 101,-131 147,-64 4,7 5,14 7,22 l -32,3 c -4,-21 -16,-35 -41,-35" id="I" inkscape:connector-curvature="0"/>
    <path d="m 100,-194 c 62,-1 85,37 85,99 1,63 -27,99 -86,99 -59,0 -83,-39 -84,-99 0,-66 28,-99 85,-99 z m -1,174 c 44,1 53,-31 53,-75 0,-43 -8,-75 -51,-75 -43,0 -53,32 -53,75 0,43 10,74 51,75" id="J" inkscape:connector-curvature="0"/>
    <path d="M 84,4 C -5,8 30,-112 23,-190 h 32 v 120 c 0,31 7,50 39,49 72,-2 45,-101 50,-169 h 31 l 1,190 h -30 c -1,-10 1,-25 -2,-33 -11,22 -28,36 -60,37" id="K" inkscape:connector-curvature="0"/>
    <path d="m 117,-194 c 89,-4 53,116 60,194 h -32 v -121 c 0,-31 -8,-49 -39,-48 C 34,-167 62,-67 57,0 H 25 l -1,-190 h 30 c 1,10 -1,24 2,32 11,-22 29,-35 61,-36" id="L" inkscape:connector-curvature="0"/>
    <path d="m 59,-47 c -2,24 18,29 38,22 V -1 C 64,9 27,4 27,-40 V -167 H 5 v -23 h 24 l 9,-43 h 21 v 43 h 35 v 23 H 59 v 120" id="M" inkscape:connector-curvature="0"/>
    <g id="a">
        <use transform="scale(0.05)" xlink:href="#H" id="use222" x="0" y="0" width="100%" height="100%"/>
        <use transform="matrix(0.05,0,0,0.05,10,0)" xlink:href="#I" id="use224" x="0" y="0" width="100%" height="100%"/>
        <use transform="matrix(0.05,0,0,0.05,19,0)" xlink:href="#I" id="use226" x="0" y="0" width="100%" height="100%"/>
        <use transform="matrix(0.05,0,0,0.05,28,0)" xlink:href="#J" id="use228" x="0" y="0" width="100%" height="100%"/>
        <use transform="matrix(0.05,0,0,0.05,38,0)" xlink:href="#K" id="use230" x="0" y="0" width="100%" height="100%"/>
        <use transform="matrix(0.05,0,0,0.05,48,0)" xlink:href="#L" id="use232" x="0" y="0" width="100%" height="100%"/>
        <use transform="matrix(0.05,0,0,0.05,58,0)" xlink:href="#M" id="use234" x="0" y="0" width="100%" height="100%"/>
    </g>
    <path d="m 25,-224 v -37 h 50 v 37 z M 25,0 V -190 H 75 V 0 H 25" id="N" inkscape:connector-curvature="0"/>
    <path d="m 88,-194 c 31,-1 46,15 58,34 l -1,-101 h 50 l 1,261 h -48 c -2,-10 0,-23 -3,-31 C 134,-8 116,4 84,4 32,4 16,-41 15,-95 c 0,-56 19,-97 73,-99 z m 17,164 c 33,0 40,-30 41,-66 1,-37 -9,-64 -41,-64 -32,0 -38,30 -39,65 0,43 13,65 39,65" id="O" inkscape:connector-curvature="0"/>
    <g id="b">
        <use transform="scale(0.05)" xlink:href="#N" id="use239" x="0" y="0" width="100%" height="100%"/>
        <use transform="matrix(0.05,0,0,0.05,5,0)" xlink:href="#O" id="use241" x="0" y="0" width="100%" height="100%"/>
        <path d="m -0.9,0.97 h 17.75 v 1.9 H -0.9 Z" id="path243" inkscape:connector-curvature="0"/>
    </g>
    <path d="m 24,-231 v -30 h 32 v 30 z M 24,0 V -190 H 56 V 0 H 24" id="P" inkscape:connector-curvature="0"/>
    <g id="c">
        <use transform="scale(0.05)" xlink:href="#P" id="use247" x="0" y="0" width="100%" height="100%"/>
        <use transform="matrix(0.05,0,0,0.05,3.95,0)" xlink:href="#L" id="use249" x="0" y="0" width="100%" height="100%"/>
        <use transform="matrix(0.05,0,0,0.05,13.95,0)" xlink:href="#M" id="use251" x="0" y="0" width="100%" height="100%"/>
    </g>
    <path d="m 135,-143 c -3,-34 -86,-38 -87,0 15,53 115,12 119,90 4,78 -150,74 -157,8 l 28,-5 c 4,36 97,45 98,0 -10,-56 -113,-15 -118,-90 -4,-57 82,-63 122,-42 12,7 21,19 24,35" id="Q" inkscape:connector-curvature="0"/>
    <path d="m 100,-194 c 63,0 86,42 84,106 H 49 c 0,40 14,67 53,68 26,1 43,-12 49,-29 l 28,8 C 168,-13 142,4 102,4 44,4 14,-33 15,-96 c 1,-61 26,-98 85,-98 z m 52,81 c 6,-60 -76,-77 -97,-28 -3,7 -6,17 -6,28 h 103" id="R" inkscape:connector-curvature="0"/>
    <path d="M 114,-163 C 36,-179 61,-72 57,0 H 25 l -1,-190 h 30 c 1,12 -1,29 2,39 6,-27 23,-49 58,-41 v 29" id="S" inkscape:connector-curvature="0"/>
    <path d="m 210,-169 c -67,3 -38,105 -44,169 h -31 v -121 c 0,-29 -5,-50 -35,-48 C 34,-165 62,-65 56,0 H 25 l -1,-190 h 30 c 1,10 -1,24 2,32 10,-44 99,-50 107,0 11,-21 27,-35 58,-36 85,-2 47,119 55,194 h -31 v -121 c 0,-29 -5,-49 -35,-48" id="T" inkscape:connector-curvature="0"/>
    <g id="d">
        <use transform="scale(0.05)" xlink:href="#K" id="use258" x="0" y="0" width="100%" height="100%"/>
        <use transform="matrix(0.05,0,0,0.05,10,0)" xlink:href="#Q" id="use260" x="0" y="0" width="100%" height="100%"/>
        <use transform="matrix(0.05,0,0,0.05,19,0)" xlink:href="#R" id="use262" x="0" y="0" width="100%" height="100%"/>
        <use transform="matrix(0.05,0,0,0.05,29,0)" xlink:href="#S" id="use264" x="0" y="0" width="100%" height="100%"/>
        <use transform="matrix(0.05,0,0,0.05,34.95,0)" xlink:href="#L" id="use266" x="0" y="0" width="100%" height="100%"/>
        <use transform="matrix(0.05,0,0,0.05,44.95,0)" xlink:href="#H" id="use268" x="0" y="0" width="100%" height="100%"/>
        <use transform="matrix(0.05,0,0,0.05,54.95,0)" xlink:href="#T" id="use270" x="0" y="0" width="100%" height="100%"/>
        <use transform="matrix(0.05,0,0,0.05,69.9,0)" xlink:href="#R" id="use272" x="0" y="0" width="100%" height="100%"/>
    </g>
    <path d="m 185,-189 c -5,-48 -123,-54 -124,2 14,75 158,14 163,119 C 227,10 103,19 49,-13 32,-23 21,-39 16,-59 l 33,-7 c 5,56 141,63 141,-1 0,-78 -155,-14 -162,-118 -5,-82 145,-84 179,-34 5,7 8,16 11,25" id="U" inkscape:connector-curvature="0"/>
    <path d="M 177,-190 C 167,-65 218,103 67,71 44,65 29,51 23,28 L 55,23 C 70,70 155,55 144,-5 V -35 C 133,-14 115,1 83,1 29,1 15,-40 15,-95 c 0,-56 16,-97 71,-98 29,-1 48,16 59,35 1,-10 0,-23 2,-32 z M 94,-22 c 36,0 50,-32 50,-73 0,-42 -14,-75 -50,-75 -39,0 -46,34 -46,75 0,41 6,73 46,73" id="V" inkscape:connector-curvature="0"/>
    <g id="e">
        <use transform="scale(0.05)" xlink:href="#U" id="use277" x="0" y="0" width="100%" height="100%"/>
        <use transform="matrix(0.05,0,0,0.05,12,0)" xlink:href="#M" id="use279" x="0" y="0" width="100%" height="100%"/>
        <use transform="matrix(0.05,0,0,0.05,17,0)" xlink:href="#S" id="use281" x="0" y="0" width="100%" height="100%"/>
        <use transform="matrix(0.05,0,0,0.05,22.95,0)" xlink:href="#P" id="use283" x="0" y="0" width="100%" height="100%"/>
        <use transform="matrix(0.05,0,0,0.05,26.9,0)" xlink:href="#L" id="use285" x="0" y="0" width="100%" height="100%"/>
        <use transform="matrix(0.05,0,0,0.05,36.9,0)" xlink:href="#V" id="use287" x="0" y="0" width="100%" height="100%"/>
    </g>
    <path d="M 24,0 V -261 H 56 V 0 H 24" id="W" inkscape:connector-curvature="0"/>
    <g id="f">
        <use transform="scale(0.05)" xlink:href="#R" id="use291" x="0" y="0" width="100%" height="100%"/>
        <use transform="matrix(0.05,0,0,0.05,10,0)" xlink:href="#T" id="use293" x="0" y="0" width="100%" height="100%"/>
        <use transform="matrix(0.05,0,0,0.05,24.95,0)" xlink:href="#H" id="use295" x="0" y="0" width="100%" height="100%"/>
        <use transform="matrix(0.05,0,0,0.05,34.95,0)" xlink:href="#P" id="use297" x="0" y="0" width="100%" height="100%"/>
        <use transform="matrix(0.05,0,0,0.05,38.9,0)" xlink:href="#W" id="use299" x="0" y="0" width="100%" height="100%"/>
    </g>
    <path d="m 115,-194 c 55,1 70,41 70,98 C 185,-39 169,2 115,4 84,4 66,-9 55,-30 L 56,75 H 24 l -1,-265 h 31 l 2,30 c 10,-21 28,-34 59,-34 z m -8,174 c 40,0 45,-34 45,-75 0,-41 -6,-73 -45,-74 -42,0 -51,32 -51,76 0,43 10,73 51,73" id="X" inkscape:connector-curvature="0"/>
    <path d="M 206,0 H 170 L 130,-164 89,0 H 53 L -1,-190 h 32 l 39,164 43,-164 h 34 l 41,164 42,-164 h 31" id="Y" inkscape:connector-curvature="0"/>
    <path d="m 85,-194 c 31,0 48,13 60,33 l -1,-100 h 32 l 1,261 h -30 c -2,-10 0,-23 -3,-31 C 134,-8 116,4 85,4 32,4 16,-35 15,-94 c 0,-66 23,-100 70,-100 z m 9,24 c -40,0 -46,34 -46,75 0,40 6,74 45,74 42,0 51,-32 51,-76 0,-42 -9,-74 -50,-73" id="Z" inkscape:connector-curvature="0"/>
    <g id="g">
        <use transform="scale(0.05)" xlink:href="#X" id="use305" x="0" y="0" width="100%" height="100%"/>
        <use transform="matrix(0.05,0,0,0.05,10,0)" xlink:href="#H" id="use307" x="0" y="0" width="100%" height="100%"/>
        <use transform="matrix(0.05,0,0,0.05,20,0)" xlink:href="#Q" id="use309" x="0" y="0" width="100%" height="100%"/>
        <use transform="matrix(0.05,0,0,0.05,29,0)" xlink:href="#Q" id="use311" x="0" y="0" width="100%" height="100%"/>
        <use transform="matrix(0.05,0,0,0.05,38,0)" xlink:href="#Y" id="use313" x="0" y="0" width="100%" height="100%"/>
        <use transform="matrix(0.05,0,0,0.05,50.95,0)" xlink:href="#J" id="use315" x="0" y="0" width="100%" height="100%"/>
        <use transform="matrix(0.05,0,0,0.05,60.95,0)" xlink:href="#S" id="use317" x="0" y="0" width="100%" height="100%"/>
        <use transform="matrix(0.05,0,0,0.05,66.9,0)" xlink:href="#Z" id="use319" x="0" y="0" width="100%" height="100%"/>
        <use transform="matrix(0.05,0,0,0.05,76.9,0)" xlink:href="#Q" id="use321" x="0" y="0" width="100%" height="100%"/>
        <use transform="matrix(0.05,0,0,0.05,85.9,0)" xlink:href="#H" id="use323" x="0" y="0" width="100%" height="100%"/>
        <use transform="matrix(0.05,0,0,0.05,95.9,0)" xlink:href="#W" id="use325" x="0" y="0" width="100%" height="100%"/>
        <use transform="matrix(0.05,0,0,0.05,99.85,0)" xlink:href="#M" id="use327" x="0" y="0" width="100%" height="100%"/>
    </g>
    <path d="M 106,-169 C 34,-169 62,-67 57,0 H 25 v -261 h 32 l -1,103 c 12,-21 28,-36 61,-36 89,0 53,116 60,194 h -32 v -121 c 2,-32 -8,-49 -39,-48" id="aa" inkscape:connector-curvature="0"/>
    <g id="h">
        <use transform="scale(0.05)" xlink:href="#X" id="use331" x="0" y="0" width="100%" height="100%"/>
        <use transform="matrix(0.05,0,0,0.05,10,0)" xlink:href="#H" id="use333" x="0" y="0" width="100%" height="100%"/>
        <use transform="matrix(0.05,0,0,0.05,20,0)" xlink:href="#Q" id="use335" x="0" y="0" width="100%" height="100%"/>
        <use transform="matrix(0.05,0,0,0.05,29,0)" xlink:href="#Q" id="use337" x="0" y="0" width="100%" height="100%"/>
        <use transform="matrix(0.05,0,0,0.05,38,0)" xlink:href="#Y" id="use339" x="0" y="0" width="100%" height="100%"/>
        <use transform="matrix(0.05,0,0,0.05,50.95,0)" xlink:href="#J" id="use341" x="0" y="0" width="100%" height="100%"/>
        <use transform="matrix(0.05,0,0,0.05,60.95,0)" xlink:href="#S" id="use343" x="0" y="0" width="100%" height="100%"/>
        <use transform="matrix(0.05,0,0,0.05,66.9,0)" xlink:href="#Z" id="use345" x="0" y="0" width="100%" height="100%"/>
        <use transform="matrix(0.05,0,0,0.05,76.9,0)" xlink:href="#aa" id="use347" x="0" y="0" width="100%" height="100%"/>
        <use transform="matrix(0.05,0,0,0.05,86.9,0)" xlink:href="#H" id="use349" x="0" y="0" width="100%" height="100%"/>
        <use transform="matrix(0.05,0,0,0.05,96.9,0)" xlink:href="#Q" id="use351" x="0" y="0" width="100%" height="100%"/>
        <use transform="matrix(0.05,0,0,0.05,105.9,0)" xlink:href="#aa" id="use353" x="0" y="0" width="100%" height="100%"/>
    </g>
    <g id="i">
        <use transform="scale(0.05)" xlink:href="#W" id="use356" x="0" y="0" width="100%" height="100%"/>
        <use transform="matrix(0.05,0,0,0.05,3.95,0)" xlink:href="#J" id="use358" x="0" y="0" width="100%" height="100%"/>
        <use transform="matrix(0.05,0,0,0.05,13.95,0)" xlink:href="#L" id="use360" x="0" y="0" width="100%" height="100%"/>
    </g>
    <path d="m 115,-194 c 53,0 69,39 70,98 C 185,-30 162,4 115,4 84,3 66,-7 56,-30 L 54,0 H 23 l 1,-261 h 32 v 101 c 10,-23 28,-34 59,-34 z m -8,174 c 40,0 45,-34 45,-75 0,-40 -5,-75 -45,-74 -42,0 -51,32 -51,76 0,43 10,73 51,73" id="ab" inkscape:connector-curvature="0"/>
    <g id="j">
        <use transform="scale(0.05)" xlink:href="#Z" id="use364" x="0" y="0" width="100%" height="100%"/>
        <use transform="matrix(0.05,0,0,0.05,10,0)" xlink:href="#J" id="use366" x="0" y="0" width="100%" height="100%"/>
        <use transform="matrix(0.05,0,0,0.05,20,0)" xlink:href="#K" id="use368" x="0" y="0" width="100%" height="100%"/>
        <use transform="matrix(0.05,0,0,0.05,30,0)" xlink:href="#ab" id="use370" x="0" y="0" width="100%" height="100%"/>
        <use transform="matrix(0.05,0,0,0.05,40,0)" xlink:href="#W" id="use372" x="0" y="0" width="100%" height="100%"/>
        <use transform="matrix(0.05,0,0,0.05,43.95,0)" xlink:href="#R" id="use374" x="0" y="0" width="100%" height="100%"/>
    </g>
    <g id="k">
        <use transform="scale(0.05)" xlink:href="#W" id="use377" x="0" y="0" width="100%" height="100%"/>
        <use transform="matrix(0.05,0,0,0.05,3.95,0)" xlink:href="#H" id="use379" x="0" y="0" width="100%" height="100%"/>
        <use transform="matrix(0.05,0,0,0.05,13.95,0)" xlink:href="#M" id="use381" x="0" y="0" width="100%" height="100%"/>
    </g>
    <g id="l">
        <use transform="scale(0.05)" xlink:href="#M" id="use384" x="0" y="0" width="100%" height="100%"/>
        <use transform="matrix(0.05,0,0,0.05,5,0)" xlink:href="#P" id="use386" x="0" y="0" width="100%" height="100%"/>
        <use transform="matrix(0.05,0,0,0.05,8.95,0)" xlink:href="#T" id="use388" x="0" y="0" width="100%" height="100%"/>
        <use transform="matrix(0.05,0,0,0.05,23.9,0)" xlink:href="#R" id="use390" x="0" y="0" width="100%" height="100%"/>
        <use transform="matrix(0.05,0,0,0.05,33.9,0)" xlink:href="#T" id="use392" x="0" y="0" width="100%" height="100%"/>
        <use transform="matrix(0.05,0,0,0.05,48.85,0)" xlink:href="#R" id="use394" x="0" y="0" width="100%" height="100%"/>
        <use transform="matrix(0.05,0,0,0.05,58.85,0)" xlink:href="#H" id="use396" x="0" y="0" width="100%" height="100%"/>
        <use transform="matrix(0.05,0,0,0.05,68.85,0)" xlink:href="#Q" id="use398" x="0" y="0" width="100%" height="100%"/>
        <use transform="matrix(0.05,0,0,0.05,77.85,0)" xlink:href="#K" id="use400" x="0" y="0" width="100%" height="100%"/>
        <use transform="matrix(0.05,0,0,0.05,87.85,0)" xlink:href="#S" id="use402" x="0" y="0" width="100%" height="100%"/>
        <use transform="matrix(0.05,0,0,0.05,93.8,0)" xlink:href="#R" id="use404" x="0" y="0" width="100%" height="100%"/>
        <use transform="matrix(0.05,0,0,0.05,103.8,0)" xlink:href="#Z" id="use406" x="0" y="0" width="100%" height="100%"/>
    </g>
    <path d="M 127,-220 V 0 H 93 V -220 H 8 v -28 h 204 v 28 h -85" id="ac" inkscape:connector-curvature="0"/>
    <g id="m">
        <use transform="scale(0.05)" xlink:href="#ac" id="use410" x="0" y="0" width="100%" height="100%"/>
        <use transform="matrix(0.05,0,0,0.05,10.3,0)" xlink:href="#P" id="use412" x="0" y="0" width="100%" height="100%"/>
        <use transform="matrix(0.05,0,0,0.05,14.25,0)" xlink:href="#T" id="use414" x="0" y="0" width="100%" height="100%"/>
        <use transform="matrix(0.05,0,0,0.05,29.2,0)" xlink:href="#R" id="use416" x="0" y="0" width="100%" height="100%"/>
    </g>
    <path d="M 108,0 H 70 L 1,-190 h 34 l 54,165 56,-165 h 34" id="ad" inkscape:connector-curvature="0"/>
    <g id="n">
        <use transform="scale(0.05)" xlink:href="#R" id="use420" x="0" y="0" width="100%" height="100%"/>
        <use transform="matrix(0.05,0,0,0.05,10,0)" xlink:href="#ad" id="use422" x="0" y="0" width="100%" height="100%"/>
        <use transform="matrix(0.05,0,0,0.05,19,0)" xlink:href="#R" id="use424" x="0" y="0" width="100%" height="100%"/>
        <use transform="matrix(0.05,0,0,0.05,29,0)" xlink:href="#L" id="use426" x="0" y="0" width="100%" height="100%"/>
        <use transform="matrix(0.05,0,0,0.05,39,0)" xlink:href="#M" id="use428" x="0" y="0" width="100%" height="100%"/>
    </g>
    <g id="o">
        <use transform="scale(0.05)" xlink:href="#X" id="use431" x="0" y="0" width="100%" height="100%"/>
        <use transform="matrix(0.05,0,0,0.05,10,0)" xlink:href="#J" id="use433" x="0" y="0" width="100%" height="100%"/>
        <use transform="matrix(0.05,0,0,0.05,20,0)" xlink:href="#W" id="use435" x="0" y="0" width="100%" height="100%"/>
        <use transform="matrix(0.05,0,0,0.05,23.95,0)" xlink:href="#W" id="use437" x="0" y="0" width="100%" height="100%"/>
    </g>
    <g id="p">
        <use transform="scale(0.05)" xlink:href="#X" id="use440" x="0" y="0" width="100%" height="100%"/>
        <use transform="matrix(0.05,0,0,0.05,10,0)" xlink:href="#J" id="use442" x="0" y="0" width="100%" height="100%"/>
        <use transform="matrix(0.05,0,0,0.05,20,0)" xlink:href="#W" id="use444" x="0" y="0" width="100%" height="100%"/>
        <use transform="matrix(0.05,0,0,0.05,23.95,0)" xlink:href="#W" id="use446" x="0" y="0" width="100%" height="100%"/>
        <use transform="matrix(0.05,0,0,0.05,27.9,0)" xlink:href="#J" id="use448" x="0" y="0" width="100%" height="100%"/>
        <use transform="matrix(0.05,0,0,0.05,37.9,0)" xlink:href="#X" id="use450" x="0" y="0" width="100%" height="100%"/>
        <use transform="matrix(0.05,0,0,0.05,47.9,0)" xlink:href="#M" id="use452" x="0" y="0" width="100%" height="100%"/>
        <use transform="matrix(0.05,0,0,0.05,52.9,0)" xlink:href="#P" id="use454" x="0" y="0" width="100%" height="100%"/>
        <use transform="matrix(0.05,0,0,0.05,56.85,0)" xlink:href="#J" id="use456" x="0" y="0" width="100%" height="100%"/>
        <use transform="matrix(0.05,0,0,0.05,66.85,0)" xlink:href="#L" id="use458" x="0" y="0" width="100%" height="100%"/>
    </g>
    <g id="q">
        <use transform="scale(0.05)" xlink:href="#V" id="use461" x="0" y="0" width="100%" height="100%"/>
        <use transform="matrix(0.05,0,0,0.05,10,0)" xlink:href="#S" id="use463" x="0" y="0" width="100%" height="100%"/>
        <use transform="matrix(0.05,0,0,0.05,15.95,0)" xlink:href="#J" id="use465" x="0" y="0" width="100%" height="100%"/>
        <use transform="matrix(0.05,0,0,0.05,25.95,0)" xlink:href="#K" id="use467" x="0" y="0" width="100%" height="100%"/>
        <use transform="matrix(0.05,0,0,0.05,35.95,0)" xlink:href="#X" id="use469" x="0" y="0" width="100%" height="100%"/>
        <use transform="matrix(0.05,0,0,0.05,45.95,0)" xlink:href="#T" id="use471" x="0" y="0" width="100%" height="100%"/>
        <use transform="matrix(0.05,0,0,0.05,60.9,0)" xlink:href="#R" id="use473" x="0" y="0" width="100%" height="100%"/>
        <use transform="matrix(0.05,0,0,0.05,70.9,0)" xlink:href="#T" id="use475" x="0" y="0" width="100%" height="100%"/>
        <use transform="matrix(0.05,0,0,0.05,85.85,0)" xlink:href="#ab" id="use477" x="0" y="0" width="100%" height="100%"/>
        <use transform="matrix(0.05,0,0,0.05,95.85,0)" xlink:href="#R" id="use479" x="0" y="0" width="100%" height="100%"/>
        <use transform="matrix(0.05,0,0,0.05,105.85,0)" xlink:href="#S" id="use481" x="0" y="0" width="100%" height="100%"/>
        <use transform="matrix(0.05,0,0,0.05,111.8,0)" xlink:href="#Q" id="use483" x="0" y="0" width="100%" height="100%"/>
        <use transform="matrix(0.05,0,0,0.05,120.8,0)" xlink:href="#aa" id="use485" x="0" y="0" width="100%" height="100%"/>
        <use transform="matrix(0.05,0,0,0.05,130.8,0)" xlink:href="#P" id="use487" x="0" y="0" width="100%" height="100%"/>
        <use transform="matrix(0.05,0,0,0.05,134.75,0)" xlink:href="#X" id="use489" x="0" y="0" width="100%" height="100%"/>
    </g>
    <g id="r">
        <use transform="scale(0.05)" xlink:href="#ab" id="use492" x="0" y="0" width="100%" height="100%"/>
        <use transform="matrix(0.05,0,0,0.05,10,0)" xlink:href="#R" id="use494" x="0" y="0" width="100%" height="100%"/>
        <use transform="matrix(0.05,0,0,0.05,20,0)" xlink:href="#W" id="use496" x="0" y="0" width="100%" height="100%"/>
        <use transform="matrix(0.05,0,0,0.05,23.95,0)" xlink:href="#J" id="use498" x="0" y="0" width="100%" height="100%"/>
        <use transform="matrix(0.05,0,0,0.05,33.95,0)" xlink:href="#L" id="use500" x="0" y="0" width="100%" height="100%"/>
        <use transform="matrix(0.05,0,0,0.05,43.95,0)" xlink:href="#V" id="use502" x="0" y="0" width="100%" height="100%"/>
        <use transform="matrix(0.05,0,0,0.05,53.95,0)" xlink:href="#Q" id="use504" x="0" y="0" width="100%" height="100%"/>
    </g>
    <g id="s">
        <use transform="scale(0.05)" xlink:href="#M" id="use507" x="0" y="0" width="100%" height="100%"/>
        <use transform="matrix(0.05,0,0,0.05,5,0)" xlink:href="#J" id="use509" x="0" y="0" width="100%" height="100%"/>
    </g>
    <g id="t">
        <use transform="scale(0.05)" xlink:href="#P" id="use512" x="0" y="0" width="100%" height="100%"/>
        <use transform="matrix(0.05,0,0,0.05,3.95,0)" xlink:href="#Q" id="use514" x="0" y="0" width="100%" height="100%"/>
    </g>
    <g id="u">
        <use transform="scale(0.05)" xlink:href="#I" id="use517" x="0" y="0" width="100%" height="100%"/>
        <use transform="matrix(0.05,0,0,0.05,9,0)" xlink:href="#J" id="use519" x="0" y="0" width="100%" height="100%"/>
        <use transform="matrix(0.05,0,0,0.05,19,0)" xlink:href="#L" id="use521" x="0" y="0" width="100%" height="100%"/>
        <use transform="matrix(0.05,0,0,0.05,29,0)" xlink:href="#M" id="use523" x="0" y="0" width="100%" height="100%"/>
        <use transform="matrix(0.05,0,0,0.05,34,0)" xlink:href="#H" id="use525" x="0" y="0" width="100%" height="100%"/>
        <use transform="matrix(0.05,0,0,0.05,44,0)" xlink:href="#I" id="use527" x="0" y="0" width="100%" height="100%"/>
        <use transform="matrix(0.05,0,0,0.05,53,0)" xlink:href="#M" id="use529" x="0" y="0" width="100%" height="100%"/>
    </g>
    <path d="m 101,-234 c -31,-9 -42,10 -38,44 h 38 v 23 H 63 V 0 H 32 V -167 H 5 v -23 h 27 c -7,-52 17,-82 69,-68 v 24" id="ae" inkscape:connector-curvature="0"/>
    <g id="v">
        <use transform="scale(0.05)" xlink:href="#J" id="use533" x="0" y="0" width="100%" height="100%"/>
        <use transform="matrix(0.05,0,0,0.05,10,0)" xlink:href="#ae" id="use535" x="0" y="0" width="100%" height="100%"/>
    </g>
    <path d="M 143,0 79,-87 56,-68 V 0 H 24 v -261 h 32 v 163 l 83,-92 h 37 l -77,82 82,108 h -38" id="af" inkscape:connector-curvature="0"/>
    <g id="w">
        <use transform="scale(0.05)" xlink:href="#ab" id="use539" x="0" y="0" width="100%" height="100%"/>
        <use transform="matrix(0.05,0,0,0.05,10,0)" xlink:href="#W" id="use541" x="0" y="0" width="100%" height="100%"/>
        <use transform="matrix(0.05,0,0,0.05,13.95,0)" xlink:href="#J" id="use543" x="0" y="0" width="100%" height="100%"/>
        <use transform="matrix(0.05,0,0,0.05,23.95,0)" xlink:href="#I" id="use545" x="0" y="0" width="100%" height="100%"/>
        <use transform="matrix(0.05,0,0,0.05,32.95,0)" xlink:href="#af" id="use547" x="0" y="0" width="100%" height="100%"/>
        <use transform="matrix(0.05,0,0,0.05,41.95,0)" xlink:href="#Q" id="use549" x="0" y="0" width="100%" height="100%"/>
    </g>
    <g id="x">
        <use transform="scale(0.05)" xlink:href="#ad" id="use552" x="0" y="0" width="100%" height="100%"/>
        <use transform="matrix(0.05,0,0,0.05,9,0)" xlink:href="#J" id="use554" x="0" y="0" width="100%" height="100%"/>
        <use transform="matrix(0.05,0,0,0.05,19,0)" xlink:href="#M" id="use556" x="0" y="0" width="100%" height="100%"/>
        <use transform="matrix(0.05,0,0,0.05,24,0)" xlink:href="#R" id="use558" x="0" y="0" width="100%" height="100%"/>
        <use transform="matrix(0.05,0,0,0.05,34,0)" xlink:href="#Q" id="use560" x="0" y="0" width="100%" height="100%"/>
    </g>
    <g id="y">
        <use transform="scale(0.05)" xlink:href="#ae" id="use563" x="0" y="0" width="100%" height="100%"/>
        <use transform="matrix(0.05,0,0,0.05,5,0)" xlink:href="#J" id="use565" x="0" y="0" width="100%" height="100%"/>
        <use transform="matrix(0.05,0,0,0.05,15,0)" xlink:href="#S" id="use567" x="0" y="0" width="100%" height="100%"/>
    </g>
    <g id="z">
        <use transform="scale(0.05)" xlink:href="#I" id="use570" x="0" y="0" width="100%" height="100%"/>
        <use transform="matrix(0.05,0,0,0.05,9,0)" xlink:href="#S" id="use572" x="0" y="0" width="100%" height="100%"/>
        <use transform="matrix(0.05,0,0,0.05,14.95,0)" xlink:href="#R" id="use574" x="0" y="0" width="100%" height="100%"/>
        <use transform="matrix(0.05,0,0,0.05,24.95,0)" xlink:href="#H" id="use576" x="0" y="0" width="100%" height="100%"/>
        <use transform="matrix(0.05,0,0,0.05,34.95,0)" xlink:href="#M" id="use578" x="0" y="0" width="100%" height="100%"/>
        <use transform="matrix(0.05,0,0,0.05,39.95,0)" xlink:href="#R" id="use580" x="0" y="0" width="100%" height="100%"/>
        <use transform="matrix(0.05,0,0,0.05,49.95,0)" xlink:href="#Z" id="use582" x="0" y="0" width="100%" height="100%"/>
    </g>
    <g id="A">
        <use transform="scale(0.05)" xlink:href="#I" id="use585" x="0" y="0" width="100%" height="100%"/>
        <use transform="matrix(0.05,0,0,0.05,9,0)" xlink:href="#S" id="use587" x="0" y="0" width="100%" height="100%"/>
        <use transform="matrix(0.05,0,0,0.05,14.95,0)" xlink:href="#R" id="use589" x="0" y="0" width="100%" height="100%"/>
        <use transform="matrix(0.05,0,0,0.05,24.95,0)" xlink:href="#H" id="use591" x="0" y="0" width="100%" height="100%"/>
        <use transform="matrix(0.05,0,0,0.05,34.95,0)" xlink:href="#M" id="use593" x="0" y="0" width="100%" height="100%"/>
        <use transform="matrix(0.05,0,0,0.05,39.95,0)" xlink:href="#R" id="use595" x="0" y="0" width="100%" height="100%"/>
        <use transform="matrix(0.05,0,0,0.05,49.95,0)" xlink:href="#Z" id="use597" x="0" y="0" width="100%" height="100%"/>
    </g>
    <g id="B">
        <use transform="scale(0.05)" xlink:href="#X" id="use600" x="0" y="0" width="100%" height="100%"/>
        <use transform="matrix(0.05,0,0,0.05,10,0)" xlink:href="#H" id="use602" x="0" y="0" width="100%" height="100%"/>
        <use transform="matrix(0.05,0,0,0.05,20,0)" xlink:href="#S" id="use604" x="0" y="0" width="100%" height="100%"/>
        <use transform="matrix(0.05,0,0,0.05,25.95,0)" xlink:href="#M" id="use606" x="0" y="0" width="100%" height="100%"/>
        <use transform="matrix(0.05,0,0,0.05,30.95,0)" xlink:href="#P" id="use608" x="0" y="0" width="100%" height="100%"/>
        <use transform="matrix(0.05,0,0,0.05,34.9,0)" xlink:href="#I" id="use610" x="0" y="0" width="100%" height="100%"/>
        <use transform="matrix(0.05,0,0,0.05,43.9,0)" xlink:href="#P" id="use612" x="0" y="0" width="100%" height="100%"/>
        <use transform="matrix(0.05,0,0,0.05,47.85,0)" xlink:href="#X" id="use614" x="0" y="0" width="100%" height="100%"/>
        <use transform="matrix(0.05,0,0,0.05,57.85,0)" xlink:href="#H" id="use616" x="0" y="0" width="100%" height="100%"/>
        <use transform="matrix(0.05,0,0,0.05,67.85,0)" xlink:href="#M" id="use618" x="0" y="0" width="100%" height="100%"/>
        <use transform="matrix(0.05,0,0,0.05,72.85,0)" xlink:href="#R" id="use620" x="0" y="0" width="100%" height="100%"/>
        <use transform="matrix(0.05,0,0,0.05,82.85,0)" xlink:href="#Q" id="use622" x="0" y="0" width="100%" height="100%"/>
    </g>
    <g id="C">
        <use transform="scale(0.05)" xlink:href="#P" id="use625" x="0" y="0" width="100%" height="100%"/>
        <use transform="matrix(0.05,0,0,0.05,3.95,0)" xlink:href="#L" id="use627" x="0" y="0" width="100%" height="100%"/>
    </g>
    <g id="D">
        <use transform="scale(0.05)" xlink:href="#K" id="use630" x="0" y="0" width="100%" height="100%"/>
        <use transform="matrix(0.05,0,0,0.05,10,0)" xlink:href="#X" id="use632" x="0" y="0" width="100%" height="100%"/>
        <use transform="matrix(0.05,0,0,0.05,20,0)" xlink:href="#Z" id="use634" x="0" y="0" width="100%" height="100%"/>
        <use transform="matrix(0.05,0,0,0.05,30,0)" xlink:href="#H" id="use636" x="0" y="0" width="100%" height="100%"/>
        <use transform="matrix(0.05,0,0,0.05,40,0)" xlink:href="#M" id="use638" x="0" y="0" width="100%" height="100%"/>
        <use transform="matrix(0.05,0,0,0.05,45,0)" xlink:href="#R" id="use640" x="0" y="0" width="100%" height="100%"/>
    </g>
    <g id="E">
        <use transform="scale(0.05)" xlink:href="#P" id="use643" x="0" y="0" width="100%" height="100%"/>
        <use transform="matrix(0.05,0,0,0.05,3.95,0)" xlink:href="#Q" id="use645" x="0" y="0" width="100%" height="100%"/>
    </g>
    <g id="F">
        <use transform="scale(0.05)" xlink:href="#H" id="use648" x="0" y="0" width="100%" height="100%"/>
        <use transform="matrix(0.05,0,0,0.05,10,0)" xlink:href="#ae" id="use650" x="0" y="0" width="100%" height="100%"/>
        <use transform="matrix(0.05,0,0,0.05,14.65,0)" xlink:href="#ae" id="use652" x="0" y="0" width="100%" height="100%"/>
        <use transform="matrix(0.05,0,0,0.05,19.65,0)" xlink:href="#R" id="use654" x="0" y="0" width="100%" height="100%"/>
        <use transform="matrix(0.05,0,0,0.05,29.65,0)" xlink:href="#I" id="use656" x="0" y="0" width="100%" height="100%"/>
        <use transform="matrix(0.05,0,0,0.05,38.65,0)" xlink:href="#M" id="use658" x="0" y="0" width="100%" height="100%"/>
        <use transform="matrix(0.05,0,0,0.05,43.65,0)" xlink:href="#R" id="use660" x="0" y="0" width="100%" height="100%"/>
        <use transform="matrix(0.05,0,0,0.05,53.65,0)" xlink:href="#Z" id="use662" x="0" y="0" width="100%" height="100%"/>
    </g>
    <path d="M 179,-190 93,31 C 79,59 56,82 12,73 V 49 C 51,55 65,29 76,-1 L 1,-190 h 34 l 57,156 54,-156 h 33" id="ag" inkscape:connector-curvature="0"/>
    <g id="G">
        <use transform="scale(0.05)" xlink:href="#ab" id="use666" x="0" y="0" width="100%" height="100%"/>
        <use transform="matrix(0.05,0,0,0.05,10,0)" xlink:href="#ag" id="use668" x="0" y="0" width="100%" height="100%"/>
    </g>
    </defs>
</g>
</svg>
