<?xml version="1.0"?>
<svg xmlns="http://www.w3.org/2000/svg" xmlns:xlink="http://www.w3.org/1999/xlink" xmlns:lucid="lucid" width="1760" height="1360">
<g transform="translate(0 0)" lucid:page-tab-id="k-k4TFZjKoXR">
    <path d="M720 579h300v200H720z" fill="#fff"/>
    <path d="M720 579h300v40H720z" fill="#ccc"/>
    <path d="M720 579h300v200H720zM720 619h300M870 619v160" stroke="#000" stroke-width="2" fill="none"/>
    <use xlink:href="#a" transform="matrix(1,0,0,1,730,579) translate(101.575 23.6)"/>
    <use xlink:href="#b" transform="matrix(1,0,0,1,725,621.5) translate(62.025 17.1)"/>
    <use xlink:href="#c" transform="matrix(1,0,0,1,875,621.5) translate(60.525 17.1)"/>
    <use xlink:href="#d" transform="matrix(1,0,0,1,725,653.5) translate(35.575 17.1)"/>
    <use xlink:href="#e" transform="matrix(1,0,0,1,875,653.5) translate(50.4 17.1)"/>
    <use xlink:href="#f" transform="matrix(1,0,0,1,725,685.5) translate(38.05 17.1)"/>
    <use xlink:href="#e" transform="matrix(1,0,0,1,875,685.5) translate(50.4 17.1)"/>
    <use xlink:href="#g" transform="matrix(1,0,0,1,725,717.5) translate(58.025 17.1)"/>
    <use xlink:href="#h" transform="matrix(1,0,0,1,875,717.5) translate(43.025 17.1)"/>
    <use xlink:href="#i" transform="matrix(1,0,0,1,725,749.5) translate(60.525 17.1)"/>
    <use xlink:href="#h" transform="matrix(1,0,0,1,875,749.5) translate(43.025 17.1)"/>
    <path d="M981.8 526.5h-11.67l-1.26.2-2 1.46-.82 2.5V578h-2v-47.66l1.12-3.4 2.9-2.13 1.9-.3h11.83zm86.7-5.92l-.3 1.9-2.13 2.9-3.4 1.12h-11.92v-2h11.6l2.5-.82 1.45-2 .2-1.26V473h2z"/>
    <path d="M975.95 577.1l-1.8.9-9.1-18.2-9.1 18.2-1.8-.9 10.9-21.78z"/>
    <path d="M968.2 538.06l2.76 1.42 2.16 2.17 1.42 2.74.5 3.15-.5 3.16-1.42 2.76-2.16 2.16-2.75 1.42-3.15.5-3.16-.5-2.75-1.42-2.17-2.16-1.42-2.75-.5-3.15.5-3.16 1.42-2.75 2.17-2.17 2.74-1.42 3.15-.5z" fill="#fff"/>
    <path d="M968.53 537.1l3.03 1.57 2.38 2.38 1.57 3.02.54 3.32-1 .15 1 .16-.53 3.33-1.56 3.03-2.38 2.38-3.03 1.56-3.48.57-3.47-.57-3.03-1.56-2.38-2.38-1.57-3.03-.56-3.48.56-3.48 1.57-3.02 2.38-2.38 3.03-1.57 3.47-.56zm-6.32 1.92l-2.46 1.28-1.94 1.94-1.28 2.47-.45 2.85.45 2.85 1.28 2.46 1.94 1.95 2.47 1.28 2.85.46 2.85-.46 2.46-1.27 1.95-1.94 1.28-2.46.46-2.85-.46-2.84-1.27-2.46-1.94-1.94-2.46-1.28-2.85-.45zM1078.4 473.9l-10.9 21.78-10.9-21.8 1.8-.88 9.1 18.2 9.1-18.2z"/>
    <path d="M1070.66 493.96l2.75 1.42 2.17 2.16 1.42 2.75.5 3.15-.34 2.6-1 2.4-1.6 2.07-2.07 1.6-2.4 1-2.6.33-2.6-.34-2.4-1-2.07-1.58-1.6-2.08-1-2.4-.33-2.6.5-3.15 1.43-2.76 2.16-2.16 2.74-1.42 3.16-.5z" fill="#fff"/>
    <path d="M1070.98 493l3.02 1.56 2.4 2.38 1.55 3.03.54 3.32-1 .15 1 .13-.37 2.72-1.1 2.64-1.75 2.3-2.28 1.75-2.64 1.08-2.86.38-2.86-.38-2.64-1.1-2.28-1.75-1.76-2.3-1.1-2.63-.37-2.87.55-3.46 1.56-3.03 2.4-2.38 3.02-1.56 3.48-.57zm-6.32 1.92l-2.47 1.27-1.95 1.94-1.28 2.46-.46 2.86.3 2.32.9 2.16 1.44 1.86 1.87 1.44 2.17.9 2.33.3 2.33-.3 2.16-.9 1.86-1.43 1.43-1.86.9-2.16.3-2.32-.47-2.86-1.28-2.46-1.94-1.95-2.46-1.28-2.84-.46z"/>
    <use xlink:href="#j" transform="matrix(1,0,0,1,981.8016026887005,514.7) translate(0.005000000000002558 14.4)"/>
    <use xlink:href="#k" transform="matrix(1,0,0,1,981.8016026887005,514.7) translate(48.005 14.4)"/>
    <path d="M783.9 524.5l3.42 1.1 2.12 2.92.3 1.9V578h-2v-47.42l-.2-1.26-1.46-2-2.5-.82h-40.96v-2zm-114.58-1.66l2 1.46 1.26.2h41.04v2h-41.2l-1.9-.3-2.9-2.13-1.12-3.4V473h2v47.34z"/>
    <path fill="#fff"/>
    <path d="M677.5 484h-20v-2h20z"/>
    <path fill="#fff"/>
    <path d="M677.5 494h-20v-2h20zM799.64 577.1l-1.8.9-9.1-18.2-9.1 18.2-1.8-.9 10.9-21.78z"/>
    <path fill="#fff"/>
    <path d="M798.75 558.55h-20v-2h20z"/>
    <use xlink:href="#l" transform="matrix(1,0,0,1,713.6234566406946,514.7) translate(0.005000000000000782 14.4)"/>
    <path d="M960 400h215v72H960z" fill="#fff"/>
    <path d="M960 400h215v40H960z" fill="#ccc"/>
    <path d="M960 400h215v72H960zM960 440h215M1067.5 440v32" stroke="#000" stroke-width="2" fill="none"/>
    <use xlink:href="#m" transform="matrix(1,0,0,1,970,400) translate(66 23.6)"/>
    <path d="M560 400h215v72H560z" fill="#fff"/>
    <path d="M560 400h215v40H560z" fill="#ccc"/>
    <path d="M560 400h215v72H560zM560 440h215M667.5 440v32" stroke="#000" stroke-width="2" fill="none"/>
    <use xlink:href="#n" transform="matrix(1,0,0,1,570,400) translate(78.0037037037037 24.266666666666666)"/>
    <use xlink:href="#o" transform="matrix(1,0,0,1,570,400) translate(83.92962962962963 24.266666666666666)"/>
    <defs>
    <path d="M115-194c55 1 70 41 70 98S169 2 115 4C84 4 66-9 55-30l1 105H24l-1-265h31l2 30c10-21 28-34 59-34zm-8 174c40 0 45-34 45-75s-6-73-45-74c-42 0-51 32-51 76 0 43 10 73 51 73" id="p"/>
    <path d="M100-194c62-1 85 37 85 99 1 63-27 99-86 99S16-35 15-95c0-66 28-99 85-99zM99-20c44 1 53-31 53-75 0-43-8-75-51-75s-53 32-53 75 10 74 51 75" id="q"/>
    <path d="M24 0v-261h32V0H24" id="r"/>
    <path d="M59-47c-2 24 18 29 38 22v24C64 9 27 4 27-40v-127H5v-23h24l9-43h21v43h35v23H59v120" id="s"/>
    <path d="M24-231v-30h32v30H24zM24 0v-190h32V0H24" id="t"/>
    <path d="M117-194c89-4 53 116 60 194h-32v-121c0-31-8-49-39-48C34-167 62-67 57 0H25l-1-190h30c1 10-1 24 2 32 11-22 29-35 61-36" id="u"/>
    <g id="a">
        <use transform="matrix(0.05,0,0,0.05,0,0)" xlink:href="#p"/>
        <use transform="matrix(0.05,0,0,0.05,10,0)" xlink:href="#q"/>
        <use transform="matrix(0.05,0,0,0.05,20,0)" xlink:href="#r"/>
        <use transform="matrix(0.05,0,0,0.05,23.95,0)" xlink:href="#r"/>
        <use transform="matrix(0.05,0,0,0.05,27.899999999999995,0)" xlink:href="#q"/>
        <use transform="matrix(0.05,0,0,0.05,37.9,0)" xlink:href="#p"/>
        <use transform="matrix(0.05,0,0,0.05,47.9,0)" xlink:href="#s"/>
        <use transform="matrix(0.05,0,0,0.05,52.900000000000006,0)" xlink:href="#t"/>
        <use transform="matrix(0.05,0,0,0.05,56.85,0)" xlink:href="#q"/>
        <use transform="matrix(0.05,0,0,0.05,66.85,0)" xlink:href="#u"/>
    </g>
    <path d="M25-224v-37h50v37H25zM25 0v-190h50V0H25" id="v"/>
    <path d="M88-194c31-1 46 15 58 34l-1-101h50l1 261h-48c-2-10 0-23-3-31C134-8 116 4 84 4 32 4 16-41 15-95c0-56 19-97 73-99zm17 164c33 0 40-30 41-66 1-37-9-64-41-64s-38 30-39 65c0 43 13 65 39 65" id="w"/>
    <g id="b">
        <use transform="matrix(0.05,0,0,0.05,0,0)" xlink:href="#v"/>
        <use transform="matrix(0.05,0,0,0.05,5,0)" xlink:href="#w"/>
        <path d="M-.9.97h17.75v1.9H-.9z"/>
    </g>
    <g id="c">
        <use transform="matrix(0.05,0,0,0.05,0,0)" xlink:href="#t"/>
        <use transform="matrix(0.05,0,0,0.05,3.95,0)" xlink:href="#u"/>
        <use transform="matrix(0.05,0,0,0.05,13.949999999999998,0)" xlink:href="#s"/>
    </g>
    <path d="M210-169c-67 3-38 105-44 169h-31v-121c0-29-5-50-35-48C34-165 62-65 56 0H25l-1-190h30c1 10-1 24 2 32 10-44 99-50 107 0 11-21 27-35 58-36 85-2 47 119 55 194h-31v-121c0-29-5-49-35-48" id="x"/>
    <path d="M100-194c63 0 86 42 84 106H49c0 40 14 67 53 68 26 1 43-12 49-29l28 8c-11 28-37 45-77 45C44 4 14-33 15-96c1-61 26-98 85-98zm52 81c6-60-76-77-97-28-3 7-6 17-6 28h103" id="y"/>
    <path d="M135-143c-3-34-86-38-87 0 15 53 115 12 119 90S17 21 10-45l28-5c4 36 97 45 98 0-10-56-113-15-118-90-4-57 82-63 122-42 12 7 21 19 24 35" id="z"/>
    <path d="M141-36C126-15 110 5 73 4 37 3 15-17 15-53c-1-64 63-63 125-63 3-35-9-54-41-54-24 1-41 7-42 31l-33-3c5-37 33-52 76-52 45 0 72 20 72 64v82c-1 20 7 32 28 27v20c-31 9-61-2-59-35zM48-53c0 20 12 33 32 33 41-3 63-29 60-74-43 2-92-5-92 41" id="A"/>
    <path d="M114-163C36-179 61-72 57 0H25l-1-190h30c1 12-1 29 2 39 6-27 23-49 58-41v29" id="B"/>
    <g id="d">
        <use transform="matrix(0.05,0,0,0.05,0,0)" xlink:href="#s"/>
        <use transform="matrix(0.05,0,0,0.05,5,0)" xlink:href="#t"/>
        <use transform="matrix(0.05,0,0,0.05,8.95,0)" xlink:href="#x"/>
        <use transform="matrix(0.05,0,0,0.05,23.9,0)" xlink:href="#y"/>
        <use transform="matrix(0.05,0,0,0.05,33.9,0)" xlink:href="#z"/>
        <use transform="matrix(0.05,0,0,0.05,42.9,0)" xlink:href="#s"/>
        <use transform="matrix(0.05,0,0,0.05,47.9,0)" xlink:href="#A"/>
        <use transform="matrix(0.05,0,0,0.05,57.900000000000006,0)" xlink:href="#B"/>
        <use transform="matrix(0.05,0,0,0.05,63.85,0)" xlink:href="#s"/>
    </g>
    <path d="M127-220V0H93v-220H8v-28h204v28h-85" id="C"/>
    <g id="e">
        <use transform="matrix(0.05,0,0,0.05,0,0)" xlink:href="#C"/>
        <use transform="matrix(0.05,0,0,0.05,10.3,0)" xlink:href="#t"/>
        <use transform="matrix(0.05,0,0,0.05,14.25,0)" xlink:href="#x"/>
        <use transform="matrix(0.05,0,0,0.05,29.200000000000003,0)" xlink:href="#y"/>
    </g>
    <path d="M85-194c31 0 48 13 60 33l-1-100h32l1 261h-30c-2-10 0-23-3-31C134-8 116 4 85 4 32 4 16-35 15-94c0-66 23-100 70-100zm9 24c-40 0-46 34-46 75 0 40 6 74 45 74 42 0 51-32 51-76 0-42-9-74-50-73" id="D"/>
    <g id="f">
        <use transform="matrix(0.05,0,0,0.05,0,0)" xlink:href="#s"/>
        <use transform="matrix(0.05,0,0,0.05,5,0)" xlink:href="#t"/>
        <use transform="matrix(0.05,0,0,0.05,8.95,0)" xlink:href="#x"/>
        <use transform="matrix(0.05,0,0,0.05,23.9,0)" xlink:href="#y"/>
        <use transform="matrix(0.05,0,0,0.05,33.9,0)" xlink:href="#y"/>
        <use transform="matrix(0.05,0,0,0.05,43.9,0)" xlink:href="#u"/>
        <use transform="matrix(0.05,0,0,0.05,53.900000000000006,0)" xlink:href="#D"/>
    </g>
    <g id="g">
        <use transform="matrix(0.05,0,0,0.05,0,0)" xlink:href="#r"/>
        <use transform="matrix(0.05,0,0,0.05,3.95,0)" xlink:href="#q"/>
        <use transform="matrix(0.05,0,0,0.05,13.949999999999998,0)" xlink:href="#u"/>
    </g>
    <path d="M84 4C-5 8 30-112 23-190h32v120c0 31 7 50 39 49 72-2 45-101 50-169h31l1 190h-30c-1-10 1-25-2-33-11 22-28 36-60 37" id="E"/>
    <path d="M115-194c53 0 69 39 70 98 0 66-23 100-70 100C84 3 66-7 56-30L54 0H23l1-261h32v101c10-23 28-34 59-34zm-8 174c40 0 45-34 45-75 0-40-5-75-45-74-42 0-51 32-51 76 0 43 10 73 51 73" id="F"/>
    <g id="h">
        <use transform="matrix(0.05,0,0,0.05,0,0)" xlink:href="#D"/>
        <use transform="matrix(0.05,0,0,0.05,10,0)" xlink:href="#q"/>
        <use transform="matrix(0.05,0,0,0.05,20,0)" xlink:href="#E"/>
        <use transform="matrix(0.05,0,0,0.05,30,0)" xlink:href="#F"/>
        <use transform="matrix(0.05,0,0,0.05,40,0)" xlink:href="#r"/>
        <use transform="matrix(0.05,0,0,0.05,43.95,0)" xlink:href="#y"/>
    </g>
    <g id="i">
        <use transform="matrix(0.05,0,0,0.05,0,0)" xlink:href="#r"/>
        <use transform="matrix(0.05,0,0,0.05,3.95,0)" xlink:href="#A"/>
        <use transform="matrix(0.05,0,0,0.05,13.949999999999998,0)" xlink:href="#s"/>
    </g>
    <path d="M108 0H70L1-190h34L89-25l56-165h34" id="G"/>
    <g id="j">
        <use transform="matrix(0.05,0,0,0.05,0,0)" xlink:href="#G"/>
        <use transform="matrix(0.05,0,0,0.05,9,0)" xlink:href="#q"/>
        <use transform="matrix(0.05,0,0,0.05,19,0)" xlink:href="#s"/>
        <use transform="matrix(0.05,0,0,0.05,24,0)" xlink:href="#y"/>
        <use transform="matrix(0.05,0,0,0.05,34,0)" xlink:href="#z"/>
    </g>
    <path d="M101-234c-31-9-42 10-38 44h38v23H63V0H32v-167H5v-23h27c-7-52 17-82 69-68v24" id="H"/>
    <g id="k">
        <use transform="matrix(0.05,0,0,0.05,0,0)" xlink:href="#H"/>
        <use transform="matrix(0.05,0,0,0.05,5,0)" xlink:href="#q"/>
        <use transform="matrix(0.05,0,0,0.05,15,0)" xlink:href="#B"/>
    </g>
    <path d="M106-169C34-169 62-67 57 0H25v-261h32l-1 103c12-21 28-36 61-36 89 0 53 116 60 194h-32v-121c2-32-8-49-39-48" id="I"/>
    <g id="l">
        <use transform="matrix(0.05,0,0,0.05,0,0)" xlink:href="#I"/>
        <use transform="matrix(0.05,0,0,0.05,10,0)" xlink:href="#A"/>
        <use transform="matrix(0.05,0,0,0.05,20,0)" xlink:href="#z"/>
    </g>
    <path d="M96-169c-40 0-48 33-48 73s9 75 48 75c24 0 41-14 43-38l32 2c-6 37-31 61-74 61-59 0-76-41-82-99-10-93 101-131 147-64 4 7 5 14 7 22l-32 3c-4-21-16-35-41-35" id="J"/>
    <g id="m">
        <use transform="matrix(0.05,0,0,0.05,0,0)" xlink:href="#A"/>
        <use transform="matrix(0.05,0,0,0.05,10,0)" xlink:href="#J"/>
        <use transform="matrix(0.05,0,0,0.05,19,0)" xlink:href="#J"/>
        <use transform="matrix(0.05,0,0,0.05,28,0)" xlink:href="#q"/>
        <use transform="matrix(0.05,0,0,0.05,38,0)" xlink:href="#E"/>
        <use transform="matrix(0.05,0,0,0.05,48,0)" xlink:href="#u"/>
        <use transform="matrix(0.05,0,0,0.05,58,0)" xlink:href="#s"/>
    </g>
    <g id="o">
        <use transform="matrix(0.05925925925925927,0,0,0.05925925925925927,0,0)" xlink:href="#p"/>
        <use transform="matrix(0.05925925925925927,0,0,0.05925925925925927,11.851851851851853,0)" xlink:href="#q"/>
        <use transform="matrix(0.05925925925925927,0,0,0.05925925925925927,23.703703703703706,0)" xlink:href="#r"/>
        <use transform="matrix(0.05925925925925927,0,0,0.05925925925925927,28.385185185185186,0)" xlink:href="#r"/>
    </g>
    </defs>
</g>
</svg>
