<?xml version="1.0"?>
<svg xmlns="http://www.w3.org/2000/svg" xmlns:xlink="http://www.w3.org/1999/xlink" xmlns:lucid="lucid" width="1760" height="1360">
<g transform="translate(0 0)" lucid:page-tab-id="0_0">
    <path d="M1220 80h300v296h-300z" fill="#fff"/>
    <path d="M1220 80h300v40h-300z" fill="#ccc"/>
    <path d="M1220 80h300v296h-300zM1220 120h300M1370 120v256" stroke="#000" stroke-width="2" fill="none"/>
    <use xlink:href="#a" transform="matrix(1,0,0,1,1230,80) translate(108.5 23.6)"/>
    <use xlink:href="#b" transform="matrix(1,0,0,1,1225,122.5) translate(62.025 17.1)"/>
    <use xlink:href="#c" transform="matrix(1,0,0,1,1375,122.5) translate(60.525 17.1)"/>
    <use xlink:href="#d" transform="matrix(1,0,0,1,1225,154.5) translate(30.049999999999997 17.1)"/>
    <use xlink:href="#e" transform="matrix(1,0,0,1,1375,154.5) translate(46.55 17.1)"/>
    <use xlink:href="#f" transform="matrix(1,0,0,1,1225,186.5) translate(48.574999999999996 17.1)"/>
    <use xlink:href="#e" transform="matrix(1,0,0,1,1375,186.5) translate(46.55 17.1)"/>
    <use xlink:href="#g" transform="matrix(1,0,0,1,1225,218.5) translate(17.574999999999996 17.1)"/>
    <use xlink:href="#e" transform="matrix(1,0,0,1,1375,218.5) translate(46.55 17.1)"/>
    <use xlink:href="#h" transform="matrix(1,0,0,1,1225,250.5) translate(12.049999999999997 17.1)"/>
    <use xlink:href="#e" transform="matrix(1,0,0,1,1375,250.5) translate(46.55 17.1)"/>
    <use xlink:href="#i" transform="matrix(1,0,0,1,1225,282.5) translate(58.025 17.1)"/>
    <use xlink:href="#j" transform="matrix(1,0,0,1,1375,282.5) translate(43.025 17.1)"/>
    <use xlink:href="#k" transform="matrix(1,0,0,1,1225,314.5) translate(60.525 17.1)"/>
    <use xlink:href="#j" transform="matrix(1,0,0,1,1375,314.5) translate(43.025 17.1)"/>
    <use xlink:href="#l" transform="matrix(1,0,0,1,1225,346.5) translate(13.100000000000001 17.1)"/>
    <use xlink:href="#m" transform="matrix(1,0,0,1,1375,346.5) translate(50.4 17.1)"/>
    <path d="M180 540h300v104H180z" fill="#fff"/>
    <path d="M180 540h300v40H180z" fill="#ccc"/>
    <path d="M180 540h300v104H180zM180 580h300M330 580v64" stroke="#000" stroke-width="2" fill="none"/>
    <use xlink:href="#n" transform="matrix(1,0,0,1,190,540) translate(117.025 23.6)"/>
    <use xlink:href="#b" transform="matrix(1,0,0,1,185,582.5) translate(62.025 17.1)"/>
    <use xlink:href="#c" transform="matrix(1,0,0,1,335,582.5) translate(60.525 17.1)"/>
    <use xlink:href="#o" transform="matrix(1,0,0,1,185,614.5) translate(47.525 17.1)"/>
    <use xlink:href="#e" transform="matrix(1,0,0,1,335,614.5) translate(46.55 17.1)"/>
    <path d="M180 1020h300v232H180z" fill="#fff"/>
    <path d="M180 1020h300v40H180z" fill="#ccc"/>
    <path d="M180 1020h300v232H180zM180 1060h300M330 1060v192" stroke="#000" stroke-width="2" fill="none"/>
    <use xlink:href="#p" transform="matrix(1,0,0,1,190,1020) translate(118 23.6)"/>
    <use xlink:href="#b" transform="matrix(1,0,0,1,185,1062.5) translate(62.025 17.1)"/>
    <use xlink:href="#c" transform="matrix(1,0,0,1,335,1062.5) translate(60.525 17.1)"/>
    <use xlink:href="#q" transform="matrix(1,0,0,1,185,1094.5) translate(56.05 17.1)"/>
    <use xlink:href="#e" transform="matrix(1,0,0,1,335,1094.5) translate(46.55 17.1)"/>
    <use xlink:href="#r" transform="matrix(1,0,0,1,185,1126.5) translate(35.575 17.1)"/>
    <use xlink:href="#s" transform="matrix(1,0,0,1,335,1126.5) translate(50.4 17.1)"/>
    <use xlink:href="#t" transform="matrix(1,0,0,1,185,1158.5) translate(38.05 17.1)"/>
    <use xlink:href="#u" transform="matrix(1,0,0,1,335,1158.5) translate(50.525 17.1)"/>
    <use xlink:href="#i" transform="matrix(1,0,0,1,185,1190.5) translate(58.025 17.1)"/>
    <use xlink:href="#j" transform="matrix(1,0,0,1,335,1190.5) translate(43.025 17.1)"/>
    <use xlink:href="#k" transform="matrix(1,0,0,1,185,1222.5) translate(60.525 17.1)"/>
    <use xlink:href="#j" transform="matrix(1,0,0,1,335,1222.5) translate(43.025 17.1)"/>
    <path d="M760 540h300v136H760z" fill="#fff"/>
    <path d="M760 540h300v40H760z" fill="#ccc"/>
    <path d="M760 540h300v136H760zM760 580h300M910 580v96" stroke="#000" stroke-width="2" fill="none"/>
    <use xlink:href="#v" transform="matrix(1,0,0,1,770,540) translate(126.05 23.6)"/>
    <use xlink:href="#b" transform="matrix(1,0,0,1,765,582.5) translate(62.025 17.1)"/>
    <use xlink:href="#c" transform="matrix(1,0,0,1,915,582.5) translate(60.525 17.1)"/>
    <use xlink:href="#w" transform="matrix(1,0,0,1,765,614.5) translate(36.025 17.1)"/>
    <use xlink:href="#e" transform="matrix(1,0,0,1,915,614.5) translate(46.55 17.1)"/>
    <use xlink:href="#x" transform="matrix(1,0,0,1,765,646.5) translate(25.099999999999994 17.1)"/>
    <use xlink:href="#y" transform="matrix(1,0,0,1,915,646.5) translate(38.025 17.1)"/>
    <path d="M760 800h300v200H760z" fill="#fff"/>
    <path d="M760 800h300v40H760z" fill="#ccc"/>
    <path d="M760 800h300v200H760zM760 840h300M910 840v160" stroke="#000" stroke-width="2" fill="none"/>
    <use xlink:href="#z" transform="matrix(1,0,0,1,770,800) translate(101.575 23.6)"/>
    <use xlink:href="#b" transform="matrix(1,0,0,1,765,842.5) translate(62.025 17.1)"/>
    <use xlink:href="#c" transform="matrix(1,0,0,1,915,842.5) translate(60.525 17.1)"/>
    <use xlink:href="#r" transform="matrix(1,0,0,1,765,874.5) translate(35.575 17.1)"/>
    <use xlink:href="#s" transform="matrix(1,0,0,1,915,874.5) translate(50.4 17.1)"/>
    <use xlink:href="#t" transform="matrix(1,0,0,1,765,906.5) translate(38.05 17.1)"/>
    <use xlink:href="#s" transform="matrix(1,0,0,1,915,906.5) translate(50.4 17.1)"/>
    <use xlink:href="#i" transform="matrix(1,0,0,1,765,938.5) translate(58.025 17.1)"/>
    <use xlink:href="#j" transform="matrix(1,0,0,1,915,938.5) translate(43.025 17.1)"/>
    <use xlink:href="#k" transform="matrix(1,0,0,1,765,970.5) translate(60.525 17.1)"/>
    <use xlink:href="#j" transform="matrix(1,0,0,1,915,970.5) translate(43.025 17.1)"/>
    <path d="M80 80h620.7v296H80z" fill="#fff"/>
    <path d="M80 80h620.7v40H80z" fill="#ccc"/>
    <path d="M80 80h620.7v296H80zM80 120h620.7M390.35 120v256" stroke="#000" stroke-width="2" fill="none"/>
    <use xlink:href="#A" transform="matrix(1,0,0,1,90,80) translate(228.125 23.6)"/>
    <use xlink:href="#b" transform="matrix(1,0,0,1,85,122.5) translate(142.525 17.1)"/>
    <use xlink:href="#c" transform="matrix(1,0,0,1,395.3538676666667,122.5) translate(141.025 17.1)"/>
    <use xlink:href="#B" transform="matrix(1,0,0,1,85,154.5) translate(17.150000000000006 17.1)"/>
    <use xlink:href="#y" transform="matrix(1,0,0,1,395.3538676666667,154.5) translate(118.525 17.1)"/>
    <use xlink:href="#C" transform="matrix(1,0,0,1,85,186.5) translate(27.200000000000017 17.1)"/>
    <use xlink:href="#D" transform="matrix(1,0,0,1,395.3538676666667,186.5) translate(118.525 17.1)"/>
    <use xlink:href="#E" transform="matrix(1,0,0,1,85,218.5) translate(19.700000000000017 17.1)"/>
    <use xlink:href="#D" transform="matrix(1,0,0,1,395.3538676666667,218.5) translate(118.525 17.1)"/>
    <use xlink:href="#F" transform="matrix(1,0,0,1,85,250.5) translate(50.125 17.1)"/>
    <use xlink:href="#D" transform="matrix(1,0,0,1,395.3538676666667,250.5) translate(118.525 17.1)"/>
    <use xlink:href="#G" transform="matrix(1,0,0,1,85,282.5) translate(41.125 17.1)"/>
    <use xlink:href="#D" transform="matrix(1,0,0,1,395.3538676666667,282.5) translate(118.525 17.1)"/>
    <use xlink:href="#H" transform="matrix(1,0,0,1,85,314.5) translate(58.17500000000001 17.1)"/>
    <use xlink:href="#D" transform="matrix(1,0,0,1,395.3538676666667,314.5) translate(118.525 17.1)"/>
    <use xlink:href="#I" transform="matrix(1,0,0,1,85,346.5) translate(49.17500000000001 17.1)"/>
    <use xlink:href="#D" transform="matrix(1,0,0,1,395.3538676666667,346.5) translate(118.525 17.1)"/>
    <path d="M911 799h-2v-50.2h2zm0-71.8h-2V677h2z"/>
    <path fill="#fff"/>
    <path d="M920 688h-20v-2h20z"/>
    <path fill="#fff"/>
    <path d="M920 698h-20v-2h20zM920.9 798.1l-1.8.9-9.1-18.2-9.1 18.2-1.8-.9 10.9-21.78z"/>
    <path fill="#fff"/>
    <path d="M920 779.55h-20v-2h20z"/>
    <use xlink:href="#J" transform="matrix(1,0,0,1,895.5,727.2) translate(0.005000000000000782 14.4)"/>
    <path d="M605.5 597H481v-2h124.5zm153.5 0H634.5v-2H759z"/>
    <path fill="#fff"/>
    <path d="M492 606h-2v-20h2z"/>
    <path fill="#fff"/>
    <path d="M502 606h-2v-20h2zM759 586.9l-18.2 9.1 18.2 9.1-.9 1.8-21.78-10.9 21.8-10.9z"/>
    <path d="M731.7 586.5l2.76 1.43 2.16 2.16 1.42 2.74.5 3.16-.5 3.16-1.42 2.75-2.16 2.17-2.75 1.42-3.15.5-3.16-.5-2.75-1.43-2.17-2.16-1.42-2.74-.5-3.16.5-3.16 1.42-2.75 2.17-2.17 2.74-1.42 3.15-.5z" fill="#fff"/>
    <path d="M732.03 585.55l3.03 1.56 2.38 2.4 1.56 3.02.54 3.32-1 .16 1 .16-.54 3.32-1.56 3.02-2.38 2.4-3.03 1.55-3.48.56-3.48-.55-3.02-1.56-2.38-2.4-1.57-3.02-.56-3.48.56-3.48 1.57-3.02 2.38-2.4 3.02-1.55 3.48-.56zm-6.32 1.92l-2.46 1.28-1.94 1.94-1.28 2.46-.45 2.84.45 2.84 1.28 2.47 1.94 1.95 2.47 1.28 2.85.46 2.85-.47 2.46-1.28 1.95-1.94 1.28-2.46.46-2.84-.46-2.84-1.27-2.47-1.94-1.95-2.46-1.28-2.85-.46z"/>
    <use xlink:href="#J" transform="matrix(1,0,0,1,605.5,585.2) translate(0.005000000000000782 14.4)"/>
    <path d="M331 1019h-2V842.8h2zm0-197.8h-2V645h2z"/>
    <path fill="#fff"/>
    <path d="M340 656h-20v-2h20z"/>
    <path fill="#fff"/>
    <path d="M340 666h-20v-2h20zM340.9 1018.1l-1.8.9-9.1-18.2-9.1 18.2-1.8-.9 10.9-21.78z"/>
    <use xlink:href="#J" transform="matrix(1,0,0,1,315.5,821.2) translate(0.005000000000000782 14.4)"/>
    <path d="M333.82 539h-2v-78.44h2zm0-100.04h-2V377h2z"/>
    <path d="M343.72 377.9l-10.9 21.78-10.9-21.8 1.8-.88 9.1 18.2 9.1-18.2z"/>
    <path fill="#fff"/>
    <path d="M342.82 398.45h-20v-2h20z"/>
    <path fill="#fff"/>
    <path d="M342.82 530h-20v-2h20z"/>
    <path fill="#fff"/>
    <path d="M342.82 520h-20v-2h20z"/>
    <use xlink:href="#K" transform="matrix(1,0,0,1,291.34810242614554,438.960949224521) translate(0.005000000000002558 14.4)"/>
    <use xlink:href="#L" transform="matrix(1,0,0,1,291.34810242614554,438.960949224521) translate(67.95500000000001 14.4)"/>
    <path d="M918.88 101H701.7v-2H918.9zm300.12 0h-217.17v-2H1219z"/>
    <path fill="#fff"/>
    <path d="M1210 110h-2V90h2z"/>
    <path fill="#fff"/>
    <path d="M1200 110h-2V90h2zM724.4 100l-21.8 10.9-.9-1.8 18.22-9.1-18.2-9.1.88-1.8z"/>
    <use xlink:href="#K" transform="matrix(1,0,0,1,918.8788675,89.20000000000002) translate(0.005000000000002558 14.4)"/>
    <use xlink:href="#L" transform="matrix(1,0,0,1,918.8788675,89.20000000000002) translate(67.95500000000001 14.4)"/>
    <path d="M1631 273.48h-71V233h-39v-2h41v40.48h67v-76.8h2zm0-100.4h-2v-76.7h-67V137h-41v-2h39V94.4h71z"/>
    <path d="M1543.68 136l-21.8 10.9-.88-1.8 18.2-9.1-18.2-9.1.9-1.8z"/>
    <path d="M1554.6 126.5l2.75 1.43 2.17 2.16 1.42 2.74.5 3.16-.5 3.16-1.42 2.75-2.17 2.17-2.74 1.42-3.15.5-3.16-.5-2.76-1.43-2.16-2.16-1.42-2.74-.5-3.16.5-3.16 1.42-2.75 2.16-2.17 2.75-1.42 3.15-.5z" fill="#fff"/>
    <path d="M1554.93 125.55l3.02 1.56 2.38 2.4 1.57 3.02.53 3.32-.98.16.98.16-.53 3.32-1.57 3.02-2.38 2.4-3.02 1.55-3.48.56-3.48-.55-3.03-1.56-2.38-2.4-1.56-3.02-.57-3.48.57-3.48 1.56-3.02 2.38-2.4 3.03-1.55 3.48-.56zm-6.33 1.92l-2.46 1.28-1.95 1.94-1.28 2.46-.46 2.84.46 2.84 1.27 2.47 1.94 1.95 2.46 1.28 2.85.46 2.84-.47 2.46-1.28 1.94-1.94 1.28-2.46.45-2.84-.45-2.84-1.28-2.47-1.94-1.95-2.47-1.28-2.85-.46zM1543.68 232l-21.8 10.9-.88-1.8 18.2-9.1-18.2-9.1.9-1.8z"/>
    <path d="M1554.6 222.5l2.75 1.43 2.17 2.16 1.42 2.74.5 3.16-.5 3.16-1.42 2.75-2.17 2.17-2.74 1.42-3.15.5-3.16-.5-2.76-1.43-2.16-2.16-1.42-2.74-.5-3.16.5-3.16 1.42-2.75 2.16-2.17 2.75-1.42 3.15-.5z" fill="#fff"/>
    <path d="M1554.93 221.55l3.02 1.56 2.38 2.4 1.57 3.02.53 3.32-.98.16.98.16-.53 3.32-1.57 3.02-2.38 2.4-3.02 1.55-3.48.56-3.48-.55-3.03-1.56-2.38-2.4-1.56-3.02-.57-3.48.57-3.48 1.56-3.02 2.38-2.4 3.03-1.55 3.48-.56zm-6.33 1.92l-2.46 1.28-1.95 1.94-1.28 2.46-.46 2.84.46 2.84 1.27 2.47 1.94 1.95 2.46 1.28 2.85.46 2.84-.47 2.46-1.28 1.94-1.94 1.28-2.46.45-2.84-.45-2.84-1.28-2.47-1.94-1.95-2.47-1.28-2.85-.46z"/>
    <use xlink:href="#M" transform="matrix(1,0,0,1,1582.025,173.0654360946428) translate(0.005000000000002558 14.4)"/>
    <use xlink:href="#N" transform="matrix(1,0,0,1,1582.025,173.0654360946428) translate(17.955000000000002 14.4)"/>
    <use xlink:href="#O" transform="matrix(1,0,0,1,1582.025,173.0654360946428) translate(80.95500000000001 14.4)"/>
    <path d="M1562 400.32h67v-36.2h2v38.2h-71V361h-39v-2h41zm69-57.8h-2V265h-108v-2h110z"/>
    <path d="M1543.68 264l-21.8 10.9-.88-1.8 18.2-9.1-18.2-9.1.9-1.8z"/>
    <path d="M1554.6 254.5l2.75 1.43 2.17 2.16 1.42 2.74.5 3.16-.5 3.16-1.42 2.75-2.17 2.17-2.74 1.42-3.15.5-3.16-.5-2.76-1.43-2.16-2.16-1.42-2.74-.5-3.16.5-3.16 1.42-2.75 2.16-2.17 2.75-1.42 3.15-.5z" fill="#fff"/>
    <path d="M1554.93 253.55l3.02 1.56 2.38 2.4 1.57 3.02.53 3.32-.98.16.98.16-.53 3.32-1.57 3.02-2.38 2.4-3.02 1.55-3.48.56-3.48-.55-3.03-1.56-2.38-2.4-1.56-3.02-.57-3.48.57-3.48 1.56-3.02 2.38-2.4 3.03-1.55 3.48-.56zm-6.33 1.92l-2.46 1.28-1.95 1.94-1.28 2.46-.46 2.84.46 2.84 1.27 2.47 1.94 1.95 2.46 1.28 2.85.46 2.84-.47 2.46-1.28 1.94-1.94 1.28-2.46.45-2.84-.45-2.84-1.28-2.47-1.94-1.95-2.47-1.28-2.85-.46zM1543.68 360l-21.8 10.9-.88-1.8 18.2-9.1-18.2-9.1.9-1.8z"/>
    <path d="M1554.6 350.5l2.75 1.43 2.17 2.16 1.42 2.74.5 3.16-.5 3.16-1.42 2.75-2.17 2.17-2.74 1.42-3.15.5-3.16-.5-2.76-1.43-2.16-2.16-1.42-2.74-.5-3.16.5-3.16 1.42-2.75 2.16-2.17 2.75-1.42 3.15-.5z" fill="#fff"/>
    <path d="M1554.93 349.55l3.02 1.56 2.38 2.4 1.57 3.02.53 3.32-.98.16.98.16-.53 3.32-1.57 3.02-2.38 2.4-3.02 1.55-3.48.56-3.48-.55-3.03-1.56-2.38-2.4-1.56-3.02-.57-3.48.57-3.48 1.56-3.02 2.38-2.4 3.03-1.55 3.48-.56zm-6.33 1.92l-2.46 1.28-1.95 1.94-1.28 2.46-.46 2.84.46 2.84 1.27 2.47 1.94 1.95 2.46 1.28 2.85.46 2.84-.47 2.46-1.28 1.94-1.94 1.28-2.46.45-2.84-.45-2.84-1.28-2.47-1.94-1.95-2.47-1.28-2.85-.46z"/>
    <use xlink:href="#P" transform="matrix(1,0,0,1,1604.525,342.5203012337766) translate(0.004999999999999005 14.4)"/>
    <path d="M1301.73 857H1061v-2h238.73V518.6h2zm0-360h-2V377h2z"/>
    <path d="M1311.62 377.9l-10.9 21.78-10.9-21.8 1.8-.88 9.1 18.2 9.1-18.2z"/>
    <path d="M1303.9 397.96l2.73 1.42 2.17 2.16 1.42 2.75.5 3.15-.5 3.16-1.42 2.75-2.17 2.17-2.74 1.42-3.17.5-3.16-.5-2.75-1.42-2.16-2.17-1.42-2.74-.5-3.15.5-3.16 1.42-2.76 2.16-2.16 2.75-1.42 3.16-.5z" fill="#fff"/>
    <path d="M1304.2 397l3.03 1.56 2.4 2.38 1.55 3.03.54 3.32-1 .15 1 .16-.54 3.33-1.56 3.02-2.4 2.38-3 1.57-3.5.56-3.47-.56-3.02-1.57-2.4-2.38-1.55-3.02-.56-3.48.56-3.48 1.56-3.03 2.4-2.38 3-1.56 3.5-.57zm-6.32 1.92l-2.46 1.27-1.95 1.94-1.27 2.46-.46 2.85.46 2.84 1.27 2.46 1.95 1.94 2.46 1.28 2.85.45 2.84-.45 2.47-1.28 1.94-1.94 1.28-2.47.46-2.85-.46-2.85-1.28-2.46-1.94-1.95-2.47-1.28-2.84-.46zM1083.68 856l-21.8 10.9-.88-1.8 18.2-9.1-18.2-9.1.9-1.8z"/>
    <path d="M1094.6 846.5l2.75 1.43 2.17 2.16 1.42 2.74.5 3.16-.5 3.16-1.42 2.75-2.17 2.17-2.74 1.42-3.15.5-3.16-.5-2.76-1.43-2.16-2.16-1.42-2.74-.5-3.16.5-3.16 1.42-2.75 2.16-2.17 2.75-1.42 3.15-.5z" fill="#fff"/>
    <path d="M1094.93 845.55l3.02 1.56 2.38 2.4 1.57 3.02.53 3.32-.98.16.98.16-.53 3.32-1.57 3.02-2.38 2.4-3.02 1.55-3.48.56-3.48-.55-3.03-1.56-2.38-2.4-1.56-3.02-.57-3.48.57-3.48 1.56-3.02 2.38-2.4 3.03-1.55 3.48-.56zm-6.33 1.92l-2.46 1.28-1.95 1.94-1.28 2.46-.46 2.84.46 2.84 1.27 2.47 1.94 1.95 2.46 1.28 2.85.46 2.84-.47 2.46-1.28 1.94-1.94 1.28-2.46.45-2.84-.45-2.84-1.28-2.47-1.94-1.95-2.47-1.28-2.85-.46z"/>
    <use xlink:href="#Q" transform="matrix(1,0,0,1,1266.2534079084287,497.0105766118227) translate(0.005000000000002558 14.4)"/>
    <use xlink:href="#R" transform="matrix(1,0,0,1,1266.2534079084287,497.0105766118227) translate(48.005 14.4)"/>
    <path d="M1244.8 561H1061v-2h181.8v-88.88h2zm0-112.48h-2V377h2z"/>
    <path fill="#fff"/>
    <path d="M1253.8 388h-20v-2h20z"/>
    <path fill="#fff"/>
    <path d="M1253.8 398h-20v-2h20zM1083.68 560l-21.8 10.9-.88-1.8 18.2-9.1-18.2-9.1.9-1.8z"/>
    <path d="M1094.6 550.5l2.75 1.43 2.17 2.16 1.42 2.74.5 3.16-.5 3.16-1.42 2.75-2.17 2.17-2.74 1.42-3.15.5-3.16-.5-2.76-1.43-2.16-2.16-1.42-2.74-.5-3.16.5-3.16 1.42-2.75 2.16-2.17 2.75-1.42 3.15-.5z" fill="#fff"/>
    <path d="M1094.93 549.55l3.02 1.56 2.38 2.4 1.57 3.02.53 3.32-.98.16.98.16-.53 3.32-1.57 3.02-2.38 2.4-3.02 1.55-3.48.56-3.48-.55-3.03-1.56-2.38-2.4-1.56-3.02-.57-3.48.57-3.48 1.56-3.02 2.38-2.4 3.03-1.55 3.48-.56zm-6.33 1.92l-2.46 1.28-1.95 1.94-1.28 2.46-.46 2.84.46 2.84 1.27 2.47 1.94 1.95 2.46 1.28 2.85.46 2.84-.47 2.46-1.28 1.94-1.94 1.28-2.46.45-2.84-.45-2.84-1.28-2.47-1.94-1.95-2.47-1.28-2.85-.46z"/>
    <use xlink:href="#S" transform="matrix(1,0,0,1,1213.8116666666667,448.51529742406757) translate(0.004999999999999005 14.4)"/>
    <path d="M1371 1041H481v-2h888V563.1h2zm0-499.5h-2V377h2z"/>
    <path fill="#fff"/>
    <path d="M1380 388h-20v-2h20z"/>
    <path fill="#fff"/>
    <path d="M1380 398h-20v-2h20zM503.68 1040l-21.8 10.9-.88-1.8 18.2-9.1-18.2-9.1.9-1.8z"/>
    <path d="M514.6 1030.5l2.75 1.43 2.17 2.16 1.42 2.74.5 3.16-.5 3.16-1.42 2.75-2.17 2.17-2.74 1.42-3.15.5-3.16-.5-2.76-1.43-2.16-2.16-1.42-2.74-.5-3.16.5-3.16 1.42-2.75 2.16-2.17 2.75-1.42 3.15-.5z" fill="#fff"/>
    <path d="M514.93 1029.55l3.02 1.56 2.38 2.4 1.57 3.02.53 3.32-.98.16.98.16-.53 3.32-1.57 3.02-2.38 2.4-3.02 1.55-3.48.56-3.48-.55-3.03-1.56-2.38-2.4-1.56-3.02-.57-3.48.57-3.48 1.56-3.02 2.38-2.4 3.03-1.55 3.48-.56zm-6.33 1.92l-2.46 1.28-1.95 1.94-1.28 2.46-.46 2.84.46 2.84 1.27 2.47 1.94 1.95 2.46 1.28 2.85.46 2.84-.47 2.46-1.28 1.94-1.94 1.28-2.46.45-2.84-.45-2.84-1.28-2.47-1.94-1.95-2.47-1.28-2.85-.46z"/>
    <use xlink:href="#S" transform="matrix(1,0,0,1,1340.025,541.5064456477119) translate(0.004999999999999005 14.4)"/>
    <path d="M1520 1100h128l32 32v128h-160z" stroke="#d9be60" stroke-width="2" fill="#ffdf71"/>
    <path d="M1648 1100l32 32h-32z" fill="#d9be60"/>
    <use xlink:href="#T" transform="matrix(1,0,0,1,1525,1105) translate(23.549999999999997 46.19999999999999)"/>
    <use xlink:href="#U" transform="matrix(1,0,0,1,1525,1105) translate(4.525000000000006 67.8)"/>
    <use xlink:href="#V" transform="matrix(1,0,0,1,1525,1105) translate(53.525000000000006 67.8)"/>
    <use xlink:href="#W" transform="matrix(1,0,0,1,1525,1105) translate(97.525 67.8)"/>
    <use xlink:href="#X" transform="matrix(1,0,0,1,1525,1105) translate(55 89.4)"/>
    <use xlink:href="#Y" transform="matrix(1,0,0,1,1525,1105) translate(1.5499999999999972 111)"/>
    <use xlink:href="#V" transform="matrix(1,0,0,1,1525,1105) translate(48.5 111)"/>
    <use xlink:href="#Z" transform="matrix(1,0,0,1,1525,1105) translate(92.5 111)"/>
    <path d="M1452.83 1077H481v-2h969.83V609.47h2zm0-489.13h-2V377h2z"/>
    <path d="M1462.72 377.9l-10.9 21.78-10.9-21.8 1.8-.88 9.1 18.2 9.1-18.2z"/>
    <path d="M1455 397.96l2.73 1.42 2.17 2.16 1.42 2.75.5 3.15-.5 3.16-1.42 2.75-2.17 2.17-2.74 1.42-3.17.5-3.16-.5-2.75-1.42-2.16-2.17-1.42-2.74-.5-3.15.5-3.16 1.42-2.76 2.16-2.16 2.75-1.42 3.16-.5z" fill="#fff"/>
    <path d="M1455.3 397l3.03 1.56 2.4 2.38 1.55 3.03.54 3.32-1 .15 1 .16-.54 3.33-1.56 3.02-2.4 2.38-3 1.57-3.5.56-3.47-.56-3.02-1.57-2.4-2.38-1.55-3.02-.56-3.48.56-3.48 1.56-3.03 2.4-2.38 3-1.56 3.5-.57zm-6.32 1.92l-2.46 1.27-1.95 1.94-1.27 2.46-.46 2.85.46 2.84 1.27 2.46 1.95 1.94 2.46 1.28 2.85.45 2.84-.45 2.47-1.28 1.94-1.94 1.28-2.47.46-2.85-.46-2.85-1.28-2.46-1.94-1.95-2.47-1.28-2.84-.46zM503.68 1076l-21.8 10.9-.88-1.8 18.2-9.1-18.2-9.1.9-1.8z"/>
    <path d="M514.6 1066.5l2.75 1.43 2.17 2.16 1.42 2.74.5 3.16-.5 3.16-1.42 2.75-2.17 2.17-2.74 1.42-3.15.5-3.16-.5-2.76-1.43-2.16-2.16-1.42-2.74-.5-3.16.5-3.16 1.42-2.75 2.16-2.17 2.75-1.42 3.15-.5z" fill="#fff"/>
    <path d="M514.93 1065.55l3.02 1.56 2.38 2.4 1.57 3.02.53 3.32-.98.16.98.16-.53 3.32-1.57 3.02-2.38 2.4-3.02 1.55-3.48.56-3.48-.55-3.03-1.56-2.38-2.4-1.56-3.02-.57-3.48.57-3.48 1.56-3.02 2.38-2.4 3.03-1.55 3.48-.56zm-6.33 1.92l-2.46 1.28-1.95 1.94-1.28 2.46-.46 2.84.46 2.84 1.27 2.47 1.94 1.95 2.46 1.28 2.85.46 2.84-.47 2.46-1.28 1.94-1.94 1.28-2.46.45-2.84-.45-2.84-1.28-2.47-1.94-1.95-2.47-1.28-2.85-.46z"/>
    <g>
    <use xlink:href="#aa" transform="matrix(1,0,0,1,1396.4283440967538,587.8733392655612) translate(0.005000000000002558 14.4)"/>
    <use xlink:href="#ab" transform="matrix(1,0,0,1,1396.4283440967538,587.8733392655612) translate(96.85499999999999 14.4)"/>
    </g>
    <defs>
    <path d="M141-36C126-15 110 5 73 4 37 3 15-17 15-53c-1-64 63-63 125-63 3-35-9-54-41-54-24 1-41 7-42 31l-33-3c5-37 33-52 76-52 45 0 72 20 72 64v82c-1 20 7 32 28 27v20c-31 9-61-2-59-35zM48-53c0 20 12 33 32 33 41-3 63-29 60-74-43 2-92-5-92 41" id="ac"/>
    <path d="M96-169c-40 0-48 33-48 73s9 75 48 75c24 0 41-14 43-38l32 2c-6 37-31 61-74 61-59 0-76-41-82-99-10-93 101-131 147-64 4 7 5 14 7 22l-32 3c-4-21-16-35-41-35" id="ad"/>
    <path d="M100-194c62-1 85 37 85 99 1 63-27 99-86 99S16-35 15-95c0-66 28-99 85-99zM99-20c44 1 53-31 53-75 0-43-8-75-51-75s-53 32-53 75 10 74 51 75" id="ae"/>
    <path d="M84 4C-5 8 30-112 23-190h32v120c0 31 7 50 39 49 72-2 45-101 50-169h31l1 190h-30c-1-10 1-25-2-33-11 22-28 36-60 37" id="af"/>
    <path d="M117-194c89-4 53 116 60 194h-32v-121c0-31-8-49-39-48C34-167 62-67 57 0H25l-1-190h30c1 10-1 24 2 32 11-22 29-35 61-36" id="ag"/>
    <path d="M59-47c-2 24 18 29 38 22v24C64 9 27 4 27-40v-127H5v-23h24l9-43h21v43h35v23H59v120" id="ah"/>
    <g id="a">
        <use transform="matrix(0.05,0,0,0.05,0,0)" xlink:href="#ac"/>
        <use transform="matrix(0.05,0,0,0.05,10,0)" xlink:href="#ad"/>
        <use transform="matrix(0.05,0,0,0.05,19,0)" xlink:href="#ad"/>
        <use transform="matrix(0.05,0,0,0.05,28,0)" xlink:href="#ae"/>
        <use transform="matrix(0.05,0,0,0.05,38,0)" xlink:href="#af"/>
        <use transform="matrix(0.05,0,0,0.05,48,0)" xlink:href="#ag"/>
        <use transform="matrix(0.05,0,0,0.05,58,0)" xlink:href="#ah"/>
    </g>
    <path d="M25-224v-37h50v37H25zM25 0v-190h50V0H25" id="ai"/>
    <path d="M88-194c31-1 46 15 58 34l-1-101h50l1 261h-48c-2-10 0-23-3-31C134-8 116 4 84 4 32 4 16-41 15-95c0-56 19-97 73-99zm17 164c33 0 40-30 41-66 1-37-9-64-41-64s-38 30-39 65c0 43 13 65 39 65" id="aj"/>
    <g id="b">
        <use transform="matrix(0.05,0,0,0.05,0,0)" xlink:href="#ai"/>
        <use transform="matrix(0.05,0,0,0.05,5,0)" xlink:href="#aj"/>
        <path d="M-.9.97h17.75v1.9H-.9z"/>
    </g>
    <path d="M24-231v-30h32v30H24zM24 0v-190h32V0H24" id="ak"/>
    <g id="c">
        <use transform="matrix(0.05,0,0,0.05,0,0)" xlink:href="#ak"/>
        <use transform="matrix(0.05,0,0,0.05,3.95,0)" xlink:href="#ag"/>
        <use transform="matrix(0.05,0,0,0.05,13.949999999999998,0)" xlink:href="#ah"/>
    </g>
    <path d="M135-143c-3-34-86-38-87 0 15 53 115 12 119 90S17 21 10-45l28-5c4 36 97 45 98 0-10-56-113-15-118-90-4-57 82-63 122-42 12 7 21 19 24 35" id="al"/>
    <path d="M100-194c63 0 86 42 84 106H49c0 40 14 67 53 68 26 1 43-12 49-29l28 8c-11 28-37 45-77 45C44 4 14-33 15-96c1-61 26-98 85-98zm52 81c6-60-76-77-97-28-3 7-6 17-6 28h103" id="am"/>
    <path d="M114-163C36-179 61-72 57 0H25l-1-190h30c1 12-1 29 2 39 6-27 23-49 58-41v29" id="an"/>
    <path d="M210-169c-67 3-38 105-44 169h-31v-121c0-29-5-50-35-48C34-165 62-65 56 0H25l-1-190h30c1 10-1 24 2 32 10-44 99-50 107 0 11-21 27-35 58-36 85-2 47 119 55 194h-31v-121c0-29-5-49-35-48" id="ao"/>
    <g id="d">
        <use transform="matrix(0.05,0,0,0.05,0,0)" xlink:href="#af"/>
        <use transform="matrix(0.05,0,0,0.05,10,0)" xlink:href="#al"/>
        <use transform="matrix(0.05,0,0,0.05,19,0)" xlink:href="#am"/>
        <use transform="matrix(0.05,0,0,0.05,29,0)" xlink:href="#an"/>
        <use transform="matrix(0.05,0,0,0.05,34.95,0)" xlink:href="#ag"/>
        <use transform="matrix(0.05,0,0,0.05,44.95,0)" xlink:href="#ac"/>
        <use transform="matrix(0.05,0,0,0.05,54.95,0)" xlink:href="#ao"/>
        <use transform="matrix(0.05,0,0,0.05,69.9,0)" xlink:href="#am"/>
    </g>
    <path d="M185-189c-5-48-123-54-124 2 14 75 158 14 163 119 3 78-121 87-175 55-17-10-28-26-33-46l33-7c5 56 141 63 141-1 0-78-155-14-162-118-5-82 145-84 179-34 5 7 8 16 11 25" id="ap"/>
    <path d="M177-190C167-65 218 103 67 71c-23-6-38-20-44-43l32-5c15 47 100 32 89-28v-30C133-14 115 1 83 1 29 1 15-40 15-95c0-56 16-97 71-98 29-1 48 16 59 35 1-10 0-23 2-32h30zM94-22c36 0 50-32 50-73 0-42-14-75-50-75-39 0-46 34-46 75s6 73 46 73" id="aq"/>
    <g id="e">
        <use transform="matrix(0.05,0,0,0.05,0,0)" xlink:href="#ap"/>
        <use transform="matrix(0.05,0,0,0.05,12,0)" xlink:href="#ah"/>
        <use transform="matrix(0.05,0,0,0.05,17,0)" xlink:href="#an"/>
        <use transform="matrix(0.05,0,0,0.05,22.95,0)" xlink:href="#ak"/>
        <use transform="matrix(0.05,0,0,0.05,26.899999999999995,0)" xlink:href="#ag"/>
        <use transform="matrix(0.05,0,0,0.05,36.9,0)" xlink:href="#aq"/>
    </g>
    <path d="M24 0v-261h32V0H24" id="ar"/>
    <g id="f">
        <use transform="matrix(0.05,0,0,0.05,0,0)" xlink:href="#am"/>
        <use transform="matrix(0.05,0,0,0.05,10,0)" xlink:href="#ao"/>
        <use transform="matrix(0.05,0,0,0.05,24.950000000000003,0)" xlink:href="#ac"/>
        <use transform="matrix(0.05,0,0,0.05,34.95,0)" xlink:href="#ak"/>
        <use transform="matrix(0.05,0,0,0.05,38.900000000000006,0)" xlink:href="#ar"/>
    </g>
    <path d="M115-194c55 1 70 41 70 98S169 2 115 4C84 4 66-9 55-30l1 105H24l-1-265h31l2 30c10-21 28-34 59-34zm-8 174c40 0 45-34 45-75s-6-73-45-74c-42 0-51 32-51 76 0 43 10 73 51 73" id="as"/>
    <path d="M206 0h-36l-40-164L89 0H53L-1-190h32L70-26l43-164h34l41 164 42-164h31" id="at"/>
    <path d="M85-194c31 0 48 13 60 33l-1-100h32l1 261h-30c-2-10 0-23-3-31C134-8 116 4 85 4 32 4 16-35 15-94c0-66 23-100 70-100zm9 24c-40 0-46 34-46 75 0 40 6 74 45 74 42 0 51-32 51-76 0-42-9-74-50-73" id="au"/>
    <g id="g">
        <use transform="matrix(0.05,0,0,0.05,0,0)" xlink:href="#as"/>
        <use transform="matrix(0.05,0,0,0.05,10,0)" xlink:href="#ac"/>
        <use transform="matrix(0.05,0,0,0.05,20,0)" xlink:href="#al"/>
        <use transform="matrix(0.05,0,0,0.05,29,0)" xlink:href="#al"/>
        <use transform="matrix(0.05,0,0,0.05,38,0)" xlink:href="#at"/>
        <use transform="matrix(0.05,0,0,0.05,50.95,0)" xlink:href="#ae"/>
        <use transform="matrix(0.05,0,0,0.05,60.95,0)" xlink:href="#an"/>
        <use transform="matrix(0.05,0,0,0.05,66.9,0)" xlink:href="#au"/>
        <use transform="matrix(0.05,0,0,0.05,76.9,0)" xlink:href="#al"/>
        <use transform="matrix(0.05,0,0,0.05,85.9,0)" xlink:href="#ac"/>
        <use transform="matrix(0.05,0,0,0.05,95.9,0)" xlink:href="#ar"/>
        <use transform="matrix(0.05,0,0,0.05,99.85000000000001,0)" xlink:href="#ah"/>
    </g>
    <path d="M106-169C34-169 62-67 57 0H25v-261h32l-1 103c12-21 28-36 61-36 89 0 53 116 60 194h-32v-121c2-32-8-49-39-48" id="av"/>
    <g id="h">
        <use transform="matrix(0.05,0,0,0.05,0,0)" xlink:href="#as"/>
        <use transform="matrix(0.05,0,0,0.05,10,0)" xlink:href="#ac"/>
        <use transform="matrix(0.05,0,0,0.05,20,0)" xlink:href="#al"/>
        <use transform="matrix(0.05,0,0,0.05,29,0)" xlink:href="#al"/>
        <use transform="matrix(0.05,0,0,0.05,38,0)" xlink:href="#at"/>
        <use transform="matrix(0.05,0,0,0.05,50.95,0)" xlink:href="#ae"/>
        <use transform="matrix(0.05,0,0,0.05,60.95,0)" xlink:href="#an"/>
        <use transform="matrix(0.05,0,0,0.05,66.9,0)" xlink:href="#au"/>
        <use transform="matrix(0.05,0,0,0.05,76.9,0)" xlink:href="#av"/>
        <use transform="matrix(0.05,0,0,0.05,86.9,0)" xlink:href="#ac"/>
        <use transform="matrix(0.05,0,0,0.05,96.9,0)" xlink:href="#al"/>
        <use transform="matrix(0.05,0,0,0.05,105.9,0)" xlink:href="#av"/>
    </g>
    <g id="i">
        <use transform="matrix(0.05,0,0,0.05,0,0)" xlink:href="#ar"/>
        <use transform="matrix(0.05,0,0,0.05,3.95,0)" xlink:href="#ae"/>
        <use transform="matrix(0.05,0,0,0.05,13.949999999999998,0)" xlink:href="#ag"/>
    </g>
    <path d="M115-194c53 0 69 39 70 98 0 66-23 100-70 100C84 3 66-7 56-30L54 0H23l1-261h32v101c10-23 28-34 59-34zm-8 174c40 0 45-34 45-75 0-40-5-75-45-74-42 0-51 32-51 76 0 43 10 73 51 73" id="aw"/>
    <g id="j">
        <use transform="matrix(0.05,0,0,0.05,0,0)" xlink:href="#au"/>
        <use transform="matrix(0.05,0,0,0.05,10,0)" xlink:href="#ae"/>
        <use transform="matrix(0.05,0,0,0.05,20,0)" xlink:href="#af"/>
        <use transform="matrix(0.05,0,0,0.05,30,0)" xlink:href="#aw"/>
        <use transform="matrix(0.05,0,0,0.05,40,0)" xlink:href="#ar"/>
        <use transform="matrix(0.05,0,0,0.05,43.95,0)" xlink:href="#am"/>
    </g>
    <g id="k">
        <use transform="matrix(0.05,0,0,0.05,0,0)" xlink:href="#ar"/>
        <use transform="matrix(0.05,0,0,0.05,3.95,0)" xlink:href="#ac"/>
        <use transform="matrix(0.05,0,0,0.05,13.949999999999998,0)" xlink:href="#ah"/>
    </g>
    <g id="l">
        <use transform="matrix(0.05,0,0,0.05,0,0)" xlink:href="#ah"/>
        <use transform="matrix(0.05,0,0,0.05,5,0)" xlink:href="#ak"/>
        <use transform="matrix(0.05,0,0,0.05,8.95,0)" xlink:href="#ao"/>
        <use transform="matrix(0.05,0,0,0.05,23.9,0)" xlink:href="#am"/>
        <use transform="matrix(0.05,0,0,0.05,33.9,0)" xlink:href="#ao"/>
        <use transform="matrix(0.05,0,0,0.05,48.85,0)" xlink:href="#am"/>
        <use transform="matrix(0.05,0,0,0.05,58.85,0)" xlink:href="#ac"/>
        <use transform="matrix(0.05,0,0,0.05,68.85,0)" xlink:href="#al"/>
        <use transform="matrix(0.05,0,0,0.05,77.85,0)" xlink:href="#af"/>
        <use transform="matrix(0.05,0,0,0.05,87.85,0)" xlink:href="#an"/>
        <use transform="matrix(0.05,0,0,0.05,93.8,0)" xlink:href="#am"/>
        <use transform="matrix(0.05,0,0,0.05,103.80000000000001,0)" xlink:href="#au"/>
    </g>
    <path d="M127-220V0H93v-220H8v-28h204v28h-85" id="ax"/>
    <g id="m">
        <use transform="matrix(0.05,0,0,0.05,0,0)" xlink:href="#ax"/>
        <use transform="matrix(0.05,0,0,0.05,10.3,0)" xlink:href="#ak"/>
        <use transform="matrix(0.05,0,0,0.05,14.25,0)" xlink:href="#ao"/>
        <use transform="matrix(0.05,0,0,0.05,29.200000000000003,0)" xlink:href="#am"/>
    </g>
    <g id="n">
        <use transform="matrix(0.05,0,0,0.05,0,0)" xlink:href="#aq"/>
        <use transform="matrix(0.05,0,0,0.05,10,0)" xlink:href="#an"/>
        <use transform="matrix(0.05,0,0,0.05,15.949999999999998,0)" xlink:href="#ae"/>
        <use transform="matrix(0.05,0,0,0.05,25.950000000000003,0)" xlink:href="#af"/>
        <use transform="matrix(0.05,0,0,0.05,35.95,0)" xlink:href="#as"/>
    </g>
    <g id="o">
        <use transform="matrix(0.05,0,0,0.05,0,0)" xlink:href="#ag"/>
        <use transform="matrix(0.05,0,0,0.05,10,0)" xlink:href="#ac"/>
        <use transform="matrix(0.05,0,0,0.05,20,0)" xlink:href="#ao"/>
        <use transform="matrix(0.05,0,0,0.05,34.95,0)" xlink:href="#am"/>
    </g>
    <path d="M108 0H70L1-190h34L89-25l56-165h34" id="ay"/>
    <g id="p">
        <use transform="matrix(0.05,0,0,0.05,0,0)" xlink:href="#am"/>
        <use transform="matrix(0.05,0,0,0.05,10,0)" xlink:href="#ay"/>
        <use transform="matrix(0.05,0,0,0.05,19,0)" xlink:href="#am"/>
        <use transform="matrix(0.05,0,0,0.05,29,0)" xlink:href="#ag"/>
        <use transform="matrix(0.05,0,0,0.05,39,0)" xlink:href="#ah"/>
    </g>
    <g id="q">
        <use transform="matrix(0.05,0,0,0.05,0,0)" xlink:href="#ah"/>
        <use transform="matrix(0.05,0,0,0.05,5,0)" xlink:href="#ak"/>
        <use transform="matrix(0.05,0,0,0.05,8.95,0)" xlink:href="#ah"/>
        <use transform="matrix(0.05,0,0,0.05,13.949999999999998,0)" xlink:href="#ar"/>
        <use transform="matrix(0.05,0,0,0.05,17.9,0)" xlink:href="#am"/>
    </g>
    <g id="r">
        <use transform="matrix(0.05,0,0,0.05,0,0)" xlink:href="#ah"/>
        <use transform="matrix(0.05,0,0,0.05,5,0)" xlink:href="#ak"/>
        <use transform="matrix(0.05,0,0,0.05,8.95,0)" xlink:href="#ao"/>
        <use transform="matrix(0.05,0,0,0.05,23.9,0)" xlink:href="#am"/>
        <use transform="matrix(0.05,0,0,0.05,33.9,0)" xlink:href="#al"/>
        <use transform="matrix(0.05,0,0,0.05,42.9,0)" xlink:href="#ah"/>
        <use transform="matrix(0.05,0,0,0.05,47.9,0)" xlink:href="#ac"/>
        <use transform="matrix(0.05,0,0,0.05,57.900000000000006,0)" xlink:href="#an"/>
        <use transform="matrix(0.05,0,0,0.05,63.85,0)" xlink:href="#ah"/>
    </g>
    <g id="s">
        <use transform="matrix(0.05,0,0,0.05,0,0)" xlink:href="#ax"/>
        <use transform="matrix(0.05,0,0,0.05,10.3,0)" xlink:href="#ak"/>
        <use transform="matrix(0.05,0,0,0.05,14.25,0)" xlink:href="#ao"/>
        <use transform="matrix(0.05,0,0,0.05,29.200000000000003,0)" xlink:href="#am"/>
    </g>
    <g id="t">
        <use transform="matrix(0.05,0,0,0.05,0,0)" xlink:href="#ah"/>
        <use transform="matrix(0.05,0,0,0.05,5,0)" xlink:href="#ak"/>
        <use transform="matrix(0.05,0,0,0.05,8.95,0)" xlink:href="#ao"/>
        <use transform="matrix(0.05,0,0,0.05,23.9,0)" xlink:href="#am"/>
        <use transform="matrix(0.05,0,0,0.05,33.9,0)" xlink:href="#am"/>
        <use transform="matrix(0.05,0,0,0.05,43.9,0)" xlink:href="#ag"/>
        <use transform="matrix(0.05,0,0,0.05,53.900000000000006,0)" xlink:href="#au"/>
    </g>
    <path d="M179-190L93 31C79 59 56 82 12 73V49c39 6 53-20 64-50L1-190h34L92-34l54-156h33" id="az"/>
    <g id="u">
        <use transform="matrix(0.05,0,0,0.05,0,0)" xlink:href="#ax"/>
        <use transform="matrix(0.05,0,0,0.05,9.950000000000001,0)" xlink:href="#az"/>
        <use transform="matrix(0.05,0,0,0.05,18.950000000000003,0)" xlink:href="#as"/>
        <use transform="matrix(0.05,0,0,0.05,28.950000000000003,0)" xlink:href="#am"/>
    </g>
    <g id="v">
        <use transform="matrix(0.05,0,0,0.05,0,0)" xlink:href="#as"/>
        <use transform="matrix(0.05,0,0,0.05,10,0)" xlink:href="#ae"/>
        <use transform="matrix(0.05,0,0,0.05,20,0)" xlink:href="#ar"/>
        <use transform="matrix(0.05,0,0,0.05,23.95,0)" xlink:href="#ar"/>
    </g>
    <path d="M145-31C134-9 116 4 85 4 32 4 16-35 15-94c0-59 17-99 70-100 32-1 48 14 60 33 0-11-1-24 2-32h30l-1 268h-32zM93-21c41 0 51-33 51-76s-8-73-50-73c-40 0-46 35-46 75s5 74 45 74" id="aA"/>
    <g id="w">
        <use transform="matrix(0.05,0,0,0.05,0,0)" xlink:href="#aA"/>
        <use transform="matrix(0.05,0,0,0.05,10,0)" xlink:href="#af"/>
        <use transform="matrix(0.05,0,0,0.05,20,0)" xlink:href="#am"/>
        <use transform="matrix(0.05,0,0,0.05,30,0)" xlink:href="#al"/>
        <use transform="matrix(0.05,0,0,0.05,39,0)" xlink:href="#ah"/>
        <use transform="matrix(0.05,0,0,0.05,44,0)" xlink:href="#ak"/>
        <use transform="matrix(0.05,0,0,0.05,47.95,0)" xlink:href="#ae"/>
        <use transform="matrix(0.05,0,0,0.05,57.95,0)" xlink:href="#ag"/>
    </g>
    <g id="x">
        <use transform="matrix(0.05,0,0,0.05,0,0)" xlink:href="#ao"/>
        <use transform="matrix(0.05,0,0,0.05,14.950000000000001,0)" xlink:href="#af"/>
        <use transform="matrix(0.05,0,0,0.05,24.950000000000003,0)" xlink:href="#ar"/>
        <use transform="matrix(0.05,0,0,0.05,28.900000000000002,0)" xlink:href="#ah"/>
        <use transform="matrix(0.05,0,0,0.05,33.900000000000006,0)" xlink:href="#ak"/>
        <use transform="matrix(0.05,0,0,0.05,37.85000000000001,0)" xlink:href="#ad"/>
        <use transform="matrix(0.05,0,0,0.05,46.85000000000001,0)" xlink:href="#av"/>
        <use transform="matrix(0.05,0,0,0.05,56.85,0)" xlink:href="#ae"/>
        <use transform="matrix(0.05,0,0,0.05,66.85000000000001,0)" xlink:href="#ak"/>
        <use transform="matrix(0.05,0,0,0.05,70.80000000000001,0)" xlink:href="#ad"/>
        <use transform="matrix(0.05,0,0,0.05,79.80000000000001,0)" xlink:href="#am"/>
    </g>
    <g id="y">
        <use transform="matrix(0.05,0,0,0.05,0,0)" xlink:href="#aw"/>
        <use transform="matrix(0.05,0,0,0.05,10,0)" xlink:href="#ae"/>
        <use transform="matrix(0.05,0,0,0.05,20,0)" xlink:href="#ae"/>
        <use transform="matrix(0.05,0,0,0.05,30,0)" xlink:href="#ar"/>
        <use transform="matrix(0.05,0,0,0.05,33.95,0)" xlink:href="#am"/>
        <use transform="matrix(0.05,0,0,0.05,43.95,0)" xlink:href="#ac"/>
        <use transform="matrix(0.05,0,0,0.05,53.95,0)" xlink:href="#ag"/>
    </g>
    <g id="z">
        <use transform="matrix(0.05,0,0,0.05,0,0)" xlink:href="#as"/>
        <use transform="matrix(0.05,0,0,0.05,10,0)" xlink:href="#ae"/>
        <use transform="matrix(0.05,0,0,0.05,20,0)" xlink:href="#ar"/>
        <use transform="matrix(0.05,0,0,0.05,23.95,0)" xlink:href="#ar"/>
        <use transform="matrix(0.05,0,0,0.05,27.899999999999995,0)" xlink:href="#ae"/>
        <use transform="matrix(0.05,0,0,0.05,37.9,0)" xlink:href="#as"/>
        <use transform="matrix(0.05,0,0,0.05,47.9,0)" xlink:href="#ah"/>
        <use transform="matrix(0.05,0,0,0.05,52.900000000000006,0)" xlink:href="#ak"/>
        <use transform="matrix(0.05,0,0,0.05,56.85,0)" xlink:href="#ae"/>
        <use transform="matrix(0.05,0,0,0.05,66.85,0)" xlink:href="#ag"/>
    </g>
    <g id="A">
        <use transform="matrix(0.05,0,0,0.05,0,0)" xlink:href="#aq"/>
        <use transform="matrix(0.05,0,0,0.05,10,0)" xlink:href="#an"/>
        <use transform="matrix(0.05,0,0,0.05,15.949999999999998,0)" xlink:href="#ae"/>
        <use transform="matrix(0.05,0,0,0.05,25.950000000000003,0)" xlink:href="#af"/>
        <use transform="matrix(0.05,0,0,0.05,35.95,0)" xlink:href="#as"/>
        <use transform="matrix(0.05,0,0,0.05,45.95,0)" xlink:href="#ao"/>
        <use transform="matrix(0.05,0,0,0.05,60.900000000000006,0)" xlink:href="#am"/>
        <use transform="matrix(0.05,0,0,0.05,70.9,0)" xlink:href="#ao"/>
        <use transform="matrix(0.05,0,0,0.05,85.85000000000001,0)" xlink:href="#aw"/>
        <use transform="matrix(0.05,0,0,0.05,95.85000000000001,0)" xlink:href="#am"/>
        <use transform="matrix(0.05,0,0,0.05,105.85000000000001,0)" xlink:href="#an"/>
        <use transform="matrix(0.05,0,0,0.05,111.80000000000001,0)" xlink:href="#al"/>
        <use transform="matrix(0.05,0,0,0.05,120.80000000000001,0)" xlink:href="#av"/>
        <use transform="matrix(0.05,0,0,0.05,130.8,0)" xlink:href="#ak"/>
        <use transform="matrix(0.05,0,0,0.05,134.75,0)" xlink:href="#as"/>
    </g>
    <path d="M-5 72V49h209v23H-5" id="aB"/>
    <g id="B">
        <use transform="matrix(0.05,0,0,0.05,0,0)" xlink:href="#as"/>
        <use transform="matrix(0.05,0,0,0.05,10,0)" xlink:href="#am"/>
        <use transform="matrix(0.05,0,0,0.05,20,0)" xlink:href="#an"/>
        <use transform="matrix(0.05,0,0,0.05,25.950000000000003,0)" xlink:href="#ao"/>
        <use transform="matrix(0.05,0,0,0.05,40.9,0)" xlink:href="#ak"/>
        <use transform="matrix(0.05,0,0,0.05,44.85,0)" xlink:href="#al"/>
        <use transform="matrix(0.05,0,0,0.05,53.85,0)" xlink:href="#al"/>
        <use transform="matrix(0.05,0,0,0.05,62.85,0)" xlink:href="#ak"/>
        <use transform="matrix(0.05,0,0,0.05,66.8,0)" xlink:href="#ae"/>
        <use transform="matrix(0.05,0,0,0.05,76.8,0)" xlink:href="#ag"/>
        <use transform="matrix(0.05,0,0,0.05,86.8,0)" xlink:href="#aB"/>
        <use transform="matrix(0.05,0,0,0.05,96.8,0)" xlink:href="#ad"/>
        <use transform="matrix(0.05,0,0,0.05,105.80000000000001,0)" xlink:href="#av"/>
        <use transform="matrix(0.05,0,0,0.05,115.80000000000001,0)" xlink:href="#ac"/>
        <use transform="matrix(0.05,0,0,0.05,125.80000000000001,0)" xlink:href="#ag"/>
        <use transform="matrix(0.05,0,0,0.05,135.8,0)" xlink:href="#aq"/>
        <use transform="matrix(0.05,0,0,0.05,145.8,0)" xlink:href="#am"/>
        <use transform="matrix(0.05,0,0,0.05,155.8,0)" xlink:href="#aB"/>
        <use transform="matrix(0.05,0,0,0.05,165.8,0)" xlink:href="#aq"/>
        <use transform="matrix(0.05,0,0,0.05,175.8,0)" xlink:href="#an"/>
        <use transform="matrix(0.05,0,0,0.05,181.75,0)" xlink:href="#ae"/>
        <use transform="matrix(0.05,0,0,0.05,191.75,0)" xlink:href="#af"/>
        <use transform="matrix(0.05,0,0,0.05,201.75,0)" xlink:href="#as"/>
        <use transform="matrix(0.05,0,0,0.05,211.75,0)" xlink:href="#aB"/>
        <use transform="matrix(0.05,0,0,0.05,221.75,0)" xlink:href="#ag"/>
        <use transform="matrix(0.05,0,0,0.05,231.75,0)" xlink:href="#ac"/>
        <use transform="matrix(0.05,0,0,0.05,241.75,0)" xlink:href="#ao"/>
        <use transform="matrix(0.05,0,0,0.05,256.7,0)" xlink:href="#am"/>
    </g>
    <g id="C">
        <use transform="matrix(0.05,0,0,0.05,0,0)" xlink:href="#as"/>
        <use transform="matrix(0.05,0,0,0.05,10,0)" xlink:href="#am"/>
        <use transform="matrix(0.05,0,0,0.05,20,0)" xlink:href="#an"/>
        <use transform="matrix(0.05,0,0,0.05,25.950000000000003,0)" xlink:href="#ao"/>
        <use transform="matrix(0.05,0,0,0.05,40.9,0)" xlink:href="#ak"/>
        <use transform="matrix(0.05,0,0,0.05,44.85,0)" xlink:href="#al"/>
        <use transform="matrix(0.05,0,0,0.05,53.85,0)" xlink:href="#al"/>
        <use transform="matrix(0.05,0,0,0.05,62.85,0)" xlink:href="#ak"/>
        <use transform="matrix(0.05,0,0,0.05,66.8,0)" xlink:href="#ae"/>
        <use transform="matrix(0.05,0,0,0.05,76.8,0)" xlink:href="#ag"/>
        <use transform="matrix(0.05,0,0,0.05,86.8,0)" xlink:href="#aB"/>
        <use transform="matrix(0.05,0,0,0.05,96.8,0)" xlink:href="#ao"/>
        <use transform="matrix(0.05,0,0,0.05,111.75,0)" xlink:href="#ac"/>
        <use transform="matrix(0.05,0,0,0.05,121.75,0)" xlink:href="#ag"/>
        <use transform="matrix(0.05,0,0,0.05,131.75,0)" xlink:href="#ac"/>
        <use transform="matrix(0.05,0,0,0.05,141.75,0)" xlink:href="#aq"/>
        <use transform="matrix(0.05,0,0,0.05,151.75,0)" xlink:href="#am"/>
        <use transform="matrix(0.05,0,0,0.05,161.75,0)" xlink:href="#aB"/>
        <use transform="matrix(0.05,0,0,0.05,171.75,0)" xlink:href="#ao"/>
        <use transform="matrix(0.05,0,0,0.05,186.7,0)" xlink:href="#am"/>
        <use transform="matrix(0.05,0,0,0.05,196.7,0)" xlink:href="#ao"/>
        <use transform="matrix(0.05,0,0,0.05,211.64999999999998,0)" xlink:href="#aw"/>
        <use transform="matrix(0.05,0,0,0.05,221.64999999999998,0)" xlink:href="#am"/>
        <use transform="matrix(0.05,0,0,0.05,231.64999999999998,0)" xlink:href="#an"/>
        <use transform="matrix(0.05,0,0,0.05,237.59999999999997,0)" xlink:href="#al"/>
    </g>
    <g id="D">
        <use transform="matrix(0.05,0,0,0.05,0,0)" xlink:href="#aw"/>
        <use transform="matrix(0.05,0,0,0.05,10,0)" xlink:href="#ae"/>
        <use transform="matrix(0.05,0,0,0.05,20,0)" xlink:href="#ae"/>
        <use transform="matrix(0.05,0,0,0.05,30,0)" xlink:href="#ar"/>
        <use transform="matrix(0.05,0,0,0.05,33.95,0)" xlink:href="#am"/>
        <use transform="matrix(0.05,0,0,0.05,43.95,0)" xlink:href="#ac"/>
        <use transform="matrix(0.05,0,0,0.05,53.95,0)" xlink:href="#ag"/>
    </g>
    <g id="E">
        <use transform="matrix(0.05,0,0,0.05,0,0)" xlink:href="#as"/>
        <use transform="matrix(0.05,0,0,0.05,10,0)" xlink:href="#am"/>
        <use transform="matrix(0.05,0,0,0.05,20,0)" xlink:href="#an"/>
        <use transform="matrix(0.05,0,0,0.05,25.950000000000003,0)" xlink:href="#ao"/>
        <use transform="matrix(0.05,0,0,0.05,40.9,0)" xlink:href="#ak"/>
        <use transform="matrix(0.05,0,0,0.05,44.85,0)" xlink:href="#al"/>
        <use transform="matrix(0.05,0,0,0.05,53.85,0)" xlink:href="#al"/>
        <use transform="matrix(0.05,0,0,0.05,62.85,0)" xlink:href="#ak"/>
        <use transform="matrix(0.05,0,0,0.05,66.8,0)" xlink:href="#ae"/>
        <use transform="matrix(0.05,0,0,0.05,76.8,0)" xlink:href="#ag"/>
        <use transform="matrix(0.05,0,0,0.05,86.8,0)" xlink:href="#aB"/>
        <use transform="matrix(0.05,0,0,0.05,96.8,0)" xlink:href="#ad"/>
        <use transform="matrix(0.05,0,0,0.05,105.80000000000001,0)" xlink:href="#av"/>
        <use transform="matrix(0.05,0,0,0.05,115.80000000000001,0)" xlink:href="#ac"/>
        <use transform="matrix(0.05,0,0,0.05,125.80000000000001,0)" xlink:href="#ag"/>
        <use transform="matrix(0.05,0,0,0.05,135.8,0)" xlink:href="#aq"/>
        <use transform="matrix(0.05,0,0,0.05,145.8,0)" xlink:href="#am"/>
        <use transform="matrix(0.05,0,0,0.05,155.8,0)" xlink:href="#aB"/>
        <use transform="matrix(0.05,0,0,0.05,165.8,0)" xlink:href="#as"/>
        <use transform="matrix(0.05,0,0,0.05,175.8,0)" xlink:href="#am"/>
        <use transform="matrix(0.05,0,0,0.05,185.8,0)" xlink:href="#an"/>
        <use transform="matrix(0.05,0,0,0.05,191.75,0)" xlink:href="#ao"/>
        <use transform="matrix(0.05,0,0,0.05,206.69999999999996,0)" xlink:href="#ak"/>
        <use transform="matrix(0.05,0,0,0.05,210.64999999999998,0)" xlink:href="#al"/>
        <use transform="matrix(0.05,0,0,0.05,219.64999999999998,0)" xlink:href="#al"/>
        <use transform="matrix(0.05,0,0,0.05,228.64999999999998,0)" xlink:href="#ak"/>
        <use transform="matrix(0.05,0,0,0.05,232.59999999999997,0)" xlink:href="#ae"/>
        <use transform="matrix(0.05,0,0,0.05,242.59999999999997,0)" xlink:href="#ag"/>
        <use transform="matrix(0.05,0,0,0.05,252.59999999999997,0)" xlink:href="#al"/>
    </g>
    <g id="F">
        <use transform="matrix(0.05,0,0,0.05,0,0)" xlink:href="#as"/>
        <use transform="matrix(0.05,0,0,0.05,10,0)" xlink:href="#am"/>
        <use transform="matrix(0.05,0,0,0.05,20,0)" xlink:href="#an"/>
        <use transform="matrix(0.05,0,0,0.05,25.950000000000003,0)" xlink:href="#ao"/>
        <use transform="matrix(0.05,0,0,0.05,40.9,0)" xlink:href="#ak"/>
        <use transform="matrix(0.05,0,0,0.05,44.85,0)" xlink:href="#al"/>
        <use transform="matrix(0.05,0,0,0.05,53.85,0)" xlink:href="#al"/>
        <use transform="matrix(0.05,0,0,0.05,62.85,0)" xlink:href="#ak"/>
        <use transform="matrix(0.05,0,0,0.05,66.8,0)" xlink:href="#ae"/>
        <use transform="matrix(0.05,0,0,0.05,76.8,0)" xlink:href="#ag"/>
        <use transform="matrix(0.05,0,0,0.05,86.8,0)" xlink:href="#aB"/>
        <use transform="matrix(0.05,0,0,0.05,96.8,0)" xlink:href="#ad"/>
        <use transform="matrix(0.05,0,0,0.05,105.80000000000001,0)" xlink:href="#an"/>
        <use transform="matrix(0.05,0,0,0.05,111.75,0)" xlink:href="#am"/>
        <use transform="matrix(0.05,0,0,0.05,121.75,0)" xlink:href="#ac"/>
        <use transform="matrix(0.05,0,0,0.05,131.75,0)" xlink:href="#ah"/>
        <use transform="matrix(0.05,0,0,0.05,136.75,0)" xlink:href="#am"/>
        <use transform="matrix(0.05,0,0,0.05,146.75,0)" xlink:href="#aB"/>
        <use transform="matrix(0.05,0,0,0.05,156.75,0)" xlink:href="#am"/>
        <use transform="matrix(0.05,0,0,0.05,166.75,0)" xlink:href="#ay"/>
        <use transform="matrix(0.05,0,0,0.05,175.75,0)" xlink:href="#am"/>
        <use transform="matrix(0.05,0,0,0.05,185.75,0)" xlink:href="#ag"/>
        <use transform="matrix(0.05,0,0,0.05,195.75,0)" xlink:href="#ah"/>
    </g>
    <g id="G">
        <use transform="matrix(0.05,0,0,0.05,0,0)" xlink:href="#as"/>
        <use transform="matrix(0.05,0,0,0.05,10,0)" xlink:href="#am"/>
        <use transform="matrix(0.05,0,0,0.05,20,0)" xlink:href="#an"/>
        <use transform="matrix(0.05,0,0,0.05,25.950000000000003,0)" xlink:href="#ao"/>
        <use transform="matrix(0.05,0,0,0.05,40.9,0)" xlink:href="#ak"/>
        <use transform="matrix(0.05,0,0,0.05,44.85,0)" xlink:href="#al"/>
        <use transform="matrix(0.05,0,0,0.05,53.85,0)" xlink:href="#al"/>
        <use transform="matrix(0.05,0,0,0.05,62.85,0)" xlink:href="#ak"/>
        <use transform="matrix(0.05,0,0,0.05,66.8,0)" xlink:href="#ae"/>
        <use transform="matrix(0.05,0,0,0.05,76.8,0)" xlink:href="#ag"/>
        <use transform="matrix(0.05,0,0,0.05,86.8,0)" xlink:href="#aB"/>
        <use transform="matrix(0.05,0,0,0.05,96.8,0)" xlink:href="#am"/>
        <use transform="matrix(0.05,0,0,0.05,106.80000000000001,0)" xlink:href="#au"/>
        <use transform="matrix(0.05,0,0,0.05,116.80000000000001,0)" xlink:href="#ak"/>
        <use transform="matrix(0.05,0,0,0.05,120.75,0)" xlink:href="#ah"/>
        <use transform="matrix(0.05,0,0,0.05,125.75,0)" xlink:href="#aB"/>
        <use transform="matrix(0.05,0,0,0.05,135.75,0)" xlink:href="#ac"/>
        <use transform="matrix(0.05,0,0,0.05,145.75,0)" xlink:href="#ag"/>
        <use transform="matrix(0.05,0,0,0.05,155.75,0)" xlink:href="#az"/>
        <use transform="matrix(0.05,0,0,0.05,164.75,0)" xlink:href="#aB"/>
        <use transform="matrix(0.05,0,0,0.05,174.75,0)" xlink:href="#am"/>
        <use transform="matrix(0.05,0,0,0.05,184.75,0)" xlink:href="#ay"/>
        <use transform="matrix(0.05,0,0,0.05,193.75,0)" xlink:href="#am"/>
        <use transform="matrix(0.05,0,0,0.05,203.75,0)" xlink:href="#ag"/>
        <use transform="matrix(0.05,0,0,0.05,213.75,0)" xlink:href="#ah"/>
    </g>
    <g id="H">
        <use transform="matrix(0.05,0,0,0.05,0,0)" xlink:href="#as"/>
        <use transform="matrix(0.05,0,0,0.05,10,0)" xlink:href="#am"/>
        <use transform="matrix(0.05,0,0,0.05,20,0)" xlink:href="#an"/>
        <use transform="matrix(0.05,0,0,0.05,25.950000000000003,0)" xlink:href="#ao"/>
        <use transform="matrix(0.05,0,0,0.05,40.9,0)" xlink:href="#ak"/>
        <use transform="matrix(0.05,0,0,0.05,44.85,0)" xlink:href="#al"/>
        <use transform="matrix(0.05,0,0,0.05,53.85,0)" xlink:href="#al"/>
        <use transform="matrix(0.05,0,0,0.05,62.85,0)" xlink:href="#ak"/>
        <use transform="matrix(0.05,0,0,0.05,66.8,0)" xlink:href="#ae"/>
        <use transform="matrix(0.05,0,0,0.05,76.8,0)" xlink:href="#ag"/>
        <use transform="matrix(0.05,0,0,0.05,86.8,0)" xlink:href="#aB"/>
        <use transform="matrix(0.05,0,0,0.05,96.8,0)" xlink:href="#ad"/>
        <use transform="matrix(0.05,0,0,0.05,105.80000000000001,0)" xlink:href="#an"/>
        <use transform="matrix(0.05,0,0,0.05,111.75,0)" xlink:href="#am"/>
        <use transform="matrix(0.05,0,0,0.05,121.75,0)" xlink:href="#ac"/>
        <use transform="matrix(0.05,0,0,0.05,131.75,0)" xlink:href="#ah"/>
        <use transform="matrix(0.05,0,0,0.05,136.75,0)" xlink:href="#am"/>
        <use transform="matrix(0.05,0,0,0.05,146.75,0)" xlink:href="#aB"/>
        <use transform="matrix(0.05,0,0,0.05,156.75,0)" xlink:href="#as"/>
        <use transform="matrix(0.05,0,0,0.05,166.75,0)" xlink:href="#ae"/>
        <use transform="matrix(0.05,0,0,0.05,176.75,0)" xlink:href="#ar"/>
        <use transform="matrix(0.05,0,0,0.05,180.7,0)" xlink:href="#ar"/>
    </g>
    <g id="I">
        <use transform="matrix(0.05,0,0,0.05,0,0)" xlink:href="#as"/>
        <use transform="matrix(0.05,0,0,0.05,10,0)" xlink:href="#am"/>
        <use transform="matrix(0.05,0,0,0.05,20,0)" xlink:href="#an"/>
        <use transform="matrix(0.05,0,0,0.05,25.950000000000003,0)" xlink:href="#ao"/>
        <use transform="matrix(0.05,0,0,0.05,40.9,0)" xlink:href="#ak"/>
        <use transform="matrix(0.05,0,0,0.05,44.85,0)" xlink:href="#al"/>
        <use transform="matrix(0.05,0,0,0.05,53.85,0)" xlink:href="#al"/>
        <use transform="matrix(0.05,0,0,0.05,62.85,0)" xlink:href="#ak"/>
        <use transform="matrix(0.05,0,0,0.05,66.8,0)" xlink:href="#ae"/>
        <use transform="matrix(0.05,0,0,0.05,76.8,0)" xlink:href="#ag"/>
        <use transform="matrix(0.05,0,0,0.05,86.8,0)" xlink:href="#aB"/>
        <use transform="matrix(0.05,0,0,0.05,96.8,0)" xlink:href="#am"/>
        <use transform="matrix(0.05,0,0,0.05,106.80000000000001,0)" xlink:href="#au"/>
        <use transform="matrix(0.05,0,0,0.05,116.80000000000001,0)" xlink:href="#ak"/>
        <use transform="matrix(0.05,0,0,0.05,120.75,0)" xlink:href="#ah"/>
        <use transform="matrix(0.05,0,0,0.05,125.75,0)" xlink:href="#aB"/>
        <use transform="matrix(0.05,0,0,0.05,135.75,0)" xlink:href="#ac"/>
        <use transform="matrix(0.05,0,0,0.05,145.75,0)" xlink:href="#ag"/>
        <use transform="matrix(0.05,0,0,0.05,155.75,0)" xlink:href="#az"/>
        <use transform="matrix(0.05,0,0,0.05,164.75,0)" xlink:href="#aB"/>
        <use transform="matrix(0.05,0,0,0.05,174.75,0)" xlink:href="#as"/>
        <use transform="matrix(0.05,0,0,0.05,184.75,0)" xlink:href="#ae"/>
        <use transform="matrix(0.05,0,0,0.05,194.75,0)" xlink:href="#ar"/>
        <use transform="matrix(0.05,0,0,0.05,198.7,0)" xlink:href="#ar"/>
    </g>
    <path fill="#494949" d="M106-169C34-169 62-67 57 0H25v-261h32l-1 103c12-21 28-36 61-36 89 0 53 116 60 194h-32v-121c2-32-8-49-39-48" id="aC"/>
    <path fill="#494949" d="M141-36C126-15 110 5 73 4 37 3 15-17 15-53c-1-64 63-63 125-63 3-35-9-54-41-54-24 1-41 7-42 31l-33-3c5-37 33-52 76-52 45 0 72 20 72 64v82c-1 20 7 32 28 27v20c-31 9-61-2-59-35zM48-53c0 20 12 33 32 33 41-3 63-29 60-74-43 2-92-5-92 41" id="aD"/>
    <path fill="#494949" d="M135-143c-3-34-86-38-87 0 15 53 115 12 119 90S17 21 10-45l28-5c4 36 97 45 98 0-10-56-113-15-118-90-4-57 82-63 122-42 12 7 21 19 24 35" id="aE"/>
    <g id="J">
        <use transform="matrix(0.05,0,0,0.05,0,0)" xlink:href="#aC"/>
        <use transform="matrix(0.05,0,0,0.05,10,0)" xlink:href="#aD"/>
        <use transform="matrix(0.05,0,0,0.05,20,0)" xlink:href="#aE"/>
    </g>
    <path fill="#494949" d="M115-194c53 0 69 39 70 98 0 66-23 100-70 100C84 3 66-7 56-30L54 0H23l1-261h32v101c10-23 28-34 59-34zm-8 174c40 0 45-34 45-75 0-40-5-75-45-74-42 0-51 32-51 76 0 43 10 73 51 73" id="aF"/>
    <path fill="#494949" d="M100-194c63 0 86 42 84 106H49c0 40 14 67 53 68 26 1 43-12 49-29l28 8c-11 28-37 45-77 45C44 4 14-33 15-96c1-61 26-98 85-98zm52 81c6-60-76-77-97-28-3 7-6 17-6 28h103" id="aG"/>
    <path fill="#494949" d="M24 0v-261h32V0H24" id="aH"/>
    <path fill="#494949" d="M100-194c62-1 85 37 85 99 1 63-27 99-86 99S16-35 15-95c0-66 28-99 85-99zM99-20c44 1 53-31 53-75 0-43-8-75-51-75s-53 32-53 75 10 74 51 75" id="aI"/>
    <path fill="#494949" d="M117-194c89-4 53 116 60 194h-32v-121c0-31-8-49-39-48C34-167 62-67 57 0H25l-1-190h30c1 10-1 24 2 32 11-22 29-35 61-36" id="aJ"/>
    <path fill="#494949" d="M177-190C167-65 218 103 67 71c-23-6-38-20-44-43l32-5c15 47 100 32 89-28v-30C133-14 115 1 83 1 29 1 15-40 15-95c0-56 16-97 71-98 29-1 48 16 59 35 1-10 0-23 2-32h30zM94-22c36 0 50-32 50-73 0-42-14-75-50-75-39 0-46 34-46 75s6 73 46 73" id="aK"/>
    <g id="K">
        <use transform="matrix(0.05,0,0,0.05,0,0)" xlink:href="#aF"/>
        <use transform="matrix(0.05,0,0,0.05,10,0)" xlink:href="#aG"/>
        <use transform="matrix(0.05,0,0,0.05,20,0)" xlink:href="#aH"/>
        <use transform="matrix(0.05,0,0,0.05,23.95,0)" xlink:href="#aI"/>
        <use transform="matrix(0.05,0,0,0.05,33.95,0)" xlink:href="#aJ"/>
        <use transform="matrix(0.05,0,0,0.05,43.95,0)" xlink:href="#aK"/>
        <use transform="matrix(0.05,0,0,0.05,53.95,0)" xlink:href="#aE"/>
    </g>
    <path fill="#494949" d="M59-47c-2 24 18 29 38 22v24C64 9 27 4 27-40v-127H5v-23h24l9-43h21v43h35v23H59v120" id="aL"/>
    <g id="L">
        <use transform="matrix(0.05,0,0,0.05,0,0)" xlink:href="#aL"/>
        <use transform="matrix(0.05,0,0,0.05,5,0)" xlink:href="#aI"/>
    </g>
    <path fill="#494949" d="M24-231v-30h32v30H24zM24 0v-190h32V0H24" id="aM"/>
    <g id="M">
        <use transform="matrix(0.05,0,0,0.05,0,0)" xlink:href="#aM"/>
        <use transform="matrix(0.05,0,0,0.05,3.95,0)" xlink:href="#aE"/>
    </g>
    <path fill="#494949" d="M96-169c-40 0-48 33-48 73s9 75 48 75c24 0 41-14 43-38l32 2c-6 37-31 61-74 61-59 0-76-41-82-99-10-93 101-131 147-64 4 7 5 14 7 22l-32 3c-4-21-16-35-41-35" id="aN"/>
    <g id="N">
        <use transform="matrix(0.05,0,0,0.05,0,0)" xlink:href="#aN"/>
        <use transform="matrix(0.05,0,0,0.05,9,0)" xlink:href="#aI"/>
        <use transform="matrix(0.05,0,0,0.05,19,0)" xlink:href="#aJ"/>
        <use transform="matrix(0.05,0,0,0.05,29,0)" xlink:href="#aL"/>
        <use transform="matrix(0.05,0,0,0.05,34,0)" xlink:href="#aD"/>
        <use transform="matrix(0.05,0,0,0.05,44,0)" xlink:href="#aN"/>
        <use transform="matrix(0.05,0,0,0.05,53,0)" xlink:href="#aL"/>
    </g>
    <path fill="#494949" d="M101-234c-31-9-42 10-38 44h38v23H63V0H32v-167H5v-23h27c-7-52 17-82 69-68v24" id="aO"/>
    <g id="O">
        <use transform="matrix(0.05,0,0,0.05,0,0)" xlink:href="#aI"/>
        <use transform="matrix(0.05,0,0,0.05,10,0)" xlink:href="#aO"/>
    </g>
    <path fill="#494949" d="M143 0L79-87 56-68V0H24v-261h32v163l83-92h37l-77 82L181 0h-38" id="aP"/>
    <g id="P">
        <use transform="matrix(0.05,0,0,0.05,0,0)" xlink:href="#aF"/>
        <use transform="matrix(0.05,0,0,0.05,10,0)" xlink:href="#aH"/>
        <use transform="matrix(0.05,0,0,0.05,13.949999999999998,0)" xlink:href="#aI"/>
        <use transform="matrix(0.05,0,0,0.05,23.95,0)" xlink:href="#aN"/>
        <use transform="matrix(0.05,0,0,0.05,32.95,0)" xlink:href="#aP"/>
        <use transform="matrix(0.05,0,0,0.05,41.95,0)" xlink:href="#aE"/>
    </g>
    <path fill="#494949" d="M108 0H70L1-190h34L89-25l56-165h34" id="aQ"/>
    <g id="Q">
        <use transform="matrix(0.05,0,0,0.05,0,0)" xlink:href="#aQ"/>
        <use transform="matrix(0.05,0,0,0.05,9,0)" xlink:href="#aI"/>
        <use transform="matrix(0.05,0,0,0.05,19,0)" xlink:href="#aL"/>
        <use transform="matrix(0.05,0,0,0.05,24,0)" xlink:href="#aG"/>
        <use transform="matrix(0.05,0,0,0.05,34,0)" xlink:href="#aE"/>
    </g>
    <path fill="#494949" d="M114-163C36-179 61-72 57 0H25l-1-190h30c1 12-1 29 2 39 6-27 23-49 58-41v29" id="aR"/>
    <g id="R">
        <use transform="matrix(0.05,0,0,0.05,0,0)" xlink:href="#aO"/>
        <use transform="matrix(0.05,0,0,0.05,5,0)" xlink:href="#aI"/>
        <use transform="matrix(0.05,0,0,0.05,15,0)" xlink:href="#aR"/>
    </g>
    <path fill="#494949" d="M85-194c31 0 48 13 60 33l-1-100h32l1 261h-30c-2-10 0-23-3-31C134-8 116 4 85 4 32 4 16-35 15-94c0-66 23-100 70-100zm9 24c-40 0-46 34-46 75 0 40 6 74 45 74 42 0 51-32 51-76 0-42-9-74-50-73" id="aS"/>
    <g id="S">
        <use transform="matrix(0.05,0,0,0.05,0,0)" xlink:href="#aN"/>
        <use transform="matrix(0.05,0,0,0.05,9,0)" xlink:href="#aR"/>
        <use transform="matrix(0.05,0,0,0.05,14.949999999999998,0)" xlink:href="#aG"/>
        <use transform="matrix(0.05,0,0,0.05,24.95,0)" xlink:href="#aD"/>
        <use transform="matrix(0.05,0,0,0.05,34.95,0)" xlink:href="#aL"/>
        <use transform="matrix(0.05,0,0,0.05,39.95,0)" xlink:href="#aG"/>
        <use transform="matrix(0.05,0,0,0.05,49.95,0)" xlink:href="#aS"/>
    </g>
    <path d="M30 0v-248h33v221h125V0H30" id="aT"/>
    <g id="T">
        <use transform="matrix(0.05,0,0,0.05,0,0)" xlink:href="#aT"/>
        <use transform="matrix(0.05,0,0,0.05,10,0)" xlink:href="#am"/>
        <use transform="matrix(0.05,0,0,0.05,20,0)" xlink:href="#al"/>
        <use transform="matrix(0.05,0,0,0.05,29,0)" xlink:href="#am"/>
        <use transform="matrix(0.05,0,0,0.05,39,0)" xlink:href="#an"/>
        <use transform="matrix(0.05,0,0,0.05,44.95,0)" xlink:href="#ak"/>
        <use transform="matrix(0.05,0,0,0.05,48.900000000000006,0)" xlink:href="#ad"/>
        <use transform="matrix(0.05,0,0,0.05,57.900000000000006,0)" xlink:href="#av"/>
        <use transform="matrix(0.05,0,0,0.05,67.9,0)" xlink:href="#ah"/>
        <use transform="matrix(0.05,0,0,0.05,72.9,0)" xlink:href="#af"/>
        <use transform="matrix(0.05,0,0,0.05,82.9,0)" xlink:href="#ag"/>
        <use transform="matrix(0.05,0,0,0.05,92.9,0)" xlink:href="#aq"/>
    </g>
    <path d="M140-251c81 0 123 46 123 126C263-46 219 4 140 4 59 4 17-45 17-125s42-126 123-126zm0 227c63 0 89-41 89-101s-29-99-89-99c-61 0-89 39-89 99S79-25 140-24" id="aU"/>
    <g id="U">
        <use transform="matrix(0.05,0,0,0.05,0,0)" xlink:href="#aU"/>
        <use transform="matrix(0.05,0,0,0.05,14,0)" xlink:href="#aw"/>
        <use transform="matrix(0.05,0,0,0.05,24,0)" xlink:href="#am"/>
        <use transform="matrix(0.05,0,0,0.05,34,0)" xlink:href="#ag"/>
    </g>
    <g id="V">
        <use transform="matrix(0.05,0,0,0.05,0,0)" xlink:href="#ag"/>
        <use transform="matrix(0.05,0,0,0.05,10,0)" xlink:href="#ac"/>
        <use transform="matrix(0.05,0,0,0.05,20,0)" xlink:href="#ad"/>
        <use transform="matrix(0.05,0,0,0.05,29,0)" xlink:href="#av"/>
    </g>
    <path d="M232-93c-1 65-40 97-104 97C67 4 28-28 28-90v-158h33c8 89-33 224 67 224 102 0 64-133 71-224h33v155" id="aV"/>
    <g id="W">
        <use transform="matrix(0.05,0,0,0.05,0,0)" xlink:href="#aV"/>
        <use transform="matrix(0.05,0,0,0.05,12.950000000000001,0)" xlink:href="#ag"/>
        <use transform="matrix(0.05,0,0,0.05,22.950000000000003,0)" xlink:href="#ah"/>
        <use transform="matrix(0.05,0,0,0.05,27.950000000000003,0)" xlink:href="#am"/>
        <use transform="matrix(0.05,0,0,0.05,37.95,0)" xlink:href="#ag"/>
    </g>
    <g id="X">
        <use transform="matrix(0.05,0,0,0.05,0,0)" xlink:href="#au"/>
        <use transform="matrix(0.05,0,0,0.05,10,0)" xlink:href="#ac"/>
        <use transform="matrix(0.05,0,0,0.05,20,0)" xlink:href="#ag"/>
        <use transform="matrix(0.05,0,0,0.05,30,0)" xlink:href="#ag"/>
    </g>
    <path d="M143 0L79-87 56-68V0H24v-261h32v163l83-92h37l-77 82L181 0h-38" id="aW"/>
    <g id="Y">
        <use transform="matrix(0.05,0,0,0.05,0,0)" xlink:href="#aT"/>
        <use transform="matrix(0.05,0,0,0.05,10,0)" xlink:href="#ak"/>
        <use transform="matrix(0.05,0,0,0.05,13.949999999999998,0)" xlink:href="#ag"/>
        <use transform="matrix(0.05,0,0,0.05,23.95,0)" xlink:href="#aW"/>
        <use transform="matrix(0.05,0,0,0.05,32.95,0)" xlink:href="#al"/>
    </g>
    <path d="M233-177c-1 41-23 64-60 70L243 0h-38l-65-103H63V0H30v-248c88 3 205-21 203 71zM63-129c60-2 137 13 137-47 0-61-80-42-137-45v92" id="aX"/>
    <g id="Z">
        <use transform="matrix(0.05,0,0,0.05,0,0)" xlink:href="#aX"/>
        <use transform="matrix(0.05,0,0,0.05,12.950000000000001,0)" xlink:href="#am"/>
        <use transform="matrix(0.05,0,0,0.05,22.950000000000003,0)" xlink:href="#ad"/>
        <use transform="matrix(0.05,0,0,0.05,31.950000000000003,0)" xlink:href="#av"/>
        <use transform="matrix(0.05,0,0,0.05,41.95,0)" xlink:href="#ah"/>
        <use transform="matrix(0.05,0,0,0.05,46.95,0)" xlink:href="#al"/>
    </g>
    <path fill="#494949" d="M115-194c55 1 70 41 70 98S169 2 115 4C84 4 66-9 55-30l1 105H24l-1-265h31l2 30c10-21 28-34 59-34zm-8 174c40 0 45-34 45-75s-6-73-45-74c-42 0-51 32-51 76 0 43 10 73 51 73" id="aY"/>
    <g id="aa">
        <use transform="matrix(0.05,0,0,0.05,0,0)" xlink:href="#aY"/>
        <use transform="matrix(0.05,0,0,0.05,10,0)" xlink:href="#aD"/>
        <use transform="matrix(0.05,0,0,0.05,20,0)" xlink:href="#aR"/>
        <use transform="matrix(0.05,0,0,0.05,25.950000000000003,0)" xlink:href="#aL"/>
        <use transform="matrix(0.05,0,0,0.05,30.950000000000003,0)" xlink:href="#aM"/>
        <use transform="matrix(0.05,0,0,0.05,34.9,0)" xlink:href="#aN"/>
        <use transform="matrix(0.05,0,0,0.05,43.9,0)" xlink:href="#aM"/>
        <use transform="matrix(0.05,0,0,0.05,47.85,0)" xlink:href="#aY"/>
        <use transform="matrix(0.05,0,0,0.05,57.85,0)" xlink:href="#aD"/>
        <use transform="matrix(0.05,0,0,0.05,67.85,0)" xlink:href="#aL"/>
        <use transform="matrix(0.05,0,0,0.05,72.85,0)" xlink:href="#aG"/>
        <use transform="matrix(0.05,0,0,0.05,82.85,0)" xlink:href="#aE"/>
    </g>
    <g id="ab">
        <use transform="matrix(0.05,0,0,0.05,0,0)" xlink:href="#aM"/>
        <use transform="matrix(0.05,0,0,0.05,3.95,0)" xlink:href="#aJ"/>
    </g>
    </defs>
</g>
</svg>
