<?xml version="1.0"?>
<svg xmlns:lucid="lucid" xmlns:dc="http://purl.org/dc/elements/1.1/" xmlns:cc="http://creativecommons.org/ns#" xmlns:rdf="http://www.w3.org/1999/02/22-rdf-syntax-ns#" xmlns:svg="http://www.w3.org/2000/svg" xmlns="http://www.w3.org/2000/svg" xmlns:xlink="http://www.w3.org/1999/xlink" xmlns:sodipodi="http://sodipodi.sourceforge.net/DTD/sodipodi-0.dtd" xmlns:inkscape="http://www.inkscape.org/namespaces/inkscape" width="1602" height="1182" version="1.1" id="svg1407" sodipodi:docname="erd-complete.svg" inkscape:version="0.92.2 5c3e80d, 2017-08-06">
<metadata id="metadata1413">
    <rdf:RDF>
    <cc:Work rdf:about="">
        <dc:format>image/svg+xml</dc:format>
        <dc:type rdf:resource="http://purl.org/dc/dcmitype/StillImage"/>
        <dc:title/>
    </cc:Work>
    </rdf:RDF>
</metadata>
<defs id="defs1411"/>
<sodipodi:namedview pagecolor="#ffffff" bordercolor="#666666" borderopacity="1" objecttolerance="10" gridtolerance="10" guidetolerance="10" inkscape:pageopacity="0" inkscape:pageshadow="2" inkscape:window-width="640" inkscape:window-height="480" id="namedview1409" showgrid="false" fit-margin-top="0" fit-margin-left="0" fit-margin-right="0" fit-margin-bottom="0" inkscape:zoom="0.17352941" inkscape:cx="801" inkscape:cy="581" inkscape:window-x="0" inkscape:window-y="27" inkscape:window-maximized="0" inkscape:current-layer="svg1407"/>
<g lucid:page-tab-id="0_0" id="g1405" transform="translate(-79,-79)">
    <path d="m 1220,80 h 300 v 296 h -300 z" id="path2" inkscape:connector-curvature="0" style="fill:#ffffff"/>
    <path d="m 1220,80 h 300 v 40 h -300 z" id="path4" inkscape:connector-curvature="0" style="fill:#cccccc"/>
    <path d="m 1220,80 h 300 v 296 h -300 z m 0,40 h 300 m -150,0 v 256" id="path6" inkscape:connector-curvature="0" style="fill:none;stroke:#000000;stroke-width:2"/>
    <use xlink:href="#a" transform="translate(1338.5,103.6)" id="use8" x="0" y="0" width="100%" height="100%"/>
    <use xlink:href="#b" transform="translate(1287.025,139.6)" id="use10" x="0" y="0" width="100%" height="100%"/>
    <use xlink:href="#c" transform="translate(1435.525,139.6)" id="use12" x="0" y="0" width="100%" height="100%"/>
    <use xlink:href="#d" transform="translate(1255.05,171.6)" id="use14" x="0" y="0" width="100%" height="100%"/>
    <use xlink:href="#e" transform="translate(1421.55,171.6)" id="use16" x="0" y="0" width="100%" height="100%"/>
    <use xlink:href="#f" transform="translate(1273.575,203.6)" id="use18" x="0" y="0" width="100%" height="100%"/>
    <use xlink:href="#e" transform="translate(1421.55,203.6)" id="use20" x="0" y="0" width="100%" height="100%"/>
    <use xlink:href="#g" transform="translate(1242.575,235.6)" id="use22" x="0" y="0" width="100%" height="100%"/>
    <use xlink:href="#e" transform="translate(1421.55,235.6)" id="use24" x="0" y="0" width="100%" height="100%"/>
    <use xlink:href="#h" transform="translate(1237.05,267.6)" id="use26" x="0" y="0" width="100%" height="100%"/>
    <use xlink:href="#e" transform="translate(1421.55,267.6)" id="use28" x="0" y="0" width="100%" height="100%"/>
    <use xlink:href="#i" transform="translate(1283.025,299.6)" id="use30" x="0" y="0" width="100%" height="100%"/>
    <use xlink:href="#j" transform="translate(1418.025,299.6)" id="use32" x="0" y="0" width="100%" height="100%"/>
    <use xlink:href="#k" transform="translate(1285.525,331.6)" id="use34" x="0" y="0" width="100%" height="100%"/>
    <use xlink:href="#j" transform="translate(1418.025,331.6)" id="use36" x="0" y="0" width="100%" height="100%"/>
    <use xlink:href="#l" transform="translate(1238.1,363.6)" id="use38" x="0" y="0" width="100%" height="100%"/>
    <use xlink:href="#m" transform="translate(1425.4,363.6)" id="use40" x="0" y="0" width="100%" height="100%"/>
    <path d="M 240,540 H 540 V 644 H 240 Z" id="path42" inkscape:connector-curvature="0" style="fill:#ffffff"/>
    <path d="m 240,540 h 300 v 40 H 240 Z" id="path44" inkscape:connector-curvature="0" style="fill:#cccccc"/>
    <path d="M 240,540 H 540 V 644 H 240 Z m 0,40 h 300 m -150,0 v 64" id="path46" inkscape:connector-curvature="0" style="fill:none;stroke:#000000;stroke-width:2"/>
    <use xlink:href="#n" transform="translate(367.025,563.6)" id="use48" x="0" y="0" width="100%" height="100%"/>
    <use xlink:href="#b" transform="translate(307.025,599.6)" id="use50" x="0" y="0" width="100%" height="100%"/>
    <use xlink:href="#c" transform="translate(455.525,599.6)" id="use52" x="0" y="0" width="100%" height="100%"/>
    <use xlink:href="#o" transform="translate(292.525,631.6)" id="use54" x="0" y="0" width="100%" height="100%"/>
    <use xlink:href="#e" transform="translate(441.55,631.6)" id="use56" x="0" y="0" width="100%" height="100%"/>
    <path d="m 240,1020 h 300 v 232 H 240 Z" id="path58" inkscape:connector-curvature="0" style="fill:#ffffff"/>
    <path d="m 240,1020 h 300 v 40 H 240 Z" id="path60" inkscape:connector-curvature="0" style="fill:#cccccc"/>
    <path d="m 240,1020 h 300 v 232 H 240 Z m 0,40 h 300 m -150,0 v 192" id="path62" inkscape:connector-curvature="0" style="fill:none;stroke:#000000;stroke-width:2"/>
    <use xlink:href="#p" transform="translate(368,1043.6)" id="use64" x="0" y="0" width="100%" height="100%"/>
    <use xlink:href="#b" transform="translate(307.025,1079.6)" id="use66" x="0" y="0" width="100%" height="100%"/>
    <use xlink:href="#c" transform="translate(455.525,1079.6)" id="use68" x="0" y="0" width="100%" height="100%"/>
    <use xlink:href="#q" transform="translate(301.05,1111.6)" id="use70" x="0" y="0" width="100%" height="100%"/>
    <use xlink:href="#e" transform="translate(441.55,1111.6)" id="use72" x="0" y="0" width="100%" height="100%"/>
    <use xlink:href="#r" transform="translate(280.575,1143.6)" id="use74" x="0" y="0" width="100%" height="100%"/>
    <use xlink:href="#s" transform="translate(445.4,1143.6)" id="use76" x="0" y="0" width="100%" height="100%"/>
    <use xlink:href="#t" transform="translate(283.05,1175.6)" id="use78" x="0" y="0" width="100%" height="100%"/>
    <use xlink:href="#u" transform="translate(445.525,1175.6)" id="use80" x="0" y="0" width="100%" height="100%"/>
    <use xlink:href="#i" transform="translate(303.025,1207.6)" id="use82" x="0" y="0" width="100%" height="100%"/>
    <use xlink:href="#j" transform="translate(438.025,1207.6)" id="use84" x="0" y="0" width="100%" height="100%"/>
    <use xlink:href="#k" transform="translate(305.525,1239.6)" id="use86" x="0" y="0" width="100%" height="100%"/>
    <use xlink:href="#j" transform="translate(438.025,1239.6)" id="use88" x="0" y="0" width="100%" height="100%"/>
    <path d="m 760,540 h 300 V 676 H 760 Z" id="path90" inkscape:connector-curvature="0" style="fill:#ffffff"/>
    <path d="m 760,540 h 300 v 40 H 760 Z" id="path92" inkscape:connector-curvature="0" style="fill:#cccccc"/>
    <path d="m 760,540 h 300 V 676 H 760 Z m 0,40 h 300 m -150,0 v 96" id="path94" inkscape:connector-curvature="0" style="fill:none;stroke:#000000;stroke-width:2"/>
    <use xlink:href="#v" transform="translate(896.05,563.6)" id="use96" x="0" y="0" width="100%" height="100%"/>
    <use xlink:href="#b" transform="translate(827.025,599.6)" id="use98" x="0" y="0" width="100%" height="100%"/>
    <use xlink:href="#c" transform="translate(975.525,599.6)" id="use100" x="0" y="0" width="100%" height="100%"/>
    <use xlink:href="#w" transform="translate(801.025,631.6)" id="use102" x="0" y="0" width="100%" height="100%"/>
    <use xlink:href="#e" transform="translate(961.55,631.6)" id="use104" x="0" y="0" width="100%" height="100%"/>
    <use xlink:href="#x" transform="translate(790.1,663.6)" id="use106" x="0" y="0" width="100%" height="100%"/>
    <use xlink:href="#y" transform="translate(953.025,663.6)" id="use108" x="0" y="0" width="100%" height="100%"/>
    <path d="m 760,800 h 300 v 200 H 760 Z" id="path110" inkscape:connector-curvature="0" style="fill:#ffffff"/>
    <path d="m 760,800 h 300 v 40 H 760 Z" id="path112" inkscape:connector-curvature="0" style="fill:#cccccc"/>
    <path d="m 760,800 h 300 v 200 H 760 Z m 0,40 h 300 m -150,0 v 160" id="path114" inkscape:connector-curvature="0" style="fill:none;stroke:#000000;stroke-width:2"/>
    <use xlink:href="#z" transform="translate(871.575,823.6)" id="use116" x="0" y="0" width="100%" height="100%"/>
    <use xlink:href="#b" transform="translate(827.025,859.6)" id="use118" x="0" y="0" width="100%" height="100%"/>
    <use xlink:href="#c" transform="translate(975.525,859.6)" id="use120" x="0" y="0" width="100%" height="100%"/>
    <use xlink:href="#r" transform="translate(800.575,891.6)" id="use122" x="0" y="0" width="100%" height="100%"/>
    <use xlink:href="#s" transform="translate(965.4,891.6)" id="use124" x="0" y="0" width="100%" height="100%"/>
    <use xlink:href="#t" transform="translate(803.05,923.6)" id="use126" x="0" y="0" width="100%" height="100%"/>
    <use xlink:href="#s" transform="translate(965.4,923.6)" id="use128" x="0" y="0" width="100%" height="100%"/>
    <use xlink:href="#i" transform="translate(823.025,955.6)" id="use130" x="0" y="0" width="100%" height="100%"/>
    <use xlink:href="#j" transform="translate(958.025,955.6)" id="use132" x="0" y="0" width="100%" height="100%"/>
    <use xlink:href="#k" transform="translate(825.525,987.6)" id="use134" x="0" y="0" width="100%" height="100%"/>
    <use xlink:href="#j" transform="translate(958.025,987.6)" id="use136" x="0" y="0" width="100%" height="100%"/>
    <path d="M 80,80 H 700.7 V 376 H 80 Z" id="path138" inkscape:connector-curvature="0" style="fill:#ffffff"/>
    <path d="m 80,80 h 620.7 v 40 H 80 Z" id="path140" inkscape:connector-curvature="0" style="fill:#cccccc"/>
    <path d="M 80,80 H 700.7 V 376 H 80 Z m 0,40 h 620.7 m -310.35,0 v 256" id="path142" inkscape:connector-curvature="0" style="fill:none;stroke:#000000;stroke-width:2"/>
    <use xlink:href="#A" transform="translate(318.125,103.6)" id="use144" x="0" y="0" width="100%" height="100%"/>
    <use xlink:href="#b" transform="translate(227.525,139.6)" id="use146" x="0" y="0" width="100%" height="100%"/>
    <use xlink:href="#c" transform="translate(536.37887,139.6)" id="use148" x="0" y="0" width="100%" height="100%"/>
    <use xlink:href="#B" transform="translate(102.15,171.6)" id="use150" x="0" y="0" width="100%" height="100%"/>
    <use xlink:href="#y" transform="translate(513.87887,171.6)" id="use152" x="0" y="0" width="100%" height="100%"/>
    <use xlink:href="#C" transform="translate(112.2,203.6)" id="use154" x="0" y="0" width="100%" height="100%"/>
    <use xlink:href="#D" transform="translate(513.87887,203.6)" id="use156" x="0" y="0" width="100%" height="100%"/>
    <use xlink:href="#E" transform="translate(104.7,235.6)" id="use158" x="0" y="0" width="100%" height="100%"/>
    <use xlink:href="#D" transform="translate(513.87887,235.6)" id="use160" x="0" y="0" width="100%" height="100%"/>
    <use xlink:href="#F" transform="translate(135.125,267.6)" id="use162" x="0" y="0" width="100%" height="100%"/>
    <use xlink:href="#D" transform="translate(513.87887,267.6)" id="use164" x="0" y="0" width="100%" height="100%"/>
    <use xlink:href="#G" transform="translate(126.125,299.6)" id="use166" x="0" y="0" width="100%" height="100%"/>
    <use xlink:href="#D" transform="translate(513.87887,299.6)" id="use168" x="0" y="0" width="100%" height="100%"/>
    <use xlink:href="#H" transform="translate(143.175,331.6)" id="use170" x="0" y="0" width="100%" height="100%"/>
    <use xlink:href="#D" transform="translate(513.87887,331.6)" id="use172" x="0" y="0" width="100%" height="100%"/>
    <use xlink:href="#I" transform="translate(134.175,363.6)" id="use174" x="0" y="0" width="100%" height="100%"/>
    <use xlink:href="#D" transform="translate(513.87887,363.6)" id="use176" x="0" y="0" width="100%" height="100%"/>
    <path d="m 911,799 h -2 v -50.2 h 2 z m 0,-71.8 h -2 V 677 h 2 z" id="path178" inkscape:connector-curvature="0"/>
    <path id="path180" d="" inkscape:connector-curvature="0" style="fill:#ffffff"/>
    <path d="m 920,688 h -20 v -2 h 20 z" id="path182" inkscape:connector-curvature="0"/>
    <path id="path184" d="" inkscape:connector-curvature="0" style="fill:#ffffff"/>
    <path d="m 920,698 h -20 v -2 h 20 z m 0.9,100.1 -1.8,0.9 -9.1,-18.2 -9.1,18.2 -1.8,-0.9 10.9,-21.78 z" id="path186" inkscape:connector-curvature="0"/>
    <path id="path188" d="" inkscape:connector-curvature="0" style="fill:#ffffff"/>
    <path d="m 920,779.55 h -20 v -2 h 20 z" id="path190" inkscape:connector-curvature="0"/>
    <use xlink:href="#J" transform="translate(895.505,741.6)" id="use192" x="0" y="0" width="100%" height="100%"/>
    <path d="m 624,560.8 h -83 v -2 h 83 z m 135,0 H 653 v -2 h 106 z" id="path194" inkscape:connector-curvature="0"/>
    <path id="path196" d="" inkscape:connector-curvature="0" style="fill:#ffffff"/>
    <path d="m 552,569.8 h -2 v -20 h 2 z" id="path198" inkscape:connector-curvature="0"/>
    <path id="path200" d="" inkscape:connector-curvature="0" style="fill:#ffffff"/>
    <path d="m 562,569.8 h -2 v -20 h 2 z m 197,-19.12 -18.2,9.1 18.2,9.1 -0.9,1.8 -21.78,-10.9 21.8,-10.9 z" id="path202" inkscape:connector-curvature="0"/>
    <path d="m 731.7,550.3 2.76,1.42 2.16,2.16 1.42,2.75 0.5,3.16 -0.5,3.15 -1.42,2.74 -2.16,2.16 -2.75,1.42 -3.15,0.5 -3.16,-0.5 -2.75,-1.42 -2.17,-2.17 -1.42,-2.75 -0.5,-3.16 0.5,-3.17 1.42,-2.75 2.17,-2.16 2.74,-1.42 3.15,-0.5 z" id="path204" inkscape:connector-curvature="0" style="fill:#ffffff"/>
    <path d="m 732.03,549.33 3.03,1.57 2.38,2.38 1.56,3.03 0.54,3.33 -1,0.16 1,0.15 -0.54,3.3 -1.56,3.04 -2.38,2.37 -3.03,1.57 -3.48,0.56 -3.48,-0.56 -3.02,-1.57 -2.38,-2.38 -1.57,-3.04 -0.56,-3.47 0.56,-3.5 1.57,-3.02 2.38,-2.38 3.02,-1.57 3.48,-0.56 z m -6.32,1.93 -2.46,1.27 -1.94,1.95 -1.28,2.46 -0.45,2.85 0.45,2.83 1.28,2.47 1.94,1.94 2.47,1.28 2.85,0.45 2.85,-0.45 2.46,-1.28 1.95,-1.94 1.28,-2.47 0.46,-2.84 -0.46,-2.86 -1.27,-2.46 -1.94,-1.95 -2.46,-1.27 -2.85,-0.46 z" id="path206" inkscape:connector-curvature="0"/>
    <use xlink:href="#J" transform="translate(624.0038,563.38667)" id="use208" x="0" y="0" width="100%" height="100%"/>
    <path d="m 391,1019 h -2 V 842.8 h 2 z m 0,-197.8 h -2 V 645 h 2 z" id="path210" inkscape:connector-curvature="0"/>
    <path id="path212" d="" inkscape:connector-curvature="0" style="fill:#ffffff"/>
    <path d="m 400,656 h -20 v -2 h 20 z" id="path214" inkscape:connector-curvature="0"/>
    <path id="path216" d="" inkscape:connector-curvature="0" style="fill:#ffffff"/>
    <path d="m 400,666 h -20 v -2 h 20 z m 0.9,352.1 -1.8,0.9 -9.1,-18.2 -9.1,18.2 -1.8,-0.9 10.9,-21.78 z" id="path218" inkscape:connector-curvature="0"/>
    <use xlink:href="#J" transform="translate(375.505,835.6)" id="use220" x="0" y="0" width="100%" height="100%"/>
    <path d="m 391,539 h -2 v -70.2 h 2 z m 0.35,-91.8 h -2 V 377 h 2 z" id="path222" inkscape:connector-curvature="0"/>
    <path d="m 401.25,377.9 -10.9,21.78 -10.9,-21.8 1.8,-0.88 9.1,18.2 9.1,-18.2 z" id="path224" inkscape:connector-curvature="0"/>
    <path id="path226" d="" inkscape:connector-curvature="0" style="fill:#ffffff"/>
    <path d="m 400.35,398.45 h -20 v -2 h 20 z" id="path228" inkscape:connector-curvature="0"/>
    <path id="path230" d="" inkscape:connector-curvature="0" style="fill:#ffffff"/>
    <path d="m 400,530 h -20 v -2 h 20 z" id="path232" inkscape:connector-curvature="0"/>
    <path id="path234" d="" inkscape:connector-curvature="0" style="fill:#ffffff"/>
    <path d="m 400,520 h -20 v -2 h 20 z" id="path236" inkscape:connector-curvature="0"/>
    <use xlink:href="#K" transform="translate(348.70693,461.6)" id="use238" x="0" y="0" width="100%" height="100%"/>
    <use xlink:href="#L" transform="translate(416.65693,461.6)" id="use240" x="0" y="0" width="100%" height="100%"/>
    <path d="M 918.88,101 H 701.7 V 99 H 918.9 Z M 1219,101 H 1001.83 V 99 H 1219 Z" id="path242" inkscape:connector-curvature="0"/>
    <path id="path244" d="" inkscape:connector-curvature="0" style="fill:#ffffff"/>
    <path d="m 1210,110 h -2 V 90 h 2 z" id="path246" inkscape:connector-curvature="0"/>
    <path id="path248" d="" inkscape:connector-curvature="0" style="fill:#ffffff"/>
    <path d="m 1200,110 h -2 V 90 h 2 z m -475.6,-10 -21.8,10.9 -0.9,-1.8 18.22,-9.1 -18.2,-9.1 0.88,-1.8 z" id="path250" inkscape:connector-curvature="0"/>
    <use xlink:href="#K" transform="translate(918.88387,103.6)" id="use252" x="0" y="0" width="100%" height="100%"/>
    <use xlink:href="#L" transform="translate(986.83387,103.6)" id="use254" x="0" y="0" width="100%" height="100%"/>
    <path d="m 1631,200.33 h -110 v -2 h 108 v -38.86 h 2 z m 0,-62.46 h -2 V 99 h -108 v -2 h 110 z" id="path256" inkscape:connector-curvature="0"/>
    <path d="m 1543.68,98 -21.8,10.9 -0.88,-1.8 18.2,-9.1 -18.2,-9.1 0.9,-1.8 z" id="path258" inkscape:connector-curvature="0"/>
    <path d="m 1554.6,88.5 2.75,1.43 2.17,2.16 1.42,2.74 0.5,3.16 -0.5,3.16 -1.42,2.75 -2.17,2.17 -2.74,1.42 -3.15,0.5 -3.16,-0.5 -2.76,-1.43 -2.16,-2.16 -1.42,-2.74 -0.5,-3.16 0.5,-3.16 1.42,-2.75 2.16,-2.17 2.75,-1.42 3.15,-0.5 z" id="path260" inkscape:connector-curvature="0" style="fill:#ffffff"/>
    <path d="m 1554.93,87.55 3.02,1.56 2.38,2.4 1.57,3.02 0.53,3.32 -0.98,0.16 0.98,0.16 -0.53,3.32 -1.57,3.02 -2.38,2.4 -3.02,1.55 -3.48,0.56 -3.48,-0.55 -3.03,-1.56 -2.38,-2.4 -1.56,-3.02 -0.57,-3.48 0.57,-3.48 1.56,-3.02 2.38,-2.4 3.03,-1.55 3.48,-0.56 z m -6.33,1.92 -2.46,1.28 -1.95,1.94 -1.28,2.46 -0.46,2.84 0.46,2.84 1.27,2.47 1.94,1.95 2.46,1.28 2.85,0.46 2.84,-0.47 2.46,-1.28 1.94,-1.94 1.28,-2.46 0.45,-2.84 -0.45,-2.84 -1.28,-2.47 -1.94,-1.95 -2.47,-1.28 -2.85,-0.46 z m -4.92,109.86 -21.8,10.9 -0.88,-1.8 18.2,-9.1 -18.2,-9.1 0.9,-1.8 z" id="path262" inkscape:connector-curvature="0"/>
    <path d="m 1554.6,189.84 2.75,1.42 2.17,2.17 1.42,2.74 0.5,3.16 -0.5,3.16 -1.42,2.74 -2.17,2.16 -2.74,1.42 -3.15,0.5 -3.16,-0.5 -2.76,-1.42 -2.16,-2.16 -1.42,-2.75 -0.5,-3.17 0.5,-3.16 1.42,-2.74 2.16,-2.17 2.75,-1.42 3.15,-0.5 z" id="path264" inkscape:connector-curvature="0" style="fill:#ffffff"/>
    <path d="m 1554.93,188.88 3.02,1.57 2.38,2.38 1.57,3.03 0.53,3.3 -0.98,0.17 0.98,0.16 -0.53,3.3 -1.57,3.04 -2.38,2.38 -3.02,1.57 -3.48,0.55 -3.48,-0.56 -3.03,-1.58 -2.38,-2.38 -1.56,-3.03 -0.57,-3.47 0.57,-3.47 1.56,-3.03 2.38,-2.38 3.03,-1.57 3.48,-0.56 z m -6.33,1.92 -2.46,1.28 -1.95,1.94 -1.28,2.47 -0.46,2.83 0.46,2.85 1.27,2.46 1.94,1.95 2.46,1.26 2.85,0.46 2.84,-0.46 2.46,-1.27 1.94,-1.96 1.28,-2.46 0.45,-2.85 -0.45,-2.84 -1.28,-2.48 -1.94,-1.94 -2.47,-1.28 -2.85,-0.45 z" id="path266" inkscape:connector-curvature="0"/>
    <use xlink:href="#M" transform="translate(1582.03,152.26667)" id="use268" x="0" y="0" width="100%" height="100%"/>
    <use xlink:href="#N" transform="translate(1599.98,152.26667)" id="use270" x="0" y="0" width="100%" height="100%"/>
    <use xlink:href="#O" transform="translate(1662.98,152.26667)" id="use272" x="0" y="0" width="100%" height="100%"/>
    <path d="m 1631,361 h -110 v -2 h 108 v -36.2 h 2 z m 0,-59.8 h -2 V 265 h -108 v -2 h 110 z" id="path274" inkscape:connector-curvature="0"/>
    <path d="m 1543.68,264 -21.8,10.9 -0.88,-1.8 18.2,-9.1 -18.2,-9.1 0.9,-1.8 z" id="path276" inkscape:connector-curvature="0"/>
    <path d="m 1554.6,254.5 2.75,1.43 2.17,2.16 1.42,2.74 0.5,3.16 -0.5,3.16 -1.42,2.75 -2.17,2.17 -2.74,1.42 -3.15,0.5 -3.16,-0.5 -2.76,-1.43 -2.16,-2.16 -1.42,-2.74 -0.5,-3.16 0.5,-3.16 1.42,-2.75 2.16,-2.17 2.75,-1.42 3.15,-0.5 z" id="path278" inkscape:connector-curvature="0" style="fill:#ffffff"/>
    <path d="m 1554.93,253.55 3.02,1.56 2.38,2.4 1.57,3.02 0.53,3.32 -0.98,0.16 0.98,0.16 -0.53,3.32 -1.57,3.02 -2.38,2.4 -3.02,1.55 -3.48,0.56 -3.48,-0.55 -3.03,-1.56 -2.38,-2.4 -1.56,-3.02 -0.57,-3.48 0.57,-3.48 1.56,-3.02 2.38,-2.4 3.03,-1.55 3.48,-0.56 z m -6.33,1.92 -2.46,1.28 -1.95,1.94 -1.28,2.46 -0.46,2.84 0.46,2.84 1.27,2.47 1.94,1.95 2.46,1.28 2.85,0.46 2.84,-0.47 2.46,-1.28 1.94,-1.94 1.28,-2.46 0.45,-2.84 -0.45,-2.84 -1.28,-2.47 -1.94,-1.95 -2.47,-1.28 -2.85,-0.46 z m -4.92,104.53 -21.8,10.9 -0.88,-1.8 18.2,-9.1 -18.2,-9.1 0.9,-1.8 z" id="path280" inkscape:connector-curvature="0"/>
    <path d="m 1554.6,350.5 2.75,1.43 2.17,2.16 1.42,2.74 0.5,3.16 -0.5,3.16 -1.42,2.75 -2.17,2.17 -2.74,1.42 -3.15,0.5 -3.16,-0.5 -2.76,-1.43 -2.16,-2.16 -1.42,-2.74 -0.5,-3.16 0.5,-3.16 1.42,-2.75 2.16,-2.17 2.75,-1.42 3.15,-0.5 z" id="path282" inkscape:connector-curvature="0" style="fill:#ffffff"/>
    <path d="m 1554.93,349.55 3.02,1.56 2.38,2.4 1.57,3.02 0.53,3.32 -0.98,0.16 0.98,0.16 -0.53,3.32 -1.57,3.02 -2.38,2.4 -3.02,1.55 -3.48,0.56 -3.48,-0.55 -3.03,-1.56 -2.38,-2.4 -1.56,-3.02 -0.57,-3.48 0.57,-3.48 1.56,-3.02 2.38,-2.4 3.03,-1.55 3.48,-0.56 z m -6.33,1.92 -2.46,1.28 -1.95,1.94 -1.28,2.46 -0.46,2.84 0.46,2.84 1.27,2.47 1.94,1.95 2.46,1.28 2.85,0.46 2.84,-0.47 2.46,-1.28 1.94,-1.94 1.28,-2.46 0.45,-2.84 -0.45,-2.84 -1.28,-2.47 -1.94,-1.95 -2.47,-1.28 -2.85,-0.46 z" id="path284" inkscape:connector-curvature="0"/>
    <use xlink:href="#P" transform="translate(1604.53,315.6)" id="use286" x="0" y="0" width="100%" height="100%"/>
    <path d="M 1166.86,820.47 H 1061 v -2 h 105.86 z m 204.14,0 h -135.2 v -2 H 1369 V 377 h 2 z" id="path288" inkscape:connector-curvature="0"/>
    <path d="m 1380.9,377.9 -10.9,21.78 -10.9,-21.8 1.8,-0.88 9.1,18.2 9.1,-18.2 z" id="path290" inkscape:connector-curvature="0"/>
    <path d="m 1373.16,397.96 2.75,1.42 2.17,2.16 1.42,2.75 0.5,3.15 -0.5,3.16 -1.43,2.75 -2.16,2.17 -2.74,1.42 -3.16,0.5 -3.16,-0.5 -2.75,-1.42 -2.17,-2.17 -1.42,-2.74 -0.5,-3.15 0.5,-3.16 1.43,-2.76 2.16,-2.16 2.74,-1.42 3.16,-0.5 z" id="path292" inkscape:connector-curvature="0" style="fill:#ffffff"/>
    <path d="m 1373.48,397 3.02,1.56 2.4,2.38 1.55,3.03 0.54,3.32 -1,0.15 1,0.16 -0.55,3.33 -1.56,3.02 -2.4,2.38 -3.02,1.57 -3.48,0.56 -3.48,-0.56 -3.02,-1.57 -2.4,-2.38 -1.55,-3.02 -0.56,-3.48 0.55,-3.48 1.56,-3.03 2.4,-2.38 3.02,-1.56 3.48,-0.57 z m -6.32,1.92 -2.47,1.27 -1.95,1.94 -1.28,2.46 -0.46,2.85 0.47,2.84 1.28,2.46 1.94,1.94 2.46,1.28 2.84,0.45 2.84,-0.45 2.47,-1.28 1.95,-1.94 1.28,-2.47 0.46,-2.85 -0.47,-2.85 -1.28,-2.46 -1.94,-1.95 -2.46,-1.28 -2.84,-0.46 z m -283.48,420.55 -21.8,10.9 -0.88,-1.8 18.2,-9.1 -18.2,-9.1 0.9,-1.8 z" id="path294" inkscape:connector-curvature="0"/>
    <path d="m 1094.6,809.98 2.75,1.42 2.17,2.16 1.42,2.75 0.5,3.17 -0.5,3.16 -1.42,2.74 -2.17,2.17 -2.74,1.42 -3.15,0.5 -3.16,-0.5 -2.76,-1.42 -2.16,-2.17 -1.42,-2.74 -0.5,-3.16 0.5,-3.16 1.42,-2.74 2.16,-2.16 2.75,-1.42 3.15,-0.5 z" id="path296" inkscape:connector-curvature="0" style="fill:#ffffff"/>
    <path d="m 1094.93,809 3.02,1.58 2.38,2.38 1.57,3.03 0.53,3.3 -0.98,0.17 0.98,0.16 -0.53,3.3 -1.57,3.04 -2.38,2.38 -3.02,1.57 -3.48,0.56 -3.48,-0.56 -3.03,-1.57 -2.38,-2.38 -1.56,-3.03 -0.57,-3.47 0.57,-3.48 1.56,-3.04 2.38,-2.38 3.03,-1.57 3.48,-0.55 z m -6.33,1.94 -2.46,1.27 -1.95,1.96 -1.28,2.46 -0.46,2.85 0.46,2.84 1.27,2.48 1.94,1.94 2.46,1.28 2.85,0.45 2.84,-0.45 2.46,-1.28 1.94,-1.94 1.28,-2.47 0.45,-2.83 -0.45,-2.85 -1.28,-2.46 -1.94,-1.95 -2.47,-1.26 -2.85,-0.46 z" id="path298" inkscape:connector-curvature="0"/>
    <use xlink:href="#Q" transform="translate(1166.8633,823.06667)" id="use300" x="0" y="0" width="100%" height="100%"/>
    <use xlink:href="#R" transform="translate(1214.8633,823.06667)" id="use302" x="0" y="0" width="100%" height="100%"/>
    <path d="M 1171.36,561 H 1061 v -2 h 110.36 z m 121.64,0 h -61.7 v -2 H 1291 V 377 h 2 z" id="path304" inkscape:connector-curvature="0"/>
    <path id="path306" d="" inkscape:connector-curvature="0" style="fill:#ffffff"/>
    <path d="m 1302,388 h -20 v -2 h 20 z" id="path308" inkscape:connector-curvature="0"/>
    <path id="path310" d="" inkscape:connector-curvature="0" style="fill:#ffffff"/>
    <path d="m 1302,398 h -20 v -2 h 20 z m -218.32,162 -21.8,10.9 -0.88,-1.8 18.2,-9.1 -18.2,-9.1 0.9,-1.8 z" id="path312" inkscape:connector-curvature="0"/>
    <path d="m 1094.6,550.5 2.75,1.43 2.17,2.16 1.42,2.74 0.5,3.16 -0.5,3.16 -1.42,2.75 -2.17,2.17 -2.74,1.42 -3.15,0.5 -3.16,-0.5 -2.76,-1.43 -2.16,-2.16 -1.42,-2.74 -0.5,-3.16 0.5,-3.16 1.42,-2.75 2.16,-2.17 2.75,-1.42 3.15,-0.5 z" id="path314" inkscape:connector-curvature="0" style="fill:#ffffff"/>
    <path d="m 1094.93,549.55 3.02,1.56 2.38,2.4 1.57,3.02 0.53,3.32 -0.98,0.16 0.98,0.16 -0.53,3.32 -1.57,3.02 -2.38,2.4 -3.02,1.55 -3.48,0.56 -3.48,-0.55 -3.03,-1.56 -2.38,-2.4 -1.56,-3.02 -0.57,-3.48 0.57,-3.48 1.56,-3.02 2.38,-2.4 3.03,-1.55 3.48,-0.56 z m -6.33,1.92 -2.46,1.28 -1.95,1.94 -1.28,2.46 -0.46,2.84 0.46,2.84 1.27,2.47 1.94,1.95 2.46,1.28 2.85,0.46 2.84,-0.47 2.46,-1.28 1.94,-1.94 1.28,-2.46 0.45,-2.84 -0.45,-2.84 -1.28,-2.47 -1.94,-1.95 -2.47,-1.28 -2.85,-0.46 z" id="path316" inkscape:connector-curvature="0"/>
    <use xlink:href="#S" transform="translate(1171.3633,563.6)" id="use318" x="0" y="0" width="100%" height="100%"/>
    <path d="M 1168.7,1041 H 541 v -2 h 627.7 z m 261.63,0 h -201.7 v -2 h 199.7 V 377 h 2 z" id="path320" inkscape:connector-curvature="0"/>
    <path id="path322" d="" inkscape:connector-curvature="0" style="fill:#ffffff"/>
    <path d="m 1439.33,388 h -20 v -2 h 20 z" id="path324" inkscape:connector-curvature="0"/>
    <path id="path326" d="" inkscape:connector-curvature="0" style="fill:#ffffff"/>
    <path d="m 1439.33,398 h -20 v -2 h 20 z m -875.65,642 -21.8,10.9 -0.88,-1.8 18.2,-9.1 -18.2,-9.1 0.9,-1.8 z" id="path328" inkscape:connector-curvature="0"/>
    <path d="m 574.6,1030.5 2.75,1.43 2.17,2.16 1.42,2.74 0.5,3.16 -0.5,3.16 -1.42,2.75 -2.17,2.17 -2.74,1.42 -3.15,0.5 -3.16,-0.5 -2.76,-1.43 -2.16,-2.16 -1.42,-2.74 -0.5,-3.16 0.5,-3.16 1.42,-2.75 2.16,-2.17 2.75,-1.42 3.15,-0.5 z" id="path330" inkscape:connector-curvature="0" style="fill:#ffffff"/>
    <path d="m 574.93,1029.55 3.02,1.56 2.38,2.4 1.57,3.02 0.53,3.32 -0.98,0.16 0.98,0.16 -0.53,3.32 -1.57,3.02 -2.38,2.4 -3.02,1.55 -3.48,0.56 -3.48,-0.55 -3.03,-1.56 -2.38,-2.4 -1.56,-3.02 -0.57,-3.48 0.57,-3.48 1.56,-3.02 2.38,-2.4 3.03,-1.55 3.48,-0.56 z m -6.33,1.92 -2.46,1.28 -1.95,1.94 -1.28,2.46 -0.46,2.84 0.46,2.84 1.27,2.47 1.94,1.95 2.46,1.28 2.85,0.46 2.84,-0.47 2.46,-1.28 1.94,-1.94 1.28,-2.46 0.45,-2.84 -0.45,-2.84 -1.28,-2.47 -1.94,-1.95 -2.47,-1.28 -2.85,-0.46 z" id="path332" inkscape:connector-curvature="0"/>
    <use xlink:href="#S" transform="translate(1168.6967,1043.6)" id="use334" x="0" y="0" width="100%" height="100%"/>
    <path d="m 1520,1100 h 128 l 32,32 v 128 h -160 z" id="path336" inkscape:connector-curvature="0" style="fill:#ffdf71;stroke:#d9be60;stroke-width:2"/>
    <path d="m 1648,1100 32,32 h -32 z" id="path338" inkscape:connector-curvature="0" style="fill:#d9be60"/>
    <use xlink:href="#T" transform="translate(1548.55,1151.2)" id="use340" x="0" y="0" width="100%" height="100%"/>
    <use xlink:href="#U" transform="translate(1529.525,1172.8)" id="use342" x="0" y="0" width="100%" height="100%"/>
    <use xlink:href="#V" transform="translate(1578.525,1172.8)" id="use344" x="0" y="0" width="100%" height="100%"/>
    <use xlink:href="#W" transform="translate(1622.525,1172.8)" id="use346" x="0" y="0" width="100%" height="100%"/>
    <use xlink:href="#X" transform="translate(1580,1194.4)" id="use348" x="0" y="0" width="100%" height="100%"/>
    <use xlink:href="#Y" transform="translate(1526.55,1216)" id="use350" x="0" y="0" width="100%" height="100%"/>
    <use xlink:href="#V" transform="translate(1573.5,1216)" id="use352" x="0" y="0" width="100%" height="100%"/>
    <use xlink:href="#Z" transform="translate(1617.5,1216)" id="use354" x="0" y="0" width="100%" height="100%"/>
    <path d="M 1151.27,1077 H 541 v -2 h 610.27 z m 331.06,0 h -220.26 v -2 h 218.26 V 377 h 2 z" id="path356" inkscape:connector-curvature="0"/>
    <path d="m 1492.23,377.9 -10.9,21.78 -10.9,-21.8 1.8,-0.88 9.1,18.2 9.1,-18.2 z" id="path358" inkscape:connector-curvature="0"/>
    <path d="m 1484.5,397.96 2.74,1.42 2.16,2.16 1.42,2.75 0.5,3.15 -0.5,3.16 -1.42,2.75 -2.16,2.17 -2.75,1.42 -3.17,0.5 -3.16,-0.5 -2.74,-1.42 -2.17,-2.17 -1.42,-2.74 -0.5,-3.15 0.5,-3.16 1.42,-2.76 2.17,-2.16 2.74,-1.42 3.16,-0.5 z" id="path360" inkscape:connector-curvature="0" style="fill:#ffffff"/>
    <path d="m 1484.8,397 3.04,1.56 2.38,2.38 1.57,3.03 0.52,3.32 -1,0.15 1,0.16 -0.53,3.33 -1.58,3.02 -2.38,2.38 -3.03,1.57 -3.47,0.56 -3.47,-0.56 -3.03,-1.57 -2.38,-2.38 -1.57,-3.02 -0.56,-3.48 0.56,-3.48 1.57,-3.03 2.38,-2.38 3.03,-1.56 3.47,-0.57 z m -6.3,1.92 -2.48,1.27 -1.94,1.94 -1.28,2.46 -0.45,2.85 0.45,2.84 1.28,2.46 1.94,1.94 2.47,1.28 2.83,0.45 2.85,-0.45 2.46,-1.28 1.95,-1.94 1.26,-2.47 0.46,-2.85 -0.46,-2.85 -1.27,-2.46 -1.96,-1.95 -2.46,-1.28 -2.85,-0.46 z M 563.68,1076 l -21.8,10.9 -0.88,-1.8 18.2,-9.1 -18.2,-9.1 0.9,-1.8 z" id="path362" inkscape:connector-curvature="0"/>
    <path d="m 574.6,1066.5 2.75,1.43 2.17,2.16 1.42,2.74 0.5,3.16 -0.5,3.16 -1.42,2.75 -2.17,2.17 -2.74,1.42 -3.15,0.5 -3.16,-0.5 -2.76,-1.43 -2.16,-2.16 -1.42,-2.74 -0.5,-3.16 0.5,-3.16 1.42,-2.75 2.16,-2.17 2.75,-1.42 3.15,-0.5 z" id="path364" inkscape:connector-curvature="0" style="fill:#ffffff"/>
    <path d="m 574.93,1065.55 3.02,1.56 2.38,2.4 1.57,3.02 0.53,3.32 -0.98,0.16 0.98,0.16 -0.53,3.32 -1.57,3.02 -2.38,2.4 -3.02,1.55 -3.48,0.56 -3.48,-0.55 -3.03,-1.56 -2.38,-2.4 -1.56,-3.02 -0.57,-3.48 0.57,-3.48 1.56,-3.02 2.38,-2.4 3.03,-1.55 3.48,-0.56 z m -6.33,1.92 -2.46,1.28 -1.95,1.94 -1.28,2.46 -0.46,2.84 0.46,2.84 1.27,2.47 1.94,1.95 2.46,1.28 2.85,0.46 2.84,-0.47 2.46,-1.28 1.94,-1.94 1.28,-2.46 0.45,-2.84 -0.45,-2.84 -1.28,-2.47 -1.94,-1.95 -2.47,-1.28 -2.85,-0.46 z" id="path366" inkscape:connector-curvature="0"/>
    <g id="g372">
    <use xlink:href="#aa" transform="translate(1151.2717,1079.6)" id="use368" x="0" y="0" width="100%" height="100%"/>
    <use xlink:href="#ab" transform="translate(1248.1217,1079.6)" id="use370" x="0" y="0" width="100%" height="100%"/>
    </g>
    <defs id="defs1403">
    <path d="M 141,-36 C 126,-15 110,5 73,4 37,3 15,-17 15,-53 c -1,-64 63,-63 125,-63 3,-35 -9,-54 -41,-54 -24,1 -41,7 -42,31 l -33,-3 c 5,-37 33,-52 76,-52 45,0 72,20 72,64 v 82 c -1,20 7,32 28,27 V -1 C 169,8 139,-3 141,-36 Z M 48,-53 c 0,20 12,33 32,33 41,-3 63,-29 60,-74 -43,2 -92,-5 -92,41" id="ac" inkscape:connector-curvature="0"/>
    <path d="m 96,-169 c -40,0 -48,33 -48,73 0,40 9,75 48,75 24,0 41,-14 43,-38 l 32,2 C 165,-20 140,4 97,4 38,4 21,-37 15,-95 c -10,-93 101,-131 147,-64 4,7 5,14 7,22 l -32,3 c -4,-21 -16,-35 -41,-35" id="ad" inkscape:connector-curvature="0"/>
    <path d="m 100,-194 c 62,-1 85,37 85,99 1,63 -27,99 -86,99 -59,0 -83,-39 -84,-99 0,-66 28,-99 85,-99 z m -1,174 c 44,1 53,-31 53,-75 0,-43 -8,-75 -51,-75 -43,0 -53,32 -53,75 0,43 10,74 51,75" id="ae" inkscape:connector-curvature="0"/>
    <path d="M 84,4 C -5,8 30,-112 23,-190 h 32 v 120 c 0,31 7,50 39,49 72,-2 45,-101 50,-169 h 31 l 1,190 h -30 c -1,-10 1,-25 -2,-33 -11,22 -28,36 -60,37" id="af" inkscape:connector-curvature="0"/>
    <path d="m 117,-194 c 89,-4 53,116 60,194 h -32 v -121 c 0,-31 -8,-49 -39,-48 C 34,-167 62,-67 57,0 H 25 l -1,-190 h 30 c 1,10 -1,24 2,32 11,-22 29,-35 61,-36" id="ag" inkscape:connector-curvature="0"/>
    <path d="m 59,-47 c -2,24 18,29 38,22 V -1 C 64,9 27,4 27,-40 V -167 H 5 v -23 h 24 l 9,-43 h 21 v 43 h 35 v 23 H 59 v 120" id="ah" inkscape:connector-curvature="0"/>
    <g id="a">
        <use transform="scale(0.05)" xlink:href="#ac" id="use380" x="0" y="0" width="100%" height="100%"/>
        <use transform="matrix(0.05,0,0,0.05,10,0)" xlink:href="#ad" id="use382" x="0" y="0" width="100%" height="100%"/>
        <use transform="matrix(0.05,0,0,0.05,19,0)" xlink:href="#ad" id="use384" x="0" y="0" width="100%" height="100%"/>
        <use transform="matrix(0.05,0,0,0.05,28,0)" xlink:href="#ae" id="use386" x="0" y="0" width="100%" height="100%"/>
        <use transform="matrix(0.05,0,0,0.05,38,0)" xlink:href="#af" id="use388" x="0" y="0" width="100%" height="100%"/>
        <use transform="matrix(0.05,0,0,0.05,48,0)" xlink:href="#ag" id="use390" x="0" y="0" width="100%" height="100%"/>
        <use transform="matrix(0.05,0,0,0.05,58,0)" xlink:href="#ah" id="use392" x="0" y="0" width="100%" height="100%"/>
    </g>
    <path d="m 25,-224 v -37 h 50 v 37 z M 25,0 V -190 H 75 V 0 H 25" id="ai" inkscape:connector-curvature="0"/>
    <path d="m 88,-194 c 31,-1 46,15 58,34 l -1,-101 h 50 l 1,261 h -48 c -2,-10 0,-23 -3,-31 C 134,-8 116,4 84,4 32,4 16,-41 15,-95 c 0,-56 19,-97 73,-99 z m 17,164 c 33,0 40,-30 41,-66 1,-37 -9,-64 -41,-64 -32,0 -38,30 -39,65 0,43 13,65 39,65" id="aj" inkscape:connector-curvature="0"/>
    <g id="b">
        <use transform="scale(0.05)" xlink:href="#ai" id="use397" x="0" y="0" width="100%" height="100%"/>
        <use transform="matrix(0.05,0,0,0.05,5,0)" xlink:href="#aj" id="use399" x="0" y="0" width="100%" height="100%"/>
        <path d="m -0.9,0.97 h 17.75 v 1.9 H -0.9 Z" id="path401" inkscape:connector-curvature="0"/>
    </g>
    <path d="m 24,-231 v -30 h 32 v 30 z M 24,0 V -190 H 56 V 0 H 24" id="ak" inkscape:connector-curvature="0"/>
    <g id="c">
        <use transform="scale(0.05)" xlink:href="#ak" id="use405" x="0" y="0" width="100%" height="100%"/>
        <use transform="matrix(0.05,0,0,0.05,3.95,0)" xlink:href="#ag" id="use407" x="0" y="0" width="100%" height="100%"/>
        <use transform="matrix(0.05,0,0,0.05,13.95,0)" xlink:href="#ah" id="use409" x="0" y="0" width="100%" height="100%"/>
    </g>
    <path d="m 135,-143 c -3,-34 -86,-38 -87,0 15,53 115,12 119,90 4,78 -150,74 -157,8 l 28,-5 c 4,36 97,45 98,0 -10,-56 -113,-15 -118,-90 -4,-57 82,-63 122,-42 12,7 21,19 24,35" id="al" inkscape:connector-curvature="0"/>
    <path d="m 100,-194 c 63,0 86,42 84,106 H 49 c 0,40 14,67 53,68 26,1 43,-12 49,-29 l 28,8 C 168,-13 142,4 102,4 44,4 14,-33 15,-96 c 1,-61 26,-98 85,-98 z m 52,81 c 6,-60 -76,-77 -97,-28 -3,7 -6,17 -6,28 h 103" id="am" inkscape:connector-curvature="0"/>
    <path d="M 114,-163 C 36,-179 61,-72 57,0 H 25 l -1,-190 h 30 c 1,12 -1,29 2,39 6,-27 23,-49 58,-41 v 29" id="an" inkscape:connector-curvature="0"/>
    <path d="m 210,-169 c -67,3 -38,105 -44,169 h -31 v -121 c 0,-29 -5,-50 -35,-48 C 34,-165 62,-65 56,0 H 25 l -1,-190 h 30 c 1,10 -1,24 2,32 10,-44 99,-50 107,0 11,-21 27,-35 58,-36 85,-2 47,119 55,194 h -31 v -121 c 0,-29 -5,-49 -35,-48" id="ao" inkscape:connector-curvature="0"/>
    <g id="d">
        <use transform="scale(0.05)" xlink:href="#af" id="use416" x="0" y="0" width="100%" height="100%"/>
        <use transform="matrix(0.05,0,0,0.05,10,0)" xlink:href="#al" id="use418" x="0" y="0" width="100%" height="100%"/>
        <use transform="matrix(0.05,0,0,0.05,19,0)" xlink:href="#am" id="use420" x="0" y="0" width="100%" height="100%"/>
        <use transform="matrix(0.05,0,0,0.05,29,0)" xlink:href="#an" id="use422" x="0" y="0" width="100%" height="100%"/>
        <use transform="matrix(0.05,0,0,0.05,34.95,0)" xlink:href="#ag" id="use424" x="0" y="0" width="100%" height="100%"/>
        <use transform="matrix(0.05,0,0,0.05,44.95,0)" xlink:href="#ac" id="use426" x="0" y="0" width="100%" height="100%"/>
        <use transform="matrix(0.05,0,0,0.05,54.95,0)" xlink:href="#ao" id="use428" x="0" y="0" width="100%" height="100%"/>
        <use transform="matrix(0.05,0,0,0.05,69.9,0)" xlink:href="#am" id="use430" x="0" y="0" width="100%" height="100%"/>
    </g>
    <path d="m 185,-189 c -5,-48 -123,-54 -124,2 14,75 158,14 163,119 C 227,10 103,19 49,-13 32,-23 21,-39 16,-59 l 33,-7 c 5,56 141,63 141,-1 0,-78 -155,-14 -162,-118 -5,-82 145,-84 179,-34 5,7 8,16 11,25" id="ap" inkscape:connector-curvature="0"/>
    <path d="M 177,-190 C 167,-65 218,103 67,71 44,65 29,51 23,28 L 55,23 C 70,70 155,55 144,-5 V -35 C 133,-14 115,1 83,1 29,1 15,-40 15,-95 c 0,-56 16,-97 71,-98 29,-1 48,16 59,35 1,-10 0,-23 2,-32 z M 94,-22 c 36,0 50,-32 50,-73 0,-42 -14,-75 -50,-75 -39,0 -46,34 -46,75 0,41 6,73 46,73" id="aq" inkscape:connector-curvature="0"/>
    <g id="e">
        <use transform="scale(0.05)" xlink:href="#ap" id="use435" x="0" y="0" width="100%" height="100%"/>
        <use transform="matrix(0.05,0,0,0.05,12,0)" xlink:href="#ah" id="use437" x="0" y="0" width="100%" height="100%"/>
        <use transform="matrix(0.05,0,0,0.05,17,0)" xlink:href="#an" id="use439" x="0" y="0" width="100%" height="100%"/>
        <use transform="matrix(0.05,0,0,0.05,22.95,0)" xlink:href="#ak" id="use441" x="0" y="0" width="100%" height="100%"/>
        <use transform="matrix(0.05,0,0,0.05,26.9,0)" xlink:href="#ag" id="use443" x="0" y="0" width="100%" height="100%"/>
        <use transform="matrix(0.05,0,0,0.05,36.9,0)" xlink:href="#aq" id="use445" x="0" y="0" width="100%" height="100%"/>
    </g>
    <path d="M 24,0 V -261 H 56 V 0 H 24" id="ar" inkscape:connector-curvature="0"/>
    <g id="f">
        <use transform="scale(0.05)" xlink:href="#am" id="use449" x="0" y="0" width="100%" height="100%"/>
        <use transform="matrix(0.05,0,0,0.05,10,0)" xlink:href="#ao" id="use451" x="0" y="0" width="100%" height="100%"/>
        <use transform="matrix(0.05,0,0,0.05,24.95,0)" xlink:href="#ac" id="use453" x="0" y="0" width="100%" height="100%"/>
        <use transform="matrix(0.05,0,0,0.05,34.95,0)" xlink:href="#ak" id="use455" x="0" y="0" width="100%" height="100%"/>
        <use transform="matrix(0.05,0,0,0.05,38.9,0)" xlink:href="#ar" id="use457" x="0" y="0" width="100%" height="100%"/>
    </g>
    <path d="m 115,-194 c 55,1 70,41 70,98 C 185,-39 169,2 115,4 84,4 66,-9 55,-30 L 56,75 H 24 l -1,-265 h 31 l 2,30 c 10,-21 28,-34 59,-34 z m -8,174 c 40,0 45,-34 45,-75 0,-41 -6,-73 -45,-74 -42,0 -51,32 -51,76 0,43 10,73 51,73" id="as" inkscape:connector-curvature="0"/>
    <path d="M 206,0 H 170 L 130,-164 89,0 H 53 L -1,-190 h 32 l 39,164 43,-164 h 34 l 41,164 42,-164 h 31" id="at" inkscape:connector-curvature="0"/>
    <path d="m 85,-194 c 31,0 48,13 60,33 l -1,-100 h 32 l 1,261 h -30 c -2,-10 0,-23 -3,-31 C 134,-8 116,4 85,4 32,4 16,-35 15,-94 c 0,-66 23,-100 70,-100 z m 9,24 c -40,0 -46,34 -46,75 0,40 6,74 45,74 42,0 51,-32 51,-76 0,-42 -9,-74 -50,-73" id="au" inkscape:connector-curvature="0"/>
    <g id="g">
        <use transform="scale(0.05)" xlink:href="#as" id="use463" x="0" y="0" width="100%" height="100%"/>
        <use transform="matrix(0.05,0,0,0.05,10,0)" xlink:href="#ac" id="use465" x="0" y="0" width="100%" height="100%"/>
        <use transform="matrix(0.05,0,0,0.05,20,0)" xlink:href="#al" id="use467" x="0" y="0" width="100%" height="100%"/>
        <use transform="matrix(0.05,0,0,0.05,29,0)" xlink:href="#al" id="use469" x="0" y="0" width="100%" height="100%"/>
        <use transform="matrix(0.05,0,0,0.05,38,0)" xlink:href="#at" id="use471" x="0" y="0" width="100%" height="100%"/>
        <use transform="matrix(0.05,0,0,0.05,50.95,0)" xlink:href="#ae" id="use473" x="0" y="0" width="100%" height="100%"/>
        <use transform="matrix(0.05,0,0,0.05,60.95,0)" xlink:href="#an" id="use475" x="0" y="0" width="100%" height="100%"/>
        <use transform="matrix(0.05,0,0,0.05,66.9,0)" xlink:href="#au" id="use477" x="0" y="0" width="100%" height="100%"/>
        <use transform="matrix(0.05,0,0,0.05,76.9,0)" xlink:href="#al" id="use479" x="0" y="0" width="100%" height="100%"/>
        <use transform="matrix(0.05,0,0,0.05,85.9,0)" xlink:href="#ac" id="use481" x="0" y="0" width="100%" height="100%"/>
        <use transform="matrix(0.05,0,0,0.05,95.9,0)" xlink:href="#ar" id="use483" x="0" y="0" width="100%" height="100%"/>
        <use transform="matrix(0.05,0,0,0.05,99.85,0)" xlink:href="#ah" id="use485" x="0" y="0" width="100%" height="100%"/>
    </g>
    <path d="M 106,-169 C 34,-169 62,-67 57,0 H 25 v -261 h 32 l -1,103 c 12,-21 28,-36 61,-36 89,0 53,116 60,194 h -32 v -121 c 2,-32 -8,-49 -39,-48" id="av" inkscape:connector-curvature="0"/>
    <g id="h">
        <use transform="scale(0.05)" xlink:href="#as" id="use489" x="0" y="0" width="100%" height="100%"/>
        <use transform="matrix(0.05,0,0,0.05,10,0)" xlink:href="#ac" id="use491" x="0" y="0" width="100%" height="100%"/>
        <use transform="matrix(0.05,0,0,0.05,20,0)" xlink:href="#al" id="use493" x="0" y="0" width="100%" height="100%"/>
        <use transform="matrix(0.05,0,0,0.05,29,0)" xlink:href="#al" id="use495" x="0" y="0" width="100%" height="100%"/>
        <use transform="matrix(0.05,0,0,0.05,38,0)" xlink:href="#at" id="use497" x="0" y="0" width="100%" height="100%"/>
        <use transform="matrix(0.05,0,0,0.05,50.95,0)" xlink:href="#ae" id="use499" x="0" y="0" width="100%" height="100%"/>
        <use transform="matrix(0.05,0,0,0.05,60.95,0)" xlink:href="#an" id="use501" x="0" y="0" width="100%" height="100%"/>
        <use transform="matrix(0.05,0,0,0.05,66.9,0)" xlink:href="#au" id="use503" x="0" y="0" width="100%" height="100%"/>
        <use transform="matrix(0.05,0,0,0.05,76.9,0)" xlink:href="#av" id="use505" x="0" y="0" width="100%" height="100%"/>
        <use transform="matrix(0.05,0,0,0.05,86.9,0)" xlink:href="#ac" id="use507" x="0" y="0" width="100%" height="100%"/>
        <use transform="matrix(0.05,0,0,0.05,96.9,0)" xlink:href="#al" id="use509" x="0" y="0" width="100%" height="100%"/>
        <use transform="matrix(0.05,0,0,0.05,105.9,0)" xlink:href="#av" id="use511" x="0" y="0" width="100%" height="100%"/>
    </g>
    <g id="i">
        <use transform="scale(0.05)" xlink:href="#ar" id="use514" x="0" y="0" width="100%" height="100%"/>
        <use transform="matrix(0.05,0,0,0.05,3.95,0)" xlink:href="#ae" id="use516" x="0" y="0" width="100%" height="100%"/>
        <use transform="matrix(0.05,0,0,0.05,13.95,0)" xlink:href="#ag" id="use518" x="0" y="0" width="100%" height="100%"/>
    </g>
    <path d="m 115,-194 c 53,0 69,39 70,98 C 185,-30 162,4 115,4 84,3 66,-7 56,-30 L 54,0 H 23 l 1,-261 h 32 v 101 c 10,-23 28,-34 59,-34 z m -8,174 c 40,0 45,-34 45,-75 0,-40 -5,-75 -45,-74 -42,0 -51,32 -51,76 0,43 10,73 51,73" id="aw" inkscape:connector-curvature="0"/>
    <g id="j">
        <use transform="scale(0.05)" xlink:href="#au" id="use522" x="0" y="0" width="100%" height="100%"/>
        <use transform="matrix(0.05,0,0,0.05,10,0)" xlink:href="#ae" id="use524" x="0" y="0" width="100%" height="100%"/>
        <use transform="matrix(0.05,0,0,0.05,20,0)" xlink:href="#af" id="use526" x="0" y="0" width="100%" height="100%"/>
        <use transform="matrix(0.05,0,0,0.05,30,0)" xlink:href="#aw" id="use528" x="0" y="0" width="100%" height="100%"/>
        <use transform="matrix(0.05,0,0,0.05,40,0)" xlink:href="#ar" id="use530" x="0" y="0" width="100%" height="100%"/>
        <use transform="matrix(0.05,0,0,0.05,43.95,0)" xlink:href="#am" id="use532" x="0" y="0" width="100%" height="100%"/>
    </g>
    <g id="k">
        <use transform="scale(0.05)" xlink:href="#ar" id="use535" x="0" y="0" width="100%" height="100%"/>
        <use transform="matrix(0.05,0,0,0.05,3.95,0)" xlink:href="#ac" id="use537" x="0" y="0" width="100%" height="100%"/>
        <use transform="matrix(0.05,0,0,0.05,13.95,0)" xlink:href="#ah" id="use539" x="0" y="0" width="100%" height="100%"/>
    </g>
    <g id="l">
        <use transform="scale(0.05)" xlink:href="#ah" id="use542" x="0" y="0" width="100%" height="100%"/>
        <use transform="matrix(0.05,0,0,0.05,5,0)" xlink:href="#ak" id="use544" x="0" y="0" width="100%" height="100%"/>
        <use transform="matrix(0.05,0,0,0.05,8.95,0)" xlink:href="#ao" id="use546" x="0" y="0" width="100%" height="100%"/>
        <use transform="matrix(0.05,0,0,0.05,23.9,0)" xlink:href="#am" id="use548" x="0" y="0" width="100%" height="100%"/>
        <use transform="matrix(0.05,0,0,0.05,33.9,0)" xlink:href="#ao" id="use550" x="0" y="0" width="100%" height="100%"/>
        <use transform="matrix(0.05,0,0,0.05,48.85,0)" xlink:href="#am" id="use552" x="0" y="0" width="100%" height="100%"/>
        <use transform="matrix(0.05,0,0,0.05,58.85,0)" xlink:href="#ac" id="use554" x="0" y="0" width="100%" height="100%"/>
        <use transform="matrix(0.05,0,0,0.05,68.85,0)" xlink:href="#al" id="use556" x="0" y="0" width="100%" height="100%"/>
        <use transform="matrix(0.05,0,0,0.05,77.85,0)" xlink:href="#af" id="use558" x="0" y="0" width="100%" height="100%"/>
        <use transform="matrix(0.05,0,0,0.05,87.85,0)" xlink:href="#an" id="use560" x="0" y="0" width="100%" height="100%"/>
        <use transform="matrix(0.05,0,0,0.05,93.8,0)" xlink:href="#am" id="use562" x="0" y="0" width="100%" height="100%"/>
        <use transform="matrix(0.05,0,0,0.05,103.8,0)" xlink:href="#au" id="use564" x="0" y="0" width="100%" height="100%"/>
    </g>
    <path d="M 127,-220 V 0 H 93 V -220 H 8 v -28 h 204 v 28 h -85" id="ax" inkscape:connector-curvature="0"/>
    <g id="m">
        <use transform="scale(0.05)" xlink:href="#ax" id="use568" x="0" y="0" width="100%" height="100%"/>
        <use transform="matrix(0.05,0,0,0.05,10.3,0)" xlink:href="#ak" id="use570" x="0" y="0" width="100%" height="100%"/>
        <use transform="matrix(0.05,0,0,0.05,14.25,0)" xlink:href="#ao" id="use572" x="0" y="0" width="100%" height="100%"/>
        <use transform="matrix(0.05,0,0,0.05,29.2,0)" xlink:href="#am" id="use574" x="0" y="0" width="100%" height="100%"/>
    </g>
    <g id="n">
        <use transform="scale(0.05)" xlink:href="#aq" id="use577" x="0" y="0" width="100%" height="100%"/>
        <use transform="matrix(0.05,0,0,0.05,10,0)" xlink:href="#an" id="use579" x="0" y="0" width="100%" height="100%"/>
        <use transform="matrix(0.05,0,0,0.05,15.95,0)" xlink:href="#ae" id="use581" x="0" y="0" width="100%" height="100%"/>
        <use transform="matrix(0.05,0,0,0.05,25.95,0)" xlink:href="#af" id="use583" x="0" y="0" width="100%" height="100%"/>
        <use transform="matrix(0.05,0,0,0.05,35.95,0)" xlink:href="#as" id="use585" x="0" y="0" width="100%" height="100%"/>
    </g>
    <g id="o">
        <use transform="scale(0.05)" xlink:href="#ag" id="use588" x="0" y="0" width="100%" height="100%"/>
        <use transform="matrix(0.05,0,0,0.05,10,0)" xlink:href="#ac" id="use590" x="0" y="0" width="100%" height="100%"/>
        <use transform="matrix(0.05,0,0,0.05,20,0)" xlink:href="#ao" id="use592" x="0" y="0" width="100%" height="100%"/>
        <use transform="matrix(0.05,0,0,0.05,34.95,0)" xlink:href="#am" id="use594" x="0" y="0" width="100%" height="100%"/>
    </g>
    <path d="M 108,0 H 70 L 1,-190 h 34 l 54,165 56,-165 h 34" id="ay" inkscape:connector-curvature="0"/>
    <g id="p">
        <use transform="scale(0.05)" xlink:href="#am" id="use598" x="0" y="0" width="100%" height="100%"/>
        <use transform="matrix(0.05,0,0,0.05,10,0)" xlink:href="#ay" id="use600" x="0" y="0" width="100%" height="100%"/>
        <use transform="matrix(0.05,0,0,0.05,19,0)" xlink:href="#am" id="use602" x="0" y="0" width="100%" height="100%"/>
        <use transform="matrix(0.05,0,0,0.05,29,0)" xlink:href="#ag" id="use604" x="0" y="0" width="100%" height="100%"/>
        <use transform="matrix(0.05,0,0,0.05,39,0)" xlink:href="#ah" id="use606" x="0" y="0" width="100%" height="100%"/>
    </g>
    <g id="q">
        <use transform="scale(0.05)" xlink:href="#ah" id="use609" x="0" y="0" width="100%" height="100%"/>
        <use transform="matrix(0.05,0,0,0.05,5,0)" xlink:href="#ak" id="use611" x="0" y="0" width="100%" height="100%"/>
        <use transform="matrix(0.05,0,0,0.05,8.95,0)" xlink:href="#ah" id="use613" x="0" y="0" width="100%" height="100%"/>
        <use transform="matrix(0.05,0,0,0.05,13.95,0)" xlink:href="#ar" id="use615" x="0" y="0" width="100%" height="100%"/>
        <use transform="matrix(0.05,0,0,0.05,17.9,0)" xlink:href="#am" id="use617" x="0" y="0" width="100%" height="100%"/>
    </g>
    <g id="r">
        <use transform="scale(0.05)" xlink:href="#ah" id="use620" x="0" y="0" width="100%" height="100%"/>
        <use transform="matrix(0.05,0,0,0.05,5,0)" xlink:href="#ak" id="use622" x="0" y="0" width="100%" height="100%"/>
        <use transform="matrix(0.05,0,0,0.05,8.95,0)" xlink:href="#ao" id="use624" x="0" y="0" width="100%" height="100%"/>
        <use transform="matrix(0.05,0,0,0.05,23.9,0)" xlink:href="#am" id="use626" x="0" y="0" width="100%" height="100%"/>
        <use transform="matrix(0.05,0,0,0.05,33.9,0)" xlink:href="#al" id="use628" x="0" y="0" width="100%" height="100%"/>
        <use transform="matrix(0.05,0,0,0.05,42.9,0)" xlink:href="#ah" id="use630" x="0" y="0" width="100%" height="100%"/>
        <use transform="matrix(0.05,0,0,0.05,47.9,0)" xlink:href="#ac" id="use632" x="0" y="0" width="100%" height="100%"/>
        <use transform="matrix(0.05,0,0,0.05,57.9,0)" xlink:href="#an" id="use634" x="0" y="0" width="100%" height="100%"/>
        <use transform="matrix(0.05,0,0,0.05,63.85,0)" xlink:href="#ah" id="use636" x="0" y="0" width="100%" height="100%"/>
    </g>
    <g id="s">
        <use transform="scale(0.05)" xlink:href="#ax" id="use639" x="0" y="0" width="100%" height="100%"/>
        <use transform="matrix(0.05,0,0,0.05,10.3,0)" xlink:href="#ak" id="use641" x="0" y="0" width="100%" height="100%"/>
        <use transform="matrix(0.05,0,0,0.05,14.25,0)" xlink:href="#ao" id="use643" x="0" y="0" width="100%" height="100%"/>
        <use transform="matrix(0.05,0,0,0.05,29.2,0)" xlink:href="#am" id="use645" x="0" y="0" width="100%" height="100%"/>
    </g>
    <g id="t">
        <use transform="scale(0.05)" xlink:href="#ah" id="use648" x="0" y="0" width="100%" height="100%"/>
        <use transform="matrix(0.05,0,0,0.05,5,0)" xlink:href="#ak" id="use650" x="0" y="0" width="100%" height="100%"/>
        <use transform="matrix(0.05,0,0,0.05,8.95,0)" xlink:href="#ao" id="use652" x="0" y="0" width="100%" height="100%"/>
        <use transform="matrix(0.05,0,0,0.05,23.9,0)" xlink:href="#am" id="use654" x="0" y="0" width="100%" height="100%"/>
        <use transform="matrix(0.05,0,0,0.05,33.9,0)" xlink:href="#am" id="use656" x="0" y="0" width="100%" height="100%"/>
        <use transform="matrix(0.05,0,0,0.05,43.9,0)" xlink:href="#ag" id="use658" x="0" y="0" width="100%" height="100%"/>
        <use transform="matrix(0.05,0,0,0.05,53.9,0)" xlink:href="#au" id="use660" x="0" y="0" width="100%" height="100%"/>
    </g>
    <path d="M 179,-190 93,31 C 79,59 56,82 12,73 V 49 C 51,55 65,29 76,-1 L 1,-190 h 34 l 57,156 54,-156 h 33" id="az" inkscape:connector-curvature="0"/>
    <g id="u">
        <use transform="scale(0.05)" xlink:href="#ax" id="use664" x="0" y="0" width="100%" height="100%"/>
        <use transform="matrix(0.05,0,0,0.05,9.95,0)" xlink:href="#az" id="use666" x="0" y="0" width="100%" height="100%"/>
        <use transform="matrix(0.05,0,0,0.05,18.95,0)" xlink:href="#as" id="use668" x="0" y="0" width="100%" height="100%"/>
        <use transform="matrix(0.05,0,0,0.05,28.95,0)" xlink:href="#am" id="use670" x="0" y="0" width="100%" height="100%"/>
    </g>
    <g id="v">
        <use transform="scale(0.05)" xlink:href="#as" id="use673" x="0" y="0" width="100%" height="100%"/>
        <use transform="matrix(0.05,0,0,0.05,10,0)" xlink:href="#ae" id="use675" x="0" y="0" width="100%" height="100%"/>
        <use transform="matrix(0.05,0,0,0.05,20,0)" xlink:href="#ar" id="use677" x="0" y="0" width="100%" height="100%"/>
        <use transform="matrix(0.05,0,0,0.05,23.95,0)" xlink:href="#ar" id="use679" x="0" y="0" width="100%" height="100%"/>
    </g>
    <path d="M 145,-31 C 134,-9 116,4 85,4 32,4 16,-35 15,-94 c 0,-59 17,-99 70,-100 32,-1 48,14 60,33 0,-11 -1,-24 2,-32 h 30 l -1,268 h -32 z m -52,10 c 41,0 51,-33 51,-76 0,-43 -8,-73 -50,-73 -40,0 -46,35 -46,75 0,40 5,74 45,74" id="aA" inkscape:connector-curvature="0"/>
    <g id="w">
        <use transform="scale(0.05)" xlink:href="#aA" id="use683" x="0" y="0" width="100%" height="100%"/>
        <use transform="matrix(0.05,0,0,0.05,10,0)" xlink:href="#af" id="use685" x="0" y="0" width="100%" height="100%"/>
        <use transform="matrix(0.05,0,0,0.05,20,0)" xlink:href="#am" id="use687" x="0" y="0" width="100%" height="100%"/>
        <use transform="matrix(0.05,0,0,0.05,30,0)" xlink:href="#al" id="use689" x="0" y="0" width="100%" height="100%"/>
        <use transform="matrix(0.05,0,0,0.05,39,0)" xlink:href="#ah" id="use691" x="0" y="0" width="100%" height="100%"/>
        <use transform="matrix(0.05,0,0,0.05,44,0)" xlink:href="#ak" id="use693" x="0" y="0" width="100%" height="100%"/>
        <use transform="matrix(0.05,0,0,0.05,47.95,0)" xlink:href="#ae" id="use695" x="0" y="0" width="100%" height="100%"/>
        <use transform="matrix(0.05,0,0,0.05,57.95,0)" xlink:href="#ag" id="use697" x="0" y="0" width="100%" height="100%"/>
    </g>
    <g id="x">
        <use transform="scale(0.05)" xlink:href="#ao" id="use700" x="0" y="0" width="100%" height="100%"/>
        <use transform="matrix(0.05,0,0,0.05,14.95,0)" xlink:href="#af" id="use702" x="0" y="0" width="100%" height="100%"/>
        <use transform="matrix(0.05,0,0,0.05,24.95,0)" xlink:href="#ar" id="use704" x="0" y="0" width="100%" height="100%"/>
        <use transform="matrix(0.05,0,0,0.05,28.9,0)" xlink:href="#ah" id="use706" x="0" y="0" width="100%" height="100%"/>
        <use transform="matrix(0.05,0,0,0.05,33.9,0)" xlink:href="#ak" id="use708" x="0" y="0" width="100%" height="100%"/>
        <use transform="matrix(0.05,0,0,0.05,37.85,0)" xlink:href="#ad" id="use710" x="0" y="0" width="100%" height="100%"/>
        <use transform="matrix(0.05,0,0,0.05,46.85,0)" xlink:href="#av" id="use712" x="0" y="0" width="100%" height="100%"/>
        <use transform="matrix(0.05,0,0,0.05,56.85,0)" xlink:href="#ae" id="use714" x="0" y="0" width="100%" height="100%"/>
        <use transform="matrix(0.05,0,0,0.05,66.85,0)" xlink:href="#ak" id="use716" x="0" y="0" width="100%" height="100%"/>
        <use transform="matrix(0.05,0,0,0.05,70.8,0)" xlink:href="#ad" id="use718" x="0" y="0" width="100%" height="100%"/>
        <use transform="matrix(0.05,0,0,0.05,79.8,0)" xlink:href="#am" id="use720" x="0" y="0" width="100%" height="100%"/>
    </g>
    <g id="y">
        <use transform="scale(0.05)" xlink:href="#aw" id="use723" x="0" y="0" width="100%" height="100%"/>
        <use transform="matrix(0.05,0,0,0.05,10,0)" xlink:href="#ae" id="use725" x="0" y="0" width="100%" height="100%"/>
        <use transform="matrix(0.05,0,0,0.05,20,0)" xlink:href="#ae" id="use727" x="0" y="0" width="100%" height="100%"/>
        <use transform="matrix(0.05,0,0,0.05,30,0)" xlink:href="#ar" id="use729" x="0" y="0" width="100%" height="100%"/>
        <use transform="matrix(0.05,0,0,0.05,33.95,0)" xlink:href="#am" id="use731" x="0" y="0" width="100%" height="100%"/>
        <use transform="matrix(0.05,0,0,0.05,43.95,0)" xlink:href="#ac" id="use733" x="0" y="0" width="100%" height="100%"/>
        <use transform="matrix(0.05,0,0,0.05,53.95,0)" xlink:href="#ag" id="use735" x="0" y="0" width="100%" height="100%"/>
    </g>
    <g id="z">
        <use transform="scale(0.05)" xlink:href="#as" id="use738" x="0" y="0" width="100%" height="100%"/>
        <use transform="matrix(0.05,0,0,0.05,10,0)" xlink:href="#ae" id="use740" x="0" y="0" width="100%" height="100%"/>
        <use transform="matrix(0.05,0,0,0.05,20,0)" xlink:href="#ar" id="use742" x="0" y="0" width="100%" height="100%"/>
        <use transform="matrix(0.05,0,0,0.05,23.95,0)" xlink:href="#ar" id="use744" x="0" y="0" width="100%" height="100%"/>
        <use transform="matrix(0.05,0,0,0.05,27.9,0)" xlink:href="#ae" id="use746" x="0" y="0" width="100%" height="100%"/>
        <use transform="matrix(0.05,0,0,0.05,37.9,0)" xlink:href="#as" id="use748" x="0" y="0" width="100%" height="100%"/>
        <use transform="matrix(0.05,0,0,0.05,47.9,0)" xlink:href="#ah" id="use750" x="0" y="0" width="100%" height="100%"/>
        <use transform="matrix(0.05,0,0,0.05,52.9,0)" xlink:href="#ak" id="use752" x="0" y="0" width="100%" height="100%"/>
        <use transform="matrix(0.05,0,0,0.05,56.85,0)" xlink:href="#ae" id="use754" x="0" y="0" width="100%" height="100%"/>
        <use transform="matrix(0.05,0,0,0.05,66.85,0)" xlink:href="#ag" id="use756" x="0" y="0" width="100%" height="100%"/>
    </g>
    <g id="A">
        <use transform="scale(0.05)" xlink:href="#aq" id="use759" x="0" y="0" width="100%" height="100%"/>
        <use transform="matrix(0.05,0,0,0.05,10,0)" xlink:href="#an" id="use761" x="0" y="0" width="100%" height="100%"/>
        <use transform="matrix(0.05,0,0,0.05,15.95,0)" xlink:href="#ae" id="use763" x="0" y="0" width="100%" height="100%"/>
        <use transform="matrix(0.05,0,0,0.05,25.95,0)" xlink:href="#af" id="use765" x="0" y="0" width="100%" height="100%"/>
        <use transform="matrix(0.05,0,0,0.05,35.95,0)" xlink:href="#as" id="use767" x="0" y="0" width="100%" height="100%"/>
        <use transform="matrix(0.05,0,0,0.05,45.95,0)" xlink:href="#ao" id="use769" x="0" y="0" width="100%" height="100%"/>
        <use transform="matrix(0.05,0,0,0.05,60.9,0)" xlink:href="#am" id="use771" x="0" y="0" width="100%" height="100%"/>
        <use transform="matrix(0.05,0,0,0.05,70.9,0)" xlink:href="#ao" id="use773" x="0" y="0" width="100%" height="100%"/>
        <use transform="matrix(0.05,0,0,0.05,85.85,0)" xlink:href="#aw" id="use775" x="0" y="0" width="100%" height="100%"/>
        <use transform="matrix(0.05,0,0,0.05,95.85,0)" xlink:href="#am" id="use777" x="0" y="0" width="100%" height="100%"/>
        <use transform="matrix(0.05,0,0,0.05,105.85,0)" xlink:href="#an" id="use779" x="0" y="0" width="100%" height="100%"/>
        <use transform="matrix(0.05,0,0,0.05,111.8,0)" xlink:href="#al" id="use781" x="0" y="0" width="100%" height="100%"/>
        <use transform="matrix(0.05,0,0,0.05,120.8,0)" xlink:href="#av" id="use783" x="0" y="0" width="100%" height="100%"/>
        <use transform="matrix(0.05,0,0,0.05,130.8,0)" xlink:href="#ak" id="use785" x="0" y="0" width="100%" height="100%"/>
        <use transform="matrix(0.05,0,0,0.05,134.75,0)" xlink:href="#as" id="use787" x="0" y="0" width="100%" height="100%"/>
    </g>
    <path d="M -5,72 V 49 H 204 V 72 H -5" id="aB" inkscape:connector-curvature="0"/>
    <g id="B">
        <use transform="scale(0.05)" xlink:href="#as" id="use791" x="0" y="0" width="100%" height="100%"/>
        <use transform="matrix(0.05,0,0,0.05,10,0)" xlink:href="#am" id="use793" x="0" y="0" width="100%" height="100%"/>
        <use transform="matrix(0.05,0,0,0.05,20,0)" xlink:href="#an" id="use795" x="0" y="0" width="100%" height="100%"/>
        <use transform="matrix(0.05,0,0,0.05,25.95,0)" xlink:href="#ao" id="use797" x="0" y="0" width="100%" height="100%"/>
        <use transform="matrix(0.05,0,0,0.05,40.9,0)" xlink:href="#ak" id="use799" x="0" y="0" width="100%" height="100%"/>
        <use transform="matrix(0.05,0,0,0.05,44.85,0)" xlink:href="#al" id="use801" x="0" y="0" width="100%" height="100%"/>
        <use transform="matrix(0.05,0,0,0.05,53.85,0)" xlink:href="#al" id="use803" x="0" y="0" width="100%" height="100%"/>
        <use transform="matrix(0.05,0,0,0.05,62.85,0)" xlink:href="#ak" id="use805" x="0" y="0" width="100%" height="100%"/>
        <use transform="matrix(0.05,0,0,0.05,66.8,0)" xlink:href="#ae" id="use807" x="0" y="0" width="100%" height="100%"/>
        <use transform="matrix(0.05,0,0,0.05,76.8,0)" xlink:href="#ag" id="use809" x="0" y="0" width="100%" height="100%"/>
        <use transform="matrix(0.05,0,0,0.05,86.8,0)" xlink:href="#aB" id="use811" x="0" y="0" width="100%" height="100%"/>
        <use transform="matrix(0.05,0,0,0.05,96.8,0)" xlink:href="#ad" id="use813" x="0" y="0" width="100%" height="100%"/>
        <use transform="matrix(0.05,0,0,0.05,105.8,0)" xlink:href="#av" id="use815" x="0" y="0" width="100%" height="100%"/>
        <use transform="matrix(0.05,0,0,0.05,115.8,0)" xlink:href="#ac" id="use817" x="0" y="0" width="100%" height="100%"/>
        <use transform="matrix(0.05,0,0,0.05,125.8,0)" xlink:href="#ag" id="use819" x="0" y="0" width="100%" height="100%"/>
        <use transform="matrix(0.05,0,0,0.05,135.8,0)" xlink:href="#aq" id="use821" x="0" y="0" width="100%" height="100%"/>
        <use transform="matrix(0.05,0,0,0.05,145.8,0)" xlink:href="#am" id="use823" x="0" y="0" width="100%" height="100%"/>
        <use transform="matrix(0.05,0,0,0.05,155.8,0)" xlink:href="#aB" id="use825" x="0" y="0" width="100%" height="100%"/>
        <use transform="matrix(0.05,0,0,0.05,165.8,0)" xlink:href="#aq" id="use827" x="0" y="0" width="100%" height="100%"/>
        <use transform="matrix(0.05,0,0,0.05,175.8,0)" xlink:href="#an" id="use829" x="0" y="0" width="100%" height="100%"/>
        <use transform="matrix(0.05,0,0,0.05,181.75,0)" xlink:href="#ae" id="use831" x="0" y="0" width="100%" height="100%"/>
        <use transform="matrix(0.05,0,0,0.05,191.75,0)" xlink:href="#af" id="use833" x="0" y="0" width="100%" height="100%"/>
        <use transform="matrix(0.05,0,0,0.05,201.75,0)" xlink:href="#as" id="use835" x="0" y="0" width="100%" height="100%"/>
        <use transform="matrix(0.05,0,0,0.05,211.75,0)" xlink:href="#aB" id="use837" x="0" y="0" width="100%" height="100%"/>
        <use transform="matrix(0.05,0,0,0.05,221.75,0)" xlink:href="#ag" id="use839" x="0" y="0" width="100%" height="100%"/>
        <use transform="matrix(0.05,0,0,0.05,231.75,0)" xlink:href="#ac" id="use841" x="0" y="0" width="100%" height="100%"/>
        <use transform="matrix(0.05,0,0,0.05,241.75,0)" xlink:href="#ao" id="use843" x="0" y="0" width="100%" height="100%"/>
        <use transform="matrix(0.05,0,0,0.05,256.7,0)" xlink:href="#am" id="use845" x="0" y="0" width="100%" height="100%"/>
    </g>
    <g id="C">
        <use transform="scale(0.05)" xlink:href="#as" id="use848" x="0" y="0" width="100%" height="100%"/>
        <use transform="matrix(0.05,0,0,0.05,10,0)" xlink:href="#am" id="use850" x="0" y="0" width="100%" height="100%"/>
        <use transform="matrix(0.05,0,0,0.05,20,0)" xlink:href="#an" id="use852" x="0" y="0" width="100%" height="100%"/>
        <use transform="matrix(0.05,0,0,0.05,25.95,0)" xlink:href="#ao" id="use854" x="0" y="0" width="100%" height="100%"/>
        <use transform="matrix(0.05,0,0,0.05,40.9,0)" xlink:href="#ak" id="use856" x="0" y="0" width="100%" height="100%"/>
        <use transform="matrix(0.05,0,0,0.05,44.85,0)" xlink:href="#al" id="use858" x="0" y="0" width="100%" height="100%"/>
        <use transform="matrix(0.05,0,0,0.05,53.85,0)" xlink:href="#al" id="use860" x="0" y="0" width="100%" height="100%"/>
        <use transform="matrix(0.05,0,0,0.05,62.85,0)" xlink:href="#ak" id="use862" x="0" y="0" width="100%" height="100%"/>
        <use transform="matrix(0.05,0,0,0.05,66.8,0)" xlink:href="#ae" id="use864" x="0" y="0" width="100%" height="100%"/>
        <use transform="matrix(0.05,0,0,0.05,76.8,0)" xlink:href="#ag" id="use866" x="0" y="0" width="100%" height="100%"/>
        <use transform="matrix(0.05,0,0,0.05,86.8,0)" xlink:href="#aB" id="use868" x="0" y="0" width="100%" height="100%"/>
        <use transform="matrix(0.05,0,0,0.05,96.8,0)" xlink:href="#ao" id="use870" x="0" y="0" width="100%" height="100%"/>
        <use transform="matrix(0.05,0,0,0.05,111.75,0)" xlink:href="#ac" id="use872" x="0" y="0" width="100%" height="100%"/>
        <use transform="matrix(0.05,0,0,0.05,121.75,0)" xlink:href="#ag" id="use874" x="0" y="0" width="100%" height="100%"/>
        <use transform="matrix(0.05,0,0,0.05,131.75,0)" xlink:href="#ac" id="use876" x="0" y="0" width="100%" height="100%"/>
        <use transform="matrix(0.05,0,0,0.05,141.75,0)" xlink:href="#aq" id="use878" x="0" y="0" width="100%" height="100%"/>
        <use transform="matrix(0.05,0,0,0.05,151.75,0)" xlink:href="#am" id="use880" x="0" y="0" width="100%" height="100%"/>
        <use transform="matrix(0.05,0,0,0.05,161.75,0)" xlink:href="#aB" id="use882" x="0" y="0" width="100%" height="100%"/>
        <use transform="matrix(0.05,0,0,0.05,171.75,0)" xlink:href="#ao" id="use884" x="0" y="0" width="100%" height="100%"/>
        <use transform="matrix(0.05,0,0,0.05,186.7,0)" xlink:href="#am" id="use886" x="0" y="0" width="100%" height="100%"/>
        <use transform="matrix(0.05,0,0,0.05,196.7,0)" xlink:href="#ao" id="use888" x="0" y="0" width="100%" height="100%"/>
        <use transform="matrix(0.05,0,0,0.05,211.65,0)" xlink:href="#aw" id="use890" x="0" y="0" width="100%" height="100%"/>
        <use transform="matrix(0.05,0,0,0.05,221.65,0)" xlink:href="#am" id="use892" x="0" y="0" width="100%" height="100%"/>
        <use transform="matrix(0.05,0,0,0.05,231.65,0)" xlink:href="#an" id="use894" x="0" y="0" width="100%" height="100%"/>
        <use transform="matrix(0.05,0,0,0.05,237.6,0)" xlink:href="#al" id="use896" x="0" y="0" width="100%" height="100%"/>
    </g>
    <g id="D">
        <use transform="scale(0.05)" xlink:href="#aw" id="use899" x="0" y="0" width="100%" height="100%"/>
        <use transform="matrix(0.05,0,0,0.05,10,0)" xlink:href="#ae" id="use901" x="0" y="0" width="100%" height="100%"/>
        <use transform="matrix(0.05,0,0,0.05,20,0)" xlink:href="#ae" id="use903" x="0" y="0" width="100%" height="100%"/>
        <use transform="matrix(0.05,0,0,0.05,30,0)" xlink:href="#ar" id="use905" x="0" y="0" width="100%" height="100%"/>
        <use transform="matrix(0.05,0,0,0.05,33.95,0)" xlink:href="#am" id="use907" x="0" y="0" width="100%" height="100%"/>
        <use transform="matrix(0.05,0,0,0.05,43.95,0)" xlink:href="#ac" id="use909" x="0" y="0" width="100%" height="100%"/>
        <use transform="matrix(0.05,0,0,0.05,53.95,0)" xlink:href="#ag" id="use911" x="0" y="0" width="100%" height="100%"/>
    </g>
    <g id="E">
        <use transform="scale(0.05)" xlink:href="#as" id="use914" x="0" y="0" width="100%" height="100%"/>
        <use transform="matrix(0.05,0,0,0.05,10,0)" xlink:href="#am" id="use916" x="0" y="0" width="100%" height="100%"/>
        <use transform="matrix(0.05,0,0,0.05,20,0)" xlink:href="#an" id="use918" x="0" y="0" width="100%" height="100%"/>
        <use transform="matrix(0.05,0,0,0.05,25.95,0)" xlink:href="#ao" id="use920" x="0" y="0" width="100%" height="100%"/>
        <use transform="matrix(0.05,0,0,0.05,40.9,0)" xlink:href="#ak" id="use922" x="0" y="0" width="100%" height="100%"/>
        <use transform="matrix(0.05,0,0,0.05,44.85,0)" xlink:href="#al" id="use924" x="0" y="0" width="100%" height="100%"/>
        <use transform="matrix(0.05,0,0,0.05,53.85,0)" xlink:href="#al" id="use926" x="0" y="0" width="100%" height="100%"/>
        <use transform="matrix(0.05,0,0,0.05,62.85,0)" xlink:href="#ak" id="use928" x="0" y="0" width="100%" height="100%"/>
        <use transform="matrix(0.05,0,0,0.05,66.8,0)" xlink:href="#ae" id="use930" x="0" y="0" width="100%" height="100%"/>
        <use transform="matrix(0.05,0,0,0.05,76.8,0)" xlink:href="#ag" id="use932" x="0" y="0" width="100%" height="100%"/>
        <use transform="matrix(0.05,0,0,0.05,86.8,0)" xlink:href="#aB" id="use934" x="0" y="0" width="100%" height="100%"/>
        <use transform="matrix(0.05,0,0,0.05,96.8,0)" xlink:href="#ad" id="use936" x="0" y="0" width="100%" height="100%"/>
        <use transform="matrix(0.05,0,0,0.05,105.8,0)" xlink:href="#av" id="use938" x="0" y="0" width="100%" height="100%"/>
        <use transform="matrix(0.05,0,0,0.05,115.8,0)" xlink:href="#ac" id="use940" x="0" y="0" width="100%" height="100%"/>
        <use transform="matrix(0.05,0,0,0.05,125.8,0)" xlink:href="#ag" id="use942" x="0" y="0" width="100%" height="100%"/>
        <use transform="matrix(0.05,0,0,0.05,135.8,0)" xlink:href="#aq" id="use944" x="0" y="0" width="100%" height="100%"/>
        <use transform="matrix(0.05,0,0,0.05,145.8,0)" xlink:href="#am" id="use946" x="0" y="0" width="100%" height="100%"/>
        <use transform="matrix(0.05,0,0,0.05,155.8,0)" xlink:href="#aB" id="use948" x="0" y="0" width="100%" height="100%"/>
        <use transform="matrix(0.05,0,0,0.05,165.8,0)" xlink:href="#as" id="use950" x="0" y="0" width="100%" height="100%"/>
        <use transform="matrix(0.05,0,0,0.05,175.8,0)" xlink:href="#am" id="use952" x="0" y="0" width="100%" height="100%"/>
        <use transform="matrix(0.05,0,0,0.05,185.8,0)" xlink:href="#an" id="use954" x="0" y="0" width="100%" height="100%"/>
        <use transform="matrix(0.05,0,0,0.05,191.75,0)" xlink:href="#ao" id="use956" x="0" y="0" width="100%" height="100%"/>
        <use transform="matrix(0.05,0,0,0.05,206.7,0)" xlink:href="#ak" id="use958" x="0" y="0" width="100%" height="100%"/>
        <use transform="matrix(0.05,0,0,0.05,210.65,0)" xlink:href="#al" id="use960" x="0" y="0" width="100%" height="100%"/>
        <use transform="matrix(0.05,0,0,0.05,219.65,0)" xlink:href="#al" id="use962" x="0" y="0" width="100%" height="100%"/>
        <use transform="matrix(0.05,0,0,0.05,228.65,0)" xlink:href="#ak" id="use964" x="0" y="0" width="100%" height="100%"/>
        <use transform="matrix(0.05,0,0,0.05,232.6,0)" xlink:href="#ae" id="use966" x="0" y="0" width="100%" height="100%"/>
        <use transform="matrix(0.05,0,0,0.05,242.6,0)" xlink:href="#ag" id="use968" x="0" y="0" width="100%" height="100%"/>
        <use transform="matrix(0.05,0,0,0.05,252.6,0)" xlink:href="#al" id="use970" x="0" y="0" width="100%" height="100%"/>
    </g>
    <g id="F">
        <use transform="scale(0.05)" xlink:href="#as" id="use973" x="0" y="0" width="100%" height="100%"/>
        <use transform="matrix(0.05,0,0,0.05,10,0)" xlink:href="#am" id="use975" x="0" y="0" width="100%" height="100%"/>
        <use transform="matrix(0.05,0,0,0.05,20,0)" xlink:href="#an" id="use977" x="0" y="0" width="100%" height="100%"/>
        <use transform="matrix(0.05,0,0,0.05,25.95,0)" xlink:href="#ao" id="use979" x="0" y="0" width="100%" height="100%"/>
        <use transform="matrix(0.05,0,0,0.05,40.9,0)" xlink:href="#ak" id="use981" x="0" y="0" width="100%" height="100%"/>
        <use transform="matrix(0.05,0,0,0.05,44.85,0)" xlink:href="#al" id="use983" x="0" y="0" width="100%" height="100%"/>
        <use transform="matrix(0.05,0,0,0.05,53.85,0)" xlink:href="#al" id="use985" x="0" y="0" width="100%" height="100%"/>
        <use transform="matrix(0.05,0,0,0.05,62.85,0)" xlink:href="#ak" id="use987" x="0" y="0" width="100%" height="100%"/>
        <use transform="matrix(0.05,0,0,0.05,66.8,0)" xlink:href="#ae" id="use989" x="0" y="0" width="100%" height="100%"/>
        <use transform="matrix(0.05,0,0,0.05,76.8,0)" xlink:href="#ag" id="use991" x="0" y="0" width="100%" height="100%"/>
        <use transform="matrix(0.05,0,0,0.05,86.8,0)" xlink:href="#aB" id="use993" x="0" y="0" width="100%" height="100%"/>
        <use transform="matrix(0.05,0,0,0.05,96.8,0)" xlink:href="#ad" id="use995" x="0" y="0" width="100%" height="100%"/>
        <use transform="matrix(0.05,0,0,0.05,105.8,0)" xlink:href="#an" id="use997" x="0" y="0" width="100%" height="100%"/>
        <use transform="matrix(0.05,0,0,0.05,111.75,0)" xlink:href="#am" id="use999" x="0" y="0" width="100%" height="100%"/>
        <use transform="matrix(0.05,0,0,0.05,121.75,0)" xlink:href="#ac" id="use1001" x="0" y="0" width="100%" height="100%"/>
        <use transform="matrix(0.05,0,0,0.05,131.75,0)" xlink:href="#ah" id="use1003" x="0" y="0" width="100%" height="100%"/>
        <use transform="matrix(0.05,0,0,0.05,136.75,0)" xlink:href="#am" id="use1005" x="0" y="0" width="100%" height="100%"/>
        <use transform="matrix(0.05,0,0,0.05,146.75,0)" xlink:href="#aB" id="use1007" x="0" y="0" width="100%" height="100%"/>
        <use transform="matrix(0.05,0,0,0.05,156.75,0)" xlink:href="#am" id="use1009" x="0" y="0" width="100%" height="100%"/>
        <use transform="matrix(0.05,0,0,0.05,166.75,0)" xlink:href="#ay" id="use1011" x="0" y="0" width="100%" height="100%"/>
        <use transform="matrix(0.05,0,0,0.05,175.75,0)" xlink:href="#am" id="use1013" x="0" y="0" width="100%" height="100%"/>
        <use transform="matrix(0.05,0,0,0.05,185.75,0)" xlink:href="#ag" id="use1015" x="0" y="0" width="100%" height="100%"/>
        <use transform="matrix(0.05,0,0,0.05,195.75,0)" xlink:href="#ah" id="use1017" x="0" y="0" width="100%" height="100%"/>
    </g>
    <g id="G">
        <use transform="scale(0.05)" xlink:href="#as" id="use1020" x="0" y="0" width="100%" height="100%"/>
        <use transform="matrix(0.05,0,0,0.05,10,0)" xlink:href="#am" id="use1022" x="0" y="0" width="100%" height="100%"/>
        <use transform="matrix(0.05,0,0,0.05,20,0)" xlink:href="#an" id="use1024" x="0" y="0" width="100%" height="100%"/>
        <use transform="matrix(0.05,0,0,0.05,25.95,0)" xlink:href="#ao" id="use1026" x="0" y="0" width="100%" height="100%"/>
        <use transform="matrix(0.05,0,0,0.05,40.9,0)" xlink:href="#ak" id="use1028" x="0" y="0" width="100%" height="100%"/>
        <use transform="matrix(0.05,0,0,0.05,44.85,0)" xlink:href="#al" id="use1030" x="0" y="0" width="100%" height="100%"/>
        <use transform="matrix(0.05,0,0,0.05,53.85,0)" xlink:href="#al" id="use1032" x="0" y="0" width="100%" height="100%"/>
        <use transform="matrix(0.05,0,0,0.05,62.85,0)" xlink:href="#ak" id="use1034" x="0" y="0" width="100%" height="100%"/>
        <use transform="matrix(0.05,0,0,0.05,66.8,0)" xlink:href="#ae" id="use1036" x="0" y="0" width="100%" height="100%"/>
        <use transform="matrix(0.05,0,0,0.05,76.8,0)" xlink:href="#ag" id="use1038" x="0" y="0" width="100%" height="100%"/>
        <use transform="matrix(0.05,0,0,0.05,86.8,0)" xlink:href="#aB" id="use1040" x="0" y="0" width="100%" height="100%"/>
        <use transform="matrix(0.05,0,0,0.05,96.8,0)" xlink:href="#am" id="use1042" x="0" y="0" width="100%" height="100%"/>
        <use transform="matrix(0.05,0,0,0.05,106.8,0)" xlink:href="#au" id="use1044" x="0" y="0" width="100%" height="100%"/>
        <use transform="matrix(0.05,0,0,0.05,116.8,0)" xlink:href="#ak" id="use1046" x="0" y="0" width="100%" height="100%"/>
        <use transform="matrix(0.05,0,0,0.05,120.75,0)" xlink:href="#ah" id="use1048" x="0" y="0" width="100%" height="100%"/>
        <use transform="matrix(0.05,0,0,0.05,125.75,0)" xlink:href="#aB" id="use1050" x="0" y="0" width="100%" height="100%"/>
        <use transform="matrix(0.05,0,0,0.05,135.75,0)" xlink:href="#ac" id="use1052" x="0" y="0" width="100%" height="100%"/>
        <use transform="matrix(0.05,0,0,0.05,145.75,0)" xlink:href="#ag" id="use1054" x="0" y="0" width="100%" height="100%"/>
        <use transform="matrix(0.05,0,0,0.05,155.75,0)" xlink:href="#az" id="use1056" x="0" y="0" width="100%" height="100%"/>
        <use transform="matrix(0.05,0,0,0.05,164.75,0)" xlink:href="#aB" id="use1058" x="0" y="0" width="100%" height="100%"/>
        <use transform="matrix(0.05,0,0,0.05,174.75,0)" xlink:href="#am" id="use1060" x="0" y="0" width="100%" height="100%"/>
        <use transform="matrix(0.05,0,0,0.05,184.75,0)" xlink:href="#ay" id="use1062" x="0" y="0" width="100%" height="100%"/>
        <use transform="matrix(0.05,0,0,0.05,193.75,0)" xlink:href="#am" id="use1064" x="0" y="0" width="100%" height="100%"/>
        <use transform="matrix(0.05,0,0,0.05,203.75,0)" xlink:href="#ag" id="use1066" x="0" y="0" width="100%" height="100%"/>
        <use transform="matrix(0.05,0,0,0.05,213.75,0)" xlink:href="#ah" id="use1068" x="0" y="0" width="100%" height="100%"/>
    </g>
    <g id="H">
        <use transform="scale(0.05)" xlink:href="#as" id="use1071" x="0" y="0" width="100%" height="100%"/>
        <use transform="matrix(0.05,0,0,0.05,10,0)" xlink:href="#am" id="use1073" x="0" y="0" width="100%" height="100%"/>
        <use transform="matrix(0.05,0,0,0.05,20,0)" xlink:href="#an" id="use1075" x="0" y="0" width="100%" height="100%"/>
        <use transform="matrix(0.05,0,0,0.05,25.95,0)" xlink:href="#ao" id="use1077" x="0" y="0" width="100%" height="100%"/>
        <use transform="matrix(0.05,0,0,0.05,40.9,0)" xlink:href="#ak" id="use1079" x="0" y="0" width="100%" height="100%"/>
        <use transform="matrix(0.05,0,0,0.05,44.85,0)" xlink:href="#al" id="use1081" x="0" y="0" width="100%" height="100%"/>
        <use transform="matrix(0.05,0,0,0.05,53.85,0)" xlink:href="#al" id="use1083" x="0" y="0" width="100%" height="100%"/>
        <use transform="matrix(0.05,0,0,0.05,62.85,0)" xlink:href="#ak" id="use1085" x="0" y="0" width="100%" height="100%"/>
        <use transform="matrix(0.05,0,0,0.05,66.8,0)" xlink:href="#ae" id="use1087" x="0" y="0" width="100%" height="100%"/>
        <use transform="matrix(0.05,0,0,0.05,76.8,0)" xlink:href="#ag" id="use1089" x="0" y="0" width="100%" height="100%"/>
        <use transform="matrix(0.05,0,0,0.05,86.8,0)" xlink:href="#aB" id="use1091" x="0" y="0" width="100%" height="100%"/>
        <use transform="matrix(0.05,0,0,0.05,96.8,0)" xlink:href="#ad" id="use1093" x="0" y="0" width="100%" height="100%"/>
        <use transform="matrix(0.05,0,0,0.05,105.8,0)" xlink:href="#an" id="use1095" x="0" y="0" width="100%" height="100%"/>
        <use transform="matrix(0.05,0,0,0.05,111.75,0)" xlink:href="#am" id="use1097" x="0" y="0" width="100%" height="100%"/>
        <use transform="matrix(0.05,0,0,0.05,121.75,0)" xlink:href="#ac" id="use1099" x="0" y="0" width="100%" height="100%"/>
        <use transform="matrix(0.05,0,0,0.05,131.75,0)" xlink:href="#ah" id="use1101" x="0" y="0" width="100%" height="100%"/>
        <use transform="matrix(0.05,0,0,0.05,136.75,0)" xlink:href="#am" id="use1103" x="0" y="0" width="100%" height="100%"/>
        <use transform="matrix(0.05,0,0,0.05,146.75,0)" xlink:href="#aB" id="use1105" x="0" y="0" width="100%" height="100%"/>
        <use transform="matrix(0.05,0,0,0.05,156.75,0)" xlink:href="#as" id="use1107" x="0" y="0" width="100%" height="100%"/>
        <use transform="matrix(0.05,0,0,0.05,166.75,0)" xlink:href="#ae" id="use1109" x="0" y="0" width="100%" height="100%"/>
        <use transform="matrix(0.05,0,0,0.05,176.75,0)" xlink:href="#ar" id="use1111" x="0" y="0" width="100%" height="100%"/>
        <use transform="matrix(0.05,0,0,0.05,180.7,0)" xlink:href="#ar" id="use1113" x="0" y="0" width="100%" height="100%"/>
    </g>
    <g id="I">
        <use transform="scale(0.05)" xlink:href="#as" id="use1116" x="0" y="0" width="100%" height="100%"/>
        <use transform="matrix(0.05,0,0,0.05,10,0)" xlink:href="#am" id="use1118" x="0" y="0" width="100%" height="100%"/>
        <use transform="matrix(0.05,0,0,0.05,20,0)" xlink:href="#an" id="use1120" x="0" y="0" width="100%" height="100%"/>
        <use transform="matrix(0.05,0,0,0.05,25.95,0)" xlink:href="#ao" id="use1122" x="0" y="0" width="100%" height="100%"/>
        <use transform="matrix(0.05,0,0,0.05,40.9,0)" xlink:href="#ak" id="use1124" x="0" y="0" width="100%" height="100%"/>
        <use transform="matrix(0.05,0,0,0.05,44.85,0)" xlink:href="#al" id="use1126" x="0" y="0" width="100%" height="100%"/>
        <use transform="matrix(0.05,0,0,0.05,53.85,0)" xlink:href="#al" id="use1128" x="0" y="0" width="100%" height="100%"/>
        <use transform="matrix(0.05,0,0,0.05,62.85,0)" xlink:href="#ak" id="use1130" x="0" y="0" width="100%" height="100%"/>
        <use transform="matrix(0.05,0,0,0.05,66.8,0)" xlink:href="#ae" id="use1132" x="0" y="0" width="100%" height="100%"/>
        <use transform="matrix(0.05,0,0,0.05,76.8,0)" xlink:href="#ag" id="use1134" x="0" y="0" width="100%" height="100%"/>
        <use transform="matrix(0.05,0,0,0.05,86.8,0)" xlink:href="#aB" id="use1136" x="0" y="0" width="100%" height="100%"/>
        <use transform="matrix(0.05,0,0,0.05,96.8,0)" xlink:href="#am" id="use1138" x="0" y="0" width="100%" height="100%"/>
        <use transform="matrix(0.05,0,0,0.05,106.8,0)" xlink:href="#au" id="use1140" x="0" y="0" width="100%" height="100%"/>
        <use transform="matrix(0.05,0,0,0.05,116.8,0)" xlink:href="#ak" id="use1142" x="0" y="0" width="100%" height="100%"/>
        <use transform="matrix(0.05,0,0,0.05,120.75,0)" xlink:href="#ah" id="use1144" x="0" y="0" width="100%" height="100%"/>
        <use transform="matrix(0.05,0,0,0.05,125.75,0)" xlink:href="#aB" id="use1146" x="0" y="0" width="100%" height="100%"/>
        <use transform="matrix(0.05,0,0,0.05,135.75,0)" xlink:href="#ac" id="use1148" x="0" y="0" width="100%" height="100%"/>
        <use transform="matrix(0.05,0,0,0.05,145.75,0)" xlink:href="#ag" id="use1150" x="0" y="0" width="100%" height="100%"/>
        <use transform="matrix(0.05,0,0,0.05,155.75,0)" xlink:href="#az" id="use1152" x="0" y="0" width="100%" height="100%"/>
        <use transform="matrix(0.05,0,0,0.05,164.75,0)" xlink:href="#aB" id="use1154" x="0" y="0" width="100%" height="100%"/>
        <use transform="matrix(0.05,0,0,0.05,174.75,0)" xlink:href="#as" id="use1156" x="0" y="0" width="100%" height="100%"/>
        <use transform="matrix(0.05,0,0,0.05,184.75,0)" xlink:href="#ae" id="use1158" x="0" y="0" width="100%" height="100%"/>
        <use transform="matrix(0.05,0,0,0.05,194.75,0)" xlink:href="#ar" id="use1160" x="0" y="0" width="100%" height="100%"/>
        <use transform="matrix(0.05,0,0,0.05,198.7,0)" xlink:href="#ar" id="use1162" x="0" y="0" width="100%" height="100%"/>
    </g>
    <path d="M 106,-169 C 34,-169 62,-67 57,0 H 25 v -261 h 32 l -1,103 c 12,-21 28,-36 61,-36 89,0 53,116 60,194 h -32 v -121 c 2,-32 -8,-49 -39,-48" id="aC" inkscape:connector-curvature="0" style="fill:#494949"/>
    <path d="M 141,-36 C 126,-15 110,5 73,4 37,3 15,-17 15,-53 c -1,-64 63,-63 125,-63 3,-35 -9,-54 -41,-54 -24,1 -41,7 -42,31 l -33,-3 c 5,-37 33,-52 76,-52 45,0 72,20 72,64 v 82 c -1,20 7,32 28,27 V -1 C 169,8 139,-3 141,-36 Z M 48,-53 c 0,20 12,33 32,33 41,-3 63,-29 60,-74 -43,2 -92,-5 -92,41" id="aD" inkscape:connector-curvature="0" style="fill:#494949"/>
    <path d="m 135,-143 c -3,-34 -86,-38 -87,0 15,53 115,12 119,90 4,78 -150,74 -157,8 l 28,-5 c 4,36 97,45 98,0 -10,-56 -113,-15 -118,-90 -4,-57 82,-63 122,-42 12,7 21,19 24,35" id="aE" inkscape:connector-curvature="0" style="fill:#494949"/>
    <g id="J">
        <use transform="scale(0.05)" xlink:href="#aC" id="use1168" x="0" y="0" width="100%" height="100%"/>
        <use transform="matrix(0.05,0,0,0.05,10,0)" xlink:href="#aD" id="use1170" x="0" y="0" width="100%" height="100%"/>
        <use transform="matrix(0.05,0,0,0.05,20,0)" xlink:href="#aE" id="use1172" x="0" y="0" width="100%" height="100%"/>
    </g>
    <path d="m 115,-194 c 53,0 69,39 70,98 C 185,-30 162,4 115,4 84,3 66,-7 56,-30 L 54,0 H 23 l 1,-261 h 32 v 101 c 10,-23 28,-34 59,-34 z m -8,174 c 40,0 45,-34 45,-75 0,-40 -5,-75 -45,-74 -42,0 -51,32 -51,76 0,43 10,73 51,73" id="aF" inkscape:connector-curvature="0" style="fill:#494949"/>
    <path d="m 100,-194 c 63,0 86,42 84,106 H 49 c 0,40 14,67 53,68 26,1 43,-12 49,-29 l 28,8 C 168,-13 142,4 102,4 44,4 14,-33 15,-96 c 1,-61 26,-98 85,-98 z m 52,81 c 6,-60 -76,-77 -97,-28 -3,7 -6,17 -6,28 h 103" id="aG" inkscape:connector-curvature="0" style="fill:#494949"/>
    <path d="M 24,0 V -261 H 56 V 0 H 24" id="aH" inkscape:connector-curvature="0" style="fill:#494949"/>
    <path d="m 100,-194 c 62,-1 85,37 85,99 1,63 -27,99 -86,99 -59,0 -83,-39 -84,-99 0,-66 28,-99 85,-99 z m -1,174 c 44,1 53,-31 53,-75 0,-43 -8,-75 -51,-75 -43,0 -53,32 -53,75 0,43 10,74 51,75" id="aI" inkscape:connector-curvature="0" style="fill:#494949"/>
    <path d="m 117,-194 c 89,-4 53,116 60,194 h -32 v -121 c 0,-31 -8,-49 -39,-48 C 34,-167 62,-67 57,0 H 25 l -1,-190 h 30 c 1,10 -1,24 2,32 11,-22 29,-35 61,-36" id="aJ" inkscape:connector-curvature="0" style="fill:#494949"/>
    <path d="M 177,-190 C 167,-65 218,103 67,71 44,65 29,51 23,28 L 55,23 C 70,70 155,55 144,-5 V -35 C 133,-14 115,1 83,1 29,1 15,-40 15,-95 c 0,-56 16,-97 71,-98 29,-1 48,16 59,35 1,-10 0,-23 2,-32 z M 94,-22 c 36,0 50,-32 50,-73 0,-42 -14,-75 -50,-75 -39,0 -46,34 -46,75 0,41 6,73 46,73" id="aK" inkscape:connector-curvature="0" style="fill:#494949"/>
    <g id="K">
        <use transform="scale(0.05)" xlink:href="#aF" id="use1181" x="0" y="0" width="100%" height="100%"/>
        <use transform="matrix(0.05,0,0,0.05,10,0)" xlink:href="#aG" id="use1183" x="0" y="0" width="100%" height="100%"/>
        <use transform="matrix(0.05,0,0,0.05,20,0)" xlink:href="#aH" id="use1185" x="0" y="0" width="100%" height="100%"/>
        <use transform="matrix(0.05,0,0,0.05,23.95,0)" xlink:href="#aI" id="use1187" x="0" y="0" width="100%" height="100%"/>
        <use transform="matrix(0.05,0,0,0.05,33.95,0)" xlink:href="#aJ" id="use1189" x="0" y="0" width="100%" height="100%"/>
        <use transform="matrix(0.05,0,0,0.05,43.95,0)" xlink:href="#aK" id="use1191" x="0" y="0" width="100%" height="100%"/>
        <use transform="matrix(0.05,0,0,0.05,53.95,0)" xlink:href="#aE" id="use1193" x="0" y="0" width="100%" height="100%"/>
    </g>
    <path d="m 59,-47 c -2,24 18,29 38,22 V -1 C 64,9 27,4 27,-40 V -167 H 5 v -23 h 24 l 9,-43 h 21 v 43 h 35 v 23 H 59 v 120" id="aL" inkscape:connector-curvature="0" style="fill:#494949"/>
    <g id="L">
        <use transform="scale(0.05)" xlink:href="#aL" id="use1197" x="0" y="0" width="100%" height="100%"/>
        <use transform="matrix(0.05,0,0,0.05,5,0)" xlink:href="#aI" id="use1199" x="0" y="0" width="100%" height="100%"/>
    </g>
    <path d="m 24,-231 v -30 h 32 v 30 z M 24,0 V -190 H 56 V 0 H 24" id="aM" inkscape:connector-curvature="0" style="fill:#494949"/>
    <g id="M">
        <use transform="scale(0.05)" xlink:href="#aM" id="use1203" x="0" y="0" width="100%" height="100%"/>
        <use transform="matrix(0.05,0,0,0.05,3.95,0)" xlink:href="#aE" id="use1205" x="0" y="0" width="100%" height="100%"/>
    </g>
    <path d="m 96,-169 c -40,0 -48,33 -48,73 0,40 9,75 48,75 24,0 41,-14 43,-38 l 32,2 C 165,-20 140,4 97,4 38,4 21,-37 15,-95 c -10,-93 101,-131 147,-64 4,7 5,14 7,22 l -32,3 c -4,-21 -16,-35 -41,-35" id="aN" inkscape:connector-curvature="0" style="fill:#494949"/>
    <g id="N">
        <use transform="scale(0.05)" xlink:href="#aN" id="use1209" x="0" y="0" width="100%" height="100%"/>
        <use transform="matrix(0.05,0,0,0.05,9,0)" xlink:href="#aI" id="use1211" x="0" y="0" width="100%" height="100%"/>
        <use transform="matrix(0.05,0,0,0.05,19,0)" xlink:href="#aJ" id="use1213" x="0" y="0" width="100%" height="100%"/>
        <use transform="matrix(0.05,0,0,0.05,29,0)" xlink:href="#aL" id="use1215" x="0" y="0" width="100%" height="100%"/>
        <use transform="matrix(0.05,0,0,0.05,34,0)" xlink:href="#aD" id="use1217" x="0" y="0" width="100%" height="100%"/>
        <use transform="matrix(0.05,0,0,0.05,44,0)" xlink:href="#aN" id="use1219" x="0" y="0" width="100%" height="100%"/>
        <use transform="matrix(0.05,0,0,0.05,53,0)" xlink:href="#aL" id="use1221" x="0" y="0" width="100%" height="100%"/>
    </g>
    <path d="m 101,-234 c -31,-9 -42,10 -38,44 h 38 v 23 H 63 V 0 H 32 V -167 H 5 v -23 h 27 c -7,-52 17,-82 69,-68 v 24" id="aO" inkscape:connector-curvature="0" style="fill:#494949"/>
    <g id="O">
        <use transform="scale(0.05)" xlink:href="#aI" id="use1225" x="0" y="0" width="100%" height="100%"/>
        <use transform="matrix(0.05,0,0,0.05,10,0)" xlink:href="#aO" id="use1227" x="0" y="0" width="100%" height="100%"/>
    </g>
    <path d="M 143,0 79,-87 56,-68 V 0 H 24 v -261 h 32 v 163 l 83,-92 h 37 l -77,82 82,108 h -38" id="aP" inkscape:connector-curvature="0" style="fill:#494949"/>
    <g id="P">
        <use transform="scale(0.05)" xlink:href="#aF" id="use1231" x="0" y="0" width="100%" height="100%"/>
        <use transform="matrix(0.05,0,0,0.05,10,0)" xlink:href="#aH" id="use1233" x="0" y="0" width="100%" height="100%"/>
        <use transform="matrix(0.05,0,0,0.05,13.95,0)" xlink:href="#aI" id="use1235" x="0" y="0" width="100%" height="100%"/>
        <use transform="matrix(0.05,0,0,0.05,23.95,0)" xlink:href="#aN" id="use1237" x="0" y="0" width="100%" height="100%"/>
        <use transform="matrix(0.05,0,0,0.05,32.95,0)" xlink:href="#aP" id="use1239" x="0" y="0" width="100%" height="100%"/>
        <use transform="matrix(0.05,0,0,0.05,41.95,0)" xlink:href="#aE" id="use1241" x="0" y="0" width="100%" height="100%"/>
    </g>
    <path d="M 108,0 H 70 L 1,-190 h 34 l 54,165 56,-165 h 34" id="aQ" inkscape:connector-curvature="0" style="fill:#494949"/>
    <g id="Q">
        <use transform="scale(0.05)" xlink:href="#aQ" id="use1245" x="0" y="0" width="100%" height="100%"/>
        <use transform="matrix(0.05,0,0,0.05,9,0)" xlink:href="#aI" id="use1247" x="0" y="0" width="100%" height="100%"/>
        <use transform="matrix(0.05,0,0,0.05,19,0)" xlink:href="#aL" id="use1249" x="0" y="0" width="100%" height="100%"/>
        <use transform="matrix(0.05,0,0,0.05,24,0)" xlink:href="#aG" id="use1251" x="0" y="0" width="100%" height="100%"/>
        <use transform="matrix(0.05,0,0,0.05,34,0)" xlink:href="#aE" id="use1253" x="0" y="0" width="100%" height="100%"/>
    </g>
    <path d="M 114,-163 C 36,-179 61,-72 57,0 H 25 l -1,-190 h 30 c 1,12 -1,29 2,39 6,-27 23,-49 58,-41 v 29" id="aR" inkscape:connector-curvature="0" style="fill:#494949"/>
    <g id="R">
        <use transform="scale(0.05)" xlink:href="#aO" id="use1257" x="0" y="0" width="100%" height="100%"/>
        <use transform="matrix(0.05,0,0,0.05,5,0)" xlink:href="#aI" id="use1259" x="0" y="0" width="100%" height="100%"/>
        <use transform="matrix(0.05,0,0,0.05,15,0)" xlink:href="#aR" id="use1261" x="0" y="0" width="100%" height="100%"/>
    </g>
    <path d="m 85,-194 c 31,0 48,13 60,33 l -1,-100 h 32 l 1,261 h -30 c -2,-10 0,-23 -3,-31 C 134,-8 116,4 85,4 32,4 16,-35 15,-94 c 0,-66 23,-100 70,-100 z m 9,24 c -40,0 -46,34 -46,75 0,40 6,74 45,74 42,0 51,-32 51,-76 0,-42 -9,-74 -50,-73" id="aS" inkscape:connector-curvature="0" style="fill:#494949"/>
    <g id="S">
        <use transform="scale(0.05)" xlink:href="#aN" id="use1265" x="0" y="0" width="100%" height="100%"/>
        <use transform="matrix(0.05,0,0,0.05,9,0)" xlink:href="#aR" id="use1267" x="0" y="0" width="100%" height="100%"/>
        <use transform="matrix(0.05,0,0,0.05,14.95,0)" xlink:href="#aG" id="use1269" x="0" y="0" width="100%" height="100%"/>
        <use transform="matrix(0.05,0,0,0.05,24.95,0)" xlink:href="#aD" id="use1271" x="0" y="0" width="100%" height="100%"/>
        <use transform="matrix(0.05,0,0,0.05,34.95,0)" xlink:href="#aL" id="use1273" x="0" y="0" width="100%" height="100%"/>
        <use transform="matrix(0.05,0,0,0.05,39.95,0)" xlink:href="#aG" id="use1275" x="0" y="0" width="100%" height="100%"/>
        <use transform="matrix(0.05,0,0,0.05,49.95,0)" xlink:href="#aS" id="use1277" x="0" y="0" width="100%" height="100%"/>
    </g>
    <path d="M 30,0 V -248 H 63 V -27 H 188 V 0 H 30" id="aT" inkscape:connector-curvature="0"/>
    <g id="T">
        <use transform="scale(0.05)" xlink:href="#aT" id="use1281" x="0" y="0" width="100%" height="100%"/>
        <use transform="matrix(0.05,0,0,0.05,10,0)" xlink:href="#am" id="use1283" x="0" y="0" width="100%" height="100%"/>
        <use transform="matrix(0.05,0,0,0.05,20,0)" xlink:href="#al" id="use1285" x="0" y="0" width="100%" height="100%"/>
        <use transform="matrix(0.05,0,0,0.05,29,0)" xlink:href="#am" id="use1287" x="0" y="0" width="100%" height="100%"/>
        <use transform="matrix(0.05,0,0,0.05,39,0)" xlink:href="#an" id="use1289" x="0" y="0" width="100%" height="100%"/>
        <use transform="matrix(0.05,0,0,0.05,44.95,0)" xlink:href="#ak" id="use1291" x="0" y="0" width="100%" height="100%"/>
        <use transform="matrix(0.05,0,0,0.05,48.9,0)" xlink:href="#ad" id="use1293" x="0" y="0" width="100%" height="100%"/>
        <use transform="matrix(0.05,0,0,0.05,57.9,0)" xlink:href="#av" id="use1295" x="0" y="0" width="100%" height="100%"/>
        <use transform="matrix(0.05,0,0,0.05,67.9,0)" xlink:href="#ah" id="use1297" x="0" y="0" width="100%" height="100%"/>
        <use transform="matrix(0.05,0,0,0.05,72.9,0)" xlink:href="#af" id="use1299" x="0" y="0" width="100%" height="100%"/>
        <use transform="matrix(0.05,0,0,0.05,82.9,0)" xlink:href="#ag" id="use1301" x="0" y="0" width="100%" height="100%"/>
        <use transform="matrix(0.05,0,0,0.05,92.9,0)" xlink:href="#aq" id="use1303" x="0" y="0" width="100%" height="100%"/>
    </g>
    <path d="m 140,-251 c 81,0 123,46 123,126 C 263,-46 219,4 140,4 59,4 17,-45 17,-125 c 0,-80 42,-126 123,-126 z m 0,227 c 63,0 89,-41 89,-101 0,-60 -29,-99 -89,-99 -61,0 -89,39 -89,99 0,60 28,100 89,101" id="aU" inkscape:connector-curvature="0"/>
    <g id="U">
        <use transform="scale(0.05)" xlink:href="#aU" id="use1307" x="0" y="0" width="100%" height="100%"/>
        <use transform="matrix(0.05,0,0,0.05,14,0)" xlink:href="#aw" id="use1309" x="0" y="0" width="100%" height="100%"/>
        <use transform="matrix(0.05,0,0,0.05,24,0)" xlink:href="#am" id="use1311" x="0" y="0" width="100%" height="100%"/>
        <use transform="matrix(0.05,0,0,0.05,34,0)" xlink:href="#ag" id="use1313" x="0" y="0" width="100%" height="100%"/>
    </g>
    <g id="V">
        <use transform="scale(0.05)" xlink:href="#ag" id="use1316" x="0" y="0" width="100%" height="100%"/>
        <use transform="matrix(0.05,0,0,0.05,10,0)" xlink:href="#ac" id="use1318" x="0" y="0" width="100%" height="100%"/>
        <use transform="matrix(0.05,0,0,0.05,20,0)" xlink:href="#ad" id="use1320" x="0" y="0" width="100%" height="100%"/>
        <use transform="matrix(0.05,0,0,0.05,29,0)" xlink:href="#av" id="use1322" x="0" y="0" width="100%" height="100%"/>
    </g>
    <path d="M 232,-93 C 231,-28 192,4 128,4 67,4 28,-28 28,-90 v -158 h 33 c 8,89 -33,224 67,224 102,0 64,-133 71,-224 h 33 v 155" id="aV" inkscape:connector-curvature="0"/>
    <g id="W">
        <use transform="scale(0.05)" xlink:href="#aV" id="use1326" x="0" y="0" width="100%" height="100%"/>
        <use transform="matrix(0.05,0,0,0.05,12.95,0)" xlink:href="#ag" id="use1328" x="0" y="0" width="100%" height="100%"/>
        <use transform="matrix(0.05,0,0,0.05,22.95,0)" xlink:href="#ah" id="use1330" x="0" y="0" width="100%" height="100%"/>
        <use transform="matrix(0.05,0,0,0.05,27.95,0)" xlink:href="#am" id="use1332" x="0" y="0" width="100%" height="100%"/>
        <use transform="matrix(0.05,0,0,0.05,37.95,0)" xlink:href="#ag" id="use1334" x="0" y="0" width="100%" height="100%"/>
    </g>
    <g id="X">
        <use transform="scale(0.05)" xlink:href="#au" id="use1337" x="0" y="0" width="100%" height="100%"/>
        <use transform="matrix(0.05,0,0,0.05,10,0)" xlink:href="#ac" id="use1339" x="0" y="0" width="100%" height="100%"/>
        <use transform="matrix(0.05,0,0,0.05,20,0)" xlink:href="#ag" id="use1341" x="0" y="0" width="100%" height="100%"/>
        <use transform="matrix(0.05,0,0,0.05,30,0)" xlink:href="#ag" id="use1343" x="0" y="0" width="100%" height="100%"/>
    </g>
    <path d="M 143,0 79,-87 56,-68 V 0 H 24 v -261 h 32 v 163 l 83,-92 h 37 l -77,82 82,108 h -38" id="aW" inkscape:connector-curvature="0"/>
    <g id="Y">
        <use transform="scale(0.05)" xlink:href="#aT" id="use1347" x="0" y="0" width="100%" height="100%"/>
        <use transform="matrix(0.05,0,0,0.05,10,0)" xlink:href="#ak" id="use1349" x="0" y="0" width="100%" height="100%"/>
        <use transform="matrix(0.05,0,0,0.05,13.95,0)" xlink:href="#ag" id="use1351" x="0" y="0" width="100%" height="100%"/>
        <use transform="matrix(0.05,0,0,0.05,23.95,0)" xlink:href="#aW" id="use1353" x="0" y="0" width="100%" height="100%"/>
        <use transform="matrix(0.05,0,0,0.05,32.95,0)" xlink:href="#al" id="use1355" x="0" y="0" width="100%" height="100%"/>
    </g>
    <path d="m 233,-177 c -1,41 -23,64 -60,70 L 243,0 H 205 L 140,-103 H 63 V 0 H 30 v -248 c 88,3 205,-21 203,71 z m -170,48 c 60,-2 137,13 137,-47 0,-61 -80,-42 -137,-45 v 92" id="aX" inkscape:connector-curvature="0"/>
    <g id="Z">
        <use transform="scale(0.05)" xlink:href="#aX" id="use1359" x="0" y="0" width="100%" height="100%"/>
        <use transform="matrix(0.05,0,0,0.05,12.95,0)" xlink:href="#am" id="use1361" x="0" y="0" width="100%" height="100%"/>
        <use transform="matrix(0.05,0,0,0.05,22.95,0)" xlink:href="#ad" id="use1363" x="0" y="0" width="100%" height="100%"/>
        <use transform="matrix(0.05,0,0,0.05,31.95,0)" xlink:href="#av" id="use1365" x="0" y="0" width="100%" height="100%"/>
        <use transform="matrix(0.05,0,0,0.05,41.95,0)" xlink:href="#ah" id="use1367" x="0" y="0" width="100%" height="100%"/>
        <use transform="matrix(0.05,0,0,0.05,46.95,0)" xlink:href="#al" id="use1369" x="0" y="0" width="100%" height="100%"/>
    </g>
    <path d="m 115,-194 c 55,1 70,41 70,98 C 185,-39 169,2 115,4 84,4 66,-9 55,-30 L 56,75 H 24 l -1,-265 h 31 l 2,30 c 10,-21 28,-34 59,-34 z m -8,174 c 40,0 45,-34 45,-75 0,-41 -6,-73 -45,-74 -42,0 -51,32 -51,76 0,43 10,73 51,73" id="aY" inkscape:connector-curvature="0" style="fill:#494949"/>
    <g id="aa">
        <use transform="scale(0.05)" xlink:href="#aY" id="use1373" x="0" y="0" width="100%" height="100%"/>
        <use transform="matrix(0.05,0,0,0.05,10,0)" xlink:href="#aD" id="use1375" x="0" y="0" width="100%" height="100%"/>
        <use transform="matrix(0.05,0,0,0.05,20,0)" xlink:href="#aR" id="use1377" x="0" y="0" width="100%" height="100%"/>
        <use transform="matrix(0.05,0,0,0.05,25.95,0)" xlink:href="#aL" id="use1379" x="0" y="0" width="100%" height="100%"/>
        <use transform="matrix(0.05,0,0,0.05,30.95,0)" xlink:href="#aM" id="use1381" x="0" y="0" width="100%" height="100%"/>
        <use transform="matrix(0.05,0,0,0.05,34.9,0)" xlink:href="#aN" id="use1383" x="0" y="0" width="100%" height="100%"/>
        <use transform="matrix(0.05,0,0,0.05,43.9,0)" xlink:href="#aM" id="use1385" x="0" y="0" width="100%" height="100%"/>
        <use transform="matrix(0.05,0,0,0.05,47.85,0)" xlink:href="#aY" id="use1387" x="0" y="0" width="100%" height="100%"/>
        <use transform="matrix(0.05,0,0,0.05,57.85,0)" xlink:href="#aD" id="use1389" x="0" y="0" width="100%" height="100%"/>
        <use transform="matrix(0.05,0,0,0.05,67.85,0)" xlink:href="#aL" id="use1391" x="0" y="0" width="100%" height="100%"/>
        <use transform="matrix(0.05,0,0,0.05,72.85,0)" xlink:href="#aG" id="use1393" x="0" y="0" width="100%" height="100%"/>
        <use transform="matrix(0.05,0,0,0.05,82.85,0)" xlink:href="#aE" id="use1395" x="0" y="0" width="100%" height="100%"/>
    </g>
    <g id="ab">
        <use transform="scale(0.05)" xlink:href="#aM" id="use1398" x="0" y="0" width="100%" height="100%"/>
        <use transform="matrix(0.05,0,0,0.05,3.95,0)" xlink:href="#aJ" id="use1400" x="0" y="0" width="100%" height="100%"/>
    </g>
    </defs>
</g>
</svg>
