<?xml version="1.0"?>
<svg xmlns="http://www.w3.org/2000/svg" xmlns:xlink="http://www.w3.org/1999/xlink" xmlns:lucid="lucid" width="580" height="532">
<g transform="translate(-580 740)" lucid:page-tab-id="0_0">
    <path d="M797.17-611.34l3.4 1.1 2.13 2.92.3 1.9v51.7h-2v-51.54l-.2-1.27-1.46-2-2.5-.8H776.2v-2zM703.2-613l2 1.45 1.28.2h40.7v2h-40.86l-1.9-.3-2.9-2.12-1.12-3.4V-647h2v31.5z"/>
    <path fill="#fff"/>
    <path d="M711.4-636h-20v-2h20z"/>
    <path fill="#fff"/>
    <path d="M711.4-626h-20v-2h20zM812.9-554.62l-1.8.9-9.1-18.22-9.1 18.2-1.8-.88 10.9-21.8z"/>
    <path d="M805.17-593.66l2.74 1.42 2.18 2.16 1.42 2.75.5 3.16-.5 3.16-1.42 2.73-2.17 2.17-2.73 1.42-3.16.5-3.15-.5-2.75-1.42-2.16-2.17-1.42-2.74-.5-3.17.5-3.16 1.42-2.75 2.16-2.16 2.75-1.42 3.16-.5z" fill="#fff"/>
    <path d="M805.5-594.62l3 1.56 2.4 2.38 1.56 3.03.54 3.32-1 .16 1 .16-.54 3.3-1.56 3.03-2.4 2.4-3 1.55-3.5.56-3.47-.56-3.02-1.56-2.38-2.4-1.56-3-.56-3.5.56-3.47 1.56-3.03 2.4-2.38 3-1.56 3.5-.57zm-6.33 1.92l-2.47 1.27-1.94 1.95-1.28 2.46-.46 2.85.46 2.84 1.28 2.47 1.94 1.94 2.47 1.28 2.84.45 2.85-.44 2.47-1.28 1.94-1.94 1.28-2.47.46-2.84-.46-2.85-1.28-2.46-1.94-1.95-2.47-1.27-2.84-.46z"/>
    <use xlink:href="#a" transform="matrix(1,0,0,1,747.1825302349887,-621.1420667513823) translate(0.005000000000000782 14.4)"/>
    <path d="M957.45-613.06H946.7l-1.28.2-2 1.47-.8 2.5v55.17h-2v-55.5l1.1-3.4 2.9-2.12 1.9-.3h10.93zm82.15-5.92l-.3 1.9-2.13 2.9-3.4 1.12h-16.37v-2h16.04l2.5-.8 1.46-2 .2-1.28V-647h2z"/>
    <path d="M952.5-554.62l-1.8.9-9.1-18.22-9.1 18.2-1.8-.88 10.9-21.8z"/>
    <path d="M944.77-593.66l2.74 1.42 2.18 2.16 1.42 2.75.5 3.16-.5 3.16-1.42 2.73-2.17 2.17-2.73 1.42-3.16.5-3.15-.5-2.75-1.42-2.16-2.17-1.42-2.74-.5-3.17.5-3.16 1.42-2.75 2.16-2.16 2.75-1.42 3.16-.5z" fill="#fff"/>
    <path d="M945.08-594.62l3.03 1.56 2.4 2.38 1.56 3.03.53 3.32-1 .16 1 .16-.54 3.3-1.57 3.03-2.4 2.4-3.02 1.55-3.47.56-3.47-.56-3.03-1.56-2.38-2.4-1.56-3-.57-3.5.56-3.47 1.56-3.03 2.38-2.38 3.03-1.56 3.48-.57zm-6.32 1.92l-2.46 1.27-1.95 1.95-1.27 2.46-.46 2.85.46 2.84 1.27 2.47 1.95 1.94 2.46 1.28 2.85.45 2.85-.44 2.47-1.28 1.94-1.94 1.28-2.47.45-2.84-.46-2.85-1.28-2.46-1.94-1.95-2.47-1.27-2.84-.46z"/>
    <path fill="#fff"/>
    <path d="M1048.6-636h-20v-2h20z"/>
    <path fill="#fff"/>
    <path d="M1048.6-626h-20v-2h20z"/>
    <use xlink:href="#b" transform="matrix(1,0,0,1,957.445549375624,-624.8592848276066) translate(0.004999999999999005 14.4)"/>
    <path d="M867-301h-2v-46.56h2zm.46-68.16h-2v-46.57h2z"/>
    <path fill="#fff"/>
    <path d="M876.46-404.73h-20v-2h20z"/>
    <path fill="#fff"/>
    <path d="M876.46-394.73h-20v-2h20zM876.9-301.9l-1.8.9-9.1-18.2-9.1 18.2-1.8-.9 10.9-21.78z"/>
    <path fill="#fff"/>
    <path d="M876-320.45h-20v-2h20z"/>
    <use xlink:href="#a" transform="matrix(1,0,0,1,851.7314410480349,-369.1625932849526) translate(0.005000000000000782 14.4)"/>
    <path d="M724.98-552.73h282.97v136H724.98z" fill="#fff"/>
    <path d="M724.98-552.73h282.97v40H724.98z" fill="#ccc"/>
    <path d="M724.98-552.73h282.97v136H724.98zM724.98-512.73h282.97M866.46-512.73v96" stroke="#000" stroke-width="2" fill="none"/>
    <use xlink:href="#c" transform="matrix(1,0,0,1,734.9781659388645,-552.7251865699052) translate(117.55 23.6)"/>
    <use xlink:href="#d" transform="matrix(1,0,0,1,729.9781659388645,-510.2251865699052) translate(58.025 17.1)"/>
    <use xlink:href="#e" transform="matrix(1,0,0,1,871.4628820960697,-510.2251865699052) translate(56.525 17.1)"/>
    <use xlink:href="#f" transform="matrix(1,0,0,1,729.9781659388645,-478.2251865699052) translate(32.025 17.1)"/>
    <use xlink:href="#g" transform="matrix(1,0,0,1,871.4628820960697,-478.2251865699052) translate(42.55 17.1)"/>
    <use xlink:href="#h" transform="matrix(1,0,0,1,729.9781659388645,-446.2251865699052) translate(21.099999999999994 17.1)"/>
    <use xlink:href="#i" transform="matrix(1,0,0,1,871.4628820960697,-446.2251865699052) translate(34.025 17.1)"/>
    <path d="M764.6-300h202.8v72H764.6z" fill="#fff"/>
    <path d="M764.6-300h202.8v40H764.6z" fill="#ccc"/>
    <path d="M764.6-300h202.8v72H764.6zM764.6-260h202.8M866-260v32" stroke="#000" stroke-width="2" fill="none"/>
    <use xlink:href="#j" transform="matrix(1,0,0,1,774.6026200873363,-300) translate(53.075 23.6)"/>
    <path d="M937.2-720H1140v72H937.2z" fill="#fff"/>
    <path d="M937.2-720H1140v40H937.2z" fill="#ccc"/>
    <path d="M937.2-720H1140v72H937.2zM937.2-680H1140M1038.6-680v32" stroke="#000" stroke-width="2" fill="none"/>
    <use xlink:href="#k" transform="matrix(1,0,0,1,947.2052401746724,-720) translate(60 23.6)"/>
    <path d="M600-720h202.8v72H600z" fill="#fff"/>
    <path d="M600-720h202.8v40H600z" fill="#ccc"/>
    <path d="M600-720h202.8v72H600zM600-680h202.8M701.4-680v32" stroke="#000" stroke-width="2" fill="none"/>
    <use xlink:href="#l" transform="matrix(1,0,0,1,610,-720) translate(68.525 23.6)"/>
    <defs>
    <path d="M106-169C34-169 62-67 57 0H25v-261h32l-1 103c12-21 28-36 61-36 89 0 53 116 60 194h-32v-121c2-32-8-49-39-48" id="m"/>
    <path d="M141-36C126-15 110 5 73 4 37 3 15-17 15-53c-1-64 63-63 125-63 3-35-9-54-41-54-24 1-41 7-42 31l-33-3c5-37 33-52 76-52 45 0 72 20 72 64v82c-1 20 7 32 28 27v20c-31 9-61-2-59-35zM48-53c0 20 12 33 32 33 41-3 63-29 60-74-43 2-92-5-92 41" id="n"/>
    <path d="M135-143c-3-34-86-38-87 0 15 53 115 12 119 90S17 21 10-45l28-5c4 36 97 45 98 0-10-56-113-15-118-90-4-57 82-63 122-42 12 7 21 19 24 35" id="o"/>
    <g id="a">
        <use transform="matrix(0.05,0,0,0.05,0,0)" xlink:href="#m"/>
        <use transform="matrix(0.05,0,0,0.05,10,0)" xlink:href="#n"/>
        <use transform="matrix(0.05,0,0,0.05,20,0)" xlink:href="#o"/>
    </g>
    <path d="M96-169c-40 0-48 33-48 73s9 75 48 75c24 0 41-14 43-38l32 2c-6 37-31 61-74 61-59 0-76-41-82-99-10-93 101-131 147-64 4 7 5 14 7 22l-32 3c-4-21-16-35-41-35" id="p"/>
    <path d="M114-163C36-179 61-72 57 0H25l-1-190h30c1 12-1 29 2 39 6-27 23-49 58-41v29" id="q"/>
    <path d="M100-194c63 0 86 42 84 106H49c0 40 14 67 53 68 26 1 43-12 49-29l28 8c-11 28-37 45-77 45C44 4 14-33 15-96c1-61 26-98 85-98zm52 81c6-60-76-77-97-28-3 7-6 17-6 28h103" id="r"/>
    <path d="M59-47c-2 24 18 29 38 22v24C64 9 27 4 27-40v-127H5v-23h24l9-43h21v43h35v23H59v120" id="s"/>
    <path d="M85-194c31 0 48 13 60 33l-1-100h32l1 261h-30c-2-10 0-23-3-31C134-8 116 4 85 4 32 4 16-35 15-94c0-66 23-100 70-100zm9 24c-40 0-46 34-46 75 0 40 6 74 45 74 42 0 51-32 51-76 0-42-9-74-50-73" id="t"/>
    <g id="b">
        <use transform="matrix(0.05,0,0,0.05,0,0)" xlink:href="#p"/>
        <use transform="matrix(0.05,0,0,0.05,9,0)" xlink:href="#q"/>
        <use transform="matrix(0.05,0,0,0.05,14.949999999999998,0)" xlink:href="#r"/>
        <use transform="matrix(0.05,0,0,0.05,24.95,0)" xlink:href="#n"/>
        <use transform="matrix(0.05,0,0,0.05,34.95,0)" xlink:href="#s"/>
        <use transform="matrix(0.05,0,0,0.05,39.95,0)" xlink:href="#r"/>
        <use transform="matrix(0.05,0,0,0.05,49.95,0)" xlink:href="#t"/>
    </g>
    <path d="M115-194c55 1 70 41 70 98S169 2 115 4C84 4 66-9 55-30l1 105H24l-1-265h31l2 30c10-21 28-34 59-34zm-8 174c40 0 45-34 45-75s-6-73-45-74c-42 0-51 32-51 76 0 43 10 73 51 73" id="u"/>
    <path d="M100-194c62-1 85 37 85 99 1 63-27 99-86 99S16-35 15-95c0-66 28-99 85-99zM99-20c44 1 53-31 53-75 0-43-8-75-51-75s-53 32-53 75 10 74 51 75" id="v"/>
    <path d="M24 0v-261h32V0H24" id="w"/>
    <g id="c">
        <use transform="matrix(0.05,0,0,0.05,0,0)" xlink:href="#u"/>
        <use transform="matrix(0.05,0,0,0.05,10,0)" xlink:href="#v"/>
        <use transform="matrix(0.05,0,0,0.05,20,0)" xlink:href="#w"/>
        <use transform="matrix(0.05,0,0,0.05,23.95,0)" xlink:href="#w"/>
    </g>
    <path d="M25-224v-37h50v37H25zM25 0v-190h50V0H25" id="x"/>
    <path d="M88-194c31-1 46 15 58 34l-1-101h50l1 261h-48c-2-10 0-23-3-31C134-8 116 4 84 4 32 4 16-41 15-95c0-56 19-97 73-99zm17 164c33 0 40-30 41-66 1-37-9-64-41-64s-38 30-39 65c0 43 13 65 39 65" id="y"/>
    <g id="d">
        <use transform="matrix(0.05,0,0,0.05,0,0)" xlink:href="#x"/>
        <use transform="matrix(0.05,0,0,0.05,5,0)" xlink:href="#y"/>
        <path d="M-.9.97h17.75v1.9H-.9z"/>
    </g>
    <path d="M24-231v-30h32v30H24zM24 0v-190h32V0H24" id="z"/>
    <path d="M117-194c89-4 53 116 60 194h-32v-121c0-31-8-49-39-48C34-167 62-67 57 0H25l-1-190h30c1 10-1 24 2 32 11-22 29-35 61-36" id="A"/>
    <g id="e">
        <use transform="matrix(0.05,0,0,0.05,0,0)" xlink:href="#z"/>
        <use transform="matrix(0.05,0,0,0.05,3.95,0)" xlink:href="#A"/>
        <use transform="matrix(0.05,0,0,0.05,13.949999999999998,0)" xlink:href="#s"/>
    </g>
    <path d="M145-31C134-9 116 4 85 4 32 4 16-35 15-94c0-59 17-99 70-100 32-1 48 14 60 33 0-11-1-24 2-32h30l-1 268h-32zM93-21c41 0 51-33 51-76s-8-73-50-73c-40 0-46 35-46 75s5 74 45 74" id="B"/>
    <path d="M84 4C-5 8 30-112 23-190h32v120c0 31 7 50 39 49 72-2 45-101 50-169h31l1 190h-30c-1-10 1-25-2-33-11 22-28 36-60 37" id="C"/>
    <g id="f">
        <use transform="matrix(0.05,0,0,0.05,0,0)" xlink:href="#B"/>
        <use transform="matrix(0.05,0,0,0.05,10,0)" xlink:href="#C"/>
        <use transform="matrix(0.05,0,0,0.05,20,0)" xlink:href="#r"/>
        <use transform="matrix(0.05,0,0,0.05,30,0)" xlink:href="#o"/>
        <use transform="matrix(0.05,0,0,0.05,39,0)" xlink:href="#s"/>
        <use transform="matrix(0.05,0,0,0.05,44,0)" xlink:href="#z"/>
        <use transform="matrix(0.05,0,0,0.05,47.95,0)" xlink:href="#v"/>
        <use transform="matrix(0.05,0,0,0.05,57.95,0)" xlink:href="#A"/>
    </g>
    <path d="M185-189c-5-48-123-54-124 2 14 75 158 14 163 119 3 78-121 87-175 55-17-10-28-26-33-46l33-7c5 56 141 63 141-1 0-78-155-14-162-118-5-82 145-84 179-34 5 7 8 16 11 25" id="D"/>
    <path d="M177-190C167-65 218 103 67 71c-23-6-38-20-44-43l32-5c15 47 100 32 89-28v-30C133-14 115 1 83 1 29 1 15-40 15-95c0-56 16-97 71-98 29-1 48 16 59 35 1-10 0-23 2-32h30zM94-22c36 0 50-32 50-73 0-42-14-75-50-75-39 0-46 34-46 75s6 73 46 73" id="E"/>
    <g id="g">
        <use transform="matrix(0.05,0,0,0.05,0,0)" xlink:href="#D"/>
        <use transform="matrix(0.05,0,0,0.05,12,0)" xlink:href="#s"/>
        <use transform="matrix(0.05,0,0,0.05,17,0)" xlink:href="#q"/>
        <use transform="matrix(0.05,0,0,0.05,22.95,0)" xlink:href="#z"/>
        <use transform="matrix(0.05,0,0,0.05,26.899999999999995,0)" xlink:href="#A"/>
        <use transform="matrix(0.05,0,0,0.05,36.9,0)" xlink:href="#E"/>
    </g>
    <path d="M210-169c-67 3-38 105-44 169h-31v-121c0-29-5-50-35-48C34-165 62-65 56 0H25l-1-190h30c1 10-1 24 2 32 10-44 99-50 107 0 11-21 27-35 58-36 85-2 47 119 55 194h-31v-121c0-29-5-49-35-48" id="F"/>
    <g id="h">
        <use transform="matrix(0.05,0,0,0.05,0,0)" xlink:href="#F"/>
        <use transform="matrix(0.05,0,0,0.05,14.950000000000001,0)" xlink:href="#C"/>
        <use transform="matrix(0.05,0,0,0.05,24.950000000000003,0)" xlink:href="#w"/>
        <use transform="matrix(0.05,0,0,0.05,28.900000000000002,0)" xlink:href="#s"/>
        <use transform="matrix(0.05,0,0,0.05,33.900000000000006,0)" xlink:href="#z"/>
        <use transform="matrix(0.05,0,0,0.05,37.85000000000001,0)" xlink:href="#p"/>
        <use transform="matrix(0.05,0,0,0.05,46.85000000000001,0)" xlink:href="#m"/>
        <use transform="matrix(0.05,0,0,0.05,56.85,0)" xlink:href="#v"/>
        <use transform="matrix(0.05,0,0,0.05,66.85000000000001,0)" xlink:href="#z"/>
        <use transform="matrix(0.05,0,0,0.05,70.80000000000001,0)" xlink:href="#p"/>
        <use transform="matrix(0.05,0,0,0.05,79.80000000000001,0)" xlink:href="#r"/>
    </g>
    <path d="M115-194c53 0 69 39 70 98 0 66-23 100-70 100C84 3 66-7 56-30L54 0H23l1-261h32v101c10-23 28-34 59-34zm-8 174c40 0 45-34 45-75 0-40-5-75-45-74-42 0-51 32-51 76 0 43 10 73 51 73" id="G"/>
    <g id="i">
        <use transform="matrix(0.05,0,0,0.05,0,0)" xlink:href="#G"/>
        <use transform="matrix(0.05,0,0,0.05,10,0)" xlink:href="#v"/>
        <use transform="matrix(0.05,0,0,0.05,20,0)" xlink:href="#v"/>
        <use transform="matrix(0.05,0,0,0.05,30,0)" xlink:href="#w"/>
        <use transform="matrix(0.05,0,0,0.05,33.95,0)" xlink:href="#r"/>
        <use transform="matrix(0.05,0,0,0.05,43.95,0)" xlink:href="#n"/>
        <use transform="matrix(0.05,0,0,0.05,53.95,0)" xlink:href="#A"/>
    </g>
    <g id="j">
        <use transform="matrix(0.05,0,0,0.05,0,0)" xlink:href="#u"/>
        <use transform="matrix(0.05,0,0,0.05,10,0)" xlink:href="#v"/>
        <use transform="matrix(0.05,0,0,0.05,20,0)" xlink:href="#w"/>
        <use transform="matrix(0.05,0,0,0.05,23.95,0)" xlink:href="#w"/>
        <use transform="matrix(0.05,0,0,0.05,27.899999999999995,0)" xlink:href="#v"/>
        <use transform="matrix(0.05,0,0,0.05,37.9,0)" xlink:href="#u"/>
        <use transform="matrix(0.05,0,0,0.05,47.9,0)" xlink:href="#s"/>
        <use transform="matrix(0.05,0,0,0.05,52.900000000000006,0)" xlink:href="#z"/>
        <use transform="matrix(0.05,0,0,0.05,56.85,0)" xlink:href="#v"/>
        <use transform="matrix(0.05,0,0,0.05,66.85,0)" xlink:href="#A"/>
    </g>
    <g id="k">
        <use transform="matrix(0.05,0,0,0.05,0,0)" xlink:href="#n"/>
        <use transform="matrix(0.05,0,0,0.05,10,0)" xlink:href="#p"/>
        <use transform="matrix(0.05,0,0,0.05,19,0)" xlink:href="#p"/>
        <use transform="matrix(0.05,0,0,0.05,28,0)" xlink:href="#v"/>
        <use transform="matrix(0.05,0,0,0.05,38,0)" xlink:href="#C"/>
        <use transform="matrix(0.05,0,0,0.05,48,0)" xlink:href="#A"/>
        <use transform="matrix(0.05,0,0,0.05,58,0)" xlink:href="#s"/>
    </g>
    <g id="l">
        <use transform="matrix(0.05,0,0,0.05,0,0)" xlink:href="#E"/>
        <use transform="matrix(0.05,0,0,0.05,10,0)" xlink:href="#q"/>
        <use transform="matrix(0.05,0,0,0.05,15.949999999999998,0)" xlink:href="#v"/>
        <use transform="matrix(0.05,0,0,0.05,25.950000000000003,0)" xlink:href="#C"/>
        <use transform="matrix(0.05,0,0,0.05,35.95,0)" xlink:href="#u"/>
    </g>
    </defs>
</g>
</svg>
