<?xml version="1.0" encoding="UTF-8" standalone="no"?><svg xmlns="http://www.w3.org/2000/svg" xmlns:xlink="http://www.w3.org/1999/xlink" contentScriptType="application/ecmascript" contentStyleType="text/css" height="678px" preserveAspectRatio="none" style="width:781px;height:678px;" version="1.1" viewBox="0 0 781 678" width="781px" zoomAndPan="magnify"><defs><filter height="300%" id="fmyksdwgcdmux" width="300%" x="-1" y="-1"><feGaussianBlur result="blurOut" stdDeviation="2.0"/><feColorMatrix in="blurOut" result="blurOut2" type="matrix" values="0 0 0 0 0 0 0 0 0 0 0 0 0 0 0 0 0 0 .4 0"/><feOffset dx="4.0" dy="4.0" in="blurOut2" result="blurOut3"/><feBlend in="SourceGraphic" in2="blurOut3" mode="normal"/></filter></defs><g><!--cluster android.support.v4.app--><polygon fill="#FFFFFF" filter="url(#fmyksdwgcdmux)" points="383,399,553,399,560,422.6094,563,422.6094,563,513,383,513,383,399" style="stroke: #000000; stroke-width: 2.0;"/><line style="stroke: #000000; stroke-width: 2.0;" x1="383" x2="560" y1="422.6094" y2="422.6094"/><text fill="#000000" font-family="sans-serif" font-size="14" font-weight="bold" lengthAdjust="spacingAndGlyphs" textLength="164" x="387" y="415.5332">android.support.v4.app</text><!--cluster android.arch.lifecycle--><polygon fill="#FFFFFF" filter="url(#fmyksdwgcdmux)" points="592,406,749,406,756,429.6094,759,429.6094,759,506,592,506,592,406" style="stroke: #000000; stroke-width: 2.0;"/><line style="stroke: #000000; stroke-width: 2.0;" x1="592" x2="756" y1="429.6094" y2="429.6094"/><text fill="#000000" font-family="sans-serif" font-size="14" font-weight="bold" lengthAdjust="spacingAndGlyphs" textLength="151" x="596" y="422.5332">android.arch.lifecycle</text><!--cluster android.view.View--><polygon fill="#FFFFFF" filter="url(#fmyksdwgcdmux)" points="394,44.5,528,44.5,535,68.1094,546,68.1094,546,158.5,394,158.5,394,44.5" style="stroke: #000000; stroke-width: 2.0;"/><line style="stroke: #000000; stroke-width: 2.0;" x1="394" x2="535" y1="68.1094" y2="68.1094"/><text fill="#000000" font-family="sans-serif" font-size="14" font-weight="bold" lengthAdjust="spacingAndGlyphs" textLength="128" x="398" y="61.0332">android.view.View</text><!--cluster android.support.v7.widget.RecyclerView--><polygon fill="#FFFFFF" filter="url(#fmyksdwgcdmux)" points="56,24,345,24,352,47.6094,370,47.6094,370,179,56,179,56,24" style="stroke: #000000; stroke-width: 2.0;"/><line style="stroke: #000000; stroke-width: 2.0;" x1="56" x2="352" y1="47.6094" y2="47.6094"/><text fill="#000000" font-family="sans-serif" font-size="14" font-weight="bold" lengthAdjust="spacingAndGlyphs" textLength="283" x="60" y="40.5332">android.support.v7.widget.RecyclerView</text><!--class Fragment--><rect fill="#FEFECE" filter="url(#fmyksdwgcdmux)" height="61.8359" id="Fragment" style="stroke: #A80036; stroke-width: 1.5;" width="113" x="400.5" y="435"/><ellipse cx="428.1" cy="451" fill="#ADD1B2" rx="11" ry="11" style="stroke: #A80036; stroke-width: 1.0;"/><path d="M430.1,447.5 Q430.3031,447 430.5375,446.75 Q430.7719,446.5 431.0375,446.5 Q431.5063,446.5 431.8031,446.7813 Q432.1,447.0625 432.1,447.7188 L432.1,449.2813 Q432.1,449.9375 431.8188,450.2188 Q431.5375,450.5 431.1,450.5 Q430.7094,450.5 430.4594,450.3281 Q430.2094,450.1563 430.1,449.7031 Q430.0531,449.3906 429.8813,449.2188 Q429.5688,448.8906 429.0063,448.6953 Q428.4438,448.5 427.8813,448.5 Q427.1781,448.5 426.5922,448.7813 Q426.0063,449.0625 425.5531,449.6875 Q425.1,450.3125 425.1,451.1719 L425.1,452.0938 Q425.1,453.125 425.9438,453.8125 Q426.7875,454.5 428.2875,454.5 Q429.1781,454.5 429.8031,454.2969 Q430.1625,454.1875 430.5688,453.8281 Q430.8344,453.625 430.975,453.5625 Q431.1156,453.5 431.2875,453.5 Q431.6156,453.5 431.8578,453.7578 Q432.1,454.0156 432.1,454.375 Q432.1,454.7188 431.7563,455.125 Q431.2563,455.7188 430.4594,456.0469 Q429.4125,456.5 428.1313,456.5 Q426.6313,456.5 425.4281,455.9063 Q424.4594,455.4375 423.7797,454.4219 Q423.1,453.4063 423.1,452.2031 L423.1,451.1094 Q423.1,449.8594 423.7016,448.7656 Q424.3031,447.6719 425.3578,447.0859 Q426.4125,446.5 427.6,446.5 Q428.3188,446.5 428.9438,446.75 Q429.5688,447 430.1,447.5 Z "/><text fill="#000000" font-family="sans-serif" font-size="12" lengthAdjust="spacingAndGlyphs" textLength="53" x="444.9" y="455.9102">Fragment</text><line style="stroke: #A80036; stroke-width: 1.5;" x1="401.5" x2="512.5" y1="467" y2="467"/><line style="stroke: #A80036; stroke-width: 1.5;" x1="401.5" x2="512.5" y1="475" y2="475"/><ellipse cx="411.5" cy="487.418" fill="#84BE84" rx="3" ry="3" style="stroke: #038048; stroke-width: 1.0;"/><text fill="#000000" font-family="sans-serif" font-size="11" lengthAdjust="spacingAndGlyphs" textLength="87" x="420.5" y="490.4189">onCreateView(...)</text><!--class ViewModel--><rect fill="#FEFECE" filter="url(#fmyksdwgcdmux)" height="48" id="ViewModel" style="stroke: #A80036; stroke-width: 1.5;" width="91" x="618.5" y="442"/><ellipse cx="633.5" cy="458" fill="#ADD1B2" rx="11" ry="11" style="stroke: #A80036; stroke-width: 1.0;"/><path d="M635.5,454.5 Q635.7031,454 635.9375,453.75 Q636.1719,453.5 636.4375,453.5 Q636.9063,453.5 637.2031,453.7813 Q637.5,454.0625 637.5,454.7188 L637.5,456.2813 Q637.5,456.9375 637.2188,457.2188 Q636.9375,457.5 636.5,457.5 Q636.1094,457.5 635.8594,457.3281 Q635.6094,457.1563 635.5,456.7031 Q635.4531,456.3906 635.2813,456.2188 Q634.9688,455.8906 634.4063,455.6953 Q633.8438,455.5 633.2813,455.5 Q632.5781,455.5 631.9922,455.7813 Q631.4063,456.0625 630.9531,456.6875 Q630.5,457.3125 630.5,458.1719 L630.5,459.0938 Q630.5,460.125 631.3438,460.8125 Q632.1875,461.5 633.6875,461.5 Q634.5781,461.5 635.2031,461.2969 Q635.5625,461.1875 635.9688,460.8281 Q636.2344,460.625 636.375,460.5625 Q636.5156,460.5 636.6875,460.5 Q637.0156,460.5 637.2578,460.7578 Q637.5,461.0156 637.5,461.375 Q637.5,461.7188 637.1563,462.125 Q636.6563,462.7188 635.8594,463.0469 Q634.8125,463.5 633.5313,463.5 Q632.0313,463.5 630.8281,462.9063 Q629.8594,462.4375 629.1797,461.4219 Q628.5,460.4063 628.5,459.2031 L628.5,458.1094 Q628.5,456.8594 629.1016,455.7656 Q629.7031,454.6719 630.7578,454.0859 Q631.8125,453.5 633,453.5 Q633.7188,453.5 634.3438,453.75 Q634.9688,454 635.5,454.5 Z "/><text fill="#000000" font-family="sans-serif" font-size="12" lengthAdjust="spacingAndGlyphs" textLength="59" x="647.5" y="462.9102">ViewModel</text><line style="stroke: #A80036; stroke-width: 1.5;" x1="619.5" x2="708.5" y1="474" y2="474"/><line style="stroke: #A80036; stroke-width: 1.5;" x1="619.5" x2="708.5" y1="482" y2="482"/><!--class OnClickListener--><rect fill="#FEFECE" filter="url(#fmyksdwgcdmux)" height="61.8359" id="OnClickListener" style="stroke: #A80036; stroke-width: 1.5;" width="120" x="410" y="80.5"/><ellipse cx="425" cy="96.5" fill="#B4A7E5" rx="11" ry="11" style="stroke: #A80036; stroke-width: 1.0;"/><path d="M426,93.5 L426,99.5 L428,99.5 L428.4844,99.5 L429,100.125 L429,100.5 L429,100.875 L428.4844,101.5 L428,101.5 L422,101.5 L421.5156,101.5 L421,100.875 L421,100.5 L421,100.125 L421.5156,99.5 L422,99.5 L424,99.5 L424,93.5 L422,93.5 L421.5156,93.5 L421,92.875 L421,92.5 L421,92.125 L421.5156,91.5 L422,91.5 L428,91.5 L428.4844,91.5 L429,92.125 L429,92.5 L429,92.875 L428.4844,93.5 L428,93.5 L426,93.5 Z "/><text fill="#000000" font-family="sans-serif" font-size="12" font-style="italic" lengthAdjust="spacingAndGlyphs" textLength="88" x="439" y="101.4102">OnClickListener</text><line style="stroke: #A80036; stroke-width: 1.5;" x1="411" x2="529" y1="112.5" y2="112.5"/><line style="stroke: #A80036; stroke-width: 1.5;" x1="411" x2="529" y1="120.5" y2="120.5"/><ellipse cx="421" cy="132.918" fill="#84BE84" rx="3" ry="3" style="stroke: #038048; stroke-width: 1.0;"/><text fill="#000000" font-family="sans-serif" font-size="11" lengthAdjust="spacingAndGlyphs" textLength="83" x="430" y="135.9189">onClick(v : View)</text><!--class Adapter<ViewHolder>--><rect fill="#FEFECE" filter="url(#fmyksdwgcdmux)" height="103.3438" id="Adapter&lt;ViewHolder&gt;" style="stroke: #A80036; stroke-width: 1.5;" width="151" x="72.5" y="60"/><ellipse cx="87.5" cy="76" fill="#ADD1B2" rx="11" ry="11" style="stroke: #A80036; stroke-width: 1.0;"/><path d="M89.5,72.5 Q89.7031,72 89.9375,71.75 Q90.1719,71.5 90.4375,71.5 Q90.9063,71.5 91.2031,71.7813 Q91.5,72.0625 91.5,72.7188 L91.5,74.2813 Q91.5,74.9375 91.2188,75.2188 Q90.9375,75.5 90.5,75.5 Q90.1094,75.5 89.8594,75.3281 Q89.6094,75.1563 89.5,74.7031 Q89.4531,74.3906 89.2813,74.2188 Q88.9688,73.8906 88.4063,73.6953 Q87.8438,73.5 87.2813,73.5 Q86.5781,73.5 85.9922,73.7813 Q85.4063,74.0625 84.9531,74.6875 Q84.5,75.3125 84.5,76.1719 L84.5,77.0938 Q84.5,78.125 85.3438,78.8125 Q86.1875,79.5 87.6875,79.5 Q88.5781,79.5 89.2031,79.2969 Q89.5625,79.1875 89.9688,78.8281 Q90.2344,78.625 90.375,78.5625 Q90.5156,78.5 90.6875,78.5 Q91.0156,78.5 91.2578,78.7578 Q91.5,79.0156 91.5,79.375 Q91.5,79.7188 91.1563,80.125 Q90.6563,80.7188 89.8594,81.0469 Q88.8125,81.5 87.5313,81.5 Q86.0313,81.5 84.8281,80.9063 Q83.8594,80.4375 83.1797,79.4219 Q82.5,78.4063 82.5,77.2031 L82.5,76.1094 Q82.5,74.8594 83.1016,73.7656 Q83.7031,72.6719 84.7578,72.0859 Q85.8125,71.5 87,71.5 Q87.7188,71.5 88.3438,71.75 Q88.9688,72 89.5,72.5 Z "/><text fill="#000000" font-family="sans-serif" font-size="12" lengthAdjust="spacingAndGlyphs" textLength="119" x="101.5" y="80.9102">Adapter&lt;ViewHolder&gt;</text><line style="stroke: #A80036; stroke-width: 1.5;" x1="73.5" x2="222.5" y1="92" y2="92"/><line style="stroke: #A80036; stroke-width: 1.5;" x1="73.5" x2="222.5" y1="100" y2="100"/><ellipse cx="83.5" cy="112.418" fill="#84BE84" rx="3" ry="3" style="stroke: #038048; stroke-width: 1.0;"/><text fill="#000000" font-family="sans-serif" font-size="11" lengthAdjust="spacingAndGlyphs" textLength="109" x="92.5" y="115.4189">onCreateViewHolder()</text><ellipse cx="83.5" cy="126.2539" fill="#84BE84" rx="3" ry="3" style="stroke: #038048; stroke-width: 1.0;"/><text fill="#000000" font-family="sans-serif" font-size="11" lengthAdjust="spacingAndGlyphs" textLength="98" x="92.5" y="129.2549">onBindViewHolder()</text><ellipse cx="83.5" cy="140.0898" fill="#84BE84" rx="3" ry="3" style="stroke: #038048; stroke-width: 1.0;"/><text fill="#000000" font-family="sans-serif" font-size="11" lengthAdjust="spacingAndGlyphs" textLength="70" x="92.5" y="143.0908">getItemCount()</text><ellipse cx="83.5" cy="153.9258" fill="#84BE84" rx="3" ry="3" style="stroke: #038048; stroke-width: 1.0;"/><text fill="#000000" font-family="sans-serif" font-size="11" lengthAdjust="spacingAndGlyphs" textLength="45" x="92.5" y="156.9268">setData()</text><!--class ViewHolder--><rect fill="#FEFECE" filter="url(#fmyksdwgcdmux)" height="48" id="ViewHolder" style="stroke: #A80036; stroke-width: 1.5;" width="95" x="258.5" y="87.5"/><ellipse cx="273.5" cy="103.5" fill="#ADD1B2" rx="11" ry="11" style="stroke: #A80036; stroke-width: 1.0;"/><path d="M275.5,100 Q275.7031,99.5 275.9375,99.25 Q276.1719,99 276.4375,99 Q276.9063,99 277.2031,99.2813 Q277.5,99.5625 277.5,100.2188 L277.5,101.7813 Q277.5,102.4375 277.2188,102.7188 Q276.9375,103 276.5,103 Q276.1094,103 275.8594,102.8281 Q275.6094,102.6563 275.5,102.2031 Q275.4531,101.8906 275.2813,101.7188 Q274.9688,101.3906 274.4063,101.1953 Q273.8438,101 273.2813,101 Q272.5781,101 271.9922,101.2813 Q271.4063,101.5625 270.9531,102.1875 Q270.5,102.8125 270.5,103.6719 L270.5,104.5938 Q270.5,105.625 271.3438,106.3125 Q272.1875,107 273.6875,107 Q274.5781,107 275.2031,106.7969 Q275.5625,106.6875 275.9688,106.3281 Q276.2344,106.125 276.375,106.0625 Q276.5156,106 276.6875,106 Q277.0156,106 277.2578,106.2578 Q277.5,106.5156 277.5,106.875 Q277.5,107.2188 277.1563,107.625 Q276.6563,108.2188 275.8594,108.5469 Q274.8125,109 273.5313,109 Q272.0313,109 270.8281,108.4063 Q269.8594,107.9375 269.1797,106.9219 Q268.5,105.9063 268.5,104.7031 L268.5,103.6094 Q268.5,102.3594 269.1016,101.2656 Q269.7031,100.1719 270.7578,99.5859 Q271.8125,99 273,99 Q273.7188,99 274.3438,99.25 Q274.9688,99.5 275.5,100 Z "/><text fill="#000000" font-family="sans-serif" font-size="12" lengthAdjust="spacingAndGlyphs" textLength="63" x="287.5" y="108.4102">ViewHolder</text><line style="stroke: #A80036; stroke-width: 1.5;" x1="259.5" x2="352.5" y1="119.5" y2="119.5"/><line style="stroke: #A80036; stroke-width: 1.5;" x1="259.5" x2="352.5" y1="127.5" y2="127.5"/><!--class FriendListFragment--><rect fill="#FEFECE" filter="url(#fmyksdwgcdmux)" height="89.5078" id="FriendListFragment" style="stroke: #A80036; stroke-width: 1.5;" width="155" x="374.5" y="570.5"/><ellipse cx="396.25" cy="586.5" fill="#ADD1B2" rx="11" ry="11" style="stroke: #A80036; stroke-width: 1.0;"/><path d="M398.25,583 Q398.4531,582.5 398.6875,582.25 Q398.9219,582 399.1875,582 Q399.6563,582 399.9531,582.2813 Q400.25,582.5625 400.25,583.2188 L400.25,584.7813 Q400.25,585.4375 399.9688,585.7188 Q399.6875,586 399.25,586 Q398.8594,586 398.6094,585.8281 Q398.3594,585.6563 398.25,585.2031 Q398.2031,584.8906 398.0313,584.7188 Q397.7188,584.3906 397.1563,584.1953 Q396.5938,584 396.0313,584 Q395.3281,584 394.7422,584.2813 Q394.1563,584.5625 393.7031,585.1875 Q393.25,585.8125 393.25,586.6719 L393.25,587.5938 Q393.25,588.625 394.0938,589.3125 Q394.9375,590 396.4375,590 Q397.3281,590 397.9531,589.7969 Q398.3125,589.6875 398.7188,589.3281 Q398.9844,589.125 399.125,589.0625 Q399.2656,589 399.4375,589 Q399.7656,589 400.0078,589.2578 Q400.25,589.5156 400.25,589.875 Q400.25,590.2188 399.9063,590.625 Q399.4063,591.2188 398.6094,591.5469 Q397.5625,592 396.2813,592 Q394.7813,592 393.5781,591.4063 Q392.6094,590.9375 391.9297,589.9219 Q391.25,588.9063 391.25,587.7031 L391.25,586.6094 Q391.25,585.3594 391.8516,584.2656 Q392.4531,583.1719 393.5078,582.5859 Q394.5625,582 395.75,582 Q396.4688,582 397.0938,582.25 Q397.7188,582.5 398.25,583 Z "/><text fill="#000000" font-family="sans-serif" font-size="12" lengthAdjust="spacingAndGlyphs" textLength="108" x="411.75" y="591.4102">FriendListFragment</text><line style="stroke: #A80036; stroke-width: 1.5;" x1="375.5" x2="528.5" y1="602.5" y2="602.5"/><line style="stroke: #A80036; stroke-width: 1.5;" x1="375.5" x2="528.5" y1="610.5" y2="610.5"/><ellipse cx="385.5" cy="622.918" fill="#84BE84" rx="3" ry="3" style="stroke: #038048; stroke-width: 1.0;"/><text fill="#000000" font-family="sans-serif" font-size="11" lengthAdjust="spacingAndGlyphs" textLength="87" x="394.5" y="625.9189">onCreateView(...)</text><ellipse cx="385.5" cy="643.6719" fill="#84BE84" rx="3" ry="3" style="stroke: #038048; stroke-width: 1.0;"/><text fill="#000000" font-family="sans-serif" font-size="11" lengthAdjust="spacingAndGlyphs" textLength="129" x="394.5" y="639.7549">onItemClicked(position : int,</text><text fill="#000000" font-family="sans-serif" font-size="11" lengthAdjust="spacingAndGlyphs" textLength="58" x="430.5" y="653.5908">user : User)</text><!--class FriendListViewModel--><rect fill="#FEFECE" filter="url(#fmyksdwgcdmux)" height="103.3438" id="FriendListViewModel" style="stroke: #A80036; stroke-width: 1.5;" width="199" x="564.5" y="564"/><ellipse cx="603.35" cy="580" fill="#ADD1B2" rx="11" ry="11" style="stroke: #A80036; stroke-width: 1.0;"/><path d="M605.35,576.5 Q605.5531,576 605.7875,575.75 Q606.0219,575.5 606.2875,575.5 Q606.7563,575.5 607.0531,575.7813 Q607.35,576.0625 607.35,576.7188 L607.35,578.2813 Q607.35,578.9375 607.0688,579.2188 Q606.7875,579.5 606.35,579.5 Q605.9594,579.5 605.7094,579.3281 Q605.4594,579.1563 605.35,578.7031 Q605.3031,578.3906 605.1313,578.2188 Q604.8188,577.8906 604.2563,577.6953 Q603.6938,577.5 603.1313,577.5 Q602.4281,577.5 601.8422,577.7813 Q601.2563,578.0625 600.8031,578.6875 Q600.35,579.3125 600.35,580.1719 L600.35,581.0938 Q600.35,582.125 601.1938,582.8125 Q602.0375,583.5 603.5375,583.5 Q604.4281,583.5 605.0531,583.2969 Q605.4125,583.1875 605.8188,582.8281 Q606.0844,582.625 606.225,582.5625 Q606.3656,582.5 606.5375,582.5 Q606.8656,582.5 607.1078,582.7578 Q607.35,583.0156 607.35,583.375 Q607.35,583.7188 607.0063,584.125 Q606.5063,584.7188 605.7094,585.0469 Q604.6625,585.5 603.3813,585.5 Q601.8813,585.5 600.6781,584.9063 Q599.7094,584.4375 599.0297,583.4219 Q598.35,582.4063 598.35,581.2031 L598.35,580.1094 Q598.35,578.8594 598.9516,577.7656 Q599.5531,576.6719 600.6078,576.0859 Q601.6625,575.5 602.85,575.5 Q603.5688,575.5 604.1938,575.75 Q604.8188,576 605.35,576.5 Z "/><text fill="#000000" font-family="sans-serif" font-size="12" lengthAdjust="spacingAndGlyphs" textLength="114" x="622.65" y="584.9102">FriendListViewModel</text><line style="stroke: #A80036; stroke-width: 1.5;" x1="565.5" x2="762.5" y1="596" y2="596"/><rect fill="none" height="6" style="stroke: #C82930; stroke-width: 1.0;" width="6" x="572.5" y="605.418"/><text fill="#000000" font-family="sans-serif" font-size="11" lengthAdjust="spacingAndGlyphs" textLength="173" x="584.5" y="611.4189">data : MutableLiveData&lt;List&lt;User&gt;&gt;</text><line style="stroke: #A80036; stroke-width: 1.5;" x1="565.5" x2="762.5" y1="617.8359" y2="617.8359"/><ellipse cx="575.5" cy="630.2539" fill="#84BE84" rx="3" ry="3" style="stroke: #038048; stroke-width: 1.0;"/><text fill="#000000" font-family="sans-serif" font-size="11" lengthAdjust="spacingAndGlyphs" textLength="51" x="584.5" y="633.2549">«create»()</text><ellipse cx="575.5" cy="644.0898" fill="#84BE84" rx="3" ry="3" style="stroke: #038048; stroke-width: 1.0;"/><text fill="#000000" font-family="sans-serif" font-size="11" lengthAdjust="spacingAndGlyphs" textLength="45" x="584.5" y="647.0908">getData()</text><ellipse cx="575.5" cy="657.9258" fill="#84BE84" rx="3" ry="3" style="stroke: #038048; stroke-width: 1.0;"/><text fill="#000000" font-family="sans-serif" font-size="11" lengthAdjust="spacingAndGlyphs" textLength="62" x="584.5" y="660.9268">onAddClick()</text><!--class FriendListAdapter<FriendListViewHolder>--><rect fill="#FEFECE" filter="url(#fmyksdwgcdmux)" height="144.8516" id="FriendListAdapter&lt;FriendListViewHolder&gt;" style="stroke: #A80036; stroke-width: 1.5;" width="284" x="6" y="223"/><ellipse cx="31.35" cy="239" fill="#ADD1B2" rx="11" ry="11" style="stroke: #A80036; stroke-width: 1.0;"/><path d="M33.35,235.5 Q33.5531,235 33.7875,234.75 Q34.0219,234.5 34.2875,234.5 Q34.7563,234.5 35.0531,234.7813 Q35.35,235.0625 35.35,235.7188 L35.35,237.2813 Q35.35,237.9375 35.0688,238.2188 Q34.7875,238.5 34.35,238.5 Q33.9594,238.5 33.7094,238.3281 Q33.4594,238.1563 33.35,237.7031 Q33.3031,237.3906 33.1313,237.2188 Q32.8188,236.8906 32.2563,236.6953 Q31.6938,236.5 31.1313,236.5 Q30.4281,236.5 29.8422,236.7813 Q29.2563,237.0625 28.8031,237.6875 Q28.35,238.3125 28.35,239.1719 L28.35,240.0938 Q28.35,241.125 29.1938,241.8125 Q30.0375,242.5 31.5375,242.5 Q32.4281,242.5 33.0531,242.2969 Q33.4125,242.1875 33.8188,241.8281 Q34.0844,241.625 34.225,241.5625 Q34.3656,241.5 34.5375,241.5 Q34.8656,241.5 35.1078,241.7578 Q35.35,242.0156 35.35,242.375 Q35.35,242.7188 35.0063,243.125 Q34.5063,243.7188 33.7094,244.0469 Q32.6625,244.5 31.3813,244.5 Q29.8813,244.5 28.6781,243.9063 Q27.7094,243.4375 27.0297,242.4219 Q26.35,241.4063 26.35,240.2031 L26.35,239.1094 Q26.35,237.8594 26.9516,236.7656 Q27.5531,235.6719 28.6078,235.0859 Q29.6625,234.5 30.85,234.5 Q31.5688,234.5 32.1938,234.75 Q32.8188,235 33.35,235.5 Z "/><text fill="#000000" font-family="sans-serif" font-size="12" lengthAdjust="spacingAndGlyphs" textLength="229" x="47.65" y="243.9102">FriendListAdapter&lt;FriendListViewHolder&gt;</text><line style="stroke: #A80036; stroke-width: 1.5;" x1="7" x2="289" y1="255" y2="255"/><rect fill="none" height="6" style="stroke: #C82930; stroke-width: 1.0;" width="6" x="14" y="264.418"/><text fill="#000000" font-family="sans-serif" font-size="11" lengthAdjust="spacingAndGlyphs" textLength="82" x="26" y="270.4189">data : List&lt;User&gt;</text><rect fill="none" height="6" style="stroke: #C82930; stroke-width: 1.0;" width="6" x="14" y="278.2539"/><text fill="#000000" font-family="sans-serif" font-size="11" lengthAdjust="spacingAndGlyphs" textLength="147" x="26" y="284.2549">listener : FriendClickedListener</text><line style="stroke: #A80036; stroke-width: 1.5;" x1="7" x2="289" y1="290.6719" y2="290.6719"/><ellipse cx="17" cy="303.0898" fill="#84BE84" rx="3" ry="3" style="stroke: #038048; stroke-width: 1.0;"/><text fill="#000000" font-family="sans-serif" font-size="11" lengthAdjust="spacingAndGlyphs" textLength="258" x="26" y="306.0908">«create»(friendClickedListener:FriendClickedListener)</text><ellipse cx="17" cy="316.9258" fill="#84BE84" rx="3" ry="3" style="stroke: #038048; stroke-width: 1.0;"/><text fill="#000000" font-family="sans-serif" font-size="11" lengthAdjust="spacingAndGlyphs" textLength="109" x="26" y="319.9268">onCreateViewHolder()</text><ellipse cx="17" cy="330.7617" fill="#84BE84" rx="3" ry="3" style="stroke: #038048; stroke-width: 1.0;"/><text fill="#000000" font-family="sans-serif" font-size="11" lengthAdjust="spacingAndGlyphs" textLength="98" x="26" y="333.7627">onBindViewHolder()</text><ellipse cx="17" cy="344.5977" fill="#84BE84" rx="3" ry="3" style="stroke: #038048; stroke-width: 1.0;"/><text fill="#000000" font-family="sans-serif" font-size="11" lengthAdjust="spacingAndGlyphs" textLength="70" x="26" y="347.5986">getItemCount()</text><ellipse cx="17" cy="358.4336" fill="#84BE84" rx="3" ry="3" style="stroke: #038048; stroke-width: 1.0;"/><text fill="#000000" font-family="sans-serif" font-size="11" lengthAdjust="spacingAndGlyphs" textLength="45" x="26" y="361.4346">setData()</text><!--class FriendListViewHolder--><rect fill="#FEFECE" filter="url(#fmyksdwgcdmux)" height="117.1797" id="FriendListViewHolder" style="stroke: #A80036; stroke-width: 1.5;" width="207" x="325.5" y="237"/><ellipse cx="366.15" cy="253" fill="#ADD1B2" rx="11" ry="11" style="stroke: #A80036; stroke-width: 1.0;"/><path d="M368.15,249.5 Q368.3531,249 368.5875,248.75 Q368.8219,248.5 369.0875,248.5 Q369.5563,248.5 369.8531,248.7813 Q370.15,249.0625 370.15,249.7188 L370.15,251.2813 Q370.15,251.9375 369.8688,252.2188 Q369.5875,252.5 369.15,252.5 Q368.7594,252.5 368.5094,252.3281 Q368.2594,252.1563 368.15,251.7031 Q368.1031,251.3906 367.9313,251.2188 Q367.6188,250.8906 367.0563,250.6953 Q366.4938,250.5 365.9313,250.5 Q365.2281,250.5 364.6422,250.7813 Q364.0563,251.0625 363.6031,251.6875 Q363.15,252.3125 363.15,253.1719 L363.15,254.0938 Q363.15,255.125 363.9938,255.8125 Q364.8375,256.5 366.3375,256.5 Q367.2281,256.5 367.8531,256.2969 Q368.2125,256.1875 368.6188,255.8281 Q368.8844,255.625 369.025,255.5625 Q369.1656,255.5 369.3375,255.5 Q369.6656,255.5 369.9078,255.7578 Q370.15,256.0156 370.15,256.375 Q370.15,256.7188 369.8063,257.125 Q369.3063,257.7188 368.5094,258.0469 Q367.4625,258.5 366.1813,258.5 Q364.6813,258.5 363.4781,257.9063 Q362.5094,257.4375 361.8297,256.4219 Q361.15,255.4063 361.15,254.2031 L361.15,253.1094 Q361.15,251.8594 361.7516,250.7656 Q362.3531,249.6719 363.4078,249.0859 Q364.4625,248.5 365.65,248.5 Q366.3688,248.5 366.9938,248.75 Q367.6188,249 368.15,249.5 Z "/><text fill="#000000" font-family="sans-serif" font-size="12" lengthAdjust="spacingAndGlyphs" textLength="118" x="385.85" y="257.9102">FriendListViewHolder</text><line style="stroke: #A80036; stroke-width: 1.5;" x1="326.5" x2="531.5" y1="269" y2="269"/><rect fill="none" height="6" style="stroke: #C82930; stroke-width: 1.0;" width="6" x="333.5" y="278.418"/><text fill="#000000" font-family="sans-serif" font-size="11" lengthAdjust="spacingAndGlyphs" textLength="127" x="345.5" y="284.4189">binding : FriendItemBinding</text><rect fill="none" height="6" style="stroke: #C82930; stroke-width: 1.0;" width="6" x="333.5" y="292.2539"/><text fill="#000000" font-family="sans-serif" font-size="11" lengthAdjust="spacingAndGlyphs" textLength="147" x="345.5" y="298.2549">listener : FriendClickedListener</text><line style="stroke: #A80036; stroke-width: 1.5;" x1="326.5" x2="531.5" y1="304.6719" y2="304.6719"/><ellipse cx="336.5" cy="324.0078" fill="#84BE84" rx="3" ry="3" style="stroke: #038048; stroke-width: 1.0;"/><text fill="#000000" font-family="sans-serif" font-size="11" lengthAdjust="spacingAndGlyphs" textLength="177" x="345.5" y="320.0908">«create»(binding : FriendItemBinding,</text><text fill="#000000" font-family="sans-serif" font-size="11" lengthAdjust="spacingAndGlyphs" textLength="151" x="375.5" y="333.9268">listener : FriendClickedListener)</text><ellipse cx="336.5" cy="344.7617" fill="#84BE84" rx="3" ry="3" style="stroke: #038048; stroke-width: 1.0;"/><text fill="#000000" font-family="sans-serif" font-size="11" lengthAdjust="spacingAndGlyphs" textLength="83" x="345.5" y="347.7627">onClick(v : View)</text><!--class FriendClickedListener--><rect fill="#FEFECE" filter="url(#fmyksdwgcdmux)" height="75.6719" id="FriendClickedListener" style="stroke: #A80036; stroke-width: 1.5;" width="155" x="210.5" y="428"/><ellipse cx="226.4" cy="444" fill="#B4A7E5" rx="11" ry="11" style="stroke: #A80036; stroke-width: 1.0;"/><path d="M227.4,441 L227.4,447 L229.4,447 L229.8844,447 L230.4,447.625 L230.4,448 L230.4,448.375 L229.8844,449 L229.4,449 L223.4,449 L222.9156,449 L222.4,448.375 L222.4,448 L222.4,447.625 L222.9156,447 L223.4,447 L225.4,447 L225.4,441 L223.4,441 L222.9156,441 L222.4,440.375 L222.4,440 L222.4,439.625 L222.9156,439 L223.4,439 L229.4,439 L229.8844,439 L230.4,439.625 L230.4,440 L230.4,440.375 L229.8844,441 L229.4,441 L227.4,441 Z "/><text fill="#000000" font-family="sans-serif" font-size="12" font-style="italic" lengthAdjust="spacingAndGlyphs" textLength="121" x="240.6" y="448.9102">FriendClickedListener</text><line style="stroke: #A80036; stroke-width: 1.5;" x1="211.5" x2="364.5" y1="460" y2="460"/><line style="stroke: #A80036; stroke-width: 1.5;" x1="211.5" x2="364.5" y1="468" y2="468"/><ellipse cx="221.5" cy="487.3359" fill="#84BE84" rx="3" ry="3" style="stroke: #038048; stroke-width: 1.0;"/><text fill="#000000" font-family="sans-serif" font-size="11" lengthAdjust="spacingAndGlyphs" textLength="129" x="230.5" y="483.4189">onItemClicked(position : int,</text><text fill="#000000" font-family="sans-serif" font-size="11" lengthAdjust="spacingAndGlyphs" textLength="58" x="266.5" y="497.2549">user : User)</text><!--link FriendClickedListener to FriendListFragment--><path d="M344.47,517.788 C363.524,534.925 384.62,553.9 403.044,570.4699 " fill="none" id="FriendClickedListener-FriendListFragment" style="stroke: #A80036; stroke-width: 1.0; stroke-dasharray: 7.0,7.0;"/><polygon fill="none" points="339.574,522.799,329.384,504.22,348.936,512.39,339.574,522.799" style="stroke: #A80036; stroke-width: 1.0;"/><!--link ViewModel to FriendListViewModel--><path d="M664,510.27 C664,527.06 664,546.409 664,563.842 " fill="none" id="ViewModel-FriendListViewModel" style="stroke: #A80036; stroke-width: 1.0;"/><polygon fill="none" points="657,510.047,664,490.047,671,510.047,657,510.047" style="stroke: #A80036; stroke-width: 1.0;"/><!--link FriendListFragment to FriendListViewModel--><path d="M543.084,615.5 C550.2,615.5 557.315,615.5 564.431,615.5 " fill="none" id="FriendListFragment-FriendListViewModel" style="stroke: #A80036; stroke-width: 1.0;"/><polygon fill="#FFFFFF" points="529.844,615.5,535.844,619.5,541.844,615.5,535.844,611.5,529.844,615.5" style="stroke: #A80036; stroke-width: 1.0;"/><!--link OnClickListener to FriendListViewHolder--><path d="M458.796,162.237 C453.601,185.294 447.397,212.835 441.998,236.801 " fill="none" id="OnClickListener-FriendListViewHolder" style="stroke: #A80036; stroke-width: 1.0; stroke-dasharray: 7.0,7.0;"/><polygon fill="none" points="452.005,160.526,463.23,142.554,465.663,163.603,452.005,160.526" style="stroke: #A80036; stroke-width: 1.0;"/><!--link ViewHolder to FriendListViewHolder--><path d="M333.005,152.458 C349.737,177.216 371.505,209.426 390.081,236.912 " fill="none" id="ViewHolder-FriendListViewHolder" style="stroke: #A80036; stroke-width: 1.0;"/><polygon fill="none" points="326.977,156.041,321.578,135.55,338.577,148.201,326.977,156.041" style="stroke: #A80036; stroke-width: 1.0;"/><!--link Fragment to FriendListFragment--><path d="M455.294,517.319 C454.711,534.535 454.063,553.651 453.497,570.3435 " fill="none" id="Fragment-FriendListFragment" style="stroke: #A80036; stroke-width: 1.0;"/><polygon fill="none" points="448.302,516.956,455.976,497.205,462.294,517.43,448.302,516.956" style="stroke: #A80036; stroke-width: 1.0;"/><!--link Adapter<ViewHolder> to FriendListAdapter<FriendListViewHolder>--><path d="M148,183.577 C148,196.523 148,210.035 148,222.993 " fill="none" id="Adapter&lt;ViewHolder&gt;-FriendListAdapter&lt;FriendListViewHolder&gt;" style="stroke: #A80036; stroke-width: 1.0;"/><polygon fill="none" points="141,183.197,148,163.197,155,183.197,141,183.197" style="stroke: #A80036; stroke-width: 1.0;"/><!--link FriendListAdapter<FriendListViewHolder> to FriendClickedListener--><path d="M216.167,378.543 C230.463,395.751 244.862,413.081 256.976,427.66 " fill="none" id="FriendListAdapter&lt;FriendListViewHolder&gt;-FriendClickedListener" style="stroke: #A80036; stroke-width: 1.0;"/><polygon fill="#FFFFFF" points="207.779,368.448,208.5372,375.6191,215.4484,377.6773,214.6901,370.5062,207.779,368.448" style="stroke: #A80036; stroke-width: 1.0;"/><!--link FriendListViewHolder to FriendClickedListener--><path d="M372.357,364.19 C354.194,385.896 334.753,409.128 319.118,427.813 " fill="none" id="FriendListViewHolder-FriendClickedListener" style="stroke: #A80036; stroke-width: 1.0;"/><polygon fill="#FFFFFF" points="380.87,354.017,373.9518,356.0515,373.169,363.22,380.0872,361.1855,380.87,354.017" style="stroke: #A80036; stroke-width: 1.0;"/><!--
@startuml

class FriendListFragment {
    +onCreateView(...)
    +onItemClicked(position : int,\n            user : User)
}
class FriendListViewModel {
    -data : MutableLiveData<List<User>>
    +<<create>>()
    +getData()
    +onAddClick()
}
class "FriendListAdapter<FriendListViewHolder>" {
    -data : List<User>
    -listener : FriendClickedListener
    +<<create>>(friendClickedListener:FriendClickedListener)
    +onCreateViewHolder()
    +onBindViewHolder()
    +getItemCount()
    +setData()
}
class FriendListViewHolder {
    -binding : FriendItemBinding
    -listener : FriendClickedListener
    +<<create>>(binding : FriendItemBinding, \n          listener : FriendClickedListener)
    +onClick(v : View)
}

package android.support.v4.app {
    class Fragment {
        +onCreateView(...)
    }
}

package android.arch.lifecycle {
    class ViewModel
}
interface FriendClickedListener {
    +onItemClicked(position : int,\n            user : User)
}

package android.view.View {
    interface OnClickListener {
        +onClick(v : View)
    }
}
package android.support.v7.widget.RecyclerView {
    class "Adapter<ViewHolder>" {
        +onCreateViewHolder()
        +onBindViewHolder()
        +getItemCount()
        +setData()
    }
    class ViewHolder
}

FriendClickedListener <|.. FriendListFragment
ViewModel <|- - FriendListViewModel
FriendListFragment o-r- FriendListViewModel
OnClickListener <|.. FriendListViewHolder
ViewHolder <|- - FriendListViewHolder
Fragment <|- - FriendListFragment
"Adapter<ViewHolder>" <|- - "FriendListAdapter<FriendListViewHolder>"
"FriendListAdapter<FriendListViewHolder>" o- - FriendClickedListener
FriendListViewHolder o- - FriendClickedListener


@enduml

PlantUML version 1.2017.15(Mon Jul 03 18:45:34 CEST 2017)
(GPL source distribution)
Java Runtime: OpenJDK Runtime Environment
JVM: OpenJDK 64-Bit Server VM
Java Version: 1.8.0_152-release-915-b01
Operating System: Windows 10
OS Version: 10.0
Default Encoding: Cp1252
Language: en
Country: US
--></g></svg>