<?xml version="1.0" encoding="UTF-8" standalone="no"?><svg xmlns="http://www.w3.org/2000/svg" xmlns:xlink="http://www.w3.org/1999/xlink" contentScriptType="application/ecmascript" contentStyleType="text/css" height="814px" preserveAspectRatio="none" style="width:935px;height:814px;" version="1.1" viewBox="0 0 935 814" width="935px" zoomAndPan="magnify"><defs><filter height="300%" id="f1etzovjspcwel" width="300%" x="-1" y="-1"><feGaussianBlur result="blurOut" stdDeviation="2.0"/><feColorMatrix in="blurOut" result="blurOut2" type="matrix" values="0 0 0 0 0 0 0 0 0 0 0 0 0 0 0 0 0 0 .4 0"/><feOffset dx="4.0" dy="4.0" in="blurOut2" result="blurOut3"/><feBlend in="SourceGraphic" in2="blurOut3" mode="normal"/></filter></defs><g><!--cluster android.support.v4.app--><polygon fill="#FFFFFF" filter="url(#f1etzovjspcwel)" points="198,535,368,535,375,558.6094,378,558.6094,378,649,198,649,198,535" style="stroke: #000000; stroke-width: 2.0;"/><line style="stroke: #000000; stroke-width: 2.0;" x1="198" x2="375" y1="558.6094" y2="558.6094"/><text fill="#000000" font-family="sans-serif" font-size="14" font-weight="bold" lengthAdjust="spacingAndGlyphs" textLength="164" x="202" y="551.5332">android.support.v4.app</text><!--cluster android.arch.lifecycle--><polygon fill="#FFFFFF" filter="url(#f1etzovjspcwel)" points="582,542,739,542,746,565.6094,749,565.6094,749,642,582,642,582,542" style="stroke: #000000; stroke-width: 2.0;"/><line style="stroke: #000000; stroke-width: 2.0;" x1="582" x2="746" y1="565.6094" y2="565.6094"/><text fill="#000000" font-family="sans-serif" font-size="14" font-weight="bold" lengthAdjust="spacingAndGlyphs" textLength="151" x="586" y="558.5332">android.arch.lifecycle</text><!--cluster android.view.View--><polygon fill="#FFFFFF" filter="url(#f1etzovjspcwel)" points="22,180.5,156,180.5,163,204.1094,174,204.1094,174,294.5,22,294.5,22,180.5" style="stroke: #000000; stroke-width: 2.0;"/><line style="stroke: #000000; stroke-width: 2.0;" x1="22" x2="163" y1="204.1094" y2="204.1094"/><text fill="#000000" font-family="sans-serif" font-size="14" font-weight="bold" lengthAdjust="spacingAndGlyphs" textLength="128" x="26" y="197.0332">android.view.View</text><!--cluster android.support.v7.widget--><polygon fill="#FFFFFF" filter="url(#f1etzovjspcwel)" points="198,24,389,24,396,47.6094,913,47.6094,913,315,198,315,198,24" style="stroke: #000000; stroke-width: 2.0;"/><line style="stroke: #000000; stroke-width: 2.0;" x1="198" x2="396" y1="47.6094" y2="47.6094"/><text fill="#000000" font-family="sans-serif" font-size="14" font-weight="bold" lengthAdjust="spacingAndGlyphs" textLength="185" x="202" y="40.5332">android.support.v7.widget</text><!--class Fragment--><rect fill="#FEFECE" filter="url(#f1etzovjspcwel)" height="61.8359" id="Fragment" style="stroke: #A80036; stroke-width: 1.5;" width="113" x="247.5" y="571"/><ellipse cx="275.1" cy="587" fill="#ADD1B2" rx="11" ry="11" style="stroke: #A80036; stroke-width: 1.0;"/><path d="M277.1,583.5 Q277.3031,583 277.5375,582.75 Q277.7719,582.5 278.0375,582.5 Q278.5063,582.5 278.8031,582.7813 Q279.1,583.0625 279.1,583.7188 L279.1,585.2813 Q279.1,585.9375 278.8188,586.2188 Q278.5375,586.5 278.1,586.5 Q277.7094,586.5 277.4594,586.3281 Q277.2094,586.1563 277.1,585.7031 Q277.0531,585.3906 276.8813,585.2188 Q276.5688,584.8906 276.0063,584.6953 Q275.4438,584.5 274.8813,584.5 Q274.1781,584.5 273.5922,584.7813 Q273.0063,585.0625 272.5531,585.6875 Q272.1,586.3125 272.1,587.1719 L272.1,588.0938 Q272.1,589.125 272.9438,589.8125 Q273.7875,590.5 275.2875,590.5 Q276.1781,590.5 276.8031,590.2969 Q277.1625,590.1875 277.5688,589.8281 Q277.8344,589.625 277.975,589.5625 Q278.1156,589.5 278.2875,589.5 Q278.6156,589.5 278.8578,589.7578 Q279.1,590.0156 279.1,590.375 Q279.1,590.7188 278.7563,591.125 Q278.2563,591.7188 277.4594,592.0469 Q276.4125,592.5 275.1313,592.5 Q273.6313,592.5 272.4281,591.9063 Q271.4594,591.4375 270.7797,590.4219 Q270.1,589.4063 270.1,588.2031 L270.1,587.1094 Q270.1,585.8594 270.7016,584.7656 Q271.3031,583.6719 272.3578,583.0859 Q273.4125,582.5 274.6,582.5 Q275.3188,582.5 275.9438,582.75 Q276.5688,583 277.1,583.5 Z "/><text fill="#000000" font-family="sans-serif" font-size="12" lengthAdjust="spacingAndGlyphs" textLength="53" x="291.9" y="591.9102">Fragment</text><line style="stroke: #A80036; stroke-width: 1.5;" x1="248.5" x2="359.5" y1="603" y2="603"/><line style="stroke: #A80036; stroke-width: 1.5;" x1="248.5" x2="359.5" y1="611" y2="611"/><ellipse cx="258.5" cy="623.418" fill="#84BE84" rx="3" ry="3" style="stroke: #038048; stroke-width: 1.0;"/><text fill="#000000" font-family="sans-serif" font-size="11" lengthAdjust="spacingAndGlyphs" textLength="87" x="267.5" y="626.4189">onCreateView(...)</text><!--class ViewModel--><rect fill="#FEFECE" filter="url(#f1etzovjspcwel)" height="48" id="ViewModel" style="stroke: #A80036; stroke-width: 1.5;" width="91" x="612.5" y="578"/><ellipse cx="627.5" cy="594" fill="#ADD1B2" rx="11" ry="11" style="stroke: #A80036; stroke-width: 1.0;"/><path d="M629.5,590.5 Q629.7031,590 629.9375,589.75 Q630.1719,589.5 630.4375,589.5 Q630.9063,589.5 631.2031,589.7813 Q631.5,590.0625 631.5,590.7188 L631.5,592.2813 Q631.5,592.9375 631.2188,593.2188 Q630.9375,593.5 630.5,593.5 Q630.1094,593.5 629.8594,593.3281 Q629.6094,593.1563 629.5,592.7031 Q629.4531,592.3906 629.2813,592.2188 Q628.9688,591.8906 628.4063,591.6953 Q627.8438,591.5 627.2813,591.5 Q626.5781,591.5 625.9922,591.7813 Q625.4063,592.0625 624.9531,592.6875 Q624.5,593.3125 624.5,594.1719 L624.5,595.0938 Q624.5,596.125 625.3438,596.8125 Q626.1875,597.5 627.6875,597.5 Q628.5781,597.5 629.2031,597.2969 Q629.5625,597.1875 629.9688,596.8281 Q630.2344,596.625 630.375,596.5625 Q630.5156,596.5 630.6875,596.5 Q631.0156,596.5 631.2578,596.7578 Q631.5,597.0156 631.5,597.375 Q631.5,597.7188 631.1563,598.125 Q630.6563,598.7188 629.8594,599.0469 Q628.8125,599.5 627.5313,599.5 Q626.0313,599.5 624.8281,598.9063 Q623.8594,598.4375 623.1797,597.4219 Q622.5,596.4063 622.5,595.2031 L622.5,594.1094 Q622.5,592.8594 623.1016,591.7656 Q623.7031,590.6719 624.7578,590.0859 Q625.8125,589.5 627,589.5 Q627.7188,589.5 628.3438,589.75 Q628.9688,590 629.5,590.5 Z "/><text fill="#000000" font-family="sans-serif" font-size="12" lengthAdjust="spacingAndGlyphs" textLength="59" x="641.5" y="598.9102">ViewModel</text><line style="stroke: #A80036; stroke-width: 1.5;" x1="613.5" x2="702.5" y1="610" y2="610"/><line style="stroke: #A80036; stroke-width: 1.5;" x1="613.5" x2="702.5" y1="618" y2="618"/><!--class OnClickListener--><rect fill="#FEFECE" filter="url(#f1etzovjspcwel)" height="61.8359" id="OnClickListener" style="stroke: #A80036; stroke-width: 1.5;" width="120" x="38" y="216.5"/><ellipse cx="53" cy="232.5" fill="#B4A7E5" rx="11" ry="11" style="stroke: #A80036; stroke-width: 1.0;"/><path d="M54,229.5 L54,235.5 L56,235.5 L56.4844,235.5 L57,236.125 L57,236.5 L57,236.875 L56.4844,237.5 L56,237.5 L50,237.5 L49.5156,237.5 L49,236.875 L49,236.5 L49,236.125 L49.5156,235.5 L50,235.5 L52,235.5 L52,229.5 L50,229.5 L49.5156,229.5 L49,228.875 L49,228.5 L49,228.125 L49.5156,227.5 L50,227.5 L56,227.5 L56.4844,227.5 L57,228.125 L57,228.5 L57,228.875 L56.4844,229.5 L56,229.5 L54,229.5 Z "/><text fill="#000000" font-family="sans-serif" font-size="12" font-style="italic" lengthAdjust="spacingAndGlyphs" textLength="88" x="67" y="237.4102">OnClickListener</text><line style="stroke: #A80036; stroke-width: 1.5;" x1="39" x2="157" y1="248.5" y2="248.5"/><line style="stroke: #A80036; stroke-width: 1.5;" x1="39" x2="157" y1="256.5" y2="256.5"/><ellipse cx="49" cy="268.918" fill="#84BE84" rx="3" ry="3" style="stroke: #038048; stroke-width: 1.0;"/><text fill="#000000" font-family="sans-serif" font-size="11" lengthAdjust="spacingAndGlyphs" textLength="83" x="58" y="271.9189">onClick(v : View)</text><!--class RecyclerView--><rect fill="#FEFECE" filter="url(#f1etzovjspcwel)" height="75.6719" id="RecyclerView" style="stroke: #A80036; stroke-width: 1.5;" width="124" x="403" y="60"/><ellipse cx="426.55" cy="76" fill="#ADD1B2" rx="11" ry="11" style="stroke: #A80036; stroke-width: 1.0;"/><path d="M428.55,72.5 Q428.7531,72 428.9875,71.75 Q429.2219,71.5 429.4875,71.5 Q429.9563,71.5 430.2531,71.7813 Q430.55,72.0625 430.55,72.7188 L430.55,74.2813 Q430.55,74.9375 430.2688,75.2188 Q429.9875,75.5 429.55,75.5 Q429.1594,75.5 428.9094,75.3281 Q428.6594,75.1563 428.55,74.7031 Q428.5031,74.3906 428.3313,74.2188 Q428.0188,73.8906 427.4563,73.6953 Q426.8938,73.5 426.3313,73.5 Q425.6281,73.5 425.0422,73.7813 Q424.4563,74.0625 424.0031,74.6875 Q423.55,75.3125 423.55,76.1719 L423.55,77.0938 Q423.55,78.125 424.3938,78.8125 Q425.2375,79.5 426.7375,79.5 Q427.6281,79.5 428.2531,79.2969 Q428.6125,79.1875 429.0188,78.8281 Q429.2844,78.625 429.425,78.5625 Q429.5656,78.5 429.7375,78.5 Q430.0656,78.5 430.3078,78.7578 Q430.55,79.0156 430.55,79.375 Q430.55,79.7188 430.2063,80.125 Q429.7063,80.7188 428.9094,81.0469 Q427.8625,81.5 426.5813,81.5 Q425.0813,81.5 423.8781,80.9063 Q422.9094,80.4375 422.2297,79.4219 Q421.55,78.4063 421.55,77.2031 L421.55,76.1094 Q421.55,74.8594 422.1516,73.7656 Q422.7531,72.6719 423.8078,72.0859 Q424.8625,71.5 426.05,71.5 Q426.7688,71.5 427.3938,71.75 Q428.0188,72 428.55,72.5 Z "/><text fill="#000000" font-family="sans-serif" font-size="12" lengthAdjust="spacingAndGlyphs" textLength="73" x="442.45" y="80.9102">RecyclerView</text><line style="stroke: #A80036; stroke-width: 1.5;" x1="404" x2="526" y1="92" y2="92"/><line style="stroke: #A80036; stroke-width: 1.5;" x1="404" x2="526" y1="100" y2="100"/><ellipse cx="414" cy="112.418" fill="#84BE84" rx="3" ry="3" style="stroke: #038048; stroke-width: 1.0;"/><text fill="#000000" font-family="sans-serif" font-size="11" lengthAdjust="spacingAndGlyphs" textLength="62" x="423" y="115.4189">setAdapter()</text><ellipse cx="414" cy="126.2539" fill="#84BE84" rx="3" ry="3" style="stroke: #038048; stroke-width: 1.0;"/><text fill="#000000" font-family="sans-serif" font-size="11" lengthAdjust="spacingAndGlyphs" textLength="98" x="423" y="129.2549">setLayoutManager()</text><!--class Adapter<ViewHolder>--><rect fill="#FEFECE" filter="url(#f1etzovjspcwel)" height="103.3438" id="Adapter&lt;ViewHolder&gt;" style="stroke: #A80036; stroke-width: 1.5;" width="152" x="745" y="196"/><ellipse cx="760" cy="212" fill="#A9DCDF" rx="11" ry="11" style="stroke: #A80036; stroke-width: 1.0;"/><path d="M761.75,213.5 L758.4531,213.5 L758.0156,214.5 L758.0156,214.5 L758.4844,214.5 L759,215.125 L759,215.5 L759,215.875 L758.4844,216.5 L758.0156,216.5 L756.125,216.5 L755.5156,216.5 L755,215.875 L755,215.5 L755,215.125 L755.5156,214.5 L756.125,214.5 L758.4375,208.5 L757.5625,208.5 L756.5156,208.5 L756,207.875 L756,207.5 L756,207.125 L756.5156,206.5 L757.5625,206.5 L761.2344,206.5 L763.9219,214.5 L764.4844,214.5 L764.4844,214.5 L765,215.125 L765,215.5 L765,215.875 L764.4844,216.5 L763.9219,216.5 L762.0313,216.5 L761.5156,216.5 L761,215.875 L761,215.5 L761,215.125 L761.5156,214.5 L762.0313,214.5 L762.0313,214.5 L761.75,213.5 Z M761.2031,211.5 L760,207.9219 L758.9688,211.5 L761.2031,211.5 Z "/><text fill="#000000" font-family="sans-serif" font-size="12" font-style="italic" lengthAdjust="spacingAndGlyphs" textLength="120" x="774" y="216.9102">Adapter&lt;ViewHolder&gt;</text><line style="stroke: #A80036; stroke-width: 1.5;" x1="746" x2="896" y1="228" y2="228"/><line style="stroke: #A80036; stroke-width: 1.5;" x1="746" x2="896" y1="236" y2="236"/><ellipse cx="756" cy="248.418" fill="#84BE84" rx="3" ry="3" style="stroke: #038048; stroke-width: 1.0;"/><text fill="#000000" font-family="sans-serif" font-size="11" lengthAdjust="spacingAndGlyphs" textLength="109" x="765" y="251.4189">onCreateViewHolder()</text><ellipse cx="756" cy="262.2539" fill="#84BE84" rx="3" ry="3" style="stroke: #038048; stroke-width: 1.0;"/><text fill="#000000" font-family="sans-serif" font-size="11" lengthAdjust="spacingAndGlyphs" textLength="98" x="765" y="265.2549">onBindViewHolder()</text><ellipse cx="756" cy="276.0898" fill="#84BE84" rx="3" ry="3" style="stroke: #038048; stroke-width: 1.0;"/><text fill="#000000" font-family="sans-serif" font-size="11" lengthAdjust="spacingAndGlyphs" textLength="70" x="765" y="279.0908">getItemCount()</text><ellipse cx="756" cy="289.9258" fill="#84BE84" rx="3" ry="3" style="stroke: #038048; stroke-width: 1.0;"/><text fill="#000000" font-family="sans-serif" font-size="11" lengthAdjust="spacingAndGlyphs" textLength="45" x="765" y="292.9268">setData()</text><!--class ViewHolder--><rect fill="#FEFECE" filter="url(#f1etzovjspcwel)" height="61.8359" id="ViewHolder" style="stroke: #A80036; stroke-width: 1.5;" width="157" x="214.5" y="216.5"/><ellipse cx="257.4" cy="232.5" fill="#A9DCDF" rx="11" ry="11" style="stroke: #A80036; stroke-width: 1.0;"/><path d="M259.15,234 L255.8531,234 L255.4156,235 L255.4156,235 L255.8844,235 L256.4,235.625 L256.4,236 L256.4,236.375 L255.8844,237 L255.4156,237 L253.525,237 L252.9156,237 L252.4,236.375 L252.4,236 L252.4,235.625 L252.9156,235 L253.525,235 L255.8375,229 L254.9625,229 L253.9156,229 L253.4,228.375 L253.4,228 L253.4,227.625 L253.9156,227 L254.9625,227 L258.6344,227 L261.3219,235 L261.8844,235 L261.8844,235 L262.4,235.625 L262.4,236 L262.4,236.375 L261.8844,237 L261.3219,237 L259.4313,237 L258.9156,237 L258.4,236.375 L258.4,236 L258.4,235.625 L258.9156,235 L259.4313,235 L259.4313,235 L259.15,234 Z M258.6031,232 L257.4,228.4219 L256.3688,232 L258.6031,232 Z "/><text fill="#000000" font-family="sans-serif" font-size="12" font-style="italic" lengthAdjust="spacingAndGlyphs" textLength="63" x="277.6" y="237.4102">ViewHolder</text><line style="stroke: #A80036; stroke-width: 1.5;" x1="215.5" x2="370.5" y1="248.5" y2="248.5"/><line style="stroke: #A80036; stroke-width: 1.5;" x1="215.5" x2="370.5" y1="256.5" y2="256.5"/><ellipse cx="225.5" cy="268.918" fill="#84BE84" rx="3" ry="3" style="stroke: #038048; stroke-width: 1.0;"/><text fill="#000000" font-family="sans-serif" font-size="11" lengthAdjust="spacingAndGlyphs" textLength="131" x="234.5" y="271.9189">«create»(itemView : View)</text><!--class LayoutManager--><rect fill="#FEFECE" filter="url(#f1etzovjspcwel)" height="48" id="LayoutManager" style="stroke: #A80036; stroke-width: 1.5;" width="117" x="406.5" y="223.5"/><ellipse cx="421.5" cy="239.5" fill="#A9DCDF" rx="11" ry="11" style="stroke: #A80036; stroke-width: 1.0;"/><path d="M423.25,241 L419.9531,241 L419.5156,242 L419.5156,242 L419.9844,242 L420.5,242.625 L420.5,243 L420.5,243.375 L419.9844,244 L419.5156,244 L417.625,244 L417.0156,244 L416.5,243.375 L416.5,243 L416.5,242.625 L417.0156,242 L417.625,242 L419.9375,236 L419.0625,236 L418.0156,236 L417.5,235.375 L417.5,235 L417.5,234.625 L418.0156,234 L419.0625,234 L422.7344,234 L425.4219,242 L425.9844,242 L425.9844,242 L426.5,242.625 L426.5,243 L426.5,243.375 L425.9844,244 L425.4219,244 L423.5313,244 L423.0156,244 L422.5,243.375 L422.5,243 L422.5,242.625 L423.0156,242 L423.5313,242 L423.5313,242 L423.25,241 Z M422.7031,239 L421.5,235.4219 L420.4688,239 L422.7031,239 Z "/><text fill="#000000" font-family="sans-serif" font-size="12" font-style="italic" lengthAdjust="spacingAndGlyphs" textLength="85" x="435.5" y="244.4102">LayoutManager</text><line style="stroke: #A80036; stroke-width: 1.5;" x1="407.5" x2="522.5" y1="255.5" y2="255.5"/><line style="stroke: #A80036; stroke-width: 1.5;" x1="407.5" x2="522.5" y1="263.5" y2="263.5"/><!--class LinearLayoutManager--><rect fill="#FEFECE" filter="url(#f1etzovjspcwel)" height="61.8359" id="LinearLayoutManager" style="stroke: #A80036; stroke-width: 1.5;" width="151" x="558.5" y="216.5"/><ellipse cx="573.5" cy="232.5" fill="#ADD1B2" rx="11" ry="11" style="stroke: #A80036; stroke-width: 1.0;"/><path d="M575.5,229 Q575.7031,228.5 575.9375,228.25 Q576.1719,228 576.4375,228 Q576.9063,228 577.2031,228.2813 Q577.5,228.5625 577.5,229.2188 L577.5,230.7813 Q577.5,231.4375 577.2188,231.7188 Q576.9375,232 576.5,232 Q576.1094,232 575.8594,231.8281 Q575.6094,231.6563 575.5,231.2031 Q575.4531,230.8906 575.2813,230.7188 Q574.9688,230.3906 574.4063,230.1953 Q573.8438,230 573.2813,230 Q572.5781,230 571.9922,230.2813 Q571.4063,230.5625 570.9531,231.1875 Q570.5,231.8125 570.5,232.6719 L570.5,233.5938 Q570.5,234.625 571.3438,235.3125 Q572.1875,236 573.6875,236 Q574.5781,236 575.2031,235.7969 Q575.5625,235.6875 575.9688,235.3281 Q576.2344,235.125 576.375,235.0625 Q576.5156,235 576.6875,235 Q577.0156,235 577.2578,235.2578 Q577.5,235.5156 577.5,235.875 Q577.5,236.2188 577.1563,236.625 Q576.6563,237.2188 575.8594,237.5469 Q574.8125,238 573.5313,238 Q572.0313,238 570.8281,237.4063 Q569.8594,236.9375 569.1797,235.9219 Q568.5,234.9063 568.5,233.7031 L568.5,232.6094 Q568.5,231.3594 569.1016,230.2656 Q569.7031,229.1719 570.7578,228.5859 Q571.8125,228 573,228 Q573.7188,228 574.3438,228.25 Q574.9688,228.5 575.5,229 Z "/><text fill="#000000" font-family="sans-serif" font-size="12" lengthAdjust="spacingAndGlyphs" textLength="119" x="587.5" y="237.4102">LinearLayoutManager</text><line style="stroke: #A80036; stroke-width: 1.5;" x1="559.5" x2="708.5" y1="248.5" y2="248.5"/><line style="stroke: #A80036; stroke-width: 1.5;" x1="559.5" x2="708.5" y1="256.5" y2="256.5"/><text fill="#000000" font-family="sans-serif" font-size="11" lengthAdjust="spacingAndGlyphs" textLength="133" x="564.5" y="271.9189">«create»(context : Context)</text><!--class FriendListFragment--><rect fill="#FEFECE" filter="url(#f1etzovjspcwel)" height="89.5078" id="FriendListFragment" style="stroke: #A80036; stroke-width: 1.5;" width="155" x="368.5" y="706.5"/><ellipse cx="390.25" cy="722.5" fill="#ADD1B2" rx="11" ry="11" style="stroke: #A80036; stroke-width: 1.0;"/><path d="M392.25,719 Q392.4531,718.5 392.6875,718.25 Q392.9219,718 393.1875,718 Q393.6563,718 393.9531,718.2813 Q394.25,718.5625 394.25,719.2188 L394.25,720.7813 Q394.25,721.4375 393.9688,721.7188 Q393.6875,722 393.25,722 Q392.8594,722 392.6094,721.8281 Q392.3594,721.6563 392.25,721.2031 Q392.2031,720.8906 392.0313,720.7188 Q391.7188,720.3906 391.1563,720.1953 Q390.5938,720 390.0313,720 Q389.3281,720 388.7422,720.2813 Q388.1563,720.5625 387.7031,721.1875 Q387.25,721.8125 387.25,722.6719 L387.25,723.5938 Q387.25,724.625 388.0938,725.3125 Q388.9375,726 390.4375,726 Q391.3281,726 391.9531,725.7969 Q392.3125,725.6875 392.7188,725.3281 Q392.9844,725.125 393.125,725.0625 Q393.2656,725 393.4375,725 Q393.7656,725 394.0078,725.2578 Q394.25,725.5156 394.25,725.875 Q394.25,726.2188 393.9063,726.625 Q393.4063,727.2188 392.6094,727.5469 Q391.5625,728 390.2813,728 Q388.7813,728 387.5781,727.4063 Q386.6094,726.9375 385.9297,725.9219 Q385.25,724.9063 385.25,723.7031 L385.25,722.6094 Q385.25,721.3594 385.8516,720.2656 Q386.4531,719.1719 387.5078,718.5859 Q388.5625,718 389.75,718 Q390.4688,718 391.0938,718.25 Q391.7188,718.5 392.25,719 Z "/><text fill="#000000" font-family="sans-serif" font-size="12" lengthAdjust="spacingAndGlyphs" textLength="108" x="405.75" y="727.4102">FriendListFragment</text><line style="stroke: #A80036; stroke-width: 1.5;" x1="369.5" x2="522.5" y1="738.5" y2="738.5"/><line style="stroke: #A80036; stroke-width: 1.5;" x1="369.5" x2="522.5" y1="746.5" y2="746.5"/><ellipse cx="379.5" cy="758.918" fill="#84BE84" rx="3" ry="3" style="stroke: #038048; stroke-width: 1.0;"/><text fill="#000000" font-family="sans-serif" font-size="11" lengthAdjust="spacingAndGlyphs" textLength="87" x="388.5" y="761.9189">onCreateView(...)</text><ellipse cx="379.5" cy="779.6719" fill="#84BE84" rx="3" ry="3" style="stroke: #038048; stroke-width: 1.0;"/><text fill="#000000" font-family="sans-serif" font-size="11" lengthAdjust="spacingAndGlyphs" textLength="129" x="388.5" y="775.7549">onItemClicked(position : int,</text><text fill="#000000" font-family="sans-serif" font-size="11" lengthAdjust="spacingAndGlyphs" textLength="58" x="424.5" y="789.5908">user : User)</text><!--class FriendListViewModel--><rect fill="#FEFECE" filter="url(#f1etzovjspcwel)" height="103.3438" id="FriendListViewModel" style="stroke: #A80036; stroke-width: 1.5;" width="199" x="558.5" y="700"/><ellipse cx="597.35" cy="716" fill="#ADD1B2" rx="11" ry="11" style="stroke: #A80036; stroke-width: 1.0;"/><path d="M599.35,712.5 Q599.5531,712 599.7875,711.75 Q600.0219,711.5 600.2875,711.5 Q600.7563,711.5 601.0531,711.7813 Q601.35,712.0625 601.35,712.7188 L601.35,714.2813 Q601.35,714.9375 601.0688,715.2188 Q600.7875,715.5 600.35,715.5 Q599.9594,715.5 599.7094,715.3281 Q599.4594,715.1563 599.35,714.7031 Q599.3031,714.3906 599.1313,714.2188 Q598.8188,713.8906 598.2563,713.6953 Q597.6938,713.5 597.1313,713.5 Q596.4281,713.5 595.8422,713.7813 Q595.2563,714.0625 594.8031,714.6875 Q594.35,715.3125 594.35,716.1719 L594.35,717.0938 Q594.35,718.125 595.1938,718.8125 Q596.0375,719.5 597.5375,719.5 Q598.4281,719.5 599.0531,719.2969 Q599.4125,719.1875 599.8188,718.8281 Q600.0844,718.625 600.225,718.5625 Q600.3656,718.5 600.5375,718.5 Q600.8656,718.5 601.1078,718.7578 Q601.35,719.0156 601.35,719.375 Q601.35,719.7188 601.0063,720.125 Q600.5063,720.7188 599.7094,721.0469 Q598.6625,721.5 597.3813,721.5 Q595.8813,721.5 594.6781,720.9063 Q593.7094,720.4375 593.0297,719.4219 Q592.35,718.4063 592.35,717.2031 L592.35,716.1094 Q592.35,714.8594 592.9516,713.7656 Q593.5531,712.6719 594.6078,712.0859 Q595.6625,711.5 596.85,711.5 Q597.5688,711.5 598.1938,711.75 Q598.8188,712 599.35,712.5 Z "/><text fill="#000000" font-family="sans-serif" font-size="12" lengthAdjust="spacingAndGlyphs" textLength="114" x="616.65" y="720.9102">FriendListViewModel</text><line style="stroke: #A80036; stroke-width: 1.5;" x1="559.5" x2="756.5" y1="732" y2="732"/><rect fill="none" height="6" style="stroke: #C82930; stroke-width: 1.0;" width="6" x="566.5" y="741.418"/><text fill="#000000" font-family="sans-serif" font-size="11" lengthAdjust="spacingAndGlyphs" textLength="173" x="578.5" y="747.4189">data : MutableLiveData&lt;List&lt;User&gt;&gt;</text><line style="stroke: #A80036; stroke-width: 1.5;" x1="559.5" x2="756.5" y1="753.8359" y2="753.8359"/><ellipse cx="569.5" cy="766.2539" fill="#84BE84" rx="3" ry="3" style="stroke: #038048; stroke-width: 1.0;"/><text fill="#000000" font-family="sans-serif" font-size="11" lengthAdjust="spacingAndGlyphs" textLength="51" x="578.5" y="769.2549">«create»()</text><ellipse cx="569.5" cy="780.0898" fill="#84BE84" rx="3" ry="3" style="stroke: #038048; stroke-width: 1.0;"/><text fill="#000000" font-family="sans-serif" font-size="11" lengthAdjust="spacingAndGlyphs" textLength="45" x="578.5" y="783.0908">getData()</text><ellipse cx="569.5" cy="793.9258" fill="#84BE84" rx="3" ry="3" style="stroke: #038048; stroke-width: 1.0;"/><text fill="#000000" font-family="sans-serif" font-size="11" lengthAdjust="spacingAndGlyphs" textLength="62" x="578.5" y="796.9268">onAddClick()</text><!--class FriendListAdapter<FriendListViewHolder>--><rect fill="#FEFECE" filter="url(#f1etzovjspcwel)" height="144.8516" id="FriendListAdapter&lt;FriendListViewHolder&gt;" style="stroke: #A80036; stroke-width: 1.5;" width="284" x="555" y="359"/><ellipse cx="580.35" cy="375" fill="#ADD1B2" rx="11" ry="11" style="stroke: #A80036; stroke-width: 1.0;"/><path d="M582.35,371.5 Q582.5531,371 582.7875,370.75 Q583.0219,370.5 583.2875,370.5 Q583.7563,370.5 584.0531,370.7813 Q584.35,371.0625 584.35,371.7188 L584.35,373.2813 Q584.35,373.9375 584.0688,374.2188 Q583.7875,374.5 583.35,374.5 Q582.9594,374.5 582.7094,374.3281 Q582.4594,374.1563 582.35,373.7031 Q582.3031,373.3906 582.1313,373.2188 Q581.8188,372.8906 581.2563,372.6953 Q580.6938,372.5 580.1313,372.5 Q579.4281,372.5 578.8422,372.7813 Q578.2563,373.0625 577.8031,373.6875 Q577.35,374.3125 577.35,375.1719 L577.35,376.0938 Q577.35,377.125 578.1938,377.8125 Q579.0375,378.5 580.5375,378.5 Q581.4281,378.5 582.0531,378.2969 Q582.4125,378.1875 582.8188,377.8281 Q583.0844,377.625 583.225,377.5625 Q583.3656,377.5 583.5375,377.5 Q583.8656,377.5 584.1078,377.7578 Q584.35,378.0156 584.35,378.375 Q584.35,378.7188 584.0063,379.125 Q583.5063,379.7188 582.7094,380.0469 Q581.6625,380.5 580.3813,380.5 Q578.8813,380.5 577.6781,379.9063 Q576.7094,379.4375 576.0297,378.4219 Q575.35,377.4063 575.35,376.2031 L575.35,375.1094 Q575.35,373.8594 575.9516,372.7656 Q576.5531,371.6719 577.6078,371.0859 Q578.6625,370.5 579.85,370.5 Q580.5688,370.5 581.1938,370.75 Q581.8188,371 582.35,371.5 Z "/><text fill="#000000" font-family="sans-serif" font-size="12" lengthAdjust="spacingAndGlyphs" textLength="229" x="596.65" y="379.9102">FriendListAdapter&lt;FriendListViewHolder&gt;</text><line style="stroke: #A80036; stroke-width: 1.5;" x1="556" x2="838" y1="391" y2="391"/><rect fill="none" height="6" style="stroke: #C82930; stroke-width: 1.0;" width="6" x="563" y="400.418"/><text fill="#000000" font-family="sans-serif" font-size="11" lengthAdjust="spacingAndGlyphs" textLength="82" x="575" y="406.4189">data : List&lt;User&gt;</text><rect fill="none" height="6" style="stroke: #C82930; stroke-width: 1.0;" width="6" x="563" y="414.2539"/><text fill="#000000" font-family="sans-serif" font-size="11" lengthAdjust="spacingAndGlyphs" textLength="147" x="575" y="420.2549">listener : FriendClickedListener</text><line style="stroke: #A80036; stroke-width: 1.5;" x1="556" x2="838" y1="426.6719" y2="426.6719"/><ellipse cx="566" cy="439.0898" fill="#84BE84" rx="3" ry="3" style="stroke: #038048; stroke-width: 1.0;"/><text fill="#000000" font-family="sans-serif" font-size="11" lengthAdjust="spacingAndGlyphs" textLength="258" x="575" y="442.0908">«create»(friendClickedListener:FriendClickedListener)</text><ellipse cx="566" cy="452.9258" fill="#84BE84" rx="3" ry="3" style="stroke: #038048; stroke-width: 1.0;"/><text fill="#000000" font-family="sans-serif" font-size="11" lengthAdjust="spacingAndGlyphs" textLength="109" x="575" y="455.9268">onCreateViewHolder()</text><ellipse cx="566" cy="466.7617" fill="#84BE84" rx="3" ry="3" style="stroke: #038048; stroke-width: 1.0;"/><text fill="#000000" font-family="sans-serif" font-size="11" lengthAdjust="spacingAndGlyphs" textLength="98" x="575" y="469.7627">onBindViewHolder()</text><ellipse cx="566" cy="480.5977" fill="#84BE84" rx="3" ry="3" style="stroke: #038048; stroke-width: 1.0;"/><text fill="#000000" font-family="sans-serif" font-size="11" lengthAdjust="spacingAndGlyphs" textLength="70" x="575" y="483.5986">getItemCount()</text><ellipse cx="566" cy="494.4336" fill="#84BE84" rx="3" ry="3" style="stroke: #038048; stroke-width: 1.0;"/><text fill="#000000" font-family="sans-serif" font-size="11" lengthAdjust="spacingAndGlyphs" textLength="45" x="575" y="497.4346">setData()</text><!--class FriendListViewHolder--><rect fill="#FEFECE" filter="url(#f1etzovjspcwel)" height="117.1797" id="FriendListViewHolder" style="stroke: #A80036; stroke-width: 1.5;" width="207" x="189.5" y="373"/><ellipse cx="230.15" cy="389" fill="#ADD1B2" rx="11" ry="11" style="stroke: #A80036; stroke-width: 1.0;"/><path d="M232.15,385.5 Q232.3531,385 232.5875,384.75 Q232.8219,384.5 233.0875,384.5 Q233.5563,384.5 233.8531,384.7813 Q234.15,385.0625 234.15,385.7188 L234.15,387.2813 Q234.15,387.9375 233.8688,388.2188 Q233.5875,388.5 233.15,388.5 Q232.7594,388.5 232.5094,388.3281 Q232.2594,388.1563 232.15,387.7031 Q232.1031,387.3906 231.9313,387.2188 Q231.6188,386.8906 231.0563,386.6953 Q230.4938,386.5 229.9313,386.5 Q229.2281,386.5 228.6422,386.7813 Q228.0563,387.0625 227.6031,387.6875 Q227.15,388.3125 227.15,389.1719 L227.15,390.0938 Q227.15,391.125 227.9938,391.8125 Q228.8375,392.5 230.3375,392.5 Q231.2281,392.5 231.8531,392.2969 Q232.2125,392.1875 232.6188,391.8281 Q232.8844,391.625 233.025,391.5625 Q233.1656,391.5 233.3375,391.5 Q233.6656,391.5 233.9078,391.7578 Q234.15,392.0156 234.15,392.375 Q234.15,392.7188 233.8063,393.125 Q233.3063,393.7188 232.5094,394.0469 Q231.4625,394.5 230.1813,394.5 Q228.6813,394.5 227.4781,393.9063 Q226.5094,393.4375 225.8297,392.4219 Q225.15,391.4063 225.15,390.2031 L225.15,389.1094 Q225.15,387.8594 225.7516,386.7656 Q226.3531,385.6719 227.4078,385.0859 Q228.4625,384.5 229.65,384.5 Q230.3688,384.5 230.9938,384.75 Q231.6188,385 232.15,385.5 Z "/><text fill="#000000" font-family="sans-serif" font-size="12" lengthAdjust="spacingAndGlyphs" textLength="118" x="249.85" y="393.9102">FriendListViewHolder</text><line style="stroke: #A80036; stroke-width: 1.5;" x1="190.5" x2="395.5" y1="405" y2="405"/><rect fill="none" height="6" style="stroke: #C82930; stroke-width: 1.0;" width="6" x="197.5" y="414.418"/><text fill="#000000" font-family="sans-serif" font-size="11" lengthAdjust="spacingAndGlyphs" textLength="127" x="209.5" y="420.4189">binding : FriendItemBinding</text><rect fill="none" height="6" style="stroke: #C82930; stroke-width: 1.0;" width="6" x="197.5" y="428.2539"/><text fill="#000000" font-family="sans-serif" font-size="11" lengthAdjust="spacingAndGlyphs" textLength="147" x="209.5" y="434.2549">listener : FriendClickedListener</text><line style="stroke: #A80036; stroke-width: 1.5;" x1="190.5" x2="395.5" y1="440.6719" y2="440.6719"/><ellipse cx="200.5" cy="460.0078" fill="#84BE84" rx="3" ry="3" style="stroke: #038048; stroke-width: 1.0;"/><text fill="#000000" font-family="sans-serif" font-size="11" lengthAdjust="spacingAndGlyphs" textLength="177" x="209.5" y="456.0908">«create»(binding : FriendItemBinding,</text><text fill="#000000" font-family="sans-serif" font-size="11" lengthAdjust="spacingAndGlyphs" textLength="151" x="239.5" y="469.9268">listener : FriendClickedListener)</text><ellipse cx="200.5" cy="480.7617" fill="#84BE84" rx="3" ry="3" style="stroke: #038048; stroke-width: 1.0;"/><text fill="#000000" font-family="sans-serif" font-size="11" lengthAdjust="spacingAndGlyphs" textLength="83" x="209.5" y="483.7627">onClick(v : View)</text><!--class FriendClickedListener--><rect fill="#FEFECE" filter="url(#f1etzovjspcwel)" height="75.6719" id="FriendClickedListener" style="stroke: #A80036; stroke-width: 1.5;" width="155" x="395.5" y="564"/><ellipse cx="411.4" cy="580" fill="#B4A7E5" rx="11" ry="11" style="stroke: #A80036; stroke-width: 1.0;"/><path d="M412.4,577 L412.4,583 L414.4,583 L414.8844,583 L415.4,583.625 L415.4,584 L415.4,584.375 L414.8844,585 L414.4,585 L408.4,585 L407.9156,585 L407.4,584.375 L407.4,584 L407.4,583.625 L407.9156,583 L408.4,583 L410.4,583 L410.4,577 L408.4,577 L407.9156,577 L407.4,576.375 L407.4,576 L407.4,575.625 L407.9156,575 L408.4,575 L414.4,575 L414.8844,575 L415.4,575.625 L415.4,576 L415.4,576.375 L414.8844,577 L414.4,577 L412.4,577 Z "/><text fill="#000000" font-family="sans-serif" font-size="12" font-style="italic" lengthAdjust="spacingAndGlyphs" textLength="121" x="425.6" y="584.9102">FriendClickedListener</text><line style="stroke: #A80036; stroke-width: 1.5;" x1="396.5" x2="549.5" y1="596" y2="596"/><line style="stroke: #A80036; stroke-width: 1.5;" x1="396.5" x2="549.5" y1="604" y2="604"/><ellipse cx="406.5" cy="623.3359" fill="#84BE84" rx="3" ry="3" style="stroke: #038048; stroke-width: 1.0;"/><text fill="#000000" font-family="sans-serif" font-size="11" lengthAdjust="spacingAndGlyphs" textLength="129" x="415.5" y="619.4189">onItemClicked(position : int,</text><text fill="#000000" font-family="sans-serif" font-size="11" lengthAdjust="spacingAndGlyphs" textLength="58" x="451.5" y="633.2549">user : User)</text><!--link RecyclerView to Adapter<ViewHolder>--><path d="M542.095,112.302 C595.912,123.547 668.323,142.679 727,172.5 C739.683,178.946 752.309,187.24 764,195.933 " fill="none" id="RecyclerView-Adapter&lt;ViewHolder&gt;" style="stroke: #A80036; stroke-width: 1.0;"/><ellipse cx="534.9265" cy="110.8537" fill="#FFFFFF" rx="8" ry="8" style="stroke: #A80036; stroke-width: 1.0;"/><line style="stroke: #A80036; stroke-width: 1.0;" x1="542.7679" x2="527.085" y1="112.4385" y2="109.269"/><line style="stroke: #A80036; stroke-width: 1.0;" x1="533.3417" x2="536.5112" y1="118.6952" y2="103.0123"/><!--link RecyclerView to ViewHolder--><path d="M410.009,146.158 C383.123,169.214 351.569,196.274 328.008,216.479 " fill="none" id="RecyclerView-ViewHolder" style="stroke: #A80036; stroke-width: 1.0;"/><ellipse cx="415.5243" cy="141.4279" fill="#FFFFFF" rx="8" ry="8" style="stroke: #A80036; stroke-width: 1.0;"/><line style="stroke: #A80036; stroke-width: 1.0;" x1="409.4516" x2="421.597" y1="146.6358" y2="136.22"/><line style="stroke: #A80036; stroke-width: 1.0;" x1="410.3164" x2="420.7322" y1="135.3552" y2="147.5006"/><!--link RecyclerView to LayoutManager--><path d="M465,151.332 C465,175.876 465,203.885 465,223.128 " fill="none" id="RecyclerView-LayoutManager" style="stroke: #A80036; stroke-width: 1.0;"/><ellipse cx="465.0008" cy="144.22" fill="#FFFFFF" rx="8" ry="8" style="stroke: #A80036; stroke-width: 1.0;"/><line style="stroke: #A80036; stroke-width: 1.0;" x1="465.0015" x2="465" y1="152.22" y2="136.22"/><line style="stroke: #A80036; stroke-width: 1.0;" x1="457.0008" x2="473.0008" y1="144.2208" y2="144.2192"/><!--link LinearLayoutManager to LayoutManager--><path d="M558.206,247.5 C553.451,247.5 548.696,247.5 543.941,247.5 " fill="none" id="LinearLayoutManager-LayoutManager" style="stroke: #A80036; stroke-width: 1.0;"/><polygon fill="none" points="543.754,254.5,523.754,247.5,543.754,240.5,543.754,254.5" style="stroke: #A80036; stroke-width: 1.0;"/><!--link FriendClickedListener to FriendListFragment--><path d="M462.566,659.998 C459.743,675.422 456.731,691.878 454.06,706.4699 " fill="none" id="FriendClickedListener-FriendListFragment" style="stroke: #A80036; stroke-width: 1.0; stroke-dasharray: 7.0,7.0;"/><polygon fill="none" points="455.7,658.633,466.187,640.22,469.471,661.154,455.7,658.633" style="stroke: #A80036; stroke-width: 1.0;"/><!--link ViewModel to FriendListViewModel--><path d="M658,646.27 C658,663.06 658,682.409 658,699.842 " fill="none" id="ViewModel-FriendListViewModel" style="stroke: #A80036; stroke-width: 1.0;"/><polygon fill="none" points="651,646.047,658,626.047,665,646.047,651,646.047" style="stroke: #A80036; stroke-width: 1.0;"/><!--link FriendListFragment to FriendListViewModel--><path d="M537.084,751.5 C544.2,751.5 551.315,751.5 558.431,751.5 " fill="none" id="FriendListFragment-FriendListViewModel" style="stroke: #A80036; stroke-width: 1.0;"/><polygon fill="#FFFFFF" points="523.844,751.5,529.844,755.5,535.844,751.5,529.844,747.5,523.844,751.5" style="stroke: #A80036; stroke-width: 1.0;"/><!--link OnClickListener to FriendListViewHolder--><path d="M144.975,292.344 C170.846,316.49 203.274,346.756 231.179,372.801 " fill="none" id="OnClickListener-FriendListViewHolder" style="stroke: #A80036; stroke-width: 1.0; stroke-dasharray: 7.0,7.0;"/><polygon fill="none" points="140.045,297.317,130.2,278.554,149.598,287.083,140.045,297.317" style="stroke: #A80036; stroke-width: 1.0;"/><!--link ViewHolder to FriendListViewHolder--><path d="M293,298.59 C293,321.575 293,348.957 293,372.801 " fill="none" id="ViewHolder-FriendListViewHolder" style="stroke: #A80036; stroke-width: 1.0;"/><polygon fill="none" points="286,298.554,293,278.554,300,298.554,286,298.554" style="stroke: #A80036; stroke-width: 1.0;"/><!--link Fragment to FriendListFragment--><path d="M347.021,647.687 C364.921,666.28 385.645,687.807 403.49,706.3435 " fill="none" id="Fragment-FriendListFragment" style="stroke: #A80036; stroke-width: 1.0;"/><polygon fill="none" points="341.907,652.468,333.078,633.205,351.992,642.758,341.907,652.468" style="stroke: #A80036; stroke-width: 1.0;"/><!--link Adapter<ViewHolder> to FriendListAdapter<FriendListViewHolder>--><path d="M775.113,315.85 C765.532,329.913 755.399,344.786 745.719,358.993 " fill="none" id="Adapter&lt;ViewHolder&gt;-FriendListAdapter&lt;FriendListViewHolder&gt;" style="stroke: #A80036; stroke-width: 1.0;"/><polygon fill="none" points="769.413,311.784,786.459,299.197,780.983,319.667,769.413,311.784" style="stroke: #A80036; stroke-width: 1.0;"/><!--link FriendListAdapter<FriendListViewHolder> to FriendClickedListener--><path d="M591.081,512.176 C567.121,530.199 542.789,548.503 522.488,563.774 " fill="none" id="FriendListAdapter&lt;FriendListViewHolder&gt;-FriendClickedListener" style="stroke: #A80036; stroke-width: 1.0;"/><polygon fill="#FFFFFF" points="601.679,504.203,594.4796,504.6131,592.0891,511.4165,599.2886,511.0064,601.679,504.203" style="stroke: #A80036; stroke-width: 1.0;"/><!--link FriendListViewHolder to FriendClickedListener--><path d="M364.053,499.013 C387.597,521.054 412.954,544.79 433.275,563.813 " fill="none" id="FriendListViewHolder-FriendClickedListener" style="stroke: #A80036; stroke-width: 1.0;"/><polygon fill="#FFFFFF" points="354.442,490.017,356.0889,497.0375,363.2029,498.2174,361.5559,491.1969,354.442,490.017" style="stroke: #A80036; stroke-width: 1.0;"/><!--
@startuml

class FriendListFragment {
    +onCreateView(...)
    +onItemClicked(position : int,\n            user : User)
}
class FriendListViewModel {
    -data : MutableLiveData<List<User>>
    +<<create>>()
    +getData()
    +onAddClick()
}
class "FriendListAdapter<FriendListViewHolder>" {
    -data : List<User>
    -listener : FriendClickedListener
    +<<create>>(friendClickedListener:FriendClickedListener)
    +onCreateViewHolder()
    +onBindViewHolder()
    +getItemCount()
    +setData()
}
class FriendListViewHolder {
    -binding : FriendItemBinding
    -listener : FriendClickedListener
    +<<create>>(binding : FriendItemBinding, \n          listener : FriendClickedListener)
    +onClick(v : View)
}

package android.support.v4.app {
    class Fragment {
        +onCreateView(...)
    }
}

package android.arch.lifecycle {
    class ViewModel
}
interface FriendClickedListener {
    +onItemClicked(position : int,\n            user : User)
}

package android.view.View {
    interface OnClickListener {
        +onClick(v : View)
    }
}
package android.support.v7.widget {
    class RecyclerView {
        +setAdapter()
        +setLayoutManager()
    }
    abstract class "Adapter<ViewHolder>" {
        +onCreateViewHolder()
        +onBindViewHolder()
        +getItemCount()
        +setData()
    }
    abstract class ViewHolder {
        +<<create>>(itemView : View)
    }

    abstract class LayoutManager

    class LinearLayoutManager {
        <<create>>(context : Context)
    }
}


RecyclerView +- - "Adapter<ViewHolder>"
RecyclerView +- - ViewHolder
RecyclerView +- - LayoutManager
LayoutManager <|-left- LinearLayoutManager

FriendClickedListener <|.. FriendListFragment
ViewModel <|- - FriendListViewModel
FriendListFragment o-r- FriendListViewModel
OnClickListener <|.. FriendListViewHolder
ViewHolder <|- - FriendListViewHolder
Fragment <|- - FriendListFragment
"Adapter<ViewHolder>" <|- - "FriendListAdapter<FriendListViewHolder>"
"FriendListAdapter<FriendListViewHolder>" o- - FriendClickedListener
FriendListViewHolder o- - FriendClickedListener


@enduml

PlantUML version 1.2017.15(Mon Jul 03 18:45:34 CEST 2017)
(GPL source distribution)
Java Runtime: OpenJDK Runtime Environment
JVM: OpenJDK 64-Bit Server VM
Java Version: 1.8.0_152-release-915-b01
Operating System: Windows 10
OS Version: 10.0
Default Encoding: Cp1252
Language: en
Country: US
--></g></svg>