<?xml version="1.0" encoding="UTF-8" standalone="no"?><svg xmlns="http://www.w3.org/2000/svg" xmlns:xlink="http://www.w3.org/1999/xlink" contentScriptType="application/ecmascript" contentStyleType="text/css" height="792px" preserveAspectRatio="none" style="width:698px;height:791px;" version="1.1" viewBox="0 0 698 791" width="698.4px" zoomAndPan="magnify"><defs><filter height="300%" id="f120n188y3y7g1" width="300%" x="-1" y="-1"><feGaussianBlur result="blurOut" stdDeviation="1.7999999523162842"/><feColorMatrix in="blurOut" result="blurOut2" type="matrix" values="0 0 0 0 0 0 0 0 0 0 0 0 0 0 0 0 0 0 .4 0"/><feOffset dx="3.5999999046325684" dy="3.5999999046325684" in="blurOut2" result="blurOut3"/><feBlend in="SourceGraphic" in2="blurOut3" mode="normal"/></filter></defs><g><!--cluster database--><polygon fill="#FFFFFF" filter="url(#f120n188y3y7g1)" points="19.8,21.6,82.8,21.6,89.1,42.8484,676.8,42.8484,676.8,296.1,19.8,296.1,19.8,21.6" style="stroke: #000000; stroke-width: 1.7999999523162842;"/><line style="stroke: #000000; stroke-width: 1.7999999523162842;" x1="19.8" x2="89.1" y1="42.8484" y2="42.8484"/><text fill="#000000" font-family="sans-serif" font-size="12.6" font-weight="bold" lengthAdjust="spacingAndGlyphs" textLength="57.6" x="23.4" y="36.4799">database</text><!--cluster repositories--><polygon fill="#FFFFFF" filter="url(#f120n188y3y7g1)" points="30.6,317.7,113.4,317.7,119.7,338.9484,678.6,338.9484,678.6,452.7,30.6,452.7,30.6,317.7" style="stroke: #000000; stroke-width: 1.7999999523162842;"/><line style="stroke: #000000; stroke-width: 1.7999999523162842;" x1="30.6" x2="119.7" y1="338.9484" y2="338.9484"/><text fill="#000000" font-family="sans-serif" font-size="12.6" font-weight="bold" lengthAdjust="spacingAndGlyphs" textLength="77.4" x="34.2" y="332.5799">repositories</text><!--cluster networking--><polygon fill="#FFFFFF" filter="url(#f120n188y3y7g1)" points="236.7,474.3,313.2,474.3,319.5,495.5484,630,495.5484,630,781.2,236.7,781.2,236.7,474.3" style="stroke: #000000; stroke-width: 1.7999999523162842;"/><line style="stroke: #000000; stroke-width: 1.7999999523162842;" x1="236.7" x2="319.5" y1="495.5484" y2="495.5484"/><text fill="#000000" font-family="sans-serif" font-size="12.6" font-weight="bold" lengthAdjust="spacingAndGlyphs" textLength="71.1" x="240.3" y="489.1799">networking</text><!--class UD--><rect fill="#FEFECE" filter="url(#f120n188y3y7g1)" height="93.0094" id="UD" style="stroke: #A80036; stroke-width: 1.3499999642372131;" width="174.6" x="487.8" y="189"/><ellipse cx="548.775" cy="203.4" fill="#ADD1B2" rx="9.9" ry="9.9" style="stroke: #A80036; stroke-width: 0.8999999761581421;"/><path d="M550.575,200.25 Q550.7578,199.8 550.9687,199.575 Q551.1797,199.35 551.4187,199.35 Q551.8406,199.35 552.1078,199.6031 Q552.375,199.8562 552.375,200.4469 L552.375,201.8531 Q552.375,202.4437 552.1219,202.6969 Q551.8687,202.95 551.475,202.95 Q551.1234,202.95 550.8984,202.7953 Q550.6734,202.6406 550.575,202.2328 Q550.5328,201.9516 550.3781,201.7969 Q550.0969,201.5016 549.5906,201.3258 Q549.0844,201.15 548.5781,201.15 Q547.9453,201.15 547.418,201.4031 Q546.8906,201.6562 546.4828,202.2187 Q546.075,202.7812 546.075,203.5547 L546.075,204.3844 Q546.075,205.3125 546.8344,205.9312 Q547.5937,206.55 548.9437,206.55 Q549.7453,206.55 550.3078,206.3672 Q550.6312,206.2687 550.9969,205.9453 Q551.2359,205.7625 551.3625,205.7062 Q551.489,205.65 551.6437,205.65 Q551.939,205.65 552.157,205.882 Q552.375,206.1141 552.375,206.4375 Q552.375,206.7469 552.0656,207.1125 Q551.6156,207.6469 550.8984,207.9422 Q549.9562,208.35 548.8031,208.35 Q547.4531,208.35 546.3703,207.8156 Q545.4984,207.3937 544.8867,206.4797 Q544.275,205.5656 544.275,204.4828 L544.275,203.4984 Q544.275,202.3734 544.8164,201.3891 Q545.3578,200.4047 546.307,199.8773 Q547.2562,199.35 548.325,199.35 Q548.9719,199.35 549.5344,199.575 Q550.0969,199.8 550.575,200.25 Z "/><text fill="#000000" font-family="sans-serif" font-size="10.8" lengthAdjust="spacingAndGlyphs" textLength="45" x="567.225" y="207.8191">UserDao</text><line style="stroke: #A80036; stroke-width: 1.3499999642372131;" x1="488.7" x2="661.5" y1="217.8" y2="217.8"/><line style="stroke: #A80036; stroke-width: 1.3499999642372131;" x1="488.7" x2="661.5" y1="225" y2="225"/><text fill="#000000" font-family="sans-serif" font-size="9.9" lengthAdjust="spacingAndGlyphs" textLength="77.4" x="493.2" y="238.877">save(user : User)</text><text fill="#000000" font-family="sans-serif" font-size="9.9" lengthAdjust="spacingAndGlyphs" textLength="163.8" x="493.2" y="251.3294">getUserByID(id : int) : LiveData&lt;User&gt;</text><text fill="#000000" font-family="sans-serif" font-size="9.9" lengthAdjust="spacingAndGlyphs" textLength="156.6" x="493.2" y="263.7817">getFriends() : LiveData&lt;List&lt;User&gt;&gt;</text><text fill="#000000" font-family="sans-serif" font-size="9.9" lengthAdjust="spacingAndGlyphs" textLength="8.1" x="493.2" y="276.2341">...</text><!--class UGD--><rect fill="#FEFECE" filter="url(#f120n188y3y7g1)" height="80.557" id="UGD" style="stroke: #A80036; stroke-width: 1.3499999642372131;" width="207.9" x="247.95" y="194.85"/><ellipse cx="310.275" cy="209.25" fill="#ADD1B2" rx="9.9" ry="9.9" style="stroke: #A80036; stroke-width: 0.8999999761581421;"/><path d="M312.075,206.1 Q312.2578,205.65 312.4687,205.425 Q312.6797,205.2 312.9187,205.2 Q313.3406,205.2 313.6078,205.4531 Q313.875,205.7062 313.875,206.2969 L313.875,207.7031 Q313.875,208.2937 313.6219,208.5469 Q313.3687,208.8 312.975,208.8 Q312.6234,208.8 312.3984,208.6453 Q312.1734,208.4906 312.075,208.0828 Q312.0328,207.8016 311.8781,207.6469 Q311.5969,207.3516 311.0906,207.1758 Q310.5844,207 310.0781,207 Q309.4453,207 308.918,207.2531 Q308.3906,207.5062 307.9828,208.0687 Q307.575,208.6312 307.575,209.4047 L307.575,210.2344 Q307.575,211.1625 308.3344,211.7812 Q309.0937,212.4 310.4437,212.4 Q311.2453,212.4 311.8078,212.2172 Q312.1312,212.1187 312.4969,211.7953 Q312.7359,211.6125 312.8625,211.5562 Q312.9891,211.5 313.1437,211.5 Q313.4391,211.5 313.657,211.732 Q313.875,211.9641 313.875,212.2875 Q313.875,212.5969 313.5656,212.9625 Q313.1156,213.4969 312.3984,213.7922 Q311.4562,214.2 310.3031,214.2 Q308.9531,214.2 307.8703,213.6656 Q306.9984,213.2437 306.3867,212.3297 Q305.775,211.4156 305.775,210.3328 L305.775,209.3484 Q305.775,208.2234 306.3164,207.2391 Q306.8578,206.2547 307.807,205.7273 Q308.7562,205.2 309.825,205.2 Q310.4719,205.2 311.0344,205.425 Q311.5969,205.65 312.075,206.1 Z "/><text fill="#000000" font-family="sans-serif" font-size="10.8" lengthAdjust="spacingAndGlyphs" textLength="75.6" x="328.725" y="213.6691">UserGroupDao</text><line style="stroke: #A80036; stroke-width: 1.3499999642372131;" x1="248.85" x2="454.95" y1="223.65" y2="223.65"/><line style="stroke: #A80036; stroke-width: 1.3499999642372131;" x1="248.85" x2="454.95" y1="230.85" y2="230.85"/><text fill="#000000" font-family="sans-serif" font-size="9.9" lengthAdjust="spacingAndGlyphs" textLength="131.4" x="253.35" y="244.727">save(userGroup : UserGroup)</text><text fill="#000000" font-family="sans-serif" font-size="9.9" lengthAdjust="spacingAndGlyphs" textLength="197.1" x="253.35" y="257.1794">getGroupByID(id : int) : LiveData&lt;UserGroup&gt;</text><text fill="#000000" font-family="sans-serif" font-size="9.9" lengthAdjust="spacingAndGlyphs" textLength="8.1" x="253.35" y="269.6317">...</text><!--class ED--><rect fill="#FEFECE" filter="url(#f120n188y3y7g1)" height="80.557" id="ED" style="stroke: #A80036; stroke-width: 1.3499999642372131;" width="181.8" x="34.2" y="194.85"/><ellipse cx="97.425" cy="209.25" fill="#ADD1B2" rx="9.9" ry="9.9" style="stroke: #A80036; stroke-width: 0.8999999761581421;"/><path d="M99.225,206.1 Q99.4078,205.65 99.6187,205.425 Q99.8297,205.2 100.0687,205.2 Q100.4906,205.2 100.7578,205.4531 Q101.025,205.7062 101.025,206.2969 L101.025,207.7031 Q101.025,208.2937 100.7719,208.5469 Q100.5187,208.8 100.125,208.8 Q99.7734,208.8 99.5484,208.6453 Q99.3234,208.4906 99.225,208.0828 Q99.1828,207.8016 99.0281,207.6469 Q98.7469,207.3516 98.2406,207.1758 Q97.7344,207 97.2281,207 Q96.5953,207 96.068,207.2531 Q95.5406,207.5062 95.1328,208.0687 Q94.725,208.6312 94.725,209.4047 L94.725,210.2344 Q94.725,211.1625 95.4844,211.7812 Q96.2437,212.4 97.5937,212.4 Q98.3953,212.4 98.9578,212.2172 Q99.2812,212.1187 99.6469,211.7953 Q99.8859,211.6125 100.0125,211.5562 Q100.1391,211.5 100.2937,211.5 Q100.5891,211.5 100.807,211.732 Q101.025,211.9641 101.025,212.2875 Q101.025,212.5969 100.7156,212.9625 Q100.2656,213.4969 99.5484,213.7922 Q98.6062,214.2 97.4531,214.2 Q96.1031,214.2 95.0203,213.6656 Q94.1484,213.2437 93.5367,212.3297 Q92.925,211.4156 92.925,210.3328 L92.925,209.3484 Q92.925,208.2234 93.4664,207.2391 Q94.0078,206.2547 94.957,205.7273 Q95.9062,205.2 96.975,205.2 Q97.6219,205.2 98.1844,205.425 Q98.7469,205.65 99.225,206.1 Z "/><text fill="#000000" font-family="sans-serif" font-size="10.8" lengthAdjust="spacingAndGlyphs" textLength="47.7" x="115.875" y="213.6691">EventDao</text><line style="stroke: #A80036; stroke-width: 1.3499999642372131;" x1="35.1" x2="215.1" y1="223.65" y2="223.65"/><line style="stroke: #A80036; stroke-width: 1.3499999642372131;" x1="35.1" x2="215.1" y1="230.85" y2="230.85"/><text fill="#000000" font-family="sans-serif" font-size="9.9" lengthAdjust="spacingAndGlyphs" textLength="85.5" x="39.6" y="244.727">save(event : Event)</text><text fill="#000000" font-family="sans-serif" font-size="9.9" lengthAdjust="spacingAndGlyphs" textLength="171" x="39.6" y="257.1794">getEventByID(id : int) : LiveData&lt;Event&gt;</text><text fill="#000000" font-family="sans-serif" font-size="9.9" lengthAdjust="spacingAndGlyphs" textLength="8.1" x="39.6" y="269.6317">...</text><!--class DB--><rect fill="#FEFECE" filter="url(#f120n188y3y7g1)" height="80.557" id="DB" style="stroke: #A80036; stroke-width: 1.3499999642372131;" width="169.2" x="267.3" y="54"/><ellipse cx="314.325" cy="68.4" fill="#ADD1B2" rx="9.9" ry="9.9" style="stroke: #A80036; stroke-width: 0.8999999761581421;"/><path d="M316.125,65.25 Q316.3078,64.8 316.5187,64.575 Q316.7297,64.35 316.9687,64.35 Q317.3906,64.35 317.6578,64.6031 Q317.925,64.8562 317.925,65.4469 L317.925,66.8531 Q317.925,67.4437 317.6719,67.6969 Q317.4187,67.95 317.025,67.95 Q316.6734,67.95 316.4484,67.7953 Q316.2234,67.6406 316.125,67.2328 Q316.0828,66.9516 315.9281,66.7969 Q315.6469,66.5016 315.1406,66.3258 Q314.6344,66.15 314.1281,66.15 Q313.4953,66.15 312.968,66.4031 Q312.4406,66.6562 312.0328,67.2187 Q311.625,67.7812 311.625,68.5547 L311.625,69.3844 Q311.625,70.3125 312.3844,70.9312 Q313.1437,71.55 314.4937,71.55 Q315.2953,71.55 315.8578,71.3672 Q316.1812,71.2687 316.5469,70.9453 Q316.7859,70.7625 316.9125,70.7062 Q317.0391,70.65 317.1937,70.65 Q317.4891,70.65 317.707,70.882 Q317.925,71.1141 317.925,71.4375 Q317.925,71.7469 317.6156,72.1125 Q317.1656,72.6469 316.4484,72.9422 Q315.5062,73.35 314.3531,73.35 Q313.0031,73.35 311.9203,72.8156 Q311.0484,72.3937 310.4367,71.4797 Q309.825,70.5656 309.825,69.4828 L309.825,68.4984 Q309.825,67.3734 310.3664,66.3891 Q310.9078,65.4047 311.857,64.8773 Q312.8062,64.35 313.875,64.35 Q314.5219,64.35 315.0844,64.575 Q315.6469,64.8 316.125,65.25 Z "/><text fill="#000000" font-family="sans-serif" font-size="10.8" lengthAdjust="spacingAndGlyphs" textLength="67.5" x="332.775" y="72.8191">treffDataBase</text><line style="stroke: #A80036; stroke-width: 1.3499999642372131;" x1="268.2" x2="435.6" y1="82.8" y2="82.8"/><line style="stroke: #A80036; stroke-width: 1.3499999642372131;" x1="268.2" x2="435.6" y1="90" y2="90"/><text fill="#000000" font-family="sans-serif" font-size="9.9" lengthAdjust="spacingAndGlyphs" textLength="104.4" x="272.7" y="103.877">getUserDao() : UserDao</text><text fill="#000000" font-family="sans-serif" font-size="9.9" lengthAdjust="spacingAndGlyphs" textLength="158.4" x="272.7" y="116.3294">getUserGroupDao() : UserGroupDao</text><text fill="#000000" font-family="sans-serif" font-size="9.9" lengthAdjust="spacingAndGlyphs" textLength="111.6" x="272.7" y="128.7817">getEventDao() : EventDao</text><!--class UR--><rect fill="#FEFECE" filter="url(#f120n188y3y7g1)" height="87.9258" id="UR" style="stroke: #A80036; stroke-width: 1.3499999642372131;" width="180" x="484.2" y="350.1"/><ellipse cx="531.675" cy="368.1844" fill="#ADD1B2" rx="9.9" ry="9.9" style="stroke: #A80036; stroke-width: 0.8999999761581421;"/><path d="M533.475,365.0344 Q533.6578,364.5844 533.8687,364.3594 Q534.0797,364.1344 534.3187,364.1344 Q534.7406,364.1344 535.0078,364.3875 Q535.275,364.6406 535.275,365.2312 L535.275,366.6375 Q535.275,367.2281 535.0219,367.4812 Q534.7687,367.7344 534.375,367.7344 Q534.0234,367.7344 533.7984,367.5797 Q533.5734,367.425 533.475,367.0172 Q533.4328,366.7359 533.2781,366.5812 Q532.9969,366.2859 532.4906,366.1101 Q531.9844,365.9344 531.4781,365.9344 Q530.8453,365.9344 530.318,366.1875 Q529.7906,366.4406 529.3828,367.0031 Q528.975,367.5656 528.975,368.3391 L528.975,369.1687 Q528.975,370.0969 529.7344,370.7156 Q530.4937,371.3344 531.8437,371.3344 Q532.6453,371.3344 533.2078,371.1516 Q533.5312,371.0531 533.8969,370.7297 Q534.1359,370.5469 534.2625,370.4906 Q534.389,370.4344 534.5437,370.4344 Q534.839,370.4344 535.057,370.6664 Q535.275,370.8984 535.275,371.2219 Q535.275,371.5312 534.9656,371.8969 Q534.5156,372.4312 533.7984,372.7266 Q532.8562,373.1344 531.7031,373.1344 Q530.3531,373.1344 529.2703,372.6 Q528.3984,372.1781 527.7867,371.2641 Q527.175,370.35 527.175,369.2672 L527.175,368.2828 Q527.175,367.1578 527.7164,366.1734 Q528.2578,365.1891 529.207,364.6617 Q530.1562,364.1344 531.225,364.1344 Q531.8719,364.1344 532.4344,364.3594 Q532.9969,364.5844 533.475,365.0344 Z "/><text fill="#000000" font-family="sans-serif" font-size="10.8" font-style="italic" lengthAdjust="spacingAndGlyphs" textLength="59.4" x="559.125" y="365.8113">«Singleton»</text><text fill="#000000" font-family="sans-serif" font-size="10.8" lengthAdjust="spacingAndGlyphs" textLength="77.4" x="550.125" y="379.3957">UserRepository</text><line style="stroke: #A80036; stroke-width: 1.3499999642372131;" x1="485.1" x2="663.3" y1="386.2687" y2="386.2687"/><line style="stroke: #A80036; stroke-width: 1.3499999642372131;" x1="485.1" x2="663.3" y1="393.4687" y2="393.4687"/><ellipse cx="494.1" cy="404.6449" fill="#84BE84" rx="2.7" ry="2.7" style="stroke: #038048; stroke-width: 0.8999999761581421;"/><text fill="#000000" font-family="sans-serif" font-size="9.9" lengthAdjust="spacingAndGlyphs" textLength="144" x="502.2" y="407.3458">getUser(id : int) : LiveData&lt;User&gt;</text><ellipse cx="494.1" cy="423.3234" fill="#84BE84" rx="2.7" ry="2.7" style="stroke: #038048; stroke-width: 0.8999999761581421;"/><text fill="#000000" font-family="sans-serif" font-size="9.9" lengthAdjust="spacingAndGlyphs" textLength="156.6" x="502.2" y="419.7981">getFriends() : LiveData&lt;List&lt;User&gt;&gt;</text><text fill="#000000" font-family="sans-serif" font-size="9.9" lengthAdjust="spacingAndGlyphs" textLength="8.1" x="502.2" y="432.2505">...</text><!--class UGR--><rect fill="#FEFECE" filter="url(#f120n188y3y7g1)" height="87.9258" id="UGR" style="stroke: #A80036; stroke-width: 1.3499999642372131;" width="200.7" x="251.55" y="350.1"/><ellipse cx="294.075" cy="368.1844" fill="#ADD1B2" rx="9.9" ry="9.9" style="stroke: #A80036; stroke-width: 0.8999999761581421;"/><path d="M295.875,365.0344 Q296.0578,364.5844 296.2687,364.3594 Q296.4797,364.1344 296.7187,364.1344 Q297.1406,364.1344 297.4078,364.3875 Q297.675,364.6406 297.675,365.2312 L297.675,366.6375 Q297.675,367.2281 297.4219,367.4812 Q297.1687,367.7344 296.775,367.7344 Q296.4234,367.7344 296.1984,367.5797 Q295.9734,367.425 295.875,367.0172 Q295.8328,366.7359 295.6781,366.5812 Q295.3969,366.2859 294.8906,366.1101 Q294.3844,365.9344 293.8781,365.9344 Q293.2453,365.9344 292.718,366.1875 Q292.1906,366.4406 291.7828,367.0031 Q291.375,367.5656 291.375,368.3391 L291.375,369.1687 Q291.375,370.0969 292.1344,370.7156 Q292.8937,371.3344 294.2437,371.3344 Q295.0453,371.3344 295.6078,371.1516 Q295.9312,371.0531 296.2969,370.7297 Q296.5359,370.5469 296.6625,370.4906 Q296.7891,370.4344 296.9437,370.4344 Q297.2391,370.4344 297.457,370.6664 Q297.675,370.8984 297.675,371.2219 Q297.675,371.5312 297.3656,371.8969 Q296.9156,372.4312 296.1984,372.7266 Q295.2562,373.1344 294.1031,373.1344 Q292.7531,373.1344 291.6703,372.6 Q290.7984,372.1781 290.1867,371.2641 Q289.575,370.35 289.575,369.2672 L289.575,368.2828 Q289.575,367.1578 290.1164,366.1734 Q290.6578,365.1891 291.607,364.6617 Q292.5562,364.1344 293.625,364.1344 Q294.2719,364.1344 294.8344,364.3594 Q295.3969,364.5844 295.875,365.0344 Z "/><text fill="#000000" font-family="sans-serif" font-size="10.8" font-style="italic" lengthAdjust="spacingAndGlyphs" textLength="59.4" x="336.825" y="365.8113">«Singleton»</text><text fill="#000000" font-family="sans-serif" font-size="10.8" lengthAdjust="spacingAndGlyphs" textLength="108" x="312.525" y="379.3957">UserGroupRepository</text><line style="stroke: #A80036; stroke-width: 1.3499999642372131;" x1="252.45" x2="451.35" y1="386.2687" y2="386.2687"/><line style="stroke: #A80036; stroke-width: 1.3499999642372131;" x1="252.45" x2="451.35" y1="393.4687" y2="393.4687"/><ellipse cx="261.45" cy="404.6449" fill="#84BE84" rx="2.7" ry="2.7" style="stroke: #038048; stroke-width: 0.8999999761581421;"/><text fill="#000000" font-family="sans-serif" font-size="9.9" lengthAdjust="spacingAndGlyphs" textLength="153" x="269.55" y="407.3458">addGroup(userGroup : UserGroup)</text><ellipse cx="261.45" cy="423.3234" fill="#84BE84" rx="2.7" ry="2.7" style="stroke: #038048; stroke-width: 0.8999999761581421;"/><text fill="#000000" font-family="sans-serif" font-size="9.9" lengthAdjust="spacingAndGlyphs" textLength="177.3" x="269.55" y="419.7981">getGroup(id : int) : LiveData&lt;UserGroup&gt;</text><text fill="#000000" font-family="sans-serif" font-size="9.9" lengthAdjust="spacingAndGlyphs" textLength="8.1" x="269.55" y="432.2505">...</text><!--class ER--><rect fill="#FEFECE" filter="url(#f120n188y3y7g1)" height="87.9258" id="ER" style="stroke: #A80036; stroke-width: 1.3499999642372131;" width="174.6" x="45" y="350.1"/><ellipse cx="88.425" cy="368.1844" fill="#ADD1B2" rx="9.9" ry="9.9" style="stroke: #A80036; stroke-width: 0.8999999761581421;"/><path d="M90.225,365.0344 Q90.4078,364.5844 90.6187,364.3594 Q90.8297,364.1344 91.0687,364.1344 Q91.4906,364.1344 91.7578,364.3875 Q92.025,364.6406 92.025,365.2312 L92.025,366.6375 Q92.025,367.2281 91.7719,367.4812 Q91.5187,367.7344 91.125,367.7344 Q90.7734,367.7344 90.5484,367.5797 Q90.3234,367.425 90.225,367.0172 Q90.1828,366.7359 90.0281,366.5812 Q89.7469,366.2859 89.2406,366.1101 Q88.7344,365.9344 88.2281,365.9344 Q87.5953,365.9344 87.068,366.1875 Q86.5406,366.4406 86.1328,367.0031 Q85.725,367.5656 85.725,368.3391 L85.725,369.1687 Q85.725,370.0969 86.4844,370.7156 Q87.2437,371.3344 88.5937,371.3344 Q89.3953,371.3344 89.9578,371.1516 Q90.2812,371.0531 90.6469,370.7297 Q90.8859,370.5469 91.0125,370.4906 Q91.1391,370.4344 91.2937,370.4344 Q91.5891,370.4344 91.807,370.6664 Q92.025,370.8984 92.025,371.2219 Q92.025,371.5312 91.7156,371.8969 Q91.2656,372.4312 90.5484,372.7266 Q89.6062,373.1344 88.4531,373.1344 Q87.1031,373.1344 86.0203,372.6 Q85.1484,372.1781 84.5367,371.2641 Q83.925,370.35 83.925,369.2672 L83.925,368.2828 Q83.925,367.1578 84.4664,366.1734 Q85.0078,365.1891 85.957,364.6617 Q86.9062,364.1344 87.975,364.1344 Q88.6219,364.1344 89.1844,364.3594 Q89.7469,364.5844 90.225,365.0344 Z "/><text fill="#000000" font-family="sans-serif" font-size="10.8" font-style="italic" lengthAdjust="spacingAndGlyphs" textLength="59.4" x="117.225" y="365.8113">«Singleton»</text><text fill="#000000" font-family="sans-serif" font-size="10.8" lengthAdjust="spacingAndGlyphs" textLength="80.1" x="106.875" y="379.3957">EventRepository</text><line style="stroke: #A80036; stroke-width: 1.3499999642372131;" x1="45.9" x2="218.7" y1="386.2687" y2="386.2687"/><line style="stroke: #A80036; stroke-width: 1.3499999642372131;" x1="45.9" x2="218.7" y1="393.4687" y2="393.4687"/><ellipse cx="54.9" cy="404.6449" fill="#84BE84" rx="2.7" ry="2.7" style="stroke: #038048; stroke-width: 0.8999999761581421;"/><text fill="#000000" font-family="sans-serif" font-size="9.9" lengthAdjust="spacingAndGlyphs" textLength="104.4" x="63" y="407.3458">addEvent(event : Event)</text><ellipse cx="54.9" cy="423.3234" fill="#84BE84" rx="2.7" ry="2.7" style="stroke: #038048; stroke-width: 0.8999999761581421;"/><text fill="#000000" font-family="sans-serif" font-size="9.9" lengthAdjust="spacingAndGlyphs" textLength="151.2" x="63" y="419.7981">getEvent(id : int) : LiveData&lt;Event&gt;</text><text fill="#000000" font-family="sans-serif" font-size="9.9" lengthAdjust="spacingAndGlyphs" textLength="8.1" x="63" y="432.2505">...</text><!--class E--><rect fill="#FEFECE" filter="url(#f120n188y3y7g1)" height="80.557" id="E" style="stroke: #A80036; stroke-width: 1.3499999642372131;" width="131.4" x="484.2" y="541.35"/><ellipse cx="533.925" cy="555.75" fill="#EB937F" rx="9.9" ry="9.9" style="stroke: #A80036; stroke-width: 0.8999999761581421;"/><path d="M532.575,556.65 L532.575,558.45 L536.175,558.45 L536.175,557.55 L536.175,557.114 L536.7375,556.65 L537.075,556.65 L537.4125,556.65 L537.975,557.114 L537.975,557.55 L537.975,560.25 L530.775,560.25 L530.339,560.25 L529.875,559.6875 L529.875,559.35 L529.875,559.0125 L530.339,558.45 L530.775,558.45 L530.775,558.45 L530.775,553.05 L530.775,553.05 L530.339,553.05 L529.875,552.4875 L529.875,552.15 L529.875,551.8125 L530.339,551.25 L530.775,551.25 L537.975,551.25 L537.975,553.95 L537.975,554.3859 L537.4125,554.85 L537.075,554.85 L536.7375,554.85 L536.175,554.3859 L536.175,553.95 L536.175,553.05 L532.575,553.05 L532.575,554.85 L533.475,554.85 L533.475,554.414 L533.475,554.414 L534.0375,553.95 L534.375,553.95 L534.7125,553.95 L535.275,554.414 L535.275,554.85 L535.275,556.65 L535.275,557.0859 L534.7125,557.55 L534.7125,557.55 L534.375,557.55 L534.0375,557.55 L533.475,557.0859 L533.475,557.0859 L533.475,556.65 L532.575,556.65 Z "/><text fill="#000000" font-family="sans-serif" font-size="10.8" lengthAdjust="spacingAndGlyphs" textLength="24.3" x="552.375" y="560.1691">Error</text><line style="stroke: #A80036; stroke-width: 1.3499999642372131;" x1="485.1" x2="614.7" y1="570.15" y2="570.15"/><rect fill="none" height="5.4" style="stroke: #C82930; stroke-width: 0.8999999761581421;" width="5.4" x="491.4" y="578.6262"/><text fill="#000000" font-family="sans-serif" font-size="9.9" lengthAdjust="spacingAndGlyphs" textLength="39.6" x="502.2" y="584.027">code : int</text><rect fill="none" height="5.4" style="stroke: #C82930; stroke-width: 0.8999999761581421;" width="5.4" x="491.4" y="591.0785"/><text fill="#000000" font-family="sans-serif" font-size="9.9" lengthAdjust="spacingAndGlyphs" textLength="72.9" x="502.2" y="596.4794">message : String</text><rect fill="none" height="5.4" style="stroke: #C82930; stroke-width: 0.8999999761581421;" width="5.4" x="491.4" y="603.5308"/><text fill="#000000" font-family="sans-serif" font-size="9.9" lengthAdjust="spacingAndGlyphs" textLength="108" x="502.2" y="608.9317">isUserRelevant : boolean</text><line style="stroke: #A80036; stroke-width: 1.3499999642372131;" x1="485.1" x2="614.7" y1="614.707" y2="614.707"/><!--class RE--><rect fill="#FEFECE" filter="url(#f120n188y3y7g1)" height="150.1875" id="RE" style="stroke: #A80036; stroke-width: 1.3499999642372131;" width="200.7" x="251.55" y="506.7"/><ellipse cx="306.225" cy="524.7844" fill="#ADD1B2" rx="9.9" ry="9.9" style="stroke: #A80036; stroke-width: 0.8999999761581421;"/><path d="M308.025,521.6344 Q308.2078,521.1844 308.4187,520.9594 Q308.6297,520.7344 308.8687,520.7344 Q309.2906,520.7344 309.5578,520.9875 Q309.825,521.2406 309.825,521.8312 L309.825,523.2375 Q309.825,523.8281 309.5719,524.0812 Q309.3187,524.3344 308.925,524.3344 Q308.5734,524.3344 308.3484,524.1797 Q308.1234,524.025 308.025,523.6172 Q307.9828,523.3359 307.8281,523.1812 Q307.5469,522.8859 307.0406,522.7101 Q306.5344,522.5344 306.0281,522.5344 Q305.3953,522.5344 304.868,522.7875 Q304.3406,523.0406 303.9328,523.6031 Q303.525,524.1656 303.525,524.939 L303.525,525.7687 Q303.525,526.6969 304.2844,527.3156 Q305.0437,527.9344 306.3937,527.9344 Q307.1953,527.9344 307.7578,527.7515 Q308.0812,527.6531 308.4469,527.3297 Q308.6859,527.1469 308.8125,527.0906 Q308.9391,527.0344 309.0937,527.0344 Q309.3891,527.0344 309.607,527.2664 Q309.825,527.4984 309.825,527.8219 Q309.825,528.1312 309.5156,528.4969 Q309.0656,529.0312 308.3484,529.3265 Q307.4062,529.7344 306.2531,529.7344 Q304.9031,529.7344 303.8203,529.2 Q302.9484,528.7781 302.3367,527.864 Q301.725,526.95 301.725,525.8672 L301.725,524.8828 Q301.725,523.7578 302.2664,522.7734 Q302.8078,521.789 303.757,521.2617 Q304.7062,520.7344 305.775,520.7344 Q306.4219,520.7344 306.9844,520.9594 Q307.5469,521.1844 308.025,521.6344 Z "/><text fill="#000000" font-family="sans-serif" font-size="10.8" font-style="italic" lengthAdjust="spacingAndGlyphs" textLength="59.4" x="336.825" y="522.4113">«Singleton»</text><text fill="#000000" font-family="sans-serif" font-size="10.8" lengthAdjust="spacingAndGlyphs" textLength="83.7" x="324.675" y="535.9957">RequestEncoder</text><line style="stroke: #A80036; stroke-width: 1.3499999642372131;" x1="252.45" x2="451.35" y1="542.8687" y2="542.8687"/><line style="stroke: #A80036; stroke-width: 1.3499999642372131;" x1="252.45" x2="451.35" y1="550.0687" y2="550.0687"/><rect fill="#F24D5C" height="5.4" style="stroke: #C82930; stroke-width: 0.8999999761581421;" width="5.4" x="258.75" y="558.5449"/><text fill="#000000" font-family="sans-serif" font-size="9.9" lengthAdjust="spacingAndGlyphs" textLength="145.8" x="269.55" y="563.9458">getErrorByCode(code : int) : Error</text><ellipse cx="261.45" cy="573.6973" fill="#84BE84" rx="2.7" ry="2.7" style="stroke: #038048; stroke-width: 0.8999999761581421;"/><text fill="#000000" font-family="sans-serif" font-size="9.9" lengthAdjust="spacingAndGlyphs" textLength="144" x="269.55" y="576.3981">getUser(id : int) : LiveData&lt;User&gt;</text><ellipse cx="261.45" cy="586.1496" fill="#84BE84" rx="2.7" ry="2.7" style="stroke: #038048; stroke-width: 0.8999999761581421;"/><text fill="#000000" font-family="sans-serif" font-size="9.9" lengthAdjust="spacingAndGlyphs" textLength="156.6" x="269.55" y="588.8505">getFriends() : LiveData&lt;List&lt;User&gt;&gt;</text><ellipse cx="261.45" cy="598.6019" fill="#84BE84" rx="2.7" ry="2.7" style="stroke: #038048; stroke-width: 0.8999999761581421;"/><text fill="#000000" font-family="sans-serif" font-size="9.9" lengthAdjust="spacingAndGlyphs" textLength="153" x="269.55" y="601.3028">addGroup(userGroup : UserGroup)</text><ellipse cx="261.45" cy="611.0543" fill="#84BE84" rx="2.7" ry="2.7" style="stroke: #038048; stroke-width: 0.8999999761581421;"/><text fill="#000000" font-family="sans-serif" font-size="9.9" lengthAdjust="spacingAndGlyphs" textLength="177.3" x="269.55" y="613.7552">getGroup(id : int) : LiveData&lt;UserGroup&gt;</text><ellipse cx="261.45" cy="623.5066" fill="#84BE84" rx="2.7" ry="2.7" style="stroke: #038048; stroke-width: 0.8999999761581421;"/><text fill="#000000" font-family="sans-serif" font-size="9.9" lengthAdjust="spacingAndGlyphs" textLength="104.4" x="269.55" y="626.2075">addEvent(event : Event)</text><ellipse cx="261.45" cy="642.1851" fill="#84BE84" rx="2.7" ry="2.7" style="stroke: #038048; stroke-width: 0.8999999761581421;"/><text fill="#000000" font-family="sans-serif" font-size="9.9" lengthAdjust="spacingAndGlyphs" textLength="151.2" x="269.55" y="638.6598">getEvent(id : int) : LiveData&lt;Event&gt;</text><text fill="#000000" font-family="sans-serif" font-size="9.9" lengthAdjust="spacingAndGlyphs" textLength="8.1" x="269.55" y="651.1122">...</text><!--class CH--><rect fill="#FEFECE" filter="url(#f120n188y3y7g1)" height="55.6523" id="CH" style="stroke: #A80036; stroke-width: 1.3499999642372131;" width="154.8" x="274.5" y="711"/><ellipse cx="301.365" cy="725.4" fill="#ADD1B2" rx="9.9" ry="9.9" style="stroke: #A80036; stroke-width: 0.8999999761581421;"/><path d="M303.165,722.25 Q303.3478,721.8 303.5587,721.575 Q303.7697,721.35 304.0087,721.35 Q304.4306,721.35 304.6978,721.6031 Q304.965,721.8562 304.965,722.4469 L304.965,723.8531 Q304.965,724.4437 304.7119,724.6969 Q304.4587,724.95 304.065,724.95 Q303.7134,724.95 303.4884,724.7953 Q303.2634,724.6406 303.165,724.2328 Q303.1228,723.9515 302.9681,723.7969 Q302.6869,723.5015 302.1806,723.3258 Q301.6744,723.15 301.1681,723.15 Q300.5353,723.15 300.008,723.4031 Q299.4806,723.6562 299.0728,724.2187 Q298.665,724.7812 298.665,725.5547 L298.665,726.3844 Q298.665,727.3125 299.4244,727.9312 Q300.1837,728.55 301.5337,728.55 Q302.3353,728.55 302.8978,728.3672 Q303.2212,728.2687 303.5869,727.9453 Q303.8259,727.7625 303.9525,727.7062 Q304.0791,727.65 304.2337,727.65 Q304.5291,727.65 304.747,727.882 Q304.965,728.114 304.965,728.4375 Q304.965,728.7469 304.6556,729.1125 Q304.2056,729.6469 303.4884,729.9422 Q302.5462,730.35 301.3931,730.35 Q300.0431,730.35 298.9603,729.8156 Q298.0884,729.3937 297.4767,728.4797 Q296.865,727.5656 296.865,726.4828 L296.865,725.4984 Q296.865,724.3734 297.4064,723.389 Q297.9478,722.4047 298.897,721.8773 Q299.8462,721.35 300.915,721.35 Q301.5619,721.35 302.1244,721.575 Q302.6869,721.8 303.165,722.25 Z "/><text fill="#000000" font-family="sans-serif" font-size="10.8" lengthAdjust="spacingAndGlyphs" textLength="96.3" x="316.935" y="729.8191">ConnectionHandler</text><line style="stroke: #A80036; stroke-width: 1.3499999642372131;" x1="275.4" x2="428.4" y1="739.8" y2="739.8"/><line style="stroke: #A80036; stroke-width: 1.3499999642372131;" x1="275.4" x2="428.4" y1="747" y2="747"/><ellipse cx="284.4" cy="758.1762" fill="#84BE84" rx="2.7" ry="2.7" style="stroke: #038048; stroke-width: 0.8999999761581421;"/><text fill="#000000" font-family="sans-serif" font-size="9.9" lengthAdjust="spacingAndGlyphs" textLength="131.4" x="292.5" y="760.877">sendRequest(request : String)</text><!--link UD to UR--><path d="M574.8372,282.0978 C574.7364,299.6991 574.6203,319.9671 574.515,338.3388 " fill="none" id="UD-UR" style="stroke: #A80036; stroke-width: 0.8999999761581421;"/><polygon fill="#FFFFFF" points="574.4475,350.091,578.0783,344.7117,574.5092,339.2912,570.8784,344.6705,574.4475,350.091" style="stroke: #A80036; stroke-width: 0.8999999761581421;"/><!--link UGD to UGR--><path d="M351.9,275.8806 C351.9,294.7941 351.9,317.7369 351.9,338.3055 " fill="none" id="UGD-UGR" style="stroke: #A80036; stroke-width: 0.8999999761581421;"/><polygon fill="#FFFFFF" points="351.9,350.0928,355.5,344.6928,351.9,339.2928,348.3,344.6928,351.9,350.0928" style="stroke: #A80036; stroke-width: 0.8999999761581421;"/><!--link ED to ER--><path d="M126.9171,275.8806 C127.7838,294.7941 128.8359,317.7369 129.7791,338.3055 " fill="none" id="ED-ER" style="stroke: #A80036; stroke-width: 0.8999999761581421;"/><polygon fill="#FFFFFF" points="130.3191,350.0928,133.6685,344.5339,129.8254,339.3041,126.476,344.863,130.3191,350.0928" style="stroke: #A80036; stroke-width: 0.8999999761581421;"/><!--link DB to UD--><path d="M425.5326,141.2721 C450.0738,156.5604 477.396,173.5821 501.9039,188.8506 " fill="none" id="DB-UD" style="stroke: #A80036; stroke-width: 0.8999999761581421;"/><polygon fill="#FFFFFF" points="415.5615,135.0603,418.2412,140.9712,424.7281,140.7711,422.0484,134.8601,415.5615,135.0603" style="stroke: #A80036; stroke-width: 0.8999999761581421;"/><!--link DB to UGD--><path d="M351.9,147.0177 C351.9,162.8271 351.9,179.9613 351.9,194.8383 " fill="none" id="DB-UGD" style="stroke: #A80036; stroke-width: 0.8999999761581421;"/><polygon fill="#FFFFFF" points="351.9,135.2457,348.3,140.6457,351.9,146.0457,355.5,140.6457,351.9,135.2457" style="stroke: #A80036; stroke-width: 0.8999999761581421;"/><!--link DB to ED--><path d="M277.0083,141.3153 C248.8311,158.5908 217.0539,178.074 189.8739,194.7375 " fill="none" id="DB-ED" style="stroke: #A80036; stroke-width: 0.8999999761581421;"/><polygon fill="#FFFFFF" points="287.2116,135.0603,280.7263,134.8134,278.0041,140.7049,284.4894,140.9518,287.2116,135.0603" style="stroke: #A80036; stroke-width: 0.8999999761581421;"/><!--link UR to RE--><path d="M496.5147,445.3713 C486.7164,452.4048 476.9865,459.7479 468,467.1 C453.1419,479.2554 437.9859,492.9867 423.738,506.5983 " fill="none" id="UR-RE" style="stroke: #A80036; stroke-width: 0.8999999761581421;"/><polygon fill="#FFFFFF" points="506.3103,438.453,499.8227,438.6278,497.4888,444.6837,503.9764,444.5088,506.3103,438.453" style="stroke: #A80036; stroke-width: 0.8999999761581421;"/><!--link UGR to RE--><path d="M351.9,450.2718 C351.9,467.9271 351.9,487.7721 351.9,506.5641 " fill="none" id="UGR-RE" style="stroke: #A80036; stroke-width: 0.8999999761581421;"/><polygon fill="#FFFFFF" points="351.9,438.4386,348.3,443.8386,351.9,449.2386,355.5,443.8386,351.9,438.4386" style="stroke: #A80036; stroke-width: 0.8999999761581421;"/><!--link ER to RE--><path d="M192.7242,446.238 C214.7373,464.8671 240.0939,486.3267 264.0051,506.5641 " fill="none" id="ER-RE" style="stroke: #A80036; stroke-width: 0.8999999761581421;"/><polygon fill="#FFFFFF" points="183.5091,438.4386,185.3051,444.6751,191.7527,445.4159,189.9567,439.1794,183.5091,438.4386" style="stroke: #A80036; stroke-width: 0.8999999761581421;"/><!--link RE to CH--><path d="M351.9,669.2967 C351.9,684.3249 351.9,698.9004 351.9,710.7312 " fill="none" id="RE-CH" style="stroke: #A80036; stroke-width: 0.8999999761581421;"/><polygon fill="#FFFFFF" points="351.9,657.1917,348.3,662.5917,351.9,667.9917,355.5,662.5917,351.9,657.1917" style="stroke: #A80036; stroke-width: 0.8999999761581421;"/><!--link RE to E--><path d="M452.4471,581.85 C462.9789,581.85 473.5107,581.85 484.0434,581.85 " fill="none" id="RE-E" style="stroke: #A80036; stroke-width: 0.8999999761581421;"/><!--
@startuml

package database {
    class "UserDao" as UD {
        save(user : User)
        getUserByID(id : int) : LiveData<User>
        getFriends() : LiveData<List<User>>\n...
    }
    class "UserGroupDao" as UGD {
        save(userGroup : UserGroup)
        getGroupByID(id : int) : LiveData<UserGroup>\n...
    }
    class "EventDao" as ED {
        save(event : Event)
        getEventByID(id : int) : LiveData<Event>\n...
    }
    class "treffDataBase" as DB {
        getUserDao() : UserDao
        getUserGroupDao() : UserGroupDao
        getEventDao() : EventDao
    }
}

package repositories {
    class "UserRepository" as UR <<Singleton>> {
        +getUser(id : int) : LiveData<User>
        +getFriends() : LiveData<List<User>>\n...
    }
    class "UserGroupRepository" as UGR <<Singleton>> {
        +addGroup(userGroup : UserGroup)
        +getGroup(id : int) : LiveData<UserGroup>\n...
    }
    class "EventRepository" as ER <<Singleton>> {
        +addEvent(event : Event)
        +getEvent(id : int) : LiveData<Event>\n...
    }
}

package networking {
    enum "Error" as E {
        -code : int
        -message : String
        -isUserRelevant : boolean
    }
    class "RequestEncoder" as RE <<Singleton>> {
        -getErrorByCode(code : int) : Error
        +getUser(id : int) : LiveData<User>
        +getFriends() : LiveData<List<User>>
        +addGroup(userGroup : UserGroup)
        +getGroup(id : int) : LiveData<UserGroup>
        +addEvent(event : Event)
        +getEvent(id : int) : LiveData<Event>\n...
    }
    class "ConnectionHandler" as CH {
        +sendRequest(request : String)
    }
}

UR o-up- UD
UGR o-up- UGD
ER o-up- ED

DB o-down- UD
DB o-down- UGD
DB o-down- ED

UR o-down- RE
UGR o-down- RE
ER o-down- RE

RE o-down- CH
RE -right- E


@enduml

PlantUML version 1.2017.15(Mon Jul 03 18:45:34 CEST 2017)
(GPL source distribution)
Java Runtime: OpenJDK Runtime Environment
JVM: OpenJDK 64-Bit Server VM
Java Version: 1.8.0_152-release-915-b01
Operating System: Windows 10
OS Version: 10.0
Default Encoding: Cp1252
Language: en
Country: US
--></g></svg>